<?xml version="1.0" encoding="utf-8"?>
<!-- Generator: Adobe Illustrator 19.2.1, SVG Export Plug-In . SVG Version: 6.00 Build 0)  -->
<svg version="1.0" xmlns="http://www.w3.org/2000/svg" xmlns:xlink="http://www.w3.org/1999/xlink" x="0px" y="0px" width="40px"
	 height="40px" viewBox="0 0 40 40" style="enable-background:new 0 0 40 40;" xml:space="preserve">
<style type="text/css">
	.st0{enable-background:new    ;}
	.st1{fill-rule:evenodd;clip-rule:evenodd;fill:#0056B8;}
	.st2{fill-rule:evenodd;clip-rule:evenodd;}
	.st3{fill-rule:evenodd;clip-rule:evenodd;fill:#FFFFFF;}
	.st4{fill:#FFFFFF;}
</style>
<g id="bg_1_" class="st0">
	<circle class="st1" cx="20" cy="20" r="20"/>
</g>
<g id="curve_1_1_">
	<g>
		<path class="st2" d="M32,36V15c0-2.2-1.8-4-4-4H12c-2.2,0-4,1.8-4,4v21c-0.3-0.3-0.7-0.5-1-0.8V15c0-2.8,2.2-5,5-5h16
			c2.8,0,5,2.2,5,5v20.2C32.7,35.5,32.3,35.7,32,36z"/>
	</g>
	<g>
		<path class="st3" d="M32,36V15c0-2.2-1.8-4-4-4H12c-2.2,0-4,1.8-4,4v21c-0.3-0.3-0.7-0.5-1-0.8V15c0-2.8,2.2-5,5-5h16
			c2.8,0,5,2.2,5,5v20.2C32.7,35.5,32.3,35.7,32,36z"/>
	</g>
</g>
<g id="curve_2_1_" class="st0">
	<path class="st4" d="M28.2,20H26c-1.2,0-2.2-1-2.2-2.2c0-0.4-0.3-0.7-0.7-0.7h-6c-0.4,0-0.7,0.3-0.7,0.7c0,1.2-1,2.2-2.2,2.2h-2.2
		c-0.4,0-0.7,0.3-0.7,0.7v10.5c0,0.4,0.3,0.7,0.7,0.7h16.5c0.4,0,0.7-0.3,0.7-0.7V20.8C29,20.3,28.7,20,28.2,20z M20,29.3
		c-2.1,0-3.8-1.7-3.8-3.8s1.7-3.8,3.8-3.8s3.8,1.7,3.8,3.8C23.8,27.6,22.1,29.3,20,29.3z M26,23.9c-0.8,0-1.4-0.6-1.4-1.4
		c0-0.8,0.6-1.4,1.4-1.4c0.8,0,1.4,0.6,1.4,1.4C27.4,23.3,26.8,23.9,26,23.9z"/>
</g>
</svg>
