<?xml version="1.0" encoding="utf-8"?>
<!-- Generator: Adobe Illustrator 19.2.1, SVG Export Plug-In . SVG Version: 6.00 Build 0)  -->
<svg version="1.0" id="Capa_1" xmlns="http://www.w3.org/2000/svg" xmlns:xlink="http://www.w3.org/1999/xlink" x="0px" y="0px"
	 width="160px" height="160px" viewBox="0 0 160 160" style="enable-background:new 0 0 160 160;" xml:space="preserve">
<style type="text/css">
	.st0{fill:#FFFFFF;}
	.st1{fill:#0056B8;}
</style>
<g>
	<circle class="st0" cx="80" cy="80" r="80"/>
	<g>
		<g>
			<path class="st1" d="M89.2,95.8l0.6-0.3c0.6-0.3,1.3-0.3,2-0.1l10.5,3.7c-0.1,0.2-0.3,0.5-0.5,0.7c-0.3,0.2-0.9,0.2-1.7-0.1
				L95.2,98c-0.3-0.1-0.7-0.1-1,0.1c-0.3,0.2-0.5,0.4-0.6,0.8c-0.1,0.2-0.8,2.4-2.7,3.4c-1.2,0.7-2.8,0.7-4.7,0
				c-0.3-0.1-0.7-0.1-1,0c-0.3,0.1-0.5,0.4-0.6,0.7c-0.1,0.3-0.1,0.7,0,1c0.1,0.3,0.4,0.5,0.7,0.7c1.2,0.4,2.3,0.6,3.3,0.6
				c1.2,0,2.3-0.3,3.4-0.8c1.9-1,2.9-2.7,3.4-3.7l3.7,1.3c1.6,0.5,2.9,0.5,3.9-0.2c1.6-1.1,1.8-3.1,1.8-3.5c0-0.5-0.3-1-0.8-1.2
				L92.6,93c-1.3-0.4-2.7-0.4-3.9,0.2l-0.6,0.3c-0.6,0.3-1.3,0.3-2,0.1l-0.9-0.3c-0.1-0.1-0.2-0.1-0.3-0.1l-5.9-2.1
				c-0.7-0.2-1.4,0.1-1.6,0.8l-5.1,14.4c-0.1,0.3-0.1,0.6,0.1,0.9l0,0c0.2,0.3,0.4,0.5,0.7,0.6l5.9,2.1c0.2,0.1,0.3,0.1,0.4,0.1
				c0.5,0,1-0.3,1.2-0.8L85.3,96C86.6,96.4,88,96.3,89.2,95.8z M83,95.1l-4.2,12.1l-3.5-1.2l4.2-12.1L83,95.1z"/>
			<path class="st1" d="M119.2,105.8L112.6,92c-0.2-0.3-0.4-0.5-0.7-0.6c-0.3-0.1-0.7-0.1-1,0.1l-5.6,2.7c-0.3,0.1-0.5,0.4-0.6,0.7
				c-0.1,0.3-0.1,0.7,0.1,1l6.2,12.9l-1.8,1.6c-1.8,1.6-3.9,3-6.1,4.1l-10.8,5.2c-0.2,0.1-0.3,0.1-0.4,0c-0.1,0-0.2-0.2-0.3-0.3
				c-0.1-0.1-0.1-0.3,0-0.4c0-0.1,0.2-0.2,0.3-0.3l6-2.9c0.6-0.3,0.9-1.1,0.6-1.7c-0.3-0.6-1.1-0.9-1.7-0.6l-8.9,4.3
				c-0.1,0.1-0.3,0.1-0.4,0c-0.1,0-0.2-0.2-0.3-0.3c-0.1-0.2-0.1-0.3,0-0.4c0-0.1,0.2-0.2,0.3-0.3l8.6-4.2c0.6-0.3,0.9-1.1,0.6-1.7
				c-0.1-0.3-0.4-0.5-0.7-0.6c-0.3-0.1-0.7-0.1-1,0.1l-9.7,4.7c-0.3,0.1-0.6,0-0.7-0.3c-0.1-0.2-0.1-0.3,0-0.4
				c0-0.1,0.2-0.2,0.3-0.3l8.8-4.2c0.3-0.1,0.5-0.4,0.6-0.7c0.1-0.3,0.1-0.7-0.1-1c-0.1-0.3-0.4-0.5-0.7-0.6c-0.3-0.1-0.7-0.1-1,0.1
				l-7.7,3.7c-0.3,0.1-0.6,0-0.7-0.2c-0.1-0.3,0-0.6,0.3-0.7l4.1-2c0.6-0.3,0.9-1.1,0.6-1.7c-0.1-0.3-0.4-0.5-0.7-0.6
				c-0.3-0.1-0.7-0.1-1,0.1l-4.1,2c-0.7,0.4-1.3,1-1.6,1.8c-0.3,0.8-0.2,1.6,0.1,2.4c0.2,0.3,0.4,0.6,0.6,0.9
				c-0.5,0.9-0.6,2-0.1,2.9c0.4,0.9,1.3,1.6,2.3,1.7c0,0.4,0.1,0.7,0.3,1c0.4,0.7,1,1.3,1.8,1.6c0.3,0.1,0.7,0.2,1,0.2
				c0.5,0,0.9-0.1,1.3-0.3L89,120c0,0.2,0.1,0.4,0.2,0.5c0.4,0.7,1,1.3,1.8,1.6c0.3,0.1,0.7,0.2,1,0.2c0,0,0,0,0,0
				c0.5,0,0.9-0.1,1.3-0.3l10.8-5.2c2.4-1.2,4.7-2.7,6.7-4.5l2.4-2.2l5.5-2.6C119.2,107.2,119.5,106.5,119.2,105.8z M116.4,105.8
				l-3.4,1.6l-5.5-11.5l3.4-1.6L116.4,105.8z"/>
		</g>
		<path class="st1" d="M111.3,79.9V61h3h0c1.5,0,2.8-0.9,3.2-2.3c0.1-0.3,0.2-0.7,0.2-1.1c0-1.1-0.5-2.1-1.4-2.7L82.1,29.6L77.3,26
			c-0.3-0.2-0.6-0.3-0.9-0.3c-0.3,0-0.6,0.1-0.9,0.3l-4.9,3.6L36.4,54.9c-0.9,0.7-1.4,1.7-1.4,2.7c0,0.4,0.1,0.7,0.2,1.1
			c0.5,1.4,1.8,2.3,3.2,2.3h0h3v32.2h0v9.6h-2.4c-0.8,0-1.5,0.7-1.5,1.5s0.7,1.5,1.5,1.5h24.1H66c0.5,15.8,13.6,28.5,29.5,28.5
			c16.3,0,29.5-13.2,29.5-29.5C124.9,94.3,119.5,85.2,111.3,79.9z M101.7,76V61h6.5v17.2C106.2,77.2,104,76.5,101.7,76z M79.6,79.9
			c-2.4,1.5-4.6,3.4-6.5,5.6V61h6.5V79.9z M89.1,76c-2.3,0.5-4.4,1.2-6.5,2.2V61h6.5V76z M51,102.8h-6.5V61H51v33.7l0,0V102.8z
			 M60.5,89.7l0,11.9c0,0,0,0,0,0v1.1h-6.5v-17l0-24.8h6.5V89.7z M40.1,57.9c-0.8,0-1.2-1.1-0.5-1.6l36.3-26.8
			c0.2-0.1,0.3-0.2,0.5-0.2c0.2,0,0.4,0.1,0.5,0.2l36.3,26.8c0.7,0.5,0.3,1.6-0.5,1.6H40.1z M98.7,75.5c-1.1-0.1-2.1-0.2-3.2-0.2
			c-1.1,0-2.2,0.1-3.2,0.2V61h6.5L98.7,75.5z M63.6,61h6.5v28.8c-2.3,3.8-3.7,8.2-4,13h-2.4V61z M95.4,131.3
			c-14.6,0-26.5-11.9-26.5-26.5s11.9-26.5,26.5-26.5S122,90.2,122,104.8S110.1,131.3,95.4,131.3z"/>
	</g>
</g>
</svg>
