<?xml version="1.0" encoding="utf-8"?>
<!-- Generator: Adobe Illustrator 19.2.1, SVG Export Plug-In . SVG Version: 6.00 Build 0)  -->
<svg version="1.0" id="Capa_1" xmlns="http://www.w3.org/2000/svg" xmlns:xlink="http://www.w3.org/1999/xlink" x="0px" y="0px"
	 width="160px" height="160px" viewBox="0 0 160 160" style="enable-background:new 0 0 160 160;" xml:space="preserve">
<style type="text/css">
	.st0{fill:#FFFFFF;}
	.st1{fill:#0056B8;}
</style>
<g>
	<circle class="st0" cx="80" cy="80" r="80"/>
	<g>
		<g>
			<g>
				<path class="st1" d="M42.3,80.2c0.1,10.8,4.8,21.1,12.9,28.2c0.8,0.7,1.7,1.4,2.6,2.1c6.4,4.6,14,7.1,21.9,7.2h0.4
					c20.8-0.1,37.6-17.1,37.5-37.8c-0.1-10.8-4.8-21.1-12.9-28.2c-0.8-0.7-1.7-1.4-2.6-2.1c-6.4-4.6-14-7.1-21.9-7.1l0-0.1l0,0v0.1
					h-0.4C59,42.4,42.2,59.4,42.3,80.2z M81.5,113.3v-12l0.1,0c3.6,0.1,7.1,0.8,10.5,1.9l0.1,0l-0.1,0.1c-2.9,3.9-6.4,7.2-10.5,9.9
					L81.5,113.3z M101,107.4c0,0-0.1,0.1-0.1,0.1c-0.1,0.1-0.2,0.1-0.2,0.2c-0.3,0.2-0.5,0.4-0.8,0.6l-0.3,0.2
					c-0.4,0.3-0.9,0.6-1.3,0.9c-0.4,0.2-0.8,0.5-1.1,0.6c-0.1,0-0.2,0.1-0.2,0.1c-0.1,0-0.1,0.1-0.2,0.1l-0.2,0.1
					c-0.3,0.2-0.6,0.3-0.9,0.5c-0.4,0.2-0.8,0.4-1.1,0.5c-0.1,0.1-0.3,0.1-0.4,0.2c-0.1,0-0.2,0.1-0.3,0.1l-0.1,0.1
					c-0.3,0.1-0.5,0.2-0.8,0.4c-0.4,0.2-0.7,0.3-1.1,0.4c-0.2,0.1-0.4,0.1-0.6,0.2l-0.5,0.2c-0.2,0.1-0.4,0.1-0.6,0.2l-0.3,0.1
					c-0.3,0.1-0.5,0.2-0.8,0.2c-0.2,0.1-0.4,0.1-0.6,0.1c-0.2,0-0.3,0.1-0.5,0.1l-0.2,0c-0.2,0.1-0.4,0.1-0.7,0.1
					c-0.1,0-0.2,0-0.3,0.1c-0.2,0-0.4,0.1-0.7,0.1l0,0h-0.3l0.2-0.2c3.5-2.7,6.5-5.8,9-9.4l0-0.1l0.1,0c2,0.8,3.9,1.8,5.7,2.9
					l0.1,0.1L101,107.4z M114.5,81.6c-0.4,9-4.3,17.4-10.9,23.6l-0.1,0.1l-0.1,0c-2-1.4-4.2-2.6-6.5-3.5l-0.1,0l0.1-0.1
					c3.6-6,5.6-12.9,5.8-19.9l0-0.1h11.7L114.5,81.6z M103.5,54.7L103.5,54.7l0.1,0c6.6,6.2,10.5,14.6,10.9,23.6l0,0.1h-11.7l0-0.1
					c-0.3-7-2.3-13.9-5.8-19.9l-0.1-0.1l0.1,0C99.3,57.3,101.5,56.1,103.5,54.7z M86.2,46c0.2,0,0.5,0.1,0.7,0.1
					c0.1,0,0.2,0,0.3,0.1c0.3,0.1,0.6,0.1,0.8,0.2l0,0c0.1,0,0.2,0,0.3,0.1c0.2,0.1,0.5,0.1,0.7,0.2c0.3,0.1,0.6,0.2,0.9,0.3l0.1,0
					c0.3,0.1,0.6,0.2,0.8,0.3l0.1,0c0.1,0,0.2,0.1,0.3,0.1c0.2,0.1,0.4,0.1,0.5,0.2c0.4,0.1,0.7,0.3,1.1,0.4
					c0.3,0.1,0.5,0.2,0.8,0.3l0.2,0.1c0.1,0,0.2,0.1,0.2,0.1c0.1,0.1,0.3,0.1,0.4,0.2c0.3,0.2,0.7,0.3,1.1,0.5
					c0.3,0.2,0.7,0.4,1,0.5l0.3,0.1c0.1,0.1,0.2,0.1,0.3,0.2c0.3,0.2,0.7,0.4,1.1,0.6c0.4,0.3,0.9,0.6,1.3,0.8l0.2,0.1
					c0.1,0.1,0.2,0.2,0.4,0.2c0.2,0.1,0.4,0.3,0.7,0.5c0.1,0.1,0.1,0.1,0.2,0.2c0.1,0,0.1,0.1,0.2,0.1l0.1,0.1l-0.1,0.1
					c-1.8,1.1-3.7,2.1-5.7,2.9l-0.1,0l0-0.1c-2.5-3.6-5.5-6.8-9-9.4l-0.3-0.3L86.2,46z M81.5,46.7l0.2,0.1c4.1,2.6,7.6,5.9,10.5,9.9
					l0.1,0.1l-0.1,0c-3.4,1.1-6.9,1.7-10.5,1.9l-0.1,0V46.7z M81.5,61.8L81.5,61.8c4.3-0.2,8.4-0.9,12.4-2.3l0.1,0l0,0.1
					c3.5,5.7,5.4,12.2,5.7,18.8l0,0.1H81.5V61.8z M81.5,81.5h18.2l0,0.1c-0.3,6.6-2.2,13.2-5.7,18.8l-0.1,0.1l-0.1-0.1
					c-4-1.4-8.1-2.1-12.3-2.3l-0.1,0V81.5z M56.5,105.3L56.5,105.3l-0.1,0c-6.6-6.2-10.5-14.6-10.9-23.6l0-0.1h11.7l0,0.1
					c0.3,7,2.3,13.9,5.8,19.9l0.1,0.1l-0.1,0C60.7,102.7,58.6,103.9,56.5,105.3z M73.8,114c-0.2,0-0.5-0.1-0.7-0.1l-0.3-0.1
					c-0.2-0.1-0.5-0.1-0.7-0.2l-0.1,0c-0.1,0-0.2-0.1-0.3-0.1c-0.2-0.1-0.4-0.1-0.7-0.2c-0.3-0.1-0.5-0.2-0.8-0.2l-0.3-0.1
					c-0.3-0.1-0.6-0.2-0.8-0.3l0,0c-0.1,0-0.2-0.1-0.3-0.1c-0.2-0.1-0.4-0.1-0.5-0.2c-0.3-0.1-0.6-0.2-1.1-0.4
					c-0.3-0.1-0.5-0.2-0.7-0.3l-0.2-0.1c-0.1,0-0.2-0.1-0.2-0.1c-0.1-0.1-0.3-0.1-0.4-0.2c-0.4-0.2-0.7-0.3-1.1-0.5l0,0
					c-0.3-0.2-0.7-0.4-1-0.6c-0.1,0-0.1-0.1-0.2-0.1c-0.1,0-0.2-0.1-0.3-0.1c-0.3-0.2-0.7-0.4-1-0.6c-0.4-0.2-0.8-0.5-1.1-0.8
					l-0.3-0.2c-0.1-0.1-0.2-0.2-0.4-0.3c-0.2-0.1-0.4-0.3-0.6-0.5c-0.1-0.1-0.1-0.1-0.2-0.2c-0.1,0-0.1-0.1-0.2-0.1l-0.1-0.1
					l0.1-0.1c1.8-1.1,3.7-2.1,5.7-2.9l0.1,0l0,0.1c2.5,3.6,5.5,6.8,9,9.4l0.3,0.3L73.8,114z M78.5,113.3l-0.2-0.1
					c-4.1-2.6-7.6-5.9-10.5-9.9l-0.1-0.1l0.1,0c3.4-1.1,6.9-1.7,10.5-1.9l0.1,0V113.3z M78.5,98.2L78.5,98.2
					c-4.3,0.2-8.4,0.9-12.4,2.3l-0.1,0l0-0.1c-3.5-5.7-5.4-12.2-5.7-18.9l0-0.1h18.2V98.2z M78.5,78.5H60.3l0-0.1
					c0.3-6.6,2.2-13.2,5.7-18.8l0-0.1l0.1,0c4,1.4,8.1,2.1,12.3,2.3l0.1,0V78.5z M78.5,46.7v12l-0.1,0c-3.6-0.1-7.1-0.8-10.5-1.9
					l-0.1,0l0.1-0.1c2.9-3.9,6.4-7.2,10.5-9.9L78.5,46.7z M59,52.6c0,0,0.1-0.1,0.1-0.1c0.1-0.1,0.2-0.1,0.2-0.2
					c0.3-0.2,0.5-0.4,0.8-0.6l0.2-0.1c0,0,0.1,0,0.1-0.1c0,0,0.1,0,0.1-0.1l0.1-0.1c0.4-0.3,0.8-0.5,1.2-0.8
					c0.3-0.2,0.7-0.4,1.1-0.6c0.1,0,0.2-0.1,0.3-0.1c0.1,0,0.1-0.1,0.2-0.1l0.2-0.1c0.3-0.2,0.6-0.3,0.9-0.5
					c0.4-0.2,0.7-0.4,1.1-0.5c0.1-0.1,0.3-0.1,0.4-0.2c0.1,0,0.2-0.1,0.2-0.1l0.1,0c0.3-0.1,0.6-0.2,0.8-0.4
					c0.3-0.1,0.7-0.3,1.1-0.4c0.2-0.1,0.4-0.1,0.6-0.2c0.1,0,0.2-0.1,0.3-0.1l0.1,0c0.2-0.1,0.5-0.2,0.7-0.2l0.1,0
					c0.3-0.1,0.6-0.2,0.9-0.3c0.2-0.1,0.5-0.1,0.7-0.2c0.1,0,0.2-0.1,0.3-0.1l0.1,0c0.2-0.1,0.5-0.1,0.7-0.2c0.1,0,0.2,0,0.3-0.1
					c0.2,0,0.4-0.1,0.6-0.1l0,0h0.3l-0.2,0.2c-3.5,2.7-6.5,5.8-9,9.4l0,0.1l-0.1,0c-2-0.8-3.9-1.8-5.7-2.9l-0.1-0.1L59,52.6z
					 M56.4,54.8L56.4,54.8l0.1,0c2,1.4,4.2,2.6,6.5,3.5l0.1,0L63,58.4c-3.6,6-5.6,12.9-5.8,19.9l0,0.1H45.5l0-0.1
					C45.9,69.3,49.8,60.9,56.4,54.8z"/>
				<path class="st1" d="M116.6,47.2l-0.2-0.2h6.1V44h-9.7c-0.8,0-1.5,0.7-1.5,1.5v9.7h3.1v-5.9l0.2,0.2C122,58,126.1,68.8,126.1,80
					c0,12.3-4.8,23.9-13.5,32.6S92.3,126.1,80,126.1c-12.3,0-23.9-4.8-32.6-13.5S33.9,92.3,33.9,80c0-12.3,4.8-23.9,13.5-32.6
					S67.7,33.9,80,33.9c7.1,0,14.2,1.7,20.6,4.8l1.4-2.7c-6.7-3.4-14.3-5.2-21.8-5.2c0,0-0.1,0-0.1,0c-27.1,0-49.1,22-49.1,49.1
					s22,49.1,49.1,49.1s49.1-22,49.1-49.1C129.2,67.9,124.7,56.2,116.6,47.2z"/>
			</g>
		</g>
	</g>
</g>
</svg>
