<?xml version="1.0" encoding="utf-8"?>
<!-- Generator: Adobe Illustrator 19.2.1, SVG Export Plug-In . SVG Version: 6.00 Build 0)  -->
<svg version="1.0" id="Capa_1" xmlns="http://www.w3.org/2000/svg" xmlns:xlink="http://www.w3.org/1999/xlink" x="0px" y="0px"
	 width="160px" height="160px" viewBox="0 0 160 160" style="enable-background:new 0 0 160 160;" xml:space="preserve">
<style type="text/css">
	.st0{fill:#FFFFFF;}
	.st1{fill:#0056B8;}
</style>
<g>
	<circle class="st0" cx="80" cy="80" r="80"/>
	<path class="st1" d="M114.4,59.8h-2.8c1.6-11-0.7-17.3-1.1-18.3c-0.1-0.9-0.4-1.5-0.7-1.9c-3.2-4.5-11.1-1.9-15.6,0.9
		c-7.8,4.9-13.3,15.8-13.9,17c-0.6-1.2-6.1-12.2-13.9-17c-4.5-2.8-12.4-5.4-15.6-0.9c-0.3,0.4-0.6,1.1-0.7,1.9
		c-0.4,0.9-2.7,7.3-1.1,18.3h-3.2c-2,0-3.6,1.6-3.6,3.6v12.9c0,2,1.6,3.6,3.6,3.6h0.7v39.3c0,2,1.6,3.6,3.6,3.6h60.1
		c2,0,3.6-1.6,3.6-3.6V79.9h0.7c2,0,3.6-1.6,3.6-3.6V63.4C118,61.4,116.4,59.8,114.4,59.8z M95.6,42.9c2.8-1.7,6.1-2.9,8.6-2.9
		c1.4,0,2.6,0.4,3.2,1.2c0.1,0.1,0.3,0.4,0.1,1.3c-0.7,2.8-5.5,7.4-10.6,9.9c-3.6,1.8-9.4,3.2-12.8,3.9
		C86.2,52.7,90.4,46.2,95.6,42.9z M81.7,59.7c0.4-0.1,10.8-1.8,16.6-4.7c3.9-1.9,8.2-5.3,10.5-8.6c0.5,2.9,0.8,7.4-0.1,13.4H81.2
		l0,0L81.7,59.7z M53,41.2c0.6-0.9,1.8-1.2,3.2-1.2c2.5,0,5.9,1.2,8.6,2.9c5.2,3.3,9.4,9.8,11.5,13.4c-3.5-0.7-9.3-2.1-12.8-3.9
		c-5-2.5-9.9-7.1-10.6-9.9C52.6,41.7,52.9,41.3,53,41.2z M51.6,46.4C54,49.7,58.3,53,62.2,55c5.8,2.9,16.1,4.6,16.6,4.7l0.4,0.1l0,0
		H51.7C50.8,53.8,51.1,49.3,51.6,46.4z M67.8,119.9H49.3v-40h18.5V119.9z M67.8,76.9H45V62.7h22.8V76.9z M89.3,119.9H70.7V62.7h18.5
		V119.9z M110.7,119.9H92.2v-40h18.5V119.9z M115,76.9H92.2V62.7H115V76.9z"/>
</g>
</svg>
