<?xml version="1.0" encoding="utf-8"?>
<!-- Generator: Adobe Illustrator 19.2.1, SVG Export Plug-In . SVG Version: 6.00 Build 0)  -->
<svg version="1.0" xmlns="http://www.w3.org/2000/svg" xmlns:xlink="http://www.w3.org/1999/xlink" x="0px" y="0px" width="40px"
	 height="40px" viewBox="0 0 40 40" style="enable-background:new 0 0 40 40;" xml:space="preserve">
<style type="text/css">
	.st0{enable-background:new    ;}
	.st1{fill-rule:evenodd;clip-rule:evenodd;fill:#0056B8;}
	.st2{fill-rule:evenodd;clip-rule:evenodd;fill:#FFFFFF;}
</style>
<g id="bg_1_" class="st0">
</g>
<g id="curve_1_" class="st0">
	<g>
		<circle class="st1" cx="20" cy="20" r="20"/>
		<path class="st2" d="M37,16.7L37,16.7l-1.4,11.6c0,0.9-0.8,1.7-1.7,1.7H14.7c-0.9,0-1.7-0.8-1.7-1.7l1.4-11.6
			c0-0.9,0.8-1.7,1.7-1.7h19.3C36.2,15,37,15.7,37,16.7C37,16.7,37,16.7,37,16.7z M14,28.3c0,0.4,0.3,0.7,0.7,0.7H34
			c0.4,0,0.7-0.3,0.7-0.7c0,0,0-0.1,0-0.1l1.2-10.6L26,25.2c-1,0.8-2.1,1-3.4,0l-7.4-7.6L14,28.3z"/>
		<rect x="5.5" y="17" class="st2" width="5.1" height="1"/>
		<rect x="2.2" y="21" class="st2" width="8.7" height="1"/>
		<rect x="3.7" y="25" class="st2" width="6" height="1"/>
	</g>
</g>
</svg>
