<?xml version="1.0" encoding="utf-8"?>
<!-- Generator: Adobe Illustrator 19.2.1, SVG Export Plug-In . SVG Version: 6.00 Build 0)  -->
<svg version="1.0" xmlns="http://www.w3.org/2000/svg" xmlns:xlink="http://www.w3.org/1999/xlink" x="0px" y="0px" width="40px"
	 height="40px" viewBox="0 0 40 40" style="enable-background:new 0 0 40 40;" xml:space="preserve">
<style type="text/css">
	.st0{enable-background:new    ;}
	.st1{fill-rule:evenodd;clip-rule:evenodd;fill:#0056B8;}
	.st2{fill-rule:evenodd;clip-rule:evenodd;fill:#FFFFFF;}
	.st3{fill:#FFFFFF;}
</style>
<g id="bg_1_" class="st0">
</g>
<g id="Cuvre_1_1_" class="st0">
</g>
<g id="_x2D_35_x25__1_" class="st0">
</g>
<g id="bdygh_1_" class="st0">
	<g>
		<circle class="st1" cx="20" cy="20" r="20"/>
		<path class="st2" d="M20,40c-9.5,0-17.5-6.7-19.5-15.6l3.2-1.8L4,17.7l5-0.2l2.5-4.2l4.5,2.1l4.2-2.5l3,3.9l4.9-0.3l0.8,4.8
			l4.5,2.1l-1.6,4.6l3,3.9l-3.5,3.4l0.2,1C28.1,38.7,24.2,40,20,40z"/>
		<path class="st1" d="M23.6,28.1c-0.4-0.9-1.1-1.4-2.1-1.6c-0.3-0.1-0.7,0-1,0c-0.3,0.1-0.6,0.2-0.8,0.4l0,0l1.1-3.7l4,0.8l0.3-1.5
			l-5.5-1.1l-2,7l1.5,0.5c0.2-0.4,0.4-0.7,0.7-0.9c0.3-0.2,0.6-0.2,1.1-0.1c0.5,0.1,0.9,0.4,1.1,1c0.1,0.3,0.1,0.6,0.1,0.9
			c0.4-0.6,1-1,1.6-1.4C23.7,28.3,23.7,28.2,23.6,28.1z M19.9,33.7c-0.5-0.1-0.8-0.4-1-0.8c-0.2-0.4-0.2-1-0.1-1.8L17,30.8
			c-0.2,1.2-0.1,2.2,0.4,2.9c0.5,0.7,1.2,1.2,2.2,1.4c0.7,0.1,1.3,0.1,1.8-0.1c-0.2-0.5-0.3-1.1-0.3-1.6
			C20.8,33.7,20.3,33.8,19.9,33.7z M3.4,27.1l3.8,0.7l0.3-1.4l-3.8-0.7L3.4,27.1z M13.5,20.1c-1-0.2-1.8,0-2.6,0.5
			c-0.7,0.5-1.2,1.3-1.4,2.4l1.8,0.3c0.1-0.7,0.4-1.2,0.7-1.5c0.4-0.3,0.8-0.5,1.3-0.4c0.5,0.1,0.9,0.4,1,0.8c0.2,0.4,0.2,1,0.1,1.7
			c-0.1,0.7-0.4,1.2-0.7,1.6c-0.3,0.3-0.8,0.5-1.3,0.3l-1.2-0.2L10.9,27l1.2,0.2c0.6,0.1,1,0.4,1.2,0.8c0.2,0.4,0.2,1,0.1,1.9
			c-0.2,0.8-0.4,1.3-0.8,1.7c-0.4,0.3-0.8,0.5-1.4,0.4c-0.5-0.1-0.9-0.4-1.1-0.9C9.9,30.6,9.8,30,10,29.4L8.2,29
			c-0.2,1.2-0.1,2.1,0.4,2.9c0.5,0.8,1.3,1.2,2.3,1.4c1,0.2,1.9,0,2.7-0.5c0.8-0.5,1.3-1.4,1.5-2.6c0.1-0.7,0.1-1.4-0.1-2
			c-0.2-0.6-0.6-1.1-1.1-1.4c0.6-0.2,1.1-0.5,1.5-0.9c0.4-0.5,0.6-1,0.7-1.6c0.2-1.2,0.1-2.1-0.4-2.9C15.3,20.8,14.6,20.3,13.5,20.1
			z M26.3,31.9c0.3-1.1-0.2-1.8-1.2-2.1c-1-0.2-1.7,0.3-1.9,1.4c-0.3,1.1,0.2,1.9,1.2,2.1C25.4,33.6,26,33.1,26.3,31.9z M24.3,31.5
			c0.1-0.3,0.3-1,0.7-0.9c0.3,0.1,0.4,0.4,0.3,1c-0.2,0.8-0.4,1.1-0.8,1C24,32.5,24.1,32,24.3,31.5z M29.2,34
			c-1-0.2-1.7,0.3-1.9,1.4c-0.3,1.1,0.2,1.9,1.2,2.1c1,0.2,1.7-0.3,1.9-1.4C30.6,35,30.2,34.2,29.2,34z M29.3,35.7
			c-0.2,0.8-0.4,1.1-0.8,1c-0.5-0.1-0.4-0.6-0.2-1.1c0.1-0.3,0.3-1,0.7-0.9C29.4,34.8,29.4,35.1,29.3,35.7z M28.8,30.6l-5.1,5.8
			l0.9,0.2l5.1-5.8L28.8,30.6z"/>
		<path class="st3" d="M19.1,7.4l-1,0.1l0.2,3l1-0.1L19.1,7.4L19.1,7.4z M8.6,9L7.8,9.5l1.5,2.5l0.8-0.5L8.6,9L8.6,9z M29,10.4
			l-1.8,2.8l0.8,0.5l1.8-2.8L29,10.4L29,10.4z M35.4,16.6l-2.6,1.6l0.5,0.8l2.6-1.6L35.4,16.6L35.4,16.6z"/>
	</g>
</g>
</svg>
