<?xml version="1.0" encoding="utf-8"?>
<!-- Generator: Adobe Illustrator 19.2.1, SVG Export Plug-In . SVG Version: 6.00 Build 0)  -->
<svg version="1.0" xmlns="http://www.w3.org/2000/svg" xmlns:xlink="http://www.w3.org/1999/xlink" x="0px" y="0px" width="40px"
	 height="40px" viewBox="0 0 40 40" style="enable-background:new 0 0 40 40;" xml:space="preserve">
<style type="text/css">
	.st0{enable-background:new    ;}
	.st1{fill-rule:evenodd;clip-rule:evenodd;fill:#0056B8;}
	.st2{fill-rule:evenodd;clip-rule:evenodd;fill:#FFFFFF;}
</style>
<g id="bg_1_" class="st0">
	<circle class="st1" cx="20" cy="20" r="20"/>
</g>
<g id="curve_1_1_" class="st0">
	<path class="st2" d="M33,35.2c-0.3,0.3-0.7,0.5-1,0.8V16c0-2.2-1.8-4-4-4H1.7c0.1-0.3,0.3-0.7,0.5-1H28c2.8,0,5,2.2,5,5V35.2z"/>
</g>
<g id="Curve_2_1_" class="st0">
	<path class="st2" d="M0,20c0-1,0.1-2,0.2-3H32v13H2.7C1,27.1,0,23.6,0,20z"/>
</g>
<g id="VISA_1_" class="st0">
	<path class="st1" d="M10.8,26.2l-1.8-5.6H8l2.3,6.4h1l2.3-6.4h-0.9L10.8,26.2z M14.2,27h0.8v-6.4h-0.8V27z M19,23.3
		c-1-0.2-1.7-0.4-1.7-1.1c0-0.7,0.5-1.1,1.4-1.1c0.9,0,1.5,0.4,1.6,1.3h0.8c-0.1-1.4-1-2-2.3-2c-1.2,0-2.3,0.5-2.3,1.8
		c0,1.4,1.2,1.5,2.2,1.8c1.1,0.2,1.9,0.4,1.9,1.2c0,0.9-0.8,1.2-1.6,1.2c-1,0-1.9-0.4-1.9-1.6h-0.8c0,1.5,1.1,2.3,2.7,2.3
		c1.2,0,2.5-0.5,2.5-1.9C21.3,23.8,20,23.5,19,23.3z M25.1,20.6h-1L21.6,27h0.9l0.7-2h2.7l0.7,2h0.9L25.1,20.6z M23.5,24.4l1.1-3
		l1.1,3H23.5z"/>
</g>
</svg>
