<svg width="139" height="20" viewBox="0 0 139 20" fill="none" xmlns="http://www.w3.org/2000/svg">
<path d="M18.5377 0.353795L13.249 13.5193L11.1097 2.32547C10.8593 1.07563 9.8674 0.353795 8.76621 0.353795H0.119757L0 0.914609C1.7745 1.29487 3.79152 1.90755 5.01295 2.56087C5.76082 2.96067 5.97401 3.3096 6.21998 4.25995L10.2714 19.6976H15.6421L23.8747 0.353795H18.5377ZM26.0556 0.353795L21.8522 19.6976H26.9337L31.1357 0.353794H26.0556V0.353795ZM55.1887 5.58026L56.7282 12.8435H52.5138L55.1887 5.58026ZM54.4444 0.353795C53.4684 0.353795 52.646 0.91219 52.2813 1.77248L44.6565 19.6976H49.9914L51.0514 16.8074H57.5695L58.1837 19.6976H62.8831L58.781 0.353795H54.4444ZM32.5201 6.3936C32.4868 9.18007 35.043 10.7323 36.9691 11.6587C38.9478 12.6066 39.6117 13.2149 39.6042 14.0625C39.5894 15.3608 38.025 15.9329 36.5626 15.9554C34.0084 15.9945 32.5256 15.2756 31.3439 14.7334L30.4241 18.9723C31.6103 19.5087 33.8022 19.9765 36.0746 20C41.413 20 44.9039 17.4039 44.9208 13.3813C44.9432 8.27669 37.7527 7.9948 37.8019 5.71387C37.8183 5.02043 38.4887 4.28295 39.9571 4.09356C40.6846 4.00058 42.6926 3.92815 44.9665 4.95926L45.8595 0.857381C44.6361 0.420372 43.0638 0 41.1054 0C36.0836 0 32.5484 2.62937 32.5201 6.3936Z" fill="white"/>
<path d="M4.65816 11.0393C3.16693 11.0393 2.0293 10.6827 1.2145 9.98443C0.399712 9.27126 0 8.26093 0 6.95344C0 5.91339 0.184484 4.96249 0.538072 4.1156C0.89166 3.26871 1.38361 2.54068 2.01393 1.91665C2.62887 1.32234 3.35142 0.846891 4.21234 0.505164C5.07325 0.163437 5.96492 0 6.9027 0C7.656 0 8.36318 0.0742889 9.00887 0.222867C9.65456 0.371445 10.2387 0.594311 10.7615 0.876608L10.1158 3.447H9.79292C9.33172 2.9567 8.85514 2.60011 8.39394 2.37724C7.93273 2.15437 7.37929 2.03551 6.76435 2.03551C5.67284 2.03551 4.7658 2.46639 4.04324 3.31328C3.33606 4.16018 2.98247 5.24479 2.98247 6.56714C2.98247 7.41403 3.18233 8.0232 3.56667 8.40951C3.96638 8.79581 4.5352 8.9741 5.28849 8.9741C5.96493 8.9741 6.61061 8.84038 7.19481 8.57294C7.79438 8.3055 8.34782 7.97863 8.88589 7.56261H9.17799L8.5323 10.1033C8.31707 10.1924 8.05573 10.2964 7.76363 10.4153C7.47153 10.5342 7.17944 10.6382 6.91809 10.7125C6.5645 10.8165 6.22628 10.8907 5.91881 10.9353C5.64206 11.0245 5.21161 11.0393 4.65816 11.0393Z" transform="translate(66.7107 5.67285)" fill="white"/>
<path d="M9.70067 4.88821C9.70067 5.00707 9.6853 5.15564 9.66992 5.33394C9.65455 5.51223 9.6238 5.69053 9.57768 5.88368L8.33243 11.0988H5.64206L6.59522 7.11687C6.65672 6.81972 6.71821 6.55228 6.76433 6.34427C6.81044 6.13625 6.82582 5.9431 6.82582 5.77967C6.82582 5.46766 6.74896 5.22993 6.57985 5.09622C6.41075 4.96249 6.11865 4.88821 5.68819 4.88821C5.47296 4.88821 5.22699 4.93278 4.95026 5.02193C4.67354 5.11107 4.36607 5.2448 4.02786 5.42309L2.67499 11.1136H0L2.64424 0H5.31923L4.36607 3.98188C4.90415 3.64016 5.41147 3.35786 5.8573 3.16471C6.30314 2.97156 6.81046 2.86755 7.34854 2.86755C8.10184 2.86755 8.68603 3.04585 9.08574 3.40243C9.5008 3.7293 9.70067 4.23446 9.70067 4.88821Z" transform="translate(76.5533 5.42029)" fill="white"/>
<path d="M4.42756 8.4838C3.0132 8.4838 1.92169 8.18664 1.15301 7.57747C0.384337 6.96831 0 6.13627 0 5.0665C0 4.33847 0.122986 3.66987 0.384337 3.0607C0.630309 2.45154 0.999277 1.91665 1.47585 1.45607C1.92169 1.01033 2.4905 0.653746 3.1823 0.386303C3.85874 0.118865 4.61204 0 5.42683 0C6.65671 0 7.59449 0.237725 8.22481 0.728031C8.85512 1.21834 9.16259 1.93151 9.16259 2.86755C9.16259 3.19443 9.13184 3.50644 9.05497 3.81846C8.9781 4.13048 8.90123 4.44249 8.79362 4.73964H2.61347C2.61347 4.76936 2.61347 4.79908 2.61347 4.82878C2.61347 4.8585 2.61347 4.88822 2.61347 4.91793C2.61347 5.46767 2.81333 5.9134 3.22841 6.22541C3.62812 6.53742 4.25844 6.70086 5.0886 6.70086C5.67279 6.70086 6.22624 6.61172 6.74894 6.41856C7.27164 6.22541 7.71746 6.0174 8.1018 5.77968H8.3939L7.90195 7.84491C7.37925 8.06778 6.84117 8.23121 6.27236 8.33522C5.67282 8.43922 5.07325 8.4838 4.42756 8.4838ZM6.45686 3.239C6.47223 3.14986 6.48761 3.07557 6.48761 3.00128C6.48761 2.92699 6.50298 2.8527 6.50298 2.77841C6.50298 2.40697 6.38 2.10981 6.13402 1.91666C5.88804 1.70865 5.54983 1.61951 5.08862 1.61951C4.53518 1.61951 4.07397 1.76808 3.70501 2.05039C3.33604 2.33269 3.04395 2.73384 2.85946 3.25386H6.45686V3.239Z" transform="translate(86.3959 8.24329)" fill="white"/>
<path d="M4.04323 8.46895C3.47441 8.46895 2.95172 8.39466 2.44439 8.26093C1.93706 8.12721 1.52198 7.91921 1.15301 7.62205C0.799423 7.33975 0.507323 6.98317 0.30747 6.56715C0.107616 6.15114 0 5.64597 0 5.09623C0 4.38306 0.138365 3.71446 0.430456 3.09043C0.707177 2.4664 1.10689 1.93152 1.62959 1.47092C2.13691 1.02519 2.75185 0.653746 3.4744 0.401162C4.19696 0.133724 4.981 0 5.82655 0C6.33387 0 6.84119 0.0594302 7.33315 0.163437C7.84047 0.267443 8.30167 0.430875 8.73213 0.638887L8.16331 2.83784H7.77897C7.48687 2.49612 7.16403 2.24353 6.79506 2.0801C6.4261 1.91667 6.01102 1.82751 5.56519 1.82751C4.73501 1.82751 4.05859 2.10982 3.55126 2.68926C3.04394 3.26872 2.78259 3.98189 2.78259 4.84364C2.78259 5.43795 2.93632 5.88369 3.25916 6.18084C3.56663 6.478 4.05859 6.62658 4.71964 6.62658C5.22697 6.62658 5.70355 6.52257 6.11863 6.32942C6.53371 6.12141 6.90267 5.89854 7.19477 5.66082H7.57911L7.01029 7.85977C6.47222 8.08264 6.01101 8.24607 5.6113 8.33522C5.21163 8.42437 4.68892 8.46895 4.04323 8.46895Z" transform="translate(96.0505 8.25812)" fill="white"/>
<path d="M8.90125 11.0988H6.10328L4.45831 7.56262L3.28993 8.57294L2.67499 11.1136H0L2.64424 0H5.31923L3.73577 6.62657L7.45615 3.09042H10.5155L6.67211 6.582L8.90125 11.0988Z" transform="translate(103.894 5.4054)" fill="white"/>
<path d="M9.30096 3.19442C9.30096 3.95217 9.17797 4.65048 8.91662 5.30423C8.65527 5.95798 8.28631 6.52257 7.80973 6.99802C7.31778 7.48833 6.74896 7.85977 6.10328 8.12721C5.45759 8.39465 4.68891 8.52837 3.828 8.52837C2.59812 8.52837 1.64497 8.24607 0.983907 7.66662C0.322849 7.10203 0 6.2997 0 5.28938C0 4.5762 0.122986 3.89274 0.368967 3.25386C0.61494 2.61498 0.983907 2.05038 1.46048 1.56007C1.92169 1.08462 2.50588 0.698318 3.18231 0.416016C3.85875 0.133715 4.62743 0 5.47297 0C6.71822 0 7.656 0.282297 8.31706 0.846896C8.96274 1.42634 9.30096 2.19895 9.30096 3.19442ZM5.84193 5.82425C6.07253 5.49738 6.24163 5.12594 6.34925 4.72477C6.47223 4.32361 6.51835 3.84816 6.51835 3.28357C6.51835 2.79326 6.41074 2.42182 6.18013 2.15438C5.9649 1.88694 5.61131 1.75322 5.11936 1.75322C4.75039 1.75322 4.41218 1.84236 4.13545 2.02066C3.85873 2.19895 3.59738 2.45153 3.38215 2.76354C3.1823 3.0607 3.02856 3.43214 2.90557 3.87788C2.78259 4.32361 2.73647 4.76935 2.73647 5.2448C2.73647 5.79454 2.85946 6.18083 3.12081 6.41856C3.38216 6.65629 3.72038 6.77516 4.15083 6.77516C4.47367 6.77516 4.78114 6.68601 5.07324 6.52257C5.38072 6.35913 5.62669 6.12141 5.84193 5.82425Z" transform="translate(113.19 8.22839)" fill="white"/>
<path d="M9.73141 1.36027e-05L7.80972 8.02322H5.13473L5.34996 7.13175C5.08861 7.29518 4.82726 7.45862 4.56592 7.59234C4.31995 7.74092 4.07396 7.85978 3.84336 7.93407C3.55126 8.05293 3.28992 8.12721 3.05932 8.17179C2.82872 8.21636 2.58274 8.23122 2.35214 8.23122C1.62959 8.23122 1.0454 8.06779 0.630309 7.72605C0.215223 7.38433 0 6.89402 0 6.22542C0 6.04712 0.0153697 5.88369 0.0307488 5.72025C0.0461186 5.57167 0.0768674 5.39338 0.122986 5.21508L1.36823 0H4.05859L3.10544 3.98189C3.02857 4.2939 2.98245 4.54648 2.93633 4.76935C2.90558 4.99222 2.87483 5.17051 2.87483 5.33394C2.87483 5.64595 2.9517 5.86882 3.10544 6.0174C3.25917 6.15112 3.56664 6.22541 3.9971 6.22541C4.21233 6.22541 4.4583 6.18084 4.7504 6.09169C5.02712 6.00254 5.33459 5.86882 5.67281 5.70539L7.02568 0.0148587H9.73141V1.36027e-05Z" transform="translate(123.032 8.49585)" fill="white"/>
<path d="M2.552 10.4896C1.62959 10.4896 0.968528 10.341 0.584191 10.0439C0.184484 9.7467 0 9.31582 0 8.73638C0 8.5878 0.0153697 8.43922 0.0307488 8.29064C0.0614977 8.14207 0.0922465 7.97863 0.122986 7.78547L1.03003 3.98188L1.42973 2.2881L1.98317 0H4.65816L4.12009 2.2881H6.6106L6.21089 3.98188H3.72039L3.02858 6.87915C2.98261 7.07166 2.93665 7.27892 2.89068 7.48623L2.89021 7.48832C2.8441 7.69633 2.82872 7.85976 2.82872 8.00834C2.82872 8.29064 2.90558 8.49865 3.07469 8.60265C3.24379 8.72151 3.48977 8.76609 3.84336 8.76609C3.98173 8.76609 4.1662 8.73637 4.38143 8.6918C4.61204 8.64722 4.78114 8.58779 4.91951 8.52836H5.13474L4.71965 10.2519C4.41218 10.3262 4.10471 10.3856 3.7665 10.4153C3.42828 10.445 3.0132 10.4896 2.552 10.4896Z" transform="translate(132.389 6.17804)" fill="white"/>
</svg>
