<?xml version="1.0" encoding="utf-8"?>
<!-- Generator: Adobe Illustrator 16.0.0, SVG Export Plug-In . SVG Version: 6.00 Build 0)  -->
<!DOCTYPE svg PUBLIC "-//W3C//DTD SVG 1.1//EN" "http://www.w3.org/Graphics/SVG/1.1/DTD/svg11.dtd">
<svg version="1.1" id="Шар_1" xmlns="http://www.w3.org/2000/svg" xmlns:xlink="http://www.w3.org/1999/xlink" x="0px" y="0px"
	 width="210px" height="37.455px" viewBox="0 0 210 37.455" enable-background="new 0 0 210 37.455" xml:space="preserve">
<g>
	<g>
		<rect y="17.611" fill="#0055B8" width="11.834" height="6.138"/>
		<rect x="26.003" y="17.611" fill="#0055B8" width="11.492" height="6.138"/>
		<rect x="26.003" y="9.861" fill="#0055B8" width="11.492" height="6.261"/>
		<rect y="9.861" fill="#0055B8" width="11.834" height="6.261"/>
		<path fill="#0055B8" d="M26.003,25.238v8.595h6.4c2.818,0,5.112-2.295,5.112-5.112v-3.482H26.003z"/>
		<path fill="#0055B8" d="M11.834,8.353V0H5.112C2.294,0,0,2.294,0,5.092v3.261H11.834z"/>
		<path fill="#0055B8" d="M11.834,25.238H0v3.482c0,2.817,2.294,5.112,5.112,5.112h6.722V25.238z"/>
		<g>
			<polygon fill="#0055B8" points="19.905,16.483 17.953,16.483 17.912,16.483 13.525,11.211 13.525,33.853 24.333,33.853 
				24.333,11.211 19.945,16.483 			"/>
			<path fill="#0055B8" d="M32.384,0h-19.06v8.333h0.04l5.575,6.902l5.575-6.902V8.312h1.49h11.492V5.092
				C37.495,2.294,35.201,0,32.384,0z"/>
		</g>
	</g>
	<g>
		<path fill="#003764" d="M54.261,32.102c0,0.905-0.222,1.63-0.664,2.134C53.154,34.738,52.55,35,51.765,35
			c-0.483,0-0.926-0.12-1.288-0.362c-0.382-0.241-0.665-0.584-0.865-1.026c-0.202-0.442-0.302-0.945-0.302-1.529
			c0-0.906,0.222-1.63,0.665-2.134c0.443-0.503,1.046-0.765,1.832-0.765c0.765,0,1.368,0.262,1.811,0.765
			C54.039,30.492,54.261,31.196,54.261,32.102z M49.833,32.102c0,0.766,0.161,1.368,0.503,1.792
			c0.342,0.422,0.825,0.644,1.429,0.644c0.624,0,1.086-0.222,1.429-0.644c0.342-0.424,0.503-1.026,0.503-1.792
			c0-0.765-0.161-1.368-0.503-1.791c-0.343-0.423-0.825-0.644-1.429-0.644c-0.624,0-1.087,0.221-1.429,0.644
			C50.014,30.714,49.833,31.316,49.833,32.102z"/>
		<path fill="#003764" d="M57.904,29.305v2.455h3.542v-2.455h0.503v5.595h-0.503v-2.696h-3.542v2.696H57.4v-5.595H57.904z"/>
		<path fill="#003764" d="M69.275,34.899h-0.503v-5.112H66.8c-0.101,1.349-0.222,2.396-0.382,3.1
			c-0.141,0.704-0.342,1.228-0.584,1.569c-0.242,0.343-0.543,0.504-0.906,0.504c-0.141,0-0.242-0.021-0.342-0.041v-0.463
			c0.061,0.021,0.161,0.041,0.281,0.041c0.383,0,0.705-0.402,0.946-1.229c0.242-0.824,0.423-2.133,0.543-3.944h2.939v5.575H69.275z"
			/>
		<path fill="#003764" d="M76.118,34.899l-0.121-0.886h-0.04c-0.282,0.362-0.563,0.624-0.865,0.765
			C74.79,34.919,74.448,35,74.045,35c-0.543,0-0.966-0.141-1.288-0.423c-0.302-0.281-0.463-0.663-0.463-1.167
			c0-0.543,0.222-0.966,0.685-1.268c0.463-0.303,1.107-0.463,1.972-0.483l1.067-0.04v-0.362c0-0.523-0.101-0.927-0.322-1.208
			c-0.222-0.262-0.564-0.402-1.047-0.402c-0.523,0-1.046,0.141-1.61,0.422l-0.182-0.442c0.624-0.282,1.228-0.422,1.832-0.422
			c0.624,0,1.067,0.16,1.369,0.482c0.301,0.322,0.462,0.825,0.462,1.489v3.724H76.118z M74.065,34.537
			c0.604,0,1.066-0.161,1.408-0.503c0.343-0.343,0.523-0.825,0.523-1.429v-0.544l-0.986,0.04c-0.785,0.041-1.349,0.161-1.67,0.362
			c-0.342,0.202-0.503,0.523-0.503,0.967c0,0.342,0.101,0.623,0.322,0.824C73.381,34.437,73.683,34.537,74.065,34.537z"/>
		<path fill="#003764" d="M80.385,29.305v4.045l-0.04,1.047l3.321-5.092h0.684v5.595h-0.482v-4.025l0.02-1.087l-3.321,5.093h-0.664
			v-5.596h0.483V29.305z M82.116,28.52c-0.503,0-0.906-0.121-1.167-0.343c-0.261-0.221-0.422-0.603-0.463-1.106h0.443
			c0.06,0.382,0.161,0.644,0.342,0.805c0.181,0.161,0.463,0.241,0.845,0.241c0.383,0,0.665-0.08,0.845-0.241
			c0.182-0.161,0.302-0.423,0.342-0.784h0.463C83.686,28.036,83.143,28.52,82.116,28.52z"/>
		<path fill="#003764" d="M88.315,29.305v2.455h3.542v-2.455h0.503v5.595h-0.503v-2.696h-3.542v2.696h-0.503v-5.595H88.315z"/>
		<path fill="#003764" d="M103.168,29.305h0.624l-2.516,2.716l2.677,2.879h-0.685l-2.637-2.838v2.838h-0.503v-5.595h0.523v2.716
			L103.168,29.305z"/>
		<path fill="#003764" d="M108.944,35c-0.865,0-1.489-0.322-1.893-0.966h-0.039l0.02,0.422c0.02,0.262,0.02,0.523,0.02,0.826v2.153
			h-0.502v-8.131h0.422l0.102,0.805h0.04c0.382-0.604,1.006-0.905,1.852-0.905c0.744,0,1.327,0.241,1.73,0.744
			c0.402,0.504,0.604,1.208,0.604,2.174c0,0.926-0.201,1.63-0.623,2.133C110.231,34.759,109.669,35,108.944,35z M108.944,34.558
			c0.564,0,1.007-0.222,1.328-0.644c0.322-0.424,0.463-1.027,0.463-1.792c0-1.65-0.583-2.455-1.771-2.455
			c-0.644,0-1.128,0.181-1.429,0.543c-0.302,0.362-0.463,0.946-0.463,1.751v0.161c0,0.865,0.141,1.489,0.442,1.871
			C107.798,34.356,108.28,34.558,108.944,34.558z"/>
		<path fill="#003764" d="M116.673,35c-0.805,0-1.449-0.241-1.892-0.745c-0.464-0.503-0.685-1.207-0.685-2.112
			c0-0.886,0.221-1.61,0.664-2.153c0.443-0.544,1.027-0.806,1.771-0.806c0.664,0,1.188,0.222,1.549,0.684
			c0.384,0.463,0.564,1.088,0.564,1.872v0.403h-4.025c0,0.765,0.182,1.348,0.543,1.751c0.362,0.402,0.846,0.604,1.51,0.604
			c0.322,0,0.604-0.021,0.846-0.061c0.241-0.04,0.543-0.141,0.926-0.281v0.463c-0.322,0.141-0.604,0.221-0.865,0.281
			C117.298,34.979,116.995,35,116.673,35z M116.512,29.646c-0.543,0-0.966,0.181-1.288,0.523c-0.322,0.362-0.523,0.865-0.563,1.529
			h3.462c0-0.645-0.141-1.147-0.422-1.529C117.418,29.827,117.015,29.646,116.512,29.646z"/>
		<path fill="#003764" d="M126.333,36.792h-0.502v-1.893h-4.287v1.893h-0.483v-2.375h0.362c0.463-0.665,0.825-1.41,1.087-2.274
			c0.262-0.866,0.382-1.812,0.401-2.838h2.698v5.112h0.745v2.375H126.333z M125.087,34.417v-4.63h-1.732
			c-0.08,1.852-0.522,3.402-1.348,4.63H125.087z"/>
		<path fill="#003764" d="M129.594,29.305v4.045l-0.04,1.047l3.322-5.092h0.684v5.595h-0.483v-4.025l0.021-1.087l-3.322,5.093
			h-0.663v-5.596h0.482V29.305z"/>
		<path fill="#003764" d="M143.763,29.305v4.045l-0.04,1.047l3.321-5.092h0.684v5.595h-0.482v-4.025l0.02-1.087l-3.321,5.093h-0.663
			v-5.596h0.482V29.305z"/>
		<path fill="#003764" d="M140.563,29.747h-1.871v5.152h-0.504v-5.152h-1.912v-0.442h4.267v0.442H140.563z"/>
		<path fill="#003764" d="M157.328,29.305v2.455h3.542v-2.455h0.504v5.595h-0.504v-2.696h-3.542v2.696h-0.503v-5.595H157.328z"/>
		<path fill="#003764" d="M168.237,34.899l-0.121-0.886h-0.04c-0.282,0.362-0.563,0.624-0.866,0.765
			c-0.301,0.141-0.644,0.222-1.046,0.222c-0.543,0-0.966-0.141-1.288-0.423c-0.302-0.281-0.463-0.663-0.463-1.167
			c0-0.543,0.222-0.966,0.685-1.268c0.463-0.303,1.106-0.463,1.972-0.483l1.067-0.04v-0.362c0-0.523-0.102-0.927-0.322-1.208
			c-0.222-0.262-0.563-0.402-1.047-0.402c-0.522,0-1.046,0.141-1.609,0.422l-0.182-0.442c0.623-0.282,1.228-0.422,1.831-0.422
			c0.625,0,1.066,0.16,1.369,0.482c0.302,0.322,0.463,0.825,0.463,1.489v3.724H168.237z M166.185,34.537
			c0.604,0,1.066-0.161,1.408-0.503c0.342-0.343,0.523-0.825,0.523-1.429v-0.544l-0.985,0.04c-0.786,0.041-1.349,0.161-1.671,0.362
			c-0.343,0.202-0.504,0.523-0.504,0.967c0,0.342,0.101,0.623,0.322,0.824C165.479,34.437,165.782,34.537,166.185,34.537z"/>
		<path fill="#003764" d="M179.366,29.305h0.625l-2.516,2.716l2.676,2.879h-0.684l-2.637-2.838v2.838h-0.523v-5.595h0.523v2.716
			L179.366,29.305z"/>
		<path fill="#003764" d="M186.129,34.899l-0.12-0.886h-0.041c-0.281,0.362-0.562,0.624-0.864,0.765
			c-0.303,0.141-0.645,0.222-1.047,0.222c-0.544,0-0.966-0.141-1.288-0.423c-0.303-0.281-0.463-0.663-0.463-1.167
			c0-0.543,0.221-0.966,0.684-1.268c0.463-0.303,1.107-0.463,1.973-0.483l1.066-0.04v-0.362c0-0.523-0.1-0.927-0.322-1.208
			c-0.221-0.262-0.562-0.402-1.046-0.402c-0.523,0-1.047,0.141-1.61,0.422l-0.182-0.442c0.625-0.282,1.229-0.422,1.832-0.422
			c0.624,0,1.066,0.16,1.368,0.482c0.303,0.322,0.463,0.825,0.463,1.489v3.724H186.129z M184.076,34.537
			c0.604,0,1.067-0.161,1.409-0.503c0.342-0.343,0.523-0.825,0.523-1.429v-0.544l-0.986,0.04c-0.785,0.041-1.349,0.161-1.671,0.362
			c-0.341,0.202-0.503,0.523-0.503,0.967c0,0.342,0.102,0.623,0.322,0.824C183.392,34.437,183.694,34.537,184.076,34.537z"/>
		<path fill="#003764" d="M192.308,35c-0.864,0-1.488-0.322-1.892-0.966h-0.041l0.021,0.422c0.02,0.262,0.02,0.523,0.02,0.826v2.153
			h-0.503v-8.131h0.424l0.1,0.805h0.04c0.383-0.604,1.007-0.905,1.853-0.905c0.744,0,1.328,0.241,1.73,0.744
			c0.402,0.504,0.604,1.208,0.604,2.174c0,0.926-0.201,1.63-0.625,2.133C193.597,34.759,193.013,35,192.308,35z M192.288,34.558
			c0.563,0,1.006-0.222,1.328-0.644c0.322-0.424,0.463-1.027,0.463-1.792c0-1.65-0.584-2.455-1.771-2.455
			c-0.644,0-1.127,0.181-1.428,0.543c-0.303,0.362-0.464,0.946-0.464,1.751v0.161c0,0.865,0.142,1.489,0.443,1.871
			C191.141,34.356,191.624,34.558,192.288,34.558z"/>
		<path fill="#003764" d="M201.304,29.747h-1.871v5.152h-0.482v-5.152h-1.912v-0.442h4.266V29.747z"/>
		<path fill="#003764" d="M203.097,29.305h0.522l1.188,3.14c0.362,0.966,0.583,1.609,0.684,1.952h0.041
			c0.141-0.443,0.382-1.107,0.703-1.973l1.188-3.1h0.523l-2.516,6.501c-0.201,0.523-0.362,0.886-0.503,1.066
			c-0.142,0.182-0.302,0.322-0.483,0.424c-0.182,0.1-0.402,0.14-0.664,0.14c-0.201,0-0.423-0.04-0.644-0.101v-0.442
			c0.2,0.061,0.423,0.08,0.644,0.08c0.182,0,0.322-0.04,0.463-0.121c0.141-0.079,0.262-0.201,0.362-0.382
			c0.102-0.181,0.241-0.442,0.382-0.825c0.142-0.382,0.242-0.624,0.282-0.725L203.097,29.305z"/>
	</g>
	<path fill="#003764" d="M49.491,23.468V1.269h4.428l6.42,9.278l6.42-9.278h4.428v22.199h-4.006V7.064l-6.863,9.822l-6.863-9.822
		v16.423h-3.965V23.468z"/>
	<path fill="#003764" d="M74.548,1.269h4.831l5.876,9.017l5.857-9.017h4.83l-8.674,12.68v9.52h-4.006v-9.52L74.548,1.269z"/>
	<path fill="#0055B8" d="M99.042,17.147c-0.423-1.368-0.624-2.978-0.624-4.79c0-1.811,0.201-3.421,0.624-4.789
		c0.422-1.37,0.966-2.477,1.63-3.302c0.664-0.824,1.469-1.489,2.415-1.992c0.946-0.523,1.871-0.865,2.757-1.026
		c0.906-0.182,1.872-0.262,2.918-0.262c2.274,0,4.509,0.442,6.723,1.308v3.744c-2.113-0.966-4.227-1.47-6.38-1.47
		c-1.007,0-1.852,0.081-2.556,0.262c-0.705,0.182-1.409,0.523-2.073,1.027c-0.685,0.503-1.188,1.308-1.55,2.395
		s-0.523,2.456-0.523,4.086c0,1.649,0.181,3.019,0.523,4.085c0.342,1.087,0.865,1.872,1.55,2.396
		c0.684,0.503,1.368,0.846,2.073,1.026c0.704,0.182,1.569,0.262,2.556,0.262c2.134,0,4.267-0.483,6.38-1.47v3.724
		c-2.214,0.886-4.468,1.329-6.723,1.329c-1.046,0-2.012-0.081-2.918-0.262c-0.905-0.182-1.811-0.523-2.757-1.026
		c-0.946-0.523-1.751-1.188-2.415-1.993C100.008,19.623,99.465,18.517,99.042,17.147z"/>
	<path fill="#0055B8" d="M120.175,23.468V1.269h8.533c2.598,0,4.63,0.623,6.059,1.852c1.449,1.228,2.174,2.999,2.174,5.293
		c0,3.381-1.631,5.574-4.87,6.561l5.836,8.494h-4.83l-5.294-7.829H124.2v7.829H120.175z M124.18,11.976h4.428
		c1.349,0,2.416-0.241,3.181-0.725c0.765-0.482,1.147-1.39,1.147-2.737c0-1.368-0.383-2.295-1.147-2.758
		c-0.765-0.482-1.832-0.704-3.181-0.704h-4.428V11.976z"/>
	<path fill="#0055B8" d="M141.911,23.468V1.269h14.773v3.582h-10.768v5.615h9.338v3.764h-9.338v5.615h10.768v3.583h-14.773V23.468z"
		/>
	<path fill="#0055B8" d="M161.475,23.468V1.269h7.668c3.442,0,6.038,0.945,7.829,2.837c1.771,1.893,2.678,4.649,2.678,8.293
		c0,3.622-0.886,6.38-2.658,8.251c-1.77,1.892-4.387,2.838-7.828,2.838h-7.688V23.468z M165.46,19.885h3.663
		c2.314,0,3.964-0.583,4.971-1.751c1.007-1.167,1.53-3.079,1.53-5.735c0-2.677-0.504-4.609-1.53-5.776
		c-1.007-1.168-2.677-1.751-4.971-1.751h-3.663V19.885z"/>
	<path fill="#0055B8" d="M184.54,23.468V1.269h4.005v22.199H184.54z"/>
	<path fill="#0055B8" d="M191.806,5.273V1.269H210v4.005h-7.126v18.194h-4.004V5.273H191.806z"/>
</g>
</svg>
