<?xml version="1.0" encoding="utf-8"?>
<!-- Generator: Adobe Illustrator 16.0.0, SVG Export Plug-In . SVG Version: 6.00 Build 0)  -->
<!DOCTYPE svg PUBLIC "-//W3C//DTD SVG 1.1//EN" "http://www.w3.org/Graphics/SVG/1.1/DTD/svg11.dtd">
<svg version="1.1" id="Layer_1" xmlns="http://www.w3.org/2000/svg" xmlns:xlink="http://www.w3.org/1999/xlink" x="0px" y="0px"
	 width="180px" height="180px" viewBox="0 0 180 180" enable-background="new 0 0 180 180" xml:space="preserve">
<g>
	<path fill="#7C51A1" d="M90,180.485c-49.626,0-90-40.374-90-89.999c0-49.626,40.374-90,90-90s90,40.374,90,90
		C180,140.111,139.625,180.485,90,180.485z M90,3.486c-47.972,0-87,39.028-87,87c0,47.972,39.028,86.999,87,86.999
		c47.973,0,87-39.027,87-86.999C177,42.514,137.972,3.486,90,3.486z"/>
</g>
<g>
	<g>
		<path fill="#7C51A1" d="M62.581,143.839l-1.683-1.039c0.712-1.15,17.6-28.322,34.034-38.842
			c21.786-13.934,48.365-20.224,54.602-21.564l-25.796-44.991l1.713-0.984l26.476,46.173c0.16,0.278,0.173,0.616,0.04,0.905
			c-0.133,0.291-0.399,0.498-0.714,0.558c-0.305,0.058-30.853,5.959-55.255,21.567C79.943,115.898,62.752,143.562,62.581,143.839z"
			/>
	</g>
	<g>
		<path fill="#7C51A1" d="M68.205,145.833l-1.667-1.061c0.729-1.143,18.022-28.053,34.625-38.324
			c21.988-13.604,48.66-19.488,54.915-20.732l-25.112-45.375l1.729-0.957l25.772,46.567c0.154,0.28,0.164,0.617,0.027,0.905
			c-0.139,0.29-0.407,0.492-0.724,0.546c-0.307,0.054-30.939,5.489-55.57,20.724C85.98,118.166,68.38,145.56,68.205,145.833z"/>
	</g>
	<path fill="#7C51A1" d="M115.503,35.138c0,0-15.925,5.91-51.738,28.85C33.113,83.617,21.41,116.996,21.41,116.996l34.327,26.313
		c0,0,16.471-28.496,32.604-39.482c24.384-16.612,54.948-23.299,54.948-23.299L115.503,35.138z M94.659,92.878
		c-0.919-0.964-1.726-1.204-2.428-0.71c-0.641,0.459-1.609,1.551-2.905,3.28c-1.305,1.733-2.485,2.975-3.55,3.724
		c-2.412,1.713-4.978,2.474-7.694,2.277c-2.894-0.193-5.167-1.47-6.845-3.832c-0.872-1.227-1.397-2.531-1.578-3.917l-1.843,1.308
		l-1.213-1.717l3.098-2.2c0.07-0.49,0.189-1.015,0.355-1.574c0.39-1.32,1.3-3.45,2.747-6.382l-8.923,6.324l-1.213-1.717
		l11.981-8.493c0.833-1.891,1.343-3.284,1.536-4.175c0.382-1.74,0.189-3.156-0.586-4.245c-0.911-1.283-2.192-1.964-3.847-2.057
		c-1.532-0.081-2.952,0.335-4.268,1.266c-2.284,1.621-3.581,3.77-3.897,6.444c-0.263,2.199,0.146,4.349,1.229,6.432l-0.774,0.552
		l-6.371-8.991l0.775-0.544c1.007,0.922,1.874,1.123,2.605,0.61c0.289-0.208,0.98-1.108,2.063-2.696
		c1.09-1.587,2.163-2.761,3.226-3.515c2.275-1.611,4.69-2.313,7.229-2.101c2.678,0.226,4.8,1.451,6.386,3.685
		c0.957,1.354,1.478,2.848,1.559,4.469l2.114-1.505l1.216,1.721l-3.601,2.555c-0.077,0.328-0.15,0.621-0.224,0.879
		c-0.436,1.486-1.331,3.62-2.693,6.41l-0.397,0.818l9.635-6.83l1.212,1.713l-12.564,8.91c-0.289,0.714-0.505,1.292-0.644,1.751
		c-0.726,2.319-0.544,4.245,0.544,5.781c1.038,1.466,2.458,2.211,4.26,2.238c1.602,0.012,3.168-0.517,4.692-1.594
		c2.455-1.748,3.875-4.005,4.26-6.772c0.305-2.142-0.016-4.306-0.977-6.482l0.779-0.548l6.31,8.898L94.659,92.878z"/>
</g>
</svg>
