<?xml version="1.0" encoding="utf-8"?>
<!-- Generator: Adobe Illustrator 16.0.0, SVG Export Plug-In . SVG Version: 6.00 Build 0)  -->
<!DOCTYPE svg PUBLIC "-//W3C//DTD SVG 1.1//EN" "http://www.w3.org/Graphics/SVG/1.1/DTD/svg11.dtd">
<svg version="1.1" id="Шар_1" xmlns="http://www.w3.org/2000/svg" xmlns:xlink="http://www.w3.org/1999/xlink" x="0px" y="0px"
	 width="114px" height="113.999px" viewBox="0 0 114 113.999" enable-background="new 0 0 114 113.999" xml:space="preserve">
<g>
	<g>
		<circle fill="#FFF0F2" cx="57" cy="56.999" r="56.154"/>
		<path fill="#FF474A" d="M57,113.999c-31.43,0-57-25.57-57-57C0,25.57,25.57,0,57,0s57,25.57,57,56.999
			C114,88.429,88.43,113.999,57,113.999z M57,1.69c-30.498,0-55.31,24.812-55.31,55.309c0,30.498,24.812,55.31,55.31,55.31
			s55.31-24.812,55.31-55.31C112.31,26.502,87.498,1.69,57,1.69z"/>
	</g>
	<g>
		<g>
			<path fill="#FF474A" d="M19.544,41.155c0.583-0.483,1.275-0.531,1.948-0.239c1.321,0.585,2.048,1.856,1.374,3.409l-1.544,3.562
				l-7.603-3.295l1.408-3.248c0.569-1.314,2.047-1.925,3.361-1.355C18.945,40.187,19.4,40.654,19.544,41.155z M16.272,43.465
				l1.228,0.532l0.532-1.228c0.333-0.771-0.894-1.302-1.232-0.521L16.272,43.465z M19.118,44.699l1.292,0.56l0.673-1.553
				c0.339-0.782-0.958-1.332-1.297-0.55L19.118,44.699z"/>
			<path fill="#FF474A" d="M26.929,36.061l-1.994,2.584l0.528,1.02l-1.264,1.639l-0.243-0.188l-4.121-7.883l0.557-0.722l8.678,1.975
				l0.244,0.188l-1.265,1.639L26.929,36.061z M22.769,34.928l1.152,2.069l1.156-1.498L22.769,34.928z"/>
			<path fill="#FF474A" d="M25.176,27.079l1.742-1.284l3.754,5.092l1.608-1.186l-3.753-5.093l1.742-1.284l3.753,5.093l1.609-1.187
				l-3.755-5.092l1.742-1.284l4.911,6.664l-8.442,6.223L25.176,27.079z"/>
			<path fill="#FF474A" d="M44.682,23.99l-3.042,1.182l-0.076,1.146l-1.93,0.75l-0.111-0.288l0.549-8.88l0.85-0.33l6.409,6.179
				l0.111,0.287l-1.93,0.75L44.682,23.99z M41.707,20.869l-0.084,2.367l1.765-0.685L41.707,20.869z"/>
			<path fill="#FF474A" d="M55.689,14.616c1.715-0.058,3.604,0.813,3.997,3.015c-0.721,0.024-1.359,0.046-2.081,0.07
				c-0.325-0.83-0.964-1.187-1.852-1.156c-1.241,0.041-2.026,1.004-1.979,2.375c0.041,1.219,0.881,2.255,2.136,2.225
				c0.898-0.03,1.604-0.504,1.8-1.398c0.71-0.025,1.36-0.046,2.082-0.071c-0.229,2.353-2.054,3.337-3.817,3.398
				c-2.104,0.083-4.281-1.265-4.388-4.08C51.503,16.179,53.584,14.687,55.689,14.616z"/>
			<path fill="#FF474A" d="M61.656,23.15l1.761-8.09c0.693,0.151,1.387,0.302,2.104,0.458l-0.667,3.063l0.15,0.032
				c2.068,0.45,2.302-1.121,2.632-2.635c0.705,0.154,1.41,0.307,2.126,0.463c-0.359,1.652-0.646,3.188-2.476,3.867l1.421,4.038
				l-0.07,0.323l-2.3-0.501l-1.099-3.519c-0.287-0.014-0.541-0.069-0.808-0.127l-0.671,3.085
				C63.043,23.452,62.35,23.301,61.656,23.15z"/>
			<path fill="#FF474A" d="M70.603,25.516l-0.684-0.325l3.562-7.486c0.652,0.31,1.303,0.62,1.955,0.93l-1.743,3.664l5.539-1.896
				l0.694,0.331l-3.573,7.508c-0.651-0.31-1.313-0.625-1.976-0.94l1.749-3.673L70.603,25.516z"/>
			<path fill="#FF474A" d="M78.262,30.662l-1.376-1.086l1.718-2.173l0.66,0.521l6.294-3.383l0.716,0.564L84.51,32.07l0.679,0.536
				l-1.718,2.173l-1.365-1.079l0.565-0.715l-3.845-3.039L78.262,30.662z M80.959,29.234l1.839,1.453l0.918-3.09L80.959,29.234z"/>
			<path fill="#FF474A" d="M84.849,34.992l6.455-5.183c0.444,0.554,0.889,1.107,1.348,1.679l-2.443,1.961l0.096,0.121
				c1.325,1.65,2.494,0.575,3.703-0.395c0.45,0.563,0.903,1.125,1.362,1.697c-1.319,1.059-2.507,2.073-4.357,1.45l-1.433,4.032
				l-0.259,0.208l-1.474-1.835l1.359-3.427c-0.215-0.191-0.378-0.395-0.548-0.607l-2.462,1.977
				C85.737,36.099,85.293,35.545,84.849,34.992z"/>
			<path fill="#FF474A" d="M93.043,46.098l-1.31-2.991l-1.147-0.026l-0.831-1.896l0.281-0.123l8.896,0.171l0.365,0.833l-5.899,6.666
				l-0.282,0.124l-0.83-1.896L93.043,46.098z M96.035,42.991l-2.368,0.019l0.759,1.733L96.035,42.991z"/>
		</g>
		<g>
			<g>
				<g>
					<g>
						<path fill="#FF474A" d="M70.536,61.852c0,1.05-0.333,2.102-0.911,2.923c-0.611,0.855-1.451,1.26-2.607,1.26
							c-1.591,0-2.535-0.962-2.535-2.572c0-2.395,1.435-4.199,3.324-4.199C69.521,59.263,70.536,60.226,70.536,61.852z
							 M67.807,72.034h-1.647l9.029-13.051h1.627L67.807,72.034z M67.84,60.524c-0.384,0-0.732,0.188-0.942,0.521
							c-0.353,0.526-0.685,1.855-0.685,2.697c0,0.646,0.368,1.047,0.946,1.047c0.42,0,0.804-0.261,1.032-0.699
							c0.314-0.596,0.595-1.785,0.595-2.484C68.786,60.923,68.435,60.524,67.84,60.524z M78.619,67.642
							c0,1.053-0.334,2.1-0.912,2.924c-0.612,0.856-1.45,1.258-2.604,1.258c-1.593,0-2.539-0.961-2.539-2.572
							c0-2.396,1.435-4.198,3.325-4.198C77.603,65.053,78.619,66.016,78.619,67.642z M75.923,66.313
							c-0.386,0-0.734,0.19-0.943,0.526c-0.351,0.522-0.683,1.854-0.683,2.692c0,0.648,0.367,1.049,0.944,1.049
							c0.421,0,0.805-0.262,1.033-0.699c0.313-0.596,0.595-1.783,0.595-2.482C76.869,66.716,76.518,66.313,75.923,66.313z"/>
					</g>
				</g>
			</g>
			<g>
				<g>
					<path fill="#FF474A" d="M60.615,38.406v3.598H46.847l-2.016,10.122c1.662-1.79,3.949-2.686,6.86-2.686
						c3.198,0,5.789,1.031,7.771,3.094c1.983,2.063,2.976,4.742,2.976,8.036c0,3.454-1.088,6.302-3.263,8.54
						C57,71.35,54.17,72.469,50.684,72.469c-3.23,0-5.845-0.896-7.844-2.687c-2-1.791-3.046-4.174-3.143-7.149h4.126
						c0.159,1.888,0.88,3.423,2.159,4.606c1.278,1.184,2.861,1.775,4.75,1.775c2.11,0,3.869-0.769,5.277-2.304
						c1.406-1.534,2.11-3.438,2.11-5.709c0-2.366-0.688-4.293-2.062-5.781c-1.376-1.487-3.167-2.23-5.374-2.23
						c-2.814,0-4.989,1.103-6.525,3.311l-3.501-0.24l3.166-17.655H60.615z"/>
				</g>
			</g>
		</g>
		<g>
			<g>
				<path fill="#FF474A" d="M70.058,91.182c-1.379,0.528-2.053,2.056-1.525,3.433c0.409,1.052,1.407,1.699,2.491,1.699
					c0.324,0,0.646-0.059,0.939-0.178c1.376-0.525,2.051-2.052,1.523-3.427C72.958,91.36,71.434,90.655,70.058,91.182z"/>
			</g>
			<g>
				<path fill="#FF474A" d="M77.852,87.051c-1.2,0.851-1.494,2.491-0.673,3.693c0.528,0.733,1.349,1.143,2.198,1.143
					c0.528,0,1.056-0.146,1.523-0.469c1.203-0.851,1.495-2.491,0.675-3.693C80.725,86.526,79.056,86.23,77.852,87.051z"/>
			</g>
			<g>
				<path fill="#FF474A" d="M44.119,91.241c-1.38-0.528-2.902,0.177-3.433,1.555c-0.524,1.376,0.179,2.901,1.556,3.428
					c0.292,0.117,0.616,0.177,0.937,0.177c1.087,0,2.082-0.646,2.492-1.729C46.17,93.294,45.494,91.741,44.119,91.241z"/>
			</g>
			<g>
				<path fill="#FF474A" d="M61.499,93.294c-1.468,0.174-2.491,1.494-2.316,2.961c0.177,1.348,1.32,2.345,2.639,2.345
					c0.118,0,0.204,0,0.321-0.03c1.465-0.174,2.491-1.495,2.316-2.959C64.282,94.172,62.963,93.116,61.499,93.294z"/>
			</g>
			<g>
				<path fill="#FF474A" d="M52.676,93.321L52.676,93.321c-1.466-0.174-2.784,0.882-2.96,2.345c-0.176,1.47,0.879,2.788,2.316,2.934
					c0.117,0,0.205,0.028,0.321,0.028c1.319,0,2.461-0.998,2.638-2.346C55.197,94.819,54.141,93.499,52.676,93.321z"/>
			</g>
			<g>
				<path fill="#FF474A" d="M96.26,54.284c-1.466,0-2.668,1.2-2.668,2.665c0,1.468,1.202,2.669,2.668,2.638
					c1.464,0,2.665-1.2,2.639-2.666C98.925,55.455,97.724,54.284,96.26,54.284z"/>
			</g>
			<g>
				<path fill="#FF474A" d="M95.762,63.749c-1.438-0.35-2.873,0.528-3.225,1.934c-0.352,1.438,0.527,2.874,1.936,3.225
					c0.204,0.061,0.411,0.089,0.644,0.089c1.201,0,2.285-0.819,2.58-2.021C98.075,65.509,97.196,64.103,95.762,63.749z"/>
			</g>
			<g>
				<path fill="#FF474A" d="M84.447,81.19c-0.967,1.082-0.88,2.781,0.234,3.75c0.498,0.438,1.145,0.672,1.759,0.672
					c0.734,0,1.466-0.291,1.992-0.907c0.968-1.112,0.88-2.784-0.232-3.749C87.084,79.988,85.415,80.105,84.447,81.19z"/>
			</g>
			<g>
				<path fill="#FF474A" d="M93.035,72.808c-1.288-0.677-2.901-0.176-3.577,1.113c-0.672,1.289-0.175,2.9,1.115,3.576
					c0.381,0.205,0.82,0.29,1.231,0.29c0.967,0,1.874-0.524,2.345-1.435C94.822,75.093,94.323,73.511,93.035,72.808z"/>
			</g>
			<g>
				<path fill="#FF474A" d="M21.053,72.953c-1.291,0.705-1.787,2.285-1.114,3.606c0.468,0.906,1.406,1.406,2.345,1.406
					c0.408,0,0.849-0.09,1.23-0.293c1.291-0.676,1.787-2.286,1.113-3.578C23.952,72.776,22.371,72.278,21.053,72.953z"/>
			</g>
			<g>
				<path fill="#FF474A" d="M21.491,65.829c-0.353-1.435-1.788-2.285-3.224-1.934c-1.438,0.352-2.286,1.787-1.935,3.225
					c0.292,1.201,1.379,2.024,2.579,2.024c0.206,0,0.438-0.031,0.646-0.091C20.993,68.704,21.87,67.266,21.491,65.829z"/>
			</g>
			<g>
				<path fill="#FF474A" d="M17.769,59.764c1.466,0,2.638-1.202,2.638-2.667c0-0.031,0-0.031,0-0.059c0-0.03,0-0.03,0-0.058
					c0-1.466-1.202-2.669-2.666-2.669c-1.466,0-2.639,1.204-2.639,2.669c0,0.028,0,0.028,0,0.058c0,0.028,0,0.028,0,0.059
					C15.131,58.562,16.303,59.764,17.769,59.764L17.769,59.764z"/>
			</g>
			<g>
				<path fill="#FF474A" d="M25.947,81.101c-1.085,0.967-1.204,2.668-0.207,3.753c0.528,0.586,1.262,0.878,1.994,0.878
					c0.644,0,1.26-0.204,1.758-0.674c1.084-0.965,1.201-2.668,0.206-3.752C28.702,80.223,27.03,80.134,25.947,81.101z"/>
			</g>
			<g>
				<path fill="#FF474A" d="M36.292,87.139c-1.201-0.822-2.873-0.526-3.693,0.675c-0.819,1.201-0.526,2.871,0.675,3.691
					c0.468,0.322,0.998,0.469,1.494,0.469c0.851,0,1.67-0.408,2.199-1.143C37.816,89.632,37.523,87.987,36.292,87.139z"/>
			</g>
		</g>
	</g>
</g>
</svg>
