<?xml version="1.0" encoding="utf-8"?>
<!-- Generator: Adobe Illustrator 16.0.0, SVG Export Plug-In . SVG Version: 6.00 Build 0)  -->
<!DOCTYPE svg PUBLIC "-//W3C//DTD SVG 1.1//EN" "http://www.w3.org/Graphics/SVG/1.1/DTD/svg11.dtd">
<svg version="1.1" id="Шар_1" xmlns="http://www.w3.org/2000/svg" xmlns:xlink="http://www.w3.org/1999/xlink" x="0px" y="0px"
	 width="114px" height="113.999px" viewBox="0 0 114 113.999" enable-background="new 0 0 114 113.999" xml:space="preserve">
<g>
	<g>
		<circle fill="#FFF0F2" cx="57" cy="56.999" r="56.154"/>
		<path fill="#FF474A" d="M57,113.999c-31.43,0-57-25.57-57-57C0,25.57,25.57,0,57,0s57,25.57,57,56.999
			C114,88.429,88.43,113.999,57,113.999z M57,1.69c-30.498,0-55.31,24.812-55.31,55.309c0,30.498,24.812,55.31,55.31,55.31
			s55.31-24.812,55.31-55.31C112.31,26.502,87.498,1.69,57,1.69z"/>
	</g>
	<g>
		<path fill="#FF474A" d="M19.544,41.155c0.583-0.483,1.275-0.531,1.948-0.239c1.321,0.585,2.048,1.856,1.374,3.409l-1.544,3.562
			l-7.603-3.295l1.408-3.248c0.569-1.314,2.047-1.925,3.361-1.355C18.945,40.187,19.4,40.654,19.544,41.155z M16.272,43.465
			l1.228,0.532l0.532-1.228c0.333-0.771-0.894-1.302-1.232-0.521L16.272,43.465z M19.118,44.699l1.292,0.56l0.673-1.553
			c0.339-0.782-0.958-1.332-1.297-0.55L19.118,44.699z"/>
		<path fill="#FF474A" d="M26.929,36.061l-1.994,2.584l0.528,1.02l-1.264,1.639l-0.243-0.188l-4.121-7.883l0.557-0.722l8.678,1.975
			l0.244,0.188l-1.265,1.639L26.929,36.061z M22.769,34.928l1.152,2.069l1.156-1.498L22.769,34.928z"/>
		<path fill="#FF474A" d="M25.176,27.079l1.742-1.284l3.754,5.092l1.608-1.186l-3.753-5.093l1.742-1.284l3.753,5.093l1.609-1.187
			l-3.755-5.092l1.742-1.284l4.911,6.664l-8.442,6.223L25.176,27.079z"/>
		<path fill="#FF474A" d="M44.682,23.99l-3.042,1.182l-0.076,1.146l-1.93,0.75l-0.111-0.288l0.549-8.88l0.85-0.33l6.409,6.179
			l0.111,0.287l-1.93,0.75L44.682,23.99z M41.707,20.869l-0.084,2.367l1.765-0.685L41.707,20.869z"/>
		<path fill="#FF474A" d="M55.689,14.616c1.715-0.058,3.604,0.813,3.997,3.015c-0.721,0.024-1.359,0.046-2.081,0.07
			c-0.325-0.83-0.964-1.187-1.852-1.156c-1.241,0.041-2.026,1.004-1.979,2.375c0.041,1.219,0.881,2.255,2.136,2.225
			c0.898-0.03,1.604-0.504,1.8-1.398c0.71-0.025,1.36-0.046,2.082-0.071c-0.229,2.353-2.054,3.337-3.817,3.398
			c-2.104,0.083-4.281-1.265-4.388-4.08C51.503,16.179,53.584,14.687,55.689,14.616z"/>
		<path fill="#FF474A" d="M61.656,23.15l1.761-8.09c0.693,0.151,1.387,0.302,2.104,0.458l-0.667,3.063l0.15,0.032
			c2.068,0.45,2.302-1.121,2.632-2.635c0.705,0.154,1.41,0.307,2.126,0.463c-0.359,1.652-0.646,3.188-2.476,3.867l1.421,4.038
			l-0.07,0.323l-2.3-0.501l-1.099-3.519c-0.287-0.014-0.541-0.069-0.808-0.127l-0.671,3.085
			C63.043,23.452,62.35,23.301,61.656,23.15z"/>
		<path fill="#FF474A" d="M70.603,25.516l-0.684-0.325l3.562-7.486c0.652,0.31,1.303,0.62,1.955,0.93l-1.743,3.664l5.539-1.896
			l0.694,0.331l-3.573,7.508c-0.651-0.31-1.313-0.625-1.976-0.94l1.749-3.673L70.603,25.516z"/>
		<path fill="#FF474A" d="M78.262,30.662l-1.376-1.086l1.718-2.173l0.66,0.521l6.294-3.383l0.716,0.564L84.51,32.07l0.679,0.536
			l-1.718,2.173l-1.365-1.079l0.565-0.715l-3.845-3.039L78.262,30.662z M80.959,29.234l1.839,1.453l0.918-3.09L80.959,29.234z"/>
		<path fill="#FF474A" d="M84.849,34.992l6.455-5.183c0.444,0.554,0.889,1.107,1.348,1.679l-2.443,1.961l0.096,0.121
			c1.325,1.65,2.494,0.575,3.703-0.395c0.45,0.563,0.903,1.125,1.362,1.697c-1.319,1.059-2.507,2.073-4.357,1.45l-1.433,4.032
			l-0.259,0.208l-1.474-1.835l1.359-3.427c-0.215-0.191-0.378-0.395-0.548-0.607l-2.462,1.977
			C85.737,36.099,85.293,35.545,84.849,34.992z"/>
		<path fill="#FF474A" d="M93.043,46.098l-1.31-2.991l-1.147-0.026l-0.831-1.896l0.281-0.123l8.896,0.171l0.365,0.833l-5.899,6.666
			l-0.282,0.124l-0.83-1.896L93.043,46.098z M96.035,42.991l-2.368,0.019l0.759,1.733L96.035,42.991z"/>
	</g>
	<g>
		<g>
			<path fill="#FF474A" d="M70.058,91.182c-1.379,0.528-2.053,2.056-1.525,3.433c0.409,1.052,1.407,1.699,2.491,1.699
				c0.324,0,0.646-0.059,0.939-0.178c1.376-0.525,2.051-2.052,1.523-3.427C72.958,91.36,71.434,90.655,70.058,91.182z"/>
		</g>
		<g>
			<path fill="#FF474A" d="M77.852,87.051c-1.2,0.851-1.494,2.491-0.673,3.693c0.528,0.733,1.349,1.143,2.198,1.143
				c0.528,0,1.056-0.146,1.523-0.469c1.203-0.851,1.495-2.491,0.675-3.693C80.725,86.526,79.056,86.23,77.852,87.051z"/>
		</g>
		<g>
			<path fill="#FF474A" d="M44.119,91.241c-1.38-0.528-2.902,0.177-3.433,1.555c-0.524,1.376,0.179,2.901,1.556,3.428
				c0.292,0.117,0.616,0.177,0.937,0.177c1.087,0,2.082-0.646,2.492-1.729C46.17,93.294,45.494,91.741,44.119,91.241z"/>
		</g>
		<g>
			<path fill="#FF474A" d="M61.499,93.294c-1.468,0.174-2.491,1.494-2.316,2.961c0.177,1.348,1.32,2.345,2.639,2.345
				c0.118,0,0.204,0,0.321-0.03c1.465-0.174,2.491-1.495,2.316-2.959C64.282,94.172,62.963,93.116,61.499,93.294z"/>
		</g>
		<g>
			<path fill="#FF474A" d="M52.676,93.321L52.676,93.321c-1.466-0.174-2.784,0.882-2.96,2.345c-0.176,1.47,0.879,2.788,2.316,2.934
				c0.117,0,0.205,0.028,0.321,0.028c1.319,0,2.461-0.998,2.638-2.346C55.197,94.819,54.141,93.499,52.676,93.321z"/>
		</g>
		<g>
			<path fill="#FF474A" d="M96.26,54.284c-1.466,0-2.668,1.2-2.668,2.665c0,1.468,1.202,2.669,2.668,2.638
				c1.464,0,2.665-1.2,2.639-2.666C98.925,55.455,97.724,54.284,96.26,54.284z"/>
		</g>
		<g>
			<path fill="#FF474A" d="M95.762,63.749c-1.438-0.35-2.873,0.528-3.225,1.934c-0.352,1.438,0.527,2.874,1.936,3.225
				c0.204,0.061,0.411,0.089,0.644,0.089c1.201,0,2.285-0.819,2.58-2.021C98.075,65.509,97.196,64.103,95.762,63.749z"/>
		</g>
		<g>
			<path fill="#FF474A" d="M84.447,81.19c-0.967,1.082-0.88,2.781,0.234,3.75c0.498,0.438,1.145,0.672,1.759,0.672
				c0.734,0,1.466-0.291,1.992-0.907c0.968-1.112,0.88-2.784-0.232-3.749C87.084,79.988,85.415,80.105,84.447,81.19z"/>
		</g>
		<g>
			<path fill="#FF474A" d="M93.035,72.808c-1.288-0.677-2.901-0.176-3.577,1.113c-0.672,1.289-0.175,2.9,1.115,3.576
				c0.381,0.205,0.82,0.29,1.231,0.29c0.967,0,1.874-0.524,2.345-1.435C94.822,75.093,94.323,73.511,93.035,72.808z"/>
		</g>
		<g>
			<path fill="#FF474A" d="M21.053,72.953c-1.291,0.705-1.787,2.285-1.114,3.606c0.468,0.906,1.406,1.406,2.345,1.406
				c0.408,0,0.849-0.09,1.23-0.293c1.291-0.676,1.787-2.286,1.113-3.578C23.952,72.776,22.371,72.278,21.053,72.953z"/>
		</g>
		<g>
			<path fill="#FF474A" d="M21.491,65.829c-0.353-1.435-1.788-2.285-3.224-1.934c-1.438,0.352-2.286,1.787-1.935,3.225
				c0.292,1.201,1.379,2.024,2.579,2.024c0.206,0,0.438-0.031,0.646-0.091C20.993,68.704,21.87,67.266,21.491,65.829z"/>
		</g>
		<g>
			<path fill="#FF474A" d="M17.769,59.764c1.466,0,2.638-1.202,2.638-2.667c0-0.031,0-0.031,0-0.059c0-0.03,0-0.03,0-0.058
				c0-1.466-1.202-2.669-2.666-2.669c-1.466,0-2.639,1.204-2.639,2.669c0,0.028,0,0.028,0,0.058c0,0.028,0,0.028,0,0.059
				C15.131,58.562,16.303,59.764,17.769,59.764L17.769,59.764z"/>
		</g>
		<g>
			<path fill="#FF474A" d="M25.947,81.101c-1.085,0.967-1.204,2.668-0.207,3.753c0.528,0.586,1.262,0.878,1.994,0.878
				c0.644,0,1.26-0.204,1.758-0.674c1.084-0.965,1.201-2.668,0.206-3.752C28.702,80.223,27.03,80.134,25.947,81.101z"/>
		</g>
		<g>
			<path fill="#FF474A" d="M36.292,87.139c-1.201-0.822-2.873-0.526-3.693,0.675c-0.819,1.201-0.526,2.871,0.675,3.691
				c0.468,0.322,0.998,0.469,1.494,0.469c0.851,0,1.67-0.408,2.199-1.143C37.816,89.632,37.523,87.987,36.292,87.139z"/>
		</g>
	</g>
	<g>
		<path fill="#FF474A" d="M46.981,40.015v33.361h-4.383V49.203h-8.387v-3.015c2.701,0,4.846-0.439,6.432-1.32
			c1.586-0.879,2.645-2.497,3.18-4.853H46.981z"/>
		<path fill="#FF474A" d="M61.153,70.313c-0.422-0.098-0.822-0.227-1.191-0.4c-0.832-0.393-1.484-0.974-1.955-1.744
			c-0.471-0.77-0.865-1.539-1.178-2.309c-0.314-0.77-0.535-1.734-0.66-2.898c-0.125-1.161-0.205-2.104-0.236-2.826
			s-0.047-1.633-0.047-2.733c0-1.131,0-1.939,0-2.426c0-0.487,0.047-1.32,0.143-2.497c0.094-1.178,0.211-2.082,0.354-2.71
			c0.141-0.628,0.383-1.406,0.73-2.333c0.344-0.926,0.754-1.625,1.225-2.096c0.471-0.472,1.084-0.888,1.838-1.25
			c0.754-0.36,1.617-0.542,2.592-0.542c0.973,0,1.838,0.182,2.592,0.542c0.754,0.361,1.365,0.777,1.836,1.25
			c0.473,0.471,0.879,1.162,1.227,2.073c0.346,0.912,0.588,1.681,0.73,2.309c0.141,0.628,0.258,1.523,0.352,2.685
			c0.096,1.163,0.143,1.979,0.143,2.451c0,0.175,0,0.409,0,0.67c1.021-0.28,2.092-0.441,3.201-0.441
			c0.357,0,0.707,0.023,1.059,0.053c-0.023-0.939-0.061-1.802-0.113-2.568c-0.096-1.367-0.361-2.906-0.801-4.618
			c-0.441-1.711-1.037-3.102-1.791-4.169s-1.846-1.971-3.275-2.709c-1.43-0.738-3.148-1.107-5.158-1.107
			c-1.666,0-3.135,0.236-4.406,0.707c-1.271,0.471-2.303,1.163-3.086,2.073c-0.785,0.911-1.43,1.878-1.932,2.898
			c-0.504,1.021-0.873,2.262-1.107,3.723c-0.236,1.46-0.395,2.773-0.473,3.935c-0.078,1.162-0.117,2.529-0.117,4.099
			c0,1.821,0.062,3.433,0.189,4.829c0.125,1.398,0.416,2.875,0.871,4.43s1.076,2.836,1.861,3.841
			c0.783,1.005,1.891,1.845,3.322,2.521c1.4,0.662,3.057,0.996,4.957,1.008C62.081,72.913,61.511,71.657,61.153,70.313z"/>
		<g>
			<path fill="#FF474A" d="M71.851,63.608c0,1.031-0.326,2.064-0.895,2.871c-0.602,0.84-1.426,1.236-2.562,1.236
				c-1.561,0-2.49-0.944-2.49-2.525c0-2.353,1.41-4.124,3.266-4.124C70.853,61.066,71.851,62.012,71.851,63.608z M69.169,73.609
				h-1.617l8.869-12.817h1.598L69.169,73.609z M69.202,62.304c-0.377,0-0.721,0.186-0.926,0.514
				c-0.346,0.517-0.674,1.822-0.674,2.648c0,0.635,0.363,1.028,0.932,1.028c0.41,0,0.789-0.257,1.014-0.687
				c0.309-0.584,0.584-1.754,0.584-2.44C70.132,62.696,69.786,62.304,69.202,62.304z M79.788,69.294
				c0,1.034-0.326,2.062-0.895,2.873c-0.602,0.841-1.426,1.234-2.559,1.234c-1.564,0-2.492-0.943-2.492-2.525
				c0-2.354,1.408-4.124,3.266-4.124C78.79,66.752,79.788,67.698,79.788,69.294z M77.142,67.991c-0.379,0-0.721,0.186-0.928,0.516
				c-0.344,0.514-0.67,1.821-0.67,2.645c0,0.637,0.361,1.031,0.926,1.031c0.416,0,0.793-0.258,1.016-0.688
				c0.309-0.586,0.586-1.752,0.586-2.438C78.071,68.386,77.726,67.991,77.142,67.991z"/>
		</g>
	</g>
</g>
</svg>
