<?xml version="1.0" encoding="utf-8"?>
<!-- Generator: Adobe Illustrator 16.0.0, SVG Export Plug-In . SVG Version: 6.00 Build 0)  -->
<!DOCTYPE svg PUBLIC "-//W3C//DTD SVG 1.1//EN" "http://www.w3.org/Graphics/SVG/1.1/DTD/svg11.dtd">
<svg version="1.1" id="Шар_1" xmlns="http://www.w3.org/2000/svg" xmlns:xlink="http://www.w3.org/1999/xlink" x="0px" y="0px"
	 width="127px" height="126.999px" viewBox="0 0 127 126.999" enable-background="new 0 0 127 126.999" xml:space="preserve">
<g>
	<g>
		<g>
			<path fill="#FCE0E3" d="M63.5,126.043c-34.487,0-62.544-28.058-62.544-62.544S29.013,0.956,63.5,0.956
				s62.544,28.057,62.544,62.543S97.987,126.043,63.5,126.043z"/>
		</g>
		<g>
			<path fill="#7E57C2" d="M63.5,1.912c33.96,0,61.588,27.628,61.588,61.587c0,33.96-27.628,61.588-61.588,61.588
				S1.912,97.459,1.912,63.499C1.912,29.54,29.54,1.912,63.5,1.912 M63.5,0C28.43,0,0,28.43,0,63.499s28.43,63.5,63.5,63.5
				s63.5-28.431,63.5-63.5S98.57,0,63.5,0L63.5,0z"/>
		</g>
	</g>
	<g>
		<g>
			<path fill="#7E57C2" d="M86.018,60.512H40.983c-0.473,0-0.854,0.383-0.854,0.854v26.497c0,0.472,0.382,0.854,0.854,0.854h45.034
				c0.472,0,0.854-0.382,0.854-0.854V61.366C86.871,60.895,86.489,60.512,86.018,60.512z"/>
		</g>
		<g>
			<path fill="#623FAF" d="M86.018,60.512H40.983c-0.473,0-0.854,0.383-0.854,0.854v3.417h46.742v-3.417
				C86.871,60.895,86.489,60.512,86.018,60.512z"/>
		</g>
		<g>
			<path fill="#FFDB57" d="M67.863,60.512h-8.727c-0.472,0-0.853,0.383-0.853,0.854v26.497c0,0.472,0.381,0.854,0.853,0.854h8.727
				c0.471,0,0.853-0.382,0.853-0.854V61.366C68.716,60.895,68.334,60.512,67.863,60.512z"/>
		</g>
		<g>
			<path fill="#F5BA3D" d="M67.863,60.512h-8.727c-0.472,0-0.853,0.383-0.853,0.854v3.397h10.432v-3.397
				C68.716,60.895,68.334,60.512,67.863,60.512z"/>
		</g>
		<g>
			<path fill="#FFDB57" d="M84.354,44.737c-0.838-2.183-2.158-4.314-3.534-5.703c-0.506-0.509-1.186-0.766-1.958-0.751
				c-2.564,0.062-6.742,3.278-12.419,9.566c-0.141,0.156-0.22,0.36-0.22,0.571v4.516c0,0.473,0.382,0.854,0.854,0.854h13.136
				c2.929,0,4.136-1.423,4.633-2.618C85.51,49.58,85.334,47.296,84.354,44.737z"/>
		</g>
		<g>
			<path fill="#EF9325" d="M84.842,46.225c-0.023-0.087-0.061-0.17-0.111-0.247c-1.29-1.949-4.075-1.22-6.187-0.264
				c-6.13,2.775-8.663,6.598-8.768,6.758c-0.17,0.263-0.183,0.598-0.033,0.874c0.149,0.274,0.437,0.445,0.75,0.445h9.72
				c1.862,0,3.243-0.57,4.105-1.698C85.341,50.752,85.522,48.724,84.842,46.225z"/>
		</g>
		<g>
			<path fill="#FFDB57" d="M60.558,47.85c-5.677-6.288-9.855-9.505-12.42-9.566c-0.775-0.015-1.453,0.243-1.957,0.751
				c-1.376,1.388-2.697,3.52-3.534,5.703c-0.981,2.559-1.156,4.843-0.493,6.436c0.499,1.195,1.706,2.618,4.634,2.618h13.136
				c0.472,0,0.854-0.381,0.854-0.852v-4.518C60.777,48.21,60.698,48.005,60.558,47.85z"/>
		</g>
		<g>
			<path fill="#EF9325" d="M57.224,52.472c-0.104-0.161-2.638-3.983-8.768-6.758c-2.111-0.956-4.896-1.685-6.187,0.264
				c-0.051,0.077-0.088,0.16-0.112,0.247c-0.682,2.499-0.498,4.527,0.524,5.868c0.862,1.126,2.243,1.698,4.105,1.698h9.721
				c0.312,0,0.6-0.171,0.749-0.445C57.406,53.07,57.394,52.735,57.224,52.472z"/>
		</g>
		<g>
			<path fill="#F5BA3D" d="M67.076,46.723h-7.153c-0.472,0-0.854,0.383-0.854,0.854v5.363c0,0.471,0.383,0.852,0.854,0.852h7.153
				c0.473,0,0.854-0.381,0.854-0.852v-5.363C67.931,47.105,67.549,46.723,67.076,46.723z"/>
		</g>
		<g>
			<path fill="#7E57C2" d="M89.688,52.085H37.311c-0.471,0-0.854,0.382-0.854,0.855v8.426c0,0.472,0.383,0.855,0.854,0.855h52.377
				c0.473,0,0.855-0.383,0.855-0.855V52.94C90.543,52.467,90.16,52.085,89.688,52.085z"/>
		</g>
		<g>
			<rect x="56.939" y="52.085" fill="#FFDB57" width="13.12" height="10.136"/>
		</g>
	</g>
	<g>
		<path fill="#7E57C2" d="M34.401,21.239c1.933-1.086,4.617-1.207,6.376,1.083c-0.813,0.457-1.532,0.861-2.347,1.317
			c-0.864-0.76-1.81-0.79-2.81-0.229c-1.4,0.786-1.729,2.355-0.86,3.902c0.771,1.373,2.351,2.063,3.771,1.284
			c1.014-0.568,1.543-1.532,1.234-2.673c0.799-0.449,1.533-0.861,2.347-1.317c1.134,2.834-0.375,5.048-2.361,6.164
			c-2.365,1.345-5.663,1.092-7.457-2.073C30.526,25.517,32.028,22.57,34.401,21.239z"/>
		<path fill="#7E57C2" d="M51.916,26.945l-2.224,0.423l-0.669-3.515l1.066-0.203l2.021-9.009l1.158-0.221l5.31,7.614l1.096-0.209
			l0.669,3.516l-2.207,0.42l-0.221-1.156l-6.221,1.184L51.916,26.945z M52.805,23.103l2.974-0.566l-2.24-3.512L52.805,23.103z"/>
		<path fill="#7E57C2" d="M70.574,24.672c-0.932-0.055-1.863-0.109-2.795-0.163l0.25-4.292l-3.299-0.192l-0.25,4.291
			c-0.932-0.054-1.879-0.109-2.795-0.163l0.623-10.69c0.916,0.053,1.863,0.109,2.795,0.164l-0.227,3.878l3.299,0.192l0.226-3.879
			c0.932,0.054,1.863,0.108,2.794,0.163L70.574,24.672z"/>
		<path fill="#7E57C2" d="M82.113,19.202c-1.529-0.437-2.294-0.655-3.809-1.088L77.89,19.57l3.498,1
			c-0.222,0.779-0.445,1.558-0.667,2.337l-3.5-1c-0.172,0.603-0.34,1.191-0.516,1.808c1.514,0.433,2.396,0.685,3.939,1.125
			c-0.218,0.765-0.444,1.559-0.668,2.338c-2.411-0.689-4.176-1.193-6.557-1.875c0.983-3.439,1.966-6.879,2.94-10.291
			c2.381,0.68,4.013,1.146,6.425,1.835C82.567,17.614,82.339,18.409,82.113,19.202z M76.957,13.15
			c0.227-0.794,0.968-1.107,1.732-0.889c0.765,0.218,1.243,0.879,1.017,1.673c-0.214,0.75-0.975,1.074-1.739,0.855
			C77.202,14.571,76.742,13.899,76.957,13.15z M80.618,14.195c0.226-0.793,0.968-1.107,1.732-0.889
			c0.778,0.223,1.229,0.875,1.001,1.67c-0.213,0.75-0.945,1.082-1.724,0.859C80.863,15.617,80.403,14.945,80.618,14.195z"/>
		<path fill="#7E57C2" d="M95.873,23.124l0.858,0.47l-5.16,9.42c-0.818-0.449-1.638-0.897-2.455-1.345l2.293-4.188l-3.146,0.999
			l-0.269-0.147l-0.838-3.181l-2.295,4.187c-0.817-0.448-1.637-0.897-2.455-1.345l5.16-9.419l0.886,0.484l1.442,6.094L95.873,23.124
			z"/>
	</g>
	<g>
		<path fill="#7E57C2" d="M19.078,88.226c3.088-1.773,6.178-3.548,9.28-5.329c0.77,1.339,1.562,2.718,2.345,4.083
			c2.538,4.449-4.357,8.408-6.907,3.967l-0.982-1.711l-2.372,1.363C19.983,89.804,19.526,89.008,19.078,88.226z M28.574,88.185
			c-0.307-0.564-0.662-1.154-0.975-1.697c-0.755,0.435-1.896,1.089-2.651,1.523l0.974,1.696
			C26.669,91.007,29.353,89.571,28.574,88.185z"/>
		<path fill="#7E57C2" d="M29.578,95.136c4.997-5.457,13.093,1.958,8.095,7.414C32.664,108.019,24.568,100.604,29.578,95.136z
			 M35.61,100.66c2.602-2.841-1.355-6.466-3.958-3.624C29.029,99.899,32.987,103.524,35.61,100.66z"/>
		<path fill="#7E57C2" d="M44.304,107.554c-0.154-0.068-0.323-0.176-0.493-0.284l-3.816,2.845l-2.77-1.226l0.174-0.392l4.535-3.145
			c-1.395-2.104-0.508-3.92,0.376-5.92l2.56,1.131c-0.779,1.762-1.703,3.512,0.479,4.627l1.633-3.693l2.546,1.125l-1.633,3.693
			c2.293,0.863,2.966-0.996,3.745-2.758l2.56,1.131c-0.885,2-1.631,3.877-4.126,4.263l0.725,5.47l-0.172,0.393l-2.771-1.225
			l-0.464-4.736c-0.194-0.053-0.389-0.104-0.543-0.173l-1.65,3.735l-2.546-1.126L44.304,107.554z"/>
		<path fill="#7E57C2" d="M56.824,116.917l-2.258-0.17l0.27-3.57l1.083,0.082l4.301-8.176l1.175,0.089l3.145,8.737l1.113,0.084
			l-0.269,3.57l-2.243-0.17l0.089-1.174l-6.316-0.478L56.824,116.917z M58.684,113.437l3.021,0.229l-1.25-3.977L58.684,113.437z"/>
		<path fill="#7E57C2" d="M74.432,106.384c-1.56,0.313-2.339,0.469-3.884,0.779l0.298,1.484l3.568-0.715
			c0.159,0.794,0.319,1.59,0.478,2.384l-3.568,0.715c0.123,0.615,0.244,1.214,0.37,1.845c1.545-0.311,2.443-0.49,4.019-0.806
			c0.155,0.779,0.318,1.589,0.478,2.384c-2.46,0.493-4.259,0.854-6.688,1.341c-0.703-3.509-1.406-7.019-2.104-10.496
			c2.429-0.487,4.094-0.82,6.553-1.313C74.107,104.765,74.27,105.575,74.432,106.384z"/>
		<path fill="#7E57C2" d="M88.873,109.05c-0.839,0.411-1.676,0.821-2.515,1.232l-1.889-3.861l-2.969,1.452l1.89,3.86
			c-0.839,0.41-1.689,0.828-2.515,1.23l-4.707-9.617c0.825-0.404,1.677-0.82,2.515-1.23l1.708,3.49l2.968-1.453l-1.707-3.489
			c0.837-0.411,1.676-0.82,2.514-1.231L88.873,109.05z"/>
		<path fill="#7E57C2" d="M94.177,105.347l-0.725,0.658l-7.208-7.936c0.689-0.627,1.381-1.254,2.071-1.881l3.526,3.882l0.449-7.556
			l0.735-0.669l7.229,7.957c-0.689,0.627-1.392,1.265-2.094,1.902l-3.537-3.894L94.177,105.347z"/>
		<path fill="#7E57C2" d="M101.017,92.587c-2.949,1.41-6.933-1.804-4.825-5.441c0.788-1.346,1.591-2.719,2.369-4.053
			c3.089,1.807,6.165,3.604,9.24,5.402c-0.447,0.765-0.918,1.57-1.381,2.361l-2.719-1.589l-0.718,1.228l1.793,3.174l-1.542,2.64
			l-0.344-0.2L101.017,92.587z M101.576,88.026c-0.739-0.433-1.532-0.896-2.284-1.336c-0.324,0.555-0.677,1.127-0.987,1.69
			c-0.774,1.354,1.535,2.614,2.284,1.335L101.576,88.026z"/>
	</g>
	<g>
		<g>
			<circle fill="#00CDB3" cx="98.296" cy="55.887" r="2.069"/>
		</g>
		<g>
			<g>
				<path fill="#FF4B4E" d="M104.093,59.971c-0.131-0.61,0.258-1.209,0.866-1.34l2.197-0.47c0.608-0.13,1.209,0.257,1.339,0.866
					c0.131,0.609-0.258,1.209-0.866,1.339l-2.197,0.473C104.822,60.968,104.224,60.578,104.093,59.971z"/>
			</g>
		</g>
		<g>
			<g>
				<path fill="#F99830" d="M109.431,40.058c0.251-0.57-0.01-1.235-0.579-1.486c-0.57-0.249-1.235,0.009-1.486,0.58
					c-0.709,1.619-1.582,1.573-3.33,1.33c-1.57-0.221-4.197-0.589-4.888,3.021c-0.524,2.746-1.802,2.64-1.802,2.64
					c-0.379-0.001-1.414-0.247-1.624,0.833c-0.361,1.867,4.531,2.762,5.642-3.05c0.278-1.457,0.615-1.457,2.359-1.212
					C105.428,42.952,108.002,43.312,109.431,40.058z"/>
			</g>
			<g>
				<path fill="#F99830" d="M114.6,63.26c-0.228-0.581-0.882-0.866-1.462-0.64c-1.343,0.526-2.257,1.608-3.064,2.564
					c-1.39,1.645-1.91,2.26-3.693,0.9c-1.96-1.5-3.785-2.083-5.42-1.734c-2.017,0.429-3.103,2.148-1.988,2.922
					c0.928,0.641,1.658-0.316,1.658-0.316s1.258-1.464,4.382,0.92c4.921,3.756,6.526-2.205,8.948-3.156
					C114.54,64.494,114.826,63.841,114.6,63.26z"/>
			</g>
		</g>
	</g>
	<g>
		<circle fill="#FFCA54" cx="25.82" cy="63.85" r="2.482"/>
	</g>
	<g>
		<path fill="#F99830" d="M22.995,56.935c-1.426-0.272-3.9-2.056-3.059-6.854c0.308-1.752-0.07-1.895-2.132-2.363
			c-2.015-0.459-5.06-1.15-5.277-5.41c-0.038-0.746,0.535-1.382,1.282-1.421c0.748-0.039,1.383,0.535,1.42,1.283
			c0.109,2.119,1.108,2.438,3.174,2.909c1.856,0.42,4.961,1.125,4.199,5.47c-0.578,3.293,0.886,3.726,0.901,3.728
			c0.732,0.142,1.214,0.85,1.074,1.585C24.438,56.596,23.729,57.077,22.995,56.935z"/>
	</g>
	<g>
		<circle fill="#57BAE5" cx="15.148" cy="60.352" r="1.757"/>
	</g>
	<g>
		<circle fill="#57BAE5" cx="104.066" cy="74.614" r="1.758"/>
	</g>
	<g>
		<g>
			<path fill="#FF4B4E" d="M16.68,72.573c-0.536-0.521-0.548-1.379-0.026-1.914l1.88-1.935c0.521-0.536,1.379-0.548,1.913-0.026
				c0.538,0.521,0.549,1.378,0.028,1.914l-1.88,1.936C18.072,73.082,17.215,73.093,16.68,72.573z"/>
		</g>
		<g>
			<path fill="#FF4B4E" d="M31.782,57.339l-2.5-1.012c-0.694-0.279-1.028-1.069-0.748-1.761c0.28-0.693,1.069-1.027,1.763-0.748
				l2.5,1.011c0.693,0.282,1.028,1.07,0.748,1.762C33.265,57.284,32.477,57.62,31.782,57.339z"/>
		</g>
	</g>
</g>
</svg>
