<?xml version="1.0" encoding="utf-8"?>
<!-- Generator: Adobe Illustrator 16.0.0, SVG Export Plug-In . SVG Version: 6.00 Build 0)  -->
<!DOCTYPE svg PUBLIC "-//W3C//DTD SVG 1.1//EN" "http://www.w3.org/Graphics/SVG/1.1/DTD/svg11.dtd">
<svg version="1.1" id="Шар_1" xmlns="http://www.w3.org/2000/svg" xmlns:xlink="http://www.w3.org/1999/xlink" x="0px" y="0px"
	 width="114px" height="113.999px" viewBox="0 0 114 113.999" enable-background="new 0 0 114 113.999" xml:space="preserve">
<g>
	<g>
		<circle fill="#FFF0F2" cx="57" cy="56.999" r="56.154"/>
		<path fill="#FF474A" d="M57,113.999c-31.43,0-57-25.57-57-57C0,25.57,25.57,0,57,0s57,25.57,57,56.999
			C114,88.429,88.43,113.999,57,113.999z M57,1.69c-30.498,0-55.31,24.812-55.31,55.309c0,30.498,24.812,55.31,55.31,55.31
			s55.31-24.812,55.31-55.31C112.31,26.502,87.498,1.69,57,1.69z"/>
	</g>
	<g>
		<path fill="#FF474A" d="M19.544,41.155c0.583-0.483,1.275-0.531,1.948-0.239c1.321,0.585,2.048,1.856,1.374,3.409l-1.544,3.562
			l-7.603-3.295l1.408-3.248c0.569-1.314,2.047-1.925,3.361-1.355C18.945,40.187,19.4,40.654,19.544,41.155z M16.272,43.465
			l1.228,0.532l0.532-1.228c0.333-0.771-0.894-1.302-1.232-0.521L16.272,43.465z M19.118,44.699l1.292,0.56l0.673-1.553
			c0.339-0.782-0.958-1.332-1.297-0.55L19.118,44.699z"/>
		<path fill="#FF474A" d="M26.929,36.061l-1.994,2.584l0.528,1.02l-1.264,1.639l-0.243-0.188l-4.121-7.883l0.557-0.722l8.678,1.975
			l0.244,0.188l-1.265,1.639L26.929,36.061z M22.769,34.928l1.152,2.069l1.156-1.498L22.769,34.928z"/>
		<path fill="#FF474A" d="M25.176,27.079l1.742-1.284l3.754,5.092l1.608-1.186l-3.753-5.093l1.742-1.284l3.753,5.093l1.609-1.187
			l-3.755-5.092l1.742-1.284l4.911,6.664l-8.442,6.223L25.176,27.079z"/>
		<path fill="#FF474A" d="M44.682,23.99l-3.042,1.182l-0.076,1.146l-1.93,0.75l-0.111-0.288l0.549-8.88l0.85-0.33l6.409,6.179
			l0.111,0.287l-1.93,0.75L44.682,23.99z M41.707,20.869l-0.084,2.367l1.765-0.685L41.707,20.869z"/>
		<path fill="#FF474A" d="M55.689,14.616c1.715-0.058,3.604,0.813,3.997,3.015c-0.721,0.024-1.359,0.046-2.081,0.07
			c-0.325-0.83-0.964-1.187-1.852-1.156c-1.241,0.041-2.026,1.004-1.979,2.375c0.041,1.219,0.881,2.255,2.136,2.225
			c0.898-0.03,1.604-0.504,1.8-1.398c0.71-0.025,1.36-0.046,2.082-0.071c-0.229,2.353-2.054,3.337-3.817,3.398
			c-2.104,0.083-4.281-1.265-4.388-4.08C51.503,16.179,53.584,14.687,55.689,14.616z"/>
		<path fill="#FF474A" d="M61.656,23.15l1.761-8.09c0.693,0.151,1.387,0.302,2.104,0.458l-0.667,3.063l0.15,0.032
			c2.068,0.45,2.302-1.121,2.632-2.635c0.705,0.154,1.41,0.307,2.126,0.463c-0.359,1.652-0.646,3.188-2.476,3.867l1.421,4.038
			l-0.07,0.323l-2.3-0.501l-1.099-3.519c-0.287-0.014-0.541-0.069-0.808-0.127l-0.671,3.085
			C63.043,23.452,62.35,23.301,61.656,23.15z"/>
		<path fill="#FF474A" d="M70.603,25.516l-0.684-0.325l3.562-7.486c0.652,0.31,1.303,0.62,1.955,0.93l-1.743,3.664l5.539-1.896
			l0.694,0.331l-3.573,7.508c-0.651-0.31-1.313-0.625-1.976-0.94l1.749-3.673L70.603,25.516z"/>
		<path fill="#FF474A" d="M78.262,30.662l-1.376-1.086l1.718-2.173l0.66,0.521l6.294-3.383l0.716,0.564L84.51,32.07l0.679,0.536
			l-1.718,2.173l-1.365-1.079l0.565-0.715l-3.845-3.039L78.262,30.662z M80.959,29.234l1.839,1.453l0.918-3.09L80.959,29.234z"/>
		<path fill="#FF474A" d="M84.849,34.992l6.455-5.183c0.444,0.554,0.889,1.107,1.348,1.679l-2.443,1.961l0.096,0.121
			c1.325,1.65,2.494,0.575,3.703-0.395c0.45,0.563,0.903,1.125,1.362,1.697c-1.319,1.059-2.507,2.073-4.357,1.45l-1.433,4.032
			l-0.259,0.208l-1.474-1.835l1.359-3.427c-0.215-0.191-0.378-0.395-0.548-0.607l-2.462,1.977
			C85.737,36.099,85.293,35.545,84.849,34.992z"/>
		<path fill="#FF474A" d="M93.043,46.098l-1.31-2.991l-1.147-0.026l-0.831-1.896l0.281-0.123l8.896,0.171l0.365,0.833l-5.899,6.666
			l-0.282,0.124l-0.83-1.896L93.043,46.098z M96.035,42.991l-2.368,0.019l0.759,1.733L96.035,42.991z"/>
	</g>
	<g>
		<g>
			<path fill="#FF474A" d="M70.058,91.182c-1.379,0.528-2.053,2.056-1.525,3.433c0.409,1.052,1.407,1.699,2.491,1.699
				c0.324,0,0.646-0.059,0.939-0.178c1.376-0.525,2.051-2.052,1.523-3.427C72.958,91.36,71.434,90.655,70.058,91.182z"/>
		</g>
		<g>
			<path fill="#FF474A" d="M77.852,87.051c-1.2,0.851-1.494,2.491-0.673,3.693c0.528,0.733,1.349,1.143,2.198,1.143
				c0.528,0,1.056-0.146,1.523-0.469c1.203-0.851,1.495-2.491,0.675-3.693C80.725,86.526,79.056,86.23,77.852,87.051z"/>
		</g>
		<g>
			<path fill="#FF474A" d="M44.119,91.241c-1.38-0.528-2.902,0.177-3.433,1.555c-0.524,1.376,0.179,2.901,1.556,3.428
				c0.292,0.117,0.616,0.177,0.937,0.177c1.087,0,2.082-0.646,2.492-1.729C46.17,93.294,45.494,91.741,44.119,91.241z"/>
		</g>
		<g>
			<path fill="#FF474A" d="M61.499,93.294c-1.468,0.174-2.491,1.494-2.316,2.961c0.177,1.348,1.32,2.345,2.639,2.345
				c0.118,0,0.204,0,0.321-0.03c1.465-0.174,2.491-1.495,2.316-2.959C64.282,94.172,62.963,93.116,61.499,93.294z"/>
		</g>
		<g>
			<path fill="#FF474A" d="M52.676,93.321L52.676,93.321c-1.466-0.174-2.784,0.882-2.96,2.345c-0.176,1.47,0.879,2.788,2.316,2.934
				c0.117,0,0.205,0.028,0.321,0.028c1.319,0,2.461-0.998,2.638-2.346C55.197,94.819,54.141,93.499,52.676,93.321z"/>
		</g>
		<g>
			<path fill="#FF474A" d="M96.26,54.284c-1.466,0-2.668,1.2-2.668,2.665c0,1.468,1.202,2.669,2.668,2.638
				c1.464,0,2.665-1.2,2.639-2.666C98.925,55.455,97.724,54.284,96.26,54.284z"/>
		</g>
		<g>
			<path fill="#FF474A" d="M95.762,63.749c-1.438-0.35-2.873,0.528-3.225,1.934c-0.352,1.438,0.527,2.874,1.936,3.225
				c0.204,0.061,0.411,0.089,0.644,0.089c1.201,0,2.285-0.819,2.58-2.021C98.075,65.509,97.196,64.103,95.762,63.749z"/>
		</g>
		<g>
			<path fill="#FF474A" d="M84.447,81.19c-0.967,1.082-0.88,2.781,0.234,3.75c0.498,0.438,1.145,0.672,1.759,0.672
				c0.734,0,1.466-0.291,1.992-0.907c0.968-1.112,0.88-2.784-0.232-3.749C87.084,79.988,85.415,80.105,84.447,81.19z"/>
		</g>
		<g>
			<path fill="#FF474A" d="M93.035,72.808c-1.288-0.677-2.901-0.176-3.577,1.113c-0.672,1.289-0.175,2.9,1.115,3.576
				c0.381,0.205,0.82,0.29,1.231,0.29c0.967,0,1.874-0.524,2.345-1.435C94.822,75.093,94.323,73.511,93.035,72.808z"/>
		</g>
		<g>
			<path fill="#FF474A" d="M21.053,72.953c-1.291,0.705-1.787,2.285-1.114,3.606c0.468,0.906,1.406,1.406,2.345,1.406
				c0.408,0,0.849-0.09,1.23-0.293c1.291-0.676,1.787-2.286,1.113-3.578C23.952,72.776,22.371,72.278,21.053,72.953z"/>
		</g>
		<g>
			<path fill="#FF474A" d="M21.491,65.829c-0.353-1.435-1.788-2.285-3.224-1.934c-1.438,0.352-2.286,1.787-1.935,3.225
				c0.292,1.201,1.379,2.024,2.579,2.024c0.206,0,0.438-0.031,0.646-0.091C20.993,68.704,21.87,67.266,21.491,65.829z"/>
		</g>
		<g>
			<path fill="#FF474A" d="M17.769,59.764c1.466,0,2.638-1.202,2.638-2.667c0-0.031,0-0.031,0-0.059c0-0.03,0-0.03,0-0.058
				c0-1.466-1.202-2.669-2.666-2.669c-1.466,0-2.639,1.204-2.639,2.669c0,0.028,0,0.028,0,0.058c0,0.028,0,0.028,0,0.059
				C15.131,58.562,16.303,59.764,17.769,59.764L17.769,59.764z"/>
		</g>
		<g>
			<path fill="#FF474A" d="M25.947,81.101c-1.085,0.967-1.204,2.668-0.207,3.753c0.528,0.586,1.262,0.878,1.994,0.878
				c0.644,0,1.26-0.204,1.758-0.674c1.084-0.965,1.201-2.668,0.206-3.752C28.702,80.223,27.03,80.134,25.947,81.101z"/>
		</g>
		<g>
			<path fill="#FF474A" d="M36.292,87.139c-1.201-0.822-2.873-0.526-3.693,0.675c-0.819,1.201-0.526,2.871,0.675,3.691
				c0.468,0.322,0.998,0.469,1.494,0.469c0.851,0,1.67-0.408,2.199-1.143C37.816,89.632,37.523,87.987,36.292,87.139z"/>
		</g>
	</g>
	<g>
		<path fill="#FF474A" d="M53.651,69.911v3.648H31.761c0.095-1.863,0.38-3.49,0.853-4.879c0.475-1.391,1.209-2.646,2.205-3.768
			c0.994-1.121,1.964-2.045,2.913-2.771c0.947-0.727,2.289-1.627,4.027-2.701c2.716-1.706,4.5-2.985,5.353-3.837
			c1.77-1.736,2.654-3.664,2.654-5.78c0-1.864-0.602-3.388-1.802-4.573s-2.764-1.776-4.688-1.776c-2.308,0-3.957,0.798-4.952,2.393
			c-0.994,1.596-1.524,3.609-1.588,6.041h-4.074v-0.9c0-3.317,0.987-5.985,2.962-8.007c1.973-2.021,4.587-3.032,7.841-3.032
			c3.189,0,5.732,0.884,7.628,2.653s2.843,4.138,2.843,7.106c0,1.264-0.214,2.457-0.639,3.577c-0.428,1.122-0.902,2.062-1.422,2.819
			c-0.521,0.758-1.311,1.563-2.369,2.417s-1.936,1.509-2.63,1.966c-0.694,0.459-1.689,1.082-2.985,1.871
			c-2.589,1.549-4.311,2.748-5.163,3.602c-1.202,1.168-1.975,2.479-2.322,3.932H53.651z"/>
		<path fill="#FF474A" d="M63.256,69.337c-0.324-0.291-0.604-0.627-0.84-1.012c-0.475-0.774-0.869-1.548-1.186-2.322
			c-0.315-0.773-0.536-1.744-0.663-2.914c-0.126-1.168-0.205-2.115-0.236-2.842s-0.048-1.643-0.048-2.749c0-1.137,0-1.95,0-2.44
			c0-0.489,0.048-1.327,0.143-2.511s0.213-2.092,0.355-2.724c0.142-0.632,0.386-1.414,0.735-2.345
			c0.346-0.932,0.756-1.635,1.23-2.108c0.475-0.475,1.089-0.893,1.848-1.256c0.758-0.362,1.627-0.544,2.606-0.544
			c0.979,0,1.848,0.183,2.605,0.544c0.759,0.364,1.375,0.782,1.848,1.256c0.475,0.474,0.884,1.168,1.232,2.084
			c0.348,0.917,0.592,1.69,0.734,2.322c0.142,0.632,0.261,1.532,0.355,2.7c0.094,1.169,0.142,1.99,0.142,2.464
			c0,0.082,0,0.187,0,0.289c0.376-0.035,0.755-0.058,1.14-0.058c1.092,0,2.145,0.157,3.151,0.426
			c-0.022-1.091-0.062-2.085-0.122-2.955c-0.095-1.375-0.362-2.922-0.806-4.644c-0.441-1.721-1.042-3.119-1.8-4.192
			s-1.855-1.982-3.292-2.725c-1.438-0.742-3.168-1.113-5.188-1.113c-1.674,0-3.151,0.237-4.43,0.71
			c-1.279,0.474-2.315,1.169-3.104,2.084c-0.789,0.917-1.438,1.888-1.941,2.914c-0.506,1.027-0.877,2.275-1.113,3.744
			c-0.236,1.468-0.396,2.788-0.475,3.956c-0.078,1.168-0.117,2.543-0.117,4.122c0,1.832,0.062,3.451,0.188,4.856
			c0.126,1.406,0.418,2.891,0.877,4.453c0.457,1.564,1.081,2.852,1.87,3.862c0.79,1.011,1.903,1.855,3.341,2.534
			c0.837,0.396,1.771,0.662,2.785,0.826C64.167,72.64,63.537,71.048,63.256,69.337z"/>
		<g>
			<path fill="#FF474A" d="M74.258,63.738c0,1.036-0.329,2.075-0.899,2.886c-0.605,0.846-1.434,1.244-2.575,1.244
				c-1.571,0-2.504-0.949-2.504-2.539c0-2.365,1.417-4.146,3.283-4.146C73.254,61.183,74.258,62.133,74.258,63.738z M71.562,73.794
				h-1.627l8.919-12.889h1.605L71.562,73.794z M71.596,62.427c-0.38,0-0.724,0.187-0.931,0.516c-0.348,0.52-0.679,1.832-0.679,2.664
				c0,0.638,0.367,1.033,0.938,1.033c0.412,0,0.794-0.257,1.018-0.689c0.312-0.588,0.589-1.764,0.589-2.454
				C72.53,62.821,72.183,62.427,71.596,62.427z M82.239,69.456c0,1.039-0.328,2.074-0.9,2.887c-0.603,0.848-1.432,1.243-2.572,1.243
				c-1.573,0-2.506-0.948-2.506-2.54c0-2.365,1.416-4.146,3.283-4.146C81.236,66.899,82.239,67.851,82.239,69.456z M79.578,68.146
				c-0.382,0-0.724,0.188-0.933,0.52c-0.346,0.516-0.675,1.83-0.675,2.658c0,0.641,0.365,1.037,0.933,1.037
				c0.417,0,0.796-0.26,1.022-0.691c0.308-0.589,0.585-1.762,0.585-2.451C80.511,68.542,80.165,68.146,79.578,68.146z"/>
		</g>
	</g>
</g>
</svg>
