<?xml version="1.0" encoding="utf-8"?>
<!-- Generator: Adobe Illustrator 16.0.0, SVG Export Plug-In . SVG Version: 6.00 Build 0)  -->
<!DOCTYPE svg PUBLIC "-//W3C//DTD SVG 1.1//EN" "http://www.w3.org/Graphics/SVG/1.1/DTD/svg11.dtd">
<svg version="1.1" id="Layer_1" xmlns="http://www.w3.org/2000/svg" xmlns:xlink="http://www.w3.org/1999/xlink" x="0px" y="0px"
	 width="180px" height="180px" viewBox="0 0 180 180" enable-background="new 0 0 180 180" xml:space="preserve">
<path fill="#7C51A1" d="M119.22,19.693H60.78c-4.611,0-8.349,3.738-8.349,8.349v123.917c0,4.611,3.738,8.349,8.349,8.349h58.44
	c4.611,0,8.349-3.737,8.349-8.349V28.042C127.569,23.431,123.832,19.693,119.22,19.693z M81.141,24.999h17.718v3.578H81.141V24.999z
	 M89.999,156.339c-3.513,0-6.364-2.85-6.364-6.365c0-3.514,2.851-6.364,6.364-6.364c3.516,0,6.367,2.851,6.367,6.364
	C96.366,153.49,93.514,156.339,89.999,156.339z M118.258,129.95c0,4.91-3.981,8.89-8.889,8.89H70.632c-4.91,0-8.89-3.979-8.89-8.89
	V40.855c0-4.91,3.98-8.89,8.89-8.89h38.738c4.907,0,8.889,3.98,8.889,8.89V129.95z"/>
<g>
	<path fill="#7C51A1" d="M90,180c-49.626,0-90-40.374-90-90C0,40.374,40.374,0,90,0c49.625,0,90,40.374,90,90
		C180,139.625,139.625,180,90,180z M90,3C42.028,3,3,42.028,3,90s39.028,87,87,87s87-39.027,87-87S137.972,3,90,3z"/>
</g>
</svg>
