<?xml version="1.0" encoding="utf-8"?>
<!-- Generator: Adobe Illustrator 16.0.0, SVG Export Plug-In . SVG Version: 6.00 Build 0)  -->
<!DOCTYPE svg PUBLIC "-//W3C//DTD SVG 1.1//EN" "http://www.w3.org/Graphics/SVG/1.1/DTD/svg11.dtd">
<svg version="1.1" id="Layer_1" xmlns="http://www.w3.org/2000/svg" xmlns:xlink="http://www.w3.org/1999/xlink" x="0px" y="0px"
	 width="180px" height="180px" viewBox="0 0 180 180" enable-background="new 0 0 180 180" xml:space="preserve">
<g>
	<path fill="#7C51A1" d="M90,180c-49.626,0-90-40.374-90-90C0,40.374,40.374,0,90,0c49.625,0,90,40.374,90,90
		C180,139.625,139.625,180,90,180z M90,3C42.028,3,3,42.028,3,90s39.028,87,87,87s87-39.027,87-87S137.972,3,90,3z"/>
</g>
<g>
	<path fill-rule="evenodd" clip-rule="evenodd" fill="#7C51A1" d="M52.161,56.751c-0.018,0.014-0.035,0.029-0.052,0.043
		C52.134,56.838,52.15,56.813,52.161,56.751z"/>
	<path fill-rule="evenodd" clip-rule="evenodd" fill="#7C51A1" d="M126.186,145.606c-8.098-4.116-13.251-1.71-17.955-9.648
		c-4.731-7.821-8.271-16.408-11.925-24.763c-7.925-18.117-13.301-39.127-9.12-58.977c4.997,3.176,5.967,8.813,8.286,13.771
		c2.041,0.066,2.842-1.549,2.403-4.842c5.919,7.861,4.944,13.889,4.039,23.169c12.855-13.408,6.438-27.147-3.929-38.724
		c5.386-0.958,9.626,10.674,13.007,5.236c7.406,3.727,8.471,11.13,9.8,18.48c8.778-7.161,2.866-18.936-1.724-26.163
		c2.932,0.863,5.475,2.377,7.632,4.542c0.593-17.668-26.407-13.676-35.893-11.294c5.704-8.392,15.88-6.703,24.661-6.703
		c1.074-4.014-12.164-8.294-14.935-8.507c2.135-1.116,4.4-1.614,6.799-1.494c-7.275-11.943-18.61,5.241-23.071,9.672
		c-7.224-11.761-17.384-21.052-30.621-8.41c0.702,1.206,14.124,0.963,17.238,3.394c-1.65,1.194-3.505,1.867-5.564,2.018
		c0.104,2.189,7.03,3.007,8.726,5.813c-6.585,0.46-10.842-3.895-18.182-1.634c-8.104,2.497-12.465,8.561-15.216,16.172
		c1.896,0.902,3.635-0.049,5.218-2.854c-2.021,7.989-5.264,16.288-1.913,24.465c1.618-5.213,4.477-9.874,7.525-14.349
		c0.964,0.431,0.852,1.806,0.687,2.773c3.119-2.574,8.316-8.85,12.598-7.63c-3.867,6.903-22.711,14.818-16.422,26.126
		c1.054-1.711,2.868-6.143,5.64-6.323c1.373,9.326,2.701,24.049,13.062,28.31c-1.331-5.004-6.785-20.144,2.518-15.462
		c0.194-4.627-1.346-9.446,1.123-13.784c9.194,10.267,1.867-14.372,8.874-13.073c-0.83-0.154,1.774,35.08,2.554,38.645
		c3.599,16.47,8.079,33.394,14.759,48.899c-5.455,1.082-11.635,3.171-15.365,7.568c-0.409,0.482-4.044,7.646-1.762,7.646
		c6.104,0,12.206,0,18.311,0c13.77,0,27.537,0,41.308,0C138.372,151.126,132.619,146.322,126.186,145.606
		C122.185,143.572,132.987,146.362,126.186,145.606z"/>
</g>
</svg>
