<?xml version="1.0" encoding="utf-8"?>
<!-- Generator: Adobe Illustrator 16.0.0, SVG Export Plug-In . SVG Version: 6.00 Build 0)  -->
<!DOCTYPE svg PUBLIC "-//W3C//DTD SVG 1.1//EN" "http://www.w3.org/Graphics/SVG/1.1/DTD/svg11.dtd">
<svg version="1.1" id="Layer_1" xmlns="http://www.w3.org/2000/svg" xmlns:xlink="http://www.w3.org/1999/xlink" x="0px" y="0px"
	 width="180px" height="180px" viewBox="0 0 180 180" enable-background="new 0 0 180 180" xml:space="preserve">
<path fill="#7C51A1" d="M132.252,25.728H47.748c-4.215,0-7.632,3.417-7.632,7.633V146.64c0,4.215,3.417,7.633,7.632,7.633h84.504
	c4.215,0,7.632-3.418,7.632-7.633V33.361C139.884,29.146,136.468,25.728,132.252,25.728z M81.901,28.488h16.196v2.202H81.901V28.488
	z M89.617,150.493c-2.414,0-4.372-1.956-4.372-4.371c0-2.414,1.958-4.372,4.372-4.372c2.415,0,4.373,1.958,4.373,4.372
	C93.99,148.537,92.031,150.493,89.617,150.493z M134.985,130.051c0,4.895-3.968,8.862-8.861,8.862H53.618
	c-4.895,0-8.862-3.967-8.862-8.862V41.238c0-4.895,3.968-8.862,8.862-8.862h72.507c4.893,0,8.861,3.967,8.861,8.862L134.985,130.051
	L134.985,130.051z"/>
<g>
	<path fill="#7C51A1" d="M90,180c-49.626,0-90-40.374-90-90S40.374,0,90,0c49.625,0,90,40.374,90,90C180,139.625,139.625,180,90,180
		z M90,3C42.027,3,3,42.028,3,90c0,47.973,39.028,87,87,87s87-39.027,87-87C177,42.027,137.973,3,90,3z"/>
</g>
</svg>
