<?xml version="1.0" encoding="utf-8"?>
<!-- Generator: Adobe Illustrator 16.0.0, SVG Export Plug-In . SVG Version: 6.00 Build 0)  -->
<!DOCTYPE svg PUBLIC "-//W3C//DTD SVG 1.1//EN" "http://www.w3.org/Graphics/SVG/1.1/DTD/svg11.dtd">
<svg version="1.1" id="Layer_1" xmlns="http://www.w3.org/2000/svg" xmlns:xlink="http://www.w3.org/1999/xlink" x="0px" y="0px"
	 width="180px" height="180px" viewBox="0 0 180 180" enable-background="new 0 0 180 180" xml:space="preserve">
<g>
	<path fill="#7C51A1" d="M90,180c-49.626,0-90-40.374-90-90C0,40.374,40.374,0,90,0s90,40.374,90,90C180,139.625,139.625,180,90,180
		z M90,3C42.027,3,3,42.028,3,90s39.028,87,87,87c47.973,0,87-39.027,87-87S137.972,3,90,3z"/>
</g>
<path fill-rule="evenodd" clip-rule="evenodd" fill="#7C51A1" d="M116.558,38.192c-16.232,0-24.473,11.656-26.558,15.11
	c-2.086-3.454-10.326-15.11-26.56-15.11c-21.482,0-39.046,16.023-31.935,48.445c4.717,21.512,52.857,51.698,58.494,55.169v0.001
	c0,0,0,0,0,0l0,0v-0.001c5.637-3.471,53.776-33.657,58.494-55.169C155.604,54.215,138.041,38.192,116.558,38.192z"/>
</svg>
