<svg xmlns="http://www.w3.org/2000/svg" width="154" height="154" viewBox="0 0 154 154"><circle fill="#9A70DB" cx="77" cy="77" r="77"/><path d="M46.781 37.813l-2.755 2.428-7.098-8.053-3.25 2.865 7.097 8.054-2.755 2.427-9.285-10.537 8.76-7.72 9.286 10.536zm5.629-15.254l-4.63 2.359.902 1.771 4.255-2.168 1.448 2.842-4.255 2.168 1.12 2.199 4.791-2.441 1.448 2.842c-2.931 1.495-5.076 2.587-7.972 4.063L43.14 23.68l7.812-3.98c.475.928.967 1.894 1.458 2.859zm7.634 8.579l-3.199-13.68 6.02-1.408c6.551-1.512 8.929 8.651 2.381 10.183l-2.521.59.818 3.498-3.499.817zm3.532-11.957c-.825.173-1.701.398-2.502.585l.914 3.908 2.501-.585c1.916-.447 1.124-4.363-.913-3.908zm10.793-5.182l3.658.335-.979 10.693 3.377.31.98-10.694 3.657.335-.979 10.693 3.378.31.979-10.694 3.658.335-1.282 13.991-17.728-1.623 1.281-13.991zm20.322 17.405l-1.166-.538 5.892-12.773 3.334 1.538-2.882 6.25 9.357-3.33 1.185.546-5.908 12.81-3.371-1.555 2.892-6.268-9.333 3.32zm13.447 7.124l-.966-.846 9.26-10.585 2.765 2.417-4.532 5.179 9.917-.548.981.859-9.287 10.615a6128.69 6128.69 0 0 0-2.794-2.444l4.545-5.195-9.889.548zm15.053-11.356a34.748 34.748 0 0 0-1.688-1.209c-1.435 1.73-1.262 3.454.368 4.881 1.677 1.466 3.361 1.368 4.902-.27-.461-.51-.922-1.02-1.424-1.512-.646.555-1.225.395-1.844-.147-.633-.556-.757-1.144-.314-1.743zm-94.88 89.284l12.145-11.055 2.874 3.158-4.597 4.185.205.226c2.826 3.105 5.009.833 7.282-1.236l2.905 3.193c-2.48 2.258-4.708 4.412-8.447 3.406l-2.343 8.16-.485.442-3.143-3.452 2.27-6.952c-.448-.353-.796-.735-1.159-1.134l-4.633 4.217-2.874-3.158zm15.528 14.689l7.626-14.548 6.401 3.355c6.951 3.671 1.286 14.478-5.676 10.828l-2.682-1.406-1.95 3.721c-1.246-.655-2.493-1.308-3.719-1.95zm12.264-7.878c-.862-.479-1.809-.947-2.66-1.395l-2.18 4.156 2.66 1.395c2.037 1.068 4.33-3.002 2.18-4.156zm18.938 5.123l-6.007-.934-.357 2.297 5.521.857-.572 3.688-5.521-.857-.442 2.854 6.216.965-.573 3.688-10.344-1.606 2.521-16.235 10.136 1.574a1702.5 1702.5 0 0 0-.578 3.709zm8.221 14.187l-3.422.598-.945-5.409 1.641-.287 3.309-13.777 1.779-.312 7.974 11.805 1.688-.295.946 5.408-3.398.596-.312-1.781-9.57 1.674.31 1.78zm1.45-5.877l4.577-.801-3.358-5.439-1.219 6.24zm19.226-1.767l-1.282.783-8.568-14.045 3.667-2.236 4.192 6.871 2.863-11.258 1.302-.795 8.593 14.084-3.707 2.262-4.204-6.893-2.856 11.227zm6.381-19.537l-2.9-2.383 7.744-9.426c.961.789 1.922 1.578 2.9 2.383l-2.547 3.1 9.789 8.042c-.879 1.069-1.757 2.14-2.636 3.208l-9.789-8.041-2.561 3.117zM125.146 44.8l2.751 2.281-.189-3.568 2.035.14-.582 3.502 2.961-1.93.903 1.796-3.322 1.213 3.165 1.633-1.103 1.717-2.757-2.292.196 3.581-2.036-.14.576-3.515-2.955 1.943-.903-1.795 3.315-1.226-3.158-1.622 1.103-1.718zm3.936 50.629l-.211 3.567 2.766-2.265 1.091 1.725-3.168 1.602 3.309 1.246-.914 1.79-2.943-1.96.556 3.518-2.037.127.218-3.58-2.771 2.278-1.091-1.725 3.173-1.614-3.314-1.233.913-1.79 2.951 1.947-.563-3.506 2.035-.127zm-99.458 8.797l-2.799-2.224.267 3.564-2.038-.097.506-3.513-2.918 1.993-.94-1.777 3.294-1.283-3.199-1.565 1.065-1.741 2.806 2.235-.273-3.577 2.039.097-.5 3.526 2.913-2.006.94 1.775-3.289 1.297 3.192 1.553-1.066 1.743zM22.64 88.199l-1.979-2.974-.845 3.471-1.909-.717 1.564-3.187-3.393.996-.348-1.978 3.53-.209-2.563-2.475 1.551-1.328 1.98 2.989.841-3.485 1.911.717-1.563 3.201 3.389-1.012.35 1.979-3.528.222 2.56 2.459-1.548 1.331zM20.909 70.82l-.975-3.438-1.866 3.047-1.598-1.27 2.465-2.554-3.534-.089.274-1.991 3.423.884-1.678-3.139 1.881-.792.972 3.454 1.869-3.063 1.598 1.272-2.467 2.567 3.535.074-.275 1.991-3.425-.868 1.683 3.125-1.882.79zm3.69-17.112l.134-3.571-2.716 2.325-1.129-1.701 3.132-1.67-3.333-1.174.873-1.809 2.986 1.895-.633-3.504 2.034-.172-.139 3.584 2.721-2.337 1.128 1.7-3.138 1.684 3.34 1.161-.874 1.81-2.99-1.883.637 3.492-2.033.17zm76.823 15.229c.059 1.146.091 2.416.091 3.806v8.517c0 1.391-.032 2.659-.091 3.806-.182 3.505-.711 6.752-1.586 9.742-.877 2.991-2.267 5.589-4.17 7.792-1.901 2.207-4.38 3.929-7.429 5.166-3.053 1.238-6.783 1.857-11.192 1.857-4.471 0-8.216-.619-11.235-1.857-3.021-1.237-5.482-2.959-7.387-5.166-1.901-2.203-3.294-4.801-4.167-7.792-.877-2.99-1.403-6.237-1.588-9.742-.12-2.295-.181-4.907-.181-7.838 0-2.93.061-5.542.181-7.84.185-3.5.711-6.779 1.588-9.831.873-3.05 2.266-5.69 4.167-7.928 1.904-2.234 4.365-4.001 7.387-5.302 3.02-1.297 6.765-1.947 11.235-1.947 4.409 0 8.14.622 11.192 1.856 3.049 1.241 5.527 2.961 7.429 5.167 1.903 2.206 3.293 4.801 4.17 7.793.875 2.99 1.404 6.237 1.586 9.741zM64.903 84.614c.302 4.348 1.342 7.714 3.125 10.104 1.783 2.385 4.787 3.578 9.017 3.578s7.233-1.193 9.017-3.578c1.782-2.39 2.822-5.756 3.127-10.104.119-2.297.181-4.833.181-7.613 0-2.778-.062-5.316-.181-7.615-.305-4.346-1.345-7.714-3.127-10.101-1.783-2.388-4.787-3.578-9.017-3.578s-7.233 1.19-9.017 3.578c-1.783 2.387-2.823 5.755-3.125 10.101a143.574 143.574 0 0 0-.182 7.615c.001 2.78.059 5.316.182 7.613zm56.243-17.428v3.194c0 1.536-.568 2.706-1.708 3.496-1.14.793-2.659 1.189-4.558 1.189-1.897 0-3.422-.396-4.572-1.189-1.153-.79-1.729-1.969-1.729-3.529v-3.125c0-1.564.588-2.741 1.763-3.535 1.175-.792 2.682-1.188 4.522-1.188 1.838 0 3.346.403 4.52 1.205 1.176.805 1.762 1.965 1.762 3.482zm9.326-4.652h2.991c.57 0 .854.263.854.786a.606.606 0 0 1-.141.39l-17.231 23.068c-.332.451-.76.675-1.281.675h-2.991c-.567 0-.853-.253-.853-.769 0-.139.046-.27.141-.39L129.19 63.21c.332-.451.76-.676 1.282-.676zm-16.765 4.718v2.992c0 .298.111.551.336.764.226.214.505.317.837.317.333 0 .612-.104.839-.317.225-.213.338-.466.338-.764v-2.992a.968.968 0 0 0-.338-.75 1.224 1.224 0 0 0-.839-.302c-.332 0-.611.108-.837.319-.225.214-.336.457-.336.733zm23.813 11.979v3.346c0 1.613-.567 2.838-1.708 3.666-1.14.832-2.658 1.245-4.557 1.245s-3.423-.413-4.573-1.245c-1.152-.828-1.726-2.066-1.726-3.705v-3.273c0-1.637.586-2.869 1.761-3.702 1.176-.829 2.682-1.246 4.521-1.246 1.84 0 3.346.423 4.521 1.264 1.174.844 1.761 2.059 1.761 3.65zm-7.437-.038v3.345c0 .338.111.619.337.858.226.235.504.354.835.354.334 0 .612-.119.838-.354a1.2 1.2 0 0 0 .337-.858v-3.345c0-.331-.112-.609-.337-.835a1.14 1.14 0 0 0-.838-.338 1.11 1.11 0 0 0-.835.355 1.158 1.158 0 0 0-.337.818z" fill="#FFF"/></svg>