<svg xmlns="http://www.w3.org/2000/svg" width="122" height="122.003" viewBox="0 0 122 122.003"><path fill="#EDE8D6" d="M120.569 44.085L63.143.718a3.558 3.558 0 0 0-4.286 0L1.431 44.085A3.573 3.573 0 0 0 0 46.943v71.485l3.574 3.574h114.852l3.574-3.574V46.943a3.574 3.574 0 0 0-1.431-2.858z"/><path fill="#FFF" d="M96.743 104.131H25.258a3.572 3.572 0 0 1-3.575-3.574V18.351a3.572 3.572 0 0 1 3.575-3.575h71.484a3.572 3.572 0 0 1 3.574 3.575v82.206a3.57 3.57 0 0 1-3.573 3.574z"/><path fill="#CECBC0" d="M121.133 120.691L76.37 83.544 61 96.983 45.631 83.544.853 120.67c.655.796 1.609 1.333 2.721 1.333h114.852c1.104 0 2.051-.527 2.707-1.312z"/><path fill="#DDDAD4" d="M121.133 120.691c.518-.62.867-1.39.867-2.263V46.943c0-.872-.396-1.65-.961-2.296L76.37 83.544l44.763 37.147zM.943 44.67C.39 45.312 0 46.08 0 46.943v71.485c0 .863.344 1.623.853 2.24l44.778-37.125L.943 44.67z"/><path fill="#CECBC0" d="M118.426 122.003c1.104 0 2.051-.527 2.707-1.313L76.37 83.544 61 96.983v25.02h57.426z"/><path fill="#F05228" d="M78.469 38.637c-5.886-7.641-17.468-3.133-17.468 4.627 0-7.76-11.583-12.269-17.47-4.627-6.083 7.899-.087 21.738 17.47 29.688 17.556-7.95 23.552-21.789 17.468-29.688z"/></svg>