<?xml version="1.0" encoding="utf-8"?>
<!-- Generator: Adobe Illustrator 16.0.0, SVG Export Plug-In . SVG Version: 6.00 Build 0)  -->
<!DOCTYPE svg PUBLIC "-//W3C//DTD SVG 1.1//EN" "http://www.w3.org/Graphics/SVG/1.1/DTD/svg11.dtd">
<svg version="1.1" id="Слой_1" xmlns="http://www.w3.org/2000/svg" xmlns:xlink="http://www.w3.org/1999/xlink" x="0px" y="0px"
	 width="57.247px" height="45px" viewBox="0 0 57.247 45" enable-background="new 0 0 57.247 45" xml:space="preserve">
<g>
	<g>
		<path fill="#58774E" d="M33.126,12.305c-0.182,0.016-0.385,0.028-0.609,0.034c-0.435,0.011-0.942-0.009-1.499-0.085
			c-0.189-0.025-0.384-0.059-0.584-0.099c-0.458-0.093-0.939-0.229-1.432-0.419c-0.183-0.072-0.368-0.153-0.555-0.241
			c-0.452-0.214-0.907-0.479-1.354-0.807c-0.053-0.038-0.104-0.069-0.156-0.109c-0.127-0.098-0.246-0.193-0.368-0.288
			c-0.467-0.368-0.902-0.725-1.305-1.06c-0.177-0.148-0.35-0.292-0.517-0.431c-0.473-0.393-0.903-0.748-1.308-1.046
			c-0.183-0.134-0.358-0.253-0.531-0.363c-0.489-0.313-0.946-0.524-1.397-0.593c-0.201-0.03-0.4-0.032-0.602-0.004
			c-0.259,0.036-0.519,0.119-0.787,0.264c-0.461,0.25-0.764,0.553-0.954,0.875c-0.241,0.406-0.299,0.842-0.247,1.243
			c0.083,0.642,0.44,1.193,0.761,1.375c0,0-0.477-0.044-1.06,0.132c-0.212,0.064-0.438,0.16-0.661,0.294
			c-0.549,0.333-1.078,0.915-1.322,1.945c0,0-0.087,0.793,0.57,1.835c0.129,0.204,0.286,0.415,0.478,0.633
			c0.317,0.364,0.727,0.741,1.265,1.117c0.008,0.006,0.018,0.01,0.025,0.016c0.16,0.11,0.342,0.212,0.542,0.307
			c0.403,0.19,0.885,0.347,1.424,0.462c0.187,0.041,0.382,0.074,0.582,0.104c0.466,0.068,0.966,0.109,1.492,0.114
			c0.198,0.002,0.399,0.001,0.604-0.006c0.499-0.018,1.016-0.066,1.544-0.146c0.207-0.031,0.415-0.069,0.625-0.112
			c0.526-0.105,1.061-0.242,1.599-0.417c0.215-0.07,0.431-0.147,0.648-0.229c0.559-0.213,1.117-0.466,1.666-0.764
			c0.229-0.124,0.455-0.255,0.681-0.396c0.611-0.378,1.207-0.813,1.777-1.313c0.253-0.222,0.501-0.459,0.742-0.708
			c0.375-0.383,0.736-0.792,1.078-1.239C33.982,12.181,33.658,12.257,33.126,12.305z"/>
		<g>
			<g>
				<path fill="#362918" d="M33.597,42.837c-0.099,0.034-0.214,0.023-0.308-0.042c-0.156-0.107-0.195-0.322-0.088-0.479l2.022-2.926
					l-0.747-5.549c-0.025-0.188,0.109-0.363,0.294-0.387c0.188-0.024,0.362,0.107,0.387,0.295l0.766,5.68
					c0.012,0.086-0.009,0.172-0.058,0.242l-2.099,3.036C33.724,42.771,33.665,42.814,33.597,42.837z"/>
			</g>
			<g>
				<path fill="#362918" d="M36.305,43.35c-0.019,0.007-0.036,0.012-0.057,0.016c-0.186,0.031-0.364-0.094-0.396-0.281l-0.608-3.55
					c-0.031-0.187,0.094-0.366,0.28-0.397c0.188-0.031,0.365,0.094,0.397,0.281l0.608,3.551
					C36.559,43.136,36.46,43.296,36.305,43.35z"/>
			</g>
			<g>
				<path fill="#362918" d="M38.739,41.762c-0.1,0.035-0.217,0.023-0.312-0.044l-3.043-1.962c-0.155-0.109-0.192-0.323-0.081-0.479
					c0.108-0.154,0.323-0.191,0.479-0.082l3.043,1.961c0.154,0.11,0.191,0.324,0.082,0.479
					C38.864,41.696,38.804,41.739,38.739,41.762z"/>
			</g>
		</g>
		<path fill="#7A516D" d="M54.261,12.344c0,0,0.058-7.45-7.964-11.117C38.274-2.439,29.26,2.617,26.414,9.65
			c-1.352,3.34-2.595,5.922-3.889,7.983c0.386,2.24,3.653,3.222,5.854,0.893c-0.516,1.719-1.72,4.642-0.172,6.188
			c1.547,1.719,4.984,1.031,6.532-0.344c-0.688,4.298,4.813,5.845,6.876,2.063c-0.516,4.298,5.501,4.126,6.36,0.344
			c-0.195,1.43,0.471,2.244,1.447,2.566c1.345-1.566,2.427-3.331,3.178-5.254C55.274,17.249,54.261,12.344,54.261,12.344z"/>
		<path fill="#EAAC52" d="M54.038,11.026l3.209,1.375l-2.979,1.833C54.267,14.234,52.663,12.63,54.038,11.026z"/>
		<circle fill="#181400" cx="47.586" cy="8.91" r="1.424"/>
		<path fill="#DDD54B" d="M20.777,5.208c0.902-0.838,1.79-1.059,2.535-1.025c0.304,0.014,0.584,0.067,0.83,0.142
			c0.678,0.208,1.109,0.558,1.109,0.558c-0.192-0.383-0.18-1.146,0.155-1.821c0.209-0.421,0.545-0.805,1.042-1.042
			c0.392-0.188,0.88-0.286,1.487-0.229c0.354,0.033,0.658,0.121,0.931,0.253c0.213,0.103,0.405,0.234,0.58,0.394
			c0.391,0.358,0.697,0.857,0.967,1.477c0.097,0.218,0.189,0.446,0.278,0.694c0.198,0.55,0.386,1.172,0.589,1.857
			c0.07,0.243,0.145,0.493,0.221,0.751c0.173,0.583,0.362,1.21,0.577,1.867c0.056,0.172,0.109,0.341,0.169,0.517
			c0.024,0.072,0.055,0.136,0.08,0.206c0.222,0.606,0.489,1.156,0.788,1.656c0.124,0.206,0.25,0.403,0.382,0.592
			c0.353,0.501,0.729,0.944,1.113,1.331c0.167,0.167,0.333,0.325,0.5,0.473c0.488,0.433,0.967,0.78,1.394,1.051
			c0.222,0.141,0.426,0.261,0.611,0.361c0.545,0.297,0.908,0.433,0.908,0.433c-0.62,0.211-1.233,0.373-1.843,0.501
			c-0.396,0.083-0.787,0.153-1.177,0.204c-0.874,0.115-1.73,0.15-2.565,0.121c-0.308-0.011-0.612-0.03-0.914-0.059
			c-0.724-0.067-1.427-0.183-2.104-0.338c-0.263-0.061-0.521-0.125-0.775-0.197c-0.632-0.178-1.237-0.391-1.815-0.63
			c-0.229-0.095-0.456-0.193-0.676-0.296c-0.563-0.264-1.095-0.552-1.588-0.856c-0.203-0.125-0.398-0.254-0.588-0.384
			c-0.506-0.346-0.962-0.708-1.37-1.076c-0.174-0.158-0.341-0.317-0.495-0.476c-0.446-0.46-0.811-0.922-1.077-1.367
			c-0.133-0.221-0.242-0.437-0.326-0.647c-0.004-0.01-0.01-0.021-0.015-0.031c-0.277-0.712-0.428-1.341-0.5-1.898
			c-0.044-0.334-0.06-0.641-0.052-0.92C20.18,5.918,20.777,5.208,20.777,5.208z"/>
		<g>
			<g>
				<path fill="#362918" d="M26.257,43.624c-0.105,0-0.21-0.048-0.277-0.141c-0.112-0.153-0.078-0.368,0.074-0.481l2.873-2.098
					l1.119-5.485c0.038-0.187,0.223-0.307,0.405-0.269c0.186,0.039,0.307,0.221,0.269,0.406l-1.146,5.615
					c-0.018,0.084-0.064,0.158-0.135,0.209l-2.979,2.178C26.399,43.603,26.328,43.624,26.257,43.624z"/>
			</g>
			<g>
				<path fill="#362918" d="M28.645,45c-0.019,0-0.038-0.002-0.057-0.006c-0.188-0.031-0.314-0.208-0.283-0.396l0.594-3.552
					c0.031-0.188,0.209-0.316,0.395-0.283c0.188,0.031,0.314,0.209,0.283,0.396l-0.593,3.553C28.956,44.88,28.81,45,28.645,45z"/>
			</g>
			<g>
				<path fill="#362918" d="M31.036,43.969c-0.106,0-0.213-0.051-0.28-0.145l-1.798-2.521c-0.11-0.154-0.074-0.369,0.081-0.48
					c0.153-0.108,0.368-0.073,0.479,0.081l1.799,2.521c0.11,0.155,0.074,0.37-0.08,0.48C31.175,43.947,31.105,43.969,31.036,43.969z
					"/>
			</g>
		</g>
		<path fill="#C8607D" d="M13.579,25.107c-0.431-2.836-2.32-8.509-5.587-9.369c-1.375-0.343-2.321,0.43-2.234,1.891
			c0.085,1.29,1.289,2.235,2.148,3.008C6.101,19.349,1.03,18.06,0.17,20.896c-0.86,2.493,1.719,3.352,3.695,3.438
			c-1.719,0.602-3.352,2.492-2.148,4.384c1.117,1.719,3.782,1.031,5.501,0.516C9.796,28.288,11.429,26.654,13.579,25.107z"/>
	</g>
	<path fill="#C87DB2" d="M23.977,31.881c-2.601,0-7.306-1.798-4.055-5.049c-1.676-0.359-3.207-1.87-2.927-3.486
		c-1.031,0.638-2.157,1.177-3.417,1.662c0,0,3.011,7.432,11.051,10.479C22.925,34.61,21.863,33.352,23.977,31.881z"/>
	<path fill="#956087" d="M49.422,29.344c-0.977-0.322-1.643-1.137-1.447-2.566c-0.859,3.782-6.876,3.954-6.36-0.344
		c-2.063,3.782-7.564,2.235-6.876-2.063c-1.548,1.375-4.985,2.063-6.532,0.344c-1.548-1.547-0.344-4.47,0.172-6.188
		c-2.2,2.329-5.468,1.347-5.854-0.893c-0.792,1.261-1.604,2.321-2.473,3.232c0.503,1.67,2.938,2.8,4.877,2.281
		c-3.942,3.495,1.604,6.023,4.944,5.847c-3.414,3.931,2.202,6.161,5.078,3.206c-1.21,4.594,3.517,3.162,5.788,1.484
		c-0.244,0.652-0.231,1.189-0.054,1.645C44.134,34.043,47.156,31.982,49.422,29.344z"/>
	<path fill="#B069A0" d="M40.74,33.684c-2.271,1.678-6.998,3.109-5.788-1.484c-2.876,2.955-8.492,0.725-5.078-3.206
		c-3.34,0.177-8.887-2.352-4.944-5.847c-1.939,0.52-4.374-0.61-4.877-2.281c-0.937,0.983-1.94,1.791-3.057,2.48
		c-0.28,1.616,1.251,3.127,2.927,3.486c-3.251,3.251,1.454,5.049,4.055,5.049c-2.114,1.471-1.052,2.729,0.652,3.605
		c1.109,0.42,2.312,0.759,3.618,0.98c4.386,0.747,8.668,0.269,12.438-1.139C40.508,34.873,40.496,34.336,40.74,33.684z"/>
</g>
</svg>
