<?xml version="1.0" encoding="utf-8"?>
<!-- Generator: Adobe Illustrator 16.0.0, SVG Export Plug-In . SVG Version: 6.00 Build 0)  -->
<!DOCTYPE svg PUBLIC "-//W3C//DTD SVG 1.1//EN" "http://www.w3.org/Graphics/SVG/1.1/DTD/svg11.dtd">
<svg version="1.1" id="Слой_1" xmlns="http://www.w3.org/2000/svg" xmlns:xlink="http://www.w3.org/1999/xlink" x="0px" y="0px"
	 width="57.246px" height="45px" viewBox="0 0 57.246 45" enable-background="new 0 0 57.246 45" xml:space="preserve">
<g>
	<g>
		<path fill="#669DB9" d="M24.12,12.305c0.182,0.017,0.385,0.028,0.61,0.034c0.435,0.011,0.942-0.009,1.498-0.085
			c0.19-0.025,0.384-0.059,0.584-0.099c0.459-0.093,0.94-0.229,1.432-0.419c0.183-0.072,0.368-0.153,0.555-0.24
			c0.452-0.214,0.907-0.479,1.354-0.807c0.053-0.038,0.104-0.069,0.156-0.108c0.127-0.099,0.246-0.193,0.369-0.289
			c0.467-0.368,0.901-0.725,1.304-1.059c0.178-0.148,0.35-0.292,0.517-0.431c0.473-0.393,0.903-0.748,1.308-1.046
			c0.183-0.135,0.358-0.254,0.531-0.364c0.489-0.313,0.947-0.524,1.397-0.593c0.201-0.03,0.401-0.032,0.602-0.004
			c0.26,0.036,0.519,0.119,0.787,0.264c0.461,0.25,0.764,0.553,0.954,0.874c0.242,0.406,0.299,0.842,0.247,1.243
			c-0.083,0.642-0.44,1.193-0.76,1.376c0,0,0.476-0.044,1.059,0.132c0.212,0.063,0.439,0.16,0.661,0.294
			c0.549,0.333,1.079,0.915,1.322,1.944c0,0,0.088,0.793-0.57,1.836c-0.129,0.204-0.286,0.415-0.478,0.633
			c-0.317,0.364-0.728,0.742-1.265,1.118c-0.008,0.005-0.018,0.01-0.025,0.016c-0.16,0.11-0.342,0.211-0.541,0.306
			c-0.404,0.19-0.886,0.347-1.425,0.463c-0.187,0.04-0.381,0.074-0.581,0.103c-0.467,0.068-0.967,0.109-1.493,0.115
			c-0.198,0.002-0.399,0-0.604-0.007c-0.5-0.018-1.017-0.066-1.545-0.146c-0.207-0.032-0.415-0.07-0.625-0.112
			c-0.527-0.105-1.061-0.243-1.598-0.417c-0.217-0.07-0.432-0.147-0.648-0.229c-0.56-0.213-1.117-0.467-1.667-0.764
			c-0.229-0.124-0.455-0.255-0.681-0.395c-0.611-0.378-1.207-0.813-1.777-1.313c-0.253-0.222-0.5-0.459-0.742-0.708
			c-0.374-0.383-0.736-0.792-1.078-1.239C23.265,12.181,23.589,12.257,24.12,12.305z"/>
		<g>
			<g>
				<path fill="#362918" d="M23.649,42.837c0.099,0.034,0.214,0.023,0.309-0.042c0.156-0.108,0.194-0.322,0.087-0.479l-2.022-2.927
					l0.747-5.548c0.025-0.188-0.108-0.362-0.294-0.387c-0.188-0.025-0.361,0.107-0.387,0.295l-0.766,5.68
					c-0.012,0.085,0.01,0.171,0.059,0.242l2.098,3.035C23.522,42.77,23.582,42.814,23.649,42.837z"/>
			</g>
			<g>
				<path fill="#362918" d="M20.942,43.351c0.018,0.005,0.035,0.011,0.055,0.014c0.188,0.032,0.365-0.093,0.397-0.28l0.608-3.551
					c0.031-0.187-0.094-0.367-0.28-0.396c-0.188-0.032-0.365,0.093-0.397,0.281l-0.608,3.549
					C20.688,43.135,20.787,43.296,20.942,43.351z"/>
			</g>
			<g>
				<path fill="#362918" d="M18.508,41.762c0.101,0.035,0.217,0.023,0.312-0.045l3.043-1.961c0.155-0.109,0.192-0.322,0.082-0.479
					c-0.109-0.154-0.323-0.191-0.479-0.082l-3.043,1.961c-0.154,0.11-0.191,0.324-0.081,0.479
					C18.383,41.696,18.442,41.739,18.508,41.762z"/>
			</g>
		</g>
		<path fill="#C8617F" d="M2.985,12.344c0,0-0.058-7.45,7.965-11.116c8.022-3.667,17.037,1.39,19.883,8.423
			c1.352,3.34,2.595,5.922,3.889,7.983c-0.386,2.239-3.653,3.222-5.853,0.893c0.516,1.719,1.719,4.642,0.171,6.188
			c-1.547,1.719-4.984,1.031-6.532-0.344c0.688,4.297-4.813,5.845-6.875,2.063c0.516,4.299-5.501,4.127-6.36,0.344
			c0.194,1.43-0.472,2.244-1.448,2.566c-1.345-1.566-2.427-3.331-3.178-5.253C1.974,17.249,2.985,12.344,2.985,12.344z"/>
		<path fill="#EAAC52" d="M3.209,11.026L0,12.401l2.979,1.834C2.979,14.235,4.584,12.631,3.209,11.026z"/>
		<circle fill="#181400" cx="9.66" cy="8.91" r="1.424"/>
		<path fill="#8EA256" d="M36.47,5.209c-0.902-0.838-1.79-1.059-2.535-1.025c-0.303,0.014-0.584,0.067-0.83,0.142
			c-0.678,0.208-1.109,0.558-1.109,0.558c0.192-0.384,0.18-1.147-0.154-1.821c-0.21-0.421-0.547-0.805-1.043-1.042
			c-0.392-0.188-0.88-0.286-1.487-0.228c-0.354,0.033-0.658,0.121-0.931,0.253c-0.213,0.103-0.405,0.234-0.58,0.393
			c-0.391,0.358-0.696,0.857-0.967,1.477c-0.097,0.218-0.189,0.446-0.278,0.694c-0.198,0.55-0.386,1.172-0.589,1.856
			c-0.07,0.243-0.145,0.493-0.22,0.751c-0.173,0.583-0.363,1.209-0.577,1.867c-0.056,0.171-0.11,0.341-0.17,0.517
			c-0.024,0.072-0.055,0.136-0.08,0.206c-0.222,0.606-0.489,1.156-0.788,1.656c-0.124,0.205-0.25,0.403-0.382,0.591
			c-0.352,0.502-0.729,0.944-1.113,1.331c-0.166,0.167-0.333,0.325-0.499,0.472c-0.489,0.433-0.968,0.781-1.395,1.052
			c-0.221,0.14-0.426,0.26-0.611,0.361c-0.545,0.297-0.908,0.433-0.908,0.433c0.62,0.21,1.233,0.373,1.843,0.501
			c0.396,0.083,0.787,0.153,1.177,0.204c0.874,0.115,1.73,0.15,2.565,0.121c0.308-0.011,0.612-0.03,0.914-0.058
			c0.724-0.067,1.426-0.183,2.104-0.338c0.263-0.061,0.521-0.125,0.775-0.197c0.633-0.178,1.237-0.391,1.815-0.629
			c0.229-0.095,0.456-0.193,0.676-0.296c0.563-0.264,1.095-0.552,1.588-0.857c0.203-0.125,0.398-0.254,0.588-0.384
			c0.506-0.346,0.963-0.708,1.369-1.076c0.175-0.158,0.342-0.317,0.496-0.476c0.446-0.46,0.811-0.922,1.077-1.367
			c0.133-0.221,0.242-0.437,0.326-0.647c0.004-0.01,0.01-0.021,0.015-0.031c0.277-0.711,0.428-1.341,0.501-1.898
			c0.043-0.335,0.059-0.641,0.051-0.921C37.066,5.919,36.47,5.209,36.47,5.209z"/>
		<g>
			<g>
				<path fill="#362918" d="M30.989,43.625c0.105,0,0.21-0.049,0.277-0.141c0.112-0.153,0.078-0.368-0.075-0.481l-2.872-2.1
					L27.2,35.419c-0.039-0.187-0.223-0.307-0.405-0.269c-0.186,0.038-0.306,0.221-0.269,0.405l1.146,5.616
					c0.018,0.084,0.065,0.158,0.135,0.208l2.979,2.177C30.848,43.603,30.919,43.625,30.989,43.625z"/>
			</g>
			<g>
				<path fill="#362918" d="M28.602,45c0.019,0,0.038-0.002,0.057-0.006c0.188-0.031,0.314-0.209,0.283-0.396l-0.593-3.554
					c-0.032-0.186-0.209-0.314-0.396-0.281c-0.188,0.031-0.314,0.208-0.283,0.396l0.593,3.553C28.291,44.88,28.437,45,28.602,45z"/>
			</g>
			<g>
				<path fill="#362918" d="M26.211,43.968c0.106,0,0.213-0.05,0.279-0.144l1.799-2.522c0.11-0.153,0.074-0.368-0.08-0.479
					c-0.154-0.109-0.369-0.074-0.48,0.08l-1.798,2.521c-0.11,0.154-0.074,0.369,0.081,0.48
					C26.072,43.947,26.142,43.968,26.211,43.968z"/>
			</g>
		</g>
		<path fill="#E5AD46" d="M43.668,25.108c0.43-2.837,2.321-8.509,5.587-9.369c1.375-0.344,2.321,0.43,2.234,1.891
			c-0.086,1.29-1.289,2.235-2.148,3.008c1.805-1.289,6.875-2.579,7.735,0.258c0.86,2.493-1.719,3.352-3.695,3.438
			c1.719,0.602,3.352,2.492,2.148,4.383c-1.117,1.719-3.782,1.031-5.501,0.516C47.45,28.288,45.816,26.655,43.668,25.108z"/>
	</g>
	<path fill="#DD9CC2" d="M33.27,31.881c2.601,0,7.306-1.799,4.055-5.049c1.676-0.359,3.206-1.87,2.928-3.486
		c1.029,0.638,2.156,1.176,3.416,1.662c0,0-3.011,7.432-11.051,10.478C34.321,34.61,35.384,33.35,33.27,31.881z"/>
	<path fill="#CF6D94" d="M7.824,29.344c0.977-0.322,1.643-1.137,1.448-2.566c0.859,3.783,6.876,3.955,6.36-0.344
		c2.063,3.782,7.563,2.234,6.875-2.063c1.548,1.375,4.985,2.063,6.532,0.344c1.548-1.547,0.345-4.469-0.171-6.188
		c2.199,2.329,5.467,1.346,5.853-0.893c0.792,1.261,1.604,2.321,2.473,3.232c-0.503,1.67-2.938,2.799-4.877,2.28
		c3.943,3.495-1.604,6.024-4.944,5.847c3.414,3.932-2.202,6.161-5.078,3.207c1.211,4.594-3.517,3.162-5.787,1.483
		c0.243,0.651,0.231,1.19,0.052,1.646C13.113,34.043,10.091,31.984,7.824,29.344z"/>
	<path fill="#D37DA8" d="M16.508,33.683c2.271,1.679,6.998,3.11,5.787-1.483c2.876,2.954,8.492,0.725,5.078-3.207
		c3.341,0.178,8.888-2.352,4.944-5.847c1.939,0.519,4.374-0.61,4.877-2.28c0.937,0.983,1.94,1.791,3.058,2.48
		c0.278,1.616-1.252,3.127-2.928,3.486c3.251,3.25-1.454,5.049-4.055,5.049c2.114,1.469,1.052,2.729-0.652,3.604
		c-1.109,0.421-2.313,0.759-3.618,0.982c-4.386,0.746-8.667,0.267-12.439-1.14C16.739,34.874,16.751,34.334,16.508,33.683z"/>
</g>
</svg>
