<?xml version="1.0" encoding="utf-8"?>
<!-- Generator: Adobe Illustrator 16.0.0, SVG Export Plug-In . SVG Version: 6.00 Build 0)  -->
<!DOCTYPE svg PUBLIC "-//W3C//DTD SVG 1.1//EN" "http://www.w3.org/Graphics/SVG/1.1/DTD/svg11.dtd">
<svg version="1.1" id="Слой_1" xmlns="http://www.w3.org/2000/svg" xmlns:xlink="http://www.w3.org/1999/xlink" x="0px" y="0px"
	 width="19.559px" height="27px" viewBox="0 0 19.559 27" enable-background="new 0 0 19.559 27" xml:space="preserve">
<g>
	<path fill="#F4CA42" d="M9.779,0C5.588,0,0,8.222,0,16.448C0,22.967,3.881,27,9.779,27s9.779-4.033,9.779-10.552
		C19.559,8.222,13.971,0,9.779,0z"/>
	<g>
		<path fill="#F6F9E4" d="M10.456,0.068c0.999,0.211,1.511,0.654,1.139,0.987c-0.573,0.513-3.887,0.591-4.024-0.11
			c-0.04-0.2,0.209-0.415,0.737-0.639l0.179-0.067c0.275-0.075,0.645-0.177,0.928-0.218c-0.931,0.126-1.058,0.375-0.92,0.501
			c0.2,0.183,2.504,0.379,2.408-0.179C10.883,0.228,10.532,0.009,9.778,0C10.001,0,10.227,0.023,10.456,0.068"/>
		<path fill="#F37374" d="M13.695,1.957c2.425,2.354-1.33,3.089-3.931,3.152C7.049,5.175,3.557,4.608,5.07,2.774
			C5.293,2.54,5.585,2.222,5.818,1.998l0.364-0.333C4.62,3.154,6.926,3.725,9.375,3.761c2.431,0.036,5.269-0.687,3.644-2.353
			c-0.164-0.168-0.408-0.342-0.587-0.469C12.854,1.222,13.278,1.563,13.695,1.957"/>
		<path fill="#F6F9E4" d="M16.239,5.139c0.155,0.25,0.308,0.506,0.456,0.768c2.577,4.774-9.048,4.95-12.78,3.653
			C1.55,8.739,2.04,7.567,2.225,7.126c0.003-0.007,0.007-0.014,0.01-0.021c0.261-0.503,0.615-1.17,0.897-1.661
			c-1.659,3.249,6.897,3.7,11.047,2.347c2.073-0.676,2.551-1.893,1.418-3.618C15.816,4.482,16.031,4.804,16.239,5.139"/>
		<path fill="#F37374" d="M18.237,9.268c0.229,0.63,0.435,1.278,0.609,1.938c1.387,5.753-13.422,5.646-17.122,3.613
			c-1.516-0.833-1.397-1.77-1.348-2.17c0.07-0.36,0.149-0.717,0.237-1.07l0.254-0.939c-0.921,4.566,12.907,3.984,16.022,2.005
			c2.014-1.279,1.504-2.854,1.26-3.611C18.18,9.111,18.209,9.189,18.237,9.268"/>
		<path fill="#F6F9E4" d="M19.558,16.448c0,0.296-0.008,0.587-0.024,0.872C19.07,22.773,2.756,22.145,0.5,19.34
			c-0.19-0.236-0.273-0.424-0.357-0.803c-0.011-0.068-0.02-0.139-0.028-0.209c-0.046-0.49-0.095-1.145-0.113-1.636
			c0.563,4.815,16.8,3.718,19.045,0.336c0.486-0.731,0.466-1.462,0.449-2.106C19.536,15.43,19.558,15.939,19.558,16.448"/>
		<path fill="#F37374" d="M18.56,21.603c-0.093,0.21-0.191,0.415-0.297,0.614c-2.099,3.723-14.087,3.83-16.354,1.008l-0.166-0.246
			c-0.246-0.375-0.468-0.773-0.664-1.195c1.768,3.023,15.89,3.965,17.918-1.354C18.871,20.837,18.726,21.229,18.56,21.603"/>
		<path fill="#F6F9E4" d="M15.769,25.164c-0.201,0.15-0.41,0.292-0.626,0.425c-2.185,1.299-6.517,1.874-9.706,0.541l-0.371-0.177
			c-0.315-0.176-0.732-0.417-1.034-0.615c2.876,1.795,9.593,1.709,12.522-0.839C16.321,24.702,16.015,24.977,15.769,25.164"/>
		<path fill="#F6F9E4" d="M9.778,27c-0.374-0.014-0.874-0.031-1.247-0.063C9.124,26.99,9.345,26.996,9.778,27"/>
		<path fill="#F6F9E4" d="M11.485,26.881c-0.319,0.045-0.646,0.078-0.979,0.098c-0.243,0.013-0.488,0.02-0.728,0.021
			c1.318-0.008,2.21-0.203,2.688-0.309C12.148,26.77,11.821,26.832,11.485,26.881"/>
	</g>
	<path opacity="0.5" fill="#F37374" d="M12.89,1.267c2.536,3.155,4.573,8.119,4.573,13.085c0,6.52-3.881,10.552-9.779,10.552
		c-2.252,0-4.209-0.59-5.769-1.68C3.614,25.64,6.356,27,9.779,27c5.898,0,9.779-4.033,9.779-10.552
		C19.559,10.164,16.297,3.883,12.89,1.267z"/>
	
		<ellipse transform="matrix(0.9236 0.3834 -0.3834 0.9236 3.5212 -1.649)" opacity="0.3" fill="#FFFFFF" cx="5.897" cy="8.008" rx="2.346" ry="5.123"/>
	<path opacity="0.3" fill="#FFFFFF" d="M0.389,16.836c0-8.227,5.588-16.448,9.778-16.448c1.264,0,2.654,0.748,3.98,2.018
		C12.708,0.902,11.167,0,9.779,0C5.588,0,0,8.222,0,16.448c0,3.493,1.115,6.271,3.057,8.098C1.355,22.723,0.389,20.09,0.389,16.836z
		"/>
</g>
</svg>
