<?xml version="1.0" encoding="utf-8"?>
<!-- Generator: Adobe Illustrator 16.0.0, SVG Export Plug-In . SVG Version: 6.00 Build 0)  -->
<!DOCTYPE svg PUBLIC "-//W3C//DTD SVG 1.1//EN" "http://www.w3.org/Graphics/SVG/1.1/DTD/svg11.dtd">
<svg version="1.1" id="Слой_1" xmlns="http://www.w3.org/2000/svg" xmlns:xlink="http://www.w3.org/1999/xlink" x="0px" y="0px"
	 width="87.268px" height="234px" viewBox="0 0 87.268 234" enable-background="new 0 0 87.268 234" xml:space="preserve">
<path fill-rule="evenodd" clip-rule="evenodd" fill="#FFFFFF" d="M59.141,164.408c8.402,16.511,16.474,32.37,24.544,48.229
	c-0.177,0.096-0.354,0.191-0.532,0.287c-10.744-18.565-21.488-37.132-32.541-56.229c-0.831,2.572-1.505,4.66-2.179,6.747
	c-0.492,1.523-0.765,3.164-1.511,4.551c-4.684,8.704-1.311,17.141,0.693,25.633c0.561,2.374,1.105,4.752,1.367,7.296
	c-0.439-0.885-0.88-1.771-1.381-2.777c-4.435,1.907-8.758,3.766-13.27,5.705c0.514,2.006,0.779,4.032,1.597,5.805
	c0.399,0.864,1.765,1.413,2.802,1.831c4.7,1.89,4.667,1.846,3.73,6.806c-0.229,1.212-0.034,2.504-0.034,4.203
	c-0.374-0.853-0.982-1.581-0.946-2.277c0.103-1.987,1.289-4.43,0.501-5.81c-0.804-1.408-3.497-1.673-5.259-2.63
	c-0.793-0.43-1.551-1.222-1.941-2.033c-0.756-1.573-1.24-3.276-1.844-4.943c-2.227,0.148-3.146,0.838-2.588,3.214
	c0.941,4.01,1.561,8.098,2.228,12.167c0.11,0.674,0.021,1.67-0.401,2.097C28.226,226.281,24.182,230.191,20,234
	c2.242-2.684,4.175-5.729,6.799-7.964c3.811-3.245,3.988-6.915,2.838-11.251c-0.754-2.837-1.151-5.771-1.746-8.855
	c-0.87,0.133-1.715,0.262-2.562,0.393c-0.026-0.08-0.053-0.158-0.079-0.236c5.895-2.889,11.76-5.84,17.703-8.623
	c1.682-0.788,2.309-1.566,1.627-3.431c-0.601-1.646-0.729-3.46-1.24-5.146c-0.256-0.845-0.844-2.187-1.377-2.234
	c-1.568-0.141-3.436-0.574-4.468,1.39c-0.587,1.114-1.309,2.155-2.144,3.114c2.328-4.514,2.328-4.514,7.125-5.894
	c-0.433-2.147-0.873-4.33-1.351-6.702c-0.786,0.1-1.538,0.195-1.976,0.25c0.516-0.715,1.404-1.466,1.669-2.395
	c2.236-7.852,4.397-15.726,6.458-23.625c0.221-0.844-0.169-1.986-0.59-2.834c-2.533-5.114-6.024-9.515-9.945-13.663
	c-5.809-6.147-11.377-12.523-17.239-19.015c-1.035,1.217-2.137,2.264-2.901,3.517c-0.381,0.622-0.52,1.965-0.125,2.399
	c4.012,4.42,3.317,8.891,0.293,13.373c-1.453,2.152-0.543,4.213-0.124,6.324c0.442,2.228,1.077,4.433,1.313,6.68
	c0.227,2.157,0.049,4.356,0.049,5.616c-0.893-4.609-1.96-10.041-2.974-15.482c-0.098-0.529,0.072-1.147,0.25-1.68
	c0.295-0.877,0.581-1.792,1.075-2.56c2.614-4.063,2.373-7.813-1.015-11.338c-1.293-1.345-1.122-2.607-0.074-4.242
	c8.158-12.731,16.191-25.542,24.264-38.33c0.263-0.418,0.506-0.849,0.75-1.259c-5.248-5.113-10.395-10.127-15.793-15.386
	c-2.108,1.625-4.613,3.446-6.96,5.451c-0.486,0.415-0.565,1.519-0.532,2.293c0.122,2.867,0.371,5.729,0.595,8.907
	c-3.264,0.752-6.397,1.61-9.583,2.15c-1.551,0.264-2.061,0.874-1.87,2.314c0.033,0.249-0.046,0.518,0.006,0.761
	C7.243,91.934,4.74,95.298,0,98.19c0.988-1.079,1.532-1.694,2.1-2.288c0.585-0.612,1.121-1.306,1.805-1.785
	c1.688-1.182,1.861-2.729,1.576-4.617c-0.289-1.906-0.269-3.859-0.391-5.915c2.997-0.801,5.801-1.628,8.645-2.277
	c1.563-0.356,2.551-1.051,2.043-2.707c-2.076-6.776,1.109-11.214,6.409-14.753c0.356-0.237,0.771-0.387,0.995-0.497
	c-4.053-4.062-7.742-7.759-11.447-11.471c-0.416,1.011-0.594,2.553-1.455,3.244c-0.955,0.767-2.519,0.935-3.843,1.039
	c-1.76,0.138-2.46,1.111-2.935,2.623c-0.495,1.579-1.18,3.097-2.224,4.483c0.685-2.088,1.114-4.316,2.161-6.202
	c0.514-0.924,2.125-1.526,3.328-1.72c2.875-0.461,3.387-2.202,3.585-4.753c0.563-7.231,1.363-14.446,2.146-21.658
	c0.746-6.871,1.587-13.732,2.39-20.598C15.21,5.589,15.542,2.84,15.881,0c3.014,0,5.871,0,9.015,0
	c-1.058,6.526-2.103,12.958-3.138,19.391c-0.135,0.832-0.031,1.756-0.361,2.492c-1.656,3.686,1.139,5.357,3.256,7.287
	c0.396,0.361,1.244,0.389,1.859,0.328c4.19-0.414,8.368-0.967,12.565-1.279c0.712-0.053,1.823,0.66,2.185,1.326
	c1.407,2.592,2.463,5.378,3.916,7.94c0.521,0.919,1.706,1.769,2.745,2.031c2.996,0.756,6.072,1.196,9.06,2.17
	C53,41.132,49.008,40.62,45.041,39.964c-0.463-0.077-0.883-0.909-1.174-1.469c-1.125-2.167-2.275-4.328-3.244-6.566
	c-0.582-1.346-1.439-1.709-2.773-1.52c-3.422,0.485-6.836,1.103-10.275,1.322c-1.656,0.105-3.38-0.497-5.037-0.92
	c-0.764-0.195-1.441-0.729-2.379-1.227c-0.945,5.634-1.921,10.917-2.64,16.235c-0.126,0.932,0.584,2.247,1.313,2.983
	c8.713,8.789,17.516,17.489,26.265,26.243c2.15,2.151,4.231,4.375,6.264,6.637c0.861,0.959,1.667,1.365,2.798,0.554
	c4.407-3.166,8.569-2.852,12.607,0.755c2.205,1.97,4.879,1.356,7.489,1.107c3.212-0.307,6.437-0.475,9.687-0.217
	c-4.582,0.484-9.16,1.25-13.749,1.315c-1.804,0.026-3.774-1.297-5.413-2.389c-2.76-1.841-5.355-2.52-8.209-0.307
	c-2.735,2.122-5.287,2.096-7.559-0.778c-0.346-0.438-0.938-0.68-1.646-1.173c-5.969,8.571-11.885,17.065-17.973,25.808
	c3.406,3.158,6.598,6.186,9.891,9.1c0.51,0.451,1.522,0.619,2.238,0.507c5.223-0.823,10.429-1.753,15.738-2.666
	c2.012,5.422,3.967,10.692,5.954,16.047c4.134-0.461,8.136-0.997,12.154-1.294c1.044-0.076,2.313,0.355,3.185,0.971
	c3.082,2.178,6.037,4.536,8.715,7.281c-3.039-2.156-6.139-4.236-9.093-6.506c-1.351-1.038-2.526-1.226-4.178-0.805
	c-3.176,0.811-6.45,1.22-9.653,1.938c-1.402,0.314-2.117,0.045-2.674-1.354c-1.529-3.835-3.324-7.566-4.789-11.425
	c-0.619-1.632-1.479-2.014-3.034-1.731c-4.228,0.765-8.454,1.551-12.707,2.137c-1.008,0.14-2.329-0.189-3.147-0.792
	c-3.53-2.6-6.928-5.38-10.66-8.321c-1.273,1.777-2.464,3.44-3.719,5.193c5.203,5.844,10.071,11.84,15.504,17.271
	c6.271,6.269,10.957,13.477,14.354,21.546"/>
</svg>
