<?xml version="1.0" encoding="utf-8"?>
<!-- Generator: Adobe Illustrator 16.0.0, SVG Export Plug-In . SVG Version: 6.00 Build 0)  -->
<!DOCTYPE svg PUBLIC "-//W3C//DTD SVG 1.1//EN" "http://www.w3.org/Graphics/SVG/1.1/DTD/svg11.dtd">
<svg version="1.1" id="Слой_1" xmlns="http://www.w3.org/2000/svg" xmlns:xlink="http://www.w3.org/1999/xlink" x="0px" y="0px"
	 width="330.518px" height="185px" viewBox="0 0 330.518 185" enable-background="new 0 0 330.518 185" xml:space="preserve">
<g>
	<g id="XMLID_15_">
		<path id="XMLID_31_" fill="#6F8E2D" d="M85.484,102.745c0.174,0.545,0.216,0.688,0.365,1.122c0.054,0.396,0.157,0.47-0.043,0.878
			c-0.192,0.395-0.594,0.56-1.005,0.51c-0.49-0.043-0.978-0.496-1.362-0.808c-0.336-0.272-1.251-1.073-1.673-1.487
			c-6.687-6.441-13.053-17.985-12.34-19.625c-0.299-0.869,0.609-1.573,1.36-1.208c1.464,0.715,3.494,2.347,4.484,3.245
			c2.222,2.039,5.274,5.94,8.252,12.377C84.384,99.634,84.688,100.151,85.484,102.745z"/>
		<path id="XMLID_29_" fill="#6F8E2D" d="M64.758,105.812c-0.651-0.982-1.221-2.376-2.086-4.387
			c-0.848-1.806-1.095-3.246-1.597-4.92c-0.947-3.223-0.857-2.796-1.22-7.246c-0.518-6.272,0.723-9.047,1.721-11.252
			c0.438-0.896,0.848-2.032,1.806-1.976c3.17-2.425,6.227,16.744,4.456,29.026c-0.059,0.472-0.087,1.059-0.308,1.508
			C67.096,107.457,65.971,107.675,64.758,105.812z"/>
		<path id="XMLID_27_" fill="#6F8E2D" d="M59.761,63.558c11.513,2.017,17.71,6.958,25.294,17.679
			c1.042,1.488,2.233,3.638,3.064,5.249c0.856,1.694,1.934,3.122,0.904,3.854c-2.819,1.902-27.836-15.407-29.9-25.093
			C58.26,64.705,58.768,63.392,59.761,63.558z"/>
	</g>
	<path id="XMLID_249_" fill="#6F8E2D" d="M18.266,49.869c-1.612-0.184-3.123-0.04-4.741,0.302c-0.506,0.087-1.045,0.229-1.146,0.735
		c-0.159,0.674,0.715,0.987,1.414,1.292c2.08,0.907,3.375,1.827,6.507,2.79c4.575,1.497,9.796,2.551,15.04,1.809
		c1.589,0.69,3.085,1.329,4.935,2.32c-1.259,0.155-10.16,2.276-10.647,2.395c-0.924,0.244-2.021,0.453-1.814,1.352
		c0.15,0.676,1.336,0.819,2.025,0.835c1.45,0.031,2.512-0.265,3.52-0.499c3.835-0.877,7.013-0.647,9.643-2.507
		c3.7,2.208,8.273,5.546,8.273,5.546c-6.1-1.777-12.981,1.019-17.488,1.797c-0.438,0.062-0.247,0.036-0.965,0.133
		c-0.288,0.046-0.241,0.03-0.576,0.166c-0.467,0.346-0.449,0.808-0.112,1.145c0.836,0.848,3.996,0.326,13.309,0.549
		c3.243,0.067,5.038-0.388,8.142-1.754c0.43,0.394,3.643,3.096,4.27,3.88c-0.965-0.305-3.565-0.608-5.221-0.373
		c-1.383,0.166-2.636,0.411-3.438,0.562c-0.59,0.105-1.058,0.178-2.215,0.466c-1.733,0.459-6.527,2.262-7.839,3.135
		c-0.402,0.249-0.81,0.59-0.616,1.024c0.18,0.382,0.401,0.447,0.805,0.419c0.908-0.059,1.03-0.079,1.425-0.13
		c4.334-0.433,6.714,0.198,12.674-1.005c1.311-0.26,4.605-0.915,6.882-1.602c2.028,1.981,2.113,2.099,4.626,5.096
		c-5.564-1.373-6.362-1.085-8.154-1.208c-0.45-0.032-0.909-0.061-1.364-0.082c-4.774-0.225-11.418,1.154-15.407,3.957
		c-1.719,1.191-0.95,2.04-0.351,2.143c0.505,0.1,1.07,0.031,1.7-0.01c4.019-0.301,8.424,0.084,15.056-1.002
		c0.92-0.146,0.574-0.091,1.514-0.245c2.065-0.319,3.857-0.565,8.299-1.907c1.781,2.231,2.961,3.813,4.359,6.429
		c0.048,0.085,0.552,0.967,0.592,1.057c-1.021-0.4-7.956-2.345-11.163-2.494c-6.385-0.311-14.27,0.235-16.502,0.971
		c-0.383,0.156-0.79,0.347-0.945,0.726c-0.114,0.312-0.104,0.392-0.05,0.625c0.078,0.41,0.754,0.715,1.162,0.839
		c0.076,0.025,2.013,0.494,2.77,0.699c0.963,0.252,1.842,0.444,2.888,0.565c9.551,1.185,10.177,1.449,22.634-0.238
		c0.985,2.044,1.705,3.619,2.21,4.775c0.058,0.133,0.121,0.255,0.276,0.331c0.463,0.274,0.982-0.263,0.807-0.658
		c-0.635-1.458-1.289-2.919-2.276-4.879c4.128-3.344,4.891-5.802,6.187-7.848c0.782-1.198,1.184-1.847,1.627-3.2
		c0,0,1.519-4.398,1.52-4.403c0.979-3.176,1.075-3.917,1.505-6.409c0.19-0.958,0.281-1.872,0.425-3.03
		c0.16-1.298,0.39-1.941-0.168-2.366c-0.601-0.443-1.653-0.255-2.087,0.039c-0.34,0.217-0.82,0.579-1.087,0.902
		c-0.139,0.159-1.041,1.533-1.249,1.824c-0.761,1.036-1.531,1.692-2.646,2.891c-2.081,2.111-2.984,4.976-3.318,7.909
		c-0.12,0.83-0.521,2.507-0.525,3.105l0.019,0.003c-0.091,0.444-0.231,2.279-0.395,3.136c-0.611,3.56,0.007,1.809-0.797,4.458
		l-0.003-0.009c-0.006,0.011-0.011,0.022-0.006,0.039c-0.009,0.029-0.022,0.042-0.031,0.071l-0.003-0.008
		c-0.006,0.01-0.006,0.01-0.004,0.019l-0.005,0.01c0.003,0.008,0.003,0.008,0.003,0.008c-0.012,0.021-0.031,0.045-0.031,0.045
		c-0.037,0.011-0.116,0.3-0.127,0.337c-1.576-2.751-2.694-4.61-4.798-7.064c1.065-1.885,0.854-2.27,2.049-4.552
		c3.819-7.127,5.717-22.734,5.757-24.63c0.056-1.997-0.97-2.337-1.995-1.612c-1.128,0.9-0.867,1.811-2.686,4.455
		c-1.566,2.275-2.993,5.115-3.465,7.954c-0.122,0.822-2.344,13.766-1.807,15.542c-0.002,0.054,0.005,0.104,0.012,0.156
		c-0.966-1.141-2.531-2.973-3.675-3.928c-0.002-0.007-0.01-0.004-0.013-0.013c0.262-0.307,0.908-14.901-0.159-19.862
		c-0.213-0.967-0.441-1.93-0.703-2.884c-0.104-0.392-0.238-0.947-0.59-1.136c-0.43-0.209-0.936-0.087-1.304,0.534
		c-0.9,1.681-1.29,10.625-0.828,14.286c0.522,4.351,0.534,4.874,0.884,6.313l-1.217-1.194c-1.557-1.515-2.581-2.151-3.007-2.743
		c0.116-0.559-0.622-10.905-3.865-20.304c-0.269-0.708-0.574-1.317-1.294-1.101c-0.579,0.175-0.588,0.774-0.659,1.355
		c-0.346,2.692-0.344,2.477,0.223,8.357c0.461,5.752,1.528,7.649,2.244,9.008c-2.52-1.775-4.362-3.143-7.853-5.17
		c0.228-1.319,0.383-1.583,0.004-4.429c-0.335-2.454-0.656-3.955-1.663-6.238c-0.291-0.716-0.201-0.469-0.507-1.179
		c-0.194-0.496-0.556-1.175-1.091-1.162c-0.093,0.028-0.146,0.036-0.334,0.093c-0.435,0.293-0.585,1.035-0.54,3.382
		c0.126,4.619,1.647,6.936,2.324,8.481c-2.339-1.29-3.575-1.812-6.583-3.102C27.664,50.927,25.898,50.536,18.266,49.869z"/>
	<path id="XMLID_247_" fill="#6F8E2D" d="M32.759,20.17c-1.401-0.822-2.84-1.301-4.459-1.645c-0.498-0.126-1.047-0.214-1.345,0.208
		c-0.419,0.552,0.253,1.192,0.769,1.755c1.534,1.672,2.347,3.036,4.817,5.186c3.577,3.223,7.923,6.301,13.018,7.747
		c1.173,1.274,2.284,2.465,3.572,4.121c-1.213-0.368-10.21-2.036-10.705-2.124c-0.943-0.152-2.029-0.404-2.206,0.5
		c-0.136,0.679,0.891,1.29,1.514,1.584c1.313,0.616,2.404,0.774,3.419,0.97c3.861,0.751,6.675,2.25,9.832,1.615
		c2.489,3.518,5.317,8.422,5.317,8.422c-4.857-4.097-12.281-4.328-16.717-5.441c-0.426-0.122-0.241-0.068-0.937-0.27
		c-0.282-0.074-0.231-0.07-0.594-0.083c-0.567,0.127-0.738,0.557-0.567,1.001c0.42,1.115,3.522,1.918,11.946,5.895
		c2.937,1.375,4.763,1.687,8.153,1.695c0.233,0.536,2.076,4.305,2.331,5.277c-0.758-0.669-3.014-2-4.621-2.456
		c-1.332-0.409-2.577-0.692-3.371-0.879c-0.583-0.143-1.039-0.266-2.214-0.471c-1.771-0.283-6.884-0.577-8.438-0.31
		c-0.468,0.064-0.979,0.21-0.979,0.687c0.01,0.421,0.188,0.572,0.566,0.709c0.854,0.313,0.975,0.345,1.355,0.458
		c4.138,1.36,6.058,2.9,11.994,4.215c1.303,0.293,4.581,1.03,6.94,1.323c1.051,2.634,1.082,2.776,2.166,6.533
		c-4.533-3.509-5.378-3.57-6.966-4.407c-0.399-0.212-0.807-0.424-1.216-0.628c-4.272-2.14-10.905-3.571-15.688-2.624
		c-2.052,0.393-1.695,1.48-1.188,1.817c0.42,0.296,0.965,0.462,1.557,0.679c3.797,1.353,7.669,3.49,14.171,5.184
		c0.901,0.237,0.563,0.149,1.483,0.388c2.018,0.545,3.756,1.046,8.359,1.619c0.725,2.76,1.163,4.686,1.381,7.644
		c0.011,0.097,0.114,1.107,0.114,1.206c-0.771-0.78-6.323-5.367-9.195-6.803c-5.712-2.871-13.142-5.566-15.48-5.798
		c-0.413-0.011-0.863-0.004-1.158,0.281c-0.231,0.238-0.254,0.315-0.299,0.549c-0.096,0.408,0.399,0.961,0.723,1.239
		c0.059,0.054,1.64,1.266,2.248,1.76c0.779,0.622,1.505,1.152,2.411,1.688c8.252,4.952,8.718,5.448,20.791,8.952
		c0.072,2.268,0.092,3.999,0.086,5.261c-0.002,0.145,0.007,0.282,0.118,0.415c0.313,0.439,1.004,0.159,1.004-0.274
		c0.01-1.591,0.003-3.191-0.104-5.383c5.129-1.385,6.82-3.324,8.835-4.67c1.201-0.778,1.831-1.208,2.785-2.266
		c0,0,3.169-3.406,3.173-3.409c2.182-2.508,2.569-3.146,3.971-5.25c0.563-0.799,1.018-1.598,1.617-2.598
		c0.673-1.123,1.144-1.617,0.806-2.231c-0.371-0.648-1.408-0.904-1.925-0.81c-0.398,0.06-0.983,0.196-1.358,0.384
		c-0.191,0.089-1.574,0.98-1.881,1.162c-1.115,0.639-2.086,0.926-3.591,1.57c-2.758,1.087-4.744,3.341-6.237,5.887
		c-0.446,0.708-1.492,2.08-1.74,2.625l0.016,0.01c-0.262,0.37-1.135,1.99-1.63,2.708c-2.002,3.006-0.727,1.656-2.535,3.753
		l0.002-0.009c-0.01,0.008-0.02,0.015-0.021,0.032c-0.021,0.023-0.038,0.029-0.058,0.052l0.001-0.008
		c-0.01,0.007-0.01,0.007-0.011,0.016l-0.009,0.007c-0.001,0.009-0.001,0.009-0.001,0.009c-0.019,0.014-0.047,0.028-0.047,0.028
		c-0.038-0.005-0.228,0.228-0.253,0.258c-0.326-3.154-0.595-5.307-1.524-8.401c1.737-1.292,1.7-1.729,3.717-3.333
		c6.379-4.968,14.437-18.468,15.242-20.186c0.86-1.802,0.06-2.529-1.171-2.282c-1.397,0.368-1.527,1.305-4.261,2.985
		c-2.354,1.446-4.809,3.464-6.39,5.868c-0.444,0.703-7.719,11.637-7.948,13.478c-0.023,0.048-0.037,0.098-0.053,0.146
		c-0.42-1.435-1.109-3.743-1.768-5.079c0.002-0.009-0.007-0.009-0.006-0.019c0.364-0.175,6.867-13.255,7.901-18.223
		c0.196-0.971,0.377-1.944,0.524-2.921c0.064-0.4,0.166-0.963-0.079-1.278c-0.308-0.365-0.819-0.458-1.408-0.039
		c-1.505,1.171-5.483,9.19-6.544,12.725c-1.285,4.189-1.486,4.673-1.75,6.13l-0.629-1.585c-0.81-2.016-1.488-3.013-1.638-3.727
		c0.333-0.463,3.849-10.221,4.691-20.129c0.042-0.755,0.009-1.437-0.737-1.529c-0.599-0.075-0.851,0.468-1.15,0.972
		c-1.408,2.321-1.317,2.125-3.183,7.73c-1.909,5.445-1.701,7.612-1.598,9.145c-1.584-2.644-2.716-4.642-5.084-7.908
		c0.742-1.115,0.989-1.293,1.798-4.048c0.688-2.379,1.001-3.881,1.006-6.376c0.024-0.772,0.006-0.51,0.016-1.283
		c0.021-0.533-0.033-1.301-0.527-1.504c-0.097-0.012-0.148-0.027-0.344-0.051c-0.516,0.093-0.954,0.709-1.863,2.875
		c-1.757,4.272-1.305,7.008-1.313,8.695c-1.615-2.127-2.533-3.104-4.761-5.502C40.921,24.945,39.465,23.872,32.759,20.17z"/>
	<g id="XMLID_189_">
		<g id="XMLID_201_">
			<path id="XMLID_243_" fill="#FDFCFA" d="M57.026,66.42c0.002-0.009,0.006-0.014,0.003-0.02c-0.111-1.28-0.256-1.82-0.217-2.291
				c-1.883,2.491-3.727,5.894-10.177,7.307c-6.085,1.261,1.148-6.584,8.063-10.024c-2.301-0.05-2.565,0.073-5.496-0.592
				c-3.05-0.634-3.259-0.587-4.965-1.325c-2.075-0.95-1.417-0.488-3.75-2.126c-0.226-0.161-0.507-0.331-0.566-0.579
				c-0.054-0.225,0.049-0.437,0.364-0.534c1.15-0.393,3.437-0.125,4.431-0.049l0.006-0.005c0.011,0.003,0.022,0.005,0.039,0.001
				c1.091,0.191,2.689-0.555,8.304,1.097c0.009,0.01,0.046,0.019,0.059,0.025c-0.005-0.006-0.005-0.006-0.009-0.011
				c0.337,0.109,0.766,0.214,0.975,0.25c-2.228-1.461-4.998-4.986-5.35-5.686c-0.305-0.633-0.802-2.454-0.996-2.913l-0.005-0.006
				c0,0,0.001-0.01-0.004-0.015c-0.107-0.313-0.215-0.625-0.294-0.938c-0.123-0.489-0.408-1.367-0.371-1.826
				c0.06-0.572,0.419-0.805,0.734-0.789c0.376,0.023,0.73,0.211,1.025,0.452c1.174,0.889,6.206,7.219,7.456,8.69
				c-0.097-0.732,0.027-1.445,0.057-2.178c0.065-1.688-0.087-1.598,0.198-2.623c0.406-1.614,6.981-11.617,6.499-5.724
				c-0.059,0.854-0.229,1.149-0.482,1.916c-0.264,0.785-0.898,4.943-2.34,7.754c2.16-1.837,4.205-2.909,5.544-3.643
				c2.965-1.623,3.435-1.545,4.723-1.643c0.468-0.04,0.939-0.014,0.98,0.455c0.057,0.942-5.319,6.819-6.046,7.484
				c5.077-0.793,7.976-1.158,13.254,0.859c1.873,0.712,2.932,0.976,2.531,1.666c-0.309,0.458-1.737,0.783-3.398,1.363
				c-1.732,0.535-5.701,1.041-8.926,0.876c-1.524-0.103-2.202,0.218-3.428,0.103c6.835,3.609,6.862,4.111,8.331,5.439
				c-0.017-0.007-0.032-0.026-0.048-0.033c0.284,0.26,2.042,1.785,2.163,2.098c0.351,1.087-1.385,0.472-2.499,0.122
				c-0.006,0.003-0.006,0.003-0.011-0.003l-0.012-0.001c-0.005-0.006-0.005-0.006-0.01-0.001c0,0-0.006-0.006-0.013-0.002
				c-4.734-1.336-5.392-1.749-6.426-2.41c-0.011-0.001-0.015-0.007-0.021-0.013c-0.011-0.002-0.027-0.011-0.032-0.017
				c-1.99-0.806-2.763-1.697-4.442-2.712c-0.007,0.004-0.007,0.004-0.002,0.01c0.002,0.295,0.079,0.563,0.17,0.854
				c0.256,0.766,0.509,1.556,0.559,2.366c0.027,0.647,0.021,0.813,0.021,0.813c-0.001,0.011,0.004,0.017,0.004,0.017l-0.005,0.003
				c0.004,0.017,0.004,0.017,0.004,0.027c0.003,0.006-0.003,0.009-0.003,0.009c0.157,2.229,0.237,9.793-1.931,8.444
				c-1.143-0.725-1.5-2.554-1.923-3.337C57.783,69.771,57.243,69.68,57.026,66.42z"/>
			<path id="XMLID_242_" fill="#EFEBEA" d="M53.683,59.647c-1.63-0.303-6.815-1.19-8.819-1.439c-0.422-0.05-0.423-0.679,0.049-0.608
				c0.344,0.041,8.832,1.31,9.047,1.564C54.147,59.386,53.992,59.702,53.683,59.647z"/>
			<path id="XMLID_212_" fill="#EFEBEA" d="M49.291,68.949c-0.342,0.235-0.775-0.276-0.434-0.511
				c0.553-0.382,0.986-0.728,1.462-1.188c-0.004,0.004,0,0.01-0.006,0.015c2.544-2.498,3.761-3.375,4.843-4.196
				c1.702-1.28,1.889-1.749,2.245-1.331c0.353,0.416-0.434,0.76-2.909,2.683c-1.625,1.267-3.319,2.972-4.05,3.64
				C50.086,68.394,49.65,68.701,49.291,68.949z"/>
			<path id="XMLID_211_" fill="#EFEBEA" d="M65.296,58.585c-0.245,0.042-0.521-0.29-0.34-0.52c0.317-0.366,4.081-0.521,4.631-0.526
				c1.8-0.04,2.977,0.092,4.24,0.262c0.262,0.034,2.055,0.241,2.225,0.443c0.216,0.252-0.017,0.539-0.271,0.479
				c-1.039-0.226-3.824-0.625-6.079-0.567C67.757,58.201,67.22,58.209,65.296,58.585z"/>
			<path id="XMLID_210_" fill="#EFEBEA" d="M51.598,52.464c-0.01-0.022-0.024-0.039-0.04-0.057c0.001-0.011-0.076-0.112-0.069-0.104
				c-0.624-0.984-0.903-1.389-1.76-2.356c-0.116-0.137-0.101-0.337,0.04-0.434c0.488-0.336,1.877,1.914,2.241,2.44l-0.001,0.01
				c0.001,0,0.227,0.344,0.227,0.344s0.367,0.708,2.962,3.705c0.296,0.348-0.222,0.691-0.51,0.352
				c-0.535-0.63-1.082-1.252-1.61-1.896c-0.453-0.554-0.895-1.118-1.288-1.713C51.797,52.765,51.675,52.555,51.598,52.464z"/>
			<path id="XMLID_206_" fill="#EFEBEA" d="M62.842,55.302c-0.259,0.219-0.78-0.174-0.439-0.517c2.365-2.094,5.62-4.795,5.754-4.917
				c0.181-0.153,0.579,0.011,0.555,0.314c-0.018,0.207-1.59,1.463-1.751,1.595C64.946,53.356,64.367,53.942,62.842,55.302z"/>
			<path id="XMLID_205_" fill="#EFEBEA" d="M70.195,66.183c-0.413-0.224-0.838-0.429-1.245-0.667
				c-2.143-1.264-2.161-1.496-3.771-2.403c-0.006-0.006-0.021-0.013-0.026-0.02c-0.719-0.366-0.421-0.213-1.143-0.513
				c-0.399-0.149-0.241-0.72,0.212-0.56c1.375,0.525,2.318,1.182,3.529,2.042c1.098,0.752,2.813,1.669,2.813,1.669
				c0.063,0.075,0.098,0.195,0.063,0.305C70.573,66.178,70.36,66.267,70.195,66.183z"/>
			<path id="XMLID_204_" fill="#EFEBEA" d="M60.17,72.19c-0.162-0.338-0.229-0.441-0.358-0.884
				c-0.569-2.142-1.285-9.437,0.051-7.864c0.173,0.204,0.011,0.416-0.066,0.678c-0.005,0.049-0.007,2.903,0.021,2.935
				c0.173,1.631,0.402,3.753,0.962,4.932C60.961,72.386,60.361,72.571,60.17,72.19z"/>
			<path id="XMLID_203_" fill="#EFEBEA" d="M61.781,45.144c0.174,0.133,0.188,0.315,0.091,0.447
				c-2.041,2.689-2.942,7.189-2.854,9.512c0.031,0.167-0.082,0.321-0.266,0.334c-1.074,0.057,0.078-4.451,0.365-5.405
				c0.337-1.214,0.146-1.531,1.447-3.758c0.001-0.011,0.002-0.02,0.014-0.028c0.071-0.134,0.171-0.259,0.258-0.385
				C61.081,45.501,61.383,44.854,61.781,45.144z"/>
			<path id="XMLID_202_" fill="#F9CB52" d="M57.204,58.441c-0.349-0.914,0.104-2.147,1.67-2.019
				c0.325-0.037,1.757,0.125,1.907,0.155c2.331,0.406,3.05,2.259,2.193,3.228C61.883,62.266,57.532,59.99,57.204,58.441z"/>
		</g>
	</g>
	<path id="XMLID_185_" fill="#6F8E2D" d="M303.45,45.813c-2.012,2.631-2.841,3.705-4.264,6.004c-0.171-1.7,0.019-4.5-2.164-8.633
		c-1.127-2.092-1.628-2.671-2.156-2.715c-0.194,0.043-0.245,0.064-0.34,0.084c-0.479,0.254-0.46,1.032-0.386,1.566
		c0.083,0.778,0.041,0.515,0.139,1.291c0.247,2.514,0.708,3.998,1.632,6.326c1.081,2.698,1.348,2.854,2.203,3.904
		c-2.069,3.522-3.017,5.644-4.356,8.46c-0.044-1.554-0.044-3.757-2.494-9.058c-2.422-5.466-2.313-5.278-3.956-7.48
		c-0.352-0.477-0.657-1-1.253-0.868c-0.742,0.166-0.71,0.856-0.596,1.613c1.809,9.901,6.297,19.391,6.678,19.826
		c-0.082,0.732-0.67,1.803-1.29,3.913l-0.479,1.657c-0.407-1.442-0.655-1.91-2.356-6.006c-1.411-3.458-6.196-11.152-7.826-12.186
		c-0.634-0.364-1.141-0.222-1.415,0.176c-0.216,0.341-0.06,0.899,0.044,1.295c0.244,0.97,0.52,1.933,0.813,2.892
		c1.521,4.904,9.341,17.453,9.726,17.595c0.002,0.007-0.008,0.009-0.005,0.018c-0.533,1.409-1.005,3.802-1.29,5.289
		c-0.019-0.048-0.038-0.097-0.066-0.143c-0.408-1.833-8.797-12.144-9.313-12.808c-1.826-2.27-4.494-4.065-7.006-5.293
		c-2.917-1.428-3.139-2.359-4.581-2.594c-1.265-0.13-2,0.679-0.959,2.413c0.978,1.652,10.403,14.473,17.312,18.86
		c2.186,1.419,2.191,1.864,4.067,2.997c-0.638,3.208-0.699,5.403-0.723,8.613c-0.028-0.028-0.242-0.245-0.28-0.236
		c0,0-0.028-0.011-0.049-0.023c0,0,0,0-0.002-0.009l-0.01-0.006c-0.003-0.008-0.003-0.008-0.013-0.015l0.002,0.008
		c-0.022-0.021-0.041-0.026-0.063-0.046c-0.004-0.017-0.015-0.024-0.024-0.031l0.001,0.009c-2.024-1.938-0.608-0.7-2.916-3.535
		c-0.57-0.675-1.604-2.223-1.905-2.57l0.015-0.012c-0.302-0.525-1.488-1.806-2.007-2.477c-1.751-2.419-3.971-4.498-6.855-5.327
		c-1.578-0.502-2.583-0.698-3.77-1.234c-0.325-0.152-1.806-0.917-2.007-0.988c-0.396-0.152-0.998-0.232-1.405-0.255
		c-0.529-0.044-1.55,0.313-1.861,1.001c-0.279,0.653,0.242,1.105,1.028,2.171c0.701,0.949,1.236,1.71,1.881,2.461
		c1.615,1.984,2.068,2.589,4.51,4.904c0.003,0.003,3.527,3.127,3.527,3.127c1.063,0.973,1.738,1.346,3.023,2.013
		c2.16,1.161,4.053,2.951,9.354,3.849c0.104,2.22,0.252,3.831,0.415,5.433c0.042,0.438,0.767,0.653,1.039,0.181
		c0.1-0.146,0.094-0.284,0.078-0.43c-0.128-1.271-0.276-3.017-0.423-5.309c11.824-4.7,12.245-5.244,20.079-11.033
		c0.861-0.626,1.541-1.231,2.265-1.933c0.566-0.557,2.041-1.931,2.096-1.992c0.298-0.312,0.743-0.916,0.607-1.318
		c-0.068-0.231-0.099-0.307-0.354-0.525c-0.325-0.258-0.779-0.222-1.194-0.171c-2.334,0.46-9.559,3.896-15.035,7.341
		c-2.753,1.726-7.903,6.884-8.604,7.745c-0.01-0.099-0.002-1.126-0.002-1.226c-0.066-3.001,0.188-4.983,0.65-7.834
		c4.583-1.022,6.285-1.696,8.265-2.44c0.905-0.331,0.573-0.209,1.457-0.536c6.388-2.337,10.081-4.865,13.774-6.595
		c0.576-0.276,1.108-0.496,1.503-0.835c0.479-0.389,0.733-1.52-1.372-1.716c-4.912-0.491-11.454,1.594-15.552,4.164
		c-0.393,0.245-0.782,0.499-1.164,0.75c-1.519,0.997-2.364,1.14-6.59,5.114c0.728-3.89,0.744-4.036,1.549-6.791
		c2.349-0.524,5.579-1.583,6.864-2.006c5.853-1.899,7.638-3.638,11.675-5.409c0.374-0.15,0.49-0.193,1.321-0.592
		c0.369-0.176,0.533-0.344,0.503-0.769c-0.046-0.48-0.576-0.578-1.054-0.597c-1.59-0.119-6.712,0.672-8.47,1.128
		c-1.164,0.321-1.611,0.489-2.185,0.689c-0.782,0.265-2.01,0.672-3.312,1.212c-1.576,0.615-3.719,2.174-4.418,2.922
		c0.163-1.004,1.655-4.98,1.837-5.542c3.416-0.338,5.225-0.828,8.051-2.498c8.101-4.822,11.149-5.933,11.465-7.096
		c0.129-0.463-0.086-0.88-0.669-0.954c-0.363,0.047-0.313,0.039-0.591,0.141c-0.682,0.271-0.499,0.198-0.916,0.362
		c-4.361,1.552-11.819,2.504-16.316,7.102c0,0,2.375-5.215,4.542-9c3.243,0.333,5.932-1.448,9.749-2.58
		c1.004-0.295,2.087-0.56,3.351-1.308c0.6-0.357,1.574-1.071,1.372-1.743c-0.267-0.894-1.336-0.534-2.271-0.29
		c-0.49,0.136-9.394,2.688-10.579,3.177c1.138-1.793,2.142-3.101,3.199-4.498c4.993-1.95,9.072-5.473,12.364-9.065
		c2.282-2.406,2.967-3.859,4.352-5.692c0.465-0.617,1.08-1.326,0.604-1.843c-0.341-0.396-0.886-0.253-1.376-0.078
		c-1.597,0.501-3.001,1.125-4.331,2.088C308.812,37.285,307.45,38.506,303.45,45.813z"/>
	<path id="XMLID_183_" fill="#6F8E2D" d="M275.57,22.855c0.361,3.293,0.502,4.643,1.061,7.288c-1.296-1.111-3.091-3.268-7.525-4.751
		c-2.26-0.735-3.021-0.809-3.434-0.475c-0.111,0.166-0.134,0.215-0.188,0.296c-0.172,0.514,0.381,1.064,0.803,1.399
		c0.597,0.505,0.385,0.345,0.991,0.838c1.915,1.647,3.272,2.402,5.549,3.45c2.645,1.205,2.945,1.134,4.289,1.304
		c0.935,3.976,1.715,6.163,2.69,9.126c-1.105-1.093-2.626-2.687-8.06-4.829c-5.526-2.283-5.316-2.222-8.026-2.681
		c-0.583-0.103-1.166-0.27-1.505,0.238c-0.423,0.633,0.078,1.11,0.683,1.578c8.145,5.914,17.943,9.68,18.518,9.731
		c0.447,0.586,0.762,1.766,1.771,3.721l0.797,1.53c-1.29-0.762-1.794-0.929-5.853-2.719c-3.408-1.526-12.183-3.787-14.074-3.411
		c-0.71,0.173-0.979,0.627-0.902,1.104c0.079,0.396,0.577,0.691,0.926,0.906c0.846,0.535,1.711,1.041,2.585,1.532
		c4.488,2.497,18.808,6.176,19.183,6.013c0.007,0.005,0.002,0.012,0.009,0.017c0.588,1.388,1.899,3.444,2.72,4.715
		c-0.048-0.021-0.096-0.043-0.147-0.057c-1.561-1.043-14.748-2.71-15.58-2.835c-2.888-0.381-6.058,0.163-8.722,1.007
		c-3.097,0.981-3.9,0.46-5.106,1.287c-1.003,0.78-0.978,1.874,0.973,2.407c1.848,0.521,17.519,3.288,25.545,1.691
		c2.563-0.483,2.872-0.164,5.012-0.639c1.754,2.76,3.225,4.391,5.424,6.728c-0.04,0-0.344-0.01-0.365,0.023
		c0,0-0.028,0.012-0.053,0.017c0,0,0,0-0.007-0.004l-0.012,0.002c-0.007-0.004-0.007-0.004-0.019-0.003l0.007,0.005
		c-0.031,0-0.047,0.009-0.078,0.009c-0.015-0.009-0.026-0.007-0.038-0.005l0.008,0.005c-2.803-0.003-0.925-0.086-4.552-0.542
		c-0.877-0.096-2.694-0.501-3.151-0.544l0.002-0.019c-0.581-0.171-2.323-0.278-3.162-0.406c-2.938-0.542-5.978-0.513-8.636,0.879
		c-1.489,0.727-2.353,1.278-3.579,1.71c-0.343,0.115-1.939,0.583-2.134,0.671c-0.393,0.163-0.883,0.521-1.194,0.786
		c-0.413,0.333-0.904,1.297-0.653,2.009c0.248,0.666,0.937,0.632,2.241,0.86c1.163,0.203,2.076,0.384,3.06,0.482
		c2.539,0.32,3.285,0.445,6.649,0.434c0.004,0,4.709-0.173,4.709-0.173c1.441-0.03,2.189-0.228,3.579-0.632
		c2.364-0.651,4.969-0.663,9.424-3.673c1.606,1.534,2.828,2.596,4.053,3.643c0.331,0.287,1.004-0.057,0.874-0.587
		c-0.028-0.173-0.127-0.27-0.238-0.365c-0.971-0.83-2.283-1.991-3.972-3.548c5.309-11.563,5.236-12.247,6.907-21.843
		c0.189-1.048,0.265-1.956,0.303-2.963c0.025-0.793,0.145-2.806,0.142-2.887c0-0.431-0.095-1.176-0.471-1.373
		c-0.21-0.121-0.283-0.155-0.618-0.136c-0.413,0.039-0.718,0.377-0.982,0.701c-1.371,1.945-4.225,9.417-5.808,15.691
		c-0.8,3.149-0.965,10.437-0.877,11.543c-0.075-0.064-0.78-0.813-0.848-0.885c-2.121-2.125-3.305-3.734-4.938-6.117
		c2.608-3.904,3.375-5.565,4.293-7.471c0.426-0.863,0.271-0.546,0.685-1.393c3.007-6.1,3.934-10.479,5.411-14.281
		c0.226-0.598,0.459-1.124,0.511-1.642c0.077-0.611-0.519-1.606-2.179-0.294c-3.891,3.036-7.185,9.062-8.375,13.75
		c-0.114,0.447-0.221,0.901-0.324,1.346c-0.41,1.771-0.923,2.458-1.235,8.25c-2.16-3.316-2.248-3.434-3.568-5.982
		c1.337-2.001,2.943-4.998,3.581-6.19c2.921-5.416,3.013-7.905,4.711-11.973c0.166-0.368,0.221-0.479,0.546-1.341
		c0.147-0.382,0.148-0.617-0.167-0.903c-0.365-0.316-0.815-0.021-1.174,0.294c-1.232,1.012-4.392,5.122-5.348,6.665
		c-0.62,1.035-0.828,1.466-1.104,2.007c-0.384,0.732-0.99,1.873-1.56,3.163c-0.715,1.534-1.19,4.141-1.178,5.164
		c-0.575-0.838-2.243-4.745-2.498-5.277c2.237-2.603,3.207-4.206,4.099-7.365c2.531-9.083,3.969-11.989,3.394-13.049
		c-0.228-0.425-0.668-0.579-1.142-0.229c-0.23,0.285-0.2,0.245-0.33,0.51c-0.307,0.666-0.225,0.488-0.414,0.896
		c-2.083,4.133-6.819,9.971-6.897,16.401c0,0-1.884-5.412-2.93-9.646c2.575-1.998,3.291-5.143,5.271-8.597
		c0.521-0.906,1.122-1.846,1.521-3.26c0.188-0.672,0.398-1.862-0.211-2.208c-0.81-0.464-1.335,0.536-1.844,1.358
		c-0.261,0.437-4.938,8.43-5.459,9.602c-0.415-2.082-0.592-3.721-0.791-5.462c2.267-4.858,2.784-10.224,2.684-15.095
		c-0.009-3.316-0.517-4.84-0.781-7.122c-0.09-0.768-0.135-1.706-0.834-1.75c-0.521-0.051-0.815,0.428-1.049,0.892
		c-0.81,1.467-1.396,2.886-1.693,4.502C273.561,12.984,273.419,14.809,275.57,22.855z"/>
	<g id="XMLID_55_">
		<path id="XMLID_104_" fill="#FDFCFA" d="M276.44,126.493c-3.189,4.191-7.774,2.799-9.593-0.09
			c-3.652-6.232-3.106-4.596-5.229-10.166c-0.012-0.01-0.023-0.018-0.023-0.043c-0.012-0.008,0-0.023-0.011-0.033
			c-0.611-1.342-1.355-2.744-1.589-4.284c-0.022-0.042-0.034-0.099-0.033-0.147c-4.812,10.926-4.611,11.488-10.22,18.586
			c0,0-0.7,0.692-1.117,1.056c-0.941,0.746-2.092,1.354-3.165,1.765c-4.332,1.998-6.193,0.621-7.103-2.023
			c-0.651-1.668-1.114-3.654-0.27-5.739c1.871-4.616,7.283-10.951,8.911-12.64c-1.758,1.035-10.317,4.547-15.736,4.969
			c-7.793,0.771-10.433-10.755-0.286-16.924c6.354-3.547,16.215-0.568,18.362-0.496c-3.402-1.867-7.737-5.417-8.854-6.389
			c-3.881-3.246-5.43-5.751-2.241-11.659c0.832-1.451,0.881-1.331,1.604-2.247c0.024-0.031,0.023-0.03,0.023-0.03
			s0.319-0.357,1.28-1c6.861-4.028,11.48,4.457,15.489,10.031c-1.522-5.305-3.656-10.548-0.176-16.086
			c0.643-0.999,1.423-1.674,2.783-2.163c3.136-1.273,4.752-0.851,6.404,0.357c4.99,3.57,2.749,5.839,1.469,14.854
			c5.524-8.479,9.509-12.531,16.506-9.16c2.435,1.054,2.822,2.776,2.19,4.833c-1.759,5.99-5.083,8.378-14.142,14.275
			c5.179-1.636,9.06-1.498,13.099-0.533c1.594,0.395,4.493,1.967,4.907,3.756c1.453,5.908-6.234,9.027-8.099,8.846
			c-0.741,0.182-3.363-0.227-4.106-0.287c-2.685-0.143-3.938-0.729-5.511-1.203c1.728,1.076,3.833,2.875,5.549,5.232
			c1.408,1.852,4.524,4.781,1.028,11.549C278.315,123.757,277.379,125.304,276.44,126.493z"/>
		<path id="XMLID_103_" fill="#EFEBEA" d="M276.847,98.797c1.983-0.001,3.508,0.339,5.327,0.816c0.85,0.218,1.888,0.794,2.335-0.144
			c0.217-0.441,0.016-0.905-0.261-0.933c-1.29-0.332-2.65-0.753-4.158-1.03c-1.582-0.264-5.012-0.305-6.615-0.283
			c-0.385-0.014-0.784,0.326-0.881,0.734C272.315,99.136,273.688,98.693,276.847,98.797z"/>
		<path id="XMLID_102_" fill="#EFEBEA" d="M262.165,88.482c0.717-0.377,0.518-0.951,0.409-1.591
			c-0.011-0.009-0.011-0.009-0.011-0.033c0,0-0.129-2.594,0.059-4.534c0.261-0.848,0.118-2.591,0.062-3.368
			c0.026-0.536,0.13-2.026,0.125-2.35c-0.017-0.511-0.083-3.87-0.411-4.129c-0.47-0.371-1.281,0.225-1.232,0.82
			C261.861,81.342,260.004,89.569,262.165,88.482z"/>
		<path id="XMLID_101_" fill="#EFEBEA" d="M264.635,74.221c0.179,0.52,0.279,1.28,0.371,1.82c0,0.025,0.006,0.125,0.022,0.139
			c-0.013,1.395,1.522,0.757,1.448-0.141c-0.125-1.475-0.648-4.418-1.922-3.361c-0.164,0.137-0.295,0.326-0.331,0.539
			C264.064,73.672,264.428,73.862,264.635,74.221z"/>
		<path id="XMLID_100_" fill="#EFEBEA" d="M249.711,94.494c-0.409-0.288-0.964-0.683-1.356-1.048
			c-2.295-2.347-2.382-2.254-4.034-3.478c-0.722-0.507-1.65,0.805-1.025,1.299c4.424,3.258,0.301,0.311,3.34,2.711
			c0.481,0.889,3.074,2.439,3.874,3.011c0.667,0.529,1.671-0.787,1.025-1.297C250.782,95.159,250.667,95.102,249.711,94.494z"/>
		<path id="XMLID_99_" fill="#EFEBEA" d="M269.062,101.856c-0.246-0.121-0.436-0.32-0.745-0.225c-0.396,0.072-0.738,0.529-0.72,0.91
			c-0.001,0.168,0.067,0.391,0.195,0.469c0.987,0.537,1.999,1.021,3.022,1.49c0.772,0.356,1.857,0.934,2.346-0.012
			C273.631,103.53,272.825,103.755,269.062,101.856z"/>
		<path id="XMLID_94_" fill="#EFEBEA" d="M273.473,121.094c-0.51-0.579-0.526-0.683-1.146-1.171
			c-1.128-0.957-2.045-2.047-4.107-4.602c-0.554-0.624-1.285-1.656-1.718-2.619c-0.011-0.033-0.022-0.065-0.046-0.084l0.001-0.024
			c0,0,0,0-0.013-0.009c-0.309-0.754-0.478-1.564-0.587-2.428c0-0.049,0-0.072-0.011-0.105c-0.012-0.01-0.012-0.033-0.012-0.058
			c-0.085-0.726-0.541-2.028-0.779-3.209c-0.162-0.825-1.566-0.263-1.395,0.739c0.135,0.665,0.292,1.322,0.51,1.931
			c0.11,0.325,0.214,0.653,0.248,0.996c0.009,0.026,0.012,0.132,0.022,0.14c0.302,2.328,0.674,3.641,2.95,6.256
			c0.15,0.166,1.946,2.346,2.508,3c1.171,1.377,1.26,1.088,2.051,1.959c0.382,0.447,0.581,0.701,0.996,1.029
			c0.267,0.234,0.745,0.104,1.017-0.239C274.503,121.911,273.957,121.55,273.473,121.094z"/>
		<path id="XMLID_90_" fill="#EFEBEA" d="M243.857,102.739c0.859,0.064,1.308-1.49,0.374-1.522
			c-7.821-0.567-14.562,3.474-15.706,5.502c-0.701,1.015,0.383,1.59,1.01,0.797c0.093-0.212,0.393-0.554,0.424-0.562
			c0,0,0,0,0.012-0.015C234.004,103.359,240.164,102.477,243.857,102.739z"/>
		<path id="XMLID_89_" fill="#EFEBEA" d="M266.715,104.874c-0.164-0.302-0.638-0.316-0.968-0.038
			c-1.123,0.95,0.718,2.458,1.549,3.261c2.481,2.496,7.255,7.628,8.725,11.012c0.223,0.489,1.158,0.188,1.323-0.506
			C277.968,116.322,267.78,106.659,266.715,104.874z"/>
		<path id="XMLID_88_" fill="#EFEBEA" d="M268.323,99.286c-0.878-0.01-1.302,1.452-0.374,1.521c5,0.201,4.27,0.535,6.574,0.979
			c2.559,0.515,2.903,0.244,4.77,0.592c0.355,0.061,2.645,0.324,2.879,0.336c0.656,0.022,1.248-0.953,0.688-1.395
			c-0.353-0.279-6.486-0.748-6.879-0.854c-2.221-0.396-3.16-0.896-5.302-1.062C270.491,99.366,268.484,99.29,268.323,99.286z"/>
		<path id="XMLID_83_" fill="#EFEBEA" d="M245.802,104.856c0.336-0.084,0.483,0.057,0.83-0.241c0.437-0.362,0.485-0.948,0.149-1.214
			c-0.287-0.229-3.03,0.318-3.469,0.385c-0.943,0.18-9.461,2.463-10.087,3.254c-0.49,0.621-0.043,1.33,0.506,1.125
			C242.738,105.013,246.459,104.694,245.802,104.856z"/>
		<path id="XMLID_82_" fill="#EFEBEA" d="M253.149,111.291c0.295-0.349,0.264-0.858,0.02-1.05c-0.79-0.625-1.853,1.177-3.786,3.625
			c-3.093,3.915-3.961,5.342-4.993,7.105c-1.006,1.68-1.015,1.781-1.446,2.833c-1.137,2.645-0.68,1.716-1.37,3.595
			c-0.136,0.354,0.082,0.775,0.495,0.779c0.828-0.033,0.956-1.028,1.312-1.969c0-0.025,0.012-0.04,0.012-0.063
			C244.183,124.347,245.916,119.267,253.149,111.291z"/>
		<path id="XMLID_81_" fill="#EFEBEA" d="M278.585,78.261c-3.153,1.801-5.334,4.328-7.429,6.638
			c-0.679,0.749,0.189,1.707,1.01,0.797c1.302-1.395,3.271-3.934,6.759-6.099c0.188-0.119,0.34-0.241,0.458-0.462
			C279.686,78.35,279.049,77.957,278.585,78.261z"/>
		<path id="XMLID_80_" fill="#EFEBEA" d="M235.271,112.726c1.767-0.473,0.745-0.352,2.831-0.865c1.154-0.285,6.01-2.203,8.278-3.469
			c2.987-1.572,5.572-2.199,5.243-3.395c-0.107-0.393-0.524-0.514-0.86-0.317c-3.202,1.781-12.025,6.021-16.147,6.729
			c-0.001,0-3.471,0.698-3.472,0.698c-0.588,0.144-1.002,1.025-0.524,1.403c0.151,0.119,0.326,0.111,0.513,0.09
			C231.135,113.601,235.27,112.726,235.271,112.726z"/>
		<path id="XMLID_79_" fill="#EFEBEA" d="M273.816,90.901c-0.012,0.016-0.023,0.006-0.035,0.021c0,0-0.29,0.194-1.196,0.727
			c-0.987,0.595-2.436,1.358-1.896,2.138c0.289,0.576,0.999,0.045,1.625-0.413c0.023-0.006,0.036-0.021,0.048-0.036
			c0.011,0.009,0.022-0.006,0.022-0.006c1.556-0.987,0.889-0.463,2.439-1.538c0.785-0.53,4.507-3.514,4.727-4.313
			c0.033-0.268-0.006-0.514-0.193-0.662c-0.671-0.531-1.269,0.68-3.005,2.207c-0.342,0.313-0.717,0.573-1.081,0.843
			C274.742,90.26,273.941,90.819,273.816,90.901z"/>
		<path id="XMLID_78_" fill="#EFEBEA" d="M252.199,88.317c0.144,0.392,1.188,1.97,1.453,2.287c0.279,0.338,0.651,0.301,0.968,0.038
			c0.798-0.65,0.08-1.377-0.403-2.064c-0.786-1.264-0.737-1.26-0.737-1.26c-0.235-0.328-0.498-0.539-0.787-0.768
			c-1.112-0.977-1.909-2.138-2.663-1.183C249.238,86.367,251.023,87.103,252.199,88.317z"/>
		<path id="XMLID_75_" fill="#EFEBEA" d="M262.662,109.694c-0.022-0.092-0.046-0.158-0.056-0.239
			c0.007-0.948,0.204-2.104-0.697-1.884c-0.398,0.1-0.704,0.511-0.72,0.91c-0.03,1.201-0.159,2.83,0.963,2.239
			C262.527,110.532,262.741,110.071,262.662,109.694z"/>
		<path id="XMLID_74_" fill="#EFEBEA" d="M241.211,86.107c-0.046-0.136-0.255-1.455-0.278-1.602c-0.067-0.821-1.56-0.394-1.371,0.71
			c0.245,2.262,0.354,1.722,0.945,2.88c0.486,0.684,0.701,1.574,1.51,0.902c0.165-0.136,0.295-0.325,0.344-0.529
			C242.487,87.868,241.434,86.635,241.211,86.107z"/>
		<path id="XMLID_73_" fill="#EFEBEA" d="M281.882,78.952c-0.336,0.306-4.564,4.634-4.564,4.634
			c-2.374,2.403-1.944,1.63-6.149,5.661c-0.726,0.674-1.573,1.146-1.157,1.823c0.415,0.619,1.123-0.014,1.778-0.654
			c5.496-4.847,7.148-6.664,7.148-6.664c0.003-0.002,3.024-3.113,3.024-3.113c0.084-0.106,0.513-0.493,0.611-0.583
			C283.456,79.259,282.617,78.27,281.882,78.952z"/>
		<path id="XMLID_72_" fill="#EFEBEA" d="M250.134,107.552c-0.259,0.159-0.54,0.35-0.798,0.508
			c-0.887,0.567-2.111,0.931-1.894,1.801c0.264,0.96,2.081-0.267,3.064-0.875C251.558,108.367,251.041,107.044,250.134,107.552z"/>
		<path id="XMLID_71_" fill="#EFEBEA" d="M247.167,88.583c0.012-0.015,0-0.024,0-0.024c2.534,2.934,3.509,3.832,4.746,5.033
			c0.255,0.25,0.746,0.081,1.005-0.248c0.249-0.314,0.32-0.723,0.008-1.035c-0.275-0.282-1.108-1.07-1.134-1.091
			c-0.142-0.414-9.687-9.893-8.708-8.745c-0.559-0.656-1.393-1.575-2.071-0.715c-0.259,0.328-0.311,0.846-0.008,1.035
			C241.403,83.068,246.156,87.422,247.167,88.583z"/>
		<path id="XMLID_70_" fill="#EFEBEA" d="M280.248,104.077l-0.012-0.01c-0.455,0.113-4.235-0.254-4.666-0.292
			c-0.854-0.083-1.329,1.4-0.386,1.513c3.032,0.252,4.181,0.508,5.835,0.102c0.928-0.229,4.023-0.612,4.54-1.527
			c0.272-0.55-0.009-1.182-0.81-0.881C283.254,103.604,281.54,103.759,280.248,104.077z"/>
		<path id="XMLID_69_" fill="#EFEBEA" d="M253.736,119.704c0.35,0.107,0.795-0.123,0.996-0.521c0.61-1.246,1.562-3.586,2.069-4.86
			c0.45-1.087-0.864-1.346-1.246-0.427c-0.321,0.813-0.643,1.625-0.986,2.418C253.729,118.308,252.903,119.418,253.736,119.704z"/>
		<path id="XMLID_68_" fill="#EFEBEA" d="M270.032,122.229c-0.461-0.516-3.292-4.066-3.803-4.725
			c-0.182-0.271-0.603-0.354-0.979-0.047c-0.317,0.282-0.485,0.805-0.277,1.09c0.555,0.705,1.098,1.425,1.699,2.094
			c0.532,0.614,1.005,1.303,1.525,1.932c0.416,0.523,0.855,1.039,1.33,1.487c0.301,0.263,0.579,0.53,0.857,0.823
			c0.255,0.225,0.758,0.066,1.006-0.248c0.142-0.179,0.225-0.379,0.237-0.588C271.608,123.644,270.319,122.536,270.032,122.229z"/>
		<path id="XMLID_67_" fill="#EFEBEA" d="M247.08,126.104c-0.334,0.422-0.275,0.849-0.021,1.05c1.6,1.264,2.329-4.827,9.676-17.707
			c0.491-0.869-0.597-1.479-1.234-0.417c-2.216,3.849-4.765,8.944-6.342,12.464C248.402,123.317,248.264,124.228,247.08,126.104z"/>
		<path id="XMLID_66_" fill="#EFEBEA" d="M280.386,85.21c0.583,0.46,1.157-0.408,1.725-1.182c0.267-0.368,1.392-1.932,1.396-2.339
			c0.006-0.729-0.863-0.744-1.224-0.215C280.3,84.468,279.781,84.732,280.386,85.21z"/>
		<path id="XMLID_65_" fill="#EFEBEA" d="M247.467,83.221c0.43,0.532,0.61,1.379,1.418,0.708c0.784-0.664,0.096-1.645-0.52-2.132
			c-0.163-0.128-1.321-0.736-2.769-1.289c-0.337-0.122-0.782,0.132-0.983,0.531C243.99,82.27,246.683,82.367,247.467,83.221z"/>
		<path id="XMLID_64_" fill="#EFEBEA" d="M265.04,86.441c0.11-1.632,0.005-1.05,0.571-2.821c0.336-1.28,0.354-1.95,0.354-1.95
			c0-0.024,0-0.024,0-0.048c0.108-0.407,0.346-2.532,0.385-2.943c0.166-0.858-1.292-0.848-1.427,0.351
			c0,0.004-0.26,2.162-0.262,2.168c0.012,0.01,0,0.024,0,0.024c-0.317,1.439-0.009,1.023-0.512,2.577
			c-0.833,2.532-0.278,1.985-0.686,4.087c-0.063,0.877,1.264,0.761,1.426-0.231c0-0.024,0-0.024,0-0.024
			c0.012-0.015,0.012-0.015,0.012-0.015S264.968,87.126,265.04,86.441z"/>
		<path id="XMLID_63_" fill="#EFEBEA" d="M267.278,91.189c0.29,0.229,0.735,0.12,1.018-0.238c0.672-0.851,1.379-1.673,2.05-2.5
			c0.684-0.809-0.282-1.692-0.996-0.788C267.955,89.33,266.515,90.586,267.278,91.189z"/>
		<path id="XMLID_62_" fill="#EFEBEA" d="M257.659,81.239c0.181,3.14-0.248,5.543,1.117,4.857c0.387-0.204,0.611-0.655,0.51-1.027
			c0.027-3.472-0.491-1.036,0.027-7.854c0.012-0.015,0.001-0.024,0.012-0.04c0.104-0.798,0.365-1.585-0.384-1.611
			c-0.351-0.01-0.808,0.331-0.881,0.757C257.85,77.737,257.576,79.883,257.659,81.239z"/>
		<path id="XMLID_61_" fill="#F9CB52" d="M266.054,92.065c0.14,0.086,0.29,0.181,0.441,0.252c1.854,1.908,2.253,3.996,0.632,7.091
			c-1.409,2.693-3.841,8.857-11.542,5.979c-1.497-0.49-4.494-1.376-4.469-4.572C251.166,94.469,261.259,88.849,266.054,92.065z"/>
	</g>
	<g>
		<path fill="#86AF47" d="M190.438,146.022c-0.537,0.363-1.058,0.178-1.368-0.213c-0.349-0.084-0.668-0.316-0.827-0.734
			c-5.598-14.615,6.008-27.534,15.934-36.92c0.687-0.648,1.977-0.232,1.947,0.791C205.736,122.773,202.659,137.757,190.438,146.022z
			"/>
		<g>
			<path fill="#65842F" d="M204.279,112.41c-3.181,5.243-5.752,10.593-7.662,16.425c-1.479,4.514-2.779,9.257-6.351,12.605
				c-0.129,0.121-0.316-0.047-0.204-0.187c3.691-4.552,5.041-9.79,7.006-15.191c1.771-4.867,4.117-9.492,7.133-13.707
				C204.232,112.312,204.308,112.364,204.279,112.41L204.279,112.41z"/>
		</g>
		<g>
			<path fill="#65842F" d="M194.918,134.079c-0.216,0.175-0.431,0.349-0.645,0.526c-0.041-0.065-0.084-0.131-0.126-0.196
				c0.791-0.419,1.602-0.801,2.378-1.246c0.781-0.447,1.499-0.99,2.269-1.453c0.197-0.118,0.466,0.162,0.273,0.326
				c-1.344,1.141-3.138,2.063-4.82,2.582c-0.123,0.037-0.219-0.143-0.1-0.209c0.241-0.135,0.48-0.272,0.719-0.411
				C194.921,133.966,194.966,134.041,194.918,134.079L194.918,134.079z"/>
		</g>
		<g>
			<path fill="#65842F" d="M193.739,127.804c0.026,0.043,0.053,0.086,0.079,0.129c0.01,0.015-0.014,0.03-0.023,0.015
				c-0.026-0.043-0.053-0.086-0.079-0.128C193.706,127.804,193.73,127.788,193.739,127.804L193.739,127.804z"/>
		</g>
		<g>
			<path fill="#65842F" d="M193.75,128.128c-0.023-0.469,0.503-0.274,0.616,0.047c0.172,0.488,0.256,0.959,0.52,1.42
				c0.249,0.438,0.576,0.823,0.817,1.264c0.05,0.094-0.041,0.211-0.144,0.158c-0.516-0.262-0.854-0.742-1.103-1.254
				c-0.112-0.23-0.208-0.471-0.281-0.717c-0.052-0.172-0.092-0.346-0.124-0.522c-0.016-0.078-0.11-0.321-0.098-0.38
				C193.928,128.255,193.755,128.248,193.75,128.128L193.75,128.128z"/>
		</g>
		<g>
			<path fill="#65842F" d="M197.428,125.978c0.863-0.33,1.7-0.728,2.539-1.116c0.753-0.349,1.534-0.786,2.372-0.852
				c0.151-0.011,0.255,0.19,0.143,0.302c-1.212,1.201-3.421,1.43-5.015,1.783C197.39,126.112,197.353,126.007,197.428,125.978
				L197.428,125.978z"/>
		</g>
		<g>
			<path fill="#65842F" d="M199.287,115.276c0.209,0.16,0.213,0.387,0.271,0.637c0.082,0.348,0.167,0.688,0.288,1.024
				c0.21,0.579,0.637,1.162,0.722,1.771c0.017,0.125-0.145,0.232-0.251,0.164c-0.562-0.357-0.83-1.154-1.015-1.759
				c-0.138-0.45-0.5-1.429-0.141-1.831C199.195,115.243,199.25,115.247,199.287,115.276L199.287,115.276z"/>
		</g>
		<g>
			<path fill="#65842F" d="M202.313,111.661c0.149,0.486,0.114,0.982-0.119,1.439c-0.063,0.123-0.229,0.027-0.185-0.094
				c0.157-0.432,0.251-0.877,0.264-1.339C202.272,111.646,202.306,111.638,202.313,111.661L202.313,111.661z"/>
		</g>
		<g>
			<path fill="#65842F" d="M201.664,112.834c-0.026,0.152-0.048,0.292-0.111,0.435c-0.027,0.062-0.128,0.039-0.13-0.029
				c-0.004-0.152,0.031-0.292,0.065-0.441C201.514,112.685,201.685,112.721,201.664,112.834L201.664,112.834z"/>
		</g>
		<g>
			<path fill="#65842F" d="M195.901,121.839c0.22,0.297,0.433,0.592,0.578,0.933c0.052,0.122-0.137,0.249-0.226,0.144
				c-0.24-0.283-0.407-0.604-0.574-0.935C195.605,121.831,195.799,121.701,195.901,121.839L195.901,121.839z"/>
		</g>
		<g>
			<path fill="#65842F" d="M195.097,123.226c0.08,0.13,0.159,0.259,0.238,0.388c0.057,0.091-0.083,0.181-0.14,0.09
				c-0.08-0.13-0.159-0.259-0.238-0.388C194.9,123.225,195.04,123.135,195.097,123.226L195.097,123.226z"/>
		</g>
		<g>
			<path fill="#65842F" d="M200.187,129.087c0.32-0.291,0.711-0.436,1.14-0.335c0.094,0.022,0.092,0.183-0.014,0.178
				c-0.369-0.019-0.724,0.056-1.02,0.284C200.219,129.27,200.117,129.151,200.187,129.087L200.187,129.087z"/>
		</g>
		<g>
			<path fill="#65842F" d="M200.643,130.405c0.134-0.135,0.302-0.168,0.441-0.023c0.047,0.047,0.011,0.156-0.066,0.129
				c-0.087-0.04-0.176-0.033-0.269,0.021C200.673,130.587,200.577,130.474,200.643,130.405L200.643,130.405z"/>
		</g>
		<g>
			<path fill="#65842F" d="M190.424,131.394c0.19-0.2,0.678,0.079,0.81,0.245c0.047,0.059-0.012,0.128-0.07,0.138
				C191.064,131.794,190.232,131.595,190.424,131.394L190.424,131.394z"/>
		</g>
	</g>
	<g>
		<path fill="#86AF47" d="M183.253,146.337c-0.381-0.524-0.212-1.051,0.168-1.373c0.072-0.352,0.295-0.679,0.706-0.852
			c14.427-6.072,27.716,5.105,37.42,14.722c0.672,0.664,0.298,1.967-0.727,1.972C206.987,160.868,191.912,158.282,183.253,146.337z"
			/>
		<g>
			<path fill="#65842F" d="M217.299,159.075c-5.344-3.009-10.774-5.403-16.666-7.123c-4.56-1.33-9.343-2.477-12.807-5.936
				c-0.125-0.125,0.037-0.318,0.181-0.21c4.669,3.54,9.947,4.718,15.412,6.507c4.921,1.609,9.62,3.805,13.932,6.682
				C217.396,159.024,217.346,159.101,217.299,159.075L217.299,159.075z"/>
		</g>
		<g>
			<path fill="#65842F" d="M195.335,150.425c-0.181-0.21-0.361-0.42-0.547-0.627c0.064-0.044,0.129-0.088,0.192-0.132
				c0.444,0.776,0.853,1.573,1.323,2.336c0.473,0.767,1.039,1.466,1.525,2.22c0.125,0.193-0.146,0.471-0.315,0.284
				c-1.185-1.306-2.165-3.069-2.738-4.733c-0.042-0.122,0.135-0.224,0.205-0.106c0.143,0.237,0.288,0.47,0.435,0.704
				C195.448,150.425,195.375,150.472,195.335,150.425L195.335,150.425z"/>
		</g>
		<g>
			<path fill="#65842F" d="M201.569,149.042c-0.042,0.027-0.084,0.056-0.127,0.084c-0.015,0.01-0.03-0.014-0.016-0.023
				c0.043-0.027,0.085-0.055,0.127-0.084C201.568,149.01,201.584,149.032,201.569,149.042L201.569,149.042z"/>
		</g>
		<g>
			<path fill="#65842F" d="M201.245,149.063c0.469-0.038,0.292,0.494-0.026,0.617c-0.482,0.188-0.95,0.287-1.401,0.566
				c-0.429,0.264-0.805,0.604-1.238,0.857c-0.091,0.054-0.211-0.033-0.162-0.139c0.245-0.523,0.715-0.878,1.218-1.143
				c0.228-0.119,0.464-0.223,0.707-0.305c0.171-0.057,0.344-0.104,0.518-0.142c0.078-0.017,0.319-0.12,0.377-0.108
				C201.123,149.245,201.126,149.073,201.245,149.063L201.245,149.063z"/>
		</g>
		<g>
			<path fill="#65842F" d="M203.515,152.67c0.358,0.852,0.783,1.675,1.198,2.5c0.374,0.741,0.837,1.509,0.929,2.345
				c0.017,0.15-0.182,0.26-0.296,0.151c-1.241-1.173-1.541-3.373-1.948-4.954C203.379,152.635,203.483,152.595,203.515,152.67
				L203.515,152.67z"/>
		</g>
		<g>
			<path fill="#65842F" d="M214.271,154.179c-0.154,0.214-0.381,0.226-0.628,0.291c-0.345,0.094-0.683,0.189-1.015,0.322
				c-0.571,0.228-1.141,0.674-1.746,0.777c-0.124,0.021-0.236-0.136-0.172-0.245c0.338-0.571,1.126-0.866,1.725-1.071
				c0.446-0.152,1.411-0.547,1.826-0.201C214.301,154.085,214.3,154.14,214.271,154.179L214.271,154.179z"/>
		</g>
		<g>
			<path fill="#65842F" d="M217.983,157.085c-0.481,0.164-0.979,0.146-1.443-0.072c-0.124-0.059-0.035-0.229,0.088-0.188
				c0.438,0.143,0.885,0.222,1.347,0.219C217.997,157.044,218.007,157.077,217.983,157.085L217.983,157.085z"/>
		</g>
		<g>
			<path fill="#65842F" d="M216.79,156.476c-0.153-0.023-0.294-0.039-0.438-0.098c-0.063-0.025-0.044-0.127,0.023-0.131
				c0.153-0.01,0.294,0.021,0.444,0.051C216.934,156.319,216.903,156.491,216.79,156.476L216.79,156.476z"/>
		</g>
		<g>
			<path fill="#65842F" d="M207.602,151.009c-0.289,0.229-0.577,0.451-0.913,0.607c-0.121,0.057-0.253-0.128-0.151-0.22
				c0.275-0.249,0.591-0.427,0.916-0.604C207.601,150.712,207.735,150.901,207.602,151.009L207.602,151.009z"/>
		</g>
		<g>
			<path fill="#65842F" d="M206.188,150.249c-0.127,0.084-0.253,0.168-0.379,0.252c-0.089,0.059-0.184-0.078-0.095-0.137
				c0.127-0.084,0.254-0.168,0.38-0.251C206.184,150.054,206.278,150.19,206.188,150.249L206.188,150.249z"/>
		</g>
		<g>
			<path fill="#65842F" d="M200.497,155.528c0.302,0.311,0.458,0.696,0.372,1.127c-0.019,0.096-0.181,0.098-0.178-0.008
				c0.006-0.369-0.079-0.721-0.316-1.01C200.315,155.566,200.431,155.46,200.497,155.528L200.497,155.528z"/>
		</g>
		<g>
			<path fill="#65842F" d="M199.193,156.026c0.14,0.129,0.179,0.296,0.039,0.441c-0.046,0.048-0.155,0.015-0.132-0.063
				c0.038-0.088,0.028-0.178-0.029-0.269C199.015,156.063,199.125,155.964,199.193,156.026L199.193,156.026z"/>
		</g>
		<g>
			<path fill="#65842F" d="M197.874,145.846c0.206,0.183-0.058,0.681-0.219,0.817c-0.057,0.048-0.129-0.008-0.141-0.066
				C197.494,146.499,197.666,145.661,197.874,145.846L197.874,145.846z"/>
		</g>
	</g>
	<g>
		<path fill="#86AF47" d="M147.483,144.944c0.567,0.313,1.069,0.08,1.342-0.337c0.341-0.116,0.637-0.376,0.759-0.807
			c4.243-15.065-8.49-26.873-19.229-35.315c-0.743-0.584-1.989-0.053-1.868,0.964C130.132,123.185,134.561,137.825,147.483,144.944z
			"/>
		<g>
			<path fill="#65842F" d="M130.639,112.731c3.646,4.932,6.693,10.024,9.126,15.658c1.884,4.361,3.611,8.966,7.473,11.976
				c0.14,0.108,0.312-0.076,0.186-0.204c-4.09-4.197-5.91-9.289-8.359-14.491c-2.206-4.685-4.965-9.077-8.351-13.001
				C130.678,112.628,130.607,112.687,130.639,112.731L130.639,112.731z"/>
		</g>
		<g>
			<path fill="#65842F" d="M141.935,133.458c0.231,0.154,0.462,0.308,0.69,0.465c0.035-0.068,0.071-0.138,0.106-0.207
				c-0.825-0.345-1.666-0.651-2.48-1.023c-0.819-0.375-1.582-0.85-2.392-1.24c-0.208-0.1-0.45,0.203-0.242,0.349
				c1.441,1.015,3.312,1.769,5.035,2.132c0.125,0.027,0.204-0.162,0.079-0.217c-0.252-0.111-0.502-0.227-0.752-0.344
				C141.921,133.346,141.885,133.425,141.935,133.458L141.935,133.458z"/>
		</g>
		<g>
			<path fill="#65842F" d="M142.537,127.101c-0.021,0.045-0.045,0.091-0.067,0.136c-0.008,0.017,0.018,0.028,0.024,0.014
				c0.022-0.046,0.045-0.091,0.067-0.136C142.57,127.099,142.545,127.085,142.537,127.101L142.537,127.101z"/>
		</g>
		<g>
			<path fill="#65842F" d="M142.557,127.425c-0.021-0.47-0.525-0.228-0.61,0.103c-0.126,0.503-0.167,0.979-0.388,1.462
				c-0.209,0.457-0.499,0.872-0.698,1.334c-0.043,0.098,0.06,0.205,0.156,0.144c0.49-0.308,0.784-0.818,0.984-1.349
				c0.091-0.241,0.164-0.488,0.215-0.74c0.036-0.176,0.061-0.353,0.076-0.531c0.008-0.08,0.081-0.331,0.062-0.387
				C142.391,127.568,142.562,127.546,142.557,127.425L142.557,127.425z"/>
		</g>
		<g>
			<path fill="#65842F" d="M138.697,125.618c-0.89-0.25-1.76-0.569-2.63-0.88c-0.781-0.279-1.6-0.644-2.439-0.632
				c-0.152,0.002-0.236,0.212-0.114,0.313c1.316,1.086,3.536,1.113,5.156,1.32C138.749,125.749,138.775,125.64,138.697,125.618
				L138.697,125.618z"/>
		</g>
		<g>
			<path fill="#65842F" d="M135.871,115.13c-0.192,0.18-0.176,0.406-0.211,0.66c-0.05,0.354-0.104,0.7-0.194,1.046
				c-0.155,0.595-0.527,1.215-0.557,1.829c-0.006,0.125,0.164,0.219,0.266,0.141c0.525-0.406,0.721-1.225,0.85-1.844
				c0.097-0.461,0.367-1.468-0.026-1.838C135.961,115.09,135.906,115.098,135.871,115.13L135.871,115.13z"/>
		</g>
		<g>
			<path fill="#65842F" d="M132.529,111.806c-0.104,0.498-0.024,0.99,0.251,1.424c0.073,0.115,0.23,0.006,0.175-0.111
				c-0.195-0.416-0.33-0.85-0.385-1.309C132.567,111.788,132.535,111.781,132.529,111.806L132.529,111.806z"/>
		</g>
		<g>
			<path fill="#65842F" d="M133.283,112.915c0.04,0.148,0.073,0.287,0.149,0.422c0.033,0.06,0.132,0.027,0.127-0.039
				c-0.01-0.154-0.059-0.289-0.104-0.435C133.419,112.753,133.252,112.804,133.283,112.915L133.283,112.915z"/>
		</g>
		<g>
			<path fill="#65842F" d="M139.841,121.358c-0.191,0.314-0.377,0.627-0.49,0.98c-0.041,0.127,0.158,0.235,0.237,0.123
				c0.213-0.305,0.351-0.639,0.486-0.982C140.135,121.323,139.931,121.212,139.841,121.358L139.841,121.358z"/>
		</g>
		<g>
			<path fill="#65842F" d="M140.769,122.666c-0.067,0.136-0.135,0.272-0.202,0.407c-0.047,0.096,0.1,0.173,0.147,0.076
				c0.067-0.135,0.135-0.271,0.202-0.406C140.963,122.647,140.816,122.571,140.769,122.666L140.769,122.666z"/>
		</g>
		<g>
			<path fill="#65842F" d="M136.233,128.966c-0.345-0.262-0.748-0.368-1.164-0.229c-0.093,0.03-0.075,0.19,0.029,0.175
				c0.365-0.051,0.725-0.01,1.041,0.189C136.218,129.151,136.309,129.023,136.233,128.966L136.233,128.966z"/>
		</g>
		<g>
			<path fill="#65842F" d="M135.899,130.321c-0.146-0.123-0.315-0.141-0.442,0.016c-0.042,0.053,0.005,0.156,0.079,0.123
				c0.083-0.049,0.172-0.05,0.27-0.004C135.886,130.504,135.972,130.382,135.899,130.321L135.899,130.321z"/>
		</g>
		<g>
			<path fill="#65842F" d="M146.166,130.374c-0.208-0.182-0.668,0.141-0.784,0.317c-0.04,0.063,0.023,0.126,0.083,0.132
				C145.564,130.831,146.374,130.557,146.166,130.374L146.166,130.374z"/>
		</g>
	</g>
	<g>
		<path fill="#86AF47" d="M154.668,144.603c0.331-0.557,0.115-1.066-0.293-1.353c-0.104-0.344-0.355-0.647-0.781-0.784
			c-14.919-4.732-27.135,7.609-35.924,18.068c-0.607,0.723-0.116,1.986,0.903,1.897
			C132.354,161.235,147.132,157.286,154.668,144.603z"/>
		<g>
			<path fill="#65842F" d="M121.924,160.388c5.048-3.482,10.237-6.361,15.948-8.61c4.418-1.74,9.078-3.316,12.212-7.078
				c0.113-0.136-0.066-0.313-0.198-0.192c-4.328,3.951-9.478,5.605-14.756,7.883c-4.755,2.052-9.234,4.666-13.266,7.922
				C121.821,160.347,121.878,160.418,121.924,160.388L121.924,160.388z"/>
		</g>
		<g>
			<path fill="#65842F" d="M143.008,149.774c0.161-0.227,0.322-0.451,0.487-0.674c-0.068-0.039-0.136-0.076-0.204-0.115
				c-0.371,0.814-0.705,1.645-1.104,2.447c-0.401,0.807-0.901,1.553-1.317,2.35c-0.107,0.203,0.188,0.455,0.34,0.254
				c1.061-1.408,1.876-3.254,2.296-4.965c0.03-0.124-0.155-0.209-0.215-0.086c-0.119,0.248-0.244,0.494-0.367,0.741
				C142.895,149.782,142.973,149.823,143.008,149.774L143.008,149.774z"/>
		</g>
		<g>
			<path fill="#65842F" d="M136.674,148.964c0.044,0.024,0.089,0.048,0.133,0.072c0.017,0.008,0.029-0.016,0.014-0.024
				c-0.045-0.023-0.089-0.048-0.134-0.071C136.671,148.933,136.658,148.956,136.674,148.964L136.674,148.964z"/>
		</g>
		<g>
			<path fill="#65842F" d="M136.998,148.956c-0.47,0.005-0.245,0.518,0.083,0.611c0.497,0.145,0.972,0.201,1.447,0.436
				c0.451,0.225,0.855,0.529,1.311,0.742c0.096,0.046,0.207-0.053,0.149-0.151c-0.293-0.5-0.792-0.81-1.316-1.027
				c-0.238-0.099-0.483-0.18-0.732-0.239c-0.175-0.041-0.351-0.072-0.528-0.094c-0.08-0.01-0.329-0.092-0.386-0.074
				C137.136,149.126,137.118,148.955,136.998,148.956L136.998,148.956z"/>
		</g>
		<g>
			<path fill="#65842F" d="M135.066,152.755c-0.278,0.88-0.627,1.738-0.965,2.598c-0.305,0.773-0.696,1.578-0.712,2.42
				c-0.003,0.151,0.204,0.242,0.309,0.123c1.129-1.279,1.228-3.498,1.488-5.11C135.199,152.706,135.091,152.677,135.066,152.755
				L135.066,152.755z"/>
		</g>
		<g>
			<path fill="#65842F" d="M124.492,155.235c0.173,0.199,0.399,0.19,0.651,0.234c0.352,0.061,0.697,0.125,1.04,0.227
				c0.589,0.176,1.196,0.568,1.81,0.617c0.125,0.01,0.224-0.158,0.149-0.261c-0.39-0.539-1.201-0.761-1.815-0.91
				c-0.458-0.11-1.455-0.415-1.837-0.033C124.453,155.146,124.461,155.2,124.492,155.235L124.492,155.235z"/>
		</g>
		<g>
			<path fill="#65842F" d="M121.06,158.468c0.495,0.121,0.988,0.057,1.431-0.203c0.119-0.07,0.015-0.23-0.104-0.179
				c-0.423,0.181-0.86,0.302-1.32,0.341C121.043,158.43,121.036,158.462,121.06,158.468L121.06,158.468z"/>
		</g>
		<g>
			<path fill="#65842F" d="M122.193,157.752c0.15-0.036,0.29-0.064,0.426-0.136c0.062-0.031,0.033-0.131-0.035-0.129
				c-0.152,0.004-0.289,0.049-0.437,0.092C122.036,157.61,122.081,157.778,122.193,157.752L122.193,157.752z"/>
		</g>
		<g>
			<path fill="#65842F" d="M130.847,151.472c0.308,0.203,0.614,0.397,0.963,0.522c0.125,0.044,0.241-0.151,0.131-0.233
				c-0.297-0.223-0.627-0.371-0.967-0.518C130.82,151.177,130.702,151.378,130.847,151.472L130.847,151.472z"/>
		</g>
		<g>
			<path fill="#65842F" d="M132.184,150.587c0.134,0.072,0.267,0.145,0.4,0.216c0.094,0.05,0.175-0.095,0.081-0.145
				c-0.133-0.071-0.267-0.144-0.4-0.216C132.171,150.393,132.089,150.536,132.184,150.587L132.184,150.587z"/>
		</g>
		<g>
			<path fill="#65842F" d="M138.332,155.325c-0.272,0.338-0.393,0.736-0.268,1.156c0.027,0.094,0.188,0.082,0.176-0.023
				c-0.04-0.367,0.014-0.725,0.224-1.033C138.516,155.347,138.392,155.253,138.332,155.325L138.332,155.325z"/>
		</g>
		<g>
			<path fill="#65842F" d="M139.676,155.704c-0.127,0.141-0.151,0.311,0.001,0.441c0.051,0.045,0.156,0.002,0.126-0.073
				c-0.046-0.085-0.045-0.175,0.005-0.271C139.858,155.724,139.738,155.634,139.676,155.704L139.676,155.704z"/>
		</g>
		<g>
			<path fill="#65842F" d="M140.063,145.444c-0.189,0.201,0.119,0.672,0.291,0.794c0.062,0.043,0.128-0.019,0.135-0.079
				C140.499,146.061,140.253,145.242,140.063,145.444L140.063,145.444z"/>
		</g>
	</g>
	<g>
		<path id="XMLID_52_" fill="#6F8E2D" d="M230.154,115.721c0.01,2.706,0.054,6.112-1.617,10.827
			c1.029-0.814,0.899-0.691,2.972-2.059c0.344-5.969,10.376-15.464,15.796-11.137c4.334,3.877-4.873,14.475-14.493,13.258
			c-0.465,0.166-2.022,1.232-2.427,1.51c8.254-0.15,18.541,5.387,13.771,9.723c-3.141,3.115-13.595,1.176-16.427-8.146
			c-1.178,0.701-2.601,1.44-3.827,2.023c0.427,0.14,2.489,2.196,2.834,2.527c14.408,13.943,2.809,19.563-2.895,10.613
			c-2.8-4.391-1.988-10.59-2.073-12.004l-0.235,0.002c-1.374,0.706-3.482,1.639-4.744,2.164c9.356,23.137-0.996,25.567-3.944,23.941
			c-1.687-0.898-2.516-4.686-2.569-6.775c-0.054-2.418,2.403-13.777,3.162-15.776c-0.558,0.38-3.963,1.725-4.595,1.968l0.08,0.366
			c-1.414,24.29-15.81,21.301-7.716,6.946c2.223-3.994,1.101-2.861,3.486-5.907c-9.146,3.634-35.897,10.313-34.49,6.996
			c-0.76-3.093,9.912-0.206,33.358-9.263c-2.128-0.08-6.643-2.557-8.463-3.611c-2.692-1.541-2.925-3.955-1.832-5.117
			c1.121-1.438,1.751-1.727,5.642,0.451c6.342,3.676,7.571,4.381,8.643,6.949c4.184-1.665,5.686-2.396,5.686-2.396
			c-0.563-0.039-2.795-0.635-3.961-1.203c-0.024,0.007-0.182-0.129-0.189-0.16c-3.377-0.857-6.027-2.408-5.97-6.08
			c0.04-1.713,0.537-3.688,2.152-4.279c5.322-2.259,8.311,6.682,10.253,11.011c0.886-0.496,2.786-1.191,4.359-1.89
			c-0.497-0.18-0.787-0.363-1.079-0.556c-3.571-2.501-5.47-3.341-6.504-8.333c-1.634-8.844,4.087-10.842,6.632-7.941
			c2.646,3.045,5.356,9.371,4.262,15.309c0,0,1.67-0.893,3.485-1.958c-6.312-8.95-5.978-20.419-0.291-20.545
			C230.523,107.074,230.148,111.624,230.154,115.721z"/>
	</g>
	<g>
		<path id="XMLID_51_" fill="#6F8E2D" d="M105.567,116.085c-0.037,2.705-0.118,6.111,1.504,10.843
			c-1.021-0.825-0.892-0.7-2.949-2.089c-0.281-5.973-10.215-15.572-15.68-11.303c-4.373,3.832,4.722,14.525,14.354,13.408
			c0.462,0.172,2.008,1.255,2.411,1.537c-8.252-0.238-18.597,5.191-13.872,9.576c3.107,3.148,13.582,1.318,16.512-7.974
			c1.17,0.714,2.584,1.468,3.806,2.063c-0.429,0.136-2.513,2.171-2.861,2.496c-14.554,13.793-3.013,19.533,2.783,10.645
			c2.846-4.361,2.1-10.568,2.198-11.98l0.235,0.004c1.367,0.721,3.465,1.674,4.723,2.214c-9.599,23.038,0.728,25.575,3.692,23.979
			c1.696-0.88,2.565-4.658,2.641-6.746c0.079-2.418-2.258-13.803-2.996-15.809c0.553,0.385,3.944,1.766,4.574,2.015l-0.084,0.366
			c1.158,24.303,15.585,21.465,7.642,7.025c-2.181-4.017-1.071-2.871-3.424-5.942c9.107,3.729,35.787,10.689,34.415,7.356
			c0.792-3.084-9.909-0.311-33.26-9.609c2.129-0.059,6.669-2.488,8.5-3.523c2.709-1.514,2.967-3.925,1.886-5.099
			c-1.106-1.45-1.732-1.745-5.646,0.392c-6.38,3.611-7.616,4.302-8.716,6.859c-4.165-1.709-5.66-2.455-5.66-2.455
			c0.563-0.035,2.802-0.606,3.974-1.162c0.025,0.006,0.184-0.129,0.191-0.158c3.386-0.824,6.052-2.346,6.033-6.018
			c-0.023-1.713-0.498-3.693-2.107-4.303c-5.298-2.313-8.381,6.594-10.367,10.904c-0.881-0.506-2.773-1.222-4.34-1.938
			c0.498-0.174,0.79-0.354,1.085-0.543c3.597-2.463,5.504-3.283,6.591-8.264c1.726-8.826-3.974-10.885-6.548-8.012
			c-2.679,3.018-5.456,9.316-4.422,15.264c0,0-1.661-0.91-3.465-1.994c6.405-8.883,6.19-20.355,0.506-20.541
			C105.289,107.435,105.616,111.987,105.567,116.085z"/>
	</g>
	<g id="XMLID_12_">
		<g id="XMLID_14_">
			<path id="XMLID_30_" fill="#FDFCFA" d="M280.927,63.643c0-0.012-0.006-0.017,0-0.024c0.233-1.487,0.444-2.108,0.438-2.66
				c2,3.064,3.88,7.19,11.309,9.363c7.013,1.964-0.813-7.791-8.62-12.369c2.693,0.127,2.993,0.291,6.473-0.25
				c3.618-0.496,3.857-0.424,5.913-1.149c2.502-0.942,1.694-0.455,4.555-2.184c0.277-0.169,0.618-0.346,0.709-0.632
				c0.08-0.258-0.023-0.513-0.383-0.653c-1.313-0.552-4.01-0.421-5.177-0.415l-0.007-0.005c-0.012,0.001-0.025,0.003-0.045-0.001
				c-1.291,0.135-3.1-0.866-9.797,0.613c-0.012,0.012-0.056,0.019-0.071,0.024c0.007-0.006,0.007-0.006,0.013-0.013
				c-0.402,0.102-0.914,0.189-1.16,0.214c2.723-1.528,6.245-5.427,6.713-6.215c0.406-0.716,1.135-2.805,1.398-3.325l0.007-0.007
				c0,0,0-0.012,0.006-0.019c0.15-0.356,0.301-0.712,0.42-1.072c0.181-0.561,0.587-1.565,0.58-2.105
				c-0.024-0.675-0.425-0.975-0.795-0.981c-0.442-0.002-0.87,0.188-1.235,0.446c-1.443,0.944-7.838,7.939-9.417,9.559
				c0.172-0.848,0.083-1.691,0.109-2.55c0.059-1.979,0.229-1.862-0.021-3.084c-0.346-1.919-7.227-14.143-7.139-7.215
				c-0.001,1.004,0.176,1.362,0.411,2.279c0.245,0.939,0.651,5.852,2.109,9.254c-2.375-2.322-4.681-3.74-6.188-4.705
				c-3.335-2.137-3.891-2.084-5.389-2.302c-0.544-0.084-1.098-0.094-1.184,0.452c-0.141,1.098,5.671,8.402,6.467,9.237
				c-5.872-1.336-9.232-1.996-15.565-0.063c-2.248,0.681-3.507,0.906-3.093,1.744c0.322,0.56,1.967,1.055,3.862,1.867
				c1.982,0.765,6.583,1.675,10.365,1.743c1.79,0.003,2.557,0.433,4,0.396c-8.281,3.67-8.354,4.254-10.178,5.688
				c0.018-0.007,0.037-0.026,0.057-0.035c-0.352,0.281-2.531,1.922-2.699,2.278c-0.496,1.244,1.583,0.664,2.914,0.344
				c0.007,0.005,0.007,0.005,0.013-0.001l0.013,0c0.006-0.008,0.006-0.008,0.013-0.002c0,0,0.007-0.007,0.014-0.001
				c5.645-1.18,6.444-1.608,7.707-2.3c0.013-0.001,0.02-0.007,0.026-0.014c0.013-0.001,0.032-0.009,0.038-0.016
				c2.393-0.783,3.366-1.762,5.413-2.814c0.006,0.005,0.006,0.005,0,0.012c-0.024,0.344-0.137,0.652-0.266,0.985
				c-0.362,0.875-0.722,1.778-0.844,2.721c-0.085,0.755-0.092,0.949-0.092,0.949c0,0.012-0.006,0.02-0.006,0.02l0.006,0.005
				c-0.006,0.018-0.006,0.018-0.006,0.03c-0.007,0.007,0,0.012,0,0.012c-0.362,2.591-1.064,11.43,1.578,10.027
				c1.395-0.756,1.96-2.866,2.518-3.747C279.772,67.498,280.412,67.435,280.927,63.643z"/>
			<path id="XMLID_28_" fill="#EFEBEA" d="M285.384,55.994c1.929-0.224,8.062-0.844,10.426-0.973
				c0.496-0.024,0.549-0.759-0.009-0.716c-0.404,0.021-10.431,0.821-10.702,1.101C284.859,55.65,285.016,56.031,285.384,55.994z"/>
			<path id="XMLID_26_" fill="#EFEBEA" d="M289.768,67.221c0.38,0.302,0.929-0.26,0.549-0.562c-0.617-0.491-1.095-0.93-1.615-1.507
				c0.006,0.005,0,0.012,0.006,0.017c-2.771-3.124-4.123-4.249-5.323-5.295c-1.888-1.632-2.067-2.197-2.518-1.737
				c-0.445,0.458,0.445,0.924,3.186,3.372c1.798,1.611,3.641,3.742,4.44,4.582C288.883,66.509,289.368,66.902,289.768,67.221z"/>
			<path id="XMLID_25_" fill="#EFEBEA" d="M271.891,53.815c0.282,0.069,0.634-0.297,0.438-0.58c-0.341-0.454-4.729-0.938-5.37-0.988
				c-2.103-0.193-3.488-0.133-4.979-0.035c-0.31,0.018-2.421,0.116-2.639,0.338c-0.272,0.278-0.023,0.631,0.279,0.582
				c1.232-0.18,4.521-0.422,7.153-0.173C269.044,53.167,269.672,53.221,271.891,53.815z"/>
			<path id="XMLID_24_" fill="#EFEBEA" d="M288.399,47.763c0.013-0.024,0.031-0.044,0.051-0.064c0-0.012,0.099-0.125,0.09-0.115
				c0.809-1.101,1.169-1.552,2.247-2.614c0.147-0.15,0.145-0.385-0.013-0.51c-0.542-0.432-2.347,2.086-2.815,2.672v0.012
				c-0.002,0.001-0.293,0.383-0.293,0.383s-0.486,0.799-3.761,4.094c-0.374,0.383,0.203,0.826,0.568,0.452
				c0.676-0.693,1.364-1.376,2.035-2.086c0.573-0.612,1.135-1.235,1.643-1.898C288.143,48.098,288.302,47.863,288.399,47.763z"/>
			<path id="XMLID_22_" fill="#EFEBEA" d="M275.025,50.175c0.284,0.277,0.925-0.142,0.555-0.569
				c-2.597-2.639-6.185-6.059-6.331-6.213c-0.199-0.194-0.678-0.033-0.675,0.323c0.004,0.244,1.741,1.839,1.92,2.005
				C272.72,47.73,273.35,48.46,275.025,50.175z"/>
			<path id="XMLID_21_" fill="#EFEBEA" d="M265.55,62.304c0.501-0.229,1.016-0.435,1.51-0.681c2.608-1.306,2.648-1.574,4.603-2.506
				c0.007-0.006,0.026-0.015,0.032-0.021c0.869-0.37,0.509-0.214,1.376-0.508c0.479-0.143,0.341-0.822-0.201-0.671
				c-1.65,0.505-2.806,1.195-4.292,2.103c-1.344,0.792-3.423,1.726-3.423,1.726c-0.078,0.081-0.13,0.219-0.1,0.35
				C265.11,62.267,265.351,62.389,265.55,62.304z"/>
			<path id="XMLID_20_" fill="#EFEBEA" d="M276.788,70.133c0.217-0.381,0.302-0.496,0.491-1.003
				c0.837-2.458,2.261-10.929,0.572-9.199c-0.219,0.225-0.045,0.484,0.023,0.797c0.003,0.057-0.225,3.395-0.259,3.431
				c-0.334,1.893-0.774,4.355-1.523,5.688C275.848,70.3,276.532,70.564,276.788,70.133z"/>
			<path id="XMLID_19_" fill="#EFEBEA" d="M277.084,38.383c-0.216,0.141-0.246,0.353-0.142,0.515
				c2.167,3.31,2.858,8.642,2.569,11.352c-0.049,0.192,0.07,0.381,0.283,0.411c1.252,0.154,0.268-5.21,0.009-6.348
				c-0.296-1.447-0.046-1.803-1.39-4.511c0-0.011,0-0.023-0.013-0.033c-0.073-0.163-0.18-0.317-0.271-0.472
				C277.872,38.857,277.571,38.077,277.084,38.383z"/>
			<path id="XMLID_17_" fill="#F9CB52" d="M281.362,54.299c0.482-1.041,0.052-2.519-1.79-2.494c-0.376-0.07-2.063,0.004-2.242,0.027
				c-2.757,0.286-3.747,2.395-2.824,3.597C275.584,58.393,280.854,56.083,281.362,54.299z"/>
		</g>
	</g>
	<g id="XMLID_4_">
		<g id="XMLID_5_">
			<path id="XMLID_23_" fill="#FDFCFA" d="M295.708,84.863c0-0.007-0.003-0.01,0-0.014c0.138-0.883,0.264-1.251,0.261-1.579
				c1.187,1.819,2.302,4.268,6.712,5.557c4.162,1.167-0.482-4.624-5.116-7.341c1.598,0.076,1.775,0.173,3.842-0.148
				c2.146-0.294,2.289-0.252,3.51-0.682c1.485-0.56,1.005-0.27,2.703-1.295c0.164-0.101,0.367-0.206,0.421-0.375
				c0.048-0.153-0.014-0.305-0.228-0.388c-0.779-0.327-2.38-0.25-3.072-0.246l-0.004-0.003c-0.008,0.001-0.016,0.001-0.026-0.001
				c-0.767,0.08-1.841-0.513-5.815,0.365c-0.007,0.006-0.033,0.011-0.042,0.014c0.003-0.003,0.003-0.003,0.007-0.007
				c-0.239,0.061-0.542,0.113-0.688,0.127c1.616-0.907,3.707-3.221,3.984-3.689c0.241-0.425,0.673-1.665,0.83-1.974l0.004-0.004
				c0,0,0-0.007,0.004-0.011c0.09-0.211,0.179-0.423,0.249-0.636c0.107-0.333,0.349-0.93,0.345-1.25
				c-0.015-0.4-0.253-0.578-0.473-0.582c-0.262-0.001-0.516,0.112-0.733,0.265c-0.855,0.561-4.651,4.712-5.589,5.674
				c0.103-0.504,0.05-1.004,0.065-1.514c0.034-1.174,0.136-1.105-0.013-1.83c-0.205-1.14-4.29-8.395-4.237-4.283
				c-0.001,0.596,0.104,0.808,0.243,1.352c0.146,0.558,0.388,3.475,1.254,5.493c-1.41-1.378-2.779-2.219-3.674-2.792
				c-1.979-1.27-2.31-1.237-3.198-1.367c-0.322-0.05-0.651-0.056-0.702,0.268c-0.084,0.652,3.366,4.987,3.838,5.483
				c-3.485-0.794-5.479-1.185-9.239-0.038c-1.333,0.404-2.081,0.537-1.836,1.035c0.192,0.333,1.168,0.626,2.293,1.109
				c1.177,0.454,3.908,0.994,6.152,1.035c1.063,0.001,1.518,0.257,2.375,0.234c-4.916,2.178-4.959,2.525-6.041,3.376
				c0.01-0.004,0.021-0.016,0.033-0.021c-0.209,0.167-1.502,1.141-1.603,1.352c-0.294,0.739,0.94,0.394,1.729,0.205
				c0.005,0.003,0.005,0.003,0.008,0l0.008-0.001c0.004-0.004,0.004-0.004,0.008-0.001c0,0,0.004-0.004,0.008-0.001
				c3.35-0.7,3.825-0.955,4.574-1.365c0.008,0,0.013-0.004,0.016-0.008c0.008,0,0.019-0.005,0.022-0.009
				c1.421-0.464,1.998-1.046,3.213-1.67c0.005,0.004,0.005,0.004,0,0.008c-0.014,0.204-0.081,0.387-0.157,0.584
				c-0.215,0.52-0.429,1.056-0.5,1.615c-0.052,0.448-0.055,0.564-0.055,0.564c0,0.007-0.004,0.011-0.004,0.011l0.004,0.004
				c-0.004,0.01-0.004,0.01-0.004,0.017c-0.004,0.004,0,0.007,0,0.007c-0.215,1.538-0.632,6.784,0.937,5.952
				c0.827-0.449,1.163-1.701,1.495-2.224C295.023,87.152,295.403,87.114,295.708,84.863z"/>
			<path id="XMLID_18_" fill="#EFEBEA" d="M298.354,80.323c1.146-0.132,4.785-0.5,6.188-0.577c0.294-0.015,0.325-0.451-0.006-0.425
				c-0.239,0.012-6.19,0.487-6.352,0.653C298.043,80.12,298.135,80.346,298.354,80.323z"/>
			<path id="XMLID_16_" fill="#EFEBEA" d="M300.955,86.987c0.227,0.18,0.552-0.154,0.326-0.333c-0.365-0.292-0.65-0.552-0.959-0.895
				c0.004,0.003,0,0.007,0.004,0.01c-1.646-1.854-2.448-2.521-3.159-3.143c-1.121-0.969-1.228-1.304-1.495-1.031
				c-0.265,0.272,0.265,0.548,1.891,2.001c1.067,0.956,2.161,2.221,2.636,2.72C300.431,86.565,300.719,86.798,300.955,86.987z"/>
			<path id="XMLID_13_" fill="#EFEBEA" d="M290.345,79.031c0.167,0.041,0.376-0.176,0.261-0.344
				c-0.203-0.27-2.808-0.557-3.188-0.586c-1.248-0.114-2.069-0.079-2.954-0.021c-0.185,0.01-1.438,0.069-1.566,0.201
				c-0.162,0.166-0.014,0.375,0.166,0.346c0.73-0.107,2.684-0.25,4.245-0.103C288.654,78.646,289.027,78.678,290.345,79.031z"/>
			<path id="XMLID_11_" fill="#EFEBEA" d="M300.143,75.438c0.008-0.015,0.02-0.026,0.031-0.038c0-0.007,0.059-0.074,0.053-0.068
				c0.48-0.653,0.694-0.921,1.334-1.551c0.088-0.09,0.086-0.229-0.008-0.303c-0.321-0.256-1.393,1.238-1.671,1.586v0.007
				c-0.001,0.001-0.174,0.228-0.174,0.228s-0.288,0.474-2.231,2.43c-0.223,0.228,0.119,0.49,0.337,0.269
				c0.401-0.412,0.81-0.818,1.208-1.239c0.34-0.363,0.674-0.732,0.975-1.126C299.991,75.637,300.086,75.498,300.143,75.438z"/>
			<path id="XMLID_10_" fill="#EFEBEA" d="M292.205,76.87c0.169,0.165,0.549-0.084,0.329-0.337
				c-1.541-1.566-3.671-3.596-3.757-3.688c-0.119-0.115-0.403-0.02-0.401,0.192c0.003,0.144,1.034,1.091,1.14,1.19
				C290.837,75.419,291.211,75.852,292.205,76.87z"/>
			<path id="XMLID_9_" fill="#EFEBEA" d="M286.581,84.068c0.297-0.135,0.603-0.257,0.896-0.403c1.548-0.775,1.571-0.935,2.731-1.487
				c0.004-0.004,0.016-0.009,0.019-0.013c0.517-0.22,0.303-0.126,0.817-0.301c0.285-0.085,0.203-0.488-0.119-0.398
				c-0.98,0.299-1.666,0.709-2.548,1.248c-0.798,0.469-2.031,1.024-2.031,1.024c-0.047,0.047-0.077,0.13-0.059,0.208
				C286.32,84.047,286.463,84.119,286.581,84.068z"/>
			<path id="XMLID_8_" fill="#EFEBEA" d="M293.252,88.716c0.128-0.226,0.179-0.294,0.291-0.595c0.497-1.458,1.342-6.487,0.34-5.46
				c-0.13,0.133-0.026,0.287,0.014,0.473c0.002,0.033-0.133,2.015-0.153,2.036c-0.199,1.124-0.46,2.584-0.904,3.376
				C292.693,88.815,293.1,88.972,293.252,88.716z"/>
			<path id="XMLID_7_" fill="#EFEBEA" d="M293.428,69.871c-0.129,0.083-0.147,0.209-0.085,0.305
				c1.286,1.965,1.696,5.129,1.525,6.738c-0.029,0.114,0.042,0.226,0.168,0.245c0.743,0.091,0.159-3.093,0.006-3.768
				c-0.177-0.859-0.027-1.07-0.825-2.678c0-0.006,0-0.013-0.008-0.02c-0.043-0.096-0.106-0.188-0.161-0.28
				C293.896,70.152,293.717,69.689,293.428,69.871z"/>
			<path id="XMLID_6_" fill="#F9CB52" d="M295.967,79.317c0.287-0.618,0.03-1.495-1.063-1.479c-0.224-0.042-1.226,0.002-1.331,0.016
				c-1.636,0.169-2.225,1.421-1.676,2.134C292.537,81.748,295.665,80.376,295.967,79.317z"/>
		</g>
	</g>
	<g id="XMLID_105_">
		<path id="XMLID_182_" fill="#FDFCFA" d="M56.652,117.112c-3.271-4.128-0.788-8.227,2.46-9.273
			c6.942-1.997,5.222-1.873,11.144-2.553c0.012-0.009,0.023-0.018,0.047-0.012c0.012-0.009,0.023,0.006,0.035-0.003
			c1.452-0.259,2.994-0.634,4.543-0.479c0.048-0.012,0.105-0.008,0.153,0.005c-9.397-7.364-9.991-7.311-15.481-14.499
			c0,0-0.498-0.85-0.747-1.344c-0.49-1.097-0.794-2.362-0.928-3.503c-0.863-4.692,0.932-6.155,3.719-6.381
			c1.776-0.219,3.815-0.177,5.628,1.158c4.01,2.955,8.809,9.766,10.041,11.761c-0.566-1.96-1.853-11.122-0.922-16.477
			c1.182-7.741,13.002-7.448,16.469,3.909c1.866,7.034-3.458,15.852-4.062,17.915c2.652-2.835,7.164-6.157,8.381-6.999
			c4.106-2.958,6.916-3.839,11.852,0.711c1.2,1.165,1.071,1.183,1.779,2.111c0.024,0.031,0.023,0.03,0.023,0.03
			s0.268,0.398,0.653,1.487c2.205,7.644-7.159,10.022-13.552,12.527c5.517-0.163,11.125-0.933,15.63,3.808
			c0.809,0.87,1.27,1.793,1.408,3.232c0.458,3.354-0.353,4.814-1.932,6.117c-4.692,3.952-6.337,1.219-14.756-2.25
			c6.85,7.449,9.79,12.313,4.794,18.258c-1.624,2.098-3.388,2.047-5.225,0.928c-5.369-3.187-6.861-6.998-10.334-17.234
			c0.305,5.423-0.788,9.148-2.723,12.824c-0.776,1.447-3.018,3.867-4.853,3.825c-6.085-0.054-7.205-8.272-6.568-10.035
			c0.008-0.763,1.052-3.203,1.294-3.907c0.803-2.566,1.681-3.635,2.529-5.043c-1.471,1.408-3.734,3.004-6.441,4.083
			c-2.144,0.907-5.753,3.2-11.445-1.86C58.84,119.604,57.571,118.315,56.652,117.112z"/>
		<path id="XMLID_181_" fill="#EFEBEA" d="M83.387,124.355c-0.489,1.922-1.195,3.315-2.107,4.96
			c-0.421,0.77-1.236,1.633-0.439,2.297c0.374,0.32,0.874,0.24,0.969-0.021c0.641-1.168,1.386-2.383,2.027-3.773
			c0.646-1.469,1.534-4.781,1.91-6.34c0.108-0.371-0.121-0.841-0.493-1.035C84.18,119.881,84.27,121.319,83.387,124.355z"/>
		<path id="XMLID_180_" fill="#EFEBEA" d="M97.013,112.681c0.188,0.789,0.794,0.738,1.44,0.791c0.012-0.01,0.012-0.01,0.035-0.003
			c0,0,2.545,0.517,4.378,1.179c0.758,0.463,2.482,0.755,3.249,0.893c0.513,0.158,1.932,0.627,2.246,0.701
			c0.499,0.111,3.771,0.878,4.103,0.623c0.476-0.362,0.099-1.296-0.49-1.396C104.007,114.153,96.495,110.317,97.013,112.681z"/>
		<path id="XMLID_179_" fill="#EFEBEA" d="M110.221,118.603c-0.548,0.045-1.309-0.047-1.854-0.092
			c-0.024-0.006-0.123-0.024-0.141-0.012c-1.35-0.357-1.11,1.287-0.222,1.438c1.459,0.244,4.44,0.465,3.731-1.031
			c-0.092-0.193-0.243-0.365-0.439-0.454C110.895,118.185,110.619,118.489,110.221,118.603z"/>
		<path id="XMLID_177_" fill="#EFEBEA" d="M94.269,99.128c0.38-0.326,0.899-0.766,1.352-1.057c2.841-1.643,2.772-1.75,4.366-3.048
			c0.671-0.575-0.371-1.798-1.004-1.315c-4.251,3.482-0.375,0.215-3.453,2.566c-0.98,0.246-3.122,2.375-3.876,3.008
			c-0.677,0.518,0.35,1.814,1.004,1.315C93.358,100.001,93.444,99.903,94.269,99.128z"/>
		<path id="XMLID_176_" fill="#EFEBEA" d="M82.349,116.056c0.179-0.209,0.418-0.342,0.402-0.666c0.026-0.402-0.33-0.847-0.703-0.923
			c-0.163-0.043-0.397-0.032-0.503,0.073c-0.766,0.824-1.485,1.684-2.192,2.56c-0.535,0.66-1.363,1.569-0.568,2.276
			C79.598,120.069,79.578,119.231,82.349,116.056z"/>
		<path id="XMLID_174_" fill="#EFEBEA" d="M62.618,115.571c0.688-0.351,0.791-0.342,1.419-0.821
			c1.206-0.856,2.487-1.476,5.475-2.841c0.741-0.383,1.921-0.838,2.961-1.018c0.035-0.002,0.069-0.006,0.094-0.023l0.023,0.006
			c0,0,0,0,0.012-0.009c0.806-0.113,1.634-0.075,2.497,0.031c0.046,0.013,0.07,0.019,0.104,0.016
			c0.012-0.009,0.035-0.003,0.059,0.003c0.724,0.098,2.1-0.022,3.303,0.039c0.841,0.047,0.641-1.452-0.373-1.535
			c-0.676-0.033-1.353-0.043-1.995,0.018c-0.342,0.027-0.686,0.045-1.027-0.006c-0.027,0.002-0.129-0.021-0.14-0.014
			c-2.331-0.283-3.695-0.247-6.791,1.311c-0.199,0.105-2.755,1.307-3.527,1.689c-1.625,0.793-1.367,0.951-2.406,1.502
			c-0.527,0.26-0.822,0.39-1.243,0.71c-0.293,0.2-0.286,0.697-0.02,1.046C61.571,116.367,62.057,115.927,62.618,115.571z"/>
		<path id="XMLID_173_" fill="#EFEBEA" d="M87.728,91.416c-0.274,0.816,1.122,1.635,1.383,0.739
			c2.483-7.438,0.235-14.968-1.446-16.579c-0.811-0.93-1.635-0.023-1.021,0.781c0.182,0.142,0.438,0.518,0.438,0.549
			c0,0,0,0,0.012,0.016C89.563,81.716,88.896,87.902,87.728,91.416z"/>
		<path id="XMLID_172_" fill="#EFEBEA" d="M80.006,113.035c0.332-0.083,0.464-0.539,0.276-0.929
			c-0.644-1.322-2.56,0.088-3.542,0.695c-3.033,1.785-9.186,5.143-12.829,5.729c-0.528,0.096-0.468,1.077,0.163,1.408
			C66.13,121.106,78.013,113.626,80.006,113.035z"/>
		<path id="XMLID_171_" fill="#EFEBEA" d="M85.022,115.976c0.226-0.848-1.085-1.619-1.383-0.738
			c-1.431,4.795-1.574,4.004-2.573,6.129c-1.132,2.35-0.955,2.752-1.753,4.474c-0.147,0.329-0.969,2.482-1.039,2.706
			c-0.184,0.631,0.615,1.445,1.183,1.012c0.356-0.271,2.329-6.1,2.528-6.453c0.934-2.054,1.649-2.841,2.341-4.874
			C84.408,118.057,84.979,116.131,85.022,115.976z"/>
		<path id="XMLID_170_" fill="#EFEBEA" d="M85.195,92.776c-0.002,0.347-0.175,0.455,0.028,0.864c0.243,0.513,0.8,0.706,1.14,0.446
			c0.291-0.223,0.441-3.016,0.484-3.457c0.06-0.959-0.046-9.776-0.657-10.578c-0.48-0.629-1.278-0.372-1.216,0.211
			C85.801,89.77,85.19,93.454,85.195,92.776z"/>
		<path id="XMLID_163_" fill="#EFEBEA" d="M77.144,98.304c0.265,0.372,0.766,0.469,1.013,0.279c0.8-0.611-0.683-2.086-2.576-4.565
			c-3.028-3.966-4.197-5.159-5.65-6.596c-1.378-1.39-1.476-1.423-2.387-2.102c-2.281-1.755-1.495-1.083-3.145-2.218
			c-0.308-0.219-0.77-0.112-0.877,0.288c-0.173,0.81,0.759,1.181,1.584,1.758c0.023,0.006,0.034,0.021,0.058,0.026
			C66.711,86.387,71.205,89.323,77.144,98.304z"/>
		<path id="XMLID_155_" fill="#EFEBEA" d="M102.854,131.118c-0.965-3.5-2.874-6.238-4.593-8.838
			c-0.558-0.844-1.701-0.239-1.022,0.779c1.03,1.607,3.002,4.143,4.239,8.059c0.067,0.211,0.147,0.389,0.333,0.559
			C102.497,132.163,103.035,131.644,102.854,131.118z"/>
		<path id="XMLID_154_" fill="#EFEBEA" d="M80.175,80.625c0.022,1.829,0.157,0.81,0.139,2.957c-0.01,1.189,0.648,6.369,1.313,8.88
			c0.784,3.283,0.752,5.943,1.992,5.921c0.407-0.008,0.628-0.383,0.52-0.757c-0.933-3.543-2.858-13.142-2.525-17.31
			c0-0.002,0.183-3.536,0.183-3.537c0.005-0.606-0.747-1.225-1.23-0.855c-0.152,0.117-0.188,0.288-0.214,0.475
			C80.352,76.402,80.175,80.625,80.175,80.625z"/>
		<path id="XMLID_153_" fill="#EFEBEA" d="M91.786,123.372c-0.011-0.016,0.001-0.023-0.01-0.039c0,0-0.117-0.329-0.409-1.338
			c-0.333-1.105-0.714-2.696-1.603-2.367c-0.63,0.139-0.291,0.958-0.003,1.678c0,0.023,0.012,0.039,0.023,0.055
			c-0.012,0.008-0.001,0.023-0.001,0.023c0.573,1.75,0.23,0.975,0.888,2.744c0.319,0.893,2.289,5.236,3.009,5.646
			c0.252,0.099,0.499,0.121,0.689-0.023c0.681-0.52-0.345-1.398-1.395-3.458c-0.218-0.408-0.377-0.837-0.549-1.255
			C92.18,124.429,91.837,123.513,91.786,123.372z"/>
		<path id="XMLID_151_" fill="#EFEBEA" d="M99.639,103.065c-0.416,0.042-2.203,0.664-2.574,0.843
			c-0.398,0.187-0.454,0.557-0.277,0.929c0.434,0.935,1.315,0.418,2.101,0.119c1.419-0.449,1.404-0.402,1.404-0.402
			c0.374-0.146,0.644-0.349,0.938-0.573c1.222-0.835,2.545-1.319,1.806-2.288C102.26,100.68,101.104,102.228,99.639,103.065z"/>
		<path id="XMLID_150_" fill="#EFEBEA" d="M76.337,107.916c0.094,0.001,0.164-0.005,0.246,0.005c0.917,0.241,1.988,0.719,1.997-0.21
			c0.004-0.409-0.32-0.809-0.704-0.922c-1.155-0.327-2.701-0.854-2.407,0.379C75.559,107.579,75.952,107.899,76.337,107.916z"/>
		<path id="XMLID_147_" fill="#EFEBEA" d="M104.498,92.966c0.143-0.011,1.473,0.112,1.621,0.126c0.812,0.138,0.768-1.413-0.35-1.504
			c-2.252-0.322-1.756-0.082-3.024,0.205c-0.782,0.301-1.698,0.29-1.248,1.24c0.092,0.193,0.242,0.366,0.429,0.463
			C102.476,93.767,103.931,93.051,104.498,92.966z"/>
		<path id="XMLID_146_" fill="#EFEBEA" d="M101.37,134.144c-0.213-0.402-3.359-5.569-3.359-5.569
			c-1.742-2.896-1.1-2.288-3.966-7.358c-0.472-0.87-0.72-1.808-1.479-1.572c-0.702,0.248-0.264,1.092,0.194,1.885
			c3.337,6.525,4.688,8.575,4.688,8.575c0.002,0.002,2.268,3.699,2.268,3.699c0.083,0.107,0.353,0.619,0.414,0.737
			C100.685,135.593,101.85,135.024,101.37,134.144z"/>
		<path id="XMLID_144_" fill="#EFEBEA" d="M81.513,96.306c-0.091-0.288-0.204-0.607-0.296-0.897c-0.331-1-0.379-2.275-1.275-2.281
			c-0.996,0.02-0.257,2.083,0.09,3.186C80.369,97.485,81.779,97.312,81.513,96.306z"/>
		<path id="XMLID_140_" fill="#EFEBEA" d="M100.626,98.124c0.012,0.016,0.023,0.008,0.023,0.008c-3.47,1.729-4.581,2.45-6.051,3.352
			c-0.306,0.186-0.263,0.703-0.009,1.036c0.243,0.318,0.622,0.489,1.001,0.264c0.342-0.197,1.312-0.81,1.339-0.829
			c0.436-0.035,11.979-6.939,10.626-6.274c0.773-0.38,1.871-0.96,1.206-1.83c-0.254-0.333-0.742-0.51-1.002-0.264
			C107.395,93.904,102,97.433,100.626,98.124z"/>
		<path id="XMLID_139_" fill="#EFEBEA" d="M77.431,126.345l0.011-0.009c0.004-0.469,1.295-4.04,1.438-4.448
			c0.291-0.807-1.028-1.635-1.371-0.748c-0.994,2.875-1.526,3.926-1.542,5.628c-0.007,0.956-0.401,4.05,0.357,4.776
			c0.467,0.4,1.147,0.284,1.055-0.566C77.145,129.374,77.419,127.677,77.431,126.345z"/>
		<path id="XMLID_138_" fill="#EFEBEA" d="M68.846,96.792c-0.189,0.313-0.076,0.801,0.259,1.094c1.058,0.9,3.089,2.4,4.198,3.207
			c0.941,0.705,1.518-0.504,0.721-1.102c-0.707-0.512-1.414-1.024-2.099-1.555C70.202,97.13,69.33,96.056,68.846,96.792z"/>
		<path id="XMLID_137_" fill="#EFEBEA" d="M62.368,111.956c0.614-0.318,4.755-2.184,5.519-2.516
			c0.309-0.109,0.493-0.496,0.288-0.938c-0.195-0.377-0.659-0.668-0.987-0.538c-0.82,0.363-1.651,0.712-2.449,1.129
			c-0.727,0.362-1.511,0.651-2.249,1c-0.609,0.274-1.219,0.571-1.77,0.921c-0.329,0.227-0.658,0.43-1.01,0.627
			c-0.281,0.191-0.251,0.719-0.008,1.036c0.138,0.181,0.313,0.312,0.509,0.376C60.609,113.134,62.001,112.159,62.368,111.956z"/>
		<path id="XMLID_136_" fill="#EFEBEA" d="M64.292,88.76c-0.326-0.428-0.754-0.477-1.013-0.279
			c-1.619,1.237,4.103,3.45,14.764,13.755c0.721,0.69,1.581-0.213,0.71-1.093c-3.18-3.1-7.487-6.83-10.508-9.228
			C66.663,90.729,65.817,90.371,64.292,88.76z"/>
		<path id="XMLID_135_" fill="#EFEBEA" d="M95.678,131.146c-0.591,0.451,0.108,1.223,0.719,1.963c0.29,0.35,1.526,1.828,1.921,1.932
			c0.705,0.186,0.934-0.654,0.511-1.133C96.418,131.246,96.289,130.677,95.678,131.146z"/>
		<path id="XMLID_134_" fill="#EFEBEA" d="M105.747,99.741c-0.621,0.285-1.487,0.25-1.037,1.199c0.449,0.924,1.57,0.5,2.194,0.023
			c0.164-0.127,1.039-1.098,1.934-2.363c0.201-0.297,0.065-0.791-0.271-1.085C107.529,96.606,106.769,99.192,105.747,99.741z"/>
		<path id="XMLID_133_" fill="#EFEBEA" d="M98.28,115.973c1.554,0.509,1.016,0.264,2.592,1.25c1.157,0.644,1.802,0.825,1.802,0.825
			c0.023,0.006,0.023,0.006,0.047,0.014c0.368,0.205,2.368,0.96,2.757,1.1c0.79,0.373,1.141-1.041,0.013-1.469
			c-0.004-0.001-2.03-0.787-2.036-0.789c-0.012,0.008-0.023-0.008-0.023-0.008c-1.316-0.662-0.99-0.26-2.371-1.132
			c-2.246-1.433-1.854-0.761-3.79-1.675c-0.835-0.278-1.05,1.035-0.129,1.438c0.022,0.006,0.022,0.006,0.022,0.006
			c0.012,0.016,0.012,0.016,0.012,0.016S97.634,115.731,98.28,115.973z"/>
		<path id="XMLID_132_" fill="#EFEBEA" d="M93.125,116.966c-0.294,0.225-0.297,0.683-0.021,1.045c0.658,0.861,1.28,1.75,1.915,2.605
			c0.615,0.861,1.71,0.144,1.011-0.771C94.76,118.083,93.898,116.376,93.125,116.966z"/>
		<path id="XMLID_131_" fill="#EFEBEA" d="M105.146,110.106c-3.087-0.602-5.31-1.611-4.982-0.119
			c0.102,0.426,0.484,0.756,0.869,0.748c3.358,0.887,1.126-0.219,7.604,1.97c0.012,0.016,0.023,0.007,0.035,0.021
			c0.748,0.298,1.445,0.745,1.656,0.026c0.097-0.337-0.121-0.865-0.516-1.041C108.491,111.157,106.48,110.362,105.146,110.106z"/>
		<path id="XMLID_129_" fill="#F9CB52" d="M92.58,115.563c-0.117,0.113-0.247,0.236-0.353,0.365
			c-2.308,1.324-4.429,1.193-7.028-1.143c-2.262-2.031-7.631-5.912-2.938-12.662c0.845-1.33,2.444-4.014,5.535-3.199
			C93.934,100.544,96.882,111.712,92.58,115.563z"/>
	</g>
	<g>
		<path fill="#65842F" d="M71.142,113.269L22.505,88.377c-1.026-0.525-2.23,0.275-2.145,1.424l1.568,20.916
			c0.046,0.605-0.284,1.177-0.831,1.44L0.835,122.357c-1.113,0.536-1.113,2.122-0.001,2.659l55.291,27.113
			c0.78,0.377,1.716,0.004,2.022-0.807l13.702-36.219C72.116,114.401,71.811,113.61,71.142,113.269z"/>
		<path fill="#65842F" d="M259.375,108.974l48.637-24.891c1.026-0.525,2.231,0.275,2.145,1.424l-1.568,20.916
			c-0.046,0.605,0.284,1.178,0.831,1.441l20.263,10.198c1.114,0.536,1.114,2.122,0.001,2.659l-55.291,27.114
			c-0.78,0.376-1.716,0.003-2.022-0.808l-13.702-36.219C258.4,110.106,258.706,109.315,259.375,108.974z"/>
		<path fill="#91BB57" d="M42.747,113.396c0.678-1.729,2.643-2.561,4.352-1.834c13.315,5.652,67.183,27.035,116.647,25.436
			c49.619-1.604,106.303-21.071,120.084-26.061c1.731-0.627,3.635,0.289,4.232,2.031l12.776,37.189
			c0.508,1.479-0.086,3.107-1.431,3.904c-9.972,5.912-52.543,28.398-126.639,30.795c-72.19,2.333-129.906-24.379-142.731-30.829
			c-1.521-0.765-2.204-2.561-1.583-4.146L42.747,113.396z"/>
	</g>
</g>
</svg>
