<?xml version="1.0" encoding="utf-8"?>
<!-- Generator: Adobe Illustrator 16.0.0, SVG Export Plug-In . SVG Version: 6.00 Build 0)  -->
<!DOCTYPE svg PUBLIC "-//W3C//DTD SVG 1.1//EN" "http://www.w3.org/Graphics/SVG/1.1/DTD/svg11.dtd">
<svg version="1.1" id="Слой_1" xmlns="http://www.w3.org/2000/svg" xmlns:xlink="http://www.w3.org/1999/xlink" x="0px" y="0px"
	 width="7.635px" height="11.832px" viewBox="0 0 7.635 11.832" enable-background="new 0 0 7.635 11.832" xml:space="preserve">
<g>
	<path fill="#3056B3" d="M0.002,3.25c0.021-0.367,0.113-0.742,0.275-1.125c0.16-0.384,0.399-0.734,0.717-1.051
		C1.31,0.758,1.707,0.5,2.186,0.3C2.662,0.1,3.219,0,3.852,0c0.544,0,1.047,0.08,1.508,0.241C5.82,0.403,6.221,0.623,6.56,0.9
		s0.603,0.61,0.792,0.999c0.188,0.39,0.283,0.806,0.283,1.25c0,0.456-0.075,0.848-0.226,1.175C7.26,4.652,7.07,4.943,6.843,5.199
		S6.37,5.691,6.109,5.907C5.849,6.124,5.604,6.347,5.376,6.574C5.148,6.802,4.96,7.052,4.81,7.324
		C4.66,7.597,4.585,7.922,4.585,8.299v0.233c0,0.123-0.044,0.228-0.133,0.317c-0.09,0.088-0.195,0.133-0.317,0.133H3.519
		c-0.123,0-0.228-0.045-0.316-0.133c-0.09-0.09-0.134-0.194-0.134-0.317v-0.35c0-0.444,0.075-0.831,0.225-1.158
		c0.15-0.328,0.339-0.619,0.567-0.875c0.228-0.256,0.472-0.491,0.732-0.708c0.262-0.217,0.506-0.438,0.733-0.667
		c0.228-0.228,0.417-0.47,0.567-0.726c0.149-0.254,0.225-0.555,0.225-0.899c0-0.277-0.064-0.524-0.191-0.741
		C5.798,2.191,5.629,2.011,5.418,1.866C5.207,1.723,4.965,1.611,4.693,1.533C4.421,1.456,4.141,1.416,3.852,1.416
		c-0.578,0-1.072,0.145-1.483,0.434s-0.694,0.756-0.85,1.4C1.496,3.372,1.44,3.464,1.352,3.525C1.263,3.586,1.174,3.616,1.085,3.616
		H0.368c-0.1,0-0.188-0.036-0.267-0.108S-0.009,3.35,0.002,3.25z M4.751,11.382c0,0.122-0.044,0.228-0.133,0.316
		s-0.194,0.134-0.316,0.134h-0.95c-0.122,0-0.228-0.045-0.316-0.134c-0.09-0.089-0.134-0.194-0.134-0.316v-0.95
		c0-0.121,0.044-0.228,0.134-0.316c0.089-0.089,0.194-0.133,0.316-0.133h0.95c0.122,0,0.228,0.044,0.316,0.133
		s0.133,0.195,0.133,0.316V11.382z"/>
</g>
</svg>
