<?xml version="1.0" encoding="utf-8"?>
<!-- Generator: Adobe Illustrator 16.0.0, SVG Export Plug-In . SVG Version: 6.00 Build 0)  -->
<!DOCTYPE svg PUBLIC "-//W3C//DTD SVG 1.1//EN" "http://www.w3.org/Graphics/SVG/1.1/DTD/svg11.dtd">
<svg version="1.1" id="Слой_1" xmlns="http://www.w3.org/2000/svg" xmlns:xlink="http://www.w3.org/1999/xlink" x="0px" y="0px"
	 width="159.444px" height="239px" viewBox="0 0 159.444 239" enable-background="new 0 0 159.444 239" xml:space="preserve">
<g>
	<g>
		
			<radialGradient id="SVGID_1_" cx="125.1855" cy="89.6602" r="203.683" gradientTransform="matrix(0.9876 0.1569 -0.1569 0.9876 39.9967 3.8959)" gradientUnits="userSpaceOnUse">
			<stop  offset="0" style="stop-color:#F1F1F1"/>
			<stop  offset="0.5323" style="stop-color:#FFFFFF"/>
			<stop  offset="1" style="stop-color:#F1F1F1"/>
		</radialGradient>
		<path fill="url(#SVGID_1_)" d="M102.409,239c-1.236-22.941-9.857-49.721-11.813-62.89c-1.432-9.642-59.311-18.878-60.838-9.267
			C10.342,196.089,1.709,220.384,0,239H102.409z"/>
		
			<radialGradient id="SVGID_2_" cx="104.8545" cy="159.6489" r="147.6958" gradientTransform="matrix(0.9876 0.1569 -0.1569 0.9876 39.9967 3.8959)" gradientUnits="userSpaceOnUse">
			<stop  offset="0" style="stop-color:#F1F1F1"/>
			<stop  offset="0.5484" style="stop-color:#FFFFFF"/>
			<stop  offset="1" style="stop-color:#F1F1F1"/>
		</radialGradient>
		<path fill="url(#SVGID_2_)" d="M84.842,239c-0.311-10.09-4.591-20.676-8.439-29.723c0,0-7.827-18.781-17.881-20.045
			c-10.246-1.288-22.724,14.941-22.805,14.929c-8.282,9.636-16.87,22.433-18.438,34.839H84.842z"/>
		
			<radialGradient id="SVGID_3_" cx="18.5947" cy="241.3794" r="42.8113" gradientTransform="matrix(0.9876 0.1569 -0.1569 0.9876 39.9967 3.8959)" gradientUnits="userSpaceOnUse">
			<stop  offset="0" style="stop-color:#D1D2D3"/>
			<stop  offset="0.6344" style="stop-color:#F6F7F7"/>
		</radialGradient>
		<path fill="url(#SVGID_3_)" d="M41.125,239c0.189-0.586,0.306-1.1,0.333-1.479c0.393-5.313-3.497-7.166-4.182-8.899
			c-2.424-6.14-0.394-16.118-2.866-26.272c0.361,0.188-17.899-5.889-17.938-5.605C13.826,216.203,20.31,224.643,28.041,239H41.125z"
			/>
		
			<radialGradient id="SVGID_4_" cx="81.4595" cy="233.0542" r="60.6304" gradientTransform="matrix(0.9876 0.1569 -0.1569 0.9876 39.9967 3.8959)" gradientUnits="userSpaceOnUse">
			<stop  offset="0" style="stop-color:#D1D2D3"/>
			<stop  offset="0.2626" style="stop-color:#E9EAEA"/>
			<stop  offset="0.5431" style="stop-color:#FFFFFF"/>
		</radialGradient>
		<path fill="url(#SVGID_4_)" d="M76.475,239c9.689-9.006,16.841-15.708,19.927-32.681c0.051-0.281-19.193-0.163-18.793-0.229
			c-5.497,8.887-6.659,19.005-10.865,24.092c-1.188,1.436-5.461,1.992-6.734,7.164c-0.098,0.396-0.147,0.977-0.14,1.654H76.475z"/>
	</g>
	
		<linearGradient id="SVGID_5_" gradientUnits="userSpaceOnUse" x1="175.3652" y1="291.1763" x2="73.1356" y2="247.9349" gradientTransform="matrix(0.9808 0.1948 -0.1948 0.9808 13.6083 -217.0923)">
		<stop  offset="0" style="stop-color:#F1F1F1"/>
		<stop  offset="0.5323" style="stop-color:#FFFFFF"/>
		<stop  offset="1" style="stop-color:#F1F1F1"/>
	</linearGradient>
	<path fill="url(#SVGID_5_)" d="M62.268,28.82c-1.197-4.564-1.592-12.517-8.28-18.318l-23.225,34.8c0,0,0.598,2.636,1.753,6.053l0,0
		c6.93,25.821,23.159,42.946,23.159,42.946l12.225-7.871C67.899,86.43,66.597,45.345,62.268,28.82z"/>
	
		<radialGradient id="SVGID_6_" cx="61.4434" cy="285.1001" r="68.2475" gradientTransform="matrix(0.9948 0.1022 -0.1022 0.9948 10.1395 -207.1037)" gradientUnits="userSpaceOnUse">
		<stop  offset="0.1022" style="stop-color:#F9D8DC"/>
		<stop  offset="0.7692" style="stop-color:#F6B4BA"/>
	</radialGradient>
	<path fill="url(#SVGID_6_)" d="M64.715,89.064c-0.606-1.353-9.514-38.987-15.393-56.784c-1.039-3.143-2.57-7.035-4.347-11.145
		l-8.863,9.138c5.11,32.521,23.254,63.789,23.254,63.789C60.045,95.355,64.997,89.694,64.715,89.064z"/>
	
		<linearGradient id="SVGID_7_" gradientUnits="userSpaceOnUse" x1="-7.8486" y1="211.0659" x2="70.2761" y2="254.9925" gradientTransform="matrix(0.9948 0.1022 -0.1022 0.9948 10.1395 -207.1037)">
		<stop  offset="0" style="stop-color:#F1F1F1"/>
		<stop  offset="0.5323" style="stop-color:#FFFFFF"/>
		<stop  offset="1" style="stop-color:#F1F1F1"/>
	</linearGradient>
	<path fill="url(#SVGID_7_)" d="M9.783,63.678c-3.198-6.327,1.584-21.231,11.122-32.958c0,0,22.239-26.008,33.082-20.217
		C53.987,10.502,23.876,91.561,9.783,63.678z"/>
	
		<radialGradient id="SVGID_8_" cx="-62.5288" cy="276.8735" r="253.1645" gradientTransform="matrix(1.243 0.2469 -0.2074 1.044 370.6033 -121.4032)" gradientUnits="userSpaceOnUse">
		<stop  offset="0" style="stop-color:#F1F1F1"/>
		<stop  offset="0.5323" style="stop-color:#FFFFFF"/>
		<stop  offset="1" style="stop-color:#F1F1F1"/>
	</radialGradient>
	<path fill="url(#SVGID_8_)" d="M84.198,96.078c0,0,47.722-98.45,64.843-96.034c17.121,2.416,20.499,29.699-48.755,106.623
		L84.198,96.078z"/>
	
		<radialGradient id="SVGID_9_" cx="153.5" cy="321.6226" r="99.5173" gradientTransform="matrix(0.9808 0.1948 -0.1948 0.9808 13.6083 -217.0923)" gradientUnits="userSpaceOnUse">
		<stop  offset="0.1022" style="stop-color:#F9D8DC"/>
		<stop  offset="0.7692" style="stop-color:#F6B4BA"/>
	</radialGradient>
	<path fill="url(#SVGID_9_)" d="M141.472,30.625c12.852-24.416,1.063-16.151-9.86-2.505c-5.48,6.847-42.086,63.478-42.729,64.742
		c-1.612,3.162-1.736,16.643,5.979,9.417C107.522,90.417,140.051,33.326,141.472,30.625z"/>
	
		<radialGradient id="SVGID_10_" cx="129.1973" cy="334.3198" r="67.6071" gradientTransform="matrix(0.9808 0.1948 -0.1948 0.9808 13.6083 -217.0923)" gradientUnits="userSpaceOnUse">
		<stop  offset="0.5745" style="stop-color:#FFFFFF"/>
		<stop  offset="0.9381" style="stop-color:#F1F1F1"/>
	</radialGradient>
	<path fill="url(#SVGID_10_)" d="M108.52,165.228c0.96-11.945,3.709-40.115-1.626-55.169c-4.96-13.997-13.747-18.086-23.666-23.4
		c-1.44-0.773-1.387-2.638-0.293-4.372c-1.13,1.134-3.568,2.007-4.526,2.271c-0.44-2.351-0.877-4.705-0.795-7.404
		c-0.973,4.897-1.491,7.475-3.467,7.435c-8.682-0.169-17.359,1.167-24.061,7.193c-12.06,10.844-28.289,36.021-32.028,56.409
		c-3.74,20.388,9.13,33.82,38.726,39.699C86.38,193.769,107.327,180.024,108.52,165.228z"/>
	<g>
		
			<radialGradient id="SVGID_11_" cx="148.6289" cy="331.6685" r="2.7742" gradientTransform="matrix(0.9629 0.2699 -0.2699 0.9629 28.7637 -214.1616)" gradientUnits="userSpaceOnUse">
			<stop  offset="0.0233" style="stop-color:#434243"/>
			<stop  offset="0.4095" style="stop-color:#312F30"/>
			<stop  offset="0.7692" style="stop-color:#221F1F"/>
		</radialGradient>
		<path fill="url(#SVGID_11_)" d="M86.295,144.932c-0.451,1.606-2.11,2.552-3.726,2.097c-1.605-0.447-2.553-2.122-2.101-3.729
			c0.45-1.61,2.47-3.767,4.075-3.315C86.162,140.437,86.745,143.322,86.295,144.932z"/>
		
			<radialGradient id="SVGID_12_" cx="124.7559" cy="340.6431" r="13.7919" gradientTransform="matrix(1.0952 0.307 -0.2699 0.9629 1.1379 -221.8274)" gradientUnits="userSpaceOnUse">
			<stop  offset="0.7692" style="stop-color:#221F1F"/>
			<stop  offset="1" style="stop-color:#434243"/>
		</radialGradient>
		<path fill="url(#SVGID_12_)" d="M56.14,139.041c-0.222,0.798-2.358,0.895-4.785,0.214c-2.42-0.679-4.216-1.878-3.989-2.675
			c0.222-0.793,2.548-1.49,4.965-0.813C54.76,136.447,56.361,138.244,56.14,139.041z"/>
	</g>
	<path fill="#EFEEF3" d="M46.73,152.173c1.221-6.146,11.578-11.258,21.669-9.252c10.087,2.004,18.238,10.99,17.018,17.135
		c-1.22,6.148-11.351,7.127-21.439,5.123C53.886,163.174,45.511,158.319,46.73,152.173z"/>
	
		<radialGradient id="SVGID_13_" cx="71.7866" cy="364.8267" r="4.9748" gradientTransform="matrix(1.7847 0.3545 -0.1948 0.9808 6.9772 -218.4572)" gradientUnits="userSpaceOnUse">
		<stop  offset="0.0054" style="stop-color:#FCDBD2"/>
		<stop  offset="1" style="stop-color:#FCDBD2"/>
	</radialGradient>
	<path fill="url(#SVGID_13_)" d="M54.989,162.391c-0.094-0.065,2.357-0.209,4.822-0.739c2.646-0.568,5.319-1.523,5.319-1.523
		s7.185,4.965,7.945,5.465c1.507,0.994-4.767,5.234-10.345,3.86C57.964,168.278,56.479,163.411,54.989,162.391z"/>
	
		<radialGradient id="SVGID_14_" cx="149.5996" cy="353.8589" r="11.0268" gradientTransform="matrix(0.9808 0.1948 -0.1948 0.9808 13.6083 -217.0923)" gradientUnits="userSpaceOnUse">
		<stop  offset="0.1022" style="stop-color:#F9D8DC"/>
		<stop  offset="0.7692" style="stop-color:#F6B4BA"/>
	</radialGradient>
	<path opacity="0.2" fill="url(#SVGID_14_)" d="M80.099,157.167c1.153-5.809,7.074-9.665,13.712-8.347
		c7.87,1.564,9.61,8.663,8.93,12.084c-1.533,7.714-7.826,9.681-13.441,8.564C83.683,168.353,78.723,164.091,80.099,157.167z"/>
	
		<radialGradient id="SVGID_15_" cx="97.3418" cy="353.8569" r="11.0268" gradientTransform="matrix(0.9808 0.1948 -0.1948 0.9808 13.6083 -217.0923)" gradientUnits="userSpaceOnUse">
		<stop  offset="0.1022" style="stop-color:#F9D8DC"/>
		<stop  offset="0.7692" style="stop-color:#F6B4BA"/>
	</radialGradient>
	<path opacity="0.2" fill="url(#SVGID_15_)" d="M28.845,146.984c1.154-5.809,7.074-9.664,13.712-8.346
		c7.87,1.563,9.61,8.662,8.931,12.084c-1.533,7.713-7.822,9.682-13.44,8.564C32.429,158.17,27.47,153.91,28.845,146.984z"/>
	
		<radialGradient id="SVGID_16_" cx="114.0254" cy="368.7915" r="11.4362" gradientTransform="matrix(0.9808 0.1948 -0.1948 0.9808 13.6083 -217.0923)" gradientUnits="userSpaceOnUse">
		<stop  offset="0" style="stop-color:#E6E5E5"/>
		<stop  offset="0.6615" style="stop-color:#FFFFFF"/>
		<stop  offset="0.7744" style="stop-color:#FFFFFF"/>
		<stop  offset="1" style="stop-color:#FFFFFF"/>
	</radialGradient>
	<path fill="url(#SVGID_16_)" d="M64.966,160.248c-0.335,1.688-1.739,8.771-1.739,8.771l-3.879-0.771l0.559-5.97
		C59.906,162.277,65.164,159.957,64.966,160.248z"/>
	
		<radialGradient id="SVGID_17_" cx="119.5244" cy="367.854" r="11.014" gradientTransform="matrix(0.9808 0.1948 -0.1948 0.9808 13.6083 -217.0923)" gradientUnits="userSpaceOnUse">
		<stop  offset="0" style="stop-color:#E6E5E5"/>
		<stop  offset="0.6615" style="stop-color:#FFFFFF"/>
		<stop  offset="0.7744" style="stop-color:#FFFFFF"/>
		<stop  offset="1" style="stop-color:#FFFFFF"/>
	</radialGradient>
	<path fill="url(#SVGID_17_)" d="M65.106,160.275c-0.336,1.688-1.746,8.77-1.746,8.77l3.881,0.771l1.765-5.73
		C69.006,164.084,65.03,159.931,65.106,160.275z"/>
	<g>
		
			<radialGradient id="SVGID_18_" cx="98.1182" cy="364.5679" r="34.2828" gradientTransform="matrix(0.9808 0.1948 -0.1948 0.9808 13.6083 -217.0923)" gradientUnits="userSpaceOnUse">
			<stop  offset="0.2061" style="stop-color:#EACBBB"/>
			<stop  offset="0.7527" style="stop-color:#DEA5A1"/>
			<stop  offset="1" style="stop-color:#F9C8D2"/>
		</radialGradient>
		<path fill="url(#SVGID_18_)" d="M84.152,161.427c-5.393,7.407-13.81,3.588-18.599-2.357c-0.219-0.273-0.544-0.285-0.799-0.055
			c-4.3,3.897-13.991,3.604-16.187-2.485c-0.222-0.61-1.175-0.283-0.953,0.33c1.29,3.579,4.562,5.134,8.158,5.579
			c1.837,0.227,3.693-0.017,5.48-0.453c1.255-0.305,3.5-2.275,4.28-1.371c5.245,6.072,14.022,8.835,19.373,1.48
			C85.285,161.574,84.532,160.902,84.152,161.427L84.152,161.427z"/>
	</g>
	
		<radialGradient id="SVGID_19_" cx="120.4277" cy="350.0083" r="3.2086" gradientTransform="matrix(0.9808 0.1948 -0.1948 0.9808 13.6083 -217.0923)" gradientUnits="userSpaceOnUse">
		<stop  offset="0.2061" style="stop-color:#434243"/>
		<stop  offset="0.7692" style="stop-color:#221F1F"/>
	</radialGradient>
	<path fill="url(#SVGID_19_)" d="M64.406,158.763c-3.02-0.933-6.729-5.977-5.939-9.676c0.828-3.92,6.813-3.055,9.782-2.455
		c4.309,0.873,5.614,2.687,6.483,4.365C76.852,155.101,69.753,160.419,64.406,158.763z"/>
	<g>
		
			<radialGradient id="SVGID_20_" cx="97.2363" cy="290.3687" r="12.9799" gradientTransform="matrix(0.9808 0.1948 -0.1948 0.9808 13.6083 -217.0923)" gradientUnits="userSpaceOnUse">
			<stop  offset="0" style="stop-color:#F8A560"/>
			<stop  offset="1" style="stop-color:#F27660"/>
		</radialGradient>
		<path fill="url(#SVGID_20_)" d="M51.906,81.335c-0.158-1.984,0.207-9.397,5.79-6.788c4.742,2.216,0.702,7.293,0.539,7.686
			c-0.162,0.391,5.29-2.934,6.972,0.688c2.866,6.171-5.933,5.399-6.522,5.367c-0.588-0.031,7.843,3.025,3.216,7.946
			c-3.436,3.658-7.362-0.782-8.697-3.894c0,0-1.288,8.833-6.262,6.405c-6.882-3.361-1.81-7.923,0.133-9.579
			c0,0-7.912,3.271-7.582-3.37c0.132-2.67,3.689-3.089,7.261-1.833c0,0-6.794-4.494-1.082-7.898
			C49.882,73.556,51.906,81.335,51.906,81.335z"/>
		
			<radialGradient id="SVGID_21_" cx="97.8994" cy="290.4712" r="2.2934" gradientTransform="matrix(0.9808 0.1948 -0.1948 0.9808 13.6083 -217.0923)" gradientUnits="userSpaceOnUse">
			<stop  offset="0.3309" style="stop-color:#F2DD6A"/>
			<stop  offset="1" style="stop-color:#FDC770"/>
		</radialGradient>
		<path fill="url(#SVGID_21_)" d="M50.675,86.403c0.232-1.172,1.483-1.915,2.79-1.655c1.308,0.262,2.181,1.422,1.948,2.595
			c-0.233,1.173-1.483,1.913-2.792,1.652C51.314,88.737,50.44,87.574,50.675,86.403z"/>
	</g>
</g>
</svg>
