<?xml version="1.0" encoding="utf-8"?>
<!-- Generator: Adobe Illustrator 16.0.0, SVG Export Plug-In . SVG Version: 6.00 Build 0)  -->
<!DOCTYPE svg PUBLIC "-//W3C//DTD SVG 1.1//EN" "http://www.w3.org/Graphics/SVG/1.1/DTD/svg11.dtd">
<svg version="1.1" id="Слой_1" xmlns="http://www.w3.org/2000/svg" xmlns:xlink="http://www.w3.org/1999/xlink" x="0px" y="0px"
	 width="101.7px" height="157px" viewBox="0 0 101.7 157" enable-background="new 0 0 101.7 157" xml:space="preserve">
<g>
	<g>
		
			<radialGradient id="SVGID_1_" cx="52.1436" cy="34.2974" r="175.7818" gradientTransform="matrix(-1.2476 -0.2217 0.1862 -1.0479 3.9556 86.261)" gradientUnits="userSpaceOnUse">
			<stop  offset="0" style="stop-color:#F1F1F1"/>
			<stop  offset="0.5323" style="stop-color:#FFFFFF"/>
			<stop  offset="1" style="stop-color:#F1F1F1"/>
		</radialGradient>
		<path fill="url(#SVGID_1_)" d="M51.068,75.606c0,0-31.74,69.017-43.659,67.581c-11.92-1.438-14.649-20.329,32.344-74.705
			L51.068,75.606z"/>
		
			<radialGradient id="SVGID_2_" cx="389.6035" cy="61.0166" r="218.7636" gradientTransform="matrix(-0.9846 -0.1749 0.1749 -0.9846 370.7753 177.6841)" gradientUnits="userSpaceOnUse">
			<stop  offset="0" style="stop-color:#F1F1F1"/>
			<stop  offset="0.5323" style="stop-color:#FFFFFF"/>
			<stop  offset="1" style="stop-color:#F1F1F1"/>
		</radialGradient>
		<path fill="url(#SVGID_2_)" d="M62.91,80.156c0,0-5.187,58.039,15.492,73.228c20.683,15.186,10.495-21.213,7.009-39.445
			c-3.485-18.232-13.636-38.612-13.636-38.612L62.91,80.156z"/>
		
			<radialGradient id="SVGID_3_" cx="300.2031" cy="43.147" r="52.4766" gradientTransform="matrix(-0.9846 -0.1749 0.1749 -0.9846 370.7753 177.6841)" gradientUnits="userSpaceOnUse">
			<stop  offset="0.1022" style="stop-color:#F9D8DC"/>
			<stop  offset="0.7692" style="stop-color:#F6B4BA"/>
		</radialGradient>
		<path fill="url(#SVGID_3_)" d="M65.25,78.493c0.352,0.968,4.604,27.482,7.772,40.104c3.4,13.56,17.962,47.202,11.872,15.557
			c-4.101-21.326-14.16-60.545-14.16-60.545C70.329,72.679,65.085,78.042,65.25,78.493z"/>
		
			<radialGradient id="SVGID_4_" cx="348.7686" cy="64.1606" r="69.0935" gradientTransform="matrix(-0.9846 -0.1749 0.1749 -0.9846 370.7753 177.6841)" gradientUnits="userSpaceOnUse">
			<stop  offset="0.1022" style="stop-color:#F9D8DC"/>
			<stop  offset="0.7692" style="stop-color:#F6B4BA"/>
		</radialGradient>
		<path fill="url(#SVGID_4_)" d="M12.231,121.851c-8.576,17.132-0.509,11.228,6.881,1.601c3.708-4.832,28.322-44.66,28.752-45.546
			c1.073-2.218,0.97-11.579-4.286-6.453C34.956,79.864,13.181,119.956,12.231,121.851z"/>
		
			<radialGradient id="SVGID_5_" cx="382.2275" cy="48.9683" r="141.4227" gradientTransform="matrix(-0.9846 -0.1749 0.1749 -0.9846 370.7753 177.6841)" gradientUnits="userSpaceOnUse">
			<stop  offset="0" style="stop-color:#F1F1F1"/>
			<stop  offset="0.5323" style="stop-color:#FFFFFF"/>
			<stop  offset="1" style="stop-color:#F1F1F1"/>
		</radialGradient>
		<path fill="url(#SVGID_5_)" d="M40.903,0c1.604,7.63,3.259,14.422,3.843,18.917c0.87,6.711,40.938,13.857,42.117,7.204
			C93.396,16.66,98.245,7.935,101.7,0H40.903z"/>
		
			<radialGradient id="SVGID_6_" cx="368.1133" cy="97.564" r="102.5499" gradientTransform="matrix(-0.9846 -0.1749 0.1749 -0.9846 370.7753 177.6841)" gradientUnits="userSpaceOnUse">
			<stop  offset="0" style="stop-color:#F1F1F1"/>
			<stop  offset="0.5484" style="stop-color:#FFFFFF"/>
			<stop  offset="1" style="stop-color:#F1F1F1"/>
		</radialGradient>
		<path fill="url(#SVGID_6_)" d="M56.881,0c2.109,3.958,5.84,9.571,10.298,10.214C74.276,11.239,83.146,0.131,83.2,0.141
			C83.241,0.095,83.282,0.046,83.323,0H56.881z"/>
		
			<radialGradient id="SVGID_7_" cx="308.2207" cy="154.3149" r="29.7298" gradientTransform="matrix(-0.9846 -0.1749 0.1749 -0.9846 370.7753 177.6841)" gradientUnits="userSpaceOnUse">
			<stop  offset="0" style="stop-color:#D1D2D3"/>
			<stop  offset="0.6344" style="stop-color:#F6F7F7"/>
		</radialGradient>
		<path fill="url(#SVGID_7_)" d="M83.811,0c0.08,0.47,0.17,0.941,0.275,1.414c-0.249-0.136,12.35,4.316,12.381,4.118
			C96.776,3.533,96.938,1.705,96.98,0H83.811z"/>
		
			<radialGradient id="SVGID_8_" cx="331.8965" cy="72.9761" r="46.9404" gradientTransform="matrix(-0.9846 -0.1749 0.1749 -0.9846 370.7753 177.6841)" gradientUnits="userSpaceOnUse">
			<stop  offset="0.5745" style="stop-color:#FFFFFF"/>
			<stop  offset="0.9381" style="stop-color:#F1F1F1"/>
		</radialGradient>
		<path fill="url(#SVGID_8_)" d="M33.213,27.946c-0.499,8.305-2.012,27.9,1.905,38.275c3.639,9.647,9.797,12.36,16.759,15.911
			c1.01,0.517,0.999,1.812,0.264,3.031c0.77-0.805,2.449-1.446,3.111-1.639c0.339,1.624,0.674,3.251,0.656,5.128
			c0.605-3.413,0.93-5.21,2.301-5.212c6.029-0.003,12.036-1.052,16.602-5.331c8.221-7.698,19.132-25.404,21.44-39.611
			c2.309-14.206-6.815-23.351-27.443-27.014C48.18,7.82,33.832,17.657,33.213,27.946z"/>
		<path fill="#EFEEF3" d="M76.289,36.137c-0.76,4.284-7.88,7.978-14.911,6.728c-7.033-1.248-12.816-7.372-12.056-11.655
			c0.76-4.285,7.78-5.106,14.813-3.857C71.167,28.603,77.05,31.855,76.289,36.137z"/>
		
			<radialGradient id="SVGID_9_" cx="167.4922" cy="93.7036" r="3.4539" gradientTransform="matrix(-1.7915 -0.3183 0.1749 -0.9846 347.7768 173.1788)" gradientUnits="userSpaceOnUse">
			<stop  offset="0.0054" style="stop-color:#FCDBD2"/>
			<stop  offset="1" style="stop-color:#FCDBD2"/>
		</radialGradient>
		<path fill="url(#SVGID_9_)" d="M70.411,29.161c0.068,0.043-1.633,0.177-3.335,0.582c-1.828,0.43-3.673,1.131-3.673,1.131
			s-5.057-3.345-5.591-3.682c-1.061-0.669,3.234-3.702,7.124-2.825C68.265,25.116,69.363,28.473,70.411,29.161z"/>
		
			<radialGradient id="SVGID_10_" cx="346.0635" cy="86.5425" r="7.6553" gradientTransform="matrix(-0.9846 -0.1749 0.1749 -0.9846 370.7753 177.6841)" gradientUnits="userSpaceOnUse">
			<stop  offset="0.1022" style="stop-color:#F9D8DC"/>
			<stop  offset="0.7692" style="stop-color:#F6B4BA"/>
		</radialGradient>
		<path opacity="0.2" fill="url(#SVGID_10_)" d="M53.055,33.141c-0.72,4.048-4.774,6.81-9.399,5.988
			c-5.486-0.975-6.795-5.879-6.371-8.264c0.955-5.375,5.296-6.828,9.211-6.134C50.411,25.427,53.911,28.314,53.055,33.141z"/>
		
			<radialGradient id="SVGID_11_" cx="309.7793" cy="86.5415" r="7.6558" gradientTransform="matrix(-0.9846 -0.1749 0.1749 -0.9846 370.7753 177.6841)" gradientUnits="userSpaceOnUse">
			<stop  offset="0.1022" style="stop-color:#F9D8DC"/>
			<stop  offset="0.7692" style="stop-color:#F6B4BA"/>
		</radialGradient>
		<path opacity="0.2" fill="url(#SVGID_11_)" d="M88.779,39.488c-0.721,4.047-4.776,6.808-9.402,5.986
			c-5.483-0.973-6.793-5.877-6.368-8.263c0.954-5.375,5.294-6.83,9.209-6.134C86.134,31.773,89.635,34.662,88.779,39.488z"/>
		
			<radialGradient id="SVGID_12_" cx="321.3633" cy="96.9106" r="7.9415" gradientTransform="matrix(-0.9846 -0.1749 0.1749 -0.9846 370.7753 177.6841)" gradientUnits="userSpaceOnUse">
			<stop  offset="0" style="stop-color:#E6E5E5"/>
			<stop  offset="0.6615" style="stop-color:#FFFFFF"/>
			<stop  offset="0.7744" style="stop-color:#FFFFFF"/>
			<stop  offset="1" style="stop-color:#FFFFFF"/>
		</radialGradient>
		<path fill="url(#SVGID_12_)" d="M63.516,30.79c0.21-1.178,1.085-6.114,1.085-6.114l2.704,0.481L67,29.31
			C67,29.31,63.382,30.994,63.516,30.79z"/>
		
			<radialGradient id="SVGID_13_" cx="325.1807" cy="96.2593" r="7.6484" gradientTransform="matrix(-0.9846 -0.1749 0.1749 -0.9846 370.7753 177.6841)" gradientUnits="userSpaceOnUse">
			<stop  offset="0" style="stop-color:#E6E5E5"/>
			<stop  offset="0.6615" style="stop-color:#FFFFFF"/>
			<stop  offset="0.7744" style="stop-color:#FFFFFF"/>
			<stop  offset="1" style="stop-color:#FFFFFF"/>
		</radialGradient>
		<path fill="url(#SVGID_13_)" d="M63.418,30.772c0.209-1.178,1.089-6.112,1.089-6.112l-2.702-0.481l-1.146,4.003
			C60.658,28.183,63.475,31.01,63.418,30.772z"/>
		<g>
			
				<radialGradient id="SVGID_14_" cx="338.165" cy="78.4619" r="1.9299" gradientTransform="matrix(-0.9846 -0.1749 0.1749 -0.9846 370.7753 177.6841)" gradientUnits="userSpaceOnUse">
				<stop  offset="0.0233" style="stop-color:#434243"/>
				<stop  offset="0.4095" style="stop-color:#312F30"/>
				<stop  offset="0.7692" style="stop-color:#221F1F"/>
			</radialGradient>
			<path fill="url(#SVGID_14_)" d="M48.844,41.82c0.204-1.144,1.288-1.909,2.437-1.706c1.143,0.203,1.911,1.298,1.708,2.442
				c-0.202,1.145-1.457,2.774-2.598,2.572C49.241,44.924,48.641,42.966,48.844,41.82z"/>
			
				<radialGradient id="SVGID_15_" cx="318.8262" cy="78.8408" r="2.2287" gradientTransform="matrix(-0.9846 -0.1749 0.1749 -0.9846 370.7753 177.6841)" gradientUnits="userSpaceOnUse">
				<stop  offset="0.0233" style="stop-color:#434243"/>
				<stop  offset="0.7692" style="stop-color:#221F1F"/>
			</radialGradient>
			<path fill="url(#SVGID_15_)" d="M69.138,45.181c0.202-1.145,1.289-1.909,2.436-1.705c1.145,0.203,1.909,1.296,1.705,2.44
				c-0.203,1.145-1.453,2.775-2.596,2.572C69.536,48.284,68.934,46.326,69.138,45.181z"/>
		</g>
		<g>
			
				<radialGradient id="SVGID_16_" cx="309.9746" cy="93.9761" r="24.3216" gradientTransform="matrix(-0.9846 -0.1749 0.1749 -0.9846 370.7753 177.6841)" gradientUnits="userSpaceOnUse">
				<stop  offset="0.2061" style="stop-color:#FCDBD2"/>
				<stop  offset="0.9032" style="stop-color:#FCDBD2"/>
				<stop  offset="0.9685" style="stop-color:#FBD5D2"/>
				<stop  offset="1" style="stop-color:#FAD0D2"/>
			</radialGradient>
			<path fill="url(#SVGID_16_)" d="M50.857,28.962c0.198,0.123,0.299,0.139,0.538-0.076c3.634-3.287,8.677-0.908,11.729,2.728
				c0.156,0.187,0.381,0.191,0.556,0.027c2.564-2.421,8.026-2.652,10.43,0.142c0.188,0.155,0.398,0.063,0.479-0.019
				c0.259-0.257-0.025-0.559-0.025-0.559c-1.162-1.27-2.87-1.879-4.698-2.066c-1.277-0.133-2.563,0.063-3.797,0.39
				c-0.866,0.229-2.398,1.63-2.952,1.013c-3.251-3.612-8.331-5.435-11.973-2.405C51.003,28.286,50.481,28.614,50.857,28.962z"/>
		</g>
		
			<radialGradient id="SVGID_17_" cx="325.8096" cy="83.8701" r="2.2274" gradientTransform="matrix(-0.9846 -0.1749 0.1749 -0.9846 370.7753 177.6841)" gradientUnits="userSpaceOnUse">
			<stop  offset="0.2061" style="stop-color:#434243"/>
			<stop  offset="0.7692" style="stop-color:#221F1F"/>
		</radialGradient>
		<path fill="url(#SVGID_17_)" d="M63.927,31.812c2.11,0.605,4.755,4.054,4.257,6.634c-0.519,2.731-4.685,2.216-6.754,1.839
			c-3.003-0.544-3.935-1.784-4.562-2.938C55.339,34.53,60.191,30.738,63.927,31.812z"/>
	</g>
</g>
</svg>
