<?xml version="1.0" encoding="utf-8"?>
<!-- Generator: Adobe Illustrator 16.0.0, SVG Export Plug-In . SVG Version: 6.00 Build 0)  -->
<!DOCTYPE svg PUBLIC "-//W3C//DTD SVG 1.1//EN" "http://www.w3.org/Graphics/SVG/1.1/DTD/svg11.dtd">
<svg version="1.1" id="Слой_1" xmlns="http://www.w3.org/2000/svg" xmlns:xlink="http://www.w3.org/1999/xlink" x="0px" y="0px"
	 width="74.588px" height="124px" viewBox="0 0 74.588 124" enable-background="new 0 0 74.588 124" xml:space="preserve">
<g>
	<g>
		
			<radialGradient id="SVGID_1_" cx="-226.6948" cy="25.793" r="120.4526" gradientTransform="matrix(1.2515 0.1988 -0.167 1.0512 401.2837 97.1883)" gradientUnits="userSpaceOnUse">
			<stop  offset="0" style="stop-color:#F1F1F1"/>
			<stop  offset="0.5323" style="stop-color:#FFFFFF"/>
			<stop  offset="1" style="stop-color:#F1F1F1"/>
		</radialGradient>
		<path fill="url(#SVGID_1_)" d="M40.331,55.321c0,0,20.881-47.679,29.064-46.845C77.58,9.311,79.686,22.22,48.171,60.06
			L40.331,55.321z"/>
		
			<radialGradient id="SVGID_2_" cx="56.396" cy="54.0796" r="149.912" gradientTransform="matrix(0.9876 0.1569 -0.1569 0.9876 29.912 10.3072)" gradientUnits="userSpaceOnUse">
			<stop  offset="0" style="stop-color:#F1F1F1"/>
			<stop  offset="0.5323" style="stop-color:#FFFFFF"/>
			<stop  offset="1" style="stop-color:#F1F1F1"/>
		</radialGradient>
		<path fill="url(#SVGID_2_)" d="M32.161,52.353c0,0,2.827-39.827-11.53-49.973C6.272-7.766,13.707,17.043,16.324,29.491
			c2.616,12.448,9.824,26.281,9.824,26.281L32.161,52.353z"/>
		
			<radialGradient id="SVGID_3_" cx="-4.8662" cy="41.8345" r="35.9609" gradientTransform="matrix(0.9876 0.1569 -0.1569 0.9876 29.912 10.3072)" gradientUnits="userSpaceOnUse">
			<stop  offset="0.1022" style="stop-color:#F9D8DC"/>
			<stop  offset="0.7692" style="stop-color:#F6B4BA"/>
		</radialGradient>
		<path fill="url(#SVGID_3_)" d="M30.58,53.521c-0.254-0.659-3.499-18.771-5.827-27.378c-2.5-9.247-12.896-32.113-8.329-10.508
			c3.077,14.559,10.459,41.3,10.459,41.3C27.171,57.568,30.697,53.828,30.58,53.521z"/>
		
			<radialGradient id="SVGID_4_" cx="28.4106" cy="56.2334" r="47.3439" gradientTransform="matrix(0.9876 0.1569 -0.1569 0.9876 29.912 10.3072)" gradientUnits="userSpaceOnUse">
			<stop  offset="0.1022" style="stop-color:#F9D8DC"/>
			<stop  offset="0.7692" style="stop-color:#F6B4BA"/>
		</radialGradient>
		<path fill="url(#SVGID_4_)" d="M66.358,23.154c5.661-11.844,0.208-7.698-4.733-1.011c-2.48,3.356-18.845,30.95-19.127,31.563
			c-0.708,1.533-0.52,7.944,3.016,4.367C51.314,52.202,65.732,24.464,66.358,23.154z"/>
		
			<radialGradient id="SVGID_5_" cx="50.645" cy="46.7114" r="94.0691" gradientTransform="matrix(0.9876 0.1569 -0.1569 0.9876 29.912 10.3072)" gradientUnits="userSpaceOnUse">
			<stop  offset="0" style="stop-color:#F1F1F1"/>
			<stop  offset="0.5323" style="stop-color:#FFFFFF"/>
			<stop  offset="1" style="stop-color:#F1F1F1"/>
		</radialGradient>
		<path fill="url(#SVGID_5_)" d="M50.992,124c-0.588-10.915-4.689-23.655-5.62-29.921c-0.681-4.588-28.218-8.981-28.944-4.408
			C0.696,113.367,8.301,122.245,9.461,124C21.093,123.999,50.992,124,50.992,124z"/>
		
			<radialGradient id="SVGID_6_" cx="41.6665" cy="79.123" r="70.267" gradientTransform="matrix(0.9876 0.1569 -0.1569 0.9876 29.912 10.3072)" gradientUnits="userSpaceOnUse">
			<stop  offset="0" style="stop-color:#F1F1F1"/>
			<stop  offset="0.5484" style="stop-color:#FFFFFF"/>
			<stop  offset="1" style="stop-color:#F1F1F1"/>
		</radialGradient>
		<path fill="url(#SVGID_6_)" d="M42.634,124c-0.148-4.801-2.185-9.837-4.016-14.142c0,0-3.724-8.936-8.507-9.537
			c-4.875-0.611-10.812,7.109-10.85,7.104c-3.94,4.584-8.026,10.672-8.772,16.575H42.634z"/>
		
			<radialGradient id="SVGID_7_" cx="21.3789" cy="85.502" r="13.725" gradientTransform="matrix(0.9876 0.1569 -0.1569 0.9876 29.912 10.3072)" gradientUnits="userSpaceOnUse">
			<stop  offset="0" style="stop-color:#E89FA3"/>
			<stop  offset="1" style="stop-color:#E85452"/>
		</radialGradient>
		<path fill="url(#SVGID_7_)" d="M23.625,99.077c0,0,8.745,2.358,13.212,2.133c2.808-0.141,5.878-0.613,8.101-1.516
			c1.275-0.518,1.692-1.643,1.696-3.027c0.002-0.727-5.043,1.175-11.098,1.533c-5.49,0.326-12.035-0.916-12.195-0.944
			C23.005,97.197,23.625,99.077,23.625,99.077z"/>
		
			<radialGradient id="SVGID_8_" cx="0.6284" cy="118.0078" r="20.3676" gradientTransform="matrix(0.9876 0.1569 -0.1569 0.9876 29.912 10.3072)" gradientUnits="userSpaceOnUse">
			<stop  offset="0" style="stop-color:#D1D2D3"/>
			<stop  offset="0.6344" style="stop-color:#F6F7F7"/>
		</radialGradient>
		<path fill="url(#SVGID_8_)" d="M21.835,124c0.09-0.279,0.146-0.523,0.158-0.704c0.187-2.527-1.664-3.409-1.989-4.233
			c-1.153-2.921-0.188-7.669-1.364-12.5c0.172,0.09-8.516-2.802-8.533-2.667c-1.26,9.258,1.824,13.273,5.503,20.104H21.835z"/>
		
			<radialGradient id="SVGID_9_" cx="30.5366" cy="114.0479" r="28.8503" gradientTransform="matrix(0.9876 0.1569 -0.1569 0.9876 29.912 10.3072)" gradientUnits="userSpaceOnUse">
			<stop  offset="0" style="stop-color:#D1D2D3"/>
			<stop  offset="0.2626" style="stop-color:#E9EAEA"/>
			<stop  offset="0.5431" style="stop-color:#FFFFFF"/>
		</radialGradient>
		<path fill="url(#SVGID_9_)" d="M38.653,124c4.61-4.285,8.013-7.474,9.48-15.549c0.024-0.134-9.131-0.077-8.94-0.108
			c-2.615,4.228-3.168,9.041-5.17,11.461c-0.564,0.684-2.598,0.948-3.203,3.408c-0.047,0.189-0.07,0.465-0.067,0.788H38.653z"/>
		
			<radialGradient id="SVGID_10_" cx="16.8516" cy="62.2754" r="38.339" gradientTransform="matrix(0.9876 0.1569 -0.1569 0.9876 29.912 10.3072)" gradientUnits="userSpaceOnUse">
			<stop  offset="0" style="stop-color:#F1F1F1"/>
			<stop  offset="0.5484" style="stop-color:#FFFFFF"/>
			<stop  offset="1" style="stop-color:#F1F1F1"/>
		</radialGradient>
		<path fill="url(#SVGID_10_)" d="M53.16,87.749c0.238-5.695,1.028-19.139-1.784-26.197c-2.614-6.563-6.867-8.347-11.681-10.691
			c-0.699-0.342-0.707-1.229-0.219-2.073c-0.518,0.56-1.659,1.02-2.11,1.163c-0.252-1.11-0.503-2.22-0.514-3.505
			c-0.372,2.345-0.572,3.58-1.512,3.598c-4.13,0.079-8.232,0.873-11.308,3.861C18.499,59.28,11.245,71.546,9.841,81.308
			C8.437,91.069,14.802,97.22,28.98,99.472C43.158,101.725,52.865,94.806,53.16,87.749z"/>
		<path fill="#EFEEF3" d="M23.546,82.676c0.467-2.943,5.297-5.563,10.131-4.796c4.833,0.769,8.874,4.891,8.406,7.836
			c-0.469,2.944-5.267,3.596-10.101,2.827C27.15,87.775,23.078,85.62,23.546,82.676z"/>
		
			<radialGradient id="SVGID_11_" cx="26.5581" cy="71.5713" r="5.2456" gradientTransform="matrix(0.9876 0.1569 -0.1569 0.9876 29.912 10.3072)" gradientUnits="userSpaceOnUse">
			<stop  offset="0.1022" style="stop-color:#F9D8DC"/>
			<stop  offset="0.7692" style="stop-color:#F6B4BA"/>
		</radialGradient>
		<path opacity="0.2" fill="url(#SVGID_11_)" d="M39.501,84.438c0.441-2.783,3.186-4.725,6.365-4.219
			c3.77,0.598,4.728,3.941,4.468,5.58c-0.588,3.695-3.543,4.746-6.233,4.318C41.41,89.69,38.974,87.757,39.501,84.438z"/>
		
			<radialGradient id="SVGID_12_" cx="1.6963" cy="71.5703" r="5.2458" gradientTransform="matrix(0.9876 0.1569 -0.1569 0.9876 29.912 10.3072)" gradientUnits="userSpaceOnUse">
			<stop  offset="0.1022" style="stop-color:#F9D8DC"/>
			<stop  offset="0.7692" style="stop-color:#F6B4BA"/>
		</radialGradient>
		<path opacity="0.2" fill="url(#SVGID_12_)" d="M14.949,80.537c0.441-2.782,3.186-4.724,6.364-4.219
			c3.771,0.599,4.728,3.942,4.467,5.581c-0.587,3.695-3.541,4.746-6.232,4.318C16.857,85.79,14.42,83.855,14.949,80.537z"/>
		<g>
			<g>
				
					<linearGradient id="SVGID_13_" gradientUnits="userSpaceOnUse" x1="-17.4595" y1="91.0127" x2="47.4204" y2="91.0127" gradientTransform="matrix(0.9434 0.3316 -0.3316 0.9434 48.1891 1.1716)">
					<stop  offset="0" style="stop-color:#C8D65C"/>
					<stop  offset="1" style="stop-color:#B3CD5C"/>
				</linearGradient>
				<path fill="url(#SVGID_13_)" d="M62.607,102.7c0,0,0.652-4.404-13.056-10.271s-39.36-7.817-45.823-7.314
					c-3.243,0.253-3.977-0.147-3.661,0.969c0.241,0.851,1.343,1.026,4.783,0.815c5.669-0.348,26.987,1.322,32.463,2.535
					c5.506,1.221,10.97,3.041,17.268,6.492c6.298,3.453,7.454,6.256,7.724,7.196C62.573,104.063,62.607,102.7,62.607,102.7z"/>
			</g>
			
				<radialGradient id="SVGID_14_" cx="57.2563" cy="91.4385" r="6.3669" fx="56.417" fy="97.7498" gradientTransform="matrix(-0.6982 -0.7159 1.5629 -1.5242 -31.0458 286.7798)" gradientUnits="userSpaceOnUse">
				<stop  offset="0" style="stop-color:#F1F1F1"/>
				<stop  offset="0.5323" style="stop-color:#FFFFFF"/>
				<stop  offset="1" style="stop-color:#F1F1F1"/>
			</radialGradient>
			<path fill="url(#SVGID_14_)" d="M67.106,105.679c0,0,7.663-1.506,6.014-4.598c-1.309-2.455-5.901,2.738-6.434,3.473
				C66.153,105.288,67.106,105.679,67.106,105.679z"/>
			
				<radialGradient id="SVGID_15_" cx="55.6841" cy="83.0664" r="9.7724" gradientTransform="matrix(-0.8764 0.4815 -0.7139 -1.2994 181.2816 179.1218)" gradientUnits="userSpaceOnUse">
				<stop  offset="0" style="stop-color:#F1F1F1"/>
				<stop  offset="0.5323" style="stop-color:#FFFFFF"/>
				<stop  offset="1" style="stop-color:#F1F1F1"/>
			</radialGradient>
			<path fill="url(#SVGID_15_)" d="M66.218,105.517c0,0,7.171-7.565,5.491-10.155c-1.464-2.256-5.114,4.142-5.597,5.337
				c-0.481,1.197-1.355,4.031-1.13,4.69S66.218,105.517,66.218,105.517z"/>
			
				<radialGradient id="SVGID_16_" cx="49.8042" cy="86.8662" r="5.3874" gradientTransform="matrix(-0.9863 0.1647 -0.2705 -1.6198 138.9929 232.1398)" gradientUnits="userSpaceOnUse">
				<stop  offset="0" style="stop-color:#F1F1F1"/>
				<stop  offset="0.5323" style="stop-color:#FFFFFF"/>
				<stop  offset="1" style="stop-color:#F1F1F1"/>
			</radialGradient>
			<path fill="url(#SVGID_16_)" d="M64.731,105.497c0,0,0.582-1.222,0.949-2.697c0.366-1.476,0.442-5.511-0.925-7.256
				c-1.368-1.743-2.84,0.88-3.059,2.544c-0.22,1.664-0.566,4.819,2.399,7.739L64.731,105.497z"/>
			
				<radialGradient id="SVGID_17_" cx="46.0435" cy="90.1045" r="8.3225" gradientTransform="matrix(0.9434 0.3316 -0.3316 0.9434 48.1891 1.1716)" gradientUnits="userSpaceOnUse">
				<stop  offset="0" style="stop-color:#F1F1F1"/>
				<stop  offset="0.5323" style="stop-color:#FFFFFF"/>
				<stop  offset="1" style="stop-color:#F1F1F1"/>
			</radialGradient>
			<path fill="url(#SVGID_17_)" d="M64.522,106.284c0,0-2.85-6.395-7.781-4.681c-4.931,1.714,4.884,7.794,7.138,5.411
				s0.043-0.122,0.043-0.122L64.522,106.284z"/>
			
				<radialGradient id="SVGID_18_" cx="40.9624" cy="94.9053" r="8.489" gradientTransform="matrix(0.9434 0.3316 -0.3316 0.9434 48.1891 1.1716)" gradientUnits="userSpaceOnUse">
				<stop  offset="0" style="stop-color:#F1F1F1"/>
				<stop  offset="0.5323" style="stop-color:#FFFFFF"/>
				<stop  offset="1" style="stop-color:#F1F1F1"/>
			</radialGradient>
			<path fill="url(#SVGID_18_)" d="M62.688,106.744c0,0-8.928-1.546-9.98,1.908c-1.052,3.454,3.698,2.32,5.723,1.499
				c2.331-0.945,4.616-2.234,4.616-2.234L62.688,106.744z"/>
			
				<radialGradient id="SVGID_19_" cx="50.4419" cy="104.625" r="8.2935" gradientTransform="matrix(0.9434 0.3316 -0.3316 0.9434 48.1891 1.1716)" gradientUnits="userSpaceOnUse">
				<stop  offset="0" style="stop-color:#F1F1F1"/>
				<stop  offset="0.5323" style="stop-color:#FFFFFF"/>
				<stop  offset="1" style="stop-color:#F1F1F1"/>
			</radialGradient>
			<path fill="url(#SVGID_19_)" d="M62.738,108.063c0,0-9.18,4.205-6.717,6.75c1.904,1.968,5.155-2.777,5.489-3.19
				s2.236-3.135,2.236-3.135l-0.859-0.394"/>
			
				<radialGradient id="SVGID_20_" cx="48.5229" cy="95.9063" r="7.5213" gradientTransform="matrix(0.9434 0.3316 -0.3316 0.9434 48.1891 1.1716)" gradientUnits="userSpaceOnUse">
				<stop  offset="0.1588" style="stop-color:#F2DD6A"/>
				<stop  offset="0.5466" style="stop-color:#F9D36F"/>
				<stop  offset="1" style="stop-color:#FCCF71"/>
			</radialGradient>
			<path fill="url(#SVGID_20_)" d="M66.721,104.183c0.75,0.033,1.444,1.107,0.269,3.255c-1.175,2.146-4.493,2.571-5.087,1.425
				C61.167,107.442,65.172,104.116,66.721,104.183z"/>
		</g>
		
			<radialGradient id="SVGID_21_" cx="9.6304" cy="78.6738" r="5.4459" gradientTransform="matrix(0.9876 0.1569 -0.1569 0.9876 29.912 10.3072)" gradientUnits="userSpaceOnUse">
			<stop  offset="0" style="stop-color:#E6E5E5"/>
			<stop  offset="0.6615" style="stop-color:#FFFFFF"/>
			<stop  offset="0.7744" style="stop-color:#FFFFFF"/>
			<stop  offset="1" style="stop-color:#FFFFFF"/>
		</radialGradient>
		<path fill="url(#SVGID_21_)" d="M32.364,86.181c-0.129,0.809-0.666,4.201-0.666,4.201l-1.858-0.295l0.155-2.85
			C29.995,87.237,32.453,86.039,32.364,86.181z"/>
		
			<radialGradient id="SVGID_22_" cx="12.2495" cy="78.2285" r="5.2408" gradientTransform="matrix(0.9876 0.1569 -0.1569 0.9876 29.912 10.3072)" gradientUnits="userSpaceOnUse">
			<stop  offset="0" style="stop-color:#E6E5E5"/>
			<stop  offset="0.6615" style="stop-color:#FFFFFF"/>
			<stop  offset="0.7744" style="stop-color:#FFFFFF"/>
			<stop  offset="1" style="stop-color:#FFFFFF"/>
		</radialGradient>
		<path fill="url(#SVGID_22_)" d="M32.431,86.19c-0.129,0.81-0.67,4.201-0.67,4.201l1.858,0.296l0.735-2.757
			C34.355,87.931,32.389,86.028,32.431,86.19z"/>
		<g>
			
				<radialGradient id="SVGID_23_" cx="21.146" cy="66.0313" r="1.3224" gradientTransform="matrix(0.9876 0.1569 -0.1569 0.9876 29.912 10.3072)" gradientUnits="userSpaceOnUse">
				<stop  offset="0.0233" style="stop-color:#434243"/>
				<stop  offset="0.4095" style="stop-color:#312F30"/>
				<stop  offset="0.7692" style="stop-color:#221F1F"/>
			</radialGradient>
			<path fill="url(#SVGID_23_)" d="M42.277,78.439c-0.124,0.786-0.858,1.324-1.647,1.198c-0.785-0.125-1.325-0.864-1.201-1.65
				c0.126-0.787,0.963-1.92,1.748-1.795C41.966,76.318,42.403,77.652,42.277,78.439z"/>
			
				<radialGradient id="SVGID_24_" cx="5.9868" cy="66.5918" r="1.5281" gradientTransform="matrix(0.9876 0.1569 -0.1569 0.9876 29.912 10.3072)" gradientUnits="userSpaceOnUse">
				<stop  offset="0.0233" style="stop-color:#434243"/>
				<stop  offset="0.7692" style="stop-color:#221F1F"/>
			</radialGradient>
			<path fill="url(#SVGID_24_)" d="M26.401,76.388c-0.124,0.785-0.86,1.323-1.648,1.197c-0.784-0.124-1.323-0.863-1.199-1.65
				c0.126-0.787,0.962-1.918,1.747-1.794C26.088,74.267,26.527,75.601,26.401,76.388z"/>
		</g>
		<g>
			
				<radialGradient id="SVGID_25_" cx="2.0654" cy="76.6641" r="16.3106" gradientTransform="matrix(0.9876 0.1569 -0.1569 0.9876 29.912 10.3072)" gradientUnits="userSpaceOnUse">
				<stop  offset="0.2061" style="stop-color:#EACBBB"/>
				<stop  offset="0.7527" style="stop-color:#DEA5A1"/>
				<stop  offset="1" style="stop-color:#DB727A"/>
			</radialGradient>
			<path fill="url(#SVGID_25_)" d="M41.506,86.39c-2.428,3.62-6.5,1.959-8.885-0.779c-0.11-0.126-0.265-0.126-0.381-0.012
				c-1.973,1.932-6.586,1.97-7.741-0.885c-0.116-0.286-0.563-0.113-0.447,0.174c0.679,1.679,2.263,2.357,3.98,2.503
				c0.878,0.074,1.757-0.075,2.599-0.315c0.59-0.168,1.622-1.146,2.01-0.73c2.604,2.79,6.827,3.943,9.236,0.349
				C42.048,86.438,41.678,86.133,41.506,86.39L41.506,86.39z"/>
		</g>
		
			<radialGradient id="SVGID_26_" cx="12.6802" cy="69.7383" r="1.5264" gradientTransform="matrix(0.9876 0.1569 -0.1569 0.9876 29.912 10.3072)" gradientUnits="userSpaceOnUse">
			<stop  offset="0.2061" style="stop-color:#434243"/>
			<stop  offset="0.7692" style="stop-color:#221F1F"/>
		</radialGradient>
		<path fill="url(#SVGID_26_)" d="M32.07,85.485c-1.452-0.389-3.309-2.719-3-4.491c0.321-1.878,3.182-1.577,4.604-1.347
			c2.064,0.336,2.719,1.174,3.162,1.957C37.919,83.517,34.642,86.175,32.07,85.485z"/>
		<g>
			
				<radialGradient id="SVGID_27_" cx="3.2192" cy="50.1851" r="9.4893" gradientTransform="matrix(0.9908 -0.1356 0.1356 0.9908 6.3384 43.8161)" gradientUnits="userSpaceOnUse">
				<stop  offset="0" style="stop-color:#E89FA3"/>
				<stop  offset="1" style="stop-color:#E85452"/>
			</radialGradient>
			<path fill="url(#SVGID_27_)" d="M16.388,98.44c0,0-3.882,4.188-6.741,3.322s-1.603-5.034-1.595-6.635
				c0.011-1.601-2.167-3.568-2.101-4.623c0.067-1.057,9.276-0.262,10.787,1.739C18.25,94.245,16.388,98.44,16.388,98.44z"/>
			
				<radialGradient id="SVGID_28_" cx="-3.8594" cy="49.7319" r="3.85" gradientTransform="matrix(0.9908 -0.1356 0.1356 0.9908 6.3384 43.8161)" gradientUnits="userSpaceOnUse">
				<stop  offset="0" style="stop-color:#E89FA3"/>
				<stop  offset="1" style="stop-color:#E85452"/>
			</radialGradient>
			<path fill="url(#SVGID_28_)" d="M16.591,92.092c0,0-6.693-6.011-10.009-2.702C3.266,92.699,14.9,93.922,16.591,92.092z"/>
			
				<radialGradient id="SVGID_29_" cx="2.5005" cy="66.5049" r="10.3128" gradientTransform="matrix(0.9908 -0.1356 0.1356 0.9908 6.3384 43.8161)" gradientUnits="userSpaceOnUse">
				<stop  offset="0" style="stop-color:#E89FA3"/>
				<stop  offset="1" style="stop-color:#E85452"/>
			</radialGradient>
			<path fill="url(#SVGID_29_)" d="M17.823,97.598c0,0-1.581,3.524-0.992,5.466c0.278,0.914,1.369,3.186,3.472,2.898
				c2.102-0.289,2.906-1.975,3.542-4.301c0.652-2.391-0.985-5.526-1.783-6.234c-0.797-0.709-2.323-1.994-2.796-1.834
				C18.792,93.753,18.017,96.867,17.823,97.598z"/>
			
				<radialGradient id="SVGID_30_" cx="4.4995" cy="59.917" r="6.9805" gradientTransform="matrix(0.9908 -0.1356 0.1356 0.9908 6.3384 43.8161)" gradientUnits="userSpaceOnUse">
				<stop  offset="0" style="stop-color:#E89FA3"/>
				<stop  offset="1" style="stop-color:#E85452"/>
			</radialGradient>
			<path fill="url(#SVGID_30_)" d="M19.265,93.593c0,0,3.304,0.818,4.333,4.395c1.698,5.896-3.335,3.73-3.985,1.764
				S18.895,94.784,19.265,93.593z"/>
			
				<radialGradient id="SVGID_31_" cx="8.1724" cy="49.3052" r="8.0375" gradientTransform="matrix(0.9908 -0.1356 0.1356 0.9908 6.3384 43.8161)" gradientUnits="userSpaceOnUse">
				<stop  offset="0" style="stop-color:#E89FA3"/>
				<stop  offset="1" style="stop-color:#E85452"/>
			</radialGradient>
			<path fill="url(#SVGID_31_)" d="M19.265,93.593c0,0-1.324-2.005-2.594-1.536c-0.182,0.067-0.362,0.185-0.536,0.365
				c-1.4,1.448-2.351,5.929,0.253,6.019C18.553,98.516,17.372,97.278,19.265,93.593z"/>
		</g>
	</g>
</g>
</svg>
