<?xml version="1.0" encoding="utf-8"?>
<!-- Generator: Adobe Illustrator 16.0.0, SVG Export Plug-In . SVG Version: 6.00 Build 0)  -->
<!DOCTYPE svg PUBLIC "-//W3C//DTD SVG 1.1//EN" "http://www.w3.org/Graphics/SVG/1.1/DTD/svg11.dtd">
<svg version="1.1" id="Слой_1" xmlns="http://www.w3.org/2000/svg" xmlns:xlink="http://www.w3.org/1999/xlink" x="0px" y="0px"
	 width="15.235px" height="13px" viewBox="0 0 15.235 13" enable-background="new 0 0 15.235 13" xml:space="preserve">
<g>
	<path d="M13.149,6.22l1.979-1.979c0.068-0.068,0.105-0.158,0.106-0.253c0-0.097-0.037-0.187-0.105-0.255
		c-0.136-0.135-0.372-0.135-0.509,0.001l-1.979,1.979l-1.979-1.979c-0.136-0.137-0.373-0.136-0.508-0.001
		C10.087,3.8,10.05,3.891,10.05,3.987c0,0.096,0.037,0.186,0.105,0.253l1.979,1.979l-1.979,1.979
		c-0.068,0.068-0.105,0.158-0.105,0.254s0.037,0.188,0.105,0.256c0.134,0.133,0.371,0.135,0.508,0l1.979-1.98l1.979,1.98
		c0.068,0.066,0.159,0.104,0.254,0.104c0.096,0,0.187-0.037,0.255-0.105c0.068-0.066,0.105-0.158,0.105-0.254
		s-0.037-0.186-0.105-0.254L13.149,6.22z"/>
	<path d="M8.05,0.12C7.758-0.044,7.391-0.04,7.106,0.133C7.089,0.143,7.073,0.154,7.059,0.167L3.298,3.348H0.359
		C0.161,3.348,0,3.509,0,3.707v5.304c0,0.096,0.038,0.188,0.105,0.255c0.068,0.067,0.158,0.104,0.254,0.104L3.29,9.369l3.759,3.454
		c0.019,0.016,0.037,0.029,0.056,0.041C7.253,12.953,7.42,13,7.589,13l0,0c0.162,0,0.317-0.041,0.461-0.123
		c0.304-0.172,0.485-0.484,0.485-0.838V0.959C8.535,0.606,8.354,0.292,8.05,0.12z M3.431,7.256c-0.198,0-0.36,0.161-0.36,0.359
		v1.036L0.719,8.652V4.067H3.07v1.037c0,0.198,0.162,0.359,0.36,0.359c0.197,0,0.358-0.161,0.358-0.359V3.874l3.699-3.132
		C7.569,0.7,7.669,0.731,7.695,0.747C7.771,0.79,7.816,0.869,7.816,0.959v11.079c0,0.09-0.046,0.17-0.121,0.213
		c-0.031,0.018-0.119,0.045-0.194,0.01L3.789,8.853V7.615C3.789,7.417,3.628,7.256,3.431,7.256z"/>
</g>
</svg>
