<?xml version="1.0" encoding="utf-8"?>
<!-- Generator: Adobe Illustrator 16.0.0, SVG Export Plug-In . SVG Version: 6.00 Build 0)  -->
<!DOCTYPE svg PUBLIC "-//W3C//DTD SVG 1.1//EN" "http://www.w3.org/Graphics/SVG/1.1/DTD/svg11.dtd">
<svg version="1.1" id="Слой_1" xmlns="http://www.w3.org/2000/svg" xmlns:xlink="http://www.w3.org/1999/xlink" x="0px" y="0px"
	 width="14.688px" height="13px" viewBox="0 0 14.688 13" enable-background="new 0 0 14.688 13" xml:space="preserve">
<g>
	<path d="M8.043,0.118C7.758-0.044,7.399-0.039,7.117,0.131c-0.016,0.009-0.031,0.02-0.045,0.032L3.295,3.358H0.34
		C0.152,3.358,0,3.511,0,3.699V9.02c0,0.092,0.035,0.177,0.1,0.24c0.064,0.064,0.149,0.1,0.24,0.1l2.948-0.001l3.774,3.468
		c0.017,0.016,0.035,0.029,0.055,0.041C7.262,12.954,7.426,13,7.591,13c0.158,0,0.313-0.042,0.452-0.121
		c0.3-0.168,0.479-0.477,0.479-0.823V0.943C8.521,0.596,8.343,0.288,8.043,0.118z M3.42,7.278c-0.188,0-0.34,0.153-0.34,0.341v1.059
		H0.681V4.04H3.08v1.059c0,0.188,0.152,0.34,0.34,0.34c0.188,0,0.341-0.152,0.341-0.34V3.857l3.722-3.149
		c0.086-0.045,0.19-0.016,0.226,0.004C7.79,0.758,7.84,0.845,7.84,0.943v11.113c0,0.099-0.05,0.185-0.132,0.231
		c-0.034,0.019-0.132,0.048-0.216,0.01L3.761,8.868V7.619C3.761,7.431,3.608,7.278,3.42,7.278z"/>
	<path d="M10.942,1.136c-0.175-0.058-0.373,0.04-0.432,0.213c-0.029,0.086-0.023,0.179,0.018,0.26
		c0.04,0.082,0.109,0.143,0.195,0.172c1.964,0.667,3.283,2.506,3.283,4.578c0,2.069-1.316,3.909-3.276,4.578
		c-0.086,0.029-0.156,0.09-0.196,0.172s-0.046,0.174-0.017,0.26c0.048,0.139,0.177,0.23,0.323,0.23c0.037,0,0.074-0.006,0.109-0.018
		c2.235-0.763,3.737-2.861,3.737-5.223C14.688,3.996,13.184,1.897,10.942,1.136z"/>
	<path d="M12.168,6.359c0-1.699-1.141-3.215-2.773-3.688c-0.18-0.054-0.37,0.055-0.422,0.233c-0.025,0.087-0.015,0.18,0.029,0.26
		c0.044,0.08,0.116,0.137,0.203,0.162c1.344,0.388,2.282,1.635,2.282,3.033s-0.938,2.645-2.281,3.034
		c-0.088,0.024-0.16,0.082-0.204,0.162s-0.054,0.172-0.029,0.26c0.043,0.145,0.177,0.246,0.327,0.246
		c0.031,0,0.063-0.005,0.096-0.014C11.027,9.575,12.168,8.058,12.168,6.359z"/>
</g>
</svg>
