<?xml version="1.0" encoding="utf-8"?>
<!-- Generator: Adobe Illustrator 16.0.0, SVG Export Plug-In . SVG Version: 6.00 Build 0)  -->
<!DOCTYPE svg PUBLIC "-//W3C//DTD SVG 1.1//EN" "http://www.w3.org/Graphics/SVG/1.1/DTD/svg11.dtd">
<svg version="1.1" id="Слой_1" xmlns="http://www.w3.org/2000/svg" xmlns:xlink="http://www.w3.org/1999/xlink" x="0px" y="0px"
	 width="182px" height="182px" viewBox="0 0 182 182" enable-background="new 0 0 182 182" xml:space="preserve">
<g>
	<g>
		<path fill="#9A70DB" d="M182,91c0,1.825-2.053,3.578-2.159,5.377c-0.109,1.82,1.72,3.806,1.505,5.595
			c-0.218,1.811-2.466,3.305-2.789,5.079c-0.326,1.792,1.249,3.983,0.817,5.735c-0.434,1.768-2.846,2.979-3.383,4.703
			c-0.541,1.736,0.757,4.102,0.116,5.791c-0.646,1.699-3.187,2.608-3.929,4.257c-0.748,1.656,0.254,4.162-0.588,5.763
			c-0.846,1.607-3.479,2.203-4.416,3.75c-0.941,1.553-0.249,4.162-1.279,5.65c-1.032,1.492-3.717,1.766-4.834,3.19
			c-1.121,1.427-0.747,4.101-1.949,5.456c-1.203,1.356-3.901,1.307-5.183,2.588c-1.282,1.281-1.232,3.979-2.589,5.182
			c-1.355,1.202-4.028,0.829-5.455,1.949c-1.425,1.117-1.699,3.803-3.191,4.834c-1.489,1.03-4.098,0.338-5.65,1.278
			c-1.547,0.938-2.142,3.571-3.749,4.416c-1.601,0.842-4.107-0.159-5.764,0.587c-1.647,0.742-2.557,3.284-4.256,3.929
			c-1.689,0.642-4.055-0.657-5.791-0.116c-1.724,0.537-2.936,2.949-4.702,3.383c-1.753,0.431-3.943-1.145-5.734-0.818
			c-1.774,0.322-3.27,2.57-5.078,2.787c-1.79,0.215-3.774-1.613-5.595-1.504c-1.798,0.107-3.551,2.159-5.376,2.159
			s-3.578-2.052-5.377-2.159c-1.82-0.109-3.805,1.719-5.595,1.504c-1.81-0.217-3.305-2.465-5.08-2.788
			c-1.791-0.326-3.981,1.249-5.734,0.819c-1.768-0.436-2.979-2.848-4.703-3.384c-1.736-0.541-4.102,0.757-5.791,0.116
			c-1.699-0.645-2.608-3.187-4.257-3.93c-1.656-0.746-4.163,0.255-5.764-0.588c-1.607-0.845-2.201-3.478-3.749-4.416
			c-1.553-0.939-4.161-0.248-5.65-1.278c-1.492-1.031-1.767-3.717-3.191-4.835c-1.427-1.119-4.099-0.746-5.455-1.947
			c-1.356-1.203-1.306-3.902-2.588-5.184c-1.281-1.281-3.979-1.231-5.182-2.588s-0.829-4.029-1.948-5.456
			c-1.118-1.425-3.803-1.698-4.835-3.19c-1.029-1.489-0.338-4.098-1.278-5.65c-0.938-1.548-3.569-2.143-4.415-3.75
			c-0.842-1.602,0.16-4.107-0.587-5.764c-0.742-1.647-3.284-2.557-3.929-4.256c-0.641-1.689,0.657-4.055,0.117-5.791
			c-0.537-1.725-2.949-2.936-3.384-4.702c-0.43-1.753,1.145-3.943,0.818-5.735c-0.323-1.773-2.57-3.268-2.788-5.077
			c-0.215-1.79,1.613-3.774,1.505-5.595C2.053,94.578,0,92.825,0,91s2.052-3.578,2.159-5.376c0.108-1.821-1.72-3.806-1.505-5.595
			c0.218-1.81,2.465-3.304,2.789-5.079c0.326-1.792-1.249-3.983-0.818-5.736c0.435-1.767,2.847-2.978,3.384-4.702
			c0.54-1.736-0.758-4.103-0.116-5.792c0.645-1.699,3.185-2.608,3.929-4.256c0.746-1.656-0.255-4.163,0.588-5.764
			c0.845-1.607,3.478-2.202,4.415-3.75c0.94-1.553,0.249-4.161,1.279-5.65c1.031-1.492,3.717-1.766,4.835-3.19
			c1.119-1.427,0.746-4.1,1.947-5.456c1.203-1.356,3.901-1.306,5.184-2.588c1.281-1.281,1.231-3.979,2.588-5.182
			c1.355-1.202,4.028-0.829,5.455-1.948c1.425-1.118,1.699-3.803,3.191-4.834c1.489-1.03,4.098-0.338,5.648-1.278
			c1.549-0.938,2.144-3.57,3.75-4.416c1.602-0.842,4.108,0.16,5.765-0.587c1.647-0.743,2.557-3.284,4.256-3.929
			c1.689-0.641,4.055,0.657,5.791,0.116c1.724-0.537,2.936-2.949,4.702-3.383c1.753-0.431,3.943,1.145,5.734,0.819
			c1.775-0.323,3.27-2.571,5.078-2.788c1.79-0.215,3.774,1.613,5.595,1.505C87.421,2.052,89.174,0,90.999,0s3.578,2.052,5.377,2.16
			c1.82,0.108,3.806-1.72,5.596-1.504c1.809,0.217,3.303,2.465,5.078,2.788c1.791,0.327,3.982-1.249,5.735-0.818
			c1.768,0.434,2.979,2.846,4.702,3.383c1.736,0.541,4.103-0.757,5.792-0.116c1.7,0.645,2.609,3.187,4.258,3.93
			c1.656,0.747,4.162-0.254,5.764,0.587c1.606,0.846,2.201,3.479,3.749,4.416c1.552,0.94,4.16,0.249,5.649,1.278
			c1.492,1.032,1.767,3.717,3.191,4.835c1.427,1.119,4.1,0.747,5.455,1.948c1.356,1.203,1.307,3.901,2.588,5.183
			c1.282,1.282,3.979,1.231,5.183,2.588c1.202,1.355,0.828,4.029,1.948,5.456c1.117,1.425,3.803,1.699,4.835,3.191
			c1.029,1.489,0.338,4.098,1.278,5.65c0.938,1.548,3.569,2.143,4.415,3.75c0.842,1.601-0.16,4.107,0.588,5.763
			c0.742,1.648,3.283,2.557,3.928,4.256c0.642,1.689-0.656,4.055-0.116,5.792c0.537,1.724,2.95,2.936,3.384,4.702
			c0.43,1.753-1.145,3.943-0.818,5.735c0.323,1.774,2.57,3.268,2.788,5.078c0.215,1.79-1.613,3.774-1.505,5.594
			C179.947,87.421,182,89.175,182,91z"/>
	</g>
	<g>
		<path fill="#FFFFFF" d="M42.78,34.656c2.657-2.121,6.691-2.969,9.921,0.064c-1.118,0.892-2.107,1.682-3.227,2.574
			c-1.497-0.936-2.937-0.747-4.312,0.35c-1.924,1.536-2.032,3.993-0.338,6.119c1.508,1.888,4.07,2.543,6.028,1.011
			c1.394-1.112,1.955-2.7,1.207-4.353c1.1-0.877,2.106-1.682,3.225-2.573c2.42,4.009,0.683,7.735-2.048,9.914
			c-3.248,2.622-8.303,3.055-11.802-1.293C37.973,42.091,39.518,37.259,42.78,34.656z"/>
		<path fill="#FFFFFF" d="M61.665,41.624l-6.361-15.13c1.297-0.545,2.594-1.09,3.934-1.654l2.409,5.728l0.281-0.118
			c3.868-1.627,2.456-4.441,1.267-7.273c1.317-0.554,2.636-1.108,3.977-1.672c1.299,3.091,2.585,5.908,0.389,9.094l6.906,4.931
			l0.254,0.605l-4.301,1.809l-5.791-4.458c-0.483,0.305-0.958,0.504-1.455,0.714l2.426,5.771
			C64.259,40.534,62.963,41.079,61.665,41.624z"/>
		<path fill="#FFFFFF" d="M78.067,35.62l-1.49,0.183l-2.001-16.317c1.42-0.175,2.841-0.348,4.261-0.522l0.979,7.984l7.252-9.064
			l1.514-0.186l2.008,16.363c-1.421,0.174-2.864,0.351-4.308,0.528L85.3,26.582L78.067,35.62z"/>
		<path fill="#FFFFFF" d="M95.386,36.268l-3.432-0.524l0.829-5.426l1.646,0.251l7.526-11.995l1.785,0.272l3.789,13.723l1.692,0.258
			l-0.829,5.426l-3.408-0.521l0.273-1.785l-9.6-1.466L95.386,36.268z M98.633,31.164l4.591,0.702l-1.446-6.224L98.633,31.164z"/>
		<path fill="#FFFFFF" d="M110.143,37.139l6.62-15.03c1.289,0.568,2.576,1.135,3.907,1.721l-2.506,5.689l0.279,0.123
			c3.843,1.693,4.917-1.27,6.156-4.082c1.31,0.577,2.62,1.154,3.951,1.74c-1.353,3.07-2.515,5.942-6.342,6.538l1.168,8.41
			l-0.265,0.601l-4.272-1.881l-0.744-7.275c-0.554-0.142-1.025-0.35-1.521-0.567l-2.524,5.733
			C112.72,38.273,111.432,37.706,110.143,37.139z"/>
		<path fill="#FFFFFF" d="M133.831,48.834l-4.999-4.11l-2.054,0.983l-3.171-2.606l0.388-0.471l15.876-7.682l1.396,1.146
			l-4.447,17.079l-0.387,0.471l-3.171-2.606L133.831,48.834z M136.331,40.659l-4.171,2.156l2.898,2.383L136.331,40.659z"/>
	</g>
	<g>
		<g>
			<path fill="#FFFFFF" d="M34.892,138.126c-0.767-1.23-1.534-2.459-2.301-3.689l5.664-3.533l-2.716-4.354l-5.664,3.533
				c-0.767-1.229-1.547-2.479-2.301-3.689l14.109-8.801c0.755,1.209,1.534,2.459,2.301,3.689l-5.119,3.193l2.716,4.354l5.119-3.193
				c0.768,1.229,1.534,2.459,2.301,3.688L34.892,138.126z"/>
			<path fill="#FFFFFF" d="M48.646,148.762l-4.944-4.308l-2.107,0.936l-3.136-2.731l0.406-0.466l16.305-7.318l1.379,1.202
				l-5.001,17.168l-0.405,0.466l-3.135-2.732L48.646,148.762z M51.417,140.556l-4.287,2.063l2.866,2.498L51.417,140.556z"/>
			<path fill="#FFFFFF" d="M63.475,160.231l5.127-15.818c1.355,0.439,2.712,0.879,4.112,1.333l-1.94,5.989l0.294,0.095
				c4.045,1.312,4.822-1.783,5.782-4.743c1.379,0.446,2.757,0.893,4.158,1.348c-1.048,3.23-1.924,6.243-5.717,7.236l2.038,8.352
				l-0.205,0.633l-4.497-1.457l-1.496-7.252c-0.571-0.086-1.068-0.246-1.588-0.415l-1.956,6.034
				C66.187,161.11,64.83,160.671,63.475,160.231z"/>
			<path fill="#FFFFFF" d="M82.978,165.384c0.167-5.531,0.334-11.064,0.502-16.619c2.397,0.072,4.867,0.146,7.313,0.221
				c7.953,0.264,7.58,12.609-0.373,12.369l-3.063-0.092l-0.128,4.25C85.803,165.47,84.378,165.427,82.978,165.384z M90.653,152.783
				c-0.996-0.054-2.065-0.063-3.039-0.092c-0.041,1.354-0.103,3.396-0.144,4.749l3.039,0.092
				C92.837,157.603,93.122,152.882,90.653,152.783z"/>
			<path fill="#FFFFFF" d="M109.774,150.013c-2.406,0.565-3.608,0.848-5.991,1.407l0.538,2.29l5.505-1.293
				c0.288,1.227,0.576,2.452,0.864,3.678l-5.506,1.293c0.223,0.949,0.439,1.874,0.668,2.846c2.383-0.56,3.771-0.885,6.199-1.456
				c0.283,1.203,0.576,2.452,0.864,3.679c-3.794,0.891-6.569,1.543-10.317,2.422c-1.271-5.412-2.542-10.826-3.803-16.192
				c3.748-0.88,6.315-1.483,10.109-2.374C109.188,147.515,109.481,148.764,109.774,150.013z"/>
			<path fill="#FFFFFF" d="M121.594,161.041l-3.09,1.681l-2.656-4.885l1.481-0.807l-1.279-14.289l1.607-0.873l11.466,8.748
				l1.524-0.828l2.656,4.884l-3.068,1.669l-0.874-1.607l-8.642,4.7L121.594,161.041z M121.085,154.935l4.133-2.248l-4.98-4.135
				L121.085,154.935z"/>
			<path fill="#FFFFFF" d="M138.006,148.281l-1.062,1.089l-11.927-11.627c1.012-1.038,2.023-2.076,3.035-3.113l5.836,5.689
				l-0.015-11.762l1.078-1.106l11.96,11.66c-1.012,1.038-2.04,2.093-3.068,3.147l-5.853-5.705L138.006,148.281z"/>
			<path fill="#FFFFFF" d="M139.086,128.106c-1.125-0.617-2.229-1.222-3.333-1.826l5.936-10.831c1.104,0.604,2.207,1.21,3.332,1.826
				l-1.951,3.562l11.247,6.164c-0.674,1.229-1.347,2.457-2.021,3.686l-11.247-6.163L139.086,128.106z"/>
		</g>
	</g>
	<g>
		<path fill="#FFFFFF" d="M155.874,109.895l-2.539-3.155l-0.051-0.012l-0.436,3.906l-1.703-0.42l1.388-3.672l-0.051-0.013
			l-3.6,1.659l-0.512-1.8l3.878-0.634l0.013-0.051l-3.127-2.502l1.255-1.207l2.467,3.139l0.051,0.012l0.441-3.825l1.705,0.421
			l-1.39,3.564l0.051,0.013l3.638-1.598l0.499,1.745l-3.865,0.691l-0.013,0.05l3.127,2.396L155.874,109.895z"/>
		<path fill="#FFFFFF" d="M24.845,104.894l3.737,1.56l0.05-0.013l-1.479-3.638l1.697-0.441l0.53,3.887l0.049-0.015l2.376-3.174
			l1.305,1.34l-3.105,2.405l0.015,0.05l3.941,0.71l-0.53,1.655l-3.662-1.581l-0.05,0.013l1.434,3.572l-1.697,0.441l-0.478-3.793
			l-0.051,0.013l-2.436,3.139l-1.27-1.298l3.068-2.449l-0.015-0.05l-3.89-0.612L24.845,104.894z"/>
		<path fill="#FFFFFF" d="M23.514,87.068l3.195,2.489l0.051,0.003l-0.467-3.905l1.753,0.022l-0.512,3.89l0.053,0.001l3.126-2.438
			l0.909,1.637L27.99,90.27v0.054l3.615,1.721l-0.945,1.458l-3.118-2.489h-0.051l0.441,3.823l-1.755-0.021l0.538-3.787h-0.052
			l-3.177,2.387l-0.885-1.585l3.607-1.555v-0.054l-3.593-1.616L23.514,87.068z"/>
		<path fill="#FFFFFF" d="M26.909,69.541l2.433,3.239l0.049,0.014l0.566-3.89l1.688,0.479l-1.509,3.621l0.051,0.014l3.652-1.538
			l0.451,1.817L30.392,73.8l-0.014,0.05l3.045,2.604l-1.297,1.162L29.767,74.4l-0.05-0.012l-0.568,3.805l-1.688-0.478l1.505-3.514
			l-0.048-0.014l-3.69,1.475l-0.438-1.761l3.887-0.561l0.013-0.051l-3.046-2.498L26.909,69.541z"/>
		<path fill="#FFFFFF" d="M34.781,53.447l1.499,3.765l0.043,0.024l1.568-3.603l1.503,0.905l-2.408,3.098l0.046,0.027l3.929-0.525
			l-0.043,1.874l-3.893-0.539l-0.026,0.043l2.25,3.314l-1.555,0.782l-1.433-3.724l-0.044-0.028l-1.55,3.524l-1.503-0.906
			l2.378-2.995l-0.045-0.027l-3.947,0.454l0.036-1.815l3.898,0.479l0.028-0.043l-2.281-3.21L34.781,53.447z"/>
		<path fill="#FFFFFF" d="M152.421,62.802l-3.989-0.696l-0.046,0.024l2.246,3.223l-1.56,0.806l-1.375-3.673l-0.044,0.024
			l-1.615,3.621l-1.571-1.018l2.499-3.033l-0.022-0.045l-4.002,0.18l0.148-1.734l3.923,0.734l0.045-0.024l-2.188-3.166l1.558-0.807
			l1.306,3.594l0.045-0.024l1.684-3.6l1.524,0.984l-2.451,3.067l0.024,0.046l3.93-0.26L152.421,62.802z"/>
	</g>
	<g>
		<g>
			<path fill="#FFFFFF" d="M83.53,63.965c0.496,0,0.924,0.181,1.285,0.541c0.359,0.361,0.54,0.789,0.54,1.284v4.799
				c0,0.496-0.169,0.958-0.507,1.385c-0.338,0.429-0.665,0.801-0.979,1.115L74,83.5c2.028,0.27,3.863,0.767,5.509,1.487
				c1.645,0.721,3.053,1.656,4.225,2.805c1.171,1.149,2.072,2.512,2.704,4.089c0.63,1.577,0.946,3.335,0.946,5.272
				c0,2.344-0.463,4.427-1.386,6.252c-0.925,1.825-2.209,3.369-3.853,4.63c-1.646,1.263-3.583,2.231-5.813,2.907
				s-4.653,1.014-7.267,1.014c-3.154,0-5.892-0.372-8.212-1.115c-2.321-0.744-4.259-1.701-5.813-2.873
				c-1.554-1.172-2.737-2.501-3.548-3.988c-0.812-1.486-1.284-2.951-1.42-4.393c-0.045-0.541,0.124-0.98,0.507-1.318
				s0.822-0.508,1.318-0.508h5.34c0.45,0,0.821,0.147,1.115,0.439c0.293,0.294,0.597,0.71,0.912,1.251
				c0.271,0.54,0.631,1.048,1.082,1.521c0.45,0.474,1.048,0.902,1.791,1.285s1.678,0.688,2.805,0.912
				c1.126,0.226,2.501,0.338,4.123,0.338c2.748,0,4.969-0.551,6.658-1.656c1.69-1.104,2.535-2.67,2.535-4.697
				c0-2.028-0.845-3.481-2.535-4.359c-1.689-0.879-3.91-1.319-6.658-1.319h-5.609c-0.497,0-0.925-0.18-1.284-0.541
				c-0.361-0.36-0.541-0.788-0.541-1.284v-4.799c0-0.495,0.169-0.957,0.507-1.386c0.338-0.428,0.664-0.799,0.98-1.115l9.463-9.936
				H53.925c-0.496,0-0.924-0.18-1.284-0.541c-0.361-0.36-0.54-0.788-0.54-1.284V65.79c0-0.495,0.179-0.923,0.54-1.284
				c0.36-0.36,0.788-0.541,1.284-0.541H83.53z"/>
			<path fill="#FFFFFF" d="M129.291,81.606c0.044,0.857,0.067,1.803,0.067,2.839c0,1.037,0,2.095,0,3.177s0,2.141,0,3.177
				c0,1.037-0.023,1.983-0.067,2.838c-0.136,2.614-0.53,5.036-1.184,7.267s-1.689,4.169-3.108,5.813
				c-1.42,1.645-3.268,2.93-5.543,3.852c-2.276,0.924-5.059,1.387-8.348,1.387c-3.335,0-6.129-0.463-8.382-1.387
				c-2.254-0.922-4.089-2.207-5.509-3.852c-1.419-1.645-2.456-3.583-3.109-5.813s-1.047-4.652-1.183-7.267
				c-0.091-1.711-0.135-3.66-0.135-5.846c0-2.185,0.044-4.134,0.135-5.847c0.136-2.613,0.529-5.058,1.183-7.334
				c0.653-2.275,1.69-4.247,3.109-5.915c1.42-1.667,3.255-2.984,5.509-3.954c2.253-0.968,5.047-1.453,8.382-1.453
				c3.289,0,6.071,0.462,8.348,1.386c2.275,0.924,4.123,2.208,5.543,3.853c1.419,1.646,2.455,3.583,3.108,5.813
				C128.761,76.571,129.155,78.994,129.291,81.606z M102.051,93.3c0.226,3.244,1.003,5.758,2.332,7.537
				c1.329,1.78,3.571,2.67,6.726,2.67c3.153,0,5.396-0.89,6.726-2.67c1.328-1.779,2.105-4.293,2.332-7.537
				c0.09-1.711,0.135-3.604,0.135-5.677c0-2.072-0.045-3.965-0.135-5.678c-0.227-3.245-1.004-5.756-2.332-7.537
				c-1.33-1.78-3.572-2.67-6.726-2.67c-3.154,0-5.396,0.89-6.726,2.67c-1.329,1.781-2.106,4.292-2.332,7.537
				c-0.091,1.713-0.135,3.605-0.135,5.678C101.916,89.696,101.96,91.588,102.051,93.3z"/>
		</g>
	</g>
	<g>
		<g>
			<path fill="#FFFFFF" d="M150.36,80.019v2.345c0,1.131-0.418,1.987-1.255,2.569s-1.952,0.873-3.347,0.873
				s-2.515-0.291-3.359-0.873c-0.846-0.582-1.269-1.447-1.269-2.594v-2.295c0-1.147,0.432-2.012,1.294-2.594
				c0.863-0.582,1.97-0.873,3.321-0.873c1.351,0,2.457,0.295,3.32,0.886C149.929,78.053,150.36,78.905,150.36,80.019z
				 M157.211,76.603h2.196c0.418,0,0.627,0.193,0.627,0.577c0,0.104-0.035,0.2-0.104,0.287l-12.654,16.943
				c-0.244,0.33-0.559,0.496-0.941,0.496h-2.196c-0.418,0-0.627-0.188-0.627-0.564c0-0.104,0.034-0.199,0.104-0.287l12.654-16.956
				C156.514,76.768,156.827,76.603,157.211,76.603z M144.896,80.067v2.198c0,0.218,0.083,0.405,0.249,0.562
				c0.165,0.156,0.37,0.233,0.614,0.233s0.448-0.078,0.614-0.233c0.166-0.156,0.249-0.343,0.249-0.562v-2.198
				c0-0.218-0.083-0.401-0.249-0.549c-0.166-0.148-0.37-0.222-0.614-0.222s-0.449,0.078-0.614,0.234
				C144.979,79.686,144.896,79.865,144.896,80.067z M162.388,88.865v2.458c0,1.186-0.419,2.083-1.255,2.693
				c-0.837,0.61-1.953,0.915-3.347,0.915c-1.395,0-2.515-0.305-3.36-0.915s-1.268-1.517-1.268-2.719v-2.406
				c0-1.203,0.432-2.109,1.294-2.719c0.863-0.61,1.97-0.915,3.32-0.915s2.458,0.31,3.321,0.928
				C161.956,86.804,162.388,87.698,162.388,88.865z M156.923,88.839v2.458c0,0.244,0.083,0.453,0.249,0.627
				c0.165,0.174,0.37,0.261,0.614,0.261c0.243,0,0.448-0.087,0.614-0.261c0.165-0.174,0.248-0.383,0.248-0.627v-2.458
				c0-0.244-0.083-0.448-0.248-0.614c-0.166-0.166-0.371-0.249-0.614-0.249c-0.244,0-0.449,0.087-0.614,0.262
				C157.006,88.412,156.923,88.613,156.923,88.839z"/>
		</g>
	</g>
</g>
</svg>
