<?xml version="1.0" encoding="utf-8"?>
<!-- Generator: Adobe Illustrator 16.0.0, SVG Export Plug-In . SVG Version: 6.00 Build 0)  -->
<!DOCTYPE svg PUBLIC "-//W3C//DTD SVG 1.1//EN" "http://www.w3.org/Graphics/SVG/1.1/DTD/svg11.dtd">
<svg version="1.1" id="Layer_1" xmlns="http://www.w3.org/2000/svg" xmlns:xlink="http://www.w3.org/1999/xlink" x="0px" y="0px"
	 width="120px" height="120px" viewBox="0 0 120 120" enable-background="new 0 0 120 120" xml:space="preserve">
<path fill-rule="evenodd" clip-rule="evenodd" fill="#00428D" d="M111.406,120c-34.263,0-68.528,0-102.791,0
	c-0.024-0.38-0.068-0.761-0.068-1.141c-0.004-16.898-0.003-33.797-0.003-50.695c0-0.403,0-0.807,0-1.336c-2.953,0-5.751,0-8.544,0
	c0-10.145,0-20.164,0-30.312c9.55,0,19.044,0,28.776,0c-0.34-0.263-0.457-0.387-0.604-0.463c-2.912-1.494-5.623-3.221-8.052-5.295
	c-4.948-4.224-7.609-9.279-6.918-15.429c0.581-5.177,3.604-9.085,9.051-11.035c7.479-2.678,14.237-0.866,20.229,3.53
	c3.047,2.235,5.374,5.049,7.421,8.031c2.216,3.226,4.011,6.632,5.361,10.211c0.973,2.583,1.855,5.192,2.829,7.938
	c0.216-0.483,0.392-0.88,0.569-1.277c1.299-2.902,2.462-5.859,3.928-8.694c2.859-5.535,6.482-10.651,11.182-15.144
	c4.006-3.827,8.664-6.708,14.406-8.1c1.092-0.264,2.184-0.527,3.275-0.79c1.734,0,3.471,0,5.205,0
	c0.209,0.074,0.409,0.182,0.625,0.217c4.148,0.658,7.664,2.324,10.109,5.389c3.506,4.396,3.746,9.284,2.156,14.289
	c-2.012,6.342-6.608,11.074-12.385,15.021c-0.688,0.469-1.363,0.952-2.041,1.429c0.039,0.075,0.08,0.15,0.121,0.226
	c8.244,0,16.49,0,24.754,0c0,10.133,0,20.168,0,30.305c-2.84,0-5.605,0-8.514,0c0,0.504,0,0.909,0,1.314
	c0,16.891,0,33.781-0.004,50.672C111.482,119.241,111.434,119.62,111.406,120z M51.462,63.134c-11.564,0-22.933,0-34.339,0
	c0,16.433,0,32.81,0,49.31c0.428,0,0.814,0,1.201,0c10.588,0,21.176-0.014,31.766,0.021c1.056,0.003,1.404-0.176,1.402-1.191
	c-0.042-15.685-0.03-31.37-0.029-47.055C51.462,63.873,51.462,63.529,51.462,63.134z M102.858,112.443c0-16.525,0-32.926,0-49.311
	c-11.45,0-22.82,0-34.299,0c0,0.367,0,0.68,0,0.992c0,15.717,0.013,31.436-0.03,47.152c-0.003,1.025,0.361,1.188,1.406,1.186
	c10.553-0.033,21.105-0.02,31.658-0.02C101.988,112.443,102.379,112.443,102.858,112.443z M51.412,44.145
	c-14.329,0-28.549,0-42.84,0c0,5.036,0,10.035,0,15.072c14.293,0,28.54,0,42.84,0C51.412,54.191,51.412,49.223,51.412,44.145z
	 M111.455,44.18c-14.316,0-28.564,0-42.845,0c0,5.045,0,10.016,0,15.041c14.302,0,28.554,0,42.845,0
	C111.455,54.174,111.455,49.175,111.455,44.18z M67.324,36.353c0.084,0.083,0.17,0.167,0.254,0.25
	c2.746-0.355,5.512,0.361,8.291-0.679c6.591-2.466,12.805-5.422,18.064-9.765c3.564-2.941,6.141-6.386,6.803-10.79
	c0.469-3.101-0.922-5.586-3.924-6.489c-1.969-0.593-3.988-0.414-5.973,0.071c-5.504,1.345-9.291,4.684-12.66,8.512
	c-2.713,3.083-4.953,6.43-6.77,9.974C69.914,30.354,68.677,33.376,67.324,36.353z M47.72,34.099c0.086-0.1,0.173-0.201,0.261-0.301
	c-0.327-0.938-0.642-1.878-0.981-2.812c-2.114-5.812-4.872-11.325-9.717-15.814c-2.176-2.017-4.794-3.342-8.042-3.509
	c-4.349-0.225-7.152,2.607-6.461,6.417c0.525,2.896,2.207,5.138,4.616,7.039c3.181,2.513,6.812,4.413,10.717,5.858
	C41.257,32.141,44.514,33.067,47.72,34.099z"/>
</svg>
