<?xml version="1.0" encoding="utf-8"?>
<!-- Generator: Adobe Illustrator 16.0.0, SVG Export Plug-In . SVG Version: 6.00 Build 0)  -->
<!DOCTYPE svg PUBLIC "-//W3C//DTD SVG 1.1//EN" "http://www.w3.org/Graphics/SVG/1.1/DTD/svg11.dtd">
<svg version="1.1" id="Layer_1" xmlns="http://www.w3.org/2000/svg" xmlns:xlink="http://www.w3.org/1999/xlink" x="0px" y="0px"
	 width="120px" height="120px" viewBox="0 0 120 120" enable-background="new 0 0 120 120" xml:space="preserve">
<g>
	<path fill="#00428D" d="M59.999,17.737c26.699,0,48.418,21.72,48.418,48.417c0,26.696-21.719,48.417-48.418,48.417
		c-26.696,0-48.416-21.721-48.416-48.417C11.583,39.457,33.303,17.737,59.999,17.737 M59.999,12.308
		c-29.737,0-53.845,24.108-53.845,53.847C6.154,95.893,30.262,120,59.999,120c29.74,0,53.847-24.107,53.847-53.846
		C113.846,36.416,89.739,12.308,59.999,12.308L59.999,12.308z"/>
	<path fill="#00428D" d="M60.529,65.075c0.595-0.134,1.188,0.24,1.322,0.835c0.135,0.594-0.24,1.188-0.834,1.322
		c-0.595,0.135-1.188-0.24-1.323-0.835C59.561,65.803,59.936,65.21,60.529,65.075 M60.131,63.31
		c-1.57,0.355-2.556,1.917-2.202,3.487c0.355,1.569,1.916,2.556,3.486,2.201c1.571-0.355,2.558-1.916,2.202-3.486
		S61.701,62.955,60.131,63.31L60.131,63.31z"/>
	<path fill="#00428D" d="M62.826,67.264l-0.753-3.336c0,0,25.624-5.436,25.928-4.093C88.221,60.809,62.826,67.264,62.826,67.264z"/>
	<g>
		<path fill="#00428D" d="M47.595,40.994l-5.618-9.774l-2.806,1.613l5.61,9.763C45.686,42.011,46.623,41.474,47.595,40.994z"/>
		<path fill="#00428D" d="M60.001,38.103c0.543,0,1.081,0.019,1.618,0.049v-11.36h-3.237v11.36
			C58.918,38.123,59.457,38.103,60.001,38.103z"/>
		<path fill="#00428D" d="M36.479,50.876l-9.986-5.739l-1.613,2.806l9.992,5.743C35.354,52.716,35.893,51.779,36.479,50.876z"/>
		<path fill="#00428D" d="M75.22,42.596l5.61-9.763l-2.806-1.613l-5.618,9.774C73.378,41.474,74.316,42.011,75.22,42.596z"/>
		<path fill="#00428D" d="M85.128,53.686l9.993-5.743l-1.612-2.806l-9.987,5.739C84.108,51.779,84.646,52.716,85.128,53.686z"/>
		<path fill="#00428D" d="M31.95,66.154c0-0.545,0.02-1.082,0.049-1.619h-11.36v3.236h11.36
			C31.969,67.236,31.95,66.697,31.95,66.154z"/>
		<path fill="#00428D" d="M88.002,64.535c0.029,0.537,0.05,1.074,0.05,1.619c0,0.543-0.021,1.082-0.05,1.617h11.36v-3.236H88.002z"
			/>
		<path fill="#00428D" d="M83.421,81.588l9.715,5.582l1.612-2.806l-9.704-5.577C84.555,79.754,84.015,80.689,83.421,81.588z"/>
		<path fill="#00428D" d="M72.694,91.166l5.703,9.922l2.807-1.614l-5.712-9.937C74.596,90.133,73.661,90.675,72.694,91.166z"/>
		<path fill="#00428D" d="M60.001,94.205c-0.544,0-1.083-0.021-1.619-0.05v11.36h3.237v-11.36
			C61.082,94.185,60.544,94.205,60.001,94.205z"/>
		<path fill="#00428D" d="M44.509,89.537l-5.712,9.937l2.807,1.614l5.702-9.922C46.341,90.674,45.406,90.133,44.509,89.537z"/>
		<path fill="#00428D" d="M34.958,78.787l-9.704,5.577l1.612,2.806l9.715-5.582C35.986,80.689,35.446,79.754,34.958,78.787z"/>
	</g>
	<rect x="51.097" fill="#00428D" width="17.495" height="9.351"/>
	
		<rect x="84.024" y="7.503" transform="matrix(0.9321 0.3622 -0.3622 0.9321 10.0114 -31.2701)" fill="#00428D" width="8.761" height="7.126"/>
	
		<rect x="26.903" y="7.503" transform="matrix(-0.9321 0.3622 -0.3622 -0.9321 64.4503 10.0492)" fill="#00428D" width="8.761" height="7.126"/>
</g>
</svg>
