<?xml version="1.0" encoding="utf-8"?>
<!-- Generator: Adobe Illustrator 16.0.0, SVG Export Plug-In . SVG Version: 6.00 Build 0)  -->
<!DOCTYPE svg PUBLIC "-//W3C//DTD SVG 1.1//EN" "http://www.w3.org/Graphics/SVG/1.1/DTD/svg11.dtd">
<svg version="1.1" id="Layer_1" xmlns="http://www.w3.org/2000/svg" xmlns:xlink="http://www.w3.org/1999/xlink" x="0px" y="0px"
	 width="120px" height="120px" viewBox="0 0 120 120" enable-background="new 0 0 120 120" xml:space="preserve">
<g>
	<path fill-rule="evenodd" clip-rule="evenodd" fill="#00428D" d="M-0.077,48.473c6.191-6.146,12.384-12.293,18.576-18.438
		c0.729-0.725,1.438-1.472,2.193-2.167c1.325-1.223,3.02-0.708,3.465,1.042c1.528,6.014,3.048,12.029,4.572,18.044
		c0.754,2.976,1.494,5.954,2.276,8.923c0.246,0.935,0.298,1.807-0.433,2.525c-0.736,0.722-1.59,0.619-2.51,0.335
		c-1.896-0.583-3.814-1.084-5.865-1.659c-0.156,1.525-0.393,2.988-0.443,4.456c-0.232,6.596,0.891,12.945,3.517,19.007
		c3.114,7.188,7.843,13.076,14.102,17.682c4.335,3.189,9.159,5.438,14.362,6.715c6.303,1.545,12.643,1.663,19.02,0.178
		c8.075-1.878,14.992-5.79,20.864-11.65c6.005-5.996,9.827-13.23,11.865-21.472c0.115-0.468,0.268-0.929,0.403-1.395
		c0.517-1.785,1.389-2.328,3.158-1.858c1.979,0.527,3.936,1.128,5.905,1.688c0.985,0.28,1.985,0.51,2.96,0.821
		c1.6,0.512,2.036,1.395,1.633,3.05c-1.615,6.636-4.002,12.95-7.626,18.748c-2.295,3.672-4.949,7.051-7.966,10.158
		c-3.45,3.549-7.286,6.592-11.492,9.144c-4.376,2.654-9.037,4.675-13.967,6.065c-7.062,1.986-14.227,2.504-21.494,1.627
		c-7.525-0.908-14.564-3.306-21.141-7.119c-8.266-4.796-14.879-11.329-19.878-19.503c-4.313-7.053-6.977-14.718-7.991-22.97
		C7.32,65.01,7.425,59.602,8.315,54.2c0.031-0.191,0.051-0.385,0.066-0.579c0.01-0.126,0.001-0.254,0.001-0.451
		c-1.913-0.535-3.815-1.058-5.712-1.601c-0.583-0.168-1.198-0.313-1.707-0.622c-0.418-0.254-0.699-0.735-1.041-1.116
		C-0.077,49.379-0.077,48.925-0.077,48.473z"/>
	<path fill-rule="evenodd" clip-rule="evenodd" fill="#00428D" d="M120.078,44.086c-0.468,1.105-1.362,1.589-2.47,1.882
		c-2.785,0.731-5.554,1.524-8.325,2.309c-1.86,0.527-2.685,0.111-3.275-1.729c-0.237-0.738-0.455-1.483-0.644-2.234
		c-0.392-1.57,0.087-2.488,1.644-2.959c1.746-0.53,3.521-0.961,5.278-1.449c1.233-0.341,2.461-0.702,3.689-1.062
		c1.83-0.535,2.755-0.004,3.297,1.866c0.108,0.371,0.323,0.711,0.489,1.065C119.867,42.546,119.973,43.317,120.078,44.086z"/>
	<path fill-rule="evenodd" clip-rule="evenodd" fill="#00428D" d="M46.947,68.335c4.97,0,9.732,0,14.567,0c0,1.669,0,3.267,0,4.904
		c-6.882,0-13.729,0-20.634,0c-0.759-3.962-0.106-7.632,2.692-10.55c1.918-1.998,4.24-3.602,6.386-5.377
		c1.209-1,2.507-1.908,3.62-3.007c1.773-1.748,2.065-3.842,0.98-5.716c-0.941-1.626-3.396-2.438-5.547-1.846
		c-1.629,0.449-2.777,1.536-3.765,2.846c-0.134,0.177-0.265,0.356-0.471,0.638c-0.704-0.465-1.389-0.912-2.067-1.367
		c-0.688-0.46-1.368-0.928-2.109-1.433c0.829-1.715,2.039-3.007,3.48-4.111c3.641-2.788,9.465-2.948,13.18-0.355
		c3.554,2.482,4.824,7.232,3.063,11.294c-0.872,2.01-2.223,3.623-3.931,4.919c-2.146,1.628-4.405,3.107-6.497,4.801
		c-1.018,0.825-1.793,1.971-2.609,3.023C47.061,67.293,47.079,67.78,46.947,68.335z"/>
	<path fill-rule="evenodd" clip-rule="evenodd" fill="#00428D" d="M85.015,60.384c1.438,0,2.68,0,3.997,0c0,1.579,0,3.104,0,4.719
		c-1.321,0-2.62,0-4.013,0c0,2.757,0,5.429,0,8.137c-1.874,0-3.651,0-5.53,0c0-2.714,0-5.382,0-8.131c-4.921,0-9.739,0-14.605,0
		c-0.136-1.943-0.11-3.629,1.106-5.346c4.089-5.772,7.969-11.697,11.944-17.552c0.174-0.257,0.499-0.574,0.76-0.581
		c2.075-0.047,4.15-0.026,6.341-0.026C85.015,47.878,85.015,54.078,85.015,60.384z M70.788,60.319c2.984,0,5.778,0,8.7,0
		c0-4.285,0-8.5,0-12.443C76.707,51.854,73.791,56.024,70.788,60.319z"/>
	<path fill-rule="evenodd" clip-rule="evenodd" fill="#00428D" d="M96.423,9.779c-0.449,0.973-0.772,1.833-1.223,2.62
		c-1.345,2.348-2.753,4.66-4.111,7c-1.103,1.901-2.013,2.161-3.896,1.047c-0.634-0.375-1.278-0.738-1.902-1.131
		c-1.021-0.645-1.371-1.926-0.767-2.965c1.682-2.896,3.379-5.784,5.093-8.661c0.733-1.231,1.925-1.494,3.125-0.762
		c0.71,0.434,1.474,0.792,2.137,1.289C95.415,8.618,95.838,9.176,96.423,9.779z"/>
	<path fill-rule="evenodd" clip-rule="evenodd" fill="#00428D" d="M42.851,19.254c-0.277,0.516-0.479,1.238-0.942,1.679
		c-0.735,0.699-1.618,1.253-2.487,1.792c-1.202,0.747-2.172,0.605-3.013-0.556c-1.959-2.706-3.87-5.447-5.749-8.209
		c-0.715-1.05-0.593-2.106,0.322-2.867c0.881-0.732,1.833-1.399,2.826-1.969c1.031-0.593,1.994-0.319,2.686,0.662
		c1.888,2.676,3.759,5.365,5.621,8.06C42.366,18.208,42.53,18.633,42.851,19.254z"/>
	<path fill-rule="evenodd" clip-rule="evenodd" fill="#00428D" d="M101.144,33.053c-0.542-0.312-1.22-0.546-1.682-1.003
		c-0.636-0.624-1.138-1.395-1.64-2.141c-0.94-1.389-0.796-2.371,0.539-3.432c1.808-1.436,3.65-2.829,5.481-4.237
		c0.712-0.548,1.414-1.112,2.149-1.627c1.233-0.862,2.251-0.712,3.189,0.453c0.504,0.627,0.989,1.271,1.459,1.923
		c0.985,1.37,0.844,2.487-0.483,3.521c-1.873,1.457-3.771,2.882-5.657,4.323c-0.662,0.506-1.306,1.039-1.988,1.518
		C102.157,32.598,101.74,32.751,101.144,33.053z"/>
	<path fill-rule="evenodd" clip-rule="evenodd" fill="#00428D" d="M72.896,14.814c-0.903-0.171-2.315-0.312-3.639-0.734
		c-0.888-0.283-1.225-1.208-1.089-2.158c0.486-3.386,0.981-6.77,1.523-10.146c0.205-1.273,1.165-1.912,2.448-1.75
		c0.886,0.111,1.771,0.249,2.655,0.387c1.399,0.218,2.146,1.167,1.943,2.599c-0.473,3.322-0.978,6.64-1.499,9.954
		C75.069,14.048,74.385,14.662,72.896,14.814z"/>
	<path fill-rule="evenodd" clip-rule="evenodd" fill="#00428D" d="M53.141,0.857c1.696-0.319,2.478,0.172,2.874,1.836
		c0.705,2.957,1.406,5.914,2.107,8.871c0.514,2.166,0.002,2.996-2.123,3.463c-0.751,0.164-1.494,0.373-2.252,0.494
		c-1.271,0.203-2.1-0.274-2.404-1.514c-0.819-3.329-1.602-6.666-2.334-10.017c-0.287-1.31,0.322-2.162,1.605-2.54
		c0.092-0.027,0.188-0.045,0.281-0.067C51.644,1.208,52.392,1.033,53.141,0.857z"/>
</g>
</svg>
