<?xml version="1.0" encoding="utf-8"?>
<!-- Generator: Adobe Illustrator 16.0.0, SVG Export Plug-In . SVG Version: 6.00 Build 0)  -->
<!DOCTYPE svg PUBLIC "-//W3C//DTD SVG 1.1//EN" "http://www.w3.org/Graphics/SVG/1.1/DTD/svg11.dtd">
<svg version="1.1" id="Layer_1" xmlns="http://www.w3.org/2000/svg" xmlns:xlink="http://www.w3.org/1999/xlink" x="0px" y="0px"
	 width="120px" height="120px" viewBox="0 0 120 120" enable-background="new 0 0 120 120" xml:space="preserve">
<g>
	<path fill-rule="evenodd" clip-rule="evenodd" fill="#00428D" d="M7.322,64.658c-0.616-1.234-1.004-2.188-1.538-3.051
		c-1.668-2.691-0.646-4.213,1.971-5.487c8.437-4.109,16.801-8.366,25.202-12.545c12.891-6.414,22.373-16.291,29.038-28.906
		c1.02-1.93,1.259-4.374,1.455-6.616c0.32-3.675,1.518-6.815,5.357-7.633c3.739-0.794,6.977,0.536,8.806,4.196
		c10.948,21.902,21.886,43.81,32.804,65.728c1.608,3.229,1.229,6.254-1.304,8.882c-2.449,2.54-5.892,3.36-8.337,1.251
		c-5.449-4.701-11.85-4.413-18.174-4.584c-10.711-0.285-20.924,1.954-30.447,6.999c-0.747,0.396-1.404,0.961-2.463,1.701
		c5.466,7.245,10.803,14.318,16.141,21.389c0.087,0.115,0.222,0.194,0.312,0.31c5.112,6.422,4.957,6.244-2.205,10.215
		c-11.518,6.384-17.29,2.958-23.532-5.7c-3.243-4.498-6.488-9.001-9.916-13.355c-0.765-0.972-2.613-2.143-3.438-1.832
		c-3.512,1.325-4.655-0.641-6.018-3.202c-0.497-0.934-2.27-1.835-3.342-1.711c-9.287,1.067-12.366-0.42-16.193-8.253
		c-2.886-5.91-1.705-10.292,4.383-16.282C6.293,65.769,6.677,65.34,7.322,64.658z M36.196,47.117
		c5.174,10.367,10.066,20.17,15.193,30.441c13.775-5.54,27.945-7.912,43.141-5.253c-9.568-19.173-18.688-37.444-28.048-56.2
		C59.357,29.622,49.54,39.934,36.196,47.117z M10.627,60.578c5.085,10.189,9.94,19.918,14.823,29.7
		c7.323-3.655,14.325-7.15,21.507-10.734c-4.985-9.99-9.844-19.724-14.822-29.699C24.889,53.461,17.893,56.953,10.627,60.578z
		 M84.518,41.841c5.303,10.625,10.586,21.259,15.92,31.87c1.657,3.299,4.325,4.226,5.479,1.875c0.662-1.354,0.243-3.709-0.498-5.212
		c-10.17-20.647-20.474-41.229-30.776-61.81c-1.032-2.063-2.028-4.746-5.142-3.082c-2.9,1.549-1.248,3.737-0.291,5.661
		C74.298,21.383,79.413,31.609,84.518,41.841z M58.013,103.478c-0.836-2.625-2.637-2.904-5.346-1.895
		c-1.489,0.553-3.289,0.265-4.948,0.356c1.091-1.469,2.155-2.959,3.29-4.395c0.335-0.428,0.87-0.698,2.137-1.681
		c-1.587-0.75-2.621-1.574-3.712-1.656c-1.085-0.081-2.213,0.787-3.348,0.864c-1.258,0.087-2.547-0.251-3.824-0.405
		c0.661-1.183,1.172-2.49,2.028-3.506c0.689-0.819,1.795-1.288,2.709-1.905c-2.273-3.562-7.968-2.074-14.174,3.675
		c4.15,5.468,8.347,10.991,12.542,16.521c5.576,7.354,11.234,7.806,18.886,0.795c-1.827-0.786-3.296-1.832-4.854-1.986
		c-2.01-0.199-4.088,0.318-6.136,0.525C54.707,107.172,56.15,105.558,58.013,103.478z M9.828,70.141
		c-4.615,1.84-6.581,7.169-4.427,11.552c2.118,4.313,7.474,5.992,11.99,3.605C14.869,80.243,12.344,75.184,9.828,70.141z"/>
</g>
<g>
	<g>
		
			<rect x="106.247" y="19.854" transform="matrix(0.5079 0.8614 -0.8614 0.5079 78.025 -78.5341)" fill="#00428D" width="3" height="18.334"/>
	</g>
	<g>
		
			<rect x="96.305" y="11.398" transform="matrix(0.8071 0.5904 -0.5904 0.8071 31.0046 -53.7755)" fill="#00428D" width="3.001" height="18.333"/>
	</g>
	<g>
		
			<rect x="108.832" y="32.646" transform="matrix(0.1256 0.9921 -0.9921 0.1256 137.9528 -72.8981)" fill="#00428D" width="3" height="18.334"/>
	</g>
</g>
</svg>
