<?xml version="1.0" encoding="utf-8"?>
<!-- Generator: Adobe Illustrator 16.0.0, SVG Export Plug-In . SVG Version: 6.00 Build 0)  -->
<!DOCTYPE svg PUBLIC "-//W3C//DTD SVG 1.1//EN" "http://www.w3.org/Graphics/SVG/1.1/DTD/svg11.dtd">
<svg version="1.1" id="Шар_1" xmlns="http://www.w3.org/2000/svg" xmlns:xlink="http://www.w3.org/1999/xlink" x="0px" y="0px"
	 width="130px" height="130px" viewBox="0 0 130 130" enable-background="new 0 0 130 130" xml:space="preserve">
<g>
	<circle fill="#FF3E7D" cx="65" cy="65" r="65"/>
	<g>
		<path fill="#FFFFFF" d="M16.37,78.345l-0.504-1.663l7.527-2.284l0.504,1.664l-2.947,0.895l1,3.296l2.947-0.894l0.505,1.662
			l-7.528,2.284l-0.504-1.663l3.268-0.99l-1-3.299L16.37,78.345z"/>
		<path fill="#FFFFFF" d="M27.942,85.569c0.574,1.053,0.702,2.071,0.381,3.058c-0.32,0.983-1.037,1.779-2.153,2.388
			c-1.124,0.612-2.185,0.789-3.183,0.529c-0.999-0.261-1.788-0.921-2.366-1.983c-0.589-1.08-0.726-2.116-0.41-3.109
			c0.314-0.994,1.034-1.797,2.158-2.41c1.115-0.607,2.177-0.772,3.185-0.494C26.563,83.824,27.359,84.499,27.942,85.569z
			 M26.852,87.978c0.246-0.578,0.203-1.173-0.128-1.779c-0.331-0.607-0.81-0.965-1.437-1.074c-0.626-0.109-1.32,0.043-2.077,0.456
			c-0.777,0.423-1.289,0.928-1.536,1.515c-0.248,0.586-0.204,1.187,0.131,1.803c0.326,0.598,0.804,0.947,1.433,1.051
			c0.629,0.102,1.332-0.058,2.108-0.48C26.104,89.054,26.606,88.558,26.852,87.978z"/>
		<path fill="#FFFFFF" d="M30.559,99.099c-0.544,0.459-1.126,0.618-1.746,0.482c-0.62-0.137-1.227-0.561-1.821-1.269l-2.656-3.163
			l6.024-5.059l2.794,3.326c0.471,0.561,0.709,1.107,0.718,1.638c0.007,0.53-0.222,0.991-0.689,1.384
			c-0.319,0.269-0.635,0.414-0.947,0.438c-0.312,0.023-0.663-0.055-1.051-0.232l-0.023,0.02
			C31.601,97.582,31.4,98.394,30.559,99.099z M29.654,96.078l-1.539-1.832l-1.658,1.393l1.539,1.832
			c0.504,0.599,1.027,0.67,1.572,0.213c0.265-0.223,0.405-0.473,0.423-0.754C30.008,96.65,29.896,96.367,29.654,96.078z
			 M31.865,93.923l-1.392-1.658l-1.389,1.166l1.421,1.693c0.432,0.514,0.889,0.567,1.371,0.162
			C32.32,94.915,32.316,94.46,31.865,93.923z"/>
		<path fill="#FFFFFF" d="M38.098,102.628c0.103,0.635-0.082,1.264-0.556,1.887c-0.475,0.622-1.033,0.969-1.675,1.042
			c-0.644,0.071-1.3-0.147-1.971-0.658l-3.056-2.329l4.768-6.257l1.382,1.054l-1.728,2.268l1.662,1.266
			C37.603,101.417,37.994,101.994,38.098,102.628z M36.141,103.486c0.216-0.283,0.307-0.571,0.274-0.863
			c-0.032-0.293-0.193-0.551-0.484-0.773l-1.491-1.137l-1.396,1.832l1.516,1.155c0.299,0.228,0.586,0.315,0.862,0.264
			C35.699,103.912,35.938,103.752,36.141,103.486z M41.646,100.916l1.382,1.053l-4.767,6.256l-1.383-1.053L41.646,100.916z"/>
		<path fill="#FFFFFF" d="M42.766,110.578l-1.542-0.656l3.08-7.238l2.104,0.896l-0.427,6.609l0.028,0.012l4.397-4.92l2.104,0.895
			l-3.081,7.238l-1.543-0.656l2.048-4.812l-0.027-0.013l-3.774,4.078l-1.613-0.688l0.323-5.546l-0.028-0.011L42.766,110.578z"/>
		<path fill="#FFFFFF" d="M64.667,115.832l-2.095-0.186l-2.15-3.726l-1.128,0.987l-0.214,2.429l-1.731-0.153l0.692-7.836
			l1.731,0.154l-0.307,3.477l3.435-3.2l2.111,0.187l-3.331,2.873L64.667,115.832z"/>
		<path fill="#FFFFFF" d="M73.674,115.04l-1.729,0.178l-0.664-6.46l-2.396,0.246l0.246,3.438c0.075,1.024-0.064,1.838-0.416,2.441
			c-0.351,0.604-0.881,0.941-1.589,1.014c-0.434,0.045-0.794,0.025-1.079-0.058l-0.138-1.351c0.106,0.041,0.316,0.045,0.629,0.012
			c0.688-0.07,0.985-0.754,0.893-2.053l-0.34-4.639l5.777-0.594L73.674,115.04z"/>
		<path fill="#FFFFFF" d="M78.82,113.755l-2.095,0.654l-2.349-7.507l1.658-0.52l1.712,5.472l0.044-0.015l1.097-6.349l2.095-0.654
			l2.348,7.506l-1.658,0.52l-1.711-5.471l-0.044,0.014L78.82,113.755z"/>
		<path fill="#FFFFFF" d="M91.221,105.56c0.24,0.842,0.192,1.627-0.143,2.355c-0.338,0.73-0.896,1.309-1.682,1.738
			c-1.043,0.572-2.055,0.689-3.033,0.351c-0.979-0.337-1.757-1.033-2.333-2.085c-0.591-1.078-0.767-2.142-0.523-3.189
			c0.242-1.049,0.849-1.84,1.821-2.371c1.006-0.553,1.994-0.645,2.959-0.275c0.968,0.367,1.779,1.148,2.434,2.344l0.088,0.16
			l-5.094,2.791c0.398,0.686,0.867,1.127,1.404,1.324c0.537,0.199,1.1,0.137,1.689-0.186c0.418-0.23,0.704-0.517,0.857-0.861
			c0.152-0.344,0.186-0.777,0.098-1.297L91.221,105.56z M88.727,104.406c-0.361-0.555-0.792-0.912-1.291-1.073
			c-0.5-0.161-1-0.104-1.498,0.169c-0.5,0.274-0.814,0.656-0.946,1.145c-0.132,0.489-0.067,1.057,0.193,1.701L88.727,104.406z"/>
		<path fill="#FFFFFF" d="M95.958,105.042l-1.331,1.115l-5.053-6.028l1.332-1.116l1.978,2.359l2.641-2.212l-1.978-2.36l1.332-1.117
			l5.053,6.029l-1.333,1.117l-2.192-2.617l-2.641,2.213L95.958,105.042z"/>
		<path fill="#FFFFFF" d="M100.904,90.695l-1.656,1.992l4.992,4.151l-1.111,1.337l-4.992-4.152l-1.656,1.992l-1.057-0.877
			l4.426-5.322L100.904,90.695z"/>
		<path fill="#FFFFFF" d="M102.176,90.695c-1.449-1.048-1.645-2.486-0.588-4.318c0.492-0.854,1.052-1.438,1.679-1.75
			c0.626-0.312,1.292-0.267,1.995,0.141l3.46,1.995c0.194,0.112,0.341,0.164,0.438,0.156c0.099-0.007,0.188-0.081,0.271-0.224
			c0.061-0.104,0.117-0.225,0.172-0.357l1.056,0.609c-0.126,0.443-0.267,0.797-0.419,1.061c-0.371,0.643-0.856,0.855-1.459,0.637
			c0.217,0.887,0.029,1.842-0.56,2.862c-0.407,0.704-0.912,1.157-1.516,1.36c-0.604,0.203-1.218,0.124-1.844-0.236
			c-0.193-0.111-0.361-0.237-0.503-0.378c-0.143-0.141-0.258-0.275-0.348-0.403c-0.09-0.129-0.152-0.287-0.184-0.477
			c-0.033-0.188-0.059-0.344-0.082-0.469c-0.021-0.123-0.01-0.299,0.039-0.523c0.047-0.225,0.082-0.392,0.104-0.502
			c0.022-0.111,0.083-0.29,0.18-0.539c0.097-0.25,0.159-0.415,0.19-0.498c0.029-0.082,0.1-0.25,0.211-0.502
			c0.238-0.578,0.391-0.979,0.453-1.199c0.064-0.222,0.067-0.396,0.012-0.522c-0.035-0.103-0.18-0.227-0.436-0.374
			c-0.687-0.396-1.299-0.128-1.838,0.805c-0.284,0.494-0.4,0.908-0.348,1.243c0.054,0.336,0.281,0.661,0.686,0.978L102.176,90.695z
			 M105.969,87.111c-0.004,0.149-0.025,0.312-0.062,0.49c-0.039,0.179-0.077,0.316-0.117,0.416
			c-0.041,0.102-0.105,0.258-0.192,0.471c-0.088,0.213-0.146,0.354-0.173,0.42c-0.08,0.2-0.139,0.359-0.178,0.479
			c-0.039,0.117-0.077,0.27-0.113,0.453c-0.036,0.186-0.04,0.34-0.014,0.468c0.026,0.126,0.086,0.258,0.178,0.394
			c0.092,0.135,0.227,0.254,0.402,0.354c0.326,0.189,0.639,0.227,0.939,0.111c0.301-0.113,0.562-0.363,0.785-0.752
			c0.387-0.669,0.504-1.287,0.35-1.856c-0.084-0.319-0.418-0.647-0.999-0.983L105.969,87.111z"/>
		<path fill="#FFFFFF" d="M112.19,83.013l-0.499,1.601l-7.51-2.343l0.682-2.182l6.62-0.235l0.009-0.028l-5.336-3.885l0.681-2.182
			l7.51,2.342l-0.499,1.6l-4.992-1.557l-0.009,0.029l4.433,3.348l-0.521,1.673l-5.549,0.233l-0.01,0.029L112.19,83.013z"/>
	</g>
	<g>
		<path fill="#FFFFFF" d="M47.825,23.323c0.282,0.952,0.236,1.829-0.137,2.631c-0.371,0.803-1.018,1.406-1.938,1.811
			c-1.103,0.484-2.133,0.52-3.094,0.109c-0.961-0.411-1.688-1.18-2.185-2.311c-0.533-1.215-0.627-2.326-0.281-3.332
			c0.345-1.006,1.079-1.755,2.199-2.247c0.939-0.412,1.801-0.506,2.583-0.284c0.783,0.223,1.408,0.736,1.873,1.54l-1.608,0.706
			c-0.3-0.422-0.646-0.695-1.038-0.818c-0.394-0.122-0.808-0.087-1.245,0.105c-0.627,0.275-1.018,0.726-1.172,1.354
			c-0.155,0.628-0.053,1.351,0.305,2.167c0.358,0.816,0.811,1.377,1.357,1.68c0.546,0.304,1.128,0.321,1.745,0.05
			c0.484-0.213,0.816-0.532,0.998-0.956c0.182-0.425,0.196-0.927,0.045-1.505L47.825,23.323z"/>
		<path fill="#FFFFFF" d="M57.211,24.018l-2.082,0.524l-3.32-2.869l-0.755,1.329l0.607,2.413l-1.72,0.432l-1.958-7.781l1.719-0.433
			l0.869,3.454l2.237-4.234l2.096-0.528l-2.246,3.885L57.211,24.018z"/>
		<path fill="#FFFFFF" d="M59.858,23.839l-2.232,0.175l-0.626-8l1.767-0.138l0.457,5.829l0.046-0.003l2.536-6.063l2.232-0.174
			l0.625,7.999l-1.768,0.138l-0.455-5.83l-0.046,0.005L59.858,23.839z"/>
		<path fill="#FFFFFF" d="M74.033,26.802l-1.671-0.165l0.249-2.537l-5.68-0.558l-0.25,2.538l-1.671-0.165l0.387-3.93l1.005,0.098
			c0.774-1.414,1.275-3.28,1.503-5.602l0.088-0.897l6.005,0.589l-0.647,6.593l1.068,0.105L74.033,26.802z M71.618,22.597
			l0.515-5.231l-2.585-0.253l-0.054,0.541c-0.082,0.835-0.256,1.702-0.521,2.598c-0.264,0.895-0.518,1.565-0.76,2.011L71.618,22.597
			z"/>
		<path fill="#FFFFFF" d="M82.092,26.485l-2.068-0.573l-1.469-4.134L77.24,22.56l-0.664,2.397l-1.709-0.474l2.145-7.733l1.707,0.474
			l-0.949,3.432l4.037-2.576l2.082,0.577l-3.871,2.267L82.092,26.485z"/>
		<path fill="#FFFFFF" d="M84.756,21.642c0.938-1.564,2.383-1.89,4.336-0.977c0.91,0.426,1.553,0.943,1.926,1.553
			c0.373,0.609,0.384,1.289,0.033,2.041l-1.726,3.69c-0.098,0.206-0.138,0.359-0.12,0.458c0.016,0.099,0.1,0.185,0.25,0.255
			c0.113,0.052,0.238,0.1,0.379,0.142l-0.527,1.127c-0.46-0.09-0.832-0.2-1.114-0.333c-0.686-0.321-0.944-0.796-0.774-1.426
			c-0.883,0.296-1.869,0.19-2.959-0.319c-0.751-0.352-1.256-0.825-1.516-1.421s-0.232-1.228,0.079-1.894
			c0.098-0.207,0.21-0.389,0.341-0.545s0.257-0.286,0.379-0.389c0.123-0.104,0.278-0.18,0.468-0.229
			c0.188-0.049,0.346-0.09,0.47-0.124c0.124-0.032,0.302-0.036,0.536-0.006c0.232,0.029,0.405,0.049,0.52,0.062
			c0.114,0.014,0.302,0.058,0.563,0.135c0.261,0.076,0.436,0.127,0.522,0.15c0.086,0.023,0.263,0.08,0.529,0.17
			c0.607,0.193,1.026,0.312,1.258,0.356c0.23,0.045,0.407,0.034,0.53-0.036c0.102-0.044,0.216-0.202,0.344-0.475
			c0.342-0.733,0.016-1.332-0.98-1.797c-0.525-0.246-0.957-0.327-1.293-0.244c-0.336,0.083-0.647,0.344-0.932,0.783L84.756,21.642z
			 M88.73,25.182c-0.154,0.008-0.321,0.002-0.505-0.021c-0.185-0.023-0.329-0.05-0.434-0.082c-0.104-0.032-0.27-0.084-0.495-0.154
			c-0.225-0.07-0.371-0.117-0.441-0.138c-0.211-0.064-0.377-0.11-0.501-0.14c-0.123-0.029-0.28-0.054-0.472-0.075
			c-0.191-0.021-0.349-0.012-0.475,0.026c-0.128,0.038-0.256,0.11-0.385,0.215s-0.238,0.252-0.326,0.44
			c-0.162,0.347-0.172,0.669-0.029,0.964c0.141,0.296,0.419,0.54,0.832,0.733c0.714,0.333,1.354,0.397,1.918,0.193
			c0.316-0.115,0.621-0.482,0.91-1.103L88.73,25.182z"/>
	</g>
	<g>
		<path fill="#FFFFFF" d="M99.805,36.958c0.738,0,1.514-0.247,2.109-0.81c1.299-1.159,1.44-3.163,0.283-4.498
			c-1.16-1.298-3.199-1.439-4.5-0.245c-1.3,1.16-1.44,3.162-0.246,4.499C98.049,36.605,98.928,36.958,99.805,36.958z"/>
		<path fill="#FFFFFF" d="M107.221,54.457L107.221,54.457c0.352,1.442,1.65,2.424,3.092,2.424c0.246,0,0.527-0.034,0.773-0.104
			c1.723-0.421,2.74-2.145,2.32-3.865c-0.422-1.722-2.145-2.741-3.867-2.319C107.852,51.014,106.799,52.735,107.221,54.457z"/>
		<path fill="#FFFFFF" d="M111.684,61.766c-1.757,0-3.197,1.441-3.197,3.198c0,1.757,1.44,3.199,3.197,3.163
			c1.756,0,3.196-1.441,3.163-3.198C114.88,63.171,113.439,61.766,111.684,61.766z"/>
		<path fill="#FFFFFF" d="M106.272,46.27c0.491,0,1.019-0.105,1.476-0.352c1.545-0.809,2.144-2.741,1.335-4.288
			c-0.844-1.545-2.741-2.143-4.288-1.335c-1.545,0.809-2.143,2.741-1.334,4.288C104.023,45.672,105.146,46.27,106.272,46.27z"/>
		<path fill="#FFFFFF" d="M29.419,36.992c0.877,0,1.756-0.35,2.39-1.054c1.158-1.3,1.054-3.339-0.281-4.499
			c-1.336-1.159-3.34-1.053-4.498,0.281c-1.16,1.301-1.055,3.34,0.279,4.499C27.908,36.746,28.646,36.992,29.419,36.992z"/>
		<path fill="#FFFFFF" d="M18.175,56.847c0.245,0.07,0.527,0.106,0.773,0.106c1.441,0,2.741-0.985,3.093-2.425
			c0.419-1.723-0.634-3.445-2.32-3.866c-1.723-0.422-3.445,0.633-3.867,2.318C15.433,54.703,16.452,56.425,18.175,56.847z"/>
		<path fill="#FFFFFF" d="M17.576,68.337c1.758,0,3.164-1.441,3.164-3.198c0-0.035,0-0.035,0-0.07c0-0.035,0-0.035,0-0.069
			c0-1.757-1.441-3.199-3.197-3.199c-1.758,0-3.163,1.442-3.163,3.199c0,0.035,0,0.035,0,0.069c0,0.035,0,0.035,0,0.07
			C14.415,66.896,15.82,68.337,17.576,68.337L17.576,68.337z"/>
		<path fill="#FFFFFF" d="M21.477,45.953c0.493,0.247,0.983,0.351,1.476,0.351c1.16,0,2.249-0.632,2.81-1.686
			c0.811-1.547,0.213-3.479-1.334-4.289c-1.544-0.808-3.479-0.21-4.288,1.336C19.334,43.212,19.931,45.146,21.477,45.953z"/>
	</g>
	<g>
		<path fill="#FFFFFF" d="M57.835,50.419H44.313l-1.979,9.943c1.838-1.98,4.006-2.638,6.738-2.638
			c6.266,0,10.554,4.428,10.554,10.93c0,6.737-4.618,11.686-11.544,11.686c-6.361,0-10.6-3.816-10.789-9.659h4.051
			c0.331,3.722,3.063,6.267,6.785,6.267c4.147,0,7.256-3.394,7.256-7.869c0-4.617-2.969-7.869-7.304-7.869
			c-2.732,0-4.9,1.085-6.407,3.252l-3.439-0.237l3.109-17.338h16.492V50.419z"/>
		<path fill="#FFFFFF" d="M77.184,75.263c-0.971,0.951-2.288,1.543-4.084,1.543c-6.832,0-6.973-8.152-6.973-13.1
			c0-5.088-0.142-13.852,6.878-13.852c7.021,0,6.88,8.715,6.88,13.663c0,0.676,0,1.429-0.018,2.216
			c1.161-1.386,2.629-2.501,4.296-3.257c-0.104-7.66-1.317-16.204-11.158-16.204c-10.318,0-11.119,9.47-11.119,17.433
			s1.178,16.633,11.307,16.633c2.131,0,3.854-0.433,5.25-1.188C77.813,77.96,77.387,76.648,77.184,75.263z"/>
		<g>
			<path fill="#FFFFFF" d="M88.158,69.913c0,1.03-0.327,2.063-0.895,2.87c-0.602,0.84-1.426,1.237-2.562,1.237
				c-1.562,0-2.489-0.946-2.489-2.526c0-2.354,1.408-4.123,3.264-4.123C87.159,67.371,88.158,68.315,88.158,69.913z M85.477,79.914
				h-1.615l8.865-12.818h1.598L85.477,79.914z M85.51,68.607c-0.377,0-0.72,0.189-0.926,0.516c-0.346,0.516-0.672,1.82-0.672,2.646
				c0,0.635,0.362,1.03,0.93,1.03c0.411,0,0.789-0.259,1.014-0.688c0.309-0.584,0.584-1.752,0.584-2.438
				C86.439,69.001,86.094,68.607,85.51,68.607z M96.095,75.599c0,1.031-0.327,2.062-0.895,2.871
				c-0.602,0.842-1.425,1.234-2.56,1.234c-1.562,0-2.49-0.943-2.49-2.525c0-2.354,1.407-4.123,3.265-4.123
				C95.098,73.056,96.095,74.001,96.095,75.599z M93.447,74.294c-0.377,0-0.721,0.188-0.926,0.516
				c-0.344,0.516-0.671,1.82-0.671,2.646c0,0.637,0.36,1.03,0.928,1.03c0.413,0,0.79-0.256,1.015-0.688
				c0.308-0.584,0.583-1.752,0.583-2.438C94.376,74.69,94.031,74.294,93.447,74.294z"/>
		</g>
	</g>
</g>
</svg>
