<?xml version="1.0" encoding="utf-8"?>
<!-- Generator: Adobe Illustrator 16.0.0, SVG Export Plug-In . SVG Version: 6.00 Build 0)  -->
<!DOCTYPE svg PUBLIC "-//W3C//DTD SVG 1.1//EN" "http://www.w3.org/Graphics/SVG/1.1/DTD/svg11.dtd">
<svg version="1.1" id="Шар_1" xmlns="http://www.w3.org/2000/svg" xmlns:xlink="http://www.w3.org/1999/xlink" x="0px" y="0px"
	 width="130px" height="130px" viewBox="0 0 130 130" enable-background="new 0 0 130 130" xml:space="preserve">
<g>
	<circle fill="#FF3E7D" cx="65" cy="65" r="65"/>
	<g>
		<path fill="#FFFFFF" d="M16.423,78.554l-0.543-1.752l7.93-2.46l0.544,1.752l-3.105,0.964l1.077,3.473l3.104-0.963l0.543,1.752
			l-7.93,2.459l-0.543-1.752l3.442-1.066l-1.078-3.475L16.423,78.554z"/>
		<path fill="#FFFFFF" d="M28.739,86.071c0.628,1.099,0.783,2.172,0.467,3.218c-0.318,1.046-1.058,1.9-2.223,2.566
			c-1.173,0.67-2.29,0.878-3.35,0.624c-1.059-0.254-1.904-0.936-2.538-2.044c-0.644-1.127-0.81-2.218-0.498-3.273
			c0.312-1.055,1.054-1.917,2.228-2.588c1.165-0.664,2.282-0.861,3.351-0.588C27.247,84.257,28.101,84.953,28.739,86.071z
			 M27.637,88.636c0.248-0.617,0.19-1.242-0.172-1.875c-0.361-0.635-0.874-1.002-1.539-1.104c-0.664-0.103-1.392,0.073-2.183,0.524
			c-0.811,0.463-1.341,1.006-1.59,1.63s-0.189,1.257,0.177,1.9c0.356,0.624,0.868,0.983,1.534,1.079
			c0.666,0.096,1.403-0.088,2.214-0.551C26.871,89.788,27.39,89.252,27.637,88.636z"/>
		<path fill="#FFFFFF" d="M31.907,100.275c-0.559,0.502-1.167,0.691-1.825,0.568c-0.658-0.123-1.313-0.549-1.965-1.275l-2.912-3.246
			l6.183-5.543l3.062,3.414c0.515,0.574,0.787,1.143,0.813,1.701c0.026,0.561-0.2,1.055-0.679,1.485
			c-0.328,0.294-0.656,0.458-0.984,0.493c-0.329,0.035-0.701-0.034-1.117-0.209l-0.024,0.021
			C32.954,98.638,32.77,99.502,31.907,100.275z M30.849,97.119l-1.686-1.881l-1.702,1.525l1.687,1.881
			c0.552,0.615,1.106,0.672,1.666,0.171c0.271-0.243,0.412-0.514,0.42-0.81C31.242,97.71,31.113,97.414,30.849,97.119z
			 M33.107,94.769l-1.525-1.701l-1.426,1.279l1.557,1.736c0.473,0.527,0.957,0.568,1.452,0.125
			C33.621,95.8,33.602,95.32,33.107,94.769z"/>
		<path fill="#FFFFFF" d="M34.273,105.208l-1.871-1.367l4.9-6.702l1.481,1.082l-3.571,4.884l0.04,0.028l6.077-3.051l1.871,1.367
			l-4.9,6.703l-1.481-1.083l3.571-4.884l-0.039-0.029L34.273,105.208z"/>
		<path fill="#FFFFFF" d="M43.021,110.712l-1.635-0.68l3.185-7.668l2.229,0.926l-0.391,6.982l0.03,0.012l4.596-5.235l2.229,0.927
			l-3.185,7.668l-1.634-0.68l2.116-5.098l-0.029-0.012l-3.945,4.338l-1.709-0.71l0.289-5.855l-0.03-0.013L43.021,110.712z"/>
		<path fill="#FFFFFF" d="M66.405,115.832l-2.217-0.131l-2.385-3.863l-1.159,1.076l-0.151,2.57l-1.832-0.107l0.486-8.289
			l1.832,0.107l-0.216,3.68l3.525-3.484l2.233,0.131l-3.424,3.135L66.405,115.832z"/>
		<path fill="#FFFFFF" d="M75.974,114.599l-1.815,0.266l-0.989-6.784l-2.516,0.367l0.414,3.615c0.125,1.077,0.014,1.94-0.33,2.593
			s-0.887,1.031-1.63,1.141c-0.456,0.066-0.837,0.062-1.14-0.013l-0.207-1.417c0.113,0.037,0.334,0.031,0.664-0.016
			c0.722-0.105,1.004-0.841,0.85-2.205l-0.566-4.877l6.066-0.887L75.974,114.599z"/>
		<path fill="#FFFFFF" d="M77.25,102.197l0.528,1.723l-1.754,0.537l-0.529-1.723L77.25,102.197z M78.188,105.257l2.432,7.939
			l-1.754,0.537l-2.433-7.938L78.188,105.257z"/>
		<path fill="#FFFFFF" d="M89.044,106.49c0.238,0.921,0.172,1.773-0.202,2.559c-0.373,0.785-0.999,1.389-1.88,1.811
			c-1.123,0.537-2.188,0.609-3.196,0.219c-1.009-0.393-1.788-1.164-2.339-2.315c-0.592-1.238-0.729-2.384-0.404-3.437
			c0.322-1.053,1.055-1.852,2.196-2.398c0.92-0.439,1.773-0.574,2.562-0.405c0.788,0.169,1.442,0.624,1.962,1.361l-1.654,0.792
			c-0.645-0.727-1.393-0.885-2.244-0.479c-0.551,0.265-0.917,0.656-1.097,1.177c-0.179,0.521-0.165,1.122,0.045,1.808l2.845-1.361
			l0.557,1.16l-2.86,1.369c0.392,0.645,0.851,1.074,1.374,1.286c0.523,0.214,1.067,0.186,1.628-0.083
			c0.929-0.444,1.285-1.203,1.068-2.277L89.044,106.49z"/>
		<path fill="#FFFFFF" d="M94.204,106.358l-1.453,1.118l-5.064-6.58l1.453-1.117l1.982,2.575l2.883-2.218l-1.982-2.576l1.453-1.119
			l5.064,6.58l-1.454,1.119l-2.198-2.856l-2.881,2.218L94.204,106.358z"/>
		<path fill="#FFFFFF" d="M99.983,91.376l-1.812,2.051l5.138,4.537l-1.215,1.375l-5.138-4.538l-1.811,2.05l-1.086-0.958l4.837-5.476
			L99.983,91.376z"/>
		<path fill="#FFFFFF" d="M101.354,91.369c-1.509-1.133-1.688-2.655-0.538-4.567c0.535-0.892,1.138-1.496,1.805-1.815
			c0.668-0.318,1.369-0.256,2.104,0.186l3.612,2.174c0.203,0.121,0.355,0.179,0.459,0.172c0.104-0.006,0.201-0.082,0.289-0.229
			c0.066-0.11,0.129-0.235,0.188-0.374l1.104,0.662c-0.143,0.467-0.297,0.836-0.462,1.111c-0.404,0.672-0.921,0.887-1.553,0.645
			c0.211,0.941-0.004,1.943-0.646,3.01c-0.442,0.736-0.983,1.205-1.626,1.407c-0.641,0.204-1.288,0.108-1.941-0.284
			c-0.201-0.122-0.377-0.258-0.523-0.41c-0.146-0.15-0.267-0.294-0.359-0.432c-0.093-0.137-0.154-0.306-0.185-0.505
			c-0.03-0.2-0.056-0.366-0.077-0.497c-0.02-0.132-0.004-0.315,0.051-0.552c0.055-0.237,0.096-0.413,0.121-0.528
			s0.092-0.305,0.199-0.566c0.106-0.26,0.177-0.434,0.21-0.521c0.033-0.086,0.11-0.263,0.232-0.526
			c0.264-0.605,0.431-1.024,0.502-1.257s0.079-0.416,0.021-0.551c-0.034-0.108-0.185-0.243-0.452-0.403
			c-0.717-0.432-1.369-0.16-1.955,0.814c-0.31,0.516-0.439,0.95-0.39,1.305c0.049,0.355,0.284,0.704,0.704,1.044L101.354,91.369z
			 M105.425,87.659c-0.007,0.159-0.031,0.331-0.076,0.519c-0.043,0.186-0.086,0.332-0.131,0.436
			c-0.045,0.105-0.115,0.27-0.212,0.494c-0.097,0.223-0.159,0.369-0.189,0.439c-0.089,0.209-0.154,0.376-0.198,0.5
			c-0.043,0.125-0.086,0.283-0.127,0.478c-0.042,0.194-0.049,0.358-0.023,0.493c0.025,0.133,0.085,0.273,0.18,0.418
			s0.233,0.271,0.418,0.383c0.34,0.203,0.67,0.249,0.989,0.135c0.319-0.115,0.601-0.375,0.844-0.779
			c0.42-0.698,0.555-1.35,0.405-1.953c-0.084-0.338-0.43-0.69-1.037-1.055L105.425,87.659z"/>
		<path fill="#FFFFFF" d="M112.075,83.341l-0.533,1.688l-7.916-2.502l0.727-2.303l6.989-0.221l0.011-0.03l-5.617-4.122l0.729-2.301
			l7.916,2.504l-0.533,1.687l-5.263-1.663l-0.011,0.031l4.667,3.55l-0.559,1.765l-5.858,0.224l-0.01,0.03L112.075,83.341z"/>
	</g>
	<g>
		<path fill="#FFFFFF" d="M46.134,24.683c0.354,0.739,0.322,1.46-0.093,2.165c-0.416,0.706-1.04,1.255-1.873,1.654
			c-1.028,0.492-1.925,0.654-2.689,0.486c-0.764-0.17-1.349-0.628-1.753-1.377l1.614-0.771c0.501,0.759,1.243,0.905,2.225,0.435
			c0.458-0.22,0.777-0.49,0.957-0.812c0.179-0.322,0.188-0.651,0.027-0.987c-0.339-0.71-0.983-0.84-1.926-0.389l-0.898,0.429
			l-0.564-1.178l0.646-0.309c0.963-0.461,1.293-1.009,0.989-1.645c-0.291-0.608-0.877-0.701-1.755-0.281
			c-0.768,0.367-1.058,0.95-0.873,1.745l-1.614,0.771c-0.593-1.6,0.093-2.871,2.056-3.81c0.814-0.39,1.551-0.547,2.213-0.473
			c0.663,0.075,1.152,0.444,1.47,1.107c0.188,0.393,0.233,0.784,0.139,1.174c-0.096,0.39-0.286,0.694-0.572,0.912l0.013,0.028
			c0.419-0.108,0.839-0.077,1.26,0.095C45.554,23.825,45.888,24.168,46.134,24.683z"/>
		<path fill="#FFFFFF" d="M49.875,25.951l-1.704,0.489l-2.211-7.714l1.705-0.488l0.865,3.02l3.378-0.969l-0.866-3.019l1.705-0.489
			l2.21,7.713l-1.703,0.488l-0.961-3.348l-3.378,0.969L49.875,25.951z"/>
		<path fill="#FFFFFF" d="M58.555,23.993l-2.227,0.235l-0.84-7.979l1.764-0.186l0.611,5.814l0.047-0.004l2.373-6.129l2.226-0.234
			l0.839,7.98l-1.762,0.185l-0.612-5.815l-0.046,0.005L58.555,23.993z"/>
		<path fill="#FFFFFF" d="M75.954,24.429l-2.121-0.208l-2.104-3.707l-0.826,0.763l-0.258,2.631l-1.702-0.168l0.259-2.631
			l-0.662-0.908l-2.785,3.226l-2.12-0.208l3.885-4.244l-2.714-3.705l2.136,0.21l2.408,3.643l0.046,0.004l0.332-3.374l1.701,0.167
			l-0.332,3.374l0.048,0.005l3.07-3.105l2.136,0.209l-3.384,3.106L75.954,24.429z"/>
		<path fill="#FFFFFF" d="M83.315,26.962l-2.051-0.628l-1.355-4.173l-1.336,0.747l-0.729,2.379l-1.694-0.521l2.353-7.671l1.693,0.52
			l-1.043,3.405l4.105-2.466l2.066,0.633l-3.931,2.162L83.315,26.962z"/>
		<path fill="#FFFFFF" d="M86.107,22.193c0.979-1.539,2.433-1.826,4.36-0.86c0.899,0.451,1.527,0.986,1.884,1.605
			c0.356,0.619,0.349,1.299-0.022,2.04l-1.824,3.643c-0.103,0.204-0.146,0.356-0.133,0.456c0.015,0.1,0.095,0.186,0.244,0.262
			c0.11,0.055,0.234,0.106,0.375,0.153l-0.558,1.112c-0.459-0.103-0.827-0.223-1.104-0.362c-0.678-0.339-0.924-0.821-0.737-1.447
			c-0.891,0.273-1.872,0.14-2.948-0.398c-0.741-0.372-1.233-0.859-1.477-1.461c-0.243-0.604-0.199-1.234,0.13-1.892
			c0.102-0.204,0.221-0.382,0.354-0.535c0.135-0.152,0.266-0.28,0.391-0.379s0.283-0.171,0.473-0.216
			c0.189-0.043,0.348-0.08,0.473-0.11c0.126-0.03,0.304-0.028,0.536,0.006c0.231,0.036,0.404,0.062,0.518,0.078
			c0.114,0.016,0.3,0.066,0.56,0.149s0.432,0.138,0.518,0.164c0.086,0.024,0.262,0.086,0.525,0.184
			c0.604,0.209,1.019,0.339,1.248,0.391c0.229,0.052,0.406,0.044,0.532-0.02c0.102-0.042,0.221-0.197,0.355-0.465
			c0.362-0.724,0.052-1.332-0.931-1.824c-0.52-0.26-0.948-0.354-1.287-0.279c-0.338,0.074-0.656,0.326-0.952,0.757L86.107,22.193z
			 M89.984,25.84c-0.153,0.004-0.321-0.008-0.503-0.036c-0.184-0.028-0.327-0.06-0.432-0.093c-0.104-0.036-0.268-0.091-0.489-0.168
			c-0.224-0.077-0.37-0.127-0.439-0.15c-0.208-0.07-0.374-0.121-0.496-0.154c-0.124-0.032-0.28-0.061-0.47-0.087
			c-0.19-0.025-0.35-0.021-0.477,0.013c-0.128,0.035-0.258,0.104-0.39,0.205c-0.132,0.103-0.245,0.246-0.338,0.431
			c-0.171,0.343-0.19,0.664-0.057,0.962c0.136,0.3,0.406,0.551,0.813,0.756c0.705,0.352,1.342,0.434,1.912,0.245
			c0.32-0.107,0.635-0.466,0.939-1.078L89.984,25.84z"/>
	</g>
	<g>
		<path fill="#FFFFFF" d="M99.804,36.958c0.739,0,1.514-0.247,2.11-0.81c1.3-1.159,1.44-3.163,0.282-4.498
			c-1.159-1.299-3.199-1.439-4.5-0.245c-1.299,1.16-1.439,3.162-0.245,4.499C98.048,36.605,98.928,36.958,99.804,36.958z"/>
		<path fill="#FFFFFF" d="M107.22,54.457L107.22,54.457c0.352,1.442,1.651,2.424,3.094,2.424c0.245,0,0.525-0.034,0.772-0.104
			c1.722-0.421,2.74-2.145,2.319-3.865c-0.421-1.722-2.145-2.741-3.865-2.319C107.853,51.014,106.799,52.735,107.22,54.457z"/>
		<path fill="#FFFFFF" d="M111.683,61.766c-1.756,0-3.195,1.441-3.195,3.198c0,1.757,1.439,3.199,3.195,3.163
			c1.756,0,3.197-1.441,3.164-3.198C114.88,63.171,113.438,61.766,111.683,61.766z"/>
		<path fill="#FFFFFF" d="M106.272,46.27c0.49,0,1.02-0.106,1.476-0.352c1.545-0.809,2.144-2.741,1.335-4.288
			c-0.844-1.545-2.742-2.143-4.289-1.335c-1.543,0.809-2.143,2.741-1.334,4.288C104.022,45.672,105.146,46.27,106.272,46.27z"/>
		<path fill="#FFFFFF" d="M29.419,36.992c0.877,0,1.756-0.35,2.39-1.054c1.158-1.3,1.054-3.339-0.281-4.499
			c-1.336-1.159-3.34-1.053-4.498,0.281c-1.16,1.301-1.055,3.34,0.279,4.499C27.908,36.746,28.646,36.992,29.419,36.992z"/>
		<path fill="#FFFFFF" d="M18.174,56.847c0.245,0.07,0.528,0.106,0.773,0.106c1.441,0,2.741-0.985,3.093-2.425
			c0.419-1.723-0.634-3.445-2.32-3.866c-1.723-0.422-3.445,0.633-3.867,2.318C15.433,54.703,16.452,56.425,18.174,56.847z"/>
		<path fill="#FFFFFF" d="M17.576,68.337c1.758,0,3.164-1.441,3.164-3.198c0-0.036,0-0.036,0-0.07s0-0.035,0-0.069
			c0-1.757-1.441-3.199-3.197-3.199c-1.758,0-3.163,1.442-3.163,3.199c0,0.035,0,0.035,0,0.069s0,0.035,0,0.07
			C14.415,66.896,15.82,68.337,17.576,68.337L17.576,68.337z"/>
		<path fill="#FFFFFF" d="M21.477,45.953c0.493,0.247,0.983,0.351,1.476,0.351c1.16,0,2.249-0.632,2.81-1.686
			c0.811-1.547,0.213-3.479-1.334-4.289c-1.544-0.808-3.479-0.21-4.288,1.336C19.334,43.212,19.931,45.146,21.477,45.953z"/>
	</g>
	<g>
		<path fill="#FFFFFF" d="M57.835,50.419H44.313l-1.979,9.943c1.838-1.98,4.006-2.638,6.738-2.638
			c6.266,0,10.554,4.428,10.554,10.93c0,6.737-4.618,11.685-11.544,11.685c-6.361,0-10.6-3.815-10.789-9.658h4.051
			c0.331,3.722,3.063,6.266,6.785,6.266c4.147,0,7.256-3.393,7.256-7.868c0-4.617-2.969-7.869-7.304-7.869
			c-2.732,0-4.9,1.085-6.407,3.252l-3.439-0.237l3.109-17.338h16.492V50.419z"/>
		<path fill="#FFFFFF" d="M77.185,75.263c-0.971,0.951-2.289,1.543-4.086,1.543c-6.83,0-6.973-8.152-6.973-13.1
			c0-5.088-0.141-13.852,6.879-13.852c7.021,0,6.88,8.715,6.88,13.663c0,0.676,0,1.429-0.018,2.216
			c1.161-1.386,2.63-2.501,4.296-3.257c-0.104-7.66-1.316-16.204-11.158-16.204c-10.318,0-11.119,9.47-11.119,17.433
			s1.178,16.632,11.308,16.632c2.13,0,3.854-0.432,5.25-1.188C77.813,77.96,77.386,76.648,77.185,75.263z"/>
		<g>
			<path fill="#FFFFFF" d="M88.157,69.913c0,1.03-0.326,2.063-0.894,2.87c-0.603,0.84-1.426,1.237-2.562,1.237
				c-1.562,0-2.489-0.946-2.489-2.526c0-2.354,1.408-4.123,3.265-4.123C87.159,67.371,88.157,68.315,88.157,69.913z M85.478,79.914
				H83.86l8.867-12.818h1.598L85.478,79.914z M85.511,68.607c-0.378,0-0.721,0.189-0.926,0.516c-0.346,0.516-0.673,1.82-0.673,2.646
				c0,0.635,0.362,1.03,0.93,1.03c0.411,0,0.789-0.259,1.013-0.688c0.309-0.584,0.584-1.752,0.584-2.438
				C86.438,69.001,86.095,68.607,85.511,68.607z M96.095,75.599c0,1.031-0.326,2.062-0.895,2.87
				c-0.602,0.843-1.424,1.235-2.559,1.235c-1.563,0-2.492-0.943-2.492-2.525c0-2.354,1.408-4.123,3.266-4.123
				C95.097,73.056,96.095,74.001,96.095,75.599z M93.447,74.294c-0.377,0-0.72,0.188-0.927,0.516c-0.344,0.516-0.67,1.82-0.67,2.646
				c0,0.637,0.36,1.03,0.928,1.03c0.414,0,0.79-0.256,1.014-0.688c0.309-0.584,0.584-1.752,0.584-2.438
				C94.376,74.69,94.031,74.294,93.447,74.294z"/>
		</g>
	</g>
</g>
</svg>
