<?xml version="1.0" encoding="utf-8"?>
<!-- Generator: Adobe Illustrator 16.0.0, SVG Export Plug-In . SVG Version: 6.00 Build 0)  -->
<!DOCTYPE svg PUBLIC "-//W3C//DTD SVG 1.1//EN" "http://www.w3.org/Graphics/SVG/1.1/DTD/svg11.dtd">
<svg version="1.1" id="Слой_1" xmlns="http://www.w3.org/2000/svg" xmlns:xlink="http://www.w3.org/1999/xlink" x="0px" y="0px"
	 width="127px" height="127px" viewBox="0 0 127 127" enable-background="new 0 0 127 127" xml:space="preserve">
<g>
	<g>
		<path fill="#FCE0E3" d="M63.5,126.044c-34.486,0-62.544-28.057-62.544-62.544c0-34.487,28.058-62.543,62.544-62.543
			c34.487,0,62.545,28.057,62.545,62.543C126.045,97.987,97.987,126.044,63.5,126.044z"/>
		<path fill="#7E57C2" d="M63.5,1.912c33.96,0,61.589,27.628,61.589,61.588c0,33.96-27.629,61.589-61.589,61.589
			S1.912,97.46,1.912,63.5C1.912,29.54,29.54,1.912,63.5,1.912 M63.5,0C28.431,0,0,28.43,0,63.5S28.431,127,63.5,127
			c35.07,0,63.5-28.431,63.5-63.5S98.57,0,63.5,0L63.5,0z"/>
	</g>
	<g>
		<path fill="#7E57C2" d="M86.018,60.513H40.982c-0.472,0-0.853,0.382-0.853,0.854v26.498c0,0.471,0.381,0.854,0.853,0.854h45.035
			c0.472,0,0.854-0.383,0.854-0.854V61.367C86.872,60.895,86.489,60.513,86.018,60.513z"/>
		<path fill="#623FAF" d="M86.018,60.513H40.982c-0.472,0-0.853,0.382-0.853,0.854v3.417h46.742v-3.417
			C86.872,60.895,86.489,60.513,86.018,60.513z"/>
		<path fill="#FFDB57" d="M67.863,60.513h-8.726c-0.472,0-0.854,0.382-0.854,0.854v26.498c0,0.471,0.382,0.854,0.854,0.854h8.726
			c0.472,0,0.854-0.383,0.854-0.854V61.367C68.717,60.895,68.335,60.513,67.863,60.513z"/>
		<path fill="#F5BA3D" d="M67.863,60.513h-8.726c-0.472,0-0.854,0.382-0.854,0.854v3.398h10.433v-3.398
			C68.717,60.895,68.335,60.513,67.863,60.513z"/>
		<path fill="#FFDB57" d="M84.354,44.738c-0.837-2.183-2.158-4.314-3.534-5.703c-0.505-0.509-1.186-0.767-1.958-0.751
			c-2.563,0.062-6.741,3.278-12.418,9.566c-0.141,0.156-0.22,0.36-0.22,0.571v4.517c0,0.473,0.381,0.854,0.854,0.854h13.136
			c2.928,0,4.136-1.423,4.633-2.619C85.51,49.581,85.334,47.296,84.354,44.738z"/>
		<path fill="#EF9325" d="M84.843,46.226c-0.024-0.088-0.062-0.171-0.112-0.247c-1.289-1.949-4.075-1.22-6.186-0.265
			c-6.13,2.775-8.663,6.598-8.768,6.759c-0.171,0.263-0.184,0.598-0.034,0.874c0.149,0.274,0.437,0.445,0.75,0.445h9.72
			c1.863,0,3.244-0.57,4.105-1.698C85.342,50.753,85.522,48.725,84.843,46.226z"/>
		<path fill="#FFDB57" d="M60.558,47.85c-5.678-6.288-9.854-9.504-12.419-9.566c-0.775-0.015-1.453,0.243-1.958,0.751
			c-1.375,1.388-2.696,3.52-3.534,5.703c-0.98,2.559-1.156,4.843-0.493,6.435c0.498,1.196,1.706,2.619,4.634,2.619h13.136
			c0.473,0,0.854-0.381,0.854-0.853v-4.518C60.778,48.21,60.699,48.006,60.558,47.85z"/>
		<path fill="#EF9325" d="M57.224,52.473c-0.104-0.161-2.637-3.983-8.768-6.759c-2.11-0.956-4.896-1.685-6.187,0.265
			c-0.05,0.076-0.088,0.159-0.112,0.247c-0.681,2.499-0.499,4.527,0.524,5.868c0.862,1.126,2.244,1.698,4.105,1.698h9.721
			c0.313,0,0.601-0.171,0.749-0.445C57.406,53.071,57.394,52.736,57.224,52.473z"/>
		<path fill="#F5BA3D" d="M67.077,46.723h-7.154c-0.471,0-0.854,0.383-0.854,0.853v5.363c0,0.472,0.383,0.853,0.854,0.853h7.154
			c0.473,0,0.854-0.381,0.854-0.853v-5.363C67.931,47.106,67.55,46.723,67.077,46.723z"/>
		<path fill="#7E57C2" d="M89.688,52.086H37.312c-0.472,0-0.854,0.382-0.854,0.855v8.426c0,0.472,0.383,0.855,0.854,0.855h52.377
			c0.473,0,0.854-0.383,0.854-0.855v-8.426C90.543,52.468,90.161,52.086,89.688,52.086z"/>
		<rect x="56.939" y="52.086" fill="#FFDB57" width="13.121" height="10.136"/>
	</g>
	<g>
		<path fill="#7E57C2" d="M32.459,25.555c-1.044-1.675-0.094-3.261,1.532-4.173c2.04-1.145,3.821-0.375,4.585,0.986
			c0.345,0.612,0.475,1.469,0.16,2.189c1.23-0.024,2.05,0.498,2.641,1.55c0.928,1.653,0.446,3.606-1.953,4.953
			c-2.026,1.138-3.895,0.713-5.069-1.38l2.093-1.174c0.411,0.733,1.152,0.931,1.846,0.542c1.601-0.898,0.41-3.018-1.189-2.12
			l-0.652,0.367l-1.094-1.946l0.628-0.352c1.172-0.658,0.233-2.27-0.887-1.641c-0.52,0.292-0.714,0.664-0.52,1.01L32.459,25.555z"/>
		<path fill="#7E57C2" d="M50.648,27.293l-2.211,0.485l-0.769-3.495l1.061-0.233l1.768-9.061l1.149-0.253l5.521,7.46l1.091-0.24
			l0.768,3.495l-2.195,0.482l-0.253-1.15l-6.184,1.359L50.648,27.293z M51.427,23.426l2.957-0.649l-2.339-3.447L51.427,23.426z"/>
		<path fill="#7E57C2" d="M69.21,24.475c-0.933-0.025-1.864-0.051-2.798-0.076l0.12-4.296l-3.303-0.092l-0.118,4.296
			c-0.934-0.026-1.88-0.052-2.798-0.077l0.297-10.701c0.916,0.025,1.864,0.052,2.796,0.078L63.3,17.489l3.301,0.091l0.108-3.882
			c0.932,0.026,1.865,0.051,2.797,0.078L69.21,24.475z"/>
		<path fill="#7E57C2" d="M80.629,18.7c-1.54-0.396-2.311-0.595-3.837-0.986l-0.377,1.467l3.527,0.906
			c-0.203,0.785-0.404,1.57-0.606,2.356l-3.527-0.906c-0.154,0.608-0.308,1.2-0.468,1.823c1.526,0.392,2.415,0.62,3.973,1.02
			c-0.198,0.77-0.403,1.57-0.606,2.356c-2.43-0.624-4.209-1.081-6.608-1.698c0.891-3.468,1.781-6.936,2.665-10.374
			c2.4,0.617,4.045,1.04,6.476,1.664C81.041,17.1,80.835,17.899,80.629,18.7z"/>
		<path fill="#7E57C2" d="M94.468,22.25l0.871,0.447l-4.904,9.552c-0.831-0.425-1.661-0.852-2.49-1.278l2.18-4.246l-3.117,1.082
			l-0.272-0.139L85.81,24.51l-2.18,4.246c-0.829-0.426-1.66-0.853-2.49-1.278l4.904-9.553l0.898,0.461l1.604,6.051L94.468,22.25z"/>
	</g>
	<g>
		<path fill="#7E57C2" d="M19.916,89.985c-0.312-0.785-0.623-1.57-0.936-2.355l3.62-1.435l-1.104-2.782l-3.618,1.436
			c-0.312-0.787-0.628-1.584-0.935-2.357l9.015-3.573c0.307,0.771,0.624,1.571,0.936,2.356l-3.271,1.296l1.103,2.782l3.271-1.296
			c0.312,0.785,0.624,1.571,0.936,2.356L19.916,89.985z"/>
		<path fill="#7E57C2" d="M26.891,97.86l-2.37-3l-1.31,0.311l-1.504-1.9l0.283-0.225l10.128-2.445l0.661,0.838l-4.706,9.301
			l-0.283,0.224l-1.504-1.901L26.891,97.86z M29.358,93.454l-2.679,0.723l1.374,1.738L29.358,93.454z"/>
		<path fill="#7E57C2" d="M30.334,103.231c1.98-2.553,3.962-5.104,5.951-7.668c1.107,0.859,2.246,1.742,3.374,2.618
			c3.661,2.86-0.76,8.557-4.431,5.708l-1.412-1.098l-1.522,1.961C31.637,104.243,30.979,103.732,30.334,103.231z M38.289,99.927
			c-0.452-0.369-0.954-0.74-1.402-1.089c-0.485,0.624-1.217,1.566-1.701,2.19l1.402,1.089
			C37.661,102.95,39.418,100.821,38.289,99.927z"/>
		<path fill="#7E57C2" d="M41.326,105.409c2.711-6.135,11.813-2.113,9.102,4.021C47.711,115.578,38.61,111.557,41.326,105.409z
			 M48.108,108.405c1.411-3.193-3.038-5.159-4.449-1.966C42.236,109.659,46.686,111.625,48.108,108.405z"/>
		<path fill="#7E57C2" d="M53.084,116.099l-2.025-0.327l0.52-3.202l0.971,0.158l4.512-7.048l1.054,0.171l2.165,8.129l0.998,0.162
			l-0.518,3.201l-2.012-0.326l0.171-1.053l-5.665-0.918L53.084,116.099z M55.029,113.101l2.709,0.438l-0.821-3.685L55.029,113.101z"
			/>
		<path fill="#7E57C2" d="M69.059,112.032c-0.15,0.025-0.333,0.025-0.514,0.027l-1.494,4.047l-2.709,0.438l-0.062-0.382l1.89-4.632
			c-2.099-0.909-2.323-2.727-2.64-4.683l2.503-0.406c0.279,1.725,0.442,3.51,2.651,3.278l-0.586-3.612l2.49-0.404l0.585,3.612
			c2.169-0.478,1.76-2.223,1.48-3.946l2.505-0.406c0.316,1.957,0.678,3.752-1.027,5.277l3.255,3.797l0.063,0.383l-2.709,0.439
			l-2.694-3.368c-0.174,0.056-0.348,0.112-0.498,0.136l0.592,3.653l-2.49,0.404L69.059,112.032z"/>
		<path fill="#7E57C2" d="M83.285,103.534c-1.313,0.596-1.969,0.895-3.269,1.484l0.567,1.249l3.004-1.364
			c0.303,0.669,0.607,1.337,0.91,2.006l-3.003,1.364c0.235,0.518,0.465,1.022,0.706,1.552c1.3-0.59,2.057-0.934,3.381-1.535
			c0.299,0.656,0.608,1.336,0.911,2.006c-2.068,0.939-3.582,1.627-5.627,2.556c-1.34-2.952-2.683-5.904-4.012-8.831
			c2.044-0.929,3.444-1.565,5.513-2.506C82.666,102.171,82.975,102.853,83.285,103.534z"/>
		<path fill="#7E57C2" d="M96.527,103.396c-0.675,0.509-1.349,1.019-2.022,1.528l-2.349-3.105l-2.389,1.805l2.349,3.106
			c-0.675,0.51-1.36,1.028-2.023,1.529l-5.851-7.739c0.664-0.502,1.35-1.02,2.023-1.529l2.123,2.808l2.388-1.804l-2.123-2.81
			c0.675-0.509,1.35-1.019,2.023-1.528L96.527,103.396z"/>
		<path fill="#7E57C2" d="M104.909,93.718c-0.521,0.666-1.042,1.333-1.562,2l-3.07-2.397l-1.843,2.36l3.069,2.396
			c-0.521,0.666-1.05,1.344-1.562,2l-7.646-5.974c0.512-0.655,1.04-1.332,1.561-1.999l2.775,2.167l1.843-2.36l-2.775-2.166
			c0.521-0.666,1.042-1.333,1.563-2L104.909,93.718z"/>
		<path fill="#7E57C2" d="M104.455,87.325c-2.442,1.68-6.463-0.637-5.088-4.191c0.514-1.316,1.04-2.659,1.549-3.962
			c3.021,1.181,6.028,2.356,9.035,3.532c-0.292,0.748-0.599,1.536-0.902,2.311l-2.659-1.039l-0.469,1.2l2.054,2.589l-1.01,2.58
			l-0.337-0.13L104.455,87.325z M104.312,83.162c-0.723-0.282-1.497-0.585-2.233-0.872c-0.212,0.542-0.446,1.104-0.646,1.652
			c-0.502,1.321,1.744,2.125,2.233,0.872L104.312,83.162z"/>
	</g>
	<g>
		<circle fill="#00CDB3" cx="98.297" cy="55.888" r="2.069"/>
		<g>
			<path fill="#FF4B4E" d="M104.093,59.971c-0.131-0.61,0.258-1.209,0.866-1.34l2.198-0.47c0.609-0.13,1.209,0.257,1.339,0.866
				c0.131,0.609-0.259,1.209-0.866,1.339l-2.198,0.473C104.823,60.968,104.224,60.579,104.093,59.971z"/>
		</g>
		<g>
			<path fill="#F99830" d="M109.432,40.058c0.251-0.57-0.011-1.235-0.579-1.486c-0.57-0.25-1.234,0.009-1.486,0.58
				c-0.71,1.619-1.582,1.573-3.331,1.33c-1.569-0.221-4.197-0.589-4.887,3.021c-0.523,2.746-1.803,2.64-1.803,2.64
				c-0.379-0.001-1.413-0.247-1.623,0.833c-0.361,1.867,4.532,2.762,5.641-3.05c0.278-1.457,0.616-1.457,2.36-1.212
				C105.428,42.952,108.003,43.313,109.432,40.058z"/>
			<path fill="#F99830" d="M114.601,63.261c-0.229-0.581-0.882-0.866-1.462-0.64c-1.343,0.526-2.258,1.608-3.063,2.563
				c-1.391,1.645-1.912,2.261-3.694,0.9c-1.96-1.5-3.785-2.082-5.421-1.734c-2.015,0.429-3.103,2.149-1.988,2.921
				c0.928,0.641,1.658-0.315,1.658-0.315s1.259-1.464,4.383,0.919c4.92,3.757,6.525-2.205,8.949-3.155
				C114.54,64.495,114.827,63.841,114.601,63.261z"/>
		</g>
	</g>
	<circle fill="#FFCA54" cx="25.821" cy="63.85" r="2.483"/>
	<path fill="#F99830" d="M22.996,56.936c-1.426-0.272-3.901-2.056-3.06-6.854c0.309-1.752-0.07-1.895-2.132-2.363
		c-2.015-0.459-5.059-1.15-5.278-5.411c-0.037-0.746,0.536-1.381,1.283-1.42c0.748-0.04,1.383,0.535,1.421,1.283
		c0.108,2.119,1.106,2.438,3.174,2.908c1.855,0.42,4.96,1.126,4.198,5.47c-0.578,3.293,0.885,3.727,0.902,3.729
		c0.732,0.142,1.214,0.85,1.074,1.585C24.438,56.597,23.729,57.077,22.996,56.936z"/>
	<circle fill="#57BAE5" cx="104.067" cy="74.615" r="1.757"/>
	<g>
		<path fill="#FF4B4E" d="M16.681,72.573c-0.537-0.521-0.549-1.378-0.028-1.914l1.881-1.934c0.521-0.536,1.379-0.549,1.914-0.027
			c0.537,0.521,0.548,1.379,0.027,1.914l-1.88,1.936C18.071,73.083,17.216,73.094,16.681,72.573z"/>
		<path fill="#FF4B4E" d="M31.782,57.339l-2.5-1.012c-0.694-0.279-1.028-1.069-0.748-1.761c0.281-0.693,1.069-1.027,1.762-0.748
			l2.502,1.011c0.692,0.282,1.027,1.07,0.747,1.762C33.265,57.285,32.477,57.621,31.782,57.339z"/>
	</g>
</g>
</svg>
