<?xml version="1.0" encoding="utf-8"?>
<!-- Generator: Adobe Illustrator 16.0.0, SVG Export Plug-In . SVG Version: 6.00 Build 0)  -->
<!DOCTYPE svg PUBLIC "-//W3C//DTD SVG 1.1//EN" "http://www.w3.org/Graphics/SVG/1.1/DTD/svg11.dtd">
<svg version="1.1" id="Слой_1" xmlns="http://www.w3.org/2000/svg" xmlns:xlink="http://www.w3.org/1999/xlink" x="0px" y="0px"
	 width="19px" height="17.759px" viewBox="0 0 19 17.759" enable-background="new 0 0 19 17.759" xml:space="preserve">
<path fill="#393939" d="M0.535,8.216L0.459,8.301C0.163,8.632,0,9.058,0,9.5c0,0.992,0.807,1.798,1.799,1.798h3.912l-0.055,0.168
	c-0.355,1.08-0.521,2.555-0.521,3.211v0.643c0,1.345,1.094,2.439,2.439,2.439h0.643c0.236,0,0.441-0.16,0.499-0.39l0.35-1.399
	c0.482-1.932,2.017-4.182,3.748-4.604l0.107-0.026l0.041,0.104c0.273,0.691,0.93,1.139,1.673,1.139h3.851
	c0.284,0,0.515-0.23,0.515-0.514V0.515C19,0.231,18.77,0,18.485,0h-3.851c-0.688,0-1.326,0.403-1.623,1.025l-0.049,0.102
	l-2.313-0.77C9.942,0.119,9.205,0,8.459,0H3.082C2.09,0,1.283,0.807,1.283,1.799c0,0.229,0.043,0.452,0.127,0.662l0.053,0.132
	L1.325,2.63C0.545,2.844,0,3.558,0,4.366c0,0.442,0.163,0.868,0.459,1.199l0.076,0.085L0.459,5.734C0.163,6.065,0,6.49,0,6.933
	c0,0.443,0.163,0.868,0.459,1.199L0.535,8.216z M13.865,1.799c0-0.425,0.346-0.77,0.77-0.77h3.336v10.524h-3.336
	c-0.424,0-0.77-0.345-0.77-0.77V1.799z M3.082,7.702H1.799c-0.425,0-0.77-0.345-0.77-0.77c0-0.423,0.345-0.769,0.77-0.769h1.283
	c0.283,0,0.514-0.231,0.514-0.515c0-0.283-0.23-0.514-0.514-0.514H1.799c-0.425,0-0.77-0.345-0.77-0.77s0.345-0.77,0.77-0.77h1.283
	c0.283,0,0.514-0.231,0.514-0.514c0-0.284-0.23-0.515-0.514-0.515c-0.424,0-0.77-0.345-0.77-0.769c0-0.425,0.346-0.77,0.77-0.77
	h5.377c0.635,0,1.263,0.102,1.867,0.304l2.511,0.836v8.14l-0.104,0.019c-0.974,0.185-1.945,0.818-2.808,1.83
	c-0.857,1.004-1.552,2.337-1.858,3.563l-0.252,1.01h-0.24c-0.777,0-1.411-0.633-1.411-1.41v-0.643c0-0.89,0.28-2.563,0.627-3.305
	l0.034-0.074h1.393c0.283,0,0.514-0.23,0.514-0.515S8.5,10.27,8.217,10.27H1.799c-0.425,0-0.77-0.345-0.77-0.77
	c0-0.424,0.345-0.769,0.77-0.769h1.283c0.283,0,0.514-0.231,0.514-0.515C3.596,7.933,3.365,7.702,3.082,7.702z"/>
</svg>
