<?xml version="1.0" encoding="utf-8"?>
<!-- Generator: Adobe Illustrator 16.0.0, SVG Export Plug-In . SVG Version: 6.00 Build 0)  -->
<!DOCTYPE svg PUBLIC "-//W3C//DTD SVG 1.1//EN" "http://www.w3.org/Graphics/SVG/1.1/DTD/svg11.dtd">
<svg version="1.1" id="Шар_1" xmlns="http://www.w3.org/2000/svg" xmlns:xlink="http://www.w3.org/1999/xlink" x="0px" y="0px"
	 width="32px" height="34.988px" viewBox="0 0 32 34.988" enable-background="new 0 0 32 34.988" xml:space="preserve">
<g>
	<path fill="#00B181" d="M4.754,14.651c0,0.569,0.461,1.031,1.031,1.031h14.958c0.569,0,1.032-0.462,1.032-1.031
		s-0.463-1.031-1.032-1.031H5.785C5.216,13.62,4.754,14.082,4.754,14.651z"/>
	<path fill="#00B181" d="M5.785,19.309h14.958c0.569,0,1.032-0.462,1.032-1.031s-0.463-1.031-1.032-1.031H5.785
		c-0.569,0-1.031,0.462-1.031,1.031S5.216,19.309,5.785,19.309z"/>
	<path fill="#00B181" d="M5.785,6.936h5.08c0.569,0,1.031-0.461,1.031-1.031c0-0.569-0.461-1.03-1.031-1.03h-5.08
		c-0.569,0-1.031,0.461-1.031,1.03C4.754,6.475,5.216,6.936,5.785,6.936z"/>
	<path fill="#00B181" d="M13.037,27.767H5.785c-0.569,0-1.031,0.462-1.031,1.031s0.461,1.031,1.031,1.031h7.252
		c0.569,0,1.031-0.462,1.031-1.031S13.606,27.767,13.037,27.767z"/>
	<path fill="#00B181" d="M13.037,24.575H5.785c-0.569,0-1.031,0.462-1.031,1.031s0.461,1.03,1.031,1.03h7.252
		c0.569,0,1.031-0.461,1.031-1.03S13.606,24.575,13.037,24.575z"/>
	<path fill="#00B181" d="M17.745,32.926H2.062V2.062h14.667v6.985c0,0.569,0.461,1.031,1.031,1.031h6.984v9.229h2.062V8.818
		c0-0.272-0.108-0.535-0.303-0.729l-7.787-7.787C18.524,0.109,18.262,0,17.989,0H1.031C0.461,0,0,0.462,0,1.031v32.926
		c0,0.569,0.461,1.031,1.031,1.031h16.713V32.926z M18.791,3.291l4.726,4.726h-4.726V3.291z"/>
	<path fill="#0055B8" d="M31.998,24.113c0-0.604-0.378-1.029-0.986-1.108l-0.298-0.036c-0.305-0.034-0.557-0.065-0.799-0.12
		c-0.994-0.219-1.959-0.669-3.039-1.42c-0.176-0.122-0.396-0.274-0.719-0.274c-0.328,0-0.558,0.16-0.723,0.275
		C24,22.419,22.716,22.918,21.392,23c-0.698,0.045-1.083,0.458-1.083,1.162v1.067c-0.002,0.843-0.003,1.947,0.008,3.021
		c0.003,0.383,0.052,0.786,0.146,1.199c0.219,0.959,0.715,1.817,1.518,2.626c0.988,0.996,2.221,1.764,3.768,2.347
		c0.121,0.047,0.26,0.071,0.4,0.071c0.168,0,0.342-0.036,0.482-0.101l0.258-0.111c0.354-0.151,0.752-0.323,1.137-0.525
		c1.264-0.668,2.222-1.459,2.93-2.418c0.641-0.869,0.973-1.75,1.016-2.692c0.008-0.171,0.014-0.354,0.016-0.569L32,26.383
		L31.998,24.113z M26.147,32.776c-1.23-0.489-2.204-1.105-2.972-1.883c-0.577-0.583-0.927-1.179-1.073-1.82
		c-0.065-0.286-0.1-0.568-0.103-0.838c-0.009-0.835-0.008-1.681-0.008-2.51l0.001-1.097c1.384-0.173,2.721-0.705,4.162-1.66
		c1.155,0.773,2.27,1.271,3.4,1.521c0.26,0.057,0.514,0.092,0.762,0.122l-0.012,3.397v0.052c-0.003,0.191-0.008,0.36-0.013,0.513
		c-0.026,0.595-0.252,1.173-0.688,1.769c-0.558,0.754-1.33,1.386-2.362,1.931c-0.312,0.164-0.655,0.312-0.989,0.457L26.147,32.776z"
		/>
</g>
</svg>
