<?xml version="1.0" encoding="utf-8"?>
<!-- Generator: Adobe Illustrator 16.0.0, SVG Export Plug-In . SVG Version: 6.00 Build 0)  -->
<!DOCTYPE svg PUBLIC "-//W3C//DTD SVG 1.1//EN" "http://www.w3.org/Graphics/SVG/1.1/DTD/svg11.dtd">
<svg version="1.1" id="Слой_1" xmlns="http://www.w3.org/2000/svg" xmlns:xlink="http://www.w3.org/1999/xlink" x="0px" y="0px"
	 width="35px" height="35.002px" viewBox="0 0 35 35.002" enable-background="new 0 0 35 35.002" xml:space="preserve">
<g>
	<path fill="#3B5998" d="M17.499,0C7.83,0,0,7.836,0,17.501c0,9.664,7.83,17.501,17.499,17.501C27.163,35.002,35,27.165,35,17.501
		C35,7.836,27.163,0,17.499,0z"/>
	<path fill="#FFFFFF" d="M21.244,12.977c0,0.153-0.128,0.281-0.285,0.281H19.75c-0.833,0-0.985,0.326-0.985,0.965v1.333h2.111
		c0.075,0,0.146,0.03,0.201,0.083c0.051,0.054,0.084,0.124,0.084,0.199l-0.004,2.278c0,0.154-0.127,0.283-0.281,0.283h-2.111v5.744
		c0,0.153-0.127,0.281-0.284,0.281h-2.354c-0.157,0-0.281-0.128-0.281-0.281v-5.744h-1.807c-0.155,0-0.281-0.129-0.281-0.283v-2.278
		c0-0.154,0.126-0.282,0.281-0.282h1.807v-1.572c0-2.069,1.303-3.406,3.322-3.406l1.792,0.004c0.157,0,0.285,0.124,0.285,0.281
		V12.977z"/>
</g>
</svg>
