<?xml version="1.0" encoding="utf-8"?>
<!-- Generator: Adobe Illustrator 16.0.0, SVG Export Plug-In . SVG Version: 6.00 Build 0)  -->
<!DOCTYPE svg PUBLIC "-//W3C//DTD SVG 1.1//EN" "http://www.w3.org/Graphics/SVG/1.1/DTD/svg11.dtd">
<svg version="1.1" id="Слой_1" xmlns="http://www.w3.org/2000/svg" xmlns:xlink="http://www.w3.org/1999/xlink" x="0px" y="0px"
	 width="114px" height="113.999px" viewBox="0 0 114 113.999" enable-background="new 0 0 114 113.999" xml:space="preserve">
<g>
	<circle fill="#FFF0F2" cx="57" cy="56.999" r="56.154"/>
	<path fill="#DC494B" d="M57,113.999c-31.43,0-57-25.569-57-57C0,25.57,25.57,0,57,0s57,25.57,57,56.999
		C114,88.429,88.43,113.999,57,113.999z M57,1.69c-30.498,0-55.31,24.812-55.31,55.309c0,30.498,24.812,55.31,55.31,55.31
		s55.31-24.813,55.31-55.31C112.31,26.502,87.498,1.69,57,1.69z"/>
	<g>
		<g>
			<path fill="#FF474A" d="M19.151,41.946c0.571-0.497,1.261-0.562,1.939-0.287c1.334,0.553,2.091,1.802,1.457,3.371l-1.456,3.596
				l-7.674-3.106l1.326-3.278c0.537-1.326,1.998-1.973,3.324-1.436C18.529,40.992,18.994,41.449,19.151,41.946z M15.939,44.333
				l1.239,0.501l0.501-1.239c0.314-0.778-0.924-1.279-1.243-0.49L15.939,44.333z M18.812,45.496l1.305,0.528l0.635-1.568
				c0.319-0.79-0.989-1.306-1.31-0.517L18.812,45.496z"/>
		</g>
		<g>
			<path fill="#FF474A" d="M26.438,36.652l-1.939,2.626l0.549,1.009l-1.229,1.666l-0.248-0.183l-4.287-7.799l0.542-0.733
				l8.722,1.793l0.248,0.183l-1.23,1.666L26.438,36.652z M22.254,35.606l1.196,2.045l1.125-1.523L22.254,35.606z"/>
		</g>
		<g>
			<path fill="#FF474A" d="M24.502,27.708l1.719-1.317l3.852,5.023l1.586-1.216l-3.851-5.023l1.719-1.317l3.851,5.024l1.587-1.217
				l-3.852-5.023l1.719-1.317l5.039,6.573l-8.329,6.383L24.502,27.708z"/>
		</g>
		<g>
			<path fill="#FF474A" d="M43.944,24.257l-3.023,1.239l-0.054,1.147l-1.916,0.786l-0.117-0.285l0.384-8.894l0.843-0.345
				l6.526,6.061l0.117,0.285l-1.916,0.785L43.944,24.257z M40.909,21.19l-0.039,2.37l1.752-0.718L40.909,21.19z"/>
		</g>
		<g>
			<path fill="#FF474A" d="M50.698,17.162c-0.2-1.515,0.978-2.328,2.415-2.451c1.804-0.153,2.813,0.959,2.916,2.162
				c0.046,0.542-0.137,1.187-0.588,1.594c0.875,0.376,1.284,1.006,1.363,1.938c0.126,1.461-0.838,2.684-2.961,2.865
				c-1.792,0.153-2.973-0.745-3.131-2.595l1.851-0.158c0.057,0.648,0.516,1.024,1.128,0.972c1.415-0.12,1.255-1.995-0.159-1.875
				l-0.578,0.049l-0.146-1.721l0.554-0.047c1.037-0.089,0.892-1.524-0.1-1.44c-0.459,0.039-0.715,0.239-0.688,0.546L50.698,17.162z"
				/>
		</g>
		<g>
			<path fill="#FF474A" d="M65.583,23.855c-0.715-0.105-1.43-0.209-2.145-0.314l0.482-3.291l-2.529-0.371l-0.482,3.291
				c-0.714-0.104-1.44-0.21-2.143-0.314l1.2-8.198c0.703,0.103,1.43,0.209,2.144,0.313l-0.436,2.975l2.53,0.371l0.436-2.975
				c0.714,0.105,1.428,0.209,2.143,0.314L65.583,23.855z"/>
		</g>
		<g>
			<path fill="#FF474A" d="M68.461,24.745l-0.701-0.285l3.128-7.686c0.669,0.271,1.338,0.544,2.006,0.816l-1.53,3.76l5.426-2.213
				l0.712,0.29l-3.138,7.708c-0.669-0.272-1.348-0.549-2.027-0.826l1.535-3.771L68.461,24.745z"/>
		</g>
		<g>
			<path fill="#FF474A" d="M81.184,27.795c-0.104-0.078-0.211-0.19-0.32-0.303l-3.38,1.457l-1.864-1.417l0.2-0.264l3.975-1.554
				c-0.671-1.833,0.32-3.04,1.345-4.387l1.723,1.31c-0.902,1.187-1.91,2.336-0.468,3.566l1.89-2.486l1.714,1.303l-1.89,2.486
				c1.57,1.06,2.409-0.219,3.312-1.405l1.723,1.31c-1.024,1.346-1.921,2.625-3.867,2.468l-0.435,4.245l-0.201,0.264l-1.863-1.417
				l0.498-3.647c-0.136-0.073-0.272-0.148-0.376-0.227l-1.912,2.515l-1.714-1.304L81.184,27.795z"/>
		</g>
		<g>
			<path fill="#FF474A" d="M85.364,35.542l6.563-5.047c0.433,0.563,0.865,1.125,1.313,1.707l-2.484,1.91l0.094,0.123
				c1.29,1.678,2.481,0.628,3.71-0.317c0.44,0.572,0.88,1.145,1.327,1.727c-1.341,1.031-2.551,2.02-4.387,1.357l-1.519,4.003
				l-0.263,0.202l-1.435-1.866l1.432-3.397c-0.211-0.197-0.37-0.403-0.536-0.619l-2.503,1.925
				C86.229,36.667,85.797,36.105,85.364,35.542z"/>
		</g>
		<g>
			<path fill="#FF474A" d="M93.314,46.847l-1.234-3.022l-1.147-0.055l-0.782-1.917l0.283-0.116l8.89,0.393l0.345,0.843l-6.064,6.517
				l-0.285,0.116l-0.783-1.916L93.314,46.847z M96.383,43.817l-2.368-0.042l0.717,1.752L96.383,43.817z"/>
		</g>
	</g>
	<g>
		<g>
			<path fill="#FF474A" d="M70.058,91.182c-1.379,0.527-2.053,2.055-1.525,3.432c0.409,1.053,1.407,1.699,2.491,1.699
				c0.324,0,0.646-0.058,0.939-0.177c1.376-0.526,2.051-2.052,1.523-3.427C72.958,91.36,71.434,90.655,70.058,91.182z"/>
		</g>
		<g>
			<path fill="#FF474A" d="M77.852,87.051c-1.2,0.85-1.494,2.491-0.674,3.693c0.529,0.732,1.35,1.143,2.199,1.143
				c0.528,0,1.056-0.146,1.523-0.469c1.203-0.851,1.495-2.492,0.675-3.693C80.725,86.526,79.056,86.231,77.852,87.051z"/>
		</g>
		<g>
			<path fill="#FF474A" d="M44.119,91.241c-1.38-0.527-2.902,0.178-3.433,1.556c-0.524,1.376,0.179,2.901,1.556,3.428
				c0.292,0.117,0.616,0.177,0.937,0.177c1.087,0,2.082-0.646,2.492-1.729C46.17,93.293,45.494,91.742,44.119,91.241z"/>
		</g>
		<g>
			<path fill="#FF474A" d="M61.499,93.293c-1.468,0.175-2.491,1.494-2.316,2.962c0.177,1.347,1.321,2.345,2.639,2.345
				c0.118,0,0.204,0,0.321-0.03c1.465-0.175,2.491-1.495,2.316-2.96C64.282,94.172,62.963,93.117,61.499,93.293z"/>
		</g>
		<g>
			<path fill="#FF474A" d="M52.676,93.322L52.676,93.322c-1.466-0.174-2.784,0.882-2.96,2.345c-0.176,1.469,0.879,2.788,2.316,2.934
				c0.117,0,0.205,0.027,0.321,0.027c1.319,0,2.461-0.997,2.638-2.346C55.197,94.819,54.141,93.5,52.676,93.322z"/>
		</g>
		<g>
			<path fill="#FF474A" d="M96.26,54.284c-1.466,0-2.668,1.2-2.668,2.665c0,1.468,1.202,2.67,2.668,2.638
				c1.464,0,2.665-1.199,2.639-2.666C98.925,55.455,97.724,54.284,96.26,54.284z"/>
		</g>
		<g>
			<path fill="#FF474A" d="M95.762,63.749c-1.438-0.35-2.873,0.529-3.225,1.934c-0.352,1.438,0.527,2.875,1.936,3.225
				c0.204,0.061,0.411,0.09,0.644,0.09c1.201,0,2.285-0.819,2.58-2.021C98.075,65.509,97.196,64.102,95.762,63.749z"/>
		</g>
		<g>
			<path fill="#FF474A" d="M84.447,81.19c-0.967,1.083-0.88,2.782,0.234,3.751c0.498,0.438,1.145,0.673,1.759,0.673
				c0.734,0,1.466-0.293,1.992-0.908c0.968-1.113,0.88-2.784-0.232-3.75C87.084,79.989,85.415,80.106,84.447,81.19z"/>
		</g>
		<g>
			<path fill="#FF474A" d="M93.035,72.808c-1.288-0.677-2.901-0.177-3.577,1.112c-0.672,1.29-0.175,2.901,1.115,3.576
				c0.381,0.205,0.82,0.291,1.231,0.291c0.967,0,1.874-0.525,2.345-1.435C94.822,75.093,94.323,73.511,93.035,72.808z"/>
		</g>
		<g>
			<path fill="#FF474A" d="M21.053,72.954c-1.291,0.705-1.787,2.285-1.114,3.605c0.468,0.906,1.406,1.406,2.345,1.406
				c0.408,0,0.849-0.089,1.23-0.292c1.291-0.677,1.787-2.286,1.113-3.579C23.952,72.777,22.371,72.278,21.053,72.954z"/>
		</g>
		<g>
			<path fill="#FF474A" d="M21.491,65.83c-0.353-1.435-1.788-2.285-3.224-1.934c-1.438,0.352-2.286,1.786-1.935,3.225
				c0.292,1.2,1.379,2.024,2.579,2.024c0.206,0,0.438-0.031,0.646-0.092C20.993,68.704,21.87,67.266,21.491,65.83z"/>
		</g>
		<g>
			<path fill="#FF474A" d="M17.769,59.764c1.466,0,2.638-1.202,2.638-2.667c0-0.031,0-0.031,0-0.059c0-0.03,0-0.03,0-0.058
				c0-1.466-1.202-2.669-2.666-2.669c-1.466,0-2.639,1.204-2.639,2.669c0,0.028,0,0.028,0,0.058c0,0.028,0,0.028,0,0.059
				C15.131,58.562,16.303,59.764,17.769,59.764L17.769,59.764z"/>
		</g>
		<g>
			<path fill="#FF474A" d="M25.947,81.101c-1.085,0.966-1.204,2.668-0.207,3.753c0.528,0.586,1.262,0.878,1.994,0.878
				c0.644,0,1.26-0.204,1.758-0.674c1.084-0.966,1.201-2.668,0.205-3.753C28.702,80.223,27.03,80.133,25.947,81.101z"/>
		</g>
		<g>
			<path fill="#FF474A" d="M36.292,87.139c-1.201-0.822-2.873-0.527-3.693,0.675c-0.819,1.2-0.526,2.871,0.675,3.691
				c0.468,0.322,0.998,0.469,1.494,0.469c0.851,0,1.67-0.409,2.199-1.142C37.816,89.631,37.523,87.987,36.292,87.139z"/>
		</g>
	</g>
	<g>
		<g>
			<path fill="#FF474A" d="M47.055,40.14v33.116h-4.351V49.261H34.38v-2.993c2.682,0,4.81-0.437,6.384-1.311
				c1.575-0.872,2.625-2.479,3.157-4.817H47.055z"/>
		</g>
		<g>
			<path fill="#FF474A" d="M61.122,70.215c-0.418-0.096-0.815-0.225-1.182-0.397c-0.826-0.39-1.474-0.966-1.94-1.73
				c-0.469-0.764-0.859-1.528-1.17-2.292c-0.312-0.764-0.531-1.723-0.654-2.877c-0.125-1.152-0.204-2.088-0.234-2.807
				c-0.032-0.717-0.048-1.621-0.048-2.712c0-1.123,0-1.924,0-2.409c0-0.483,0.048-1.311,0.142-2.478
				c0.093-1.17,0.21-2.067,0.352-2.69c0.14-0.623,0.38-1.396,0.726-2.315c0.341-0.919,0.747-1.613,1.215-2.081
				c0.467-0.469,1.076-0.882,1.824-1.241c0.748-0.357,1.605-0.538,2.572-0.538c0.966,0,1.824,0.181,2.573,0.538
				c0.749,0.359,1.354,0.772,1.823,1.241c0.469,0.467,0.872,1.153,1.216,2.057c0.344,0.906,0.584,1.668,0.727,2.292
				c0.139,0.624,0.256,1.512,0.348,2.666c0.096,1.153,0.143,1.964,0.143,2.433c0,0.174,0,0.405,0,0.665
				c1.014-0.277,2.076-0.438,3.178-0.438c0.355,0,0.702,0.023,1.051,0.053c-0.023-0.933-0.061-1.789-0.113-2.55
				c-0.094-1.356-0.357-2.884-0.795-4.584c-0.438-1.699-1.029-3.079-1.777-4.139s-1.831-1.957-3.251-2.689
				c-1.419-0.732-3.126-1.099-5.121-1.099c-1.653,0-3.112,0.234-4.373,0.702c-1.263,0.467-2.286,1.154-3.064,2.058
				c-0.778,0.904-1.418,1.864-1.917,2.877c-0.499,1.013-0.866,2.245-1.1,3.695c-0.233,1.449-0.391,2.752-0.469,3.906
				c-0.077,1.154-0.116,2.51-0.116,4.069c0,1.808,0.063,3.407,0.188,4.794c0.124,1.388,0.412,2.854,0.865,4.396
				c0.45,1.544,1.068,2.814,1.847,3.813s1.877,1.832,3.298,2.502c1.39,0.658,3.035,0.988,4.921,1.001
				C62.044,72.796,61.478,71.549,61.122,70.215z"/>
		</g>
		<g>
			<g>
				<path fill="#FF474A" d="M71.741,63.559c0,1.023-0.323,2.049-0.888,2.85c-0.597,0.834-1.415,1.229-2.543,1.229
					c-1.55,0-2.472-0.938-2.472-2.508c0-2.334,1.398-4.093,3.24-4.093C70.751,61.037,71.741,61.975,71.741,63.559z M69.079,73.487
					h-1.604l8.803-12.723h1.586L69.079,73.487z M69.112,62.265c-0.374,0-0.715,0.184-0.919,0.509
					c-0.343,0.514-0.668,1.809-0.668,2.629c0,0.631,0.36,1.021,0.924,1.021c0.407,0,0.783-0.254,1.007-0.682
					c0.306-0.58,0.579-1.74,0.579-2.422C70.035,62.655,69.692,62.265,69.112,62.265z M79.62,69.204c0,1.027-0.323,2.048-0.888,2.852
					c-0.598,0.835-1.415,1.227-2.54,1.227c-1.553,0-2.474-0.938-2.474-2.508c0-2.336,1.398-4.094,3.241-4.094
					C78.63,66.68,79.62,67.62,79.62,69.204z M76.993,67.91c-0.376,0-0.716,0.186-0.921,0.514c-0.341,0.509-0.665,1.808-0.665,2.625
					c0,0.632,0.358,1.022,0.919,1.022c0.413,0,0.788-0.256,1.008-0.682c0.307-0.582,0.582-1.738,0.582-2.42
					C77.916,68.302,77.573,67.91,76.993,67.91z"/>
			</g>
		</g>
	</g>
</g>
</svg>
