<?xml version="1.0" encoding="utf-8"?>
<!-- Generator: Adobe Illustrator 16.0.0, SVG Export Plug-In . SVG Version: 6.00 Build 0)  -->
<!DOCTYPE svg PUBLIC "-//W3C//DTD SVG 1.1//EN" "http://www.w3.org/Graphics/SVG/1.1/DTD/svg11.dtd">
<svg version="1.1" id="Слой_1" xmlns="http://www.w3.org/2000/svg" xmlns:xlink="http://www.w3.org/1999/xlink" x="0px" y="0px"
	 width="63.004px" height="62.264px" viewBox="0 0 63.004 62.264" enable-background="new 0 0 63.004 62.264" xml:space="preserve">
<g>
	<g>
		<g>
			<path fill="#E53935" d="M47.672,21.186c-0.149-0.357-0.333-0.694-0.547-1.005h3.204c3.12,0,5.66-2.54,5.66-5.661
				c0-3.123-2.54-5.661-5.66-5.661h-9.854c0.625-0.912,0.993-2.013,0.993-3.201C41.469,2.538,38.93,0,35.809,0H5.661
				C2.54,0,0,2.538,0,5.659c0,3.123,2.54,5.661,5.661,5.661h9.854c-0.625,0.912-0.994,2.013-0.994,3.201
				c0,1.186,0.368,2.289,0.994,3.199h-3.208c-3.121,0-5.661,2.538-5.661,5.661c0,1.792,0.838,3.391,2.143,4.43
				c-1.305,1.037-2.143,2.637-2.143,4.43s0.838,3.391,2.143,4.43c-1.305,1.037-2.143,2.638-2.143,4.43s0.838,3.393,2.143,4.43
				c-1.305,1.037-2.143,2.637-2.143,4.43c0,3.12,2.54,5.66,5.661,5.66h14.501c3.821,4.086,9.255,6.645,15.277,6.645
				c11.535,0,20.92-9.385,20.92-20.918C63.004,31.745,56.503,23.636,47.672,21.186z M50.329,11.319c1.764,0,3.199,1.436,3.199,3.201
				c0,1.764-1.436,3.199-3.199,3.199h-7.876H20.181c-1.763,0-3.199-1.436-3.199-3.199c0-1.765,1.436-3.201,3.199-3.201H50.329z
				 M5.661,8.859c-1.764,0-3.199-1.436-3.199-3.201c0-1.764,1.436-3.199,3.199-3.199h30.148c1.765,0,3.2,1.436,3.2,3.199
				c0,1.765-1.436,3.201-3.2,3.201H5.661z M12.306,20.181h30.147c0.496,0,0.971,0.115,1.396,0.32
				c-0.582-0.048-1.171-0.075-1.766-0.075c-5.776,0-11.013,2.354-14.802,6.153H12.306c-1.764,0-3.199-1.436-3.199-3.199
				C9.106,21.614,10.542,20.181,12.306,20.181z M12.306,29.04h12.873c-1.397,1.914-2.477,4.071-3.163,6.398h-9.71
				c-1.764,0-3.199-1.436-3.199-3.199C9.106,30.474,10.542,29.04,12.306,29.04z M12.306,37.9h9.145
				c-0.186,1.122-0.285,2.272-0.285,3.445c0,1.002,0.072,1.988,0.209,2.953h-9.069c-1.764,0-3.199-1.435-3.199-3.199
				C9.106,39.334,10.542,37.9,12.306,37.9z M12.306,53.158c-1.764,0-3.199-1.435-3.199-3.199c0-1.764,1.436-3.199,3.199-3.199h9.572
				c0.621,2.315,1.629,4.473,2.953,6.398H12.306z M42.084,59.803c-10.177,0-18.458-8.28-18.458-18.458
				c0-10.178,8.28-18.458,18.458-18.458c10.178,0,18.458,8.28,18.458,18.458C60.542,51.522,52.262,59.803,42.084,59.803z"/>
		</g>
	</g>
	<g>
		<path fill="#E53935" d="M36.618,41.094L36.618,41.094h10.936c0.503-0.056,0.896-0.479,0.896-0.996
			c0-0.555-0.451-1.006-1.007-1.006h-1.538c0.205-0.341,0.365-0.682,0.486-1.032c0.397-1.147,0.216-2.51-0.474-3.551
			c-1.105-1.672-2.815-2.024-4.055-2.024c-1.176,0-2.435,0.321-3.542,0.904c-0.408,0.213-0.588,0.602-0.48,1.039
			c0.101,0.412,0.479,0.829,1.004,0.829c0.162,0,0.324-0.042,0.481-0.125c1.279-0.672,2.541-0.833,3.662-0.464
			c0.869,0.287,1.524,1.071,1.592,1.909c0.069,0.837-0.331,1.66-1.221,2.516h-6.635c-0.555,0-1.006,0.453-1.006,1.006
			C35.719,40.617,36.114,41.042,36.618,41.094z"/>
		<path fill="#E53935" d="M47.443,42.267h-4.902c0.001,0,0.002-0.001,0.004-0.001h-3.071c-0.002,0-0.002,0.001-0.002,0.001h-2.747
			c-0.555,0-1.006,0.453-1.006,1.007c0,0.555,0.451,1.008,1.006,1.008h1.603c-0.552,1.708-0.191,3.43,0.979,4.636
			c0.815,0.842,1.979,1.287,3.364,1.287c1.173,0,2.463-0.313,3.633-0.884c0.481-0.234,0.572-0.672,0.496-1.002
			c-0.096-0.416-0.49-0.855-1.033-0.855c-0.154,0-0.311,0.036-0.462,0.11c-0.789,0.384-1.757,0.614-2.59,0.614
			c-1.257,0-2.135-0.524-2.473-1.474c-0.305-0.861-0.225-1.658,0.245-2.433h6.957c0.556,0,1.007-0.453,1.007-1.007
			c0-0.269-0.105-0.521-0.295-0.712C47.967,42.373,47.714,42.267,47.443,42.267z"/>
	</g>
</g>
</svg>
