<?xml version="1.0" encoding="utf-8"?>
<!-- Generator: Adobe Illustrator 16.0.0, SVG Export Plug-In . SVG Version: 6.00 Build 0)  -->
<!DOCTYPE svg PUBLIC "-//W3C//DTD SVG 1.1//EN" "http://www.w3.org/Graphics/SVG/1.1/DTD/svg11.dtd">
<svg version="1.1" id="Слой_1" xmlns="http://www.w3.org/2000/svg" xmlns:xlink="http://www.w3.org/1999/xlink" x="0px" y="0px"
	 width="114px" height="113.999px" viewBox="0 0 114 113.999" enable-background="new 0 0 114 113.999" xml:space="preserve">
<g>
	<circle fill="#FFF0F2" cx="57" cy="56.999" r="56.154"/>
	<path fill="#DC494B" d="M57,113.999c-31.43,0-57-25.569-57-57C0,25.57,25.57,0,57,0s57,25.57,57,56.999
		C114,88.429,88.43,113.999,57,113.999z M57,1.69c-30.498,0-55.31,24.812-55.31,55.309c0,30.498,24.812,55.31,55.31,55.31
		s55.31-24.813,55.31-55.31C112.31,26.502,87.498,1.69,57,1.69z"/>
	<g>
		<g>
			<path fill="#FF474A" d="M19.151,41.946c0.571-0.497,1.261-0.562,1.939-0.287c1.334,0.553,2.091,1.802,1.457,3.371l-1.456,3.596
				l-7.674-3.106l1.326-3.278c0.537-1.326,1.998-1.973,3.324-1.436C18.529,40.992,18.994,41.449,19.151,41.946z M15.939,44.333
				l1.239,0.501l0.501-1.239c0.314-0.778-0.924-1.279-1.243-0.49L15.939,44.333z M18.812,45.496l1.305,0.528l0.635-1.568
				c0.318-0.79-0.989-1.306-1.309-0.517L18.812,45.496z"/>
		</g>
		<g>
			<path fill="#FF474A" d="M26.438,36.652l-1.939,2.626l0.549,1.009l-1.229,1.666l-0.248-0.183l-4.287-7.799l0.542-0.733
				l8.722,1.793l0.248,0.183l-1.23,1.666L26.438,36.652z M22.254,35.606l1.196,2.045l1.125-1.523L22.254,35.606z"/>
		</g>
		<g>
			<path fill="#FF474A" d="M24.502,27.708l1.719-1.317l3.852,5.023l1.586-1.216l-3.851-5.023l1.719-1.317l3.851,5.024l1.587-1.217
				l-3.852-5.023l1.719-1.317l5.039,6.573l-8.329,6.383L24.502,27.708z"/>
		</g>
		<g>
			<path fill="#FF474A" d="M43.944,24.257l-3.023,1.239l-0.054,1.147l-1.916,0.786l-0.117-0.285l0.384-8.894l0.843-0.345
				l6.526,6.061l0.117,0.285l-1.916,0.785L43.944,24.257z M40.909,21.19l-0.039,2.37l1.752-0.718L40.909,21.19z"/>
		</g>
		<g>
			<path fill="#FF474A" d="M50.698,17.162c-0.2-1.515,0.978-2.328,2.415-2.451c1.804-0.153,2.813,0.959,2.916,2.162
				c0.046,0.542-0.137,1.187-0.588,1.594c0.875,0.376,1.284,1.006,1.363,1.938c0.126,1.461-0.838,2.684-2.961,2.865
				c-1.792,0.153-2.973-0.745-3.131-2.595l1.851-0.158c0.057,0.648,0.516,1.024,1.128,0.972c1.415-0.12,1.255-1.995-0.159-1.875
				l-0.578,0.049l-0.146-1.721l0.554-0.047c1.037-0.089,0.892-1.524-0.1-1.44c-0.459,0.039-0.715,0.239-0.688,0.546L50.698,17.162z"
				/>
		</g>
		<g>
			<path fill="#FF474A" d="M65.583,23.855c-0.715-0.105-1.43-0.209-2.145-0.314l0.482-3.291l-2.529-0.371l-0.482,3.291
				c-0.714-0.104-1.44-0.21-2.143-0.314l1.2-8.198c0.703,0.103,1.43,0.209,2.144,0.313l-0.436,2.975l2.53,0.371l0.436-2.975
				c0.714,0.105,1.428,0.209,2.143,0.314L65.583,23.855z"/>
		</g>
		<g>
			<path fill="#FF474A" d="M68.461,24.745l-0.701-0.285l3.128-7.686c0.669,0.271,1.338,0.544,2.006,0.816l-1.53,3.76l5.426-2.213
				l0.712,0.29l-3.138,7.708c-0.669-0.272-1.348-0.549-2.027-0.826l1.535-3.771L68.461,24.745z"/>
		</g>
		<g>
			<path fill="#FF474A" d="M81.184,27.795c-0.104-0.078-0.211-0.19-0.32-0.303l-3.38,1.457l-1.864-1.417l0.2-0.264l3.975-1.554
				c-0.671-1.833,0.32-3.04,1.345-4.387l1.723,1.31c-0.902,1.187-1.91,2.336-0.468,3.566l1.89-2.486l1.714,1.303l-1.89,2.486
				c1.57,1.06,2.409-0.219,3.312-1.405l1.723,1.31c-1.024,1.346-1.921,2.625-3.867,2.468l-0.435,4.245l-0.201,0.264l-1.863-1.417
				l0.498-3.647c-0.136-0.073-0.272-0.148-0.376-0.227l-1.912,2.515l-1.714-1.304L81.184,27.795z"/>
		</g>
		<g>
			<path fill="#FF474A" d="M85.364,35.542l6.563-5.047c0.433,0.563,0.865,1.125,1.313,1.707l-2.484,1.91l0.094,0.123
				c1.29,1.678,2.481,0.628,3.71-0.317c0.44,0.572,0.88,1.145,1.327,1.727c-1.341,1.031-2.551,2.02-4.387,1.357l-1.519,4.003
				l-0.263,0.202l-1.435-1.866l1.432-3.397c-0.211-0.197-0.37-0.403-0.536-0.619l-2.503,1.925
				C86.229,36.667,85.797,36.105,85.364,35.542z"/>
		</g>
		<g>
			<path fill="#FF474A" d="M93.314,46.847l-1.234-3.022l-1.147-0.055l-0.782-1.917l0.283-0.116l8.89,0.393l0.345,0.843l-6.064,6.517
				l-0.285,0.116l-0.783-1.916L93.314,46.847z M96.383,43.817l-2.368-0.042l0.717,1.752L96.383,43.817z"/>
		</g>
	</g>
	<g>
		<g>
			<path fill="#FF474A" d="M70.058,91.182c-1.379,0.527-2.053,2.055-1.525,3.432c0.409,1.053,1.407,1.699,2.491,1.699
				c0.324,0,0.646-0.058,0.939-0.177c1.376-0.526,2.051-2.052,1.523-3.427C72.958,91.36,71.434,90.655,70.058,91.182z"/>
		</g>
		<g>
			<path fill="#FF474A" d="M77.852,87.051c-1.2,0.85-1.494,2.491-0.673,3.693c0.528,0.732,1.349,1.143,2.198,1.143
				c0.528,0,1.056-0.146,1.523-0.469c1.203-0.851,1.495-2.492,0.675-3.693C80.725,86.526,79.056,86.231,77.852,87.051z"/>
		</g>
		<g>
			<path fill="#FF474A" d="M44.119,91.241c-1.38-0.527-2.902,0.178-3.433,1.556c-0.524,1.376,0.179,2.901,1.556,3.428
				c0.292,0.117,0.616,0.177,0.937,0.177c1.087,0,2.082-0.646,2.492-1.729C46.17,93.293,45.494,91.742,44.119,91.241z"/>
		</g>
		<g>
			<path fill="#FF474A" d="M61.499,93.293c-1.468,0.175-2.491,1.494-2.316,2.962c0.177,1.347,1.321,2.345,2.639,2.345
				c0.118,0,0.204,0,0.321-0.03c1.465-0.175,2.491-1.495,2.316-2.96C64.282,94.172,62.963,93.117,61.499,93.293z"/>
		</g>
		<g>
			<path fill="#FF474A" d="M52.676,93.322L52.676,93.322c-1.466-0.174-2.784,0.882-2.96,2.345c-0.176,1.469,0.879,2.788,2.316,2.934
				c0.117,0,0.205,0.027,0.321,0.027c1.319,0,2.461-0.997,2.638-2.346C55.197,94.819,54.141,93.5,52.676,93.322z"/>
		</g>
		<g>
			<path fill="#FF474A" d="M96.26,54.284c-1.466,0-2.668,1.2-2.668,2.665c0,1.468,1.202,2.67,2.668,2.638
				c1.464,0,2.665-1.199,2.639-2.666C98.925,55.455,97.724,54.284,96.26,54.284z"/>
		</g>
		<g>
			<path fill="#FF474A" d="M95.762,63.749c-1.438-0.35-2.873,0.529-3.225,1.934c-0.352,1.438,0.527,2.875,1.936,3.225
				c0.204,0.061,0.411,0.09,0.644,0.09c1.201,0,2.285-0.819,2.58-2.021C98.075,65.509,97.196,64.102,95.762,63.749z"/>
		</g>
		<g>
			<path fill="#FF474A" d="M84.447,81.19c-0.967,1.083-0.88,2.782,0.234,3.751c0.498,0.438,1.145,0.673,1.759,0.673
				c0.734,0,1.466-0.293,1.992-0.908c0.968-1.113,0.88-2.784-0.232-3.75C87.084,79.989,85.415,80.106,84.447,81.19z"/>
		</g>
		<g>
			<path fill="#FF474A" d="M93.035,72.808c-1.288-0.677-2.901-0.177-3.577,1.112c-0.672,1.29-0.175,2.901,1.115,3.576
				c0.381,0.205,0.82,0.291,1.231,0.291c0.967,0,1.874-0.525,2.345-1.435C94.822,75.093,94.323,73.511,93.035,72.808z"/>
		</g>
		<g>
			<path fill="#FF474A" d="M21.053,72.954c-1.291,0.705-1.787,2.285-1.114,3.605c0.468,0.906,1.406,1.406,2.345,1.406
				c0.408,0,0.849-0.089,1.23-0.292c1.291-0.677,1.787-2.286,1.113-3.579C23.952,72.777,22.371,72.278,21.053,72.954z"/>
		</g>
		<g>
			<path fill="#FF474A" d="M21.491,65.83c-0.353-1.435-1.788-2.285-3.224-1.934c-1.438,0.352-2.286,1.786-1.935,3.225
				c0.292,1.2,1.379,2.024,2.579,2.024c0.206,0,0.438-0.031,0.646-0.092C20.993,68.704,21.87,67.266,21.491,65.83z"/>
		</g>
		<g>
			<path fill="#FF474A" d="M17.769,59.764c1.466,0,2.638-1.202,2.638-2.667c0-0.031,0-0.031,0-0.059c0-0.03,0-0.03,0-0.058
				c0-1.466-1.202-2.669-2.666-2.669c-1.466,0-2.639,1.204-2.639,2.669c0,0.028,0,0.028,0,0.058c0,0.028,0,0.028,0,0.059
				C15.131,58.562,16.303,59.764,17.769,59.764L17.769,59.764z"/>
		</g>
		<g>
			<path fill="#FF474A" d="M25.947,81.101c-1.085,0.966-1.204,2.668-0.207,3.753c0.528,0.586,1.262,0.878,1.994,0.878
				c0.644,0,1.26-0.204,1.758-0.674c1.084-0.966,1.201-2.668,0.206-3.753C28.702,80.223,27.03,80.133,25.947,81.101z"/>
		</g>
		<g>
			<path fill="#FF474A" d="M36.292,87.139c-1.201-0.822-2.873-0.527-3.693,0.675c-0.819,1.2-0.526,2.871,0.675,3.691
				c0.468,0.322,0.998,0.469,1.494,0.469c0.851,0,1.67-0.409,2.199-1.142C37.816,89.631,37.523,87.987,36.292,87.139z"/>
		</g>
	</g>
	<g>
		<g>
			<path fill="#FF474A" d="M47.043,40.094V73.25h-4.354V49.226h-8.337v-2.997c2.685,0,4.815-0.437,6.394-1.312
				c1.576-0.874,2.63-2.482,3.16-4.824H47.043z"/>
		</g>
		<g>
			<g>
				<path fill="#FF474A" d="M62.121,54.893c1.908,0,3.495,0.57,4.767,1.708c1.339-0.748,2.837-1.245,4.429-1.434
					c-0.195-0.247-0.402-0.489-0.625-0.72c-1.935-2.013-4.464-3.02-7.585-3.02c-2.842,0-5.075,0.875-6.697,2.622l1.968-9.88h13.439
					v-3.512H55.426l-3.092,17.233l3.419,0.234C57.251,55.969,59.374,54.893,62.121,54.893z"/>
			</g>
			<g>
				<path fill="#FF474A" d="M61.194,70.469c-1.418-0.172-2.641-0.723-3.661-1.668c-1.249-1.155-1.951-2.654-2.107-4.496h-4.027
					c0.094,2.904,1.115,5.229,3.066,6.978s4.503,2.623,7.656,2.623c0.229,0,0.448-0.019,0.672-0.028
					C62.09,72.846,61.55,71.697,61.194,70.469z"/>
			</g>
		</g>
		<g>
			<g>
				<path fill="#FF474A" d="M71.761,63.542c0,1.025-0.326,2.051-0.89,2.854c-0.599,0.834-1.419,1.229-2.547,1.229
					c-1.552,0-2.475-0.938-2.475-2.51c0-2.338,1.399-4.098,3.247-4.098C70.768,61.016,71.761,61.956,71.761,63.542z M69.097,73.482
					h-1.609l8.814-12.739h1.587L69.097,73.482z M69.127,62.247c-0.374,0-0.714,0.183-0.92,0.509
					c-0.344,0.515-0.669,1.812-0.669,2.632c0,0.631,0.36,1.023,0.925,1.023c0.407,0,0.785-0.255,1.007-0.683
					c0.307-0.581,0.58-1.743,0.58-2.426C70.05,62.636,69.708,62.247,69.127,62.247z M79.648,69.194c0,1.027-0.325,2.05-0.89,2.854
					c-0.599,0.837-1.415,1.228-2.543,1.228c-1.556,0-2.479-0.938-2.479-2.511c0-2.338,1.4-4.098,3.247-4.098
					C78.655,66.667,79.648,67.607,79.648,69.194z M77.018,67.898c-0.377,0-0.716,0.185-0.922,0.513
					c-0.341,0.51-0.667,1.811-0.667,2.629c0,0.633,0.36,1.023,0.923,1.023c0.412,0,0.784-0.256,1.009-0.684
					c0.304-0.581,0.58-1.74,0.58-2.422C77.94,68.29,77.599,67.898,77.018,67.898z"/>
			</g>
		</g>
	</g>
</g>
</svg>
