<?xml version="1.0" encoding="utf-8"?>
<!-- Generator: Adobe Illustrator 16.0.0, SVG Export Plug-In . SVG Version: 6.00 Build 0)  -->
<!DOCTYPE svg PUBLIC "-//W3C//DTD SVG 1.1//EN" "http://www.w3.org/Graphics/SVG/1.1/DTD/svg11.dtd">
<svg version="1.1" id="Слой_1" xmlns="http://www.w3.org/2000/svg" xmlns:xlink="http://www.w3.org/1999/xlink" x="0px" y="0px"
	 width="15px" height="15px" viewBox="0 0 15 15" enable-background="new 0 0 15 15" xml:space="preserve">
<g>
	<path fill="#DCDFEB" d="M15,13.958C15,14.534,14.534,15,13.959,15H1.043C0.467,15,0,14.534,0,13.958V1.042C0,0.466,0.467,0,1.043,0
		h12.916C14.534,0,15,0.466,15,1.042V13.958z"/>
	<g>
		<path fill="#3056B3" d="M7.563,3.093c0.389,0,0.768,0.055,1.135,0.162c0.369,0.108,0.695,0.267,0.98,0.478
			c0.286,0.212,0.516,0.473,0.689,0.782c0.175,0.311,0.261,0.67,0.261,1.074c0,0.332-0.051,0.618-0.155,0.862
			c-0.104,0.246-0.235,0.464-0.397,0.659C9.914,7.304,9.738,7.481,9.548,7.643c-0.19,0.161-0.37,0.314-0.54,0.459
			S8.689,8.398,8.562,8.556c-0.129,0.157-0.205,0.327-0.23,0.509C8.314,9.156,8.277,9.235,8.22,9.299
			c-0.059,0.066-0.133,0.1-0.224,0.1H7.053c-0.091,0-0.172-0.033-0.242-0.1C6.741,9.235,6.71,9.156,6.718,9.064
			c0.017-0.323,0.084-0.606,0.205-0.85c0.119-0.244,0.265-0.463,0.434-0.659c0.17-0.194,0.352-0.37,0.547-0.527
			c0.194-0.156,0.374-0.308,0.54-0.453c0.165-0.144,0.303-0.29,0.41-0.434C8.96,5.996,9.015,5.837,9.015,5.663
			c0-0.313-0.133-0.573-0.397-0.775C8.353,4.684,8.001,4.583,7.563,4.583c-0.704,0-1.222,0.353-1.552,1.056
			C5.969,5.729,5.926,5.798,5.88,5.843S5.758,5.911,5.65,5.911H4.645c-0.074,0-0.139-0.024-0.192-0.074
			C4.398,5.787,4.371,5.72,4.371,5.639C4.38,5.349,4.469,5.052,4.639,4.75c0.169-0.301,0.397-0.574,0.683-0.82
			c0.285-0.244,0.621-0.444,1.005-0.602C6.711,3.171,7.123,3.093,7.563,3.093z M8.059,10.143c0.091,0,0.17,0.033,0.235,0.101
			c0.066,0.066,0.1,0.146,0.1,0.236v1.093c0,0.091-0.033,0.17-0.1,0.234c-0.065,0.066-0.145,0.1-0.235,0.1H6.991
			c-0.091,0-0.17-0.033-0.236-0.1c-0.066-0.064-0.099-0.144-0.099-0.234V10.48c0-0.091,0.032-0.17,0.099-0.236
			c0.066-0.067,0.146-0.101,0.236-0.101H8.059z"/>
	</g>
</g>
</svg>
