<?xml version="1.0" encoding="utf-8"?>
<!-- Generator: Adobe Illustrator 16.0.0, SVG Export Plug-In . SVG Version: 6.00 Build 0)  -->
<!DOCTYPE svg PUBLIC "-//W3C//DTD SVG 1.1//EN" "http://www.w3.org/Graphics/SVG/1.1/DTD/svg11.dtd">
<svg version="1.1" id="Шар_1" xmlns="http://www.w3.org/2000/svg" xmlns:xlink="http://www.w3.org/1999/xlink" x="0px" y="0px"
	 width="14px" height="16.609px" viewBox="0 0 14 16.609" style="enable-background:new 0 0 14 16.609;" xml:space="preserve">
<g>
	<path style="fill:#FFFFFF;" d="M9.928,4.25c0.408,0,0.74-0.333,0.74-0.741V0.741C10.668,0.332,10.336,0,9.928,0H0.741
		C0.332,0,0,0.332,0,0.741v15.128c0,0.408,0.332,0.74,0.741,0.74h9.187c0.408,0,0.74-0.332,0.74-0.74V13.1
		c0-0.408-0.332-0.74-0.74-0.74s-0.74,0.332-0.74,0.74v2.028H1.481V1.481h7.706v2.028C9.188,3.917,9.52,4.25,9.928,4.25z"/>
	<path style="fill:#FFFFFF;" d="M13.783,7.781L11.282,5.28c-0.268-0.268-0.777-0.268-1.045-0.002
		C9.948,5.563,9.945,6.033,10.23,6.323l1.22,1.241H5.372c-0.409,0-0.741,0.333-0.741,0.741s0.332,0.74,0.741,0.74h6.1l-1.237,1.237
		c-0.288,0.288-0.288,0.759,0,1.048c0.141,0.14,0.326,0.216,0.523,0.216c0.198,0,0.384-0.076,0.524-0.217l2.501-2.501
		C13.921,8.69,14,8.5,14,8.305S13.921,7.919,13.783,7.781z"/>
</g>
</svg>
