<?xml version="1.0" encoding="utf-8"?>
<!-- Generator: Adobe Illustrator 16.0.0, SVG Export Plug-In . SVG Version: 6.00 Build 0)  -->
<!DOCTYPE svg PUBLIC "-//W3C//DTD SVG 1.1//EN" "http://www.w3.org/Graphics/SVG/1.1/DTD/svg11.dtd">
<svg version="1.1" id="Шар_1" xmlns="http://www.w3.org/2000/svg" xmlns:xlink="http://www.w3.org/1999/xlink" x="0px" y="0px"
	 width="40px" height="40.902px" viewBox="0 0 40 40.902" enable-background="new 0 0 40 40.902" xml:space="preserve">
<g>
	<g>
		<path fill="#D8EEFC" d="M3.14,15.972h33.721c1.041,0,1.889,0.847,1.889,1.888v2.015H1.25v-2.015
			C1.25,16.818,2.098,15.972,3.14,15.972z"/>
		<polygon fill="#D8EEFC" points="38.75,21.124 38.75,25.344 1.25,25.344 1.25,21.124 38.75,21.124 		"/>
		<path fill="#D8EEFC" d="M36.861,39.652H3.14c-1.042,0-1.891-0.847-1.891-1.889v-11.17h37.5v11.17
			C38.75,38.806,37.903,39.652,36.861,39.652z"/>
	</g>
	<g>
		<polygon fill="#003764" points="24.989,8.35 24.105,7.466 21.218,10.353 21.218,0 19.968,0 19.968,10.353 17.081,7.466 
			16.198,8.35 20.593,12.745 		"/>
		<rect x="5" y="30.486" fill="#003764" width="17.885" height="1.25"/>
		<rect x="5" y="34.094" fill="#003764" width="6.769" height="1.25"/>
		<path fill="#003764" d="M36.861,14.722H3.14c-1.732,0-3.14,1.407-3.14,3.138v19.904c0,1.732,1.408,3.139,3.14,3.139h33.721
			c1.73,0,3.139-1.406,3.139-3.139V17.859C40,16.129,38.592,14.722,36.861,14.722z M3.14,15.972h33.721
			c1.041,0,1.889,0.847,1.889,1.888v2.015H1.25v-2.015C1.25,16.818,2.097,15.972,3.14,15.972z M38.75,21.124v4.22H1.25v-4.22H38.75
			L38.75,21.124z M36.861,39.652H3.14c-1.043,0-1.891-0.847-1.891-1.889v-11.17h37.5v11.17
			C38.75,38.806,37.902,39.652,36.861,39.652z"/>
	</g>
</g>
</svg>
