<?xml version="1.0" encoding="utf-8"?>
<!-- Generator: Adobe Illustrator 16.0.0, SVG Export Plug-In . SVG Version: 6.00 Build 0)  -->
<!DOCTYPE svg PUBLIC "-//W3C//DTD SVG 1.1//EN" "http://www.w3.org/Graphics/SVG/1.1/DTD/svg11.dtd">
<svg version="1.1" id="Шар_1" xmlns="http://www.w3.org/2000/svg" xmlns:xlink="http://www.w3.org/1999/xlink" x="0px" y="0px"
	 width="86px" height="77.096px" viewBox="0 0 86 77.096" style="enable-background:new 0 0 86 77.096;" xml:space="preserve">
<g>
	<path style="fill:#00b181;" d="M54.836,28.538l-0.14,0.277c-0.426,0.841-0.864,1.684-1.313,2.522l-0.396,0.742h29.461v24.131
		H34.854L21.902,36.153H3.542V32.08h33.5l-0.396-0.742c-0.449-0.839-0.889-1.682-1.314-2.522l-0.14-0.277H0v48.558h86V28.538H54.836
		z M3.542,73.555v-9.989l17.671-4.252l5.735-8.768l5.948,9.206h49.538v13.803H3.542z M3.542,59.908V39.704h16.414l3.877,6.008
		l-5.803,10.946L3.542,59.908z"/>
	<g>
		<path style="fill:#00b181;" d="M45.014,25.696c5.185,0,9.564-4.396,9.564-9.603c0-5.295-4.291-9.604-9.564-9.604
			s-9.563,4.309-9.563,9.604S39.741,25.696,45.014,25.696z M45.014,10.413c3.243,0,5.882,2.556,5.882,5.699
			c0,3.266-2.639,5.922-5.882,5.922c-3.299,0-5.882-2.505-5.882-5.702C39.132,13.068,41.771,10.413,45.014,10.413z"/>
		<path style="fill:#00b181;" d="M45.014,0c-8.498,0-15.413,6.949-15.413,15.492c0,7.498,11.475,25.779,14.99,31.205l0.423,0.651
			l0.424-0.651c3.516-5.426,14.989-23.707,14.989-31.205C60.427,6.949,53.513,0,45.014,0z M45.014,3.682
			c6.468,0,11.729,5.289,11.729,11.791c0,3.723-3.767,11.799-11.514,24.688l-0.215,0.358l-0.216-0.358
			C37.05,27.332,33.284,19.257,33.284,15.473C33.284,8.971,38.546,3.682,45.014,3.682z"/>
	</g>
</g>
</svg>
