<?xml version="1.0" encoding="utf-8"?>
<!-- Generator: Adobe Illustrator 16.0.0, SVG Export Plug-In . SVG Version: 6.00 Build 0)  -->
<!DOCTYPE svg PUBLIC "-//W3C//DTD SVG 1.1//EN" "http://www.w3.org/Graphics/SVG/1.1/DTD/svg11.dtd">
<svg version="1.1" id="Шар_1" xmlns="http://www.w3.org/2000/svg" xmlns:xlink="http://www.w3.org/1999/xlink" x="0px" y="0px"
	 width="88px" height="72.833px" viewBox="0 0 88 72.833" style="enable-background:new 0 0 88 72.833;" xml:space="preserve">
<g>
	<path style="fill:#2058A4;" d="M69.122,52.673c-0.052-0.016-0.104-0.027-0.157-0.035l-10.747-1.612
		c-1.738-1.124-1.902-3.913-1.905-6.933c3.395-3.498,5.511-8.422,5.511-13.87v-0.441c2.635-2.339,4.134-5.658,4.134-9.203v-8.267
		C65.957,5.523,60.433,0,53.644,0H35.734c-2.571,0-4.73,1.798-5.286,4.202c-4.729,0.572-8.405,4.609-8.405,9.489v6.888
		c0,3.545,1.499,6.863,4.134,9.203v0.441c0,5.448,2.116,10.372,5.511,13.87c-0.004,3.02-0.168,5.809-1.906,6.933l-10.746,1.612
		c-0.053,0.008-0.106,0.02-0.158,0.035c-2.363,0.66-4.374,2.127-5.815,4.238c-1.315,1.927-2.04,4.253-2.04,6.551v5.337
		c0,2.225,1.984,4.034,4.425,4.034h57.106c2.441,0,4.425-1.81,4.425-4.034v-5.337c0-2.298-0.725-4.624-2.039-6.551
		C73.496,54.801,71.486,53.333,69.122,52.673L69.122,52.673z M43.999,49.425c3.607,0,6.966-1.161,9.774-3.152
		c0.123,2.356,0.611,4.973,2.529,6.548c-1.037,5.279-6.188,9.176-12.304,9.176c-6.113,0-11.265-3.896-12.302-9.176
		c1.917-1.575,2.405-4.191,2.529-6.548C37.035,48.264,40.394,49.425,43.999,49.425L43.999,49.425z M28.76,29.308
		c0.007-0.078,0.007-0.157,0-0.235v-7.116c0-2.327,1.893-4.219,4.219-4.219h23.421c0.713,0,1.291-0.578,1.291-1.292
		c0-0.713-0.578-1.292-1.291-1.292H32.979c-3.751,0-6.802,3.052-6.802,6.803v3.893c-1.003-1.551-1.552-3.368-1.552-5.271V13.69
		c0-3.845,3.13-6.974,6.976-6.974c0.713,0,1.292-0.579,1.292-1.292c0-1.566,1.274-2.841,2.842-2.841h17.909
		c5.365,0,9.729,4.365,9.729,9.729v8.266c0,1.902-0.547,3.72-1.55,5.271v-5.271c0-0.713-0.578-1.292-1.291-1.292
		s-1.292,0.578-1.292,1.292v9.644c0,9.163-6.837,16.618-15.241,16.618c-8.403,0-15.239-7.455-15.239-16.618V29.308z M74.396,68.799
		c0,0.786-0.844,1.45-1.842,1.45H15.446c-0.999,0-1.842-0.664-1.842-1.45v-5.337c0-3.274,2.024-7.154,5.896-8.281l9.745-1.463
		c1.445,6.276,7.552,10.861,14.754,10.861c7.204,0,13.311-4.585,14.755-10.861l9.746,1.463c3.871,1.127,5.896,5.007,5.896,8.281
		V68.799z M74.396,68.799"/>
	<path style="fill:#2999D5;" d="M8.18,57.862H3.318c-0.42,0-0.735-0.255-0.735-0.483v-3.454c0-1.938,1.188-4.232,3.457-4.91
		l7.032-1.055c0.029-0.004,0.059-0.012,0.089-0.018c0.013-0.004,0.025-0.004,0.039-0.008c0.048-0.013,0.094-0.027,0.141-0.045
		c0.01-0.004,0.021-0.01,0.032-0.015c0.037-0.015,0.074-0.032,0.109-0.052c0.006-0.002,0.013-0.004,0.019-0.008
		c0.011-0.006,0.021-0.013,0.033-0.02c0.01-0.006,0.02-0.011,0.028-0.018c1.564-0.893,2.106-2.509,2.293-4.088
		c1.715,1.018,3.683,1.598,5.776,1.598c1.757,0,3.45-0.399,5.034-1.186c0.638-0.318,0.899-1.094,0.581-1.732
		c-0.317-0.639-1.094-0.898-1.731-0.582c-1.223,0.609-2.529,0.917-3.884,0.917c-5.187,0-9.405-4.619-9.405-10.295V26.9
		c0-1.255,1.021-2.275,2.274-2.275h3.323c0.713,0,1.291-0.578,1.291-1.292c0-0.713-0.578-1.292-1.291-1.292h-3.323
		c-2.679,0-4.857,2.18-4.857,4.858v0.677c-0.112-0.455-0.172-0.927-0.172-1.408v-4.457c0-2.236,1.819-4.056,4.057-4.056
		c0.714,0,1.291-0.579,1.291-1.292c0-0.763,0.621-1.382,1.383-1.382h1.622c0.713,0,1.291-0.579,1.291-1.292
		c0-0.714-0.578-1.292-1.291-1.292h-1.622c-1.769,0-3.271,1.164-3.779,2.766c-3.138,0.528-5.534,3.263-5.534,6.547v4.457
		c0,2.393,0.998,4.633,2.755,6.229v0.011c0,3.662,1.433,6.97,3.726,9.317c-0.014,1.644-0.14,3.115-0.952,3.72l-6.845,1.027
		c-0.053,0.008-0.105,0.02-0.156,0.033C1.86,47.503,0,50.993,0,53.925v3.454c0,1.69,1.488,3.067,3.318,3.067H8.18
		c0.713,0,1.292-0.579,1.292-1.293C9.472,58.44,8.893,57.862,8.18,57.862L8.18,57.862z M8.18,57.862"/>
	<path style="fill:#2999D5;" d="M82.584,46.507c-0.051-0.014-0.104-0.025-0.157-0.033l-6.844-1.027
		c-0.813-0.604-0.938-2.076-0.952-3.72c2.293-2.347,3.726-5.655,3.726-9.317v-0.011c1.756-1.596,2.755-3.837,2.755-6.23v-6.967
		c0-3.751-3.051-6.802-6.802-6.802h-4.134c-0.713,0-1.292,0.579-1.292,1.292c0,0.714,0.579,1.292,1.292,1.292h4.134
		c2.326,0,4.219,1.893,4.219,4.219v6.969c0,0.481-0.061,0.952-0.172,1.407v-0.678c0-2.678-2.179-4.856-4.857-4.856h-3.323
		c-0.713,0-1.292,0.579-1.292,1.292c0,0.714,0.579,1.292,1.292,1.292h3.323c1.254,0,2.274,1.02,2.274,2.273v5.51
		c0,5.678-4.22,10.296-9.405,10.296c-1.354,0-2.66-0.308-3.882-0.917c-0.64-0.317-1.415-0.057-1.733,0.582s-0.057,1.414,0.581,1.732
		c1.584,0.786,3.277,1.186,5.034,1.186c2.094,0,4.062-0.58,5.776-1.598c0.187,1.579,0.729,3.195,2.293,4.088
		c0.009,0.007,0.019,0.012,0.028,0.018c0.011,0.007,0.022,0.014,0.034,0.02c0.005,0.004,0.012,0.006,0.018,0.008
		c0.035,0.02,0.071,0.037,0.109,0.052c0.011,0.005,0.021,0.011,0.032,0.015c0.047,0.016,0.093,0.032,0.141,0.044
		c0.014,0.003,0.026,0.005,0.039,0.009c0.03,0.006,0.06,0.014,0.09,0.018l7.03,1.055c2.271,0.676,3.458,2.973,3.458,4.91v3.454
		c0,0.229-0.315,0.483-0.735,0.483H79.82c-0.713,0-1.292,0.578-1.292,1.291c0,0.714,0.579,1.293,1.292,1.293h4.861
		c1.829,0,3.318-1.377,3.318-3.067v-3.454C88,50.993,86.14,47.503,82.584,46.507L82.584,46.507z M82.584,46.507"/>
</g>
</svg>
