<?xml version="1.0" encoding="utf-8"?>
<!-- Generator: Adobe Illustrator 16.0.0, SVG Export Plug-In . SVG Version: 6.00 Build 0)  -->
<!DOCTYPE svg PUBLIC "-//W3C//DTD SVG 1.1//EN" "http://www.w3.org/Graphics/SVG/1.1/DTD/svg11.dtd">
<svg version="1.1" id="Шар_1" xmlns="http://www.w3.org/2000/svg" xmlns:xlink="http://www.w3.org/1999/xlink" x="0px" y="0px"
	 width="72px" height="69.224px" viewBox="0 0 72 69.224" style="enable-background:new 0 0 72 69.224;" xml:space="preserve">
<g>
	<path style="fill:#E9580C;" d="M2.602,40.162c0-10.031,3.907-19.465,11.002-26.559C20.698,6.509,30.131,2.602,40.163,2.602
		c10.156,0,19.781,4.078,26.831,11.277h-4.623c-0.72,0-1.302,0.583-1.302,1.302c0,0.718,0.582,1.301,1.302,1.301h8.328
		c0.718,0,1.301-0.583,1.301-1.301V6.854c0-0.721-0.583-1.302-1.301-1.302c-0.719,0-1.303,0.581-1.303,1.302v5.77
		C61.815,4.573,51.287,0,40.163,0c-10.729,0-20.813,4.178-28.4,11.763C4.178,19.349,0,29.435,0,40.162
		c0,7.062,1.858,14.004,5.372,20.081c0.241,0.416,0.678,0.649,1.128,0.649c0.221,0,0.445-0.056,0.649-0.175
		c0.622-0.359,0.835-1.155,0.476-1.778C4.338,53.259,2.602,46.766,2.602,40.162L2.602,40.162z M2.602,40.162"/>
	<path style="fill:#009BDE;" d="M40.163,11.103c-16.022,0-29.058,13.036-29.06,29.059v0.005
		c0.001,16.022,13.037,29.058,29.06,29.058c16.024,0,29.061-13.037,29.061-29.062C69.224,24.14,56.188,11.103,40.163,11.103
		L40.163,11.103z M41.465,66.589v-2.831c0-0.718-0.583-1.301-1.302-1.301c-0.718,0-1.302,0.583-1.302,1.301v2.831
		c-13.554-0.66-24.463-11.568-25.123-25.125h2.829c0.72,0,1.302-0.582,1.302-1.302c0-0.717-0.582-1.3-1.302-1.3h-2.829
		c0.66-13.556,11.569-24.464,25.123-25.125v2.83c0,0.72,0.584,1.302,1.302,1.302c0.719,0,1.302-0.582,1.302-1.302v-2.83
		c13.556,0.661,24.464,11.569,25.124,25.125h-2.831c-0.719,0-1.301,0.583-1.301,1.3c0,0.72,0.582,1.302,1.301,1.302h2.831
		C65.929,55.021,55.021,65.929,41.465,66.589L41.465,66.589z M41.465,66.589"/>
	<path style="fill:#0055B8;" d="M56.818,38.862H45.471c-0.134-0.547-0.349-1.063-0.635-1.531l12.209-12.209
		c0.508-0.509,0.508-1.332,0-1.84s-1.332-0.508-1.84,0L42.996,35.491c-0.827-0.503-1.797-0.793-2.833-0.793
		c-2.565,0-4.722,1.776-5.307,4.164h-3.02c-0.718,0-1.301,0.583-1.301,1.3c0,0.72,0.583,1.302,1.301,1.302h3.02
		c0.134,0.548,0.35,1.063,0.635,1.531l-3.188,3.188c-0.509,0.508-0.509,1.331,0,1.839c0.254,0.254,0.587,0.382,0.92,0.382
		c0.333,0,0.666-0.128,0.92-0.382l3.188-3.187c0.827,0.502,1.796,0.792,2.832,0.792c2.565,0,4.722-1.776,5.308-4.164h11.348
		c0.719,0,1.302-0.582,1.302-1.302C58.12,39.445,57.537,38.862,56.818,38.862L56.818,38.862z M40.163,43.025
		c-1.578,0-2.862-1.284-2.862-2.863c0-1.577,1.284-2.861,2.862-2.861s2.862,1.284,2.862,2.861
		C43.025,41.741,41.741,43.025,40.163,43.025L40.163,43.025z M40.163,43.025"/>
</g>
</svg>
