<?xml version="1.0" encoding="utf-8"?>
<!-- Generator: Adobe Illustrator 16.0.0, SVG Export Plug-In . SVG Version: 6.00 Build 0)  -->
<!DOCTYPE svg PUBLIC "-//W3C//DTD SVG 1.1//EN" "http://www.w3.org/Graphics/SVG/1.1/DTD/svg11.dtd">
<svg version="1.1" id="Шар_1" xmlns="http://www.w3.org/2000/svg" xmlns:xlink="http://www.w3.org/1999/xlink" x="0px" y="0px"
	 width="92.25px" height="98.15px" viewBox="0 0 92.25 98.15" style="enable-background:new 0 0 92.25 98.15;" xml:space="preserve"
	>
<g>
	<g>
		<path style="fill:#009BDE;stroke:#009BDE;stroke-width:0.5;stroke-miterlimit:10;" d="M53.661,78.217
			c-0.792,0-1.433,0.643-1.433,1.433v3.154H3.116V15.347h49.112v3.152c0,0.792,0.641,1.434,1.433,1.434
			c0.791,0,1.433-0.642,1.433-1.434v-10.7c0-4.162-3.386-7.549-7.548-7.549H7.799c-4.163,0-7.549,3.387-7.549,7.549v82.553
			c0,4.162,3.386,7.549,7.549,7.549h39.747c4.162,0,7.548-3.387,7.548-7.549V79.649C55.094,78.859,54.452,78.217,53.661,78.217
			L53.661,78.217z M7.799,3.117h39.747c2.582,0,4.683,2.1,4.683,4.682v4.682H3.116V7.799C3.116,5.217,5.217,3.117,7.799,3.117
			L7.799,3.117z M47.546,95.033H7.799c-2.582,0-4.683-2.1-4.683-4.682V85.67h49.112v4.682
			C52.229,92.934,50.128,95.033,47.546,95.033L47.546,95.033z M47.546,95.033"/>
		<path style="fill:#009BDE;stroke:#009BDE;stroke-width:0.5;stroke-miterlimit:10;" d="M24.614,9.231h6.115
			c0.792,0,1.434-0.642,1.434-1.433c0-0.792-0.642-1.434-1.434-1.434h-6.115c-0.791,0-1.434,0.642-1.434,1.434
			C23.181,8.59,23.823,9.231,24.614,9.231L24.614,9.231z M24.614,9.231"/>
		<path style="fill:#009BDE;stroke:#009BDE;stroke-width:0.5;stroke-miterlimit:10;" d="M20.028,9.231
			c0.376,0,0.747-0.152,1.012-0.42c0.269-0.267,0.422-0.637,0.422-1.013c0-0.377-0.153-0.747-0.422-1.014
			c-0.265-0.268-0.634-0.42-1.012-0.42c-0.377,0-0.748,0.152-1.013,0.42c-0.268,0.267-0.421,0.637-0.421,1.014
			c0,0.376,0.153,0.746,0.421,1.013C19.28,9.079,19.651,9.231,20.028,9.231L20.028,9.231z M20.028,9.231"/>
		<path style="fill:#009BDE;stroke:#009BDE;stroke-width:0.5;stroke-miterlimit:10;" d="M27.672,93.122
			c-1.528,0-2.771-1.242-2.771-2.771c0-1.527,1.243-2.771,2.771-2.771c1.527,0,2.77,1.243,2.77,2.771
			C30.441,91.88,29.199,93.122,27.672,93.122L27.672,93.122z M27.672,93.122"/>
	</g>
	<g>
		<path style="fill:#0055B8;" d="M86.18,23.317H19.798c-3.348,0-6.07,2.723-6.07,6.07v39.336c0,3.348,2.723,6.07,6.07,6.07H86.18
			c3.347,0,6.07-2.723,6.07-6.07V29.388C92.25,26.04,89.526,23.317,86.18,23.317L86.18,23.317z M89.944,68.724
			c0,2.076-1.688,3.766-3.765,3.766H19.798c-2.076,0-3.766-1.689-3.766-3.766V29.388c0-2.077,1.689-3.766,3.766-3.766H86.18
			c2.076,0,3.765,1.688,3.765,3.766V68.724z M89.944,68.724"/>
		<path style="fill:#0055B8;" d="M50.53,63.884H23.485c-0.637,0-1.153,0.516-1.153,1.152s0.517,1.153,1.153,1.153H50.53
			c0.636,0,1.152-0.517,1.152-1.153S51.166,63.884,50.53,63.884L50.53,63.884z M50.53,63.884"/>
		<path style="fill:#0055B8;" d="M66.511,63.884H55.447c-0.637,0-1.152,0.516-1.152,1.152s0.516,1.153,1.152,1.153h11.063
			c0.636,0,1.153-0.517,1.153-1.153S67.146,63.884,66.511,63.884L66.511,63.884z M66.511,63.884"/>
		<path style="fill:#0055B8;" d="M25.944,46.521h7.375c1.992,0,3.611-1.62,3.611-3.611v-4.918c0-1.99-1.619-3.61-3.611-3.61h-7.375
			c-1.992,0-3.612,1.62-3.612,3.61v4.918C22.332,44.9,23.952,46.521,25.944,46.521L25.944,46.521z M34.626,37.991v1.306h-1.307
			c-0.636,0-1.152,0.518-1.152,1.153c0,0.637,0.517,1.152,1.152,1.152h1.307v1.307c0,0.721-0.586,1.306-1.307,1.306h-2.535v-7.528
			h2.535C34.04,36.687,34.626,37.271,34.626,37.991L34.626,37.991z M25.944,36.687h2.534v7.528h-2.534
			c-0.721,0-1.307-0.585-1.307-1.306v-1.307h1.307c0.636,0,1.152-0.516,1.152-1.152c0-0.636-0.517-1.153-1.152-1.153h-1.307v-1.306
			C24.638,37.271,25.224,36.687,25.944,36.687L25.944,36.687z M25.944,36.687"/>
		<path style="fill:#0055B8;" d="M23.485,58.813c0.636,0,1.152-0.517,1.152-1.153v-2.458c0-0.636-0.517-1.152-1.152-1.152
			c-0.637,0-1.153,0.517-1.153,1.152v2.458C22.332,58.297,22.849,58.813,23.485,58.813L23.485,58.813z M23.485,58.813"/>
		<path style="fill:#0055B8;" d="M26.021,55.202v2.458c0,0.637,0.517,1.153,1.152,1.153s1.152-0.517,1.152-1.153v-2.458
			c0-0.636-0.517-1.152-1.152-1.152S26.021,54.566,26.021,55.202L26.021,55.202z M26.021,55.202"/>
		<path style="fill:#0055B8;" d="M29.709,55.202v2.458c0,0.637,0.516,1.153,1.152,1.153c0.636,0,1.152-0.517,1.152-1.153v-2.458
			c0-0.636-0.517-1.152-1.152-1.152C30.225,54.05,29.709,54.566,29.709,55.202L29.709,55.202z M29.709,55.202"/>
		<path style="fill:#0055B8;" d="M33.396,55.202v2.458c0,0.637,0.517,1.153,1.153,1.153s1.152-0.517,1.152-1.153v-2.458
			c0-0.636-0.516-1.152-1.152-1.152S33.396,54.566,33.396,55.202L33.396,55.202z M33.396,55.202"/>
		<path style="fill:#0055B8;" d="M39.466,58.813c0.636,0,1.152-0.517,1.152-1.153v-2.458c0-0.636-0.517-1.152-1.152-1.152
			s-1.152,0.517-1.152,1.152v2.458C38.313,58.297,38.83,58.813,39.466,58.813L39.466,58.813z M39.466,58.813"/>
		<path style="fill:#0055B8;" d="M43.154,58.813c0.636,0,1.152-0.517,1.152-1.153v-2.458c0-0.636-0.517-1.152-1.152-1.152
			c-0.637,0-1.152,0.517-1.152,1.152v2.458C42.002,58.297,42.518,58.813,43.154,58.813L43.154,58.813z M43.154,58.813"/>
		<path style="fill:#0055B8;" d="M46.842,58.813c0.637,0,1.152-0.517,1.152-1.153v-2.458c0-0.636-0.516-1.152-1.152-1.152
			s-1.153,0.517-1.153,1.152v2.458C45.688,58.297,46.205,58.813,46.842,58.813L46.842,58.813z M46.842,58.813"/>
		<path style="fill:#0055B8;" d="M50.53,54.05c-0.637,0-1.152,0.517-1.152,1.152v2.458c0,0.637,0.516,1.153,1.152,1.153
			c0.636,0,1.152-0.517,1.152-1.153v-2.458C51.683,54.566,51.166,54.05,50.53,54.05L50.53,54.05z M50.53,54.05"/>
		<path style="fill:#0055B8;" d="M55.447,58.813c0.636,0,1.152-0.517,1.152-1.153v-2.458c0-0.636-0.517-1.152-1.152-1.152
			c-0.637,0-1.152,0.517-1.152,1.152v2.458C54.295,58.297,54.811,58.813,55.447,58.813L55.447,58.813z M55.447,58.813"/>
		<path style="fill:#0055B8;" d="M59.135,58.813c0.637,0,1.152-0.517,1.152-1.153v-2.458c0-0.636-0.516-1.152-1.152-1.152
			s-1.152,0.517-1.152,1.152v2.458C57.982,58.297,58.498,58.813,59.135,58.813L59.135,58.813z M59.135,58.813"/>
		<path style="fill:#0055B8;" d="M62.823,58.813c0.637,0,1.152-0.517,1.152-1.153v-2.458c0-0.636-0.516-1.152-1.152-1.152
			s-1.152,0.517-1.152,1.152v2.458C61.671,58.297,62.187,58.813,62.823,58.813L62.823,58.813z M62.823,58.813"/>
		<path style="fill:#0055B8;" d="M66.511,54.05c-0.637,0-1.152,0.517-1.152,1.152v2.458c0,0.637,0.516,1.153,1.152,1.153
			c0.636,0,1.153-0.517,1.153-1.153v-2.458C67.664,54.566,67.146,54.05,66.511,54.05L66.511,54.05z M66.511,54.05"/>
		<path style="fill:#0055B8;" d="M71.428,54.05c-0.637,0-1.152,0.517-1.152,1.152v2.458c0,0.637,0.516,1.153,1.152,1.153
			s1.152-0.517,1.152-1.153v-2.458C72.58,54.566,72.064,54.05,71.428,54.05L71.428,54.05z M71.428,54.05"/>
		<path style="fill:#0055B8;" d="M75.116,54.05c-0.637,0-1.153,0.517-1.153,1.152v2.458c0,0.637,0.517,1.153,1.153,1.153
			s1.152-0.517,1.152-1.153v-2.458C76.269,54.566,75.753,54.05,75.116,54.05L75.116,54.05z M75.116,54.05"/>
		<path style="fill:#0055B8;" d="M78.804,54.05c-0.637,0-1.152,0.517-1.152,1.152v2.458c0,0.637,0.516,1.153,1.152,1.153
			c0.636,0,1.153-0.517,1.153-1.153v-2.458C79.957,54.566,79.439,54.05,78.804,54.05L78.804,54.05z M78.804,54.05"/>
		<path style="fill:#0055B8;" d="M82.492,54.05c-0.637,0-1.152,0.517-1.152,1.152v2.458c0,0.637,0.516,1.153,1.152,1.153
			c0.636,0,1.152-0.517,1.152-1.153v-2.458C83.645,54.566,83.128,54.05,82.492,54.05L82.492,54.05z M82.492,54.05"/>
		<path style="fill:#0055B8;" d="M77.574,34.381h-7.375c-3.348,0-6.07,2.723-6.07,6.069s2.723,6.07,6.07,6.07h7.375
			c3.347,0,6.07-2.724,6.07-6.07S80.921,34.381,77.574,34.381L77.574,34.381z M77.574,44.215h-7.375
			c-2.076,0-3.766-1.688-3.766-3.765c0-2.075,1.689-3.764,3.766-3.764h7.375c2.076,0,3.766,1.688,3.766,3.764
			C81.34,42.526,79.65,44.215,77.574,44.215L77.574,44.215z M77.574,44.215"/>
	</g>
</g>
</svg>
