<?xml version="1.0" encoding="UTF-8" standalone="no"?>
<!-- Generator: Adobe Illustrator 16.0.0, SVG Export Plug-In . SVG Version: 6.00 Build 0)  -->

<svg
   xmlns:dc="http://purl.org/dc/elements/1.1/"
   xmlns:cc="http://creativecommons.org/ns#"
   xmlns:rdf="http://www.w3.org/1999/02/22-rdf-syntax-ns#"
   xmlns:svg="http://www.w3.org/2000/svg"
   xmlns="http://www.w3.org/2000/svg"
   xmlns:sodipodi="http://sodipodi.sourceforge.net/DTD/sodipodi-0.dtd"
   xmlns:inkscape="http://www.inkscape.org/namespaces/inkscape"
   version="1.1"
   id="Шар_1"
   x="0px"
   y="0px"
   width="8px"
   height="11.206px"
   viewBox="0 0 8 11.206"
   style="enable-background:new 0 0 8 11.206;"
   xml:space="preserve"
   inkscape:version="0.91 r13725"
   sodipodi:docname="icon54-white.svg"><metadata
     id="metadata9"><rdf:RDF><cc:Work
         rdf:about=""><dc:format>image/svg+xml</dc:format><dc:type
           rdf:resource="http://purl.org/dc/dcmitype/StillImage" /><dc:title></dc:title></cc:Work></rdf:RDF></metadata><defs
     id="defs7" /><sodipodi:namedview
     pagecolor="#ffffff"
     bordercolor="#666666"
     borderopacity="1"
     objecttolerance="10"
     gridtolerance="10"
     guidetolerance="10"
     inkscape:pageopacity="0"
     inkscape:pageshadow="2"
     inkscape:window-width="640"
     inkscape:window-height="480"
     id="namedview5"
     showgrid="false"
     inkscape:zoom="21.060146"
     inkscape:cx="4"
     inkscape:cy="5.6030002"
     inkscape:window-x="0"
     inkscape:window-y="0"
     inkscape:window-maximized="0"
     inkscape:current-layer="Шар_1" /><path
     style="fill:#ffffff"
     d="M4.421,11.03l3.405-3.404c0.23-0.223,0.231-0.619,0.003-0.848c-0.232-0.232-0.609-0.232-0.841,0  L4.6,9.167V0.595C4.6,0.267,4.333,0,4.004,0c-0.331,0-0.6,0.267-0.6,0.595v8.571L1.02,6.775C0.783,6.546,0.404,6.548,0.177,6.778  C0.063,6.892,0,7.043,0,7.203c0,0.161,0.063,0.312,0.177,0.421l3.404,3.403c0.112,0.116,0.262,0.18,0.423,0.179  C4.165,11.206,4.314,11.142,4.421,11.03z"
     id="path3" /></svg>