<?xml version="1.0" encoding="utf-8"?>
<!-- Generator: Adobe Illustrator 16.0.0, SVG Export Plug-In . SVG Version: 6.00 Build 0)  -->
<!DOCTYPE svg PUBLIC "-//W3C//DTD SVG 1.1//EN" "http://www.w3.org/Graphics/SVG/1.1/DTD/svg11.dtd">
<svg version="1.1" id="Шар_1" xmlns="http://www.w3.org/2000/svg" xmlns:xlink="http://www.w3.org/1999/xlink" x="0px" y="0px"
	 width="38px" height="31.57px" viewBox="0 0 38 31.57" enable-background="new 0 0 38 31.57" xml:space="preserve">
<g>
	<path fill="#003764" d="M35.942,25.941l-0.115-0.021v-1.634c0-1.302-1.02-2.375-2.32-2.442l-0.134-0.007V9.195h1.65
		c0.443,0,0.804-0.361,0.804-0.805V4.329c0-0.375-0.266-0.705-0.631-0.785L19.173,0.019c-0.114-0.025-0.233-0.025-0.345,0
		L2.804,3.543c-0.366,0.08-0.631,0.41-0.631,0.785V8.39c0,0.443,0.361,0.805,0.804,0.805h1.65v12.643l-0.133,0.007
		c-1.301,0.067-2.321,1.141-2.321,2.442v1.634l-0.115,0.021C0.865,26.156,0,27.19,0,28.4v2.365c0,0.444,0.361,0.805,0.804,0.805
		h36.392c0.443,0,0.804-0.36,0.804-0.805V28.4C38,27.19,37.135,26.156,35.942,25.941z M6.235,21.837V9.47h2.97v12.367H6.235z
		 M10.813,21.837V9.195h1.333v12.643H10.813z M13.755,21.837V9.47h2.97v12.367H13.755z M18.333,21.837V9.195h1.334v12.643H18.333z
		 M21.275,21.837V9.47h2.97v12.367H21.275z M25.853,21.837V9.195h1.334v12.643H25.853z M28.796,21.837V9.47h2.969v12.367H28.796z
		 M3.781,25.899v-1.612c0-0.464,0.377-0.841,0.841-0.841h28.757c0.464,0,0.841,0.377,0.841,0.841v1.612H3.781z M3.781,7.586V4.975
		L19,1.627l15.22,3.348v2.611H3.781z M36.392,28.4v1.562H1.608V28.4c0-0.492,0.401-0.892,0.894-0.892h32.998
		C35.991,27.508,36.392,27.908,36.392,28.4z"/>
	<g>
		<polygon fill="#D8EEFC" points="3.641,7.727 3.641,4.862 19,1.484 19.061,1.497 34.359,4.862 34.359,7.727 		"/>
		<rect x="28.655" y="9.33" fill="#D8EEFC" width="3.25" height="12.648"/>
		<rect x="21.135" y="9.33" fill="#D8EEFC" width="3.251" height="12.648"/>
		<rect x="13.615" y="9.33" fill="#D8EEFC" width="3.251" height="12.648"/>
		<rect x="6.094" y="9.33" fill="#D8EEFC" width="3.251" height="12.648"/>
		<path fill="#D8EEFC" d="M3.641,24.287c0-0.541,0.44-0.981,0.981-0.981H33.38c0.54,0,0.979,0.44,0.979,0.981v1.753H3.641V24.287z"
			/>
		<path fill="#D8EEFC" d="M36.532,30.102H1.468V28.4c0-0.569,0.464-1.032,1.034-1.032h32.998c0.569,0,1.033,0.463,1.033,1.032
			V30.102z"/>
	</g>
</g>
</svg>
