<?xml version="1.0" encoding="utf-8"?>
<!-- Generator: Adobe Illustrator 16.0.0, SVG Export Plug-In . SVG Version: 6.00 Build 0)  -->
<!DOCTYPE svg PUBLIC "-//W3C//DTD SVG 1.1//EN" "http://www.w3.org/Graphics/SVG/1.1/DTD/svg11.dtd">
<svg version="1.1" id="Шар_1" xmlns="http://www.w3.org/2000/svg" xmlns:xlink="http://www.w3.org/1999/xlink" x="0px" y="0px"
	 width="59px" height="59px" viewBox="0 0 59 59" style="enable-background:new 0 0 59 59;" xml:space="preserve">
<g>
	<polygon style="fill:#003764;" points="4.414,4.414 29.497,4.414 29.497,0 0,0 0,29.5 4.414,29.5 	"/>
	<polygon style="fill:#61B4E4;" points="4.414,54.586 4.414,29.5 0,29.5 0,59 29.504,59 29.504,54.586 	"/>
	<polygon style="fill:#0055B8;" points="54.586,29.5 54.586,54.586 29.504,54.586 29.504,59 59,59 59,29.5 	"/>
	<polygon style="fill:#009BDE;" points="29.504,0 29.504,4.414 54.586,4.414 54.586,29.5 59,29.5 59,0 	"/>
	<g>
		<path style="fill:#009BDE;" d="M37.421,21.77c-4.807,4.808-8.133,12.875-8.396,19.757h-4.116
			c0.165-6.257,4.183-15.147,8.792-19.461H21.715v-3.457h15.706V21.77z"/>
	</g>
</g>
</svg>
