<?xml version="1.0" encoding="utf-8"?>
<!-- Generator: Adobe Illustrator 19.2.1, SVG Export Plug-In . SVG Version: 6.00 Build 0)  -->
<svg version="1.1" id="Шар_1" xmlns="http://www.w3.org/2000/svg" xmlns:xlink="http://www.w3.org/1999/xlink" x="0px" y="0px"
	 viewBox="0 0 68.1 85.2" style="enable-background:new 0 0 68.1 85.2;" xml:space="preserve">
<style type="text/css">
	.st0{fill:#0055B8;}
	.st1{fill:#00B181;}
</style>
<path class="st0" d="M67.7,83.4l-4-4V29.3l-7.2-7.2V0H0v73.8h7.2V81h55.1l4,4c0.4,0.4,1.1,0.4,1.5,0c0.2-0.2,0.3-0.5,0.3-0.7
	C68.1,83.9,67.9,83.6,67.7,83.4z M60.1,28.7H42.2V10.8L60.1,28.7z M7.2,71.7h-5V2.1h52.3V20L41.6,7.2H7.2V71.7z M61.6,77.3L50,65.7
	l0.2-0.3c2.5-3,3.9-6.8,3.9-10.7c0-9.1-7.4-16.6-16.6-16.6S21,45.6,21,54.7s7.4,16.6,16.6,16.6c3.9,0,7.7-1.4,10.7-3.9l0.3-0.2
	l11.7,11.7H9.3V9.3h30.9v21.5h21.5V77.3z M37.5,69.2c-8,0-14.5-6.5-14.5-14.5c0-8,6.5-14.5,14.5-14.5S52,46.8,52,54.7
	C52,62.7,45.5,69.2,37.5,69.2z"/>
<path class="st1" d="M29.2,51.2h8.6c0.8,0,1.4-0.6,1.4-1.4c0-0.8-0.6-1.4-1.4-1.4h-8.6c-0.8,0-1.4,0.6-1.4,1.4
	C27.8,50.6,28.4,51.2,29.2,51.2z"/>
<path class="st1" d="M46.4,57H29.2c-0.8,0-1.4,0.6-1.4,1.4s0.6,1.4,1.4,1.4h17.2c0.8,0,1.4-0.6,1.4-1.4S47.2,57,46.4,57z"/>
</svg>
