<?xml version="1.0" encoding="utf-8"?>
<!-- Generator: Adobe Illustrator 16.0.0, SVG Export Plug-In . SVG Version: 6.00 Build 0)  -->
<!DOCTYPE svg PUBLIC "-//W3C//DTD SVG 1.1//EN" "http://www.w3.org/Graphics/SVG/1.1/DTD/svg11.dtd">
<svg version="1.1" id="Шар_1" xmlns="http://www.w3.org/2000/svg" xmlns:xlink="http://www.w3.org/1999/xlink" x="0px" y="0px"
	 width="67px" height="90.829px" viewBox="0 0 67 90.829" style="enable-background:new 0 0 67 90.829;" xml:space="preserve">
<g>
	<path style="fill:#009BDE;" d="M66.777,25.375c0,0,0-0.112-0.111-0.112c-0.113-0.111-0.225-0.325-0.326-0.437L42.062,0.662
		c-0.111-0.112-0.223-0.225-0.436-0.326c0,0-0.111,0-0.111-0.111C41.402,0.112,41.189,0.112,41.078,0H5.817C2.634,0,0,2.634,0,5.817
		v79.195c0,3.184,2.634,5.816,5.817,5.816h55.356c3.182,0,5.816-2.633,5.816-5.816V26.361C67,26.139,67,26.026,67,25.924
		C67,25.7,66.888,25.599,66.777,25.375z M42.724,7.028l17.352,17.249H42.724V7.028z M61.173,86.771H5.817
		c-0.987,0-1.76-0.773-1.76-1.759V5.93c0-0.986,0.772-1.759,1.76-1.759h32.838v22.078c0,1.099,0.875,1.974,1.975,1.974H62.82v56.79
		h0.111C62.931,85.998,62.16,86.771,61.173,86.771z"/>
	<path style="fill:#0055B8;" d="M53.597,63.817c0,1.099-0.875,1.974-1.975,1.974H15.042c-1.1,0-1.974-0.875-1.974-1.974
		c0-1.098,0.874-1.973,1.974-1.973h36.571C52.722,61.723,53.597,62.607,53.597,63.817L53.597,63.817z"/>
	<path style="fill:#0055B8;" d="M53.597,75.9c0,1.098-0.875,1.972-1.975,1.972H15.042c-1.1,0-1.974-0.874-1.974-1.972
		c0-1.1,0.874-1.974,1.974-1.974h36.571C52.722,73.916,53.597,74.801,53.597,75.9L53.597,75.9z"/>
	<path style="fill:#0055B8;" d="M53.597,51.735c0,1.1-0.875,1.974-1.975,1.974H15.042c-1.1,0-1.974-0.874-1.974-1.974
		c0-1.098,0.874-1.972,1.974-1.972h36.571C52.722,49.753,53.597,50.638,53.597,51.735L53.597,51.735z"/>
	<path style="fill:#0055B8;" d="M15.042,37.671h36.571c1.1,0,1.973,0.874,1.973,1.973c0,1.098-0.873,1.973-1.973,1.973H15.042
		c-1.1,0-1.974-0.875-1.974-1.973C12.956,38.657,13.942,37.671,15.042,37.671L15.042,37.671z"/>
	<path style="fill:#0055B8;" d="M12.956,27.673c0-1.098,0.876-1.973,1.974-1.973h12.631c1.099,0,1.974,0.875,1.974,1.973
		c0,1.1-0.875,1.974-1.974,1.974H15.042C13.942,29.769,12.956,28.883,12.956,27.673L12.956,27.673z"/>
	<path style="fill:#0055B8;" d="M12.956,15.704c0-1.1,0.876-1.974,1.974-1.974h12.631c1.099,0,1.974,0.874,1.974,1.974
		c0,1.098-0.875,1.972-1.974,1.972H15.042C13.942,17.687,12.956,16.802,12.956,15.704L12.956,15.704z"/>
	<path style="fill:#0055B8;" d="M12.956,15.704"/>
</g>
</svg>
