<?xml version="1.0" encoding="utf-8"?>
<!-- Generated by IcoMoon.io -->
<!DOCTYPE svg PUBLIC "-//W3C//DTD SVG 1.1//EN" "http://www.w3.org/Graphics/SVG/1.1/DTD/svg11.dtd">
<svg version="1.1" xmlns="http://www.w3.org/2000/svg" xmlns:xlink="http://www.w3.org/1999/xlink" width="1261" height="1024" viewBox="0 0 1261 1024">
<g id="icomoon-ignore">
</g>
<path fill="#009bde" d="M630.074 0l-630.074 236.237v157.701h1260.602v-157.701l-630.528-236.237z"></path>
<path fill="#009bde" d="M78.851 472.776h157.336v137.822h-157.336v-137.822z"></path>
<path fill="#0055b8" d="M78.851 610.611h157.336v137.796h-157.336v-137.796z"></path>
<path fill="#003764" d="M78.851 748.394h157.336v137.834h-157.336v-137.834z"></path>
<path fill="#11253a" d="M78.851 886.229h157.336v137.746h-157.336v-137.746z"></path>
<path fill="#009bde" d="M316.462 472.776h157.248v137.822h-157.248v-137.822z"></path>
<path fill="#0055b8" d="M316.462 610.611h157.248v137.796h-157.248v-137.796z"></path>
<path fill="#003764" d="M316.462 748.394h157.248v137.834h-157.248v-137.834z"></path>
<path fill="#11253a" d="M316.462 886.229h157.248v137.746h-157.248v-137.746z"></path>
<path fill="#009bde" d="M551.677 472.776h157.26v137.822h-157.26v-137.822z"></path>
<path fill="#0055b8" d="M551.677 610.611h157.26v137.796h-157.26v-137.796z"></path>
<path fill="#003764" d="M551.677 748.394h157.26v137.834h-157.26v-137.834z"></path>
<path fill="#11253a" d="M551.677 886.229h157.26v137.746h-157.26v-137.746z"></path>
<path fill="#009bde" d="M786.351 472.776h157.336v137.822h-157.336v-137.822z"></path>
<path fill="#0055b8" d="M786.351 610.611h157.336v137.796h-157.336v-137.796z"></path>
<path fill="#003764" d="M786.351 748.394h157.336v137.834h-157.336v-137.834z"></path>
<path fill="#11253a" d="M786.351 886.229h157.336v137.746h-157.336v-137.746z"></path>
<path fill="#009bde" d="M1023.975 472.776h157.298v137.822h-157.298v-137.822z"></path>
<path fill="#0055b8" d="M1023.975 610.611h157.298v137.796h-157.298v-137.796z"></path>
<path fill="#003764" d="M1023.975 748.394h157.298v137.834h-157.298v-137.834z"></path>
<path fill="#11253a" d="M1023.975 886.229h157.298v137.746h-157.298v-137.746z"></path>
<path fill="#009bde" d="M0 472.776h1260.602v137.822h-1260.602v-137.822z"></path>
<path fill="#11253a" d="M0 886.178h1260.602v137.834h-1260.602v-137.834z"></path>
</svg>
