<?xml version="1.0" encoding="utf-8"?>
<!-- Generator: Adobe Illustrator 16.0.0, SVG Export Plug-In . SVG Version: 6.00 Build 0)  -->
<!DOCTYPE svg PUBLIC "-//W3C//DTD SVG 1.1//EN" "http://www.w3.org/Graphics/SVG/1.1/DTD/svg11.dtd">
<svg version="1.1" id="Шар_1" xmlns="http://www.w3.org/2000/svg" xmlns:xlink="http://www.w3.org/1999/xlink" x="0px" y="0px"
	 width="106px" height="83.646px" viewBox="0 0 106 83.646" style="enable-background:new 0 0 106 83.646;" xml:space="preserve">
<g>
	<polygon style="fill:#5DB2D8;stroke:#5DB2D8;stroke-miterlimit:10;" points="72.056,70.708 92.583,50.184 90.265,47.866 
		72.056,66.086 65.493,59.52 63.185,61.838 	"/>
	<path style="fill:#2058A4;stroke:#2058A4;stroke-miterlimit:10;" d="M92.011,63.813c-0.481,9.42-8.297,16.936-17.836,16.936
		c-9.845,0-17.854-8.01-17.854-17.856s8.01-17.856,17.854-17.856c1.563,0,2.971,0.167,4.389,0.523l1.932-1.938
		c-2.301-0.661-4.379-0.985-6.32-0.985c-11.168,0-20.254,9.087-20.254,20.257c0,11.168,9.086,20.255,20.254,20.255
		c10.861,0,19.752-8.592,20.236-19.334H92.011z"/>
	<path style="fill:#009BDE;" d="M97.417,0H8.584C3.851,0,0,3.852,0,8.584v52.641c0,4.733,3.851,8.584,8.584,8.584h32.901
		c1.105,0,2.003-0.898,2.003-2.003s-0.898-2.003-2.003-2.003H8.584c-2.525,0-4.579-2.054-4.579-4.578V8.584
		c0-2.524,2.054-4.578,4.579-4.578h88.833c2.523,0,4.578,2.054,4.578,4.578v52.641c0,1.104,0.897,2.003,2.002,2.003
		c1.105,0,2.003-0.898,2.003-2.003V8.584C106,3.852,102.149,0,97.417,0z"/>
	<path style="fill:#0055B8;" d="M43.129,55.208H13.519c-0.596,0-1.082,0.485-1.082,1.082s0.485,1.082,1.082,1.082h29.611
		c0.596,0,1.082-0.485,1.082-1.082S43.726,55.208,43.129,55.208z"/>
	<path style="fill:#0055B8;" d="M31.051,20.098c0-2.41-1.962-4.371-4.372-4.371h-9.87c-2.41,0-4.372,1.961-4.372,4.371v6.581
		c0,2.411,1.962,4.372,4.372,4.372h9.87c2.41,0,4.372-1.961,4.372-4.372V20.098z M20.662,28.888h-3.853
		c-1.218,0-2.209-0.991-2.209-2.209V24.47h2.209c0.596,0,1.082-0.485,1.082-1.081c0-0.597-0.486-1.082-1.082-1.082H14.6v-2.209
		c0-1.217,0.991-2.206,2.209-2.206h3.853V28.888z M28.887,22.307h-2.208c-0.597,0-1.082,0.485-1.082,1.082
		c0,0.596,0.485,1.081,1.082,1.081h2.208v2.209c0,1.218-0.991,2.209-2.208,2.209h-3.853V17.892h3.853
		c1.217,0,2.208,0.989,2.208,2.206V22.307z"/>
	<path style="fill:#0055B8;" d="M13.519,42.048c-0.596,0-1.082,0.485-1.082,1.082v3.29c0,0.597,0.485,1.082,1.082,1.082
		S14.6,47.017,14.6,46.42v-3.29C14.6,42.533,14.115,42.048,13.519,42.048z"/>
	<path style="fill:#0055B8;" d="M18.454,42.048c-0.596,0-1.082,0.485-1.082,1.082v3.29c0,0.597,0.485,1.082,1.082,1.082
		s1.082-0.485,1.082-1.082v-3.29C19.536,42.533,19.05,42.048,18.454,42.048z"/>
	<path style="fill:#0055B8;" d="M23.388,42.048c-0.596,0-1.082,0.485-1.082,1.082v3.29c0,0.597,0.485,1.082,1.082,1.082
		c0.597,0,1.083-0.485,1.083-1.082v-3.29C24.471,42.533,23.985,42.048,23.388,42.048z"/>
	<path style="fill:#0055B8;" d="M28.324,42.048c-0.597,0-1.083,0.485-1.083,1.082v3.29c0,0.597,0.486,1.082,1.083,1.082
		c0.596,0,1.082-0.485,1.082-1.082v-3.29C29.405,42.533,28.919,42.048,28.324,42.048z"/>
	<path style="fill:#0055B8;" d="M34.904,42.048c-0.596,0-1.082,0.485-1.082,1.082v3.29c0,0.597,0.485,1.082,1.082,1.082
		s1.082-0.485,1.082-1.082v-3.29C35.986,42.533,35.5,42.048,34.904,42.048z"/>
	<path style="fill:#0055B8;" d="M39.839,42.048c-0.597,0-1.083,0.485-1.083,1.082v3.29c0,0.597,0.486,1.082,1.083,1.082
		c0.596,0,1.082-0.485,1.082-1.082v-3.29C40.921,42.533,40.436,42.048,39.839,42.048z"/>
	<path style="fill:#0055B8;" d="M44.774,42.048c-0.596,0-1.082,0.485-1.082,1.082v3.29c0,0.597,0.485,1.082,1.082,1.082
		s1.082-0.485,1.082-1.082v-3.29C45.855,42.533,45.37,42.048,44.774,42.048z"/>
	<path style="fill:#0055B8;" d="M49.71,42.048c-0.596,0-1.082,0.485-1.082,1.082v3.29c0,0.597,0.485,1.082,1.082,1.082
		c0.597,0,1.083-0.485,1.083-1.082v-3.29C50.792,42.533,50.307,42.048,49.71,42.048z"/>
	<path style="fill:#0055B8;" d="M85.901,15.727h-9.87c-4.226,0-7.663,3.438-7.663,7.662s3.438,7.662,7.663,7.662h9.87
		c4.225,0,7.662-3.438,7.662-7.662S90.126,15.727,85.901,15.727z M85.901,28.888h-9.87c-3.032,0-5.499-2.468-5.499-5.499
		s2.467-5.497,5.499-5.497h9.87c3.031,0,5.498,2.466,5.498,5.497S88.933,28.888,85.901,28.888z"/>
</g>
</svg>
