<?xml version="1.0" encoding="utf-8"?>
<!-- Generator: Adobe Illustrator 16.0.0, SVG Export Plug-In . SVG Version: 6.00 Build 0)  -->
<!DOCTYPE svg PUBLIC "-//W3C//DTD SVG 1.1//EN" "http://www.w3.org/Graphics/SVG/1.1/DTD/svg11.dtd">
<svg version="1.1" id="Шар_1" xmlns="http://www.w3.org/2000/svg" xmlns:xlink="http://www.w3.org/1999/xlink" x="0px" y="0px"
	 width="37px" height="34.424px" viewBox="0 0 37 34.424" enable-background="new 0 0 37 34.424" xml:space="preserve">
<g>
	<path fill="#D8EEFC" d="M35.819,27.321c0,0.12-0.103,0.223-0.224,0.223H1.404c-0.121,0-0.223-0.103-0.223-0.223V1.404
		c0-0.121,0.102-0.224,0.223-0.224h34.191c0.121,0,0.224,0.103,0.224,0.224V27.321z"/>
	<path fill="#003764" d="M35.596,0H1.404C0.63,0,0,0.631,0,1.404v25.917c0,0.774,0.63,1.404,1.404,1.404H14.3v4.518H8.731
		c-0.326,0-0.59,0.264-0.59,0.59s0.265,0.591,0.59,0.591h19.538c0.326,0,0.591-0.265,0.591-0.591s-0.265-0.59-0.591-0.59H22.7
		v-4.518h12.896c0.774,0,1.404-0.63,1.404-1.404V1.404C37,0.631,36.37,0,35.596,0z M21.52,33.243H15.48v-4.518h6.039V33.243z
		 M35.819,27.321c0,0.12-0.103,0.223-0.224,0.223H1.404c-0.121,0-0.223-0.103-0.223-0.223V1.404c0-0.121,0.103-0.224,0.223-0.224
		h34.191c0.121,0,0.224,0.103,0.224,0.224V27.321z"/>
	<path fill="#003764" d="M33.968,22.74H3.033c-0.326,0-0.59,0.265-0.59,0.591s0.264,0.59,0.59,0.59h30.935
		c0.326,0,0.59-0.264,0.59-0.59S34.294,22.74,33.968,22.74z"/>
	<path fill="#003764" d="M27.148,16.83l-1.083-4.085h-0.023l-1.035,4.085h-1.73l-1.932-6.086h1.766l1.119,4.132h0.023l1.012-4.132
		h1.625l1.035,4.12h0.023l1.119-4.12h1.719l-1.919,6.086H27.148z"/>
	<path fill="#003764" d="M19.121,16.83l-1.083-4.085h-0.023l-1.036,4.085h-1.73l-1.93-6.086h1.766l1.118,4.132h0.023l1.013-4.132
		h1.624l1.036,4.12h0.023l1.118-4.12h1.719l-1.919,6.086H19.121z"/>
	<path fill="#003764" d="M11.093,16.83l-1.083-4.085H9.986L8.95,16.83H7.22l-1.93-6.086h1.766l1.118,4.132h0.023l1.013-4.132h1.624
		l1.036,4.12h0.023l1.118-4.12h1.719l-1.919,6.086H11.093z"/>
</g>
</svg>
