<?xml version="1.0" encoding="utf-8"?>
<!-- Generator: Adobe Illustrator 19.2.1, SVG Export Plug-In . SVG Version: 6.00 Build 0)  -->
<svg version="1.1" id="Шар_1" xmlns="http://www.w3.org/2000/svg" xmlns:xlink="http://www.w3.org/1999/xlink" x="0px" y="0px"
	 viewBox="0 0 110.2 96.9" style="enable-background:new 0 0 110.2 96.9;" xml:space="preserve">
<style type="text/css">
	.st0{fill:#0055B8;}
	.st1{fill:#00B181;}
</style>
<g>
	<path class="st0" d="M86.5,51.1c0.1-0.1,0.2-0.3,0.2-0.4l0,0c0-0.1,0-0.1,0-0.2c0,0,0-0.1,0-0.1c0-0.3-0.1-0.6-0.3-0.9l-8.4-15.3
		c-0.2-0.4-0.7-0.7-1.2-0.7H33.1c-0.5,0-0.9,0.3-1.2,0.7l-8.5,15.5c-0.1,0.1-0.1,0.2-0.1,0.4c0,0.2,0,0.3,0,0.5l0,0.1
		c0,0.2,0.1,0.3,0.1,0.4l0.1,0.1l29.9,45.1c0.1,0.1,0.1,0.2,0.2,0.3c0.2,0.1,0.2,0.2,0.4,0.2c0,0,0.1,0,0.1,0
		c0.2,0.1,0.3,0.1,0.4,0.1l0.1,0c0.1,0,0.2,0,0.3-0.1l0.1,0c0.1-0.1,0.2-0.1,0.3-0.2l0.3,0.4l0,0l-0.2-0.4c0.1-0.1,0.2-0.2,0.2-0.3
		L86.5,51.1z M57.1,89.3l7.6-37.6h18.2L57.1,89.3z M76.2,36.2l7,12.8H64.4l-7.5-12.8H76.2z M61.3,49H48.7L55,38.4L61.3,49z
		 M33.9,36.2h19.3L45.6,49H26.8L33.9,36.2z M27.1,51.7h18.2l6.8,37.6L27.1,51.7z M54.6,88.3L48,51.7h14L54.6,88.3z"/>
	<path class="st1" d="M55.7,1.3c0-0.7-0.6-1.3-1.3-1.3C53.6,0,53,0.6,53,1.3v19.6c0,0.7,0.6,1.3,1.3,1.3c0.7,0,1.3-0.6,1.3-1.3V1.3z
		"/>
	<path class="st1" d="M24.2,15L38,28.9c0.5,0.5,1.4,0.5,1.9,0c0.3-0.3,0.4-0.6,0.4-0.9s-0.1-0.7-0.4-0.9L26.1,13.1
		c-0.3-0.3-0.6-0.4-0.9-0.4c-0.4,0-0.7,0.1-0.9,0.4C23.7,13.6,23.7,14.5,24.2,15z"/>
	<path class="st1" d="M21,42.4H1.3C0.6,42.4,0,43,0,43.7S0.6,45,1.3,45H21c0.7,0,1.3-0.6,1.3-1.3S21.7,42.4,21,42.4z"/>
	<path class="st1" d="M108.8,40.9H89.2c-0.7,0-1.3,0.6-1.3,1.3c0,0.7,0.6,1.3,1.3,1.3h19.6c0.7,0,1.3-0.6,1.3-1.3
		C110.2,41.5,109.6,40.9,108.8,40.9z"/>
	<path class="st1" d="M85.3,13c0-0.4-0.1-0.7-0.4-0.9c-0.3-0.3-0.6-0.4-0.9-0.4c-0.4,0-0.7,0.1-0.9,0.4L69.2,25.9
		c-0.3,0.3-0.4,0.6-0.4,0.9s0.1,0.7,0.4,0.9c0.5,0.5,1.4,0.5,1.9,0L84.9,14C85.2,13.7,85.3,13.4,85.3,13z"/>
</g>
</svg>
