<?xml version="1.0" encoding="utf-8"?>
<!-- Generator: Adobe Illustrator 16.0.0, SVG Export Plug-In . SVG Version: 6.00 Build 0)  -->
<!DOCTYPE svg PUBLIC "-//W3C//DTD SVG 1.1//EN" "http://www.w3.org/Graphics/SVG/1.1/DTD/svg11.dtd">
<svg version="1.1" id="Шар_1" xmlns="http://www.w3.org/2000/svg" xmlns:xlink="http://www.w3.org/1999/xlink" x="0px" y="0px"
	 width="86px" height="96.924px" viewBox="0 0 86 96.924" style="enable-background:new 0 0 86 96.924;" xml:space="preserve">
<g>
	<path style="fill:#2058A4;" d="M55.528,42.743l-0.205-0.2V29.826c0-6.078-4.591-11.017-10.229-11.017h-4.188
		c-5.639,0-10.229,4.938-10.229,11.017v12.717l-0.205,0.2c-3.67,3.569-5.777,8.593-5.777,13.781
		c0,10.438,8.213,18.928,18.306,18.928s18.306-8.49,18.306-18.928C61.306,51.336,59.198,46.313,55.528,42.743z M32.944,29.826
		c0-4.829,3.57-8.752,7.962-8.752h4.188c4.39,0,7.962,3.923,7.962,8.752v10.839l-1.023-0.598c-0.463-0.271-0.955-0.53-1.463-0.77
		L50.53,39.28c-0.081-0.039-0.151-0.067-0.223-0.102c-0.109-0.05-0.213-0.096-0.316-0.141l-0.147-0.06
		c-0.157-0.067-0.313-0.132-0.469-0.192L49.3,38.758c-1.623-0.615-3.32-0.987-5.052-1.109l-0.127-0.01
		c-0.144-0.008-0.286-0.016-0.431-0.021l-0.133-0.005c-0.381-0.011-0.743-0.011-1.104,0l-0.147,0.005
		c-0.139,0.006-0.283,0.014-0.428,0.021l-0.13,0.01c-1.738,0.122-3.45,0.499-5.08,1.122l-0.074,0.031
		c-0.146,0.055-0.29,0.114-0.434,0.172l-0.151,0.064c-0.104,0.045-0.209,0.091-0.314,0.141l-0.262,0.117
		c-0.51,0.241-1.002,0.501-1.465,0.771l-1.023,0.598V29.826z M43,73.184c-8.846,0-16.042-7.474-16.042-16.659
		c0-5.996,3.137-11.558,8.186-14.514l0.029-0.021c0.063-0.039,0.131-0.078,0.199-0.114c0.084-0.044,0.17-0.094,0.256-0.14
		c0.143-0.076,0.295-0.156,0.443-0.234c0.047-0.023,0.096-0.041,0.146-0.067c1.687-0.818,3.479-1.319,5.328-1.496l0.072-0.008
		c0.197-0.016,0.42-0.031,0.641-0.042h0.059c0.479-0.023,0.898-0.023,1.352-0.005l0.066,0.005c0.229,0.011,0.449,0.026,0.669,0.047
		l-0.026,0.678l0.053-0.675h0.023c1.85,0.177,3.642,0.678,5.33,1.496l0.142,0.067c0.151,0.075,0.303,0.156,0.45,0.236
		c0.084,0.044,0.166,0.094,0.252,0.138c0.069,0.042,0.139,0.081,0.205,0.12l0.023,0.013c5.047,2.959,8.186,8.521,8.186,14.517
		C59.042,65.71,51.842,73.184,43,73.184z"/>
	<path style="fill:#2058A4;" d="M45.905,57.252l0.286-0.268c0.938-0.876,1.478-2.12,1.478-3.409c0-2.576-2.095-4.67-4.669-4.67
		s-4.669,2.094-4.669,4.67c0,1.289,0.539,2.533,1.478,3.409l0.286,0.268l-1.369,6.131c-0.016,0.08-0.026,0.166-0.026,0.246
		c0,1.183,1.247,2.076,2.899,2.076h2.805c1.65,0,2.897-0.894,2.897-2.076c0-0.083-0.011-0.166-0.026-0.244L45.905,57.252z
		 M44.964,63.437h-3.928l1.529-6.865l-0.176-0.358c-0.106-0.216-0.277-0.39-0.494-0.502c-0.801-0.415-1.299-1.236-1.299-2.136
		c0-1.327,1.08-2.405,2.403-2.405s2.403,1.078,2.403,2.405c0,0.899-0.5,1.721-1.298,2.136c-0.218,0.112-0.389,0.286-0.496,0.502
		l-0.177,0.358L44.964,63.437z"/>
	<path style="fill:#009BDE;" d="M0,59.953c0,17.303,17.56,32.493,42.702,36.94c0.211,0.041,0.398,0.039,0.588,0.002
		C68.44,92.446,86,77.256,86,59.953V1.707C86,0.765,85.235,0,84.294,0H1.706C0.765,0,0,0.765,0,1.707V59.953z M3.414,3.413h79.173
		v56.54c0,7.645-3.855,14.926-11.148,21.057c-7.127,5.993-17.186,10.414-28.318,12.448L43,93.479l-0.12-0.021
		c-11.133-2.034-21.191-6.455-28.319-12.448C7.267,74.879,3.414,67.598,3.414,59.953V3.413z"/>
</g>
</svg>
