<?xml version="1.0" encoding="utf-8"?>
<!-- Generator: Adobe Illustrator 16.0.0, SVG Export Plug-In . SVG Version: 6.00 Build 0)  -->
<!DOCTYPE svg PUBLIC "-//W3C//DTD SVG 1.1//EN" "http://www.w3.org/Graphics/SVG/1.1/DTD/svg11.dtd">
<svg version="1.1" id="Слой_1" xmlns="http://www.w3.org/2000/svg" xmlns:xlink="http://www.w3.org/1999/xlink" x="0px" y="0px"
	 width="17.817px" height="17px" viewBox="0 0 17.817 17" enable-background="new 0 0 17.817 17" xml:space="preserve">
<g>
	<g>
		<path fill="#FFDC64" d="M17.544,5.921l-5.701-0.529L9.579,0.133c-0.16-0.368-0.682-0.368-0.84,0L6.473,5.393L0.772,5.921
			C0.373,5.958,0.211,6.455,0.513,6.719l4.302,3.779l-1.259,5.586c-0.088,0.391,0.334,0.697,0.679,0.493l4.924-2.923l4.923,2.923
			c0.345,0.204,0.768-0.103,0.679-0.493l-1.259-5.586l4.302-3.779C18.105,6.455,17.944,5.958,17.544,5.921z"/>
	</g>
	<g>
		<path fill="#FFC850" d="M9.579,0.133c-0.16-0.368-0.682-0.368-0.84,0L6.473,5.393L0.772,5.921
			C0.373,5.958,0.211,6.455,0.513,6.719l4.302,3.779l-1.259,5.586c-0.088,0.391,0.334,0.697,0.679,0.493l1.099-0.653
			c0.152-6.26,3.062-10.669,5.363-13.191L9.579,0.133z"/>
	</g>
	<g>
		<path fill="#915B13" d="M14.315,16.75L14.315,16.75c-0.101,0-0.199-0.028-0.288-0.081l-4.868-2.891L4.29,16.669
			c-0.089,0.053-0.188,0.081-0.287,0.081c-0.17,0-0.336-0.081-0.443-0.216c-0.106-0.133-0.146-0.306-0.107-0.474l1.244-5.523
			L0.442,6.8C0.27,6.648,0.208,6.419,0.279,6.202c0.07-0.218,0.256-0.366,0.484-0.387l5.638-0.523l2.239-5.2
			C8.731-0.12,8.93-0.25,9.159-0.25s0.427,0.131,0.518,0.341l2.24,5.2l5.638,0.523c0.228,0.021,0.413,0.169,0.483,0.387
			c0.072,0.218,0.009,0.447-0.163,0.598l-4.254,3.738l1.244,5.523c0.038,0.168-0.001,0.341-0.106,0.474
			C14.65,16.669,14.485,16.75,14.315,16.75z M9.159,13.53l4.979,2.955c0.056,0.034,0.115,0.051,0.178,0.051
			c0.104,0,0.208-0.051,0.275-0.135c0.066-0.082,0.09-0.188,0.065-0.293l-1.272-5.648l4.35-3.82
			c0.127-0.112,0.136-0.266,0.102-0.371c-0.034-0.106-0.132-0.225-0.3-0.24L11.77,5.493L9.479,0.176
			C9.413,0.02,9.27-0.036,9.159-0.036S8.904,0.02,8.837,0.176l-2.29,5.317L0.782,6.028c-0.169,0.016-0.266,0.134-0.3,0.24
			C0.448,6.374,0.456,6.527,0.583,6.639l4.35,3.82l-0.014,0.063l-1.259,5.586c-0.024,0.105,0,0.211,0.065,0.293
			c0.068,0.084,0.171,0.135,0.276,0.135c0.062,0,0.121-0.017,0.178-0.051L9.159,13.53z"/>
	</g>
</g>
</svg>
