<?xml version="1.0" encoding="utf-8"?>
<!-- Generator: Adobe Illustrator 16.0.0, SVG Export Plug-In . SVG Version: 6.00 Build 0)  -->
<!DOCTYPE svg PUBLIC "-//W3C//DTD SVG 1.1//EN" "http://www.w3.org/Graphics/SVG/1.1/DTD/svg11.dtd">
<svg version="1.1" id="Слой_1" xmlns="http://www.w3.org/2000/svg" xmlns:xlink="http://www.w3.org/1999/xlink" x="0px" y="0px"
	 width="13.58px" height="17px" viewBox="0 0 13.58 17" enable-background="new 0 0 13.58 17" xml:space="preserve">
<g>
	
		<rect x="2.747" y="9.304" transform="matrix(0.9998 -0.02 0.02 0.9998 -0.2611 0.0816)" fill="#434244" width="2.387" height="7.521"/>
	
		<rect x="2.747" y="9.318" transform="matrix(0.9998 -0.0198 0.0198 0.9998 -0.2583 0.0667)" opacity="0.1" fill="#FFFFFF" width="0.987" height="7.521"/>
	<g>
		<g>
			
				<ellipse transform="matrix(0.9998 -0.0201 0.0201 0.9998 -0.1235 0.2529)" fill="#7A1E32" cx="12.518" cy="6.269" rx="0.741" ry="6.27"/>
		</g>
	</g>
	<path fill="#B62347" d="M5.561,16.828c0.002,0.062-0.048,0.113-0.108,0.114L2.585,17c-0.062,0.001-0.112-0.048-0.113-0.109
		l-0.008-0.365c-0.001-0.063,0.048-0.113,0.109-0.114l2.866-0.058c0.062-0.001,0.113,0.048,0.114,0.109L5.561,16.828z"/>
	<path fill="#B62347" d="M5.422,9.917c0.001,0.062-0.048,0.112-0.109,0.113l-2.867,0.058C2.385,10.09,2.334,10.04,2.333,9.979
		L2.326,9.613C2.324,9.552,2.374,9.501,2.434,9.5l2.867-0.058C5.363,9.44,5.414,9.49,5.415,9.551L5.422,9.917z"/>
	<path fill="#D4D3DE" d="M12.321,0.026c0,0-3.223,2.89-5.794,2.941C5.154,2.995,5.378,2.991,5.378,2.991l0.133,6.582
		c0,0,0.146-0.003,1.018-0.021c2.854-0.058,6.046,2.987,6.046,2.987s-0.581-3.189-0.646-6.388
		C11.865,2.953,12.321,0.026,12.321,0.026z"/>
	<path fill="#C4375A" d="M2.581,3.047C1.126,3.076-0.029,4.279,0,5.733l0.026,1.316c0.029,1.454,1.232,2.609,2.687,2.58l2.842-0.057
		L5.422,2.99L2.581,3.047z"/>
	<path fill="#434244" d="M13.58,6.122c-0.019-0.882-0.725-1.588-1.596-1.616c-0.097,1.089-0.124,2.208,0.003,3.299
		C12.886,7.773,13.597,7.025,13.58,6.122z"/>
	<path fill="#D4D3DE" d="M11.929,6.151c-0.007-0.354-0.008-0.705-0.004-1.048c0.035-2.762,0.396-5.077,0.396-5.077
		s-3.223,2.89-5.794,2.941C5.814,2.982,5.532,2.987,5.425,2.99L5.47,5.233l0.024,1.187l6.438-0.13
		C11.931,6.243,11.93,6.197,11.929,6.151z"/>
	<path fill="#C4375A" d="M12.426,1.731c0.024,0.163,0.049,0.344,0.072,0.546c0.134,1.109,0.223,2.525,0.253,3.987
		c0.029,1.461-0.004,2.88-0.092,3.994c-0.017,0.203-0.033,0.385-0.051,0.547c-0.024-0.162-0.048-0.343-0.072-0.545
		c-0.134-1.109-0.223-2.525-0.253-3.986c-0.029-1.461,0.004-2.88,0.092-3.994C12.392,2.077,12.409,1.895,12.426,1.731 M12.452,0.019
		C12.432,0.006,12.412,0,12.391,0c-0.409,0.008-0.684,2.821-0.614,6.284c0.066,3.292,0.42,5.984,0.807,6.235
		c0.021,0.013,0.04,0.02,0.061,0.019c0.409-0.008,0.685-2.821,0.614-6.283C13.192,2.962,12.838,0.269,12.452,0.019L12.452,0.019z"/>
	<path fill="#434244" d="M13.58,6.122c-0.015-0.704-0.468-1.295-1.093-1.52c0.063,1.035,0.078,2.056,0.056,3.085
		C13.162,7.44,13.593,6.829,13.58,6.122z"/>
	<path opacity="0.1" fill="#FFFFFF" d="M13.578,6.222c0.001-0.008,0.001-0.016,0.001-0.023c0.001-0.026,0.001-0.051,0.001-0.077
		c-0.001-0.025-0.002-0.05-0.004-0.075c0-0.007-0.001-0.015-0.002-0.023c-0.001-0.017-0.003-0.035-0.005-0.052
		c-0.001-0.008-0.002-0.017-0.003-0.026c-0.002-0.017-0.005-0.034-0.007-0.051c-0.002-0.008-0.003-0.015-0.004-0.023
		c-0.004-0.024-0.009-0.047-0.014-0.071c-0.001-0.002-0.001-0.005-0.002-0.007c-0.005-0.021-0.01-0.042-0.016-0.063
		c-0.002-0.008-0.004-0.017-0.007-0.025c-0.004-0.015-0.009-0.03-0.013-0.044c-0.003-0.009-0.006-0.018-0.009-0.027
		c-0.005-0.014-0.01-0.028-0.015-0.042c-0.004-0.009-0.007-0.018-0.01-0.026c-0.007-0.018-0.015-0.036-0.021-0.054
		c-0.004-0.01-0.009-0.02-0.014-0.029c-0.006-0.015-0.013-0.029-0.02-0.043c-0.004-0.01-0.01-0.02-0.015-0.029
		C13.397,5.4,13.391,5.39,13.385,5.379s-0.012-0.021-0.017-0.031c-0.006-0.01-0.012-0.02-0.018-0.029
		c-0.006-0.01-0.012-0.021-0.019-0.031c-0.005-0.009-0.011-0.017-0.016-0.025c-0.014-0.021-0.028-0.042-0.043-0.063
		c-0.005-0.007-0.01-0.013-0.014-0.02c-0.009-0.012-0.018-0.023-0.026-0.035c-0.005-0.006-0.01-0.012-0.015-0.019
		c-0.01-0.012-0.02-0.023-0.029-0.035c-0.004-0.005-0.008-0.01-0.012-0.015c-0.037-0.043-0.076-0.084-0.118-0.123c0,0,0,0,0,0
		c-0.014-0.012-0.027-0.025-0.041-0.037c-0.003-0.002-0.005-0.005-0.008-0.007c-0.014-0.012-0.028-0.024-0.042-0.036
		c-0.002-0.001-0.003-0.002-0.004-0.003c-0.063-0.05-0.129-0.097-0.198-0.138l-0.001,0c-0.231-0.136-0.498-0.218-0.782-0.228
		c-0.053,0.589-0.084,1.187-0.083,1.785l1.675-0.034C13.577,6.245,13.578,6.233,13.578,6.222z"/>
	<path fill="#C4375A" d="M12.777,9.381c-0.015,0.319-0.034,0.623-0.057,0.907c-0.032,0.394-0.067,0.709-0.103,0.96
		c-0.045-0.25-0.093-0.563-0.141-0.955c-0.135-1.115-0.226-2.542-0.256-4.018c-0.029-1.476,0.004-2.906,0.094-4.026
		c0.032-0.394,0.067-0.709,0.103-0.96c0.014,0.074,0.026,0.154,0.04,0.239c0.058-0.25,0.147-0.488,0.327-0.671
		C12.664,0.31,12.529-0.003,12.391,0c-0.409,0.008-0.684,2.821-0.614,6.284s0.458,6.262,0.867,6.253
		c0.254-0.005,0.456-1.09,0.557-2.738L12.777,9.381z"/>
</g>
</svg>
