<?xml version="1.0" encoding="utf-8"?>
<!-- Generator: Adobe Illustrator 16.0.0, SVG Export Plug-In . SVG Version: 6.00 Build 0)  -->
<!DOCTYPE svg PUBLIC "-//W3C//DTD SVG 1.1//EN" "http://www.w3.org/Graphics/SVG/1.1/DTD/svg11.dtd">
<svg version="1.1" id="Слой_1" xmlns="http://www.w3.org/2000/svg" xmlns:xlink="http://www.w3.org/1999/xlink" x="0px" y="0px"
	 width="17.279px" height="17px" viewBox="0 0 17.279 17" enable-background="new 0 0 17.279 17" xml:space="preserve">
<g>
	<path fill="#DD2E44" d="M5.58,3.315c-0.054,0.054-0.095,0.119-0.129,0.19L5.447,3.501L0.063,15.627l0.006,0.006
		c-0.1,0.193,0.067,0.587,0.409,0.93c0.342,0.342,0.735,0.509,0.929,0.409l0.005,0.005l12.128-5.383l-0.004-0.005
		c0.071-0.033,0.136-0.074,0.189-0.128c0.75-0.75-0.466-3.182-2.715-5.431C8.762,3.781,6.33,2.565,5.58,3.315"/>
	<path fill="#EA596E" d="M6.239,5.48l-6.04,9.843l-0.135,0.305l0.005,0.005c-0.1,0.193,0.067,0.587,0.409,0.93
		c0.111,0.111,0.227,0.195,0.341,0.268l7.34-8.95L6.239,5.48z"/>
	<path fill="#A0041E" d="M11.045,5.992c2.241,2.242,3.486,4.633,2.778,5.34c-0.707,0.707-3.097-0.537-5.34-2.779
		C6.241,6.311,4.997,3.92,5.704,3.213C6.412,2.505,8.802,3.75,11.045,5.992"/>
	<path fill="#AA8DD8" d="M8.923,6.253C8.827,6.33,8.702,6.371,8.57,6.356c-0.417-0.045-0.767-0.19-1.013-0.419
		C7.298,5.695,7.17,5.37,7.205,5.043c0.062-0.572,0.636-1.097,1.614-0.992C9.2,4.093,9.37,3.971,9.375,3.912
		c0.007-0.058-0.133-0.214-0.513-0.255C8.445,3.612,8.095,3.467,7.85,3.238C7.59,2.995,7.461,2.67,7.497,2.344
		C7.56,1.771,8.133,1.247,9.11,1.353c0.277,0.03,0.424-0.027,0.485-0.064c0.05-0.03,0.069-0.059,0.071-0.076
		c0.006-0.058-0.133-0.214-0.514-0.255C8.89,0.929,8.699,0.692,8.728,0.428c0.028-0.263,0.265-0.454,0.529-0.425
		c0.978,0.105,1.427,0.74,1.364,1.313C10.56,1.888,9.985,2.413,9.007,2.307c-0.277-0.03-0.422,0.027-0.484,0.064
		c-0.05,0.03-0.069,0.06-0.071,0.076C8.444,2.505,8.584,2.661,8.965,2.702c0.978,0.105,1.427,0.741,1.365,1.313
		c-0.062,0.572-0.636,1.097-1.614,0.991C8.438,4.977,8.293,5.034,8.23,5.071c-0.05,0.03-0.068,0.06-0.07,0.076
		C8.153,5.205,8.292,5.361,8.674,5.401C8.937,5.43,9.128,5.667,9.099,5.931C9.085,6.063,9.019,6.176,8.923,6.253"/>
	<path fill="#77B255" d="M14.717,10.691c0.947-0.267,1.601,0.156,1.756,0.71s-0.182,1.255-1.128,1.521
		c-0.369,0.104-0.48,0.281-0.465,0.338s0.203,0.149,0.572,0.045c0.946-0.266,1.6,0.156,1.756,0.71
		c0.156,0.555-0.182,1.255-1.129,1.522c-0.369,0.104-0.48,0.28-0.464,0.336c0.016,0.057,0.203,0.149,0.572,0.046
		c0.255-0.071,0.521,0.077,0.593,0.332c0.07,0.255-0.078,0.521-0.334,0.592c-0.945,0.267-1.6-0.155-1.756-0.71
		c-0.155-0.554,0.182-1.254,1.129-1.521c0.369-0.104,0.481-0.28,0.465-0.337c-0.016-0.057-0.203-0.15-0.572-0.047
		c-0.946,0.268-1.6-0.154-1.756-0.709s0.182-1.255,1.129-1.521c0.368-0.104,0.479-0.281,0.464-0.336
		c-0.017-0.058-0.203-0.15-0.572-0.047c-0.255,0.072-0.52-0.076-0.592-0.332C14.313,11.028,14.462,10.764,14.717,10.691"/>
	<path fill="#AA8DD8" d="M11.04,9.397c-0.142,0-0.28-0.062-0.375-0.18c-0.166-0.208-0.133-0.509,0.074-0.675
		c0.104-0.084,2.601-2.044,6.128-1.54c0.263,0.037,0.444,0.28,0.407,0.542s-0.278,0.447-0.543,0.407
		c-3.117-0.443-5.37,1.322-5.392,1.339C11.251,9.363,11.146,9.397,11.04,9.397"/>
	<path fill="#77B255" d="M2.762,7.4c-0.046,0-0.092-0.007-0.138-0.02C2.37,7.304,2.226,7.036,2.302,6.782
		c0.544-1.811,1.037-4.7,0.432-5.454c-0.068-0.085-0.17-0.169-0.404-0.151C1.878,1.21,1.921,2.161,1.922,2.17
		c0.021,0.265-0.179,0.495-0.442,0.515C1.211,2.701,0.983,2.507,0.965,2.242C0.915,1.58,1.121,0.305,2.257,0.219
		c0.506-0.038,0.928,0.138,1.225,0.507C4.62,2.143,3.464,6.25,3.221,7.059C3.159,7.267,2.968,7.4,2.762,7.4"/>
	<path fill="#5C913B" d="M12.959,4.28c0,0.397-0.322,0.72-0.72,0.72s-0.72-0.323-0.72-0.72c0-0.397,0.322-0.72,0.72-0.72
		S12.959,3.883,12.959,4.28"/>
	<path fill="#9266CC" d="M1.92,8.36c0,0.53-0.431,0.96-0.96,0.96C0.43,9.32,0,8.891,0,8.36S0.43,7.4,0.96,7.4
		C1.489,7.4,1.92,7.83,1.92,8.36"/>
	<g>
		<path fill="#5C913B" d="M16.319,9.081c0,0.397-0.322,0.72-0.72,0.72s-0.72-0.323-0.72-0.72s0.322-0.72,0.72-0.72
			S16.319,8.683,16.319,9.081"/>
		<path fill="#5C913B" d="M11.999,14.84c0,0.398-0.322,0.721-0.72,0.721s-0.72-0.322-0.72-0.721c0-0.396,0.322-0.72,0.72-0.72
			S11.999,14.443,11.999,14.84"/>
	</g>
	<g>
		<path fill="#FFCC4D" d="M14.399,1.641c0,0.53-0.43,0.96-0.96,0.96s-0.96-0.43-0.96-0.96c0-0.53,0.43-0.96,0.96-0.96
			S14.399,1.11,14.399,1.641"/>
		<path fill="#FFCC4D" d="M16.319,3.801c0,0.397-0.322,0.72-0.72,0.72s-0.72-0.322-0.72-0.72s0.322-0.72,0.72-0.72
			S16.319,3.403,16.319,3.801"/>
		<path fill="#FFCC4D" d="M14.88,5.721c0,0.397-0.323,0.72-0.721,0.72s-0.72-0.322-0.72-0.72S13.762,5,14.159,5
			S14.88,5.323,14.88,5.721"/>
		<path fill="#FFCC4D" d="M4.319,11c0,0.398-0.322,0.721-0.72,0.721S2.88,11.398,2.88,11c0-0.396,0.322-0.72,0.72-0.72
			S4.319,10.604,4.319,11"/>
	</g>
</g>
</svg>
