<?xml version="1.0" encoding="utf-8"?>
<!-- Generator: Adobe Illustrator 16.0.0, SVG Export Plug-In . SVG Version: 6.00 Build 0)  -->
<!DOCTYPE svg PUBLIC "-//W3C//DTD SVG 1.1//EN" "http://www.w3.org/Graphics/SVG/1.1/DTD/svg11.dtd">
<svg version="1.1" id="Слой_1" xmlns="http://www.w3.org/2000/svg" xmlns:xlink="http://www.w3.org/1999/xlink" x="0px" y="0px"
	 width="18.23px" height="17px" viewBox="0 0 18.23 17" enable-background="new 0 0 18.23 17" xml:space="preserve">
<g>
	<path fill="#F7434C" d="M16.705,7.493H1.525c-0.159,0-0.288,0.128-0.288,0.288v8.931C1.237,16.871,1.366,17,1.525,17h15.18
		c0.159,0,0.288-0.129,0.288-0.288V7.781C16.993,7.622,16.864,7.493,16.705,7.493z"/>
	<path fill="#DB2E37" d="M16.705,7.493H1.525c-0.159,0-0.288,0.128-0.288,0.288v1.151h15.756V7.781
		C16.993,7.622,16.864,7.493,16.705,7.493z"/>
	<path fill="#FFDB57" d="M10.586,7.493H7.645c-0.159,0-0.287,0.128-0.287,0.288v8.931C7.357,16.871,7.485,17,7.645,17h2.941
		c0.159,0,0.288-0.129,0.288-0.288V7.781C10.874,7.622,10.745,7.493,10.586,7.493z"/>
	<path fill="#F5BA3D" d="M10.586,7.493H7.645c-0.159,0-0.287,0.128-0.287,0.288v1.145h3.517V7.781
		C10.874,7.622,10.745,7.493,10.586,7.493z"/>
	<path fill="#FFDB57" d="M16.145,2.175c-0.282-0.735-0.728-1.454-1.191-1.922c-0.17-0.172-0.399-0.259-0.66-0.253
		c-0.864,0.021-2.272,1.105-4.186,3.224c-0.048,0.053-0.074,0.122-0.074,0.193v1.522c0,0.159,0.129,0.288,0.288,0.288h4.428
		c0.986,0,1.394-0.48,1.562-0.883C16.534,3.808,16.476,3.038,16.145,2.175z"/>
	<path fill="#EF9325" d="M16.31,2.677c-0.009-0.029-0.021-0.058-0.038-0.083c-0.435-0.657-1.374-0.411-2.085-0.089
		c-2.066,0.936-2.92,2.224-2.955,2.279c-0.058,0.088-0.063,0.201-0.012,0.294c0.05,0.093,0.147,0.15,0.253,0.15h3.276
		c0.628,0,1.093-0.193,1.384-0.573C16.478,4.203,16.539,3.52,16.31,2.677z"/>
	<path fill="#FFDB57" d="M8.123,3.224C6.21,1.105,4.802,0.021,3.938,0c-0.262-0.006-0.49,0.081-0.66,0.253
		C2.813,0.721,2.368,1.44,2.086,2.175C1.755,3.038,1.696,3.808,1.92,4.345c0.168,0.403,0.575,0.883,1.562,0.883h4.428
		c0.159,0,0.288-0.129,0.288-0.288V3.417C8.197,3.346,8.171,3.277,8.123,3.224z"/>
	<path fill="#EF9325" d="M6.999,4.783C6.964,4.729,6.11,3.44,4.044,2.504c-0.711-0.322-1.65-0.568-2.085,0.089
		C1.942,2.619,1.93,2.647,1.921,2.677C1.691,3.52,1.753,4.203,2.098,4.655c0.291,0.38,0.756,0.573,1.384,0.573h3.276
		c0.105,0,0.203-0.058,0.253-0.15C7.062,4.984,7.057,4.872,6.999,4.783z"/>
	<path fill="#F5BA3D" d="M10.321,2.845H7.909c-0.158,0-0.287,0.129-0.287,0.288V4.94c0,0.159,0.129,0.288,0.287,0.288h2.412
		c0.159,0,0.287-0.129,0.287-0.288V3.133C10.608,2.974,10.48,2.845,10.321,2.845z"/>
	<path fill="#F7434C" d="M17.942,4.652H0.288C0.129,4.652,0,4.781,0,4.94v2.84c0,0.159,0.129,0.288,0.288,0.288h17.654
		c0.159,0,0.288-0.129,0.288-0.288V4.94C18.23,4.781,18.102,4.652,17.942,4.652z"/>
	<rect x="6.904" y="4.652" fill="#FFDB57" width="4.422" height="3.416"/>
</g>
</svg>
