<?xml version="1.0" encoding="utf-8"?>
<!-- Generator: Adobe Illustrator 16.0.0, SVG Export Plug-In . SVG Version: 6.00 Build 0)  -->
<!DOCTYPE svg PUBLIC "-//W3C//DTD SVG 1.1//EN" "http://www.w3.org/Graphics/SVG/1.1/DTD/svg11.dtd">
<svg version="1.1" id="Слой_1" xmlns="http://www.w3.org/2000/svg" xmlns:xlink="http://www.w3.org/1999/xlink" x="0px" y="0px"
	 width="19px" height="17.759px" viewBox="0 0 19 17.759" enable-background="new 0 0 19 17.759" xml:space="preserve">
<path fill="#393939" d="M18.465,9.543l0.076-0.085C18.837,9.127,19,8.702,19,8.259c0-0.991-0.807-1.799-1.799-1.799h-3.912
	l0.055-0.167c0.355-1.08,0.521-2.555,0.521-3.212V2.44c0-1.345-1.094-2.44-2.439-2.44h-0.643c-0.236,0-0.441,0.16-0.499,0.39
	l-0.35,1.399C9.452,3.721,7.918,5.971,6.187,6.394L6.079,6.42L6.038,6.316c-0.273-0.692-0.93-1.139-1.673-1.139H0.515
	C0.23,5.177,0,5.408,0,5.692v11.552c0,0.284,0.23,0.516,0.515,0.516h3.851c0.688,0,1.326-0.402,1.623-1.025l0.049-0.102l2.313,0.771
	c0.708,0.237,1.445,0.356,2.191,0.356h5.377c0.992,0,1.799-0.807,1.799-1.799c0-0.229-0.043-0.451-0.127-0.662l-0.053-0.132
	l0.138-0.038C18.455,14.916,19,14.202,19,13.394c0-0.443-0.163-0.869-0.459-1.199l-0.076-0.085l0.076-0.085
	C18.837,11.695,19,11.269,19,10.827s-0.163-0.868-0.459-1.199L18.465,9.543z M5.135,15.96c0,0.425-0.346,0.77-0.77,0.77H1.029V6.206
	h3.336c0.424,0,0.77,0.345,0.77,0.77V15.96z M15.918,10.057h1.283c0.425,0,0.77,0.345,0.77,0.77c0,0.423-0.345,0.769-0.77,0.769
	h-1.283c-0.283,0-0.514,0.23-0.514,0.515c0,0.283,0.23,0.515,0.514,0.515h1.283c0.425,0,0.77,0.345,0.77,0.77
	c0,0.424-0.345,0.77-0.77,0.77h-1.283c-0.283,0-0.514,0.23-0.514,0.514s0.23,0.515,0.514,0.515c0.424,0,0.77,0.345,0.77,0.769
	c0,0.425-0.346,0.77-0.77,0.77h-5.377c-0.635,0-1.263-0.102-1.867-0.304L6.163,15.59v-8.14l0.104-0.02
	c0.974-0.184,1.945-0.817,2.808-1.83c0.857-1.004,1.552-2.337,1.858-3.563l0.252-1.009h0.24c0.777,0,1.411,0.633,1.411,1.411v0.642
	c0,0.89-0.28,2.563-0.627,3.306L12.176,6.46h-1.393c-0.283,0-0.514,0.231-0.514,0.515S10.5,7.49,10.783,7.49h6.418
	c0.425,0,0.77,0.345,0.77,0.77c0,0.424-0.345,0.769-0.77,0.769h-1.283c-0.283,0-0.514,0.231-0.514,0.515
	C15.404,9.826,15.635,10.057,15.918,10.057z"/>
</svg>
