<?xml version="1.0" encoding="utf-8"?>
<!-- Generator: Adobe Illustrator 16.0.0, SVG Export Plug-In . SVG Version: 6.00 Build 0)  -->
<!DOCTYPE svg PUBLIC "-//W3C//DTD SVG 1.1//EN" "http://www.w3.org/Graphics/SVG/1.1/DTD/svg11.dtd">
<svg version="1.1" id="Шар_1" xmlns="http://www.w3.org/2000/svg" xmlns:xlink="http://www.w3.org/1999/xlink" x="0px" y="0px"
	 width="248px" height="94.809px" viewBox="0 0 248 94.809" enable-background="new 0 0 248 94.809" xml:space="preserve">
<g>
	<rect x="16.583" fill="#5599DB" width="16.578" height="16.58"/>
	<rect x="16.583" y="16.58" fill="#0056B3" width="16.578" height="16.58"/>
	<polygon fill="#7FB2E2" points="0,16.58 16.582,16.58 0,33.16 	"/>
	<polygon fill="#7FB2E2" points="16.583,16.58 0,16.58 16.583,0 	"/>
	<rect x="16.583" y="33.16" fill="#043A63" width="16.578" height="16.579"/>
	<rect x="16.583" y="49.739" fill="#162635" width="16.578" height="16.578"/>
	<path fill="#043A63" d="M51.692,16.58h24.167c12.191,0,15.306,7.616,15.306,12.743c0,7.133-4.015,9.141-6.095,10.179
		c6.095,2.285,7.687,7.132,7.687,12.049c0,3.948-1.662,7.688-4.294,10.249c-2.833,2.772-5.538,4.502-15.718,4.502H51.692V16.58z
		 M61.664,36.04h12.188c4.088,0,7.345-1.593,7.345-5.541c0-4.085-2.911-5.333-7.622-5.333H61.664V36.04z M61.664,57.713h12.747
		c5.05,0,7.962-2.215,7.962-7.268c0-4.363-3.743-6.028-7.482-6.028H61.664V57.713z"/>
	<path fill="#043A63" d="M130.772,59.098c0,4.362,0.971,5.332,2.147,5.751v1.453h-10.458c-0.553-1.73-0.694-2.287-0.899-4.361
		c-2.215,2.285-5.33,5.331-11.908,5.331c-5.542,0-11.221-3.114-11.221-10.735c0-7.201,4.571-10.87,10.735-11.77l8.727-1.315
		c1.524-0.208,3.391-0.833,3.391-2.908c0-4.087-3.875-4.295-6.373-4.295c-4.847,0-5.677,2.979-5.955,5.125h-9.35
		c1.11-11.289,8.938-12.88,16.482-12.88c5.194,0,14.681,1.592,14.681,10.665V59.098z M121.286,48.365
		c-0.971,0.763-2.563,1.387-6.578,2.01c-3.599,0.623-6.58,1.524-6.58,5.538c0,3.397,2.634,4.433,4.5,4.433
		c4.295,0,8.658-2.767,8.658-7.268V48.365z"/>
	<path fill="#043A63" d="M172.736,66.302h-9.691V43.933c0-2.701-0.142-7.27-6.305-7.27c-4.293,0-7.615,2.907-7.615,8.518v21.121
		h-9.694V29.461h9.275v5.401h0.144c1.314-2.216,4.081-6.371,11.077-6.371c7.202,0,12.81,4.224,12.81,12.326V66.302z"/>
	<polygon fill="#043A63" points="191.713,66.302 182.018,66.302 182.018,16.58 191.713,16.58 191.713,43.451 203.9,29.461 
		215.812,29.461 202.791,43.725 216.154,66.302 204.521,66.302 195.724,50.515 191.713,54.667 	"/>
	<g>
		<path fill="#043A63" d="M220.101,65.013c0-0.916,0.618-1.559,1.485-1.559c0.866,0,1.461,0.643,1.461,1.559
			c0,0.893-0.57,1.561-1.486,1.561C220.694,66.573,220.101,65.905,220.101,65.013z"/>
		<path fill="#043A63" d="M235.771,63.033c0,1.237,0.024,2.327,0.099,3.267h-1.931l-0.124-1.956h-0.05
			c-0.568,0.965-1.832,2.229-3.961,2.229c-1.882,0-4.134-1.041-4.134-5.249v-7.006h2.178v6.635c0,2.278,0.693,3.813,2.674,3.813
			c1.461,0,2.477-1.016,2.872-1.981c0.124-0.322,0.198-0.718,0.198-1.113v-7.354h2.179V63.033z"/>
		<path fill="#043A63" d="M246.02,66.3l-0.174-1.51h-0.074c-0.669,0.941-1.955,1.783-3.664,1.783c-2.426,0-3.664-1.709-3.664-3.442
			c0-2.896,2.575-4.48,7.204-4.456v-0.247c0-0.991-0.272-2.774-2.723-2.774c-1.114,0-2.277,0.348-3.119,0.891l-0.495-1.436
			c0.99-0.643,2.426-1.063,3.937-1.063c3.664,0,4.555,2.5,4.555,4.902v4.48c0,1.041,0.05,2.055,0.198,2.872H246.02z M245.697,60.185
			c-2.376-0.049-5.075,0.372-5.075,2.7c0,1.411,0.94,2.079,2.056,2.079c1.559,0,2.549-0.991,2.896-2.005
			c0.074-0.223,0.124-0.471,0.124-0.693V60.185z"/>
	</g>
	<g>
		<path fill="#043A63" d="M16.583,92.082V81.17h0.307v10.62h6.283V81.17h0.307v10.62h6.283V81.17h0.307v10.912H16.583z"/>
		<path fill="#043A63" d="M38.406,81.17c1.731,0,3.403,0.689,3.403,2.697c0,1.349-0.951,2.376-2.346,2.544
			c1.318,0.108,2.683,0.935,2.683,2.713c0,1.747-1.379,2.759-2.989,2.896c-0.367,0.031-0.889,0.062-1.226,0.062h-3.894V81.17H38.406
			z M34.344,86.289h3.418c0.797,0,1.685,0.031,2.421-0.322c0.827-0.399,1.303-1.165,1.303-2.085c0-1.9-1.61-2.436-3.249-2.436
			h-3.894V86.289z M34.344,91.79h3.846c1.763,0,3.633-0.552,3.633-2.697c0-1.962-1.717-2.513-3.403-2.513h-4.076V91.79z"/>
		<path fill="#043A63" d="M46.16,92.082h-0.475V81.17h0.307v10.651l7.494-10.651h0.475v10.912h-0.306V81.431L46.16,92.082z"/>
		<path fill="#043A63" d="M66.65,94.809v-2.728h-9.196v2.728h-0.305V91.79h1.011c1.701-3.187,1.762-7.142,1.762-9.717V81.17h5.809
			v10.62h1.226v3.019H66.65z M65.423,81.461h-5.194v1.072c0,2.437-0.124,6.284-1.702,9.256h6.896V81.461z"/>
		<path fill="#043A63" d="M73.133,85.768l5.639,6.314h-0.398l-5.471-6.1l-2.498,2.207v3.893h-0.307V81.17h0.307v6.651l7.57-6.651
			h0.444L73.133,85.768z"/>
		<path fill="#043A63" d="M81.838,92.082h-0.307V81.17h0.307V92.082z"/>
		<path fill="#043A63" d="M95.338,85.768l5.64,6.314h-0.398l-5.472-6.1l-2.498,2.207v3.893h-0.306V81.17h0.306v6.651l7.571-6.651
			h0.444L95.338,85.768z"/>
		<path fill="#043A63" d="M108.411,81.17c1.731,0,3.158,0.873,3.158,2.958c0,1.808-1.288,2.973-3.265,2.973h-4.184v4.981h-0.306
			V81.17H108.411z M104.12,86.809h4.108c1.639,0,3.019-0.827,3.019-2.667c0-1.961-1.288-2.681-3.05-2.681h-4.078V86.809z"/>
		<path fill="#043A63" d="M122.082,81.461h-6.943v4.781h6.543v0.291h-6.543v5.256h7.019v0.292h-7.326V81.17h7.25V81.461z"/>
		<path fill="#043A63" d="M134.097,94.809v-2.728H124.9v2.728h-0.306V91.79h1.012c1.7-3.187,1.762-7.142,1.762-9.717V81.17h5.808
			v10.62h1.228v3.019H134.097z M132.87,81.461h-5.195v1.072c0,2.437-0.123,6.284-1.701,9.256h6.896V81.461z"/>
		<path fill="#043A63" d="M138.065,92.082h-0.476V81.17h0.307v10.651l7.494-10.651h0.475v10.912h-0.306V81.431L138.065,92.082z"/>
		<path fill="#043A63" d="M156.946,81.461h-3.97v10.62h-0.307v-10.62h-3.969V81.17h8.245V81.461z"/>
		<path fill="#043A63" d="M160.255,92.082h-0.475V81.17h0.307v10.651l7.494-10.651h0.476v10.912h-0.307V81.431L160.255,92.082z"/>
		<path fill="#043A63" d="M188.363,86.717c0,3.326-2.084,5.625-5.135,5.625c-3.019,0-5.057-2.33-5.057-5.717
			c0-3.372,2.068-5.731,5.041-5.731C186.248,80.894,188.363,83.285,188.363,86.717z M178.509,86.594
			c0,3.219,1.915,5.457,4.704,5.457c2.866,0,4.812-2.176,4.812-5.349c0-3.249-1.961-5.517-4.782-5.517
			C180.471,81.185,178.509,83.422,178.509,86.594z"/>
		<path fill="#043A63" d="M200.193,92.082h-0.32v-5.548h-7.633v5.548h-0.322V81.17h0.322v5.073h7.633V81.17h0.32V92.082z"/>
		<path fill="#043A63" d="M206.492,81.828V81.17h5.931v10.912h-0.307v-10.62H206.8v0.873c0,0.552-0.094,4.644-0.323,7.08
			c-0.107,1.181-0.552,2.76-1.931,2.76c-0.337,0-0.843-0.062-1.073-0.2v-0.368c0.291,0.199,0.721,0.261,1.059,0.261
			c1.118,0,1.531-1.272,1.654-2.468C206.431,87.024,206.492,83.299,206.492,81.828z"/>
		<path fill="#043A63" d="M224.53,92.082h-0.353l-1.44-3.602h-5.547l-1.472,3.602h-0.353l4.49-10.912h0.291L224.53,92.082z
			 M219.994,81.507l-2.697,6.682h5.333L219.994,81.507z"/>
		<path fill="#043A63" d="M227.963,92.082h-0.475V81.17h0.307v10.651l7.494-10.651h0.475v10.912h-0.307V81.431L227.963,92.082z
			 M230.032,78.794c0.169,0.874,0.705,1.333,1.563,1.333c0.92,0,1.455-0.445,1.594-1.333h0.307c-0.184,1.073-0.843,1.64-1.916,1.64
			c-1.011,0-1.655-0.566-1.854-1.64H230.032z"/>
		<path fill="#043A63" d="M247.993,92.082h-0.321v-5.548h-7.633v5.548h-0.322V81.17h0.322v5.073h7.633V81.17h0.321V92.082z"/>
	</g>
</g>
</svg>
