<?xml version="1.0" encoding="utf-8"?>
<!-- Generator: Adobe Illustrator 16.0.0, SVG Export Plug-In . SVG Version: 6.00 Build 0)  -->
<!DOCTYPE svg PUBLIC "-//W3C//DTD SVG 1.1//EN" "http://www.w3.org/Graphics/SVG/1.1/DTD/svg11.dtd">
<svg version="1.1" id="Шар_1" xmlns="http://www.w3.org/2000/svg" xmlns:xlink="http://www.w3.org/1999/xlink" x="0px" y="0px"
	 width="248px" height="98.077px" viewBox="0 0 248 98.077" enable-background="new 0 0 248 98.077" xml:space="preserve">
<g>
	<rect x="16.847" fill="#009BDE" width="16.841" height="16.844"/>
	<rect x="16.847" y="16.844" fill="#0055B8" width="16.841" height="16.843"/>
	<polygon fill="#61B4E4" points="0,16.844 16.846,16.844 0,33.687 	"/>
	<polygon fill="#61B4E4" points="16.847,16.844 0.001,16.844 16.847,0 	"/>
	<rect x="16.847" y="33.687" fill="#003764" width="16.841" height="16.843"/>
	<rect x="16.847" y="50.53" fill="#11253A" width="16.841" height="16.842"/>
	<path fill="#003764" d="M52.515,16.844h24.552c12.385,0,15.55,7.736,15.55,12.945c0,7.246-4.079,9.286-6.192,10.341
		c6.192,2.321,7.809,7.245,7.809,12.24c0,4.011-1.688,7.811-4.362,10.412c-2.878,2.816-5.625,4.574-15.968,4.574H52.515V16.844z
		 M62.646,36.613h12.381c4.153,0,7.462-1.618,7.462-5.629c0-4.15-2.957-5.417-7.743-5.417h-12.1V36.613z M62.646,58.631h12.949
		c5.131,0,8.09-2.25,8.09-7.383c0-4.434-3.803-6.125-7.602-6.125H62.646V58.631z"/>
	<path fill="#ffffff" d="M132.853,60.039c0,4.431,0.986,5.416,2.182,5.841v1.477h-10.623c-0.562-1.758-0.705-2.322-0.914-4.431
		c-2.25,2.322-5.415,5.415-12.098,5.415c-5.631,0-11.4-3.164-11.4-10.905c0-7.315,4.645-11.042,10.906-11.958l8.865-1.336
		c1.549-0.21,3.444-0.847,3.444-2.955c0-4.151-3.937-4.363-6.474-4.363c-4.924,0-5.768,3.026-6.049,5.206h-9.499
		c1.128-11.468,9.08-13.085,16.745-13.085c5.276,0,14.914,1.617,14.914,10.834V60.039z M123.215,49.134
		c-0.985,0.776-2.604,1.409-6.683,2.043c-3.656,0.633-6.685,1.548-6.685,5.626c0,3.45,2.676,4.502,4.571,4.502
		c4.363,0,8.796-2.811,8.796-7.383V49.134z"/>
	<path fill="#ffffff" d="M175.484,67.356h-9.847V44.631c0-2.744-0.143-7.385-6.404-7.385c-4.361,0-7.736,2.953-7.736,8.653v21.457
		h-9.848V29.93h9.422v5.487h0.146c1.336-2.251,4.146-6.473,11.254-6.473c7.317,0,13.014,4.292,13.014,12.522V67.356z"/>
	<polygon fill="#003764" points="194.763,67.356 184.913,67.356 184.913,16.844 194.763,16.844 194.763,44.142 207.144,29.93 
		219.245,29.93 206.017,44.421 219.593,67.356 207.775,67.356 198.838,51.318 194.763,55.537 	"/>
	<g>
		<path fill="#ffffff" d="M16.847,95.352V84.452h0.307v10.608h6.275V84.452h0.307v10.608h6.276V84.452h0.307v10.899H16.847z"/>
		<path fill="#ffffff" d="M38.646,84.452c1.729,0,3.398,0.688,3.398,2.694c0,1.347-0.949,2.373-2.343,2.541
			c1.316,0.107,2.68,0.934,2.68,2.71c0,1.745-1.378,2.756-2.985,2.893c-0.367,0.031-0.889,0.062-1.225,0.062h-3.889V84.452H38.646z
			 M34.589,89.565h3.413c0.797,0,1.684,0.03,2.419-0.322c0.826-0.397,1.301-1.163,1.301-2.082c0-1.897-1.607-2.433-3.244-2.433
			h-3.889V89.565z M34.589,95.061h3.842c1.761,0,3.629-0.551,3.629-2.693c0-1.959-1.715-2.511-3.399-2.511h-4.071V95.061z"/>
		<path fill="#ffffff" d="M46.391,95.352h-0.475V84.452h0.307v10.639l7.485-10.639h0.475v10.899h-0.305V84.713L46.391,95.352z"/>
		<path fill="#ffffff" d="M66.858,98.077v-2.726h-9.187v2.726h-0.305v-3.017h1.011c1.698-3.184,1.76-7.133,1.76-9.705v-0.903h5.802
			v10.608h1.226v3.017H66.858z M65.633,84.743h-5.188v1.072c0,2.433-0.123,6.275-1.699,9.245h6.888V84.743z"/>
		<path fill="#ffffff" d="M73.334,89.045l5.633,6.307h-0.397l-5.465-6.093l-2.495,2.205v3.888h-0.307V84.452h0.307v6.645
			l7.562-6.645h0.443L73.334,89.045z"/>
		<path fill="#ffffff" d="M82.029,95.352h-0.307V84.452h0.307V95.352z"/>
		<path fill="#ffffff" d="M95.515,89.045l5.634,6.307h-0.397l-5.466-6.093l-2.495,2.205v3.888h-0.306V84.452h0.306v6.645
			l7.562-6.645h0.443L95.515,89.045z"/>
		<path fill="#ffffff" d="M108.573,84.452c1.729,0,3.154,0.872,3.154,2.955c0,1.806-1.287,2.97-3.262,2.97h-4.179v4.975h-0.307
			V84.452H108.573z M104.287,90.086h4.103c1.638,0,3.016-0.827,3.016-2.664c0-1.959-1.285-2.679-3.046-2.679h-4.072V90.086z"/>
		<path fill="#ffffff" d="M122.229,84.743h-6.936v4.776h6.536v0.291h-6.536v5.25h7.012v0.291h-7.318V84.452h7.242V84.743z"/>
		<path fill="#ffffff" d="M134.229,98.077v-2.726h-9.186v2.726h-0.305v-3.017h1.01c1.699-3.184,1.76-7.133,1.76-9.705v-0.903h5.802
			v10.608h1.226v3.017H134.229z M133.005,84.743h-5.189v1.072c0,2.433-0.123,6.275-1.699,9.245h6.889V84.743z"/>
		<path fill="#ffffff" d="M138.194,95.352h-0.476V84.452h0.307v10.639l7.485-10.639h0.475v10.899h-0.305V84.713L138.194,95.352z"/>
		<path fill="#ffffff" d="M157.054,84.743h-3.965v10.608h-0.306V84.743h-3.965v-0.291h8.235V84.743z"/>
		<path fill="#ffffff" d="M160.359,95.352h-0.475V84.452h0.307v10.639l7.486-10.639h0.475v10.899h-0.306V84.713L160.359,95.352z"/>
		<path fill="#ffffff" d="M188.437,89.994c0,3.321-2.082,5.618-5.129,5.618c-3.016,0-5.051-2.326-5.051-5.709
			c0-3.369,2.065-5.727,5.035-5.727C186.323,84.177,188.437,86.565,188.437,89.994z M178.593,89.871c0,3.215,1.913,5.45,4.699,5.45
			c2.862,0,4.807-2.174,4.807-5.343c0-3.245-1.959-5.511-4.776-5.511C180.553,84.468,178.593,86.702,178.593,89.871z"/>
		<path fill="#ffffff" d="M200.254,95.352h-0.32v-5.541h-7.625v5.541h-0.321V84.452h0.321v5.067h7.625v-5.067h0.32V95.352z"/>
		<path fill="#ffffff" d="M206.545,85.11v-0.658h5.924v10.899h-0.306V84.743h-5.311v0.872c0,0.551-0.094,4.639-0.322,7.073
			c-0.107,1.179-0.552,2.756-1.93,2.756c-0.336,0-0.841-0.062-1.07-0.199v-0.367c0.29,0.198,0.719,0.26,1.056,0.26
			c1.117,0,1.53-1.271,1.653-2.465C206.484,90.3,206.545,86.58,206.545,85.11z"/>
		<path fill="#ffffff" d="M224.563,95.352h-0.352l-1.439-3.598h-5.542l-1.469,3.598h-0.353l4.486-10.899h0.29L224.563,95.352z
			 M220.032,84.789l-2.694,6.675h5.327L220.032,84.789z"/>
		<path fill="#ffffff" d="M227.992,95.352h-0.475V84.452h0.307v10.639l7.486-10.639h0.474v10.899h-0.306V84.713L227.992,95.352z
			 M230.06,82.079c0.168,0.873,0.704,1.332,1.562,1.332c0.918,0,1.453-0.443,1.591-1.332h0.307
			c-0.184,1.071-0.842,1.639-1.914,1.639c-1.009,0-1.652-0.567-1.852-1.639H230.06z"/>
		<path fill="#ffffff" d="M248,95.352h-0.321v-5.541h-7.623v5.541h-0.322V84.452h0.322v5.067h7.623v-5.067H248V95.352z"/>
	</g>
	<g>
		<path fill="#ffffff" d="M229.359,18.743v7.884h-2.422v-7.884h-2.778v-1.899h7.979v1.899H229.359z M242.442,26.626v-6.934h-0.048
			l-2.517,6.934h-1.639l-2.517-6.934h-0.048v6.934h-2.279v-9.783h3.229l2.445,6.435l2.446-6.435h3.205v9.783H242.442z"/>
	</g>
</g>
</svg>
