<?xml version="1.0" encoding="utf-8"?>
<!-- Generator: Adobe Illustrator 16.0.0, SVG Export Plug-In . SVG Version: 6.00 Build 0)  -->
<!DOCTYPE svg PUBLIC "-//W3C//DTD SVG 1.1//EN" "http://www.w3.org/Graphics/SVG/1.1/DTD/svg11.dtd">
<svg version="1.1" id="Шар_1" xmlns="http://www.w3.org/2000/svg" xmlns:xlink="http://www.w3.org/1999/xlink" x="0px" y="0px"
	 width="248px" height="95.525px" viewBox="0 0 248 95.525" enable-background="new 0 0 248 95.525" xml:space="preserve">
<g>
	<g>
		<rect x="3582.912" y="197.183" fill="#009BDE" width="16.907" height="16.909"/>
		<rect x="3582.912" y="214.092" fill="#0055B8" width="16.907" height="16.909"/>
		<polygon fill="#61B4E4" points="3566,214.092 3582.911,214.092 3566,231.001 		"/>
		<polygon fill="#61B4E4" points="3582.912,214.092 3566.001,214.092 3582.912,197.183 		"/>
		<rect x="3582.912" y="231.001" fill="#003764" width="16.907" height="16.909"/>
		<rect x="3582.912" y="247.911" fill="#11253A" width="16.907" height="16.908"/>
	</g>
	<g>
		<path fill="#003764" d="M3581.813,279.45h7.001v0.299h-6.702v4.395h4.237c1.05,0,1.851,0.253,2.401,0.76
			c0.549,0.506,0.824,1.227,0.824,2.16c0,0.457-0.076,0.871-0.23,1.244c-0.154,0.371-0.377,0.689-0.669,0.953
			s-0.646,0.467-1.063,0.611c-0.416,0.144-0.887,0.215-1.413,0.215h-4.386V279.45z M3586.343,289.79
			c0.446,0,0.852-0.067,1.214-0.202c0.362-0.133,0.67-0.322,0.923-0.565c0.254-0.244,0.45-0.535,0.589-0.871
			c0.14-0.338,0.208-0.705,0.208-1.104c0-0.844-0.247-1.489-0.744-1.936c-0.496-0.447-1.227-0.671-2.189-0.671h-4.23v5.349H3586.343
			z"/>
		<path fill="#003764" d="M3592.644,279.45h0.298v4.693h4.014c1.051,0,1.852,0.253,2.401,0.76c0.551,0.506,0.825,1.227,0.825,2.16
			c0,0.457-0.077,0.871-0.229,1.244c-0.154,0.372-0.377,0.689-0.67,0.953s-0.646,0.467-1.062,0.611
			c-0.418,0.144-0.888,0.215-1.414,0.215h-4.162V279.45z M3596.949,289.79c0.448,0,0.852-0.067,1.214-0.202
			c0.362-0.133,0.67-0.322,0.924-0.565c0.254-0.244,0.449-0.531,0.588-0.863c0.139-0.334,0.209-0.703,0.209-1.111
			c0-0.844-0.248-1.489-0.744-1.936c-0.497-0.447-1.228-0.671-2.19-0.671h-4.008v5.349H3596.949z M3602.326,279.45h0.299v10.637
			h-0.299V279.45z"/>
		<path fill="#003764" d="M3610.342,290.326c-0.705,0-1.354-0.137-1.944-0.41c-0.592-0.273-1.098-0.649-1.52-1.132
			s-0.752-1.059-0.99-1.729s-0.357-1.401-0.357-2.197c0-0.646,0.092-1.303,0.274-1.973c0.185-0.672,0.475-1.279,0.872-1.826
			c0.398-0.546,0.914-0.992,1.55-1.341c0.635-0.347,1.404-0.521,2.31-0.521c0.703,0,1.32,0.116,1.847,0.35
			c0.525,0.233,0.965,0.525,1.317,0.879c0.354,0.354,0.62,0.727,0.798,1.125c0.179,0.396,0.272,0.76,0.282,1.086h-0.297
			c-0.03-0.386-0.145-0.766-0.343-1.139c-0.199-0.373-0.47-0.707-0.812-1.006s-0.749-0.538-1.221-0.722
			c-0.472-0.185-0.995-0.276-1.571-0.276c-0.586,0-1.108,0.082-1.565,0.246c-0.456,0.164-0.858,0.383-1.206,0.655
			c-0.35,0.274-0.646,0.592-0.895,0.954c-0.248,0.361-0.449,0.741-0.604,1.14c-0.153,0.397-0.265,0.8-0.335,1.206
			c-0.069,0.408-0.104,0.795-0.104,1.162c0,0.676,0.099,1.326,0.298,1.951c0.198,0.626,0.491,1.178,0.879,1.654
			c0.387,0.477,0.861,0.859,1.422,1.146c0.561,0.289,1.2,0.433,1.915,0.433c0.635,0,1.206-0.104,1.714-0.312
			c0.506-0.21,0.943-0.497,1.311-0.864c0.367-0.368,0.665-0.805,0.894-1.311c0.228-0.508,0.383-1.053,0.462-1.639h0.298
			c-0.089,0.645-0.258,1.238-0.507,1.779c-0.248,0.541-0.568,1.006-0.961,1.393c-0.392,0.388-0.858,0.691-1.4,0.909
			C3611.609,290.216,3611.007,290.326,3610.342,290.326"/>
		<polygon fill="#003764" points="3620.666,279.749 3616.853,279.749 3616.853,279.45 3624.792,279.45 3624.792,279.749 
			3620.964,279.749 3620.964,290.086 3620.666,290.086 		"/>
		<path fill="#003764" d="M3627.071,279.45h4.305c1.024,0,1.818,0.244,2.385,0.73c0.565,0.486,0.848,1.211,0.848,2.176
			c0,0.467-0.084,0.881-0.253,1.244c-0.168,0.361-0.401,0.666-0.7,0.908c-0.297,0.243-0.654,0.427-1.073,0.551
			c-0.416,0.125-0.868,0.186-1.354,0.186h-3.859v4.842h-0.297V279.45z M3631.376,284.948c0.418,0,0.807-0.057,1.162-0.172
			c0.357-0.113,0.668-0.283,0.931-0.506c0.264-0.224,0.47-0.494,0.619-0.812c0.149-0.316,0.224-0.686,0.224-1.102
			c0-0.844-0.241-1.489-0.722-1.938c-0.483-0.446-1.221-0.67-2.214-0.67h-4.008v5.199H3631.376z"/>
		<path fill="#003764" d="M3637.35,279.45h0.298v4.693h4.015c1.05,0,1.851,0.253,2.4,0.76c0.551,0.506,0.826,1.227,0.826,2.16
			c0,0.457-0.078,0.871-0.23,1.244c-0.154,0.372-0.377,0.689-0.67,0.953c-0.292,0.264-0.647,0.467-1.062,0.611
			c-0.417,0.144-0.888,0.215-1.412,0.215h-4.164V279.45z M3641.656,289.79c0.446,0,0.851-0.067,1.213-0.202
			c0.362-0.133,0.671-0.322,0.925-0.565c0.252-0.244,0.449-0.531,0.588-0.863c0.139-0.334,0.208-0.703,0.208-1.111
			c0-0.844-0.247-1.489-0.745-1.936c-0.497-0.447-1.226-0.671-2.188-0.671h-4.009v5.349H3641.656z M3647.033,279.45h0.298v10.637
			h-0.298V279.45z"/>
		<polygon fill="#003764" points="3650.668,279.45 3657.729,279.45 3657.729,279.749 3650.967,279.749 3650.967,284.397 
			3657.327,284.397 3657.327,284.694 3650.967,284.694 3650.967,289.79 3657.789,289.79 3657.789,290.086 3650.668,290.086 		"/>
		<polygon fill="#003764" points="3666.266,279.45 3666.563,279.45 3666.563,285.917 3673.938,279.45 3674.386,279.45 
			3669.245,283.979 3674.683,290.086 3674.28,290.086 3669.007,284.158 3666.563,286.318 3666.563,290.086 3666.266,290.086 		"/>
		<path fill="#003764" d="M3676.827,279.45h4.305c1.024,0,1.819,0.244,2.384,0.73c0.567,0.486,0.851,1.211,0.851,2.176
			c0,0.467-0.086,0.881-0.254,1.244c-0.169,0.361-0.402,0.666-0.7,0.908c-0.298,0.243-0.655,0.427-1.072,0.551
			c-0.417,0.125-0.87,0.186-1.356,0.186h-3.857v4.842h-0.299V279.45z M3681.132,284.948c0.418,0,0.806-0.057,1.164-0.172
			c0.355-0.113,0.666-0.283,0.93-0.506c0.263-0.224,0.469-0.494,0.617-0.812c0.15-0.316,0.225-0.686,0.225-1.102
			c0-0.844-0.24-1.489-0.724-1.938c-0.48-0.446-1.218-0.67-2.212-0.67h-4.006v5.199H3681.132z"/>
		<polygon fill="#003764" points="3687.106,279.45 3694.167,279.45 3694.167,279.749 3687.403,279.749 3687.403,284.397 
			3693.766,284.397 3693.766,284.694 3687.403,284.694 3687.403,289.79 3694.228,289.79 3694.228,290.086 3687.106,290.086 		"/>
		<path fill="#003764" d="M3696.03,289.79h0.982c0.417-0.775,0.74-1.584,0.969-2.429s0.399-1.683,0.514-2.519
			c0.113-0.834,0.181-1.638,0.201-2.412c0.021-0.775,0.029-1.476,0.029-2.1v-0.881h6.242v10.34h1.191v2.919h-0.297v-2.622h-9.534
			v2.622h-0.298V289.79z M3704.67,289.79v-10.041h-5.646v1.057c0,0.597-0.013,1.262-0.037,1.996c-0.025,0.736-0.095,1.5-0.209,2.295
			c-0.115,0.795-0.28,1.594-0.498,2.398c-0.221,0.805-0.521,1.57-0.91,2.295H3704.67z"/>
		<polygon fill="#003764" points="3708.841,279.45 3709.14,279.45 3709.14,289.833 3716.423,279.45 3716.885,279.45 
			3716.885,290.086 3716.587,290.086 3716.587,279.704 3709.303,290.086 3708.841,290.086 		"/>
		<polygon fill="#003764" points="3722.993,279.749 3719.179,279.749 3719.179,279.45 3727.119,279.45 3727.119,279.749 
			3723.29,279.749 3723.29,290.086 3722.993,290.086 		"/>
		<path fill="#003764" d="M3729.399,279.45h0.297v4.693h4.016c1.049,0,1.849,0.253,2.4,0.76c0.55,0.506,0.824,1.227,0.824,2.16
			c0,0.457-0.077,0.871-0.23,1.244c-0.154,0.372-0.376,0.689-0.668,0.953c-0.293,0.264-0.647,0.467-1.064,0.611
			c-0.416,0.144-0.886,0.215-1.411,0.215h-4.163V279.45z M3733.704,289.79c0.447,0,0.852-0.067,1.215-0.202
			c0.36-0.133,0.67-0.322,0.923-0.565c0.253-0.244,0.448-0.531,0.589-0.863c0.139-0.334,0.208-0.703,0.208-1.111
			c0-0.844-0.247-1.489-0.745-1.936c-0.497-0.447-1.227-0.671-2.189-0.671h-4.008v5.349H3733.704z M3739.082,279.45h0.298v10.637
			h-0.298V279.45z"/>
		<path fill="#003764" d="M3753.161,290.326c-0.796,0-1.497-0.147-2.108-0.44c-0.61-0.291-1.123-0.693-1.535-1.199
			c-0.411-0.506-0.725-1.094-0.938-1.765c-0.215-0.671-0.321-1.388-0.321-2.153c0-0.754,0.106-1.469,0.321-2.145
			c0.213-0.676,0.526-1.267,0.938-1.772c0.412-0.507,0.925-0.909,1.535-1.207c0.611-0.298,1.312-0.446,2.108-0.446
			c0.793,0,1.496,0.148,2.106,0.446c0.611,0.298,1.122,0.7,1.535,1.207c0.411,0.506,0.726,1.097,0.938,1.772s0.32,1.391,0.32,2.145
			c0,0.766-0.107,1.482-0.32,2.153s-0.527,1.259-0.938,1.765c-0.413,0.506-0.924,0.908-1.535,1.199
			C3754.657,290.178,3753.954,290.326,3753.161,290.326 M3753.161,290.042c0.715,0,1.357-0.132,1.928-0.396
			c0.572-0.262,1.054-0.628,1.445-1.094c0.393-0.467,0.696-1.023,0.91-1.669c0.213-0.646,0.319-1.351,0.319-2.116
			c0-0.764-0.106-1.469-0.319-2.114c-0.214-0.646-0.518-1.202-0.91-1.669c-0.392-0.467-0.873-0.831-1.445-1.095
			c-0.57-0.263-1.213-0.396-1.928-0.396c-0.716,0-1.358,0.133-1.93,0.396c-0.572,0.264-1.054,0.628-1.445,1.095
			s-0.695,1.023-0.908,1.669c-0.214,0.646-0.32,1.351-0.32,2.114c0,0.766,0.106,1.471,0.32,2.116
			c0.213,0.646,0.517,1.202,0.908,1.669c0.392,0.466,0.873,0.832,1.445,1.094C3751.803,289.911,3752.445,290.042,3753.161,290.042"
			/>
		<polygon fill="#003764" points="3761.057,279.45 3761.354,279.45 3761.354,284.397 3768.802,284.397 3768.802,279.45 
			3769.101,279.45 3769.101,290.086 3768.802,290.086 3768.802,284.694 3761.354,284.694 3761.354,290.086 3761.057,290.086 		"/>
		<path fill="#003764" d="M3772.317,290.162c-0.328,0-0.606-0.024-0.835-0.075v-0.312c0.248,0.06,0.521,0.09,0.819,0.09
			c0.547,0,0.974-0.268,1.281-0.805c0.308-0.535,0.536-1.271,0.686-2.204c0.148-0.935,0.238-2.034,0.269-3.301
			c0.029-1.266,0.044-2.634,0.044-4.104h6.362v10.637h-0.298v-10.338h-5.766c0,1.47-0.018,2.838-0.053,4.104
			c-0.035,1.266-0.133,2.366-0.298,3.3c-0.163,0.934-0.416,1.667-0.759,2.203C3773.427,289.893,3772.942,290.162,3772.317,290.162"
			/>
		<path fill="#003764" d="M3787.616,279.45h0.389l4.201,10.637h-0.328l-1.4-3.5h-5.423l-1.415,3.5h-0.328L3787.616,279.45z
			 M3790.356,286.288l-2.53-6.539h-0.03l-2.621,6.539H3790.356z"/>
		<path fill="#003764" d="M3794.574,279.45h0.298v10.384l7.285-10.384h0.461v10.639h-0.298v-10.385l-7.285,10.385h-0.461V279.45z
			 M3796.763,276.545h0.299c0.169,0.864,0.675,1.297,1.52,1.297c0.895,0,1.41-0.433,1.549-1.297h0.299
			c-0.179,1.062-0.8,1.595-1.863,1.595C3797.562,278.14,3796.962,277.608,3796.763,276.545"/>
		<polygon fill="#003764" points="3805.956,279.45 3806.253,279.45 3806.253,284.397 3813.702,284.397 3813.702,279.45 3814,279.45 
			3814,290.086 3813.702,290.086 3813.702,284.694 3806.253,284.694 3806.253,290.086 3805.956,290.086 		"/>
	</g>
	<path fill="#003764" d="M3618.72,214.092h24.647c12.433,0,15.61,7.767,15.61,12.996c0,7.273-4.095,9.322-6.217,10.381
		c6.217,2.33,7.84,7.273,7.84,12.289c0,4.025-1.694,7.84-4.379,10.452c-2.89,2.827-5.648,4.592-16.031,4.592h-21.471V214.092z
		 M3628.89,233.939h12.43c4.17,0,7.491-1.624,7.491-5.651c0-4.166-2.969-5.439-7.773-5.439h-12.147V233.939z M3628.89,256.043h13
		c5.15,0,8.121-2.26,8.121-7.413c0-4.45-3.817-6.147-7.631-6.147h-13.49V256.043z"/>
	<path fill="#003764" d="M3699.372,257.456c0,4.449,0.989,5.438,2.189,5.865v1.481h-10.665c-0.563-1.765-0.708-2.331-0.917-4.448
		c-2.26,2.331-5.437,5.437-12.146,5.437c-5.651,0-11.444-3.177-11.444-10.948c0-7.344,4.662-11.085,10.949-12.004l8.899-1.342
		c1.554-0.211,3.458-0.85,3.458-2.966c0-4.167-3.953-4.38-6.499-4.38c-4.943,0-5.79,3.037-6.073,5.226h-9.535
		c1.132-11.513,9.115-13.137,16.81-13.137c5.298,0,14.974,1.624,14.974,10.878V257.456z M3689.696,246.508
		c-0.99,0.779-2.613,1.415-6.709,2.051c-3.67,0.635-6.711,1.555-6.711,5.648c0,3.463,2.687,4.52,4.59,4.52
		c4.381,0,8.83-2.821,8.83-7.412V246.508z"/>
	<path fill="#003764" d="M3742.17,264.802h-9.885v-22.813c0-2.755-0.144-7.414-6.43-7.414c-4.378,0-7.767,2.965-7.767,8.687v21.541
		h-9.887v-37.573h9.46v5.509h0.146c1.341-2.261,4.162-6.498,11.298-6.498c7.345,0,13.064,4.309,13.064,12.571V264.802z"/>
	<polygon fill="#003764" points="3761.522,264.802 3751.636,264.802 3751.636,214.092 3761.522,214.092 3761.522,241.497 
		3773.953,227.229 3786.102,227.229 3772.821,241.777 3786.45,264.802 3774.587,264.802 3765.614,248.702 3761.522,252.937 	"/>
	<g>
		<path fill="#003764" d="M3796.255,215.999v7.914h-2.431v-7.914h-2.789v-1.906h8.009v1.906H3796.255z M3809.389,223.913v-6.96
			h-0.047l-2.527,6.96h-1.645l-2.526-6.96h-0.048v6.96h-2.288v-9.82h3.242l2.454,6.459l2.456-6.459h3.218v9.82H3809.389z"/>
	</g>
</g>
<g>
	<g>
		<rect x="16.912" fill="#009BDE" width="16.907" height="16.909"/>
		<rect x="16.912" y="16.909" fill="#0055B8" width="16.907" height="16.909"/>
		<polygon fill="#61B4E4" points="0,16.909 16.911,16.909 0,33.818 		"/>
		<polygon fill="#61B4E4" points="16.912,16.909 0.001,16.909 16.912,0 		"/>
		<rect x="16.912" y="33.818" fill="#003764" width="16.907" height="16.909"/>
		<rect x="16.912" y="50.728" fill="#11253A" width="16.907" height="16.908"/>
	</g>
	<g>
		<path fill="#003764" d="M15.813,82.267h7.001v0.299h-6.702v4.395h4.237c1.05,0,1.851,0.253,2.401,0.76
			c0.549,0.506,0.824,1.227,0.824,2.16c0,0.457-0.076,0.871-0.23,1.244c-0.154,0.371-0.377,0.689-0.669,0.953
			s-0.646,0.467-1.063,0.611c-0.416,0.144-0.887,0.215-1.413,0.215h-4.386V82.267z M20.343,92.606c0.446,0,0.852-0.067,1.214-0.202
			c0.362-0.133,0.67-0.322,0.923-0.565c0.254-0.244,0.45-0.535,0.589-0.871c0.14-0.338,0.208-0.705,0.208-1.104
			c0-0.844-0.247-1.489-0.744-1.936c-0.496-0.447-1.227-0.671-2.189-0.671h-4.23v5.349H20.343z"/>
		<path fill="#003764" d="M26.644,82.267h0.298v4.693h4.014c1.051,0,1.852,0.253,2.401,0.76c0.551,0.506,0.825,1.227,0.825,2.16
			c0,0.457-0.077,0.871-0.229,1.244c-0.154,0.372-0.377,0.689-0.67,0.953s-0.646,0.467-1.062,0.611
			c-0.418,0.144-0.888,0.215-1.414,0.215h-4.162V82.267z M30.949,92.606c0.448,0,0.852-0.067,1.214-0.202
			c0.362-0.133,0.67-0.322,0.924-0.565c0.254-0.244,0.449-0.531,0.588-0.863c0.139-0.334,0.209-0.703,0.209-1.111
			c0-0.844-0.248-1.489-0.744-1.936c-0.497-0.447-1.228-0.671-2.19-0.671h-4.008v5.349H30.949z M36.326,82.267h0.299v10.637h-0.299
			V82.267z"/>
		<path fill="#003764" d="M44.342,93.143c-0.705,0-1.354-0.137-1.944-0.41c-0.592-0.273-1.098-0.649-1.52-1.132
			s-0.752-1.059-0.99-1.729s-0.357-1.401-0.357-2.197c0-0.646,0.092-1.303,0.274-1.973c0.185-0.672,0.475-1.279,0.872-1.826
			c0.398-0.546,0.914-0.992,1.55-1.341c0.635-0.347,1.404-0.521,2.31-0.521c0.703,0,1.32,0.116,1.847,0.35
			c0.525,0.233,0.965,0.525,1.317,0.879c0.354,0.354,0.62,0.727,0.798,1.125c0.179,0.396,0.272,0.76,0.282,1.086h-0.297
			c-0.03-0.386-0.145-0.766-0.343-1.139c-0.199-0.373-0.47-0.707-0.812-1.006s-0.749-0.538-1.221-0.722
			c-0.472-0.185-0.995-0.276-1.571-0.276c-0.586,0-1.108,0.082-1.565,0.246c-0.456,0.164-0.858,0.383-1.206,0.655
			c-0.35,0.274-0.646,0.592-0.895,0.954c-0.248,0.361-0.449,0.741-0.604,1.14c-0.153,0.397-0.265,0.8-0.335,1.206
			c-0.069,0.408-0.104,0.795-0.104,1.162c0,0.676,0.099,1.326,0.298,1.951c0.198,0.626,0.491,1.178,0.879,1.654
			c0.387,0.477,0.861,0.859,1.422,1.146c0.561,0.289,1.2,0.433,1.915,0.433c0.635,0,1.206-0.104,1.714-0.312
			c0.506-0.21,0.943-0.497,1.311-0.864c0.367-0.368,0.665-0.805,0.894-1.311c0.228-0.508,0.383-1.053,0.462-1.639h0.298
			c-0.089,0.645-0.258,1.238-0.507,1.779c-0.248,0.541-0.568,1.006-0.961,1.393c-0.392,0.388-0.858,0.691-1.4,0.909
			C45.609,93.033,45.007,93.143,44.342,93.143"/>
		<polygon fill="#003764" points="54.666,82.565 50.853,82.565 50.853,82.267 58.792,82.267 58.792,82.565 54.964,82.565 
			54.964,92.903 54.666,92.903 		"/>
		<path fill="#003764" d="M61.071,82.267h4.305c1.024,0,1.818,0.244,2.385,0.73c0.565,0.486,0.848,1.211,0.848,2.176
			c0,0.467-0.084,0.881-0.253,1.244c-0.168,0.361-0.401,0.666-0.7,0.908c-0.297,0.243-0.654,0.427-1.073,0.551
			c-0.416,0.125-0.868,0.186-1.354,0.186h-3.859v4.842h-0.297V82.267z M65.376,87.765c0.418,0,0.807-0.057,1.162-0.172
			c0.357-0.113,0.668-0.283,0.931-0.506c0.264-0.224,0.47-0.494,0.619-0.812c0.149-0.316,0.224-0.686,0.224-1.102
			c0-0.844-0.241-1.489-0.722-1.938c-0.483-0.446-1.221-0.67-2.214-0.67h-4.008v5.199H65.376z"/>
		<path fill="#003764" d="M71.35,82.267h0.298v4.693h4.015c1.05,0,1.851,0.253,2.4,0.76c0.551,0.506,0.826,1.227,0.826,2.16
			c0,0.457-0.078,0.871-0.23,1.244c-0.154,0.372-0.377,0.689-0.67,0.953c-0.292,0.264-0.647,0.467-1.062,0.611
			c-0.417,0.144-0.888,0.215-1.412,0.215H71.35V82.267z M75.656,92.606c0.446,0,0.851-0.067,1.213-0.202
			c0.362-0.133,0.671-0.322,0.925-0.565c0.252-0.244,0.449-0.531,0.588-0.863c0.139-0.334,0.208-0.703,0.208-1.111
			c0-0.844-0.247-1.489-0.745-1.936c-0.497-0.447-1.226-0.671-2.188-0.671h-4.009v5.349H75.656z M81.033,82.267h0.298v10.637h-0.298
			V82.267z"/>
		<polygon fill="#003764" points="84.668,82.267 91.729,82.267 91.729,82.565 84.967,82.565 84.967,87.214 91.327,87.214 
			91.327,87.511 84.967,87.511 84.967,92.606 91.789,92.606 91.789,92.903 84.668,92.903 		"/>
		<polygon fill="#003764" points="100.266,82.267 100.563,82.267 100.563,88.733 107.938,82.267 108.386,82.267 103.245,86.796 
			108.683,92.903 108.28,92.903 103.007,86.975 100.563,89.135 100.563,92.903 100.266,92.903 		"/>
		<path fill="#003764" d="M110.827,82.267h4.305c1.024,0,1.819,0.244,2.384,0.73c0.567,0.486,0.851,1.211,0.851,2.176
			c0,0.467-0.086,0.881-0.254,1.244c-0.169,0.361-0.402,0.666-0.7,0.908c-0.298,0.243-0.655,0.427-1.072,0.551
			c-0.417,0.125-0.87,0.186-1.356,0.186h-3.857v4.842h-0.299V82.267z M115.132,87.765c0.418,0,0.806-0.057,1.164-0.172
			c0.355-0.113,0.666-0.283,0.93-0.506c0.263-0.224,0.469-0.494,0.617-0.812c0.15-0.316,0.225-0.686,0.225-1.102
			c0-0.844-0.24-1.489-0.724-1.938c-0.48-0.446-1.218-0.67-2.212-0.67h-4.006v5.199H115.132z"/>
		<polygon fill="#003764" points="121.106,82.267 128.167,82.267 128.167,82.565 121.403,82.565 121.403,87.214 127.766,87.214 
			127.766,87.511 121.403,87.511 121.403,92.606 128.228,92.606 128.228,92.903 121.106,92.903 		"/>
		<path fill="#003764" d="M130.03,92.606h0.982c0.417-0.775,0.74-1.584,0.969-2.429s0.399-1.683,0.514-2.519
			c0.113-0.834,0.181-1.638,0.201-2.412c0.021-0.775,0.029-1.476,0.029-2.1v-0.881h6.242v10.34h1.191v2.919h-0.297v-2.622h-9.534
			v2.622h-0.298V92.606z M138.67,92.606V82.565h-5.646v1.057c0,0.597-0.013,1.262-0.037,1.996c-0.025,0.736-0.095,1.5-0.209,2.295
			c-0.115,0.795-0.28,1.594-0.498,2.398c-0.221,0.805-0.521,1.57-0.91,2.295H138.67z"/>
		<polygon fill="#003764" points="142.841,82.267 143.14,82.267 143.14,92.65 150.423,82.267 150.885,82.267 150.885,92.903 
			150.587,92.903 150.587,82.521 143.303,92.903 142.841,92.903 		"/>
		<polygon fill="#003764" points="156.993,82.565 153.179,82.565 153.179,82.267 161.119,82.267 161.119,82.565 157.29,82.565 
			157.29,92.903 156.993,92.903 		"/>
		<path fill="#003764" d="M163.399,82.267h0.297v4.693h4.016c1.049,0,1.849,0.253,2.4,0.76c0.55,0.506,0.824,1.227,0.824,2.16
			c0,0.457-0.077,0.871-0.23,1.244c-0.154,0.372-0.376,0.689-0.668,0.953c-0.293,0.264-0.647,0.467-1.064,0.611
			c-0.416,0.144-0.886,0.215-1.411,0.215h-4.163V82.267z M167.704,92.606c0.447,0,0.852-0.067,1.215-0.202
			c0.36-0.133,0.67-0.322,0.923-0.565c0.253-0.244,0.448-0.531,0.589-0.863c0.139-0.334,0.208-0.703,0.208-1.111
			c0-0.844-0.247-1.489-0.745-1.936c-0.497-0.447-1.227-0.671-2.189-0.671h-4.008v5.349H167.704z M173.082,82.267h0.298v10.637
			h-0.298V82.267z"/>
		<path fill="#003764" d="M187.161,93.143c-0.796,0-1.497-0.147-2.108-0.44c-0.61-0.291-1.123-0.693-1.535-1.199
			c-0.411-0.506-0.725-1.094-0.938-1.765c-0.215-0.671-0.321-1.388-0.321-2.153c0-0.754,0.106-1.469,0.321-2.145
			c0.213-0.676,0.526-1.267,0.938-1.772c0.412-0.507,0.925-0.909,1.535-1.207c0.611-0.298,1.312-0.446,2.108-0.446
			c0.793,0,1.496,0.148,2.106,0.446c0.611,0.298,1.122,0.7,1.535,1.207c0.411,0.506,0.726,1.097,0.938,1.772s0.32,1.391,0.32,2.145
			c0,0.766-0.107,1.482-0.32,2.153s-0.527,1.259-0.938,1.765c-0.413,0.506-0.924,0.908-1.535,1.199
			C188.657,92.995,187.954,93.143,187.161,93.143 M187.161,92.859c0.715,0,1.357-0.132,1.928-0.396
			c0.572-0.262,1.054-0.628,1.445-1.094c0.393-0.467,0.696-1.023,0.91-1.669c0.213-0.646,0.319-1.351,0.319-2.116
			c0-0.764-0.106-1.469-0.319-2.114c-0.214-0.646-0.518-1.202-0.91-1.669c-0.392-0.467-0.873-0.831-1.445-1.095
			c-0.57-0.263-1.213-0.396-1.928-0.396c-0.716,0-1.358,0.133-1.93,0.396c-0.572,0.264-1.054,0.628-1.445,1.095
			s-0.695,1.023-0.908,1.669c-0.214,0.646-0.32,1.351-0.32,2.114c0,0.766,0.106,1.471,0.32,2.116
			c0.213,0.646,0.517,1.202,0.908,1.669c0.392,0.466,0.873,0.832,1.445,1.094C185.803,92.728,186.445,92.859,187.161,92.859"/>
		<polygon fill="#003764" points="195.057,82.267 195.354,82.267 195.354,87.214 202.802,87.214 202.802,82.267 203.101,82.267 
			203.101,92.903 202.802,92.903 202.802,87.511 195.354,87.511 195.354,92.903 195.057,92.903 		"/>
		<path fill="#003764" d="M206.317,92.979c-0.328,0-0.606-0.024-0.835-0.075v-0.312c0.248,0.06,0.521,0.09,0.819,0.09
			c0.547,0,0.974-0.268,1.281-0.805c0.308-0.535,0.536-1.271,0.686-2.204c0.148-0.935,0.238-2.034,0.269-3.301
			c0.029-1.266,0.044-2.634,0.044-4.104h6.362v10.637h-0.298V82.565h-5.766c0,1.47-0.018,2.838-0.053,4.104
			c-0.035,1.266-0.133,2.366-0.298,3.3c-0.163,0.934-0.416,1.667-0.759,2.203C207.427,92.71,206.942,92.979,206.317,92.979"/>
		<path fill="#003764" d="M221.616,82.267h0.389l4.201,10.637h-0.328l-1.4-3.5h-5.423l-1.415,3.5h-0.328L221.616,82.267z
			 M224.356,89.104l-2.53-6.539h-0.03l-2.621,6.539H224.356z"/>
		<path fill="#003764" d="M228.574,82.267h0.298V92.65l7.285-10.384h0.461v10.639h-0.298V82.521l-7.285,10.385h-0.461V82.267z
			 M230.763,79.362h0.299c0.169,0.864,0.675,1.297,1.52,1.297c0.895,0,1.41-0.433,1.549-1.297h0.299
			c-0.179,1.062-0.8,1.595-1.863,1.595C231.562,80.957,230.962,80.425,230.763,79.362"/>
		<polygon fill="#003764" points="239.956,82.267 240.253,82.267 240.253,87.214 247.702,87.214 247.702,82.267 248,82.267 
			248,92.903 247.702,92.903 247.702,87.511 240.253,87.511 240.253,92.903 239.956,92.903 		"/>
	</g>
	<path fill="#003764" d="M52.72,16.909h24.647c12.433,0,15.61,7.767,15.61,12.996c0,7.274-4.095,9.323-6.217,10.381
		c6.217,2.33,7.84,7.273,7.84,12.289c0,4.025-1.694,7.84-4.379,10.452c-2.89,2.827-5.648,4.592-16.031,4.592H52.72V16.909z
		 M62.89,36.756h12.43c4.17,0,7.491-1.625,7.491-5.651c0-4.167-2.969-5.439-7.773-5.439H62.89V36.756z M62.89,58.86h13
		c5.15,0,8.121-2.26,8.121-7.413c0-4.45-3.817-6.148-7.631-6.148H62.89V58.86z"/>
	<path fill="#003764" d="M133.372,60.272c0,4.449,0.989,5.438,2.189,5.865v1.481h-10.665c-0.563-1.765-0.708-2.331-0.917-4.448
		c-2.26,2.331-5.437,5.437-12.146,5.437c-5.651,0-11.444-3.177-11.444-10.948c0-7.344,4.662-11.085,10.949-12.004l8.899-1.342
		c1.554-0.211,3.458-0.85,3.458-2.966c0-4.167-3.953-4.38-6.499-4.38c-4.943,0-5.79,3.038-6.073,5.226h-9.535
		c1.132-11.513,9.115-13.137,16.81-13.137c5.298,0,14.974,1.624,14.974,10.877V60.272z M123.696,49.325
		c-0.99,0.779-2.613,1.415-6.709,2.051c-3.67,0.635-6.711,1.555-6.711,5.648c0,3.463,2.687,4.52,4.59,4.52
		c4.381,0,8.83-2.821,8.83-7.412V49.325z"/>
	<path fill="#003764" d="M176.17,67.619h-9.885V44.805c0-2.754-0.144-7.414-6.43-7.414c-4.378,0-7.767,2.964-7.767,8.687v21.541
		h-9.887V30.046h9.46v5.508h0.146c1.341-2.26,4.162-6.498,11.298-6.498c7.345,0,13.064,4.309,13.064,12.571V67.619z"/>
	<polygon fill="#003764" points="195.522,67.619 185.636,67.619 185.636,16.909 195.522,16.909 195.522,44.313 207.953,30.046 
		220.102,30.046 206.821,44.594 220.45,67.619 208.587,67.619 199.614,51.519 195.522,55.754 	"/>
	<g>
		<path fill="#003764" d="M230.255,18.815v7.915h-2.431v-7.915h-2.789v-1.906h8.009v1.906H230.255z M243.389,26.73v-6.96h-0.047
			l-2.527,6.96h-1.645l-2.526-6.96h-0.048v6.96h-2.288v-9.821h3.242l2.454,6.459l2.456-6.459h3.218v9.821H243.389z"/>
	</g>
</g>
</svg>
