<?xml version="1.0" encoding="utf-8"?>
<!-- Generator: Adobe Illustrator 16.0.0, SVG Export Plug-In . SVG Version: 6.00 Build 0)  -->
<!DOCTYPE svg PUBLIC "-//W3C//DTD SVG 1.1//EN" "http://www.w3.org/Graphics/SVG/1.1/DTD/svg11.dtd">
<svg version="1.1" id="Шар_1" xmlns="http://www.w3.org/2000/svg" xmlns:xlink="http://www.w3.org/1999/xlink" x="0px" y="0px"
	 width="248px" height="92.075px" viewBox="0 0 248 92.075" enable-background="new 0 0 248 92.075" xml:space="preserve">
<g>
	<g>
		<path fill="#ffffff" d="M50.428,16.174h23.575c11.893,0,14.932,7.429,14.932,12.43c0,6.958-3.917,8.918-5.946,9.93
			c5.946,2.229,7.499,6.958,7.499,11.754c0,3.852-1.621,7.499-4.188,9.998c-2.764,2.704-5.403,4.393-15.334,4.393H50.428V16.174z
			 M60.155,35.157h11.89c3.987,0,7.165-1.554,7.165-5.406c0-3.985-2.839-5.202-7.436-5.202H60.155V35.157z M60.155,56.3H72.59
			c4.926,0,7.768-2.16,7.768-7.09c0-4.257-3.652-5.88-7.299-5.88H60.155V56.3z"/>
		<path fill="#ffffff" d="M127.57,57.651c0,4.256,0.947,5.201,2.097,5.609v1.418h-10.202c-0.539-1.688-0.677-2.229-0.877-4.255
			c-2.161,2.229-5.2,5.199-11.617,5.199c-5.407,0-10.946-3.038-10.946-10.472c0-7.024,4.458-10.604,10.472-11.482l8.513-1.283
			c1.487-0.202,3.308-0.813,3.308-2.837c0-3.986-3.781-4.189-6.217-4.189c-4.728,0-5.538,2.906-5.809,4.999h-9.12
			c1.083-11.013,8.719-12.565,16.079-12.565c5.067,0,14.322,1.553,14.322,10.404v19.453H127.57z M118.317,47.181
			c-0.947,0.744-2.5,1.354-6.417,1.961c-3.511,0.607-6.419,1.486-6.419,5.402c0,3.313,2.569,4.323,4.39,4.323
			c4.189,0,8.446-2.698,8.446-7.091V47.181z"/>
		<path fill="#ffffff" d="M168.509,64.679h-9.454V42.857c0-2.635-0.139-7.091-6.15-7.091c-4.188,0-7.43,2.836-7.43,8.309v20.604
			h-9.457V28.739h9.049v5.27h0.141c1.281-2.162,3.98-6.215,10.807-6.215c7.025,0,12.496,4.121,12.496,12.024L168.509,64.679
			L168.509,64.679z"/>
		<polygon fill="#ffffff" points="187.02,64.679 177.563,64.679 177.563,16.174 187.02,16.174 187.02,42.387 198.909,28.739 
			210.529,28.739 197.827,42.655 210.863,64.679 199.516,64.679 190.934,49.278 187.02,53.33 		"/>
		<path fill="#ffffff" d="M15.801,78.815h7.001v0.3h-6.704v4.394h4.237c1.051,0,1.852,0.254,2.401,0.76
			c0.55,0.508,0.825,1.229,0.825,2.162c0,0.457-0.077,0.87-0.23,1.242c-0.154,0.373-0.377,0.691-0.669,0.954
			c-0.292,0.265-0.647,0.467-1.064,0.61c-0.417,0.145-0.887,0.217-1.413,0.217h-4.386V78.815H15.801z M20.331,89.156
			c0.446,0,0.851-0.067,1.214-0.202c0.362-0.133,0.67-0.322,0.923-0.564c0.253-0.244,0.449-0.535,0.589-0.871
			c0.139-0.338,0.208-0.705,0.208-1.104c0-0.845-0.248-1.489-0.744-1.937c-0.497-0.446-1.227-0.67-2.19-0.67H16.1v5.349H20.331z"/>
		<path fill="#ffffff" d="M26.631,78.815h0.298v4.692h4.014c1.051,0,1.852,0.255,2.401,0.761c0.55,0.508,0.825,1.228,0.825,2.162
			c0,0.455-0.077,0.869-0.23,1.241c-0.154,0.373-0.377,0.69-0.669,0.954s-0.647,0.467-1.063,0.611
			c-0.417,0.144-0.887,0.216-1.413,0.216H26.63L26.631,78.815L26.631,78.815z M30.938,89.156c0.447,0,0.852-0.067,1.214-0.202
			c0.363-0.133,0.67-0.322,0.924-0.564c0.253-0.244,0.449-0.531,0.588-0.863c0.139-0.334,0.208-0.703,0.208-1.111
			c0-0.844-0.249-1.489-0.745-1.936c-0.497-0.447-1.227-0.672-2.19-0.672H26.93v5.35L30.938,89.156L30.938,89.156z M36.315,78.815
			h0.298v10.638h-0.298V78.815z"/>
		<path fill="#ffffff" d="M44.331,89.692c-0.705,0-1.354-0.137-1.944-0.41c-0.591-0.273-1.098-0.649-1.519-1.133
			c-0.423-0.481-0.753-1.058-0.992-1.729c-0.238-0.67-0.357-1.402-0.357-2.197c0-0.646,0.092-1.303,0.276-1.974
			s0.474-1.278,0.872-1.825c0.397-0.546,0.914-0.992,1.549-1.341c0.636-0.349,1.406-0.521,2.31-0.521
			c0.705,0,1.321,0.117,1.847,0.351c0.526,0.231,0.966,0.524,1.318,0.878c0.353,0.354,0.619,0.729,0.797,1.125
			c0.179,0.396,0.273,0.76,0.283,1.088h-0.298c-0.03-0.387-0.144-0.768-0.343-1.14c-0.199-0.373-0.469-0.707-0.812-1.007
			c-0.343-0.299-0.75-0.537-1.222-0.721c-0.472-0.186-0.996-0.277-1.572-0.277c-0.586,0-1.107,0.082-1.564,0.246
			s-0.859,0.384-1.207,0.656s-0.646,0.592-0.894,0.952c-0.248,0.363-0.45,0.742-0.604,1.142c-0.154,0.396-0.265,0.799-0.335,1.205
			c-0.069,0.408-0.104,0.795-0.104,1.162c0,0.676,0.099,1.326,0.297,1.951c0.199,0.626,0.492,1.178,0.879,1.654
			c0.388,0.477,0.862,0.859,1.423,1.146c0.56,0.289,1.199,0.433,1.914,0.433c0.636,0,1.207-0.104,1.714-0.313
			c0.506-0.209,0.943-0.496,1.31-0.863c0.368-0.369,0.666-0.806,0.895-1.312c0.228-0.508,0.382-1.053,0.462-1.639h0.297
			c-0.089,0.645-0.258,1.237-0.507,1.78c-0.248,0.539-0.568,1.004-0.96,1.393c-0.393,0.387-0.859,0.689-1.4,0.908
			C45.599,89.583,44.996,89.692,44.331,89.692"/>
		<polygon fill="#ffffff" points="54.655,79.115 50.841,79.115 50.841,78.815 58.782,78.815 58.782,79.115 54.953,79.115 
			54.953,89.454 54.655,89.454 		"/>
		<path fill="#ffffff" d="M61.061,78.815h4.307c1.022,0,1.817,0.244,2.383,0.729c0.567,0.487,0.849,1.212,0.849,2.177
			c0,0.467-0.084,0.881-0.253,1.243s-0.402,0.666-0.7,0.909c-0.297,0.243-0.655,0.427-1.073,0.551
			c-0.417,0.125-0.869,0.188-1.355,0.188H61.36v4.842h-0.298L61.061,78.815L61.061,78.815z M65.367,84.313
			c0.417,0,0.804-0.057,1.162-0.172c0.357-0.113,0.667-0.283,0.931-0.506c0.263-0.224,0.47-0.494,0.619-0.813
			c0.149-0.317,0.223-0.686,0.223-1.104c0-0.844-0.241-1.488-0.722-1.937c-0.482-0.447-1.219-0.671-2.212-0.671H61.36v5.199h4.007
			V84.313z"/>
		<path fill="#ffffff" d="M71.34,78.815h0.298v4.692h4.014c1.05,0,1.851,0.255,2.401,0.761c0.551,0.508,0.826,1.228,0.826,2.162
			c0,0.455-0.077,0.869-0.23,1.241c-0.154,0.373-0.377,0.69-0.669,0.954s-0.647,0.467-1.063,0.611
			c-0.417,0.144-0.887,0.216-1.413,0.216H71.34V78.815z M75.646,89.156c0.446,0,0.851-0.067,1.214-0.202
			c0.362-0.133,0.67-0.322,0.924-0.564c0.253-0.244,0.449-0.531,0.588-0.863c0.139-0.334,0.208-0.703,0.208-1.111
			c0-0.844-0.249-1.489-0.745-1.936c-0.497-0.447-1.227-0.672-2.189-0.672h-4.008v5.35L75.646,89.156L75.646,89.156z M81.024,78.815
			h0.298v10.638h-0.298V78.815z"/>
		<polygon fill="#ffffff" points="84.659,78.815 91.721,78.815 91.721,79.115 84.958,79.115 84.958,83.763 91.319,83.763 
			91.319,84.06 84.958,84.06 84.958,89.156 91.781,89.156 91.781,89.454 84.659,89.454 		"/>
		<polygon fill="#ffffff" points="100.257,78.815 100.556,78.815 100.556,85.283 107.93,78.815 108.377,78.815 103.237,83.345 
			108.675,89.454 108.272,89.454 102.999,83.524 100.556,85.685 100.556,89.454 100.257,89.454 		"/>
		<path fill="#ffffff" d="M110.82,78.815h4.306c1.023,0,1.818,0.244,2.383,0.729c0.567,0.487,0.849,1.212,0.849,2.177
			c0,0.467-0.084,0.881-0.252,1.243c-0.169,0.362-0.403,0.666-0.701,0.909c-0.298,0.243-0.655,0.427-1.073,0.551
			c-0.417,0.125-0.869,0.188-1.355,0.188h-3.859v4.842h-0.298V78.815z M115.125,84.313c0.417,0,0.805-0.057,1.162-0.172
			c0.357-0.113,0.667-0.283,0.931-0.506c0.263-0.224,0.469-0.494,0.618-0.813c0.149-0.317,0.224-0.686,0.224-1.104
			c0-0.844-0.24-1.488-0.723-1.937c-0.481-0.447-1.219-0.671-2.211-0.671h-4.008v5.199h4.007V84.313z"/>
		<polygon fill="#ffffff" points="121.1,78.815 128.161,78.815 128.161,79.115 121.397,79.115 121.397,83.763 127.759,83.763 
			127.759,84.06 121.397,84.06 121.397,89.156 128.221,89.156 128.221,89.454 121.1,89.454 		"/>
		<path fill="#ffffff" d="M130.023,89.156h0.981c0.418-0.774,0.741-1.585,0.97-2.429c0.229-0.846,0.399-1.684,0.514-2.52
			c0.113-0.834,0.182-1.639,0.201-2.412c0.021-0.775,0.029-1.477,0.029-2.102v-0.879h6.242v10.34h1.191v2.92h-0.297v-2.622h-9.535
			v2.622h-0.299v-2.919H130.023z M138.664,89.156V79.115h-5.646v1.057c0,0.597-0.013,1.263-0.037,1.997s-0.094,1.499-0.207,2.294
			c-0.115,0.795-0.281,1.595-0.5,2.397c-0.219,0.806-0.521,1.57-0.908,2.296H138.664z"/>
		<polygon fill="#ffffff" points="142.835,78.815 143.134,78.815 143.134,89.2 150.418,78.815 150.88,78.815 150.88,89.454 
			150.582,89.454 150.582,79.069 143.297,89.454 142.835,89.454 		"/>
		<polygon fill="#ffffff" points="156.988,79.115 153.174,79.115 153.174,78.815 161.115,78.815 161.115,79.115 157.286,79.115 
			157.286,89.454 156.988,89.454 		"/>
		<path fill="#ffffff" d="M163.395,78.815h0.299v4.692h4.015c1.05,0,1.851,0.255,2.399,0.761c0.551,0.508,0.826,1.228,0.826,2.162
			c0,0.455-0.078,0.869-0.23,1.241c-0.154,0.373-0.377,0.69-0.669,0.954c-0.293,0.264-0.647,0.467-1.063,0.611
			c-0.416,0.144-0.887,0.216-1.412,0.216h-4.162V78.815H163.395z M167.699,89.156c0.447,0,0.853-0.067,1.215-0.202
			c0.361-0.133,0.67-0.322,0.924-0.564c0.253-0.244,0.448-0.531,0.588-0.863c0.141-0.334,0.209-0.703,0.209-1.111
			c0-0.844-0.248-1.489-0.744-1.936c-0.498-0.447-1.229-0.672-2.19-0.672h-4.007v5.35L167.699,89.156L167.699,89.156z
			 M173.078,78.815h0.298v10.638h-0.298V78.815z"/>
		<path fill="#ffffff" d="M187.157,89.692c-0.796,0-1.497-0.146-2.108-0.439c-0.609-0.292-1.122-0.693-1.533-1.199
			c-0.412-0.506-0.727-1.096-0.938-1.766c-0.216-0.671-0.32-1.389-0.32-2.153c0-0.754,0.104-1.469,0.32-2.146
			c0.213-0.676,0.526-1.266,0.938-1.771c0.411-0.508,0.924-0.908,1.533-1.207c0.611-0.299,1.313-0.447,2.108-0.447
			c0.794,0,1.497,0.148,2.108,0.447c0.609,0.299,1.121,0.699,1.533,1.207c0.411,0.506,0.725,1.098,0.938,1.771
			c0.214,0.677,0.32,1.392,0.32,2.146c0,0.765-0.106,1.482-0.32,2.153c-0.213,0.67-0.526,1.26-0.938,1.765
			c-0.412,0.507-0.924,0.908-1.533,1.2C188.654,89.545,187.951,89.692,187.157,89.692 M187.157,89.409
			c0.715,0,1.358-0.133,1.929-0.395c0.571-0.264,1.053-0.63,1.445-1.096c0.393-0.467,0.695-1.023,0.908-1.669s0.32-1.353,0.32-2.116
			s-0.107-1.469-0.32-2.113c-0.213-0.646-0.517-1.203-0.908-1.67c-0.393-0.468-0.874-0.832-1.445-1.096
			c-0.57-0.263-1.214-0.395-1.929-0.395c-0.716,0-1.358,0.132-1.929,0.395c-0.572,0.264-1.055,0.628-1.446,1.096
			c-0.392,0.467-0.695,1.023-0.908,1.67c-0.214,0.646-0.319,1.35-0.319,2.113s0.105,1.471,0.319,2.116
			c0.213,0.646,0.517,1.202,0.908,1.669c0.393,0.466,0.874,0.832,1.446,1.096C185.799,89.276,186.441,89.409,187.157,89.409"/>
		<polygon fill="#ffffff" points="195.053,78.815 195.352,78.815 195.352,83.763 202.8,83.763 202.8,78.815 203.098,78.815 
			203.098,89.454 202.8,89.454 202.8,84.06 195.352,84.06 195.352,89.454 195.053,89.454 		"/>
		<path fill="#ffffff" d="M206.314,89.528c-0.328,0-0.605-0.024-0.834-0.074V89.14c0.248,0.061,0.521,0.09,0.818,0.09
			c0.547,0,0.975-0.268,1.281-0.805c0.309-0.535,0.536-1.271,0.686-2.203c0.148-0.936,0.238-2.035,0.27-3.302
			c0.029-1.267,0.044-2.634,0.044-4.104h6.362v10.639h-0.299V79.115h-5.767c0,1.47-0.017,2.837-0.052,4.104
			c-0.034,1.267-0.133,2.366-0.299,3.3c-0.164,0.935-0.416,1.668-0.76,2.205C207.423,89.259,206.939,89.528,206.314,89.528"/>
		<path fill="#ffffff" d="M221.615,78.815h0.389l4.201,10.639h-0.328l-1.4-3.501h-5.422l-1.416,3.501h-0.328L221.615,78.815z
			 M224.355,85.653l-2.531-6.538h-0.03l-2.621,6.538H224.355z"/>
		<path fill="#ffffff" d="M228.573,78.815h0.298V89.2l7.283-10.385h0.463v10.64h-0.299V79.069l-7.283,10.386h-0.462V78.815z
			 M230.764,75.911h0.297c0.17,0.863,0.676,1.297,1.521,1.297c0.896,0,1.41-0.434,1.549-1.297h0.3
			c-0.18,1.063-0.801,1.595-1.863,1.595C231.563,77.505,230.961,76.974,230.764,75.911"/>
		<polygon fill="#ffffff" points="239.955,78.815 240.253,78.815 240.253,83.763 247.701,83.763 247.701,78.815 248,78.815 
			248,89.454 247.701,89.454 247.701,84.06 240.253,84.06 240.253,89.454 239.955,89.454 		"/>
		<g>
			<path fill="#ffffff" d="M214.713,63.421c0-0.895,0.604-1.521,1.449-1.521c0.845,0,1.425,0.629,1.425,1.521
				c0,0.87-0.556,1.521-1.448,1.521C215.292,64.942,214.713,64.292,214.713,63.421z"/>
			<path fill="#ffffff" d="M229.999,61.49c0,1.206,0.024,2.271,0.097,3.188h-1.884l-0.121-1.908h-0.048
				c-0.555,0.941-1.787,2.174-3.863,2.174c-1.837,0-4.033-1.016-4.033-5.119V52.99h2.125v6.473c0,2.222,0.676,3.72,2.607,3.72
				c1.426,0,2.416-0.99,2.803-1.934c0.12-0.313,0.192-0.7,0.192-1.086V52.99h2.125V61.49L229.999,61.49z"/>
			<path fill="#ffffff" d="M239.997,64.677l-0.169-1.473h-0.072c-0.652,0.917-1.906,1.738-3.574,1.738
				c-2.367,0-3.574-1.666-3.574-3.356c0-2.826,2.513-4.371,7.027-4.349v-0.24c0-0.966-0.266-2.705-2.656-2.705
				c-1.086,0-2.222,0.338-3.043,0.869l-0.482-1.4c0.967-0.628,2.367-1.037,3.841-1.037c3.574,0,4.442,2.438,4.442,4.78v4.371
				c0,1.015,0.049,2.005,0.193,2.802H239.997z M239.684,58.712c-2.317-0.049-4.951,0.362-4.951,2.633
				c0,1.377,0.918,2.027,2.006,2.027c1.521,0,2.486-0.965,2.824-1.955c0.072-0.218,0.121-0.459,0.121-0.677V58.712z"/>
		</g>
		<g>
			<rect x="16.177" fill="#ffffff" width="16.171" height="16.174"/>
			<rect x="16.177" y="16.174" fill="#ffffff" width="16.171" height="16.174"/>
			<polygon fill="#ffffff" points="0,16.174 16.176,16.174 0,32.348 			"/>
			<polygon fill="#ffffff" points="16.177,16.174 0,16.174 16.177,0 			"/>
			<rect x="16.177" y="32.348" fill="#ffffff" width="16.171" height="16.172"/>
			<rect x="16.177" y="48.521" fill="#ffffff" width="16.171" height="16.174"/>
		</g>
	</g>
</g>
</svg>
