<?xml version="1.0" encoding="utf-8"?>
<!-- Generator: Adobe Illustrator 16.0.0, SVG Export Plug-In . SVG Version: 6.00 Build 0)  -->
<!DOCTYPE svg PUBLIC "-//W3C//DTD SVG 1.1//EN" "http://www.w3.org/Graphics/SVG/1.1/DTD/svg11.dtd">
<svg version="1.1" id="Шар_1" xmlns="http://www.w3.org/2000/svg" xmlns:xlink="http://www.w3.org/1999/xlink" x="0px" y="0px"
	 width="233px" height="44.59px" viewBox="0 0 233 44.59" enable-background="new 0 0 233 44.59" xml:space="preserve">
<g>
	<path fill="#003764" d="M65.396,26.939V3.759h4.624l6.704,9.688l6.704-9.688h4.624v23.18h-4.183V9.811l-7.166,10.255L69.536,9.811
		v17.149h-4.14V26.939z"/>
	<path fill="#003764" d="M91.561,3.759h5.044l6.137,9.414l6.115-9.414h5.044l-9.057,13.238v9.942h-4.182v-9.942L91.561,3.759z"/>
	<path fill="#0055B8" d="M117.137,20.339c-0.441-1.429-0.651-3.108-0.651-5c0-1.893,0.21-3.573,0.651-5.001
		c0.441-1.431,1.01-2.585,1.703-3.449c0.693-0.861,1.534-1.555,2.521-2.08c0.987-0.547,1.956-0.903,2.879-1.071
		c0.946-0.19,1.954-0.274,3.048-0.274c2.375,0,4.708,0.462,7.019,1.366v3.91c-2.207-1.008-4.413-1.535-6.662-1.535
		c-1.051,0-1.934,0.083-2.67,0.273c-0.734,0.19-1.47,0.546-2.163,1.071c-0.715,0.528-1.239,1.368-1.619,2.501
		c-0.378,1.136-0.545,2.566-0.545,4.268c0,1.722,0.188,3.15,0.545,4.265c0.358,1.134,0.904,1.954,1.619,2.502
		c0.714,0.525,1.429,0.883,2.163,1.072c0.736,0.188,1.642,0.272,2.67,0.272c2.229,0,4.455-0.504,6.662-1.535v3.889
		c-2.311,0.924-4.664,1.387-7.019,1.387c-1.094,0-2.102-0.084-3.048-0.275c-0.945-0.188-1.892-0.545-2.879-1.07
		c-0.987-0.546-1.828-1.24-2.521-2.081C118.147,22.925,117.579,21.771,117.137,20.339z"/>
	<path fill="#0055B8" d="M139.203,26.939V3.759h8.912c2.712,0,4.834,0.651,6.326,1.932c1.513,1.282,2.269,3.133,2.269,5.528
		c0,3.531-1.701,5.821-5.084,6.852l6.093,8.868h-5.043l-5.527-8.175h-3.741v8.175H139.203z M143.387,14.938h4.623
		c1.408,0,2.521-0.25,3.319-0.756c0.799-0.502,1.199-1.45,1.199-2.857c0-1.429-0.4-2.397-1.199-2.88
		c-0.798-0.504-1.911-0.735-3.319-0.735h-4.623V14.938z"/>
	<path fill="#0055B8" d="M161.902,26.939V3.759h15.426V7.5h-11.243v5.862h9.75v3.931h-9.75v5.865h11.243v3.738h-15.426V26.939z"/>
	<path fill="#0055B8" d="M182.329,26.939V3.759h8.007c3.593,0,6.306,0.987,8.177,2.964c1.849,1.975,2.793,4.853,2.793,8.658
		c0,3.782-0.923,6.662-2.773,8.615c-1.849,1.977-4.581,2.964-8.175,2.964h-8.028V26.939z M186.491,23.199h3.824
		c2.418,0,4.14-0.612,5.191-1.829c1.051-1.22,1.597-3.216,1.597-5.989c0-2.793-0.525-4.814-1.597-6.034
		c-1.052-1.216-2.796-1.828-5.191-1.828h-3.824V23.199z"/>
	<path fill="#0055B8" d="M206.413,26.939V3.759h4.184v23.18H206.413z"/>
	<path fill="#0055B8" d="M214,7.94V3.759h19V7.94h-7.441v18.999h-4.182V7.94H214z"/>
	<g>
		<path fill="#003764" d="M39.099,1.986C38.306,0.894,36.552,0,35.202,0H2.454C1.104,0,0,1.104,0,2.455v3.89l42.266,0L39.099,1.986z
			"/>
		<path fill="#0055B8" d="M50.483,17.654l-5.167-7.112L0,10.543v26.282c0,1.351,1.104,2.455,2.454,2.455h32.748
			c1.35,0,3.104-0.894,3.897-1.987l11.384-15.667C51.276,20.533,51.276,18.747,50.483,17.654z M8.577,33.898H6.646
			c-1.069,0-1.932-0.868-1.932-1.934c0-1.066,0.863-1.933,1.932-1.933h1.932c1.068,0,1.931,0.866,1.931,1.933
			C10.508,33.03,9.646,33.898,8.577,33.898z M23.631,33.898h-8.194c-1.068,0-1.931-0.868-1.931-1.934
			c0-1.066,0.863-1.933,1.931-1.933h8.194c1.068,0,1.931,0.866,1.931,1.933C25.562,33.03,24.699,33.898,23.631,33.898z
			 M24.031,24.239H6.646c-1.069,0-1.932-0.868-1.932-1.933c0-1.066,0.863-1.934,1.932-1.934h17.386c1.069,0,1.932,0.867,1.932,1.934
			C25.963,23.372,25.1,24.239,24.031,24.239z"/>
	</g>
	<g>
		<path fill="#003764" d="M70.92,39.036c0,0.94-0.229,1.692-0.688,2.215c-0.459,0.521-1.085,0.792-1.9,0.792
			c-0.501,0-0.96-0.124-1.336-0.375c-0.397-0.251-0.689-0.606-0.898-1.066c-0.208-0.458-0.312-0.98-0.312-1.586
			c0-0.94,0.229-1.69,0.689-2.212c0.459-0.523,1.085-0.794,1.899-0.794c0.793,0,1.42,0.271,1.879,0.794
			C70.692,37.366,70.92,38.098,70.92,39.036z M66.327,39.036c0,0.794,0.168,1.42,0.522,1.86c0.354,0.438,0.856,0.667,1.482,0.667
			c0.647,0,1.128-0.229,1.482-0.667c0.356-0.439,0.523-1.066,0.523-1.86c0-0.792-0.167-1.418-0.523-1.858
			c-0.354-0.438-0.856-0.667-1.482-0.667c-0.647,0-1.128,0.229-1.482,0.667C66.515,37.598,66.327,38.222,66.327,39.036z"/>
		<path fill="#003764" d="M74.701,36.135v2.547h3.674v-2.547h0.522v5.805h-0.522v-2.798h-3.674v2.798h-0.522v-5.805H74.701z"/>
		<path fill="#003764" d="M86.498,41.939h-0.522v-5.305h-2.047c-0.104,1.4-0.229,2.487-0.396,3.215
			c-0.147,0.732-0.355,1.275-0.606,1.629c-0.25,0.354-0.564,0.523-0.938,0.523c-0.147,0-0.251-0.022-0.355-0.043v-0.48
			c0.062,0.02,0.166,0.042,0.292,0.042c0.396,0,0.731-0.417,0.981-1.274c0.251-0.855,0.438-2.212,0.564-4.093h3.048v5.785H86.498z"
			/>
		<path fill="#003764" d="M93.596,41.939l-0.125-0.92H93.43c-0.293,0.377-0.585,0.648-0.897,0.794
			c-0.314,0.146-0.669,0.229-1.086,0.229c-0.563,0-1.003-0.146-1.337-0.438c-0.313-0.292-0.479-0.689-0.479-1.212
			c0-0.563,0.23-1.001,0.71-1.315c0.48-0.314,1.148-0.48,2.046-0.5l1.107-0.043v-0.375c0-0.543-0.105-0.962-0.334-1.254
			c-0.23-0.272-0.586-0.418-1.086-0.418c-0.543,0-1.086,0.146-1.671,0.438l-0.188-0.458c0.646-0.294,1.274-0.438,1.899-0.438
			c0.647,0,1.107,0.166,1.421,0.5c0.313,0.334,0.479,0.855,0.479,1.544v3.864H93.596z M91.466,41.563
			c0.626,0,1.106-0.167,1.462-0.521c0.356-0.356,0.542-0.857,0.542-1.483v-0.564l-1.022,0.041c-0.813,0.042-1.399,0.168-1.733,0.376
			c-0.355,0.209-0.522,0.543-0.522,1.003c0,0.354,0.104,0.646,0.333,0.855C90.757,41.459,91.069,41.563,91.466,41.563z"/>
		<path fill="#003764" d="M98.023,36.135v4.196l-0.042,1.085l3.446-5.282h0.71v5.805h-0.502v-4.176l0.021-1.128l-3.446,5.285h-0.689
			v-5.806h0.501V36.135z M99.819,35.32c-0.521,0-0.939-0.126-1.211-0.355c-0.271-0.229-0.438-0.626-0.479-1.149h0.459
			c0.062,0.397,0.167,0.669,0.354,0.835c0.189,0.168,0.48,0.251,0.877,0.251c0.397,0,0.689-0.083,0.877-0.251
			c0.187-0.166,0.313-0.438,0.354-0.812h0.48C101.448,34.819,100.883,35.32,99.819,35.32z"/>
		<path fill="#003764" d="M106.25,36.135v2.547h3.674v-2.547h0.522v5.805h-0.522v-2.798h-3.674v2.798h-0.523v-5.805H106.25z"/>
		<path fill="#003764" d="M121.66,36.135h0.646l-2.61,2.818l2.777,2.987h-0.71l-2.735-2.944v2.944h-0.521v-5.805h0.544v2.818
			L121.66,36.135z"/>
		<path fill="#003764" d="M127.652,42.043c-0.898,0-1.546-0.334-1.963-1.001h-0.041l0.02,0.438c0.021,0.271,0.021,0.543,0.021,0.857
			v2.233h-0.521v-8.435h0.438l0.105,0.834h0.043c0.395-0.626,1.043-0.938,1.919-0.938c0.772,0,1.378,0.249,1.795,0.772
			c0.419,0.522,0.628,1.252,0.628,2.255c0,0.961-0.209,1.69-0.647,2.213C128.988,41.794,128.403,42.043,127.652,42.043z
			 M127.652,41.585c0.585,0,1.044-0.231,1.378-0.668c0.334-0.44,0.48-1.066,0.48-1.858c0-1.712-0.604-2.547-1.838-2.547
			c-0.667,0-1.169,0.187-1.481,0.563c-0.313,0.375-0.48,0.98-0.48,1.815v0.168c0,0.898,0.146,1.544,0.459,1.941
			C126.462,41.376,126.963,41.585,127.652,41.585z"/>
		<path fill="#003764" d="M135.669,42.043c-0.835,0-1.504-0.249-1.962-0.772c-0.481-0.523-0.71-1.252-0.71-2.192
			c0-0.918,0.229-1.67,0.688-2.233c0.46-0.565,1.065-0.837,1.837-0.837c0.689,0,1.232,0.231,1.608,0.709
			c0.397,0.48,0.585,1.129,0.585,1.944v0.417h-4.176c0,0.794,0.188,1.398,0.563,1.817c0.376,0.417,0.876,0.626,1.565,0.626
			c0.334,0,0.627-0.022,0.877-0.062c0.251-0.043,0.564-0.146,0.961-0.292v0.48c-0.335,0.146-0.627,0.229-0.897,0.292
			C136.318,42.023,136.003,42.043,135.669,42.043z M135.503,36.489c-0.563,0-1.002,0.189-1.338,0.543
			c-0.333,0.376-0.543,0.897-0.583,1.586h3.59c0-0.669-0.146-1.189-0.438-1.586C136.443,36.678,136.025,36.489,135.503,36.489z"/>
		<path fill="#003764" d="M145.692,43.903h-0.521v-1.964h-4.447v1.964h-0.501v-2.464h0.376c0.48-0.691,0.855-1.463,1.128-2.36
			c0.271-0.898,0.396-1.88,0.416-2.944h2.8v5.304h0.771v2.464H145.692z M144.398,41.439v-4.804h-1.796
			c-0.084,1.921-0.543,3.53-1.399,4.804H144.398z"/>
		<path fill="#003764" d="M149.075,36.135v4.196l-0.041,1.085l3.445-5.282h0.709v5.805h-0.501v-4.176l0.021-1.128l-3.445,5.285
			h-0.688v-5.806h0.5V36.135z"/>
		<path fill="#003764" d="M163.773,36.135v4.196l-0.04,1.085l3.445-5.282h0.709v5.805h-0.501v-4.176l0.021-1.128l-3.445,5.285
			h-0.689v-5.806h0.5V36.135z"/>
		<path fill="#003764" d="M160.455,36.595h-1.941v5.345h-0.522v-5.345h-1.984v-0.46h4.428v0.46H160.455z"/>
		<path fill="#003764" d="M177.846,36.135v2.547h3.676v-2.547h0.523v5.805h-0.523v-2.798h-3.676v2.798h-0.521v-5.805H177.846z"/>
		<path fill="#003764" d="M189.166,41.939l-0.127-0.92h-0.041c-0.292,0.377-0.585,0.648-0.898,0.794
			c-0.312,0.146-0.668,0.229-1.086,0.229c-0.562,0-1.002-0.146-1.336-0.438c-0.312-0.292-0.48-0.689-0.48-1.212
			c0-0.563,0.231-1.001,0.711-1.315c0.48-0.314,1.148-0.48,2.046-0.5l1.106-0.043v-0.375c0-0.543-0.104-0.962-0.333-1.254
			c-0.231-0.272-0.585-0.418-1.087-0.418c-0.543,0-1.086,0.146-1.669,0.438l-0.189-0.458c0.646-0.294,1.274-0.438,1.9-0.438
			c0.647,0,1.106,0.166,1.42,0.5c0.313,0.334,0.479,0.855,0.479,1.544v3.864H189.166z M187.035,41.563
			c0.627,0,1.107-0.167,1.461-0.521c0.355-0.356,0.543-0.857,0.543-1.483v-0.564l-1.021,0.041c-0.816,0.042-1.399,0.168-1.734,0.376
			c-0.354,0.209-0.522,0.543-0.522,1.003c0,0.354,0.105,0.646,0.335,0.855C186.303,41.459,186.618,41.563,187.035,41.563z"/>
		<path fill="#003764" d="M200.71,36.135h0.647l-2.609,2.818l2.777,2.987h-0.711l-2.735-2.944v2.944h-0.542v-5.805h0.542v2.818
			L200.71,36.135z"/>
		<path fill="#003764" d="M207.726,41.939l-0.125-0.92h-0.042c-0.292,0.377-0.584,0.648-0.896,0.794
			c-0.314,0.146-0.67,0.229-1.087,0.229c-0.565,0-1.003-0.146-1.337-0.438c-0.314-0.292-0.48-0.689-0.48-1.212
			c0-0.563,0.23-1.001,0.709-1.315c0.48-0.314,1.15-0.48,2.047-0.5l1.106-0.043v-0.375c0-0.543-0.104-0.962-0.333-1.254
			c-0.23-0.272-0.585-0.418-1.085-0.418c-0.544,0-1.087,0.146-1.671,0.438l-0.188-0.458c0.647-0.294,1.274-0.438,1.9-0.438
			c0.647,0,1.106,0.166,1.419,0.5c0.313,0.334,0.48,0.855,0.48,1.544v3.864H207.726z M205.597,41.563
			c0.626,0,1.106-0.167,1.461-0.521c0.354-0.356,0.543-0.857,0.543-1.483v-0.564l-1.023,0.041c-0.813,0.042-1.398,0.168-1.732,0.376
			c-0.354,0.209-0.521,0.543-0.521,1.003c0,0.354,0.104,0.646,0.333,0.855C204.887,41.459,205.2,41.563,205.597,41.563z"/>
		<path fill="#003764" d="M214.136,42.043c-0.896,0-1.545-0.334-1.962-1.001h-0.043l0.022,0.438
			c0.021,0.271,0.021,0.543,0.021,0.857v2.233h-0.521v-8.435h0.438l0.104,0.834h0.042c0.397-0.626,1.044-0.938,1.921-0.938
			c0.773,0,1.378,0.249,1.797,0.772c0.416,0.522,0.624,1.252,0.624,2.255c0,0.961-0.208,1.69-0.646,2.213
			C215.473,41.794,214.869,42.043,214.136,42.043z M214.116,41.585c0.585,0,1.045-0.231,1.378-0.668
			c0.334-0.44,0.48-1.066,0.48-1.858c0-1.712-0.605-2.547-1.838-2.547c-0.668,0-1.169,0.187-1.481,0.563
			c-0.313,0.375-0.48,0.98-0.48,1.815v0.168c0,0.898,0.146,1.544,0.46,1.941C212.926,41.376,213.427,41.585,214.116,41.585z"/>
		<path fill="#003764" d="M223.47,36.595h-1.941v5.345h-0.501v-5.345h-1.983v-0.46h4.426V36.595z"/>
		<path fill="#003764" d="M225.329,36.135h0.543l1.231,3.258c0.377,1.001,0.606,1.669,0.71,2.024h0.042
			c0.146-0.46,0.396-1.148,0.731-2.046l1.231-3.215h0.543L227.75,42.9c-0.207,0.543-0.374,0.917-0.521,1.106
			s-0.313,0.334-0.502,0.439c-0.188,0.104-0.418,0.144-0.688,0.144c-0.209,0-0.439-0.04-0.669-0.104v-0.46
			c0.209,0.063,0.438,0.083,0.669,0.083c0.187,0,0.334-0.041,0.479-0.125c0.146-0.081,0.271-0.209,0.376-0.396
			c0.104-0.188,0.25-0.46,0.396-0.857c0.146-0.395,0.251-0.646,0.293-0.751L225.329,36.135z"/>
	</g>
</g>
</svg>
