<?xml version="1.0" encoding="utf-8"?>
<!-- Generator: Adobe Illustrator 16.0.0, SVG Export Plug-In . SVG Version: 6.00 Build 0)  -->
<!DOCTYPE svg PUBLIC "-//W3C//DTD SVG 1.1//EN" "http://www.w3.org/Graphics/SVG/1.1/DTD/svg11.dtd">
<svg version="1.1" id="Шар_1" xmlns="http://www.w3.org/2000/svg" xmlns:xlink="http://www.w3.org/1999/xlink" x="0px" y="0px"
	 width="248px" height="94.809px" viewBox="0 0 248 94.809" enable-background="new 0 0 248 94.809" xml:space="preserve">
<g>
	<rect x="16.583" fill="#C8C8C8" width="16.578" height="16.58"/>
	<rect x="16.583" y="16.58" fill="#C8C8C8" width="16.578" height="16.581"/>
	<polygon fill="#C8C8C8" points="0,16.58 16.582,16.58 0,33.16 	"/>
	<polygon fill="#C8C8C8" points="16.583,16.58 0,16.58 16.583,0 	"/>
	<rect x="16.583" y="33.16" fill="#C8C8C8" width="16.578" height="16.578"/>
	<rect x="16.583" y="49.738" fill="#C8C8C8" width="16.578" height="16.578"/>
	<path fill="#C8C8C8" d="M51.692,16.58h24.167c12.191,0,15.307,7.616,15.307,12.743c0,7.133-4.016,9.141-6.096,10.18
		c6.096,2.284,7.688,7.131,7.688,12.049c0,3.947-1.662,7.688-4.295,10.248c-2.833,2.772-5.537,4.503-15.718,4.503H51.692V16.58z
		 M61.664,36.039h12.188c4.088,0,7.346-1.592,7.346-5.541c0-4.084-2.912-5.332-7.623-5.332h-11.91V36.039z M61.664,57.713h12.747
		c5.05,0,7.962-2.215,7.962-7.268c0-4.363-3.742-6.028-7.481-6.028H61.664V57.713z"/>
	<path fill="#C8C8C8" d="M130.772,59.098c0,4.363,0.971,5.332,2.147,5.752v1.452h-10.457c-0.553-1.73-0.694-2.286-0.9-4.361
		c-2.215,2.285-5.33,5.331-11.908,5.331c-5.541,0-11.221-3.115-11.221-10.735c0-7.2,4.571-10.87,10.734-11.771l8.727-1.314
		c1.524-0.208,3.391-0.834,3.391-2.908c0-4.088-3.875-4.296-6.372-4.296c-4.847,0-5.677,2.979-5.954,5.124h-9.35
		c1.109-11.288,8.938-12.88,16.482-12.88c5.193,0,14.681,1.592,14.681,10.665V59.098z M121.285,48.365
		c-0.971,0.763-2.562,1.387-6.577,2.01c-3.599,0.623-6.58,1.523-6.58,5.537c0,3.397,2.634,4.434,4.499,4.434
		c4.296,0,8.658-2.768,8.658-7.269V48.365z"/>
	<path fill="#C8C8C8" d="M172.736,66.302h-9.691V43.933c0-2.701-0.142-7.27-6.305-7.27c-4.293,0-7.615,2.907-7.615,8.518v21.121
		h-9.694V29.461h9.275v5.401h0.144c1.314-2.216,4.081-6.371,11.077-6.371c7.202,0,12.81,4.224,12.81,12.325V66.302z"/>
	<polygon fill="#C8C8C8" points="191.713,66.302 182.018,66.302 182.018,16.58 191.713,16.58 191.713,43.451 203.9,29.461 
		215.812,29.461 202.791,43.725 216.154,66.302 204.521,66.302 195.724,50.516 191.713,54.667 	"/>
	<g>
		<path fill="#C8C8C8" d="M220.101,65.013c0-0.916,0.618-1.56,1.485-1.56c0.866,0,1.461,0.644,1.461,1.56
			c0,0.893-0.57,1.561-1.486,1.561C220.694,66.573,220.101,65.905,220.101,65.013z"/>
		<path fill="#C8C8C8" d="M235.771,63.033c0,1.237,0.024,2.327,0.099,3.268h-1.931l-0.124-1.956h-0.05
			c-0.568,0.965-1.832,2.229-3.961,2.229c-1.882,0-4.134-1.04-4.134-5.249v-7.006h2.178v6.635c0,2.277,0.693,3.812,2.674,3.812
			c1.461,0,2.477-1.016,2.872-1.98c0.124-0.322,0.198-0.719,0.198-1.113v-7.354h2.179V63.033z"/>
		<path fill="#C8C8C8" d="M246.02,66.301l-0.174-1.511h-0.074c-0.669,0.941-1.955,1.783-3.664,1.783
			c-2.426,0-3.664-1.709-3.664-3.442c0-2.895,2.575-4.479,7.204-4.455v-0.247c0-0.991-0.272-2.774-2.723-2.774
			c-1.114,0-2.277,0.348-3.119,0.892l-0.495-1.437c0.99-0.643,2.426-1.062,3.937-1.062c3.664,0,4.555,2.499,4.555,4.901v4.479
			c0,1.041,0.05,2.056,0.198,2.873H246.02z M245.697,60.186c-2.376-0.049-5.075,0.371-5.075,2.699c0,1.41,0.94,2.079,2.056,2.079
			c1.559,0,2.549-0.991,2.896-2.005c0.074-0.223,0.124-0.471,0.124-0.693V60.186z"/>
	</g>
	<g>
		<path fill="#C8C8C8" d="M16.583,92.082V81.17h0.307v10.62h6.283V81.17h0.307v10.62h6.283V81.17h0.307v10.912H16.583z"/>
		<path fill="#C8C8C8" d="M38.406,81.17c1.73,0,3.402,0.689,3.402,2.697c0,1.349-0.951,2.375-2.346,2.543
			c1.318,0.108,2.683,0.936,2.683,2.713c0,1.748-1.38,2.76-2.989,2.896c-0.367,0.031-0.889,0.062-1.226,0.062h-3.894V81.17H38.406z
			 M34.344,86.289h3.418c0.797,0,1.686,0.031,2.422-0.322c0.827-0.398,1.303-1.165,1.303-2.085c0-1.899-1.609-2.437-3.248-2.437
			h-3.895V86.289z M34.344,91.79h3.847c1.763,0,3.633-0.552,3.633-2.696c0-1.963-1.717-2.514-3.403-2.514h-4.076V91.79z"/>
		<path fill="#C8C8C8" d="M46.16,92.082h-0.476V81.17h0.308v10.65l7.494-10.65h0.475v10.912h-0.307V81.431L46.16,92.082z"/>
		<path fill="#C8C8C8" d="M66.65,94.809v-2.727h-9.197v2.727h-0.305V91.79h1.012c1.7-3.187,1.762-7.142,1.762-9.717V81.17h5.809
			v10.62h1.227v3.019H66.65z M65.424,81.461h-5.195v1.072c0,2.438-0.123,6.284-1.701,9.257h6.896V81.461z"/>
		<path fill="#C8C8C8" d="M73.133,85.768l5.639,6.314h-0.397l-5.472-6.1l-2.497,2.206v3.894h-0.308V81.17h0.308v6.651l7.57-6.651
			h0.444L73.133,85.768z"/>
		<path fill="#C8C8C8" d="M81.838,92.082h-0.307V81.17h0.307V92.082z"/>
		<path fill="#C8C8C8" d="M95.338,85.768l5.641,6.314h-0.398l-5.472-6.1l-2.497,2.206v3.894h-0.307V81.17h0.307v6.651l7.57-6.651
			h0.444L95.338,85.768z"/>
		<path fill="#C8C8C8" d="M108.41,81.17c1.732,0,3.158,0.873,3.158,2.958c0,1.808-1.287,2.973-3.265,2.973h-4.185v4.981h-0.305
			V81.17H108.41z M104.119,86.809h4.109c1.639,0,3.019-0.826,3.019-2.666c0-1.961-1.288-2.682-3.05-2.682h-4.078V86.809z"/>
		<path fill="#C8C8C8" d="M122.082,81.461h-6.943v4.781h6.543v0.291h-6.543v5.257h7.02v0.292h-7.326V81.17h7.25V81.461z"/>
		<path fill="#C8C8C8" d="M134.097,94.809v-2.727H124.9v2.727h-0.306V91.79h1.012c1.7-3.187,1.762-7.142,1.762-9.717V81.17h5.808
			v10.62h1.228v3.019H134.097z M132.87,81.461h-5.195v1.072c0,2.438-0.123,6.284-1.701,9.257h6.896V81.461z"/>
		<path fill="#C8C8C8" d="M138.065,92.082h-0.476V81.17h0.307v10.65l7.494-10.65h0.475v10.912h-0.306V81.431L138.065,92.082z"/>
		<path fill="#C8C8C8" d="M156.946,81.461h-3.97v10.621h-0.307V81.461h-3.969V81.17h8.245V81.461z"/>
		<path fill="#C8C8C8" d="M160.255,92.082h-0.475V81.17h0.307v10.65l7.494-10.65h0.476v10.912h-0.307V81.431L160.255,92.082z"/>
		<path fill="#C8C8C8" d="M188.363,86.717c0,3.326-2.084,5.625-5.135,5.625c-3.019,0-5.057-2.33-5.057-5.717
			c0-3.371,2.068-5.73,5.041-5.73C186.248,80.895,188.363,83.285,188.363,86.717z M178.509,86.594c0,3.22,1.915,5.457,4.704,5.457
			c2.866,0,4.812-2.176,4.812-5.349c0-3.249-1.961-5.517-4.782-5.517C180.471,81.186,178.509,83.422,178.509,86.594z"/>
		<path fill="#C8C8C8" d="M200.193,92.082h-0.32v-5.549h-7.633v5.549h-0.322V81.17h0.322v5.072h7.633V81.17h0.32V92.082z"/>
		<path fill="#C8C8C8" d="M206.492,81.828V81.17h5.931v10.912h-0.307V81.461H206.8v0.873c0,0.553-0.094,4.645-0.323,7.08
			c-0.107,1.182-0.552,2.76-1.931,2.76c-0.337,0-0.843-0.062-1.073-0.199v-0.368c0.291,0.199,0.721,0.261,1.059,0.261
			c1.118,0,1.531-1.271,1.654-2.468C206.431,87.024,206.492,83.299,206.492,81.828z"/>
		<path fill="#C8C8C8" d="M224.53,92.082h-0.353l-1.44-3.602h-5.547l-1.472,3.602h-0.353l4.49-10.912h0.291L224.53,92.082z
			 M219.994,81.507l-2.697,6.682h5.333L219.994,81.507z"/>
		<path fill="#C8C8C8" d="M227.963,92.082h-0.475V81.17h0.307v10.65l7.494-10.65h0.475v10.912h-0.307V81.431L227.963,92.082z
			 M230.032,78.794c0.169,0.874,0.705,1.333,1.563,1.333c0.92,0,1.455-0.444,1.594-1.333h0.307c-0.184,1.073-0.843,1.64-1.916,1.64
			c-1.011,0-1.655-0.566-1.854-1.64H230.032z"/>
		<path fill="#C8C8C8" d="M247.993,92.082h-0.321v-5.549h-7.633v5.549h-0.322V81.17h0.322v5.072h7.633V81.17h0.321V92.082z"/>
	</g>
</g>
</svg>
