<?xml version="1.0" encoding="utf-8"?>
<!-- Generator: Adobe Illustrator 16.0.0, SVG Export Plug-In . SVG Version: 6.00 Build 0)  -->
<!DOCTYPE svg PUBLIC "-//W3C//DTD SVG 1.1//EN" "http://www.w3.org/Graphics/SVG/1.1/DTD/svg11.dtd">
<svg version="1.1" id="Слой_1" xmlns="http://www.w3.org/2000/svg" xmlns:xlink="http://www.w3.org/1999/xlink" x="0px" y="0px"
	 width="31px" height="24.114px" viewBox="0 0 31 24.114" enable-background="new 0 0 31 24.114" xml:space="preserve">
<g>
	<path fill="#010302" d="M5.639,23.978v-1.597c0-0.601-0.383-1.006-1-1.011c-0.324-0.005-0.66,0.096-0.894,0.452
		C3.569,21.54,3.292,21.37,2.904,21.37c-0.271,0-0.538,0.08-0.745,0.377v-0.313H1.605v2.544h0.559v-1.41
		c0-0.442,0.245-0.676,0.623-0.676c0.367,0,0.554,0.239,0.554,0.67v1.416h0.559v-1.41c0-0.442,0.255-0.676,0.623-0.676
		c0.378,0,0.559,0.239,0.559,0.67v1.416H5.639z M13.909,21.434h-0.905v-0.771h-0.559v0.771h-0.517v0.506h0.517v1.16
		c0,0.591,0.229,0.941,0.883,0.941c0.239,0,0.516-0.074,0.691-0.196l-0.159-0.475c-0.165,0.097-0.346,0.145-0.49,0.145
		c-0.277,0-0.367-0.171-0.367-0.426v-1.149h0.905V21.434z M18.629,21.37c-0.32,0-0.527,0.148-0.671,0.372v-0.309h-0.548v2.544h0.553
		v-1.426c0-0.421,0.182-0.655,0.543-0.655c0.111,0,0.229,0.017,0.347,0.064l0.17-0.521C18.9,21.392,18.741,21.37,18.629,21.37
		 M11.492,21.636c-0.266-0.176-0.633-0.266-1.037-0.266c-0.644,0-1.059,0.309-1.059,0.814c0,0.414,0.308,0.67,0.877,0.75
		l0.261,0.037c0.303,0.043,0.446,0.122,0.446,0.266c0,0.197-0.202,0.31-0.58,0.31c-0.383,0-0.66-0.123-0.847-0.267l-0.26,0.431
		c0.303,0.224,0.687,0.33,1.102,0.33c0.734,0,1.16-0.346,1.16-0.83c0-0.446-0.335-0.681-0.889-0.761l-0.261-0.037
		c-0.239-0.032-0.431-0.08-0.431-0.25c0-0.187,0.181-0.299,0.484-0.299c0.325,0,0.639,0.123,0.793,0.219L11.492,21.636z
		 M26.318,21.37c-0.318,0-0.526,0.148-0.67,0.372v-0.309H25.1v2.544h0.553v-1.426c0-0.421,0.182-0.655,0.543-0.655
		c0.111,0,0.229,0.017,0.347,0.064l0.169-0.521C26.59,21.392,26.43,21.37,26.318,21.37 M19.188,22.705
		c0,0.771,0.537,1.336,1.356,1.336c0.383,0,0.639-0.085,0.915-0.304l-0.266-0.446c-0.207,0.149-0.426,0.229-0.665,0.229
		c-0.442-0.005-0.767-0.324-0.767-0.814c0-0.489,0.324-0.809,0.767-0.813c0.239,0,0.458,0.079,0.665,0.229l0.266-0.447
		c-0.276-0.218-0.532-0.303-0.915-0.303C19.725,21.37,19.188,21.934,19.188,22.705 M24.371,22.705v-1.271h-0.554v0.309
		c-0.175-0.229-0.441-0.372-0.803-0.372c-0.714,0-1.272,0.559-1.272,1.335c0,0.777,0.559,1.336,1.272,1.336
		c0.361,0,0.628-0.144,0.803-0.372v0.309h0.554V22.705z M22.311,22.705c0-0.446,0.293-0.813,0.772-0.813
		c0.457,0,0.766,0.351,0.766,0.813c0,0.464-0.309,0.814-0.766,0.814C22.604,23.52,22.311,23.152,22.311,22.705 M15.633,21.37
		c-0.745,0-1.267,0.543-1.267,1.335c0,0.81,0.543,1.336,1.304,1.336c0.383,0,0.734-0.096,1.043-0.356l-0.271-0.409
		c-0.213,0.17-0.484,0.266-0.74,0.266c-0.357,0-0.681-0.165-0.761-0.622h1.89c0.005-0.069,0.01-0.139,0.01-0.214
		C16.835,21.913,16.346,21.37,15.633,21.37 M15.622,21.864c0.356,0,0.585,0.224,0.644,0.617h-1.32
		C15.005,22.114,15.228,21.864,15.622,21.864 M29.505,22.705v-2.293h-0.553v1.33c-0.176-0.229-0.442-0.372-0.804-0.372
		c-0.713,0-1.271,0.559-1.271,1.335c0,0.777,0.559,1.336,1.271,1.336c0.361,0,0.628-0.144,0.804-0.372v0.309h0.553V22.705z
		 M27.446,22.705c0-0.446,0.293-0.813,0.772-0.813c0.457,0,0.767,0.351,0.767,0.813c0,0.464-0.31,0.814-0.767,0.814
		C27.739,23.52,27.446,23.152,27.446,22.705 M8.757,22.705v-1.271H8.204v0.309C8.028,21.514,7.762,21.37,7.4,21.37
		c-0.713,0-1.272,0.559-1.272,1.335c0,0.777,0.559,1.336,1.272,1.336c0.362,0,0.628-0.144,0.804-0.372v0.309h0.553V22.705z
		 M6.698,22.705c0-0.446,0.292-0.813,0.771-0.813c0.458,0,0.766,0.351,0.766,0.813c0,0.464-0.308,0.814-0.766,0.814
		C6.991,23.52,6.698,23.152,6.698,22.705 M30.428,23.609c0.035,0,0.069,0.006,0.101,0.02c0.031,0.013,0.059,0.031,0.082,0.054
		c0.022,0.023,0.041,0.05,0.055,0.08c0.013,0.031,0.02,0.064,0.02,0.099c0,0.035-0.007,0.067-0.02,0.099
		c-0.014,0.03-0.032,0.057-0.055,0.08c-0.023,0.022-0.051,0.041-0.082,0.055s-0.065,0.02-0.101,0.02c-0.036,0-0.07-0.006-0.102-0.02
		c-0.032-0.014-0.06-0.032-0.082-0.055c-0.023-0.023-0.042-0.05-0.056-0.08c-0.013-0.031-0.02-0.063-0.02-0.099
		c0-0.034,0.007-0.067,0.02-0.099c0.014-0.03,0.032-0.057,0.056-0.08c0.022-0.022,0.05-0.041,0.082-0.054
		C30.358,23.615,30.392,23.609,30.428,23.609 M30.428,24.059c0.027,0,0.053-0.005,0.076-0.016c0.023-0.01,0.044-0.024,0.063-0.042
		c0.018-0.018,0.031-0.038,0.042-0.063c0.01-0.024,0.015-0.05,0.015-0.077s-0.005-0.053-0.015-0.076
		c-0.011-0.024-0.024-0.045-0.042-0.063c-0.019-0.019-0.039-0.032-0.063-0.043c-0.023-0.01-0.049-0.015-0.076-0.015
		s-0.054,0.005-0.078,0.015c-0.023,0.011-0.044,0.024-0.063,0.043c-0.018,0.018-0.031,0.038-0.042,0.063
		c-0.01,0.023-0.015,0.049-0.015,0.076s0.005,0.053,0.015,0.077c0.011,0.024,0.024,0.045,0.042,0.063
		c0.019,0.018,0.039,0.032,0.063,0.042C30.375,24.054,30.401,24.059,30.428,24.059 M30.443,23.743c0.03,0,0.054,0.007,0.07,0.02
		c0.017,0.014,0.024,0.032,0.024,0.056c0,0.019-0.007,0.035-0.02,0.048s-0.031,0.021-0.056,0.023l0.077,0.088h-0.061l-0.071-0.088
		h-0.022v0.088h-0.05v-0.234H30.443z M30.385,23.787v0.063h0.058c0.013,0,0.023-0.002,0.031-0.007
		c0.009-0.006,0.012-0.014,0.012-0.024s-0.003-0.018-0.012-0.023c-0.008-0.005-0.019-0.008-0.031-0.008H30.385z"/>
	<rect x="11.309" y="2.049" fill="#D4642B" width="8.382" height="15.063"/>
	<path fill="#C42028" d="M11.841,9.58c0-3.056,1.431-5.777,3.659-7.531C13.87,0.766,11.814,0,9.58,0C4.289,0,0,4.29,0,9.58
		c0,5.291,4.289,9.58,9.58,9.58c2.235,0,4.291-0.765,5.92-2.048C13.272,15.357,11.841,12.636,11.841,9.58"/>
	<path fill="#E29C2F" d="M31,9.58c0,5.291-4.289,9.58-9.58,9.58c-2.234,0-4.291-0.766-5.92-2.049
		c2.229-1.754,3.658-4.476,3.658-7.531c0-3.057-1.43-5.778-3.658-7.532C17.129,0.766,19.186,0,21.42,0C26.711,0,31,4.289,31,9.58
		 M30.086,15.517v-0.309h0.124v-0.063h-0.317v0.063h0.125v0.309H30.086z M30.701,15.517v-0.372h-0.097L30.493,15.4l-0.112-0.256
		h-0.097v0.372h0.068v-0.281l0.104,0.242h0.071l0.104-0.242v0.281H30.701z"/>
</g>
</svg>
