<?xml version="1.0" encoding="utf-8"?>
<!-- Generator: Adobe Illustrator 16.0.0, SVG Export Plug-In . SVG Version: 6.00 Build 0)  -->
<!DOCTYPE svg PUBLIC "-//W3C//DTD SVG 1.1//EN" "http://www.w3.org/Graphics/SVG/1.1/DTD/svg11.dtd">
<svg version="1.1" id="Шар_1" xmlns="http://www.w3.org/2000/svg" xmlns:xlink="http://www.w3.org/1999/xlink" x="0px" y="0px"
	 width="39px" height="33.626px" viewBox="0 0 39 33.626" enable-background="new 0 0 39 33.626" xml:space="preserve">
<g>
	<path fill="#00B181" stroke="#00B181" stroke-miterlimit="10" d="M37.867,10.326h-9.986v1.267h9.353v20.267H1.767V11.593h8.085
		v-1.267H1.133c-0.38,0-0.633,0.253-0.633,0.633v21.533c0,0.381,0.253,0.634,0.633,0.634h36.734c0.379,0,0.633-0.253,0.633-0.634
		V10.959C38.5,10.579,38.246,10.326,37.867,10.326z"/>
	<rect x="4.3" y="24.26" fill="#00B181" stroke="#00B181" stroke-miterlimit="10" width="5.7" height="1.266"/>
	<rect x="11.267" y="24.26" fill="#00B181" stroke="#00B181" stroke-miterlimit="10" width="5.7" height="1.266"/>
	<rect x="22.666" y="24.26" fill="#00B181" stroke="#00B181" stroke-miterlimit="10" width="5.701" height="1.266"/>
	<rect x="18.233" y="24.26" fill="#00B181" stroke="#00B181" stroke-miterlimit="10" width="3.167" height="1.266"/>
	<rect x="29.633" y="24.26" fill="#00B181" stroke="#00B181" stroke-miterlimit="10" width="5.066" height="1.266"/>
	<rect x="4.3" y="27.426" fill="#00B181" stroke="#00B181" stroke-miterlimit="10" width="30.399" height="1.267"/>
	<path fill="#00B181" stroke="#00B181" stroke-miterlimit="10" d="M34.699,15.393c0-0.38-0.252-0.633-0.633-0.633h-7.6
		c-0.381,0-0.634,0.253-0.634,0.633v3.8c0,0.38,0.253,0.634,0.634,0.634h7.6c0.381,0,0.633-0.254,0.633-0.634V15.393z M33.434,18.56
		H27.1v-2.533h6.334V18.56z"/>
	<rect x="4.3" y="15.393" fill="#00B181" stroke="#00B181" stroke-miterlimit="10" width="3.8" height="1.267"/>
	<rect x="4.3" y="17.926" fill="#00B181" stroke="#00B181" stroke-miterlimit="10" width="6.967" height="1.267"/>
	<path fill="#0055B8" d="M24.621,10.35h-6.243c0.374-0.189,0.761-0.374,1.153-0.56c1.191-0.565,2.421-1.149,3.313-1.908h1.776
		c0.387,0,0.699-0.313,0.699-0.699s-0.312-0.7-0.699-0.7h-0.649c0.616-1.213,0.614-2.612-0.031-3.847C23.09,1.01,21.299,0,19.264,0
		c-1.747,0-3.158,0.512-4.194,1.519c-0.134,0.13-0.21,0.304-0.213,0.491c-0.003,0.188,0.067,0.365,0.202,0.504
		c0.265,0.265,0.721,0.268,0.985,0.009c0.767-0.747,1.85-1.125,3.22-1.125c1.512,0,2.829,0.723,3.437,1.886
		c0.503,0.962,0.433,2.029-0.19,2.926c-0.062,0.088-0.137,0.179-0.225,0.273h-8.98c-0.385,0.001-0.698,0.314-0.698,0.699
		s0.314,0.699,0.699,0.699h6.945c-0.438,0.227-0.894,0.442-1.318,0.644c-1.016,0.48-2.273,1.074-3.267,1.823h-2.36
		c-0.385,0-0.699,0.314-0.699,0.699c0,0.386,0.314,0.7,0.699,0.7h1.066c-0.675,1.099-0.829,2.388-0.402,3.561
		c0.68,1.869,2.625,2.985,5.204,2.985c0.067,0,0.133,0,0.196-0.002c1.606-0.033,2.923-0.477,3.915-1.318
		c0.143-0.121,0.229-0.29,0.244-0.477c0.016-0.187-0.043-0.367-0.163-0.507c-0.239-0.284-0.703-0.323-0.985-0.083
		c-0.74,0.627-1.764,0.959-3.038,0.987h-0.085c-2.018,0-3.504-0.771-3.974-2.063c-0.387-1.06-0.048-2.23,0.883-3.083h8.455
		c0.385,0,0.699-0.314,0.699-0.698c0-0.186-0.071-0.361-0.203-0.494S24.809,10.35,24.621,10.35z"/>
</g>
</svg>
