<?xml version="1.0" encoding="utf-8"?>
<!-- Generator: Adobe Illustrator 16.0.0, SVG Export Plug-In . SVG Version: 6.00 Build 0)  -->
<!DOCTYPE svg PUBLIC "-//W3C//DTD SVG 1.1//EN" "http://www.w3.org/Graphics/SVG/1.1/DTD/svg11.dtd">
<svg version="1.1" id="Шар_1" xmlns="http://www.w3.org/2000/svg" xmlns:xlink="http://www.w3.org/1999/xlink" x="0px" y="0px"
	 width="180px" height="179.998px" viewBox="0 0 180 179.998" enable-background="new 0 0 180 179.998" xml:space="preserve">
<g>
	<circle fill="#FFFFFF" cx="90" cy="89.999" r="90"/>
	<g>
		<path fill="#0081CD" d="M22.692,110.095c0.192-0.029,0.41-0.069,0.654-0.118c0.243-0.049,0.495-0.108,0.755-0.177
			c0.264-0.076,0.594-0.159,0.989-0.247c0.396-0.089,0.815-0.179,1.261-0.271c0.444-0.093,0.894-0.184,1.347-0.272
			c0.452-0.089,0.873-0.17,1.261-0.241s0.724-0.133,1.008-0.183c0.284-0.051,0.477-0.084,0.579-0.102
			c0.104-0.012,0.23-0.031,0.377-0.058c0.146-0.026,0.291-0.057,0.436-0.089c0.144-0.033,0.278-0.065,0.402-0.098
			s0.219-0.061,0.284-0.084c0.084-0.032,0.146-0.086,0.187-0.161c0.039-0.075,0.031-0.188-0.023-0.339
			c-0.054-0.143-0.143-0.312-0.269-0.506c-0.127-0.195-0.257-0.389-0.392-0.579c-0.136-0.191-0.261-0.37-0.376-0.534
			c-0.114-0.165-0.188-0.293-0.222-0.383c-0.102-0.275-0.131-0.495-0.086-0.66c0.044-0.166,0.135-0.275,0.271-0.325
			c0.229-0.084,0.442-0.09,0.646-0.019c0.203,0.07,0.384,0.203,0.544,0.396c0.232,0.28,0.483,0.634,0.753,1.061
			c0.271,0.428,0.543,0.896,0.819,1.406s0.542,1.041,0.797,1.596c0.257,0.555,0.481,1.098,0.679,1.631
			c0.272,0.741,0.486,1.401,0.639,1.98s0.259,1.11,0.317,1.595c0.061,0.484,0.085,0.938,0.073,1.359
			c-0.011,0.421-0.044,0.843-0.099,1.265c-0.054,0.428-0.156,0.824-0.311,1.189c-0.153,0.366-0.348,0.695-0.583,0.989
			s-0.502,0.551-0.801,0.77c-0.301,0.22-0.623,0.394-0.971,0.521c-0.377,0.14-0.784,0.224-1.222,0.252
			c-0.437,0.029-0.894,0.008-1.369-0.066c-0.476-0.072-0.965-0.197-1.468-0.375c-0.504-0.178-1.008-0.404-1.511-0.682
			c-0.451-0.248-0.873-0.52-1.265-0.816c-0.392-0.299-0.76-0.611-1.104-0.938c-0.345-0.328-0.67-0.665-0.975-1.012
			c-0.305-0.346-0.596-0.692-0.872-1.038c-0.326-0.404-0.63-0.811-0.915-1.223c-0.284-0.412-0.543-0.811-0.777-1.195
			c-0.233-0.387-0.439-0.756-0.616-1.107c-0.179-0.354-0.319-0.672-0.426-0.96c-0.039-0.107-0.053-0.222-0.039-0.342
			c0.013-0.12,0.051-0.234,0.112-0.343c0.062-0.107,0.145-0.207,0.246-0.299c0.103-0.092,0.223-0.164,0.359-0.215
			c0.061-0.021,0.13-0.031,0.21-0.025c0.08,0.004,0.163,0.014,0.25,0.029s0.169,0.027,0.244,0.038
			C22.576,110.099,22.64,110.101,22.692,110.095z M24.017,111.615c-0.089,0.033-0.181,0.067-0.273,0.102s-0.172,0.075-0.239,0.124
			c-0.067,0.048-0.114,0.11-0.141,0.185c-0.027,0.074-0.019,0.172,0.025,0.291c0.018,0.047,0.066,0.143,0.146,0.287
			c0.081,0.144,0.17,0.297,0.268,0.462c0.098,0.164,0.191,0.317,0.28,0.458c0.089,0.139,0.151,0.23,0.188,0.271
			c0.574,0.95,1.229,1.796,1.964,2.537c0.736,0.74,1.501,1.342,2.296,1.803s1.592,0.76,2.39,0.897
			c0.798,0.137,1.547,0.076,2.247-0.182c0.472-0.175,0.85-0.478,1.133-0.907c0.282-0.431,0.461-0.973,0.537-1.625
			c0.075-0.652,0.042-1.408-0.098-2.268c-0.141-0.857-0.399-1.803-0.779-2.831c-0.126-0.341-0.242-0.606-0.351-0.798
			c-0.107-0.191-0.214-0.334-0.32-0.427c-0.105-0.095-0.215-0.149-0.325-0.165c-0.112-0.018-0.236-0.018-0.373,0
			c-0.302,0.028-0.627,0.069-0.979,0.121c-0.352,0.051-0.704,0.107-1.058,0.171c-0.354,0.062-0.699,0.126-1.036,0.188
			s-0.645,0.121-0.923,0.178c-0.279,0.055-0.514,0.104-0.706,0.143c-0.193,0.041-0.324,0.066-0.395,0.079
			c-0.202,0.041-0.462,0.097-0.778,0.17s-0.645,0.153-0.985,0.241c-0.341,0.089-0.667,0.177-0.979,0.264
			C24.441,111.472,24.196,111.549,24.017,111.615z"/>
		<path fill="#0081CD" d="M42.525,137.021c-0.059,0.041-0.178,0.082-0.361,0.126c-0.182,0.044-0.393,0.071-0.633,0.081
			c-0.38,0.021-0.808,0.026-1.282,0.016c-0.475-0.01-0.965-0.045-1.47-0.105c-0.504-0.06-1.013-0.144-1.524-0.252
			c-0.512-0.109-0.994-0.252-1.447-0.428s-0.864-0.387-1.233-0.633c-0.369-0.245-0.666-0.53-0.89-0.856
			c-0.227-0.331-0.383-0.661-0.465-0.991c-0.083-0.329-0.074-0.664,0.028-1.005c0.104-0.341,0.305-0.69,0.608-1.05
			c0.303-0.357,0.726-0.734,1.266-1.129c-0.312-0.072-0.63-0.136-0.954-0.191c-0.324-0.057-0.651-0.112-0.979-0.169
			c-0.329-0.057-0.656-0.116-0.981-0.179c-0.325-0.063-0.638-0.139-0.938-0.227c-0.609-0.178-1.152-0.396-1.633-0.654
			c-0.479-0.26-0.837-0.562-1.075-0.908c-0.036-0.054-0.066-0.169-0.094-0.348c-0.025-0.18-0.021-0.382,0.014-0.606
			c0.035-0.226,0.113-0.46,0.237-0.702c0.123-0.243,0.316-0.454,0.579-0.635c0.331-0.229,0.653-0.428,0.968-0.601
			s0.633-0.325,0.955-0.458c0.323-0.133,0.654-0.252,0.995-0.358s0.705-0.21,1.091-0.312c0.096-0.028,0.236-0.066,0.419-0.114
			c0.184-0.049,0.375-0.105,0.575-0.168c0.2-0.064,0.394-0.127,0.583-0.191c0.188-0.063,0.336-0.124,0.442-0.182
			c0.081-0.041,0.187-0.062,0.319-0.068c0.131-0.006,0.265,0.004,0.4,0.026s0.259,0.056,0.37,0.1c0.11,0.044,0.185,0.093,0.22,0.145
			c0.048,0.068,0.073,0.163,0.078,0.282c0.006,0.121-0.004,0.242-0.026,0.367c-0.023,0.124-0.058,0.238-0.102,0.342
			c-0.045,0.104-0.094,0.174-0.146,0.211c-0.042,0.028-0.128,0.062-0.256,0.1c-0.129,0.037-0.282,0.076-0.461,0.113
			c-0.18,0.037-0.372,0.073-0.577,0.105c-0.206,0.033-0.407,0.059-0.603,0.078c-0.299,0.025-0.625,0.092-0.979,0.195
			s-0.705,0.227-1.053,0.367c-0.348,0.143-0.674,0.293-0.981,0.453c-0.307,0.162-0.563,0.312-0.769,0.453
			c-0.053,0.035-0.11,0.095-0.174,0.177c-0.063,0.083-0.121,0.171-0.173,0.264c-0.052,0.095-0.088,0.185-0.108,0.272
			c-0.022,0.088-0.017,0.155,0.017,0.202c0.09,0.132,0.263,0.263,0.519,0.393c0.255,0.13,0.556,0.255,0.9,0.374
			c0.344,0.119,0.716,0.229,1.114,0.331s0.788,0.194,1.169,0.276c0.382,0.082,0.734,0.149,1.06,0.201
			c0.324,0.051,0.592,0.086,0.799,0.107c0.489,0.05,0.968,0.078,1.432,0.084s0.92-0.014,1.369-0.059
			c0.406-0.039,0.732-0.056,0.979-0.052c0.247,0.005,0.414,0.071,0.501,0.197c0.082,0.12,0.123,0.233,0.122,0.339
			c-0.002,0.105-0.025,0.199-0.073,0.282c-0.047,0.083-0.108,0.155-0.182,0.217c-0.073,0.062-0.142,0.115-0.204,0.158
			c-0.016,0.011-0.064,0.026-0.144,0.046c-0.078,0.02-0.175,0.043-0.288,0.07c-0.112,0.027-0.236,0.055-0.37,0.085
			s-0.26,0.058-0.379,0.081s-0.223,0.045-0.311,0.062c-0.089,0.018-0.146,0.029-0.175,0.033c-0.212,0.052-0.424,0.11-0.635,0.174
			s-0.417,0.135-0.617,0.215c-0.201,0.08-0.389,0.164-0.563,0.253s-0.327,0.179-0.459,0.269c-0.247,0.17-0.462,0.344-0.645,0.523
			c-0.182,0.179-0.318,0.363-0.409,0.553c-0.089,0.189-0.129,0.383-0.117,0.58c0.011,0.197,0.085,0.395,0.223,0.596
			c0.154,0.226,0.377,0.429,0.667,0.607c0.29,0.182,0.623,0.341,1.001,0.479c0.377,0.139,0.784,0.261,1.218,0.364
			c0.435,0.104,0.875,0.193,1.319,0.266c0.445,0.074,0.882,0.135,1.312,0.18c0.429,0.045,0.824,0.084,1.186,0.114
			c0.104,0.006,0.212,0.017,0.324,0.032c0.111,0.017,0.214,0.033,0.307,0.051s0.171,0.035,0.233,0.055
			c0.063,0.018,0.103,0.037,0.116,0.059c0.025,0.037,0.038,0.105,0.038,0.206C42.659,136.878,42.614,136.96,42.525,137.021z"/>
		<path fill="#0081CD" d="M51.54,136.688c-0.188,0.19-0.438,0.354-0.748,0.497c-0.312,0.14-0.66,0.256-1.047,0.348
			c-0.388,0.092-0.809,0.157-1.261,0.197c-0.453,0.04-0.919,0.056-1.396,0.049c0.109,0.251,0.173,0.502,0.192,0.749
			c0.019,0.248,0.006,0.489-0.038,0.724c-0.045,0.234-0.114,0.463-0.208,0.684s-0.202,0.428-0.326,0.62
			c-0.123,0.192-0.252,0.369-0.387,0.532c-0.135,0.162-0.26,0.303-0.377,0.42c-0.503,0.507-1.057,0.893-1.662,1.158
			c-0.606,0.266-1.206,0.425-1.801,0.477c-0.595,0.051-1.153,0.002-1.678-0.15c-0.522-0.15-0.951-0.394-1.286-0.726
			c-0.067-0.067-0.161-0.171-0.279-0.31c-0.117-0.141-0.223-0.314-0.315-0.523c-0.094-0.209-0.159-0.452-0.199-0.73
			c-0.039-0.276-0.015-0.588,0.072-0.933c0.086-0.345,0.252-0.724,0.496-1.138c0.244-0.412,0.604-0.859,1.081-1.339
			c0.669-0.673,1.376-1.272,2.12-1.795c0.744-0.523,1.493-0.963,2.247-1.319c0.753-0.356,1.491-0.627,2.215-0.812
			c0.723-0.185,1.399-0.273,2.03-0.268c0.546,0.003,1.049,0.083,1.51,0.239c0.459,0.156,0.841,0.385,1.145,0.686
			c0.176,0.176,0.312,0.37,0.411,0.584c0.097,0.214,0.146,0.435,0.146,0.665c0.001,0.229-0.051,0.466-0.156,0.707
			C51.937,136.222,51.77,136.458,51.54,136.688z M44.766,140.646c0.301-0.303,0.535-0.601,0.703-0.892s0.281-0.563,0.338-0.815
			c0.059-0.253,0.067-0.476,0.025-0.67c-0.041-0.193-0.118-0.346-0.231-0.459c-0.045-0.045-0.176-0.082-0.393-0.113
			s-0.476-0.062-0.778-0.092c-0.302-0.031-0.626-0.066-0.974-0.105c-0.347-0.039-0.674-0.086-0.98-0.139
			c-0.036,0.018-0.1,0.064-0.188,0.137c-0.09,0.072-0.189,0.153-0.297,0.244c-0.108,0.09-0.216,0.183-0.324,0.277
			c-0.107,0.096-0.195,0.178-0.263,0.244c-0.426,0.43-0.735,0.815-0.925,1.156c-0.191,0.342-0.304,0.643-0.339,0.904
			s-0.012,0.486,0.073,0.672c0.084,0.188,0.185,0.339,0.302,0.456c0.182,0.179,0.387,0.31,0.617,0.39s0.472,0.119,0.724,0.119
			c0.253-0.001,0.514-0.035,0.784-0.104c0.27-0.068,0.531-0.162,0.783-0.279c0.252-0.119,0.492-0.258,0.722-0.416
			s0.432-0.325,0.607-0.502L44.766,140.646z M50.348,135.908c0.202-0.203,0.322-0.402,0.363-0.596
			c0.039-0.194-0.036-0.386-0.226-0.574c-0.194-0.193-0.511-0.314-0.951-0.365c-0.439-0.051-0.963-0.016-1.568,0.106
			c-0.605,0.121-1.271,0.339-1.999,0.649c-0.727,0.311-1.476,0.728-2.243,1.248c0.555,0.065,1.056,0.115,1.505,0.146
			c0.448,0.033,0.867,0.053,1.257,0.057c0.39,0.006,0.765,0,1.123-0.018c0.357-0.016,0.722-0.039,1.091-0.066
			c0.108-0.01,0.241-0.029,0.396-0.06c0.154-0.03,0.312-0.07,0.472-0.123c0.16-0.052,0.31-0.112,0.449-0.181
			S50.267,135.99,50.348,135.908z"/>
		<path fill="#0081CD" d="M62.464,151.331c-0.039,0.059-0.136,0.142-0.29,0.249c-0.153,0.107-0.341,0.21-0.561,0.308
			c-0.346,0.159-0.741,0.319-1.187,0.483c-0.446,0.164-0.915,0.311-1.406,0.439c-0.491,0.131-0.995,0.238-1.512,0.323
			c-0.516,0.085-1.017,0.13-1.503,0.132s-0.945-0.044-1.38-0.137c-0.433-0.094-0.812-0.251-1.141-0.473
			c-0.332-0.225-0.598-0.476-0.796-0.752c-0.197-0.276-0.312-0.592-0.341-0.946s0.031-0.755,0.183-1.199
			c0.15-0.444,0.405-0.948,0.765-1.514c-0.316,0.047-0.637,0.104-0.959,0.171s-0.646,0.134-0.974,0.201
			c-0.326,0.067-0.652,0.133-0.979,0.192c-0.326,0.061-0.645,0.104-0.955,0.133c-0.632,0.058-1.218,0.054-1.759-0.013
			c-0.54-0.065-0.985-0.216-1.333-0.451c-0.053-0.035-0.124-0.133-0.214-0.289c-0.09-0.157-0.16-0.348-0.21-0.57
			c-0.05-0.222-0.062-0.469-0.036-0.739c0.025-0.271,0.128-0.539,0.307-0.803c0.226-0.333,0.452-0.637,0.681-0.913
			c0.229-0.275,0.47-0.534,0.722-0.776c0.252-0.241,0.518-0.474,0.795-0.696c0.278-0.225,0.579-0.454,0.9-0.69
			c0.08-0.062,0.196-0.147,0.35-0.261c0.152-0.111,0.31-0.234,0.473-0.366c0.162-0.132,0.32-0.263,0.472-0.391
			c0.152-0.128,0.268-0.239,0.346-0.332c0.061-0.066,0.151-0.126,0.272-0.18c0.12-0.053,0.248-0.094,0.382-0.122
			c0.135-0.028,0.262-0.043,0.381-0.043c0.12,0,0.206,0.02,0.259,0.055c0.068,0.046,0.127,0.125,0.176,0.234
			s0.085,0.227,0.109,0.352c0.023,0.123,0.034,0.241,0.031,0.354c-0.004,0.112-0.023,0.196-0.06,0.249
			c-0.028,0.042-0.096,0.104-0.201,0.187c-0.106,0.083-0.235,0.175-0.389,0.275c-0.151,0.1-0.318,0.204-0.498,0.31
			c-0.179,0.105-0.356,0.203-0.531,0.291c-0.269,0.135-0.548,0.314-0.839,0.541c-0.292,0.227-0.573,0.469-0.846,0.728
			c-0.271,0.259-0.52,0.52-0.747,0.781c-0.228,0.261-0.411,0.495-0.55,0.701c-0.035,0.054-0.068,0.13-0.097,0.229
			c-0.029,0.1-0.051,0.202-0.065,0.309c-0.014,0.105-0.014,0.203-0.001,0.293c0.012,0.09,0.042,0.15,0.089,0.182
			c0.133,0.09,0.342,0.148,0.627,0.176s0.61,0.033,0.974,0.019c0.364-0.016,0.751-0.048,1.158-0.1
			c0.409-0.051,0.806-0.108,1.19-0.171s0.738-0.13,1.059-0.201c0.322-0.071,0.582-0.135,0.783-0.191
			c0.475-0.133,0.93-0.282,1.363-0.445c0.434-0.164,0.852-0.35,1.253-0.555c0.363-0.186,0.661-0.321,0.893-0.407
			c0.231-0.085,0.41-0.085,0.537,0c0.121,0.081,0.201,0.173,0.238,0.271c0.036,0.099,0.049,0.195,0.035,0.289
			c-0.015,0.095-0.044,0.185-0.09,0.269c-0.045,0.085-0.09,0.159-0.133,0.222c-0.011,0.016-0.05,0.048-0.116,0.096
			c-0.066,0.047-0.146,0.104-0.242,0.17s-0.199,0.139-0.313,0.215c-0.113,0.078-0.222,0.149-0.323,0.215
			c-0.102,0.066-0.191,0.123-0.267,0.172c-0.076,0.049-0.126,0.08-0.15,0.094c-0.177,0.127-0.353,0.258-0.526,0.395
			c-0.173,0.137-0.339,0.279-0.496,0.427s-0.302,0.294-0.431,0.44c-0.131,0.147-0.241,0.286-0.33,0.418
			c-0.168,0.249-0.304,0.489-0.408,0.723c-0.104,0.234-0.163,0.455-0.178,0.664c-0.015,0.21,0.02,0.404,0.102,0.584
			c0.083,0.18,0.225,0.336,0.425,0.472c0.228,0.153,0.509,0.261,0.844,0.323c0.336,0.061,0.704,0.088,1.107,0.079
			c0.402-0.009,0.824-0.045,1.267-0.106c0.442-0.062,0.884-0.141,1.325-0.235c0.44-0.094,0.869-0.198,1.285-0.313
			c0.417-0.114,0.799-0.224,1.146-0.327c0.099-0.034,0.203-0.062,0.313-0.089c0.109-0.025,0.211-0.047,0.303-0.065
			c0.094-0.017,0.173-0.028,0.238-0.034s0.108-0.002,0.13,0.012c0.037,0.025,0.074,0.085,0.11,0.18
			C62.536,151.15,62.524,151.241,62.464,151.331z"/>
		<path fill="#0081CD" d="M81.99,157.379c-0.018,0.054-0.052,0.12-0.101,0.198c-0.05,0.078-0.105,0.16-0.172,0.246
			c-0.064,0.086-0.136,0.171-0.214,0.256c-0.079,0.086-0.158,0.158-0.239,0.219c-0.154,0.124-0.349,0.261-0.583,0.412
			s-0.487,0.305-0.761,0.46c-0.271,0.155-0.559,0.306-0.857,0.452c-0.301,0.146-0.589,0.274-0.866,0.385
			c-0.224,0.087-0.479,0.181-0.767,0.281c-0.289,0.1-0.585,0.184-0.889,0.251s-0.605,0.107-0.905,0.12
			c-0.299,0.012-0.567-0.021-0.803-0.098c-0.212-0.07-0.395-0.164-0.548-0.281c-0.151-0.117-0.272-0.282-0.359-0.496
			c-0.088-0.213-0.139-0.482-0.151-0.81c-0.014-0.326,0.016-0.732,0.089-1.219c0.027-0.206,0.064-0.423,0.109-0.653
			s0.09-0.459,0.134-0.686c0.045-0.227,0.089-0.445,0.131-0.656s0.072-0.399,0.091-0.564c0.018-0.165,0.021-0.3,0.012-0.404
			c-0.01-0.104-0.038-0.164-0.087-0.18c-0.079-0.025-0.212,0.005-0.397,0.091c-0.186,0.087-0.415,0.224-0.689,0.413
			c-0.273,0.188-0.582,0.421-0.924,0.697c-0.343,0.277-0.71,0.592-1.102,0.946c-0.777,0.711-1.41,1.237-1.898,1.579
			c-0.488,0.343-0.872,0.469-1.15,0.377c-0.418-0.137-0.635-0.426-0.65-0.868c-0.002-0.444,0.136-1.139,0.415-2.087
			c0.282-0.921,0.448-1.646,0.499-2.178c0.05-0.529-0.012-0.824-0.188-0.882c-0.109-0.036-0.301,0.011-0.574,0.14
			c-0.274,0.127-0.6,0.32-0.976,0.578c-0.378,0.26-0.798,0.572-1.261,0.94c-0.463,0.367-0.939,0.776-1.43,1.226
			c-0.133,0.117-0.285,0.252-0.455,0.404c-0.171,0.152-0.344,0.305-0.518,0.459c-0.175,0.153-0.344,0.297-0.505,0.432
			c-0.162,0.135-0.301,0.244-0.415,0.327c-0.26,0.196-0.513,0.255-0.761,0.173c-0.461-0.152-0.687-0.487-0.675-1.008
			c0.003-0.133,0.006-0.241,0.011-0.323c0.003-0.083,0.011-0.164,0.023-0.243c0.014-0.08,0.032-0.166,0.061-0.258
			c0.026-0.092,0.063-0.21,0.111-0.355c0.079-0.242,0.16-0.463,0.242-0.66c0.082-0.198,0.169-0.396,0.261-0.594
			s0.195-0.409,0.309-0.634c0.114-0.224,0.241-0.487,0.381-0.79c0.116-0.251,0.235-0.52,0.357-0.809
			c0.121-0.289,0.239-0.57,0.354-0.846c0.113-0.274,0.22-0.526,0.318-0.756c0.1-0.229,0.19-0.406,0.271-0.534
			c0.042-0.067,0.112-0.138,0.211-0.212c0.099-0.075,0.206-0.143,0.323-0.201c0.116-0.06,0.233-0.104,0.352-0.136
			c0.118-0.032,0.213-0.036,0.286-0.012c0.127,0.042,0.222,0.104,0.284,0.188c0.063,0.085,0.104,0.184,0.124,0.298
			s0.018,0.239-0.003,0.376c-0.022,0.138-0.056,0.275-0.102,0.414c-0.048,0.146-0.121,0.323-0.22,0.533
			c-0.1,0.208-0.212,0.433-0.338,0.673c-0.126,0.241-0.26,0.489-0.4,0.744c-0.142,0.257-0.277,0.5-0.407,0.731
			c-0.13,0.233-0.249,0.447-0.357,0.643c-0.108,0.197-0.192,0.357-0.255,0.485c-0.164,0.315-0.287,0.567-0.37,0.759
			c-0.083,0.19-0.145,0.347-0.184,0.469c0.104-0.054,0.242-0.139,0.415-0.256c0.174-0.117,0.367-0.26,0.582-0.423
			c0.216-0.164,0.445-0.347,0.688-0.549c0.245-0.201,0.492-0.408,0.744-0.621c0.176-0.149,0.375-0.319,0.595-0.509
			s0.446-0.379,0.68-0.567c0.232-0.188,0.46-0.363,0.681-0.525c0.222-0.162,0.419-0.295,0.595-0.397
			c0.35-0.207,0.686-0.342,1.009-0.404c0.321-0.061,0.631-0.044,0.928,0.055c0.291,0.096,0.506,0.291,0.646,0.59
			c0.14,0.297,0.188,0.64,0.14,1.027c-0.019,0.182-0.055,0.387-0.106,0.614s-0.108,0.466-0.169,0.714
			c-0.062,0.249-0.124,0.496-0.189,0.744c-0.064,0.246-0.124,0.481-0.177,0.706c-0.052,0.218-0.084,0.401-0.097,0.552
			s-0.014,0.272-0.004,0.366c0.009,0.094,0.023,0.162,0.043,0.206c0.02,0.043,0.038,0.067,0.056,0.073
			c0.116,0.038,0.389-0.138,0.818-0.526c0.219-0.196,0.461-0.414,0.729-0.656c0.268-0.24,0.562-0.506,0.886-0.795
			c0.321-0.284,0.654-0.551,0.998-0.799c0.344-0.25,0.67-0.463,0.98-0.641c0.31-0.176,0.589-0.305,0.837-0.388
			c0.249-0.083,0.442-0.102,0.582-0.056c0.091,0.029,0.182,0.07,0.272,0.119c0.091,0.051,0.176,0.109,0.255,0.176
			s0.145,0.136,0.197,0.211c0.053,0.074,0.087,0.146,0.104,0.221c0.043,0.174,0.054,0.361,0.032,0.559s-0.062,0.418-0.123,0.664
			c-0.061,0.245-0.131,0.517-0.213,0.815c-0.081,0.298-0.162,0.633-0.243,1.002c-0.165,0.784-0.219,1.393-0.162,1.824
			c0.056,0.431,0.25,0.7,0.584,0.811c0.127,0.042,0.301,0.052,0.522,0.032c0.223-0.022,0.464-0.064,0.727-0.129
			s0.535-0.146,0.816-0.246c0.279-0.098,0.545-0.201,0.795-0.307s0.492-0.215,0.728-0.329s0.474-0.23,0.714-0.35
			c0.24-0.118,0.488-0.243,0.742-0.374c0.255-0.131,0.526-0.27,0.815-0.416c0.098-0.049,0.176-0.063,0.236-0.043
			C82.022,157.128,82.042,157.222,81.99,157.379z"/>
		<path fill="#0081CD" d="M97.732,156.911c-0.003,0.07-0.041,0.191-0.115,0.364c-0.074,0.172-0.18,0.357-0.315,0.557
			c-0.211,0.316-0.463,0.661-0.756,1.035c-0.293,0.373-0.615,0.744-0.965,1.113c-0.351,0.367-0.723,0.724-1.117,1.068
			c-0.393,0.344-0.796,0.645-1.209,0.901s-0.828,0.46-1.246,0.608c-0.417,0.148-0.824,0.215-1.219,0.198
			c-0.4-0.017-0.759-0.091-1.072-0.222c-0.312-0.131-0.576-0.34-0.787-0.627c-0.211-0.285-0.37-0.657-0.476-1.114
			c-0.104-0.458-0.152-1.021-0.145-1.69c-0.244,0.207-0.486,0.424-0.726,0.649s-0.48,0.453-0.722,0.683
			c-0.243,0.229-0.486,0.455-0.731,0.678c-0.246,0.223-0.493,0.428-0.744,0.615c-0.507,0.381-1.008,0.686-1.502,0.914
			c-0.495,0.228-0.952,0.333-1.372,0.315c-0.063-0.003-0.176-0.046-0.334-0.133c-0.159-0.087-0.318-0.212-0.478-0.374
			c-0.159-0.163-0.299-0.367-0.42-0.611c-0.12-0.244-0.175-0.525-0.161-0.844c0.017-0.402,0.05-0.779,0.1-1.135
			s0.119-0.702,0.206-1.039c0.088-0.338,0.191-0.675,0.311-1.012c0.119-0.336,0.254-0.689,0.403-1.059
			c0.035-0.096,0.089-0.23,0.16-0.405c0.071-0.177,0.141-0.362,0.21-0.562c0.068-0.197,0.134-0.392,0.196-0.58
			c0.062-0.189,0.102-0.344,0.119-0.464c0.017-0.089,0.062-0.188,0.138-0.296c0.073-0.108,0.161-0.21,0.261-0.305
			s0.2-0.174,0.302-0.236s0.184-0.093,0.248-0.09c0.083,0.003,0.174,0.039,0.273,0.106c0.099,0.068,0.191,0.148,0.276,0.241
			c0.085,0.094,0.157,0.188,0.213,0.286c0.057,0.099,0.084,0.18,0.081,0.243c-0.002,0.051-0.026,0.139-0.073,0.265
			s-0.108,0.271-0.186,0.438c-0.077,0.165-0.164,0.341-0.261,0.524c-0.098,0.186-0.197,0.361-0.3,0.529
			c-0.157,0.254-0.301,0.555-0.43,0.9c-0.13,0.346-0.242,0.7-0.337,1.062c-0.095,0.363-0.169,0.716-0.225,1.058
			c-0.056,0.343-0.09,0.638-0.1,0.886c-0.003,0.063,0.01,0.146,0.038,0.246c0.027,0.1,0.062,0.198,0.106,0.296
			c0.045,0.098,0.096,0.181,0.152,0.251c0.058,0.068,0.116,0.104,0.173,0.107c0.159,0.006,0.368-0.054,0.625-0.18
			c0.257-0.127,0.537-0.292,0.839-0.496c0.302-0.205,0.612-0.436,0.933-0.693s0.628-0.516,0.922-0.771
			c0.295-0.256,0.561-0.499,0.796-0.728c0.236-0.23,0.425-0.422,0.565-0.575c0.333-0.362,0.643-0.728,0.926-1.095
			c0.283-0.369,0.541-0.745,0.774-1.131c0.212-0.349,0.395-0.621,0.546-0.814c0.151-0.195,0.304-0.289,0.456-0.283
			c0.147,0.007,0.262,0.041,0.345,0.105c0.084,0.064,0.145,0.14,0.183,0.229c0.038,0.087,0.06,0.179,0.064,0.274
			c0.006,0.097,0.008,0.183,0.005,0.259c-0.001,0.02-0.018,0.066-0.05,0.141c-0.031,0.076-0.07,0.167-0.116,0.273
			c-0.047,0.107-0.097,0.223-0.153,0.348c-0.056,0.125-0.111,0.242-0.163,0.353c-0.053,0.109-0.099,0.204-0.137,0.286
			c-0.038,0.081-0.063,0.135-0.078,0.159c-0.085,0.2-0.165,0.405-0.241,0.612c-0.074,0.207-0.142,0.414-0.197,0.623
			c-0.057,0.208-0.102,0.409-0.135,0.603c-0.034,0.192-0.055,0.369-0.062,0.528c-0.012,0.3-0.001,0.576,0.033,0.829
			c0.034,0.254,0.1,0.474,0.197,0.659s0.229,0.333,0.394,0.441c0.164,0.109,0.367,0.169,0.609,0.18
			c0.273,0.012,0.569-0.045,0.888-0.17c0.317-0.123,0.646-0.295,0.983-0.514c0.337-0.219,0.678-0.471,1.021-0.756
			c0.344-0.286,0.679-0.585,1.004-0.896c0.326-0.312,0.635-0.627,0.93-0.943c0.293-0.315,0.561-0.609,0.802-0.881
			c0.066-0.079,0.141-0.159,0.221-0.238c0.08-0.08,0.154-0.152,0.225-0.216c0.068-0.063,0.13-0.116,0.183-0.155
			s0.093-0.059,0.117-0.058c0.045,0.003,0.107,0.033,0.188,0.094C97.698,156.718,97.736,156.802,97.732,156.911z"/>
		<path fill="#0081CD" d="M108.24,154.177c0.018,0.113,0.02,0.241,0.007,0.385c-0.014,0.145-0.047,0.272-0.101,0.384
			c-0.029,0.063-0.071,0.141-0.128,0.233s-0.115,0.19-0.178,0.293c-0.061,0.104-0.123,0.202-0.186,0.295
			c-0.063,0.094-0.113,0.166-0.15,0.217c-0.537,0.735-1.088,1.461-1.65,2.178c-0.563,0.717-1.156,1.375-1.779,1.979
			c-0.621,0.604-1.286,1.124-1.992,1.562c-0.705,0.438-1.471,0.748-2.294,0.927c-0.433,0.081-0.833,0.064-1.202-0.046
			c-0.369-0.109-0.693-0.287-0.974-0.53c-0.279-0.243-0.509-0.546-0.691-0.903c-0.182-0.359-0.302-0.75-0.36-1.174
			c-0.064-0.416-0.084-0.856-0.056-1.322c0.027-0.465,0.095-0.937,0.201-1.415c0.106-0.478,0.251-0.954,0.431-1.431
			c0.182-0.477,0.396-0.938,0.643-1.382c0.101-0.183,0.224-0.38,0.368-0.59s0.306-0.408,0.483-0.597
			c0.177-0.189,0.368-0.352,0.572-0.485c0.205-0.136,0.418-0.22,0.638-0.255c0.208-0.031,0.436,0.001,0.684,0.098
			c0.247,0.098,0.483,0.235,0.708,0.413c0.224,0.178,0.418,0.384,0.583,0.615c0.166,0.233,0.267,0.472,0.306,0.718
			c0.056,0.358,0.035,0.648-0.06,0.869c-0.095,0.222-0.208,0.343-0.34,0.363c-0.12,0.019-0.233-0.002-0.343-0.059
			c-0.108-0.057-0.208-0.162-0.296-0.316c-0.097-0.166-0.194-0.324-0.292-0.478c-0.098-0.152-0.195-0.282-0.292-0.39
			c-0.098-0.107-0.195-0.191-0.291-0.251c-0.096-0.059-0.186-0.082-0.268-0.069c-0.106,0.018-0.229,0.09-0.367,0.222
			s-0.279,0.3-0.424,0.507c-0.146,0.206-0.285,0.438-0.419,0.698c-0.134,0.259-0.248,0.522-0.343,0.788
			c-0.091,0.247-0.171,0.519-0.24,0.816c-0.07,0.299-0.125,0.6-0.165,0.906c-0.039,0.307-0.062,0.611-0.065,0.914
			c-0.005,0.305,0.014,0.586,0.054,0.844c0.032,0.209,0.096,0.413,0.191,0.614s0.22,0.377,0.373,0.527
			c0.151,0.15,0.329,0.265,0.531,0.343s0.427,0.099,0.672,0.061c0.681-0.105,1.327-0.344,1.94-0.717s1.21-0.84,1.791-1.4
			c0.58-0.561,1.159-1.199,1.739-1.916c0.579-0.715,1.175-1.471,1.786-2.27c0.23-0.3,0.411-0.548,0.543-0.742
			c0.131-0.195,0.271-0.304,0.423-0.327c0.044-0.007,0.098,0.019,0.162,0.077C108.188,154.015,108.227,154.088,108.24,154.177z"/>
		<path fill="#0081CD" d="M112.64,155.215c-0.146,0.102-0.289,0.189-0.428,0.265c-0.139,0.074-0.327,0.156-0.566,0.244
			c-0.413,0.152-0.771,0.131-1.078-0.062c-0.305-0.192-0.547-0.532-0.726-1.017c-0.086-0.232-0.137-0.484-0.15-0.754
			c-0.015-0.271,0.001-0.548,0.045-0.833c0.045-0.284,0.117-0.573,0.217-0.864s0.222-0.576,0.363-0.852
			c0.142-0.263,0.297-0.52,0.467-0.769c0.169-0.249,0.358-0.481,0.567-0.698s0.441-0.41,0.698-0.583
			c0.255-0.172,0.542-0.316,0.858-0.433c0.167-0.062,0.341-0.094,0.521-0.096c0.18-0.001,0.353,0.035,0.519,0.109
			c0.167,0.075,0.323,0.192,0.467,0.354c0.145,0.16,0.266,0.376,0.365,0.645c0.074,0.203,0.124,0.442,0.146,0.716
			s0.03,0.535,0.024,0.786c-0.007,0.25-0.014,0.469-0.024,0.655c-0.009,0.187-0.009,0.292,0,0.315
			c0.013,0.037,0.032,0.064,0.057,0.086c0.025,0.021,0.05,0.027,0.073,0.02c0.108-0.04,0.228-0.049,0.358-0.025
			s0.216,0.09,0.256,0.197c0.017,0.048,0.027,0.124,0.028,0.229c0.001,0.105,0,0.217-0.004,0.337
			c-0.003,0.12-0.008,0.237-0.013,0.353c-0.006,0.113-0.007,0.201-0.006,0.262c0,0.203,0.01,0.384,0.026,0.54
			c0.018,0.157,0.041,0.298,0.074,0.421c0.031,0.125,0.067,0.24,0.106,0.348c0.04,0.107,0.078,0.21,0.112,0.306
			c0.094,0.251,0.218,0.433,0.374,0.544c0.157,0.113,0.358,0.123,0.604,0.033c0.228-0.084,0.491-0.279,0.792-0.588
			c0.301-0.307,0.618-0.688,0.949-1.144c0.332-0.456,0.669-0.968,1.013-1.54c0.343-0.57,0.676-1.167,0.996-1.788
			c0.089-0.169,0.185-0.356,0.291-0.566c0.106-0.208,0.21-0.405,0.309-0.587c0.1-0.183,0.188-0.339,0.266-0.47
			c0.077-0.13,0.131-0.201,0.161-0.212c0.048-0.019,0.104-0.035,0.165-0.051s0.123-0.016,0.185,0.004
			c0.03,0.084,0.054,0.163,0.067,0.238c0.013,0.071,0.021,0.143,0.023,0.217c0.004,0.073-0.002,0.137-0.017,0.189
			c-0.105,0.304-0.214,0.61-0.328,0.92c-0.113,0.311-0.243,0.618-0.389,0.924c-0.907,1.835-1.739,3.25-2.496,4.246
			c-0.758,0.996-1.478,1.619-2.159,1.871c-0.258,0.094-0.491,0.114-0.701,0.059c-0.211-0.055-0.401-0.16-0.569-0.314
			c-0.17-0.155-0.321-0.35-0.454-0.582c-0.134-0.232-0.249-0.48-0.346-0.744c-0.026-0.071-0.06-0.18-0.1-0.325
			c-0.04-0.145-0.078-0.31-0.114-0.492c-0.038-0.184-0.067-0.382-0.092-0.594s-0.034-0.424-0.03-0.636l-0.34,0.268
			c-0.148,0.408-0.318,0.819-0.509,1.232c-0.191,0.413-0.397,0.812-0.619,1.196s-0.457,0.749-0.707,1.096
			c-0.249,0.347-0.507,0.657-0.772,0.932c-0.193,0.193-0.377,0.368-0.551,0.523c-0.174,0.156-0.352,0.296-0.535,0.417
			c-0.183,0.121-0.371,0.231-0.566,0.33c-0.194,0.1-0.402,0.189-0.623,0.271c-0.275,0.102-0.544,0.151-0.806,0.149
			c-0.263-0.002-0.509-0.057-0.739-0.166s-0.439-0.271-0.628-0.486c-0.188-0.217-0.342-0.486-0.46-0.81
			c-0.152-0.413-0.173-0.762-0.061-1.048c0.111-0.286,0.306-0.479,0.58-0.58c0.162-0.061,0.314-0.027,0.459,0.096
			s0.293,0.357,0.447,0.701c0.112,0.25,0.28,0.43,0.504,0.538c0.223,0.108,0.492,0.104,0.811-0.013
			c0.646-0.238,1.24-0.643,1.784-1.213S112.133,156.142,112.64,155.215z M113.757,150.503c-0.028-0.077-0.067-0.154-0.116-0.232
			c-0.048-0.077-0.11-0.139-0.186-0.186c-0.075-0.048-0.167-0.076-0.276-0.088c-0.109-0.01-0.239,0.012-0.388,0.066
			c-0.216,0.08-0.418,0.213-0.608,0.398c-0.189,0.186-0.36,0.4-0.511,0.646c-0.15,0.245-0.28,0.51-0.39,0.795
			c-0.108,0.285-0.192,0.564-0.251,0.842c-0.057,0.276-0.086,0.54-0.085,0.791c0,0.251,0.033,0.463,0.097,0.636
			c0.028,0.078,0.067,0.152,0.117,0.222c0.05,0.07,0.109,0.131,0.179,0.18c0.068,0.049,0.145,0.082,0.229,0.099
			c0.084,0.017,0.172,0.009,0.261-0.024c0.281-0.104,0.52-0.219,0.714-0.345s0.399-0.286,0.613-0.48
			c0.107-0.095,0.205-0.226,0.293-0.394s0.161-0.354,0.223-0.557c0.062-0.201,0.109-0.414,0.143-0.637s0.053-0.441,0.06-0.654
			c0.006-0.213,0.001-0.413-0.018-0.6C113.839,150.794,113.806,150.634,113.757,150.503z"/>
		<path fill="#0081CD" d="M129.754,135.546c0.165,0.211,0.299,0.479,0.4,0.805c0.102,0.325,0.174,0.686,0.217,1.082
			c0.042,0.396,0.056,0.82,0.04,1.274c-0.017,0.455-0.058,0.918-0.124,1.392c0.264-0.077,0.52-0.11,0.769-0.098
			c0.247,0.012,0.485,0.054,0.713,0.127c0.228,0.072,0.445,0.169,0.652,0.289c0.208,0.121,0.399,0.254,0.575,0.4
			c0.175,0.146,0.336,0.295,0.48,0.449c0.145,0.153,0.269,0.296,0.371,0.426c0.44,0.562,0.756,1.16,0.944,1.793
			c0.189,0.634,0.272,1.249,0.251,1.846c-0.022,0.597-0.141,1.145-0.355,1.646s-0.509,0.896-0.879,1.188
			c-0.075,0.059-0.189,0.138-0.342,0.238c-0.153,0.1-0.34,0.182-0.559,0.249c-0.219,0.066-0.469,0.103-0.748,0.106
			c-0.28,0.005-0.586-0.057-0.918-0.186c-0.331-0.128-0.688-0.34-1.067-0.633s-0.778-0.706-1.195-1.237
			c-0.587-0.747-1.094-1.522-1.521-2.325c-0.427-0.803-0.771-1.601-1.032-2.393c-0.26-0.792-0.438-1.559-0.533-2.298
			c-0.094-0.74-0.099-1.423-0.015-2.049c0.069-0.54,0.211-1.029,0.422-1.468c0.213-0.438,0.486-0.788,0.822-1.051
			c0.196-0.154,0.405-0.266,0.63-0.336c0.224-0.071,0.45-0.093,0.679-0.065c0.228,0.028,0.455,0.108,0.683,0.243
			C129.339,135.095,129.553,135.292,129.754,135.546z M128.833,136.634c-0.178-0.226-0.36-0.37-0.547-0.434
			c-0.188-0.064-0.387-0.014-0.599,0.152c-0.215,0.17-0.375,0.469-0.479,0.898c-0.104,0.432-0.134,0.954-0.087,1.57
			c0.045,0.615,0.178,1.304,0.397,2.063c0.219,0.76,0.54,1.554,0.963,2.38c0.133-0.541,0.243-1.033,0.33-1.475
			c0.088-0.441,0.158-0.854,0.212-1.241c0.053-0.387,0.094-0.759,0.121-1.116c0.026-0.357,0.049-0.721,0.066-1.092
			c0.004-0.108,0.001-0.241-0.009-0.399c-0.011-0.158-0.032-0.319-0.065-0.483c-0.031-0.166-0.073-0.321-0.124-0.469
			C128.964,136.843,128.903,136.724,128.833,136.634z M132.847,142.757c-0.264-0.336-0.529-0.605-0.798-0.808
			c-0.269-0.203-0.524-0.349-0.768-0.437c-0.244-0.088-0.465-0.124-0.661-0.107c-0.197,0.018-0.358,0.074-0.484,0.173
			c-0.05,0.04-0.104,0.165-0.161,0.376s-0.12,0.465-0.188,0.761s-0.142,0.613-0.224,0.954c-0.082,0.339-0.168,0.658-0.259,0.955
			c0.014,0.039,0.051,0.105,0.112,0.204c0.061,0.099,0.129,0.207,0.206,0.325c0.076,0.118,0.155,0.236,0.235,0.355
			c0.082,0.119,0.151,0.216,0.211,0.291c0.373,0.477,0.719,0.83,1.032,1.061c0.315,0.23,0.601,0.38,0.855,0.447
			c0.256,0.067,0.481,0.07,0.677,0.01c0.195-0.06,0.358-0.141,0.489-0.243c0.2-0.157,0.355-0.347,0.463-0.563
			c0.108-0.219,0.178-0.453,0.207-0.705c0.03-0.25,0.028-0.514-0.007-0.79c-0.034-0.276-0.095-0.548-0.181-0.812
			c-0.086-0.265-0.194-0.521-0.322-0.768c-0.129-0.248-0.271-0.469-0.425-0.664L132.847,142.757z"/>
		<path fill="#0081CD" d="M132.296,130.683c0.299,0.286,0.479,0.609,0.541,0.969c0.066,0.355-0.041,0.68-0.323,0.974
			c-0.177,0.185-0.4,0.363-0.672,0.536c-0.267,0.168-0.462,0.192-0.587,0.073c-0.226-0.216-0.373-0.492-0.444-0.829
			c-0.069-0.336-0.074-0.666-0.014-0.987c0.062-0.249,0.115-0.396,0.159-0.442c0.251-0.263,0.48-0.431,0.688-0.506
			C131.854,130.396,132.069,130.467,132.296,130.683z M135.157,135.727c0.156,0.15,0.319,0.335,0.488,0.555s0.335,0.438,0.497,0.655
			c0.308,0.408,0.591,0.764,0.852,1.066c0.262,0.304,0.498,0.557,0.71,0.76c0.097,0.092,0.223,0.203,0.376,0.333
			c0.154,0.13,0.322,0.26,0.506,0.392c0.183,0.131,0.377,0.254,0.583,0.365c0.205,0.113,0.404,0.199,0.6,0.258
			c0.195,0.06,0.38,0.079,0.553,0.06c0.174-0.02,0.324-0.096,0.452-0.229c0.202-0.213,0.366-0.473,0.493-0.785
			c0.126-0.312,0.226-0.642,0.3-0.99c0.073-0.35,0.126-0.701,0.159-1.059c0.034-0.356,0.058-0.691,0.073-1.002
			c0.024-0.33,0.041-0.681,0.049-1.053c0.007-0.372,0.007-0.744-0.004-1.116s-0.027-0.737-0.051-1.095s-0.057-0.689-0.1-0.994
			c-0.005-0.014-0.01-0.045-0.016-0.096c-0.005-0.049-0.013-0.102-0.02-0.158c-0.009-0.057-0.012-0.107-0.011-0.154
			c0.001-0.048,0.009-0.078,0.022-0.093c0.07-0.073,0.155-0.093,0.255-0.06c0.1,0.035,0.196,0.096,0.288,0.184
			c0.106,0.102,0.2,0.281,0.282,0.541s0.155,0.57,0.22,0.932c0.063,0.362,0.118,0.76,0.161,1.194s0.079,0.876,0.106,1.326
			c0.024,0.527,0.029,1.054,0.014,1.582s-0.062,1.073-0.141,1.634c-0.139,1.103-0.45,1.908-0.935,2.414
			c-0.534,0.557-1.135,0.811-1.804,0.762c-0.355-0.023-0.705-0.102-1.046-0.234c-0.341-0.132-0.67-0.293-0.988-0.482
			c-0.317-0.189-0.62-0.402-0.909-0.64s-0.562-0.479-0.82-0.726c-0.065-0.062-0.151-0.151-0.26-0.269s-0.226-0.249-0.354-0.398
			c-0.127-0.147-0.259-0.306-0.396-0.472s-0.266-0.324-0.386-0.476c-0.12-0.15-0.229-0.29-0.327-0.419
			c-0.097-0.128-0.167-0.23-0.209-0.306c-0.155-0.272-0.213-0.589-0.177-0.95c0.032-0.375,0.159-0.678,0.38-0.907
			C134.745,135.452,134.923,135.502,135.157,135.727z"/>
		<path fill="#0081CD" d="M144.495,124.604c0.482,0.343,0.912,0.703,1.288,1.083c0.376,0.379,0.707,0.771,0.994,1.178
			c0.286,0.406,0.535,0.827,0.746,1.262c0.212,0.436,0.396,0.879,0.55,1.332c0.154,0.445,0.263,0.898,0.325,1.361
			c0.063,0.463,0.074,0.921,0.033,1.377c-0.042,0.455-0.137,0.898-0.284,1.328c-0.148,0.43-0.357,0.834-0.626,1.215
			c-0.137,0.191-0.335,0.34-0.597,0.443c-0.262,0.105-0.561,0.15-0.899,0.137c-0.338-0.013-0.704-0.087-1.098-0.221
			c-0.393-0.134-0.792-0.345-1.198-0.632c-0.302-0.214-0.6-0.462-0.896-0.745c-0.295-0.284-0.571-0.626-0.826-1.025
			c-0.256-0.4-0.485-0.865-0.688-1.396c-0.203-0.53-0.36-1.151-0.473-1.863c-0.06-0.401-0.08-0.794-0.063-1.177
			c0.018-0.381,0.059-0.737,0.123-1.066c0.064-0.328,0.149-0.625,0.254-0.887c0.104-0.263,0.214-0.477,0.332-0.644
			c0.048-0.067,0.088-0.124,0.121-0.172c0.033-0.046,0.069-0.091,0.107-0.135c0.038-0.043,0.077-0.087,0.115-0.129
			c0.039-0.043,0.085-0.097,0.137-0.161c-0.441-0.203-0.877-0.357-1.306-0.463c-0.431-0.105-0.834-0.144-1.214-0.115
			c-0.419,0.031-0.79,0.121-1.113,0.273c-0.321,0.15-0.582,0.366-0.78,0.646c-0.048,0.068-0.104,0.155-0.168,0.263
			c-0.064,0.106-0.127,0.22-0.188,0.341c-0.062,0.119-0.116,0.24-0.161,0.359c-0.046,0.12-0.073,0.225-0.081,0.312
			c-0.003,0.061-0.017,0.129-0.04,0.206s-0.05,0.155-0.08,0.236c-0.029,0.081-0.062,0.155-0.095,0.226
			c-0.034,0.069-0.063,0.123-0.09,0.159c-0.025,0.036-0.065,0.065-0.119,0.086c-0.054,0.02-0.11,0.032-0.172,0.036
			s-0.12-0.002-0.178-0.015c-0.058-0.014-0.106-0.034-0.147-0.063c-0.067-0.048-0.122-0.126-0.163-0.233
			c-0.042-0.107-0.07-0.225-0.085-0.353c-0.015-0.127-0.021-0.257-0.018-0.388c0.003-0.13,0.01-0.243,0.021-0.337
			c0.034-0.257,0.115-0.566,0.243-0.93c0.128-0.362,0.324-0.73,0.59-1.104c0.195-0.276,0.448-0.513,0.756-0.712
			c0.31-0.199,0.66-0.351,1.055-0.455c0.394-0.104,0.826-0.154,1.298-0.152s0.965,0.062,1.481,0.182
			c0.517,0.12,1.051,0.305,1.604,0.557C143.376,123.881,143.933,124.206,144.495,124.604z M144.146,126.302
			c-0.031-0.022-0.092-0.066-0.181-0.134s-0.192-0.141-0.312-0.222c-0.119-0.08-0.244-0.159-0.377-0.237
			c-0.132-0.078-0.25-0.138-0.354-0.179c-0.177,0.271-0.33,0.599-0.46,0.979c-0.129,0.382-0.219,0.788-0.268,1.222
			c-0.05,0.435-0.048,0.881,0.006,1.341c0.053,0.459,0.168,0.9,0.346,1.323c0.169,0.424,0.342,0.789,0.523,1.098
			c0.181,0.307,0.362,0.572,0.547,0.797c0.186,0.226,0.371,0.418,0.559,0.577c0.188,0.16,0.377,0.309,0.57,0.444
			c0.119,0.085,0.267,0.158,0.442,0.22c0.174,0.062,0.346,0.106,0.513,0.136c0.167,0.028,0.316,0.038,0.447,0.029
			s0.214-0.036,0.247-0.082c0.08-0.115,0.162-0.237,0.242-0.368c0.08-0.13,0.154-0.277,0.219-0.442
			c0.066-0.164,0.115-0.348,0.146-0.553s0.037-0.435,0.016-0.691c-0.023-0.354-0.085-0.709-0.186-1.069s-0.227-0.713-0.376-1.058
			c-0.15-0.344-0.321-0.678-0.511-1s-0.387-0.617-0.59-0.887c-0.204-0.27-0.41-0.511-0.618-0.725
			C144.531,126.609,144.333,126.435,144.146,126.302z"/>
		<path fill="#0081CD" d="M150.774,115.277c0.039,0.021,0.105,0.086,0.199,0.195s0.187,0.235,0.279,0.377
			c0.5,1.07,0.956,2.117,1.37,3.141c0.414,1.021,0.741,1.983,0.981,2.884s0.372,1.721,0.396,2.462
			c0.024,0.742-0.103,1.367-0.381,1.877c-0.247,0.475-0.538,0.843-0.874,1.103c-0.337,0.261-0.706,0.426-1.109,0.497
			c-0.403,0.07-0.835,0.055-1.295-0.048s-0.937-0.281-1.429-0.536c-0.396-0.207-0.794-0.456-1.194-0.75
			c-0.401-0.293-0.778-0.625-1.134-0.992c-0.354-0.367-0.68-0.768-0.976-1.201s-0.538-0.897-0.728-1.391
			c-0.078-0.197-0.141-0.41-0.191-0.637c-0.051-0.228-0.084-0.459-0.1-0.693c-0.015-0.233-0.007-0.463,0.023-0.688
			c0.031-0.226,0.089-0.434,0.174-0.626c0.098-0.201,0.229-0.366,0.393-0.497c0.165-0.13,0.345-0.223,0.539-0.28
			c0.194-0.057,0.398-0.077,0.612-0.06s0.415,0.072,0.604,0.163c0.471,0.216,0.879,0.595,1.226,1.137
			c0.347,0.543,0.65,1.276,0.91,2.202c0.049,0.168,0.105,0.377,0.17,0.627c0.065,0.248,0.13,0.514,0.195,0.795
			c0.066,0.282,0.128,0.57,0.188,0.863c0.06,0.293,0.107,0.571,0.144,0.834c0.231,0.119,0.474,0.206,0.728,0.259
			c0.253,0.052,0.503,0.058,0.75,0.018s0.479-0.136,0.692-0.287c0.215-0.15,0.398-0.372,0.552-0.667
			c0.158-0.306,0.252-0.662,0.28-1.071c0.029-0.409,0.01-0.854-0.059-1.34c-0.068-0.483-0.179-0.997-0.332-1.54
			c-0.152-0.543-0.328-1.102-0.527-1.68c-0.2-0.578-0.417-1.166-0.652-1.766c-0.234-0.6-0.472-1.195-0.711-1.785
			c-0.011-0.035-0.025-0.082-0.045-0.143c-0.019-0.06-0.037-0.125-0.055-0.195c-0.018-0.069-0.027-0.141-0.03-0.21
			c-0.004-0.069,0.008-0.13,0.034-0.181c0.01-0.018,0.028-0.038,0.059-0.061c0.03-0.025,0.064-0.048,0.103-0.072
			c0.037-0.023,0.075-0.039,0.115-0.047C150.712,115.259,150.745,115.263,150.774,115.277z M146.714,121.066
			c-0.182-0.08-0.343-0.115-0.483-0.105c-0.142,0.01-0.243,0.08-0.306,0.214c-0.139,0.308-0.127,0.694,0.034,1.159
			s0.492,0.988,0.994,1.572c0.104,0.117,0.223,0.244,0.357,0.379s0.274,0.266,0.415,0.393c0.143,0.129,0.284,0.252,0.427,0.373
			s0.271,0.225,0.383,0.311c-0.068-0.408-0.161-0.79-0.278-1.146c-0.117-0.354-0.225-0.688-0.322-0.997
			c-0.076-0.24-0.157-0.477-0.242-0.707s-0.176-0.441-0.275-0.633c-0.098-0.191-0.205-0.357-0.321-0.5
			C146.979,121.235,146.852,121.13,146.714,121.066z"/>
		<path fill="#0081CD" d="M154.235,104.21c0.133,0.045,0.249,0.125,0.349,0.239s0.201,0.276,0.305,0.486
			c0.128,0.259,0.228,0.535,0.295,0.831c0.069,0.295,0.111,0.592,0.129,0.891c0.017,0.299,0.01,0.586-0.023,0.865
			c-0.033,0.277-0.089,0.528-0.163,0.752c-0.234,0.694-0.604,1.242-1.109,1.645c0.372,0.192,0.695,0.402,0.968,0.629
			c0.273,0.227,0.515,0.48,0.722,0.762c0.208,0.282,0.393,0.603,0.555,0.96c0.162,0.356,0.316,0.766,0.465,1.226
			c0.195,0.598,0.268,1.237,0.215,1.92c-0.051,0.682-0.191,1.364-0.422,2.047c-0.079,0.235-0.232,0.439-0.459,0.612
			s-0.478,0.31-0.754,0.411c-0.276,0.103-0.557,0.165-0.84,0.187c-0.283,0.022-0.525,0-0.724-0.067
			c-0.489-0.164-0.934-0.375-1.332-0.631c-0.398-0.255-0.769-0.55-1.109-0.883c-0.342-0.334-0.661-0.703-0.959-1.105
			c-0.298-0.403-0.592-0.836-0.88-1.297c-0.163-0.256-0.306-0.553-0.432-0.892c-0.125-0.337-0.223-0.681-0.294-1.026
			c-0.071-0.348-0.109-0.684-0.114-1.008s0.032-0.604,0.111-0.84c0.065-0.193,0.142-0.375,0.229-0.544
			c0.088-0.169,0.2-0.324,0.339-0.466c0.139-0.143,0.31-0.264,0.512-0.367c0.204-0.104,0.453-0.186,0.75-0.247
			c0.072-0.016,0.188-0.019,0.346-0.009c0.158,0.009,0.326,0.021,0.503,0.033c0.179,0.012,0.348,0.021,0.507,0.023
			c0.16,0.004,0.279-0.008,0.355-0.036c0.153-0.056,0.315-0.13,0.485-0.226c0.169-0.094,0.332-0.21,0.486-0.35
			s0.299-0.307,0.431-0.501c0.133-0.193,0.242-0.418,0.327-0.671c0.083-0.248,0.137-0.494,0.158-0.738
			c0.022-0.246,0.022-0.481,0.001-0.707c-0.021-0.226-0.062-0.441-0.12-0.646c-0.059-0.206-0.126-0.394-0.202-0.567
			c-0.067-0.138-0.117-0.248-0.146-0.332s-0.031-0.162-0.007-0.234c0.022-0.066,0.088-0.115,0.196-0.146
			C153.991,104.163,154.108,104.168,154.235,104.21z M152.922,110.922c-0.043-0.015-0.101-0.007-0.174,0.021
			c-0.074,0.029-0.164,0.071-0.271,0.126c-0.105,0.056-0.229,0.115-0.367,0.18c-0.14,0.063-0.297,0.126-0.473,0.188
			c-0.206,0.071-0.401,0.108-0.587,0.109c-0.186,0.002-0.35-0.007-0.491-0.024c-0.143-0.018-0.259-0.031-0.35-0.042
			c-0.091-0.01-0.144,0.009-0.16,0.058c-0.047,0.139-0.065,0.3-0.058,0.484c0.009,0.185,0.034,0.373,0.077,0.565
			c0.042,0.193,0.1,0.383,0.172,0.568c0.071,0.185,0.145,0.349,0.219,0.487c0.15,0.272,0.293,0.513,0.429,0.72
			c0.135,0.207,0.275,0.401,0.42,0.58c0.144,0.18,0.303,0.358,0.476,0.534s0.367,0.371,0.584,0.585
			c0.091,0.092,0.204,0.185,0.342,0.277c0.136,0.093,0.279,0.181,0.43,0.266c0.149,0.084,0.303,0.161,0.457,0.229
			c0.154,0.069,0.296,0.125,0.422,0.168c0.079,0.027,0.184,0.031,0.314,0.014c0.129-0.016,0.262-0.051,0.396-0.102
			c0.136-0.053,0.259-0.122,0.369-0.209c0.11-0.088,0.184-0.186,0.22-0.294c0.104-0.309,0.179-0.575,0.226-0.803
			c0.046-0.227,0.064-0.444,0.058-0.651s-0.039-0.426-0.098-0.652c-0.058-0.229-0.142-0.5-0.251-0.812
			c-0.105-0.304-0.252-0.6-0.438-0.885c-0.187-0.283-0.391-0.543-0.61-0.775c-0.222-0.232-0.445-0.428-0.672-0.584
			C153.307,111.091,153.103,110.983,152.922,110.922z"/>
	</g>
	<path fill="#0081CD" d="M75.248,70.729c0-4.683,3.157-6.344,7.019-3.693l26.405,18.141c3.859,2.652,3.859,6.993,0,9.643
		L82.265,112.96c-3.859,2.652-7.017,0.992-7.017-3.693V70.729z"/>
</g>
</svg>
