<?xml version="1.0" encoding="utf-8"?>
<!-- Generator: Adobe Illustrator 16.0.0, SVG Export Plug-In . SVG Version: 6.00 Build 0)  -->
<!DOCTYPE svg PUBLIC "-//W3C//DTD SVG 1.1//EN" "http://www.w3.org/Graphics/SVG/1.1/DTD/svg11.dtd">
<svg version="1.1" id="Шар_1" xmlns="http://www.w3.org/2000/svg" xmlns:xlink="http://www.w3.org/1999/xlink" x="0px" y="0px"
	 width="25px" height="32.629px" viewBox="0 0 25 32.629" enable-background="new 0 0 25 32.629" xml:space="preserve">
<g>
	<g>
		<g>
			<path fill="#00B181" d="M4.434,13.663c0,0.531,0.431,0.962,0.961,0.962h13.95c0.531,0,0.962-0.431,0.962-0.962
				s-0.431-0.961-0.962-0.961H5.395C4.864,12.702,4.434,13.132,4.434,13.663z"/>
			<path fill="#00B181" d="M5.395,18.006h13.95c0.531,0,0.962-0.431,0.962-0.961c0-0.531-0.431-0.962-0.962-0.962H5.395
				c-0.531,0-0.961,0.431-0.961,0.962C4.434,17.575,4.864,18.006,5.395,18.006z"/>
			<path fill="#00B181" d="M5.395,6.468h4.737c0.531,0,0.961-0.431,0.961-0.961c0-0.531-0.43-0.962-0.961-0.962H5.395
				c-0.531,0-0.961,0.431-0.961,0.962C4.434,6.037,4.864,6.468,5.395,6.468z"/>
			<path fill="#00B181" d="M12.158,25.895H5.395c-0.531,0-0.961,0.431-0.961,0.962s0.431,0.961,0.961,0.961h6.763
				c0.531,0,0.962-0.43,0.962-0.961S12.689,25.895,12.158,25.895z"/>
			<path fill="#00B181" d="M12.158,22.918H5.395c-0.531,0-0.961,0.431-0.961,0.962c0,0.53,0.431,0.961,0.961,0.961h6.763
				c0.531,0,0.962-0.431,0.962-0.961C13.12,23.349,12.689,22.918,12.158,22.918z"/>
			<path fill="#00B181" d="M24.718,7.544l-7.262-7.262C17.275,0.102,17.031,0,16.776,0H0.961C0.43,0,0,0.431,0,0.962v30.705
				c0,0.531,0.43,0.962,0.961,0.962h23.077c0.531,0,0.961-0.431,0.961-0.962V8.224C25,7.969,24.898,7.725,24.718,7.544z
				 M17.524,3.069l4.407,4.407h-4.407V3.069L17.524,3.069z M23.077,30.706H1.923V1.923h13.678v6.515c0,0.531,0.43,0.962,0.961,0.962
				h6.515V30.706z"/>
			<path fill="#00B181" d="M17.55,22.277c-1.718,0-3.115,1.397-3.115,3.114c0,1.719,1.397,3.116,3.115,3.116
				s3.115-1.397,3.115-3.116C20.666,23.675,19.268,22.277,17.55,22.277z M17.55,26.584c-0.657,0-1.191-0.534-1.191-1.192
				c0-0.656,0.534-1.191,1.191-1.191s1.192,0.535,1.192,1.191C18.743,26.05,18.208,26.584,17.55,26.584z"/>
		</g>
	</g>
</g>
</svg>
