<?xml version="1.0" encoding="utf-8"?>
<!-- Generator: Adobe Illustrator 16.0.0, SVG Export Plug-In . SVG Version: 6.00 Build 0)  -->
<!DOCTYPE svg PUBLIC "-//W3C//DTD SVG 1.1//EN" "http://www.w3.org/Graphics/SVG/1.1/DTD/svg11.dtd">
<svg version="1.1" id="Шар_1" xmlns="http://www.w3.org/2000/svg" xmlns:xlink="http://www.w3.org/1999/xlink" x="0px" y="0px"
	 width="108px" height="108px" viewBox="0 0 108 108" enable-background="new 0 0 108 108" xml:space="preserve">
<g>
	<g>
		<g>
			<path fill="#0055B8" d="M54,17.782c0.994,0,1.8-0.805,1.8-1.8v-1.8c0-0.996-0.806-1.8-1.8-1.8c-0.993,0-1.801,0.805-1.801,1.8
				v1.8C52.199,16.977,53.007,17.782,54,17.782z"/>
			<path fill="#0055B8" d="M52.199,91.583v1.799c0,0.996,0.808,1.801,1.801,1.801c0.994,0,1.8-0.805,1.8-1.801v-1.799
				c0-0.996-0.806-1.801-1.8-1.801C53.007,89.782,52.199,90.586,52.199,91.583z"/>
			<path fill="#0055B8" d="M93.6,55.582c0.994,0,1.801-0.805,1.801-1.8c0-0.996-0.807-1.8-1.801-1.8h-1.799
				c-0.994,0-1.801,0.805-1.801,1.8c0,0.995,0.807,1.8,1.801,1.8H93.6z"/>
			<path fill="#0055B8" d="M14.4,51.982c-0.993,0-1.801,0.805-1.801,1.8c0,0.995,0.808,1.8,1.801,1.8h1.8
				c0.993,0,1.801-0.805,1.801-1.8c0-0.996-0.808-1.8-1.801-1.8H14.4z"/>
			<path fill="#0055B8" d="M80.728,28.853c0.462,0,0.923-0.177,1.272-0.528l1.273-1.272c0.704-0.704,0.704-1.841,0-2.545
				c-0.703-0.705-1.841-0.705-2.546,0l-1.272,1.272c-0.702,0.704-0.702,1.841,0,2.545C79.808,28.678,80.268,28.853,80.728,28.853z"
				/>
			<path fill="#0055B8" d="M25.999,79.238l-1.271,1.272c-0.704,0.704-0.704,1.842,0,2.545c0.351,0.351,0.812,0.527,1.271,0.527
				c0.461,0,0.923-0.176,1.273-0.527l1.272-1.272c0.704-0.704,0.704-1.842,0-2.545S26.702,78.534,25.999,79.238z"/>
			<path fill="#0055B8" d="M82.002,79.238l1.271,1.272c0.704,0.704,0.704,1.842,0,2.545c-0.351,0.351-0.812,0.527-1.271,0.527
				c-0.461,0-0.922-0.176-1.273-0.527l-1.272-1.272c-0.703-0.704-0.703-1.842,0-2.545C80.16,78.534,81.299,78.534,82.002,79.238z"/>
			<path fill="#0055B8" d="M28.545,25.78l-1.272-1.272c-0.704-0.705-1.841-0.705-2.545,0c-0.704,0.704-0.704,1.841,0,2.545
				l1.271,1.272c0.352,0.351,0.812,0.528,1.273,0.528s0.922-0.177,1.272-0.528C29.249,27.623,29.249,26.483,28.545,25.78z"/>
		</g>
		<path fill="#0055B8" d="M104.903,72.022c0.118-0.332,0.234-0.665,0.346-1c0.101-0.304,0.201-0.607,0.297-0.912
			c0.158-0.506,0.308-1.016,0.452-1.528c0.076-0.273,0.15-0.546,0.223-0.82c0.144-0.542,0.28-1.087,0.406-1.637
			c0.054-0.232,0.103-0.467,0.152-0.701c0.111-0.511,0.216-1.025,0.312-1.542c0.042-0.225,0.083-0.449,0.121-0.674
			c0.096-0.557,0.183-1.118,0.262-1.681c0.024-0.175,0.051-0.35,0.073-0.526c0.084-0.643,0.154-1.29,0.215-1.939
			c0.016-0.166,0.03-0.332,0.044-0.499c0.057-0.669,0.102-1.342,0.134-2.018c0.005-0.123,0.009-0.247,0.014-0.37
			C107.981,55.453,108,54.729,108,54c0-2.326-0.147-4.619-0.435-6.868c-0.172-1.35-0.394-2.685-0.664-4.001
			c-0.09-0.439-0.186-0.876-0.286-1.311C101.078,17.89,79.589,0,54,0c-0.465,0-0.929,0.006-1.392,0.018
			C27.636,0.652,6.822,18.326,1.386,41.82C0.479,45.735,0,49.812,0,54c0,0.73,0.02,1.456,0.048,2.179
			c0.005,0.12,0.009,0.241,0.014,0.361c0.032,0.682,0.077,1.359,0.134,2.033c0.014,0.158,0.028,0.314,0.043,0.472
			c0.061,0.66,0.132,1.318,0.218,1.971c0.021,0.158,0.044,0.316,0.066,0.475c0.083,0.596,0.175,1.19,0.276,1.779
			c0.031,0.177,0.062,0.354,0.095,0.53c0.104,0.561,0.217,1.118,0.338,1.672c0.045,0.208,0.088,0.417,0.136,0.625
			c0.131,0.57,0.273,1.137,0.423,1.7c0.066,0.252,0.134,0.504,0.204,0.755c0.148,0.53,0.304,1.058,0.468,1.581
			C2.553,70.422,2.648,70.71,2.744,71c0.117,0.352,0.238,0.703,0.362,1.051c0.083,0.231,0.155,0.464,0.24,0.694
			c0.014,0.037,0.034,0.067,0.05,0.103c5.47,14.639,17.119,26.287,31.758,31.757c0.035,0.015,0.065,0.036,0.101,0.049
			c0.238,0.088,0.479,0.164,0.718,0.248c0.334,0.119,0.67,0.235,1.006,0.347c0.304,0.101,0.605,0.201,0.91,0.296
			c0.506,0.159,1.017,0.309,1.529,0.453c0.272,0.077,0.545,0.15,0.818,0.222c0.543,0.144,1.089,0.28,1.639,0.407
			c0.232,0.053,0.466,0.102,0.699,0.153c0.513,0.11,1.027,0.215,1.545,0.311c0.224,0.042,0.448,0.082,0.672,0.12
			c0.558,0.097,1.119,0.183,1.683,0.262c0.175,0.024,0.35,0.051,0.525,0.074c0.644,0.084,1.29,0.154,1.94,0.215
			c0.166,0.015,0.331,0.03,0.498,0.044c0.669,0.056,1.342,0.101,2.018,0.133c0.123,0.005,0.246,0.009,0.37,0.014
			C52.547,107.981,53.271,108,54,108c0.73,0,1.456-0.019,2.18-0.048c0.12-0.005,0.24-0.008,0.361-0.014
			c0.682-0.032,1.358-0.077,2.033-0.134c0.157-0.013,0.314-0.027,0.471-0.042c0.66-0.062,1.318-0.133,1.971-0.218
			c0.159-0.021,0.317-0.045,0.476-0.067c0.595-0.083,1.188-0.174,1.775-0.277c0.179-0.031,0.358-0.062,0.537-0.095
			c0.559-0.104,1.116-0.216,1.669-0.336c0.208-0.045,0.417-0.089,0.625-0.137c0.57-0.13,1.136-0.273,1.699-0.422
			c0.252-0.066,0.505-0.134,0.757-0.205c0.529-0.148,1.055-0.303,1.578-0.467c0.29-0.091,0.58-0.187,0.869-0.283
			c0.351-0.117,0.699-0.237,1.046-0.361c0.232-0.082,0.467-0.156,0.698-0.241c0.037-0.013,0.067-0.034,0.104-0.05
			c14.638-5.47,26.286-17.119,31.756-31.757c0.016-0.035,0.037-0.065,0.05-0.102C104.743,72.505,104.818,72.263,104.903,72.022z
			 M70.588,101.592c-0.209,0.073-0.418,0.146-0.628,0.217c-0.317,0.106-0.636,0.21-0.956,0.311
			c-0.457,0.142-0.914,0.278-1.375,0.407c-0.264,0.074-0.527,0.146-0.792,0.215c-0.507,0.133-1.014,0.261-1.524,0.378
			c-0.211,0.049-0.424,0.093-0.636,0.139c-0.496,0.107-0.993,0.209-1.491,0.301c-0.186,0.034-0.372,0.067-0.559,0.1
			c-0.539,0.093-1.082,0.178-1.625,0.253c-0.152,0.021-0.304,0.043-0.456,0.064c-0.61,0.079-1.222,0.146-1.835,0.203
			c-0.146,0.013-0.295,0.027-0.442,0.039c-0.631,0.053-1.263,0.096-1.896,0.125c-0.112,0.005-0.226,0.008-0.339,0.013
			c-0.676,0.027-1.353,0.044-2.033,0.044c-0.679,0-1.357-0.018-2.033-0.044c-0.113-0.004-0.227-0.008-0.34-0.013
			c-0.633-0.029-1.264-0.072-1.893-0.125c-0.15-0.013-0.3-0.026-0.449-0.04c-0.612-0.057-1.223-0.124-1.83-0.202
			c-0.154-0.021-0.305-0.043-0.458-0.064c-0.547-0.076-1.093-0.161-1.638-0.255c-0.177-0.031-0.354-0.062-0.53-0.094
			c-0.511-0.095-1.021-0.199-1.529-0.309c-0.198-0.043-0.397-0.085-0.596-0.13c-0.528-0.122-1.056-0.254-1.58-0.393
			c-0.235-0.062-0.471-0.125-0.705-0.191c-0.495-0.138-0.989-0.284-1.48-0.438c-0.265-0.083-0.528-0.17-0.791-0.258
			c-0.35-0.115-0.698-0.236-1.046-0.36c-14.319-5.112-25.669-16.527-30.69-30.888c-0.074-0.212-0.149-0.424-0.22-0.637
			c-0.105-0.316-0.21-0.633-0.31-0.952c-0.144-0.458-0.278-0.918-0.408-1.379c-0.074-0.263-0.145-0.526-0.214-0.79
			c-0.134-0.507-0.262-1.015-0.379-1.526c-0.048-0.21-0.093-0.422-0.138-0.633c-0.108-0.497-0.209-0.996-0.302-1.496
			c-0.034-0.184-0.066-0.369-0.099-0.553C4.249,62.088,4.165,61.544,4.09,61c-0.021-0.151-0.045-0.302-0.064-0.454
			c-0.079-0.609-0.146-1.221-0.203-1.835c-0.014-0.147-0.026-0.294-0.039-0.442c-0.053-0.631-0.096-1.263-0.125-1.897
			c-0.006-0.112-0.009-0.225-0.014-0.338C3.618,55.357,3.601,54.68,3.601,54c0-3.908,0.447-7.713,1.293-11.368
			c0.188-0.812,0.396-1.617,0.622-2.414c0.113-0.398,0.232-0.795,0.354-1.189C12.139,18.921,30.689,4.176,52.702,3.617
			C53.133,3.605,53.566,3.6,54,3.6c0.435,0,0.867,0.005,1.3,0.017c24.17,0.614,44.167,18.331,48.312,41.474
			c0.518,2.893,0.788,5.87,0.788,8.91c0,0.68-0.018,1.357-0.045,2.033c-0.004,0.114-0.008,0.227-0.013,0.34
			c-0.029,0.633-0.072,1.264-0.125,1.894c-0.013,0.149-0.025,0.299-0.04,0.448c-0.057,0.612-0.123,1.223-0.202,1.831
			c-0.021,0.153-0.043,0.305-0.063,0.457c-0.076,0.548-0.161,1.094-0.256,1.639c-0.031,0.176-0.062,0.353-0.094,0.529
			c-0.095,0.512-0.199,1.021-0.31,1.53c-0.043,0.199-0.084,0.398-0.13,0.596c-0.121,0.529-0.254,1.055-0.393,1.581
			c-0.062,0.236-0.125,0.471-0.191,0.706c-0.139,0.495-0.284,0.988-0.438,1.479c-0.084,0.265-0.171,0.529-0.258,0.792
			c-0.116,0.349-0.237,0.696-0.36,1.043C96.371,85.22,84.953,96.57,70.588,101.592z"/>
	</g>
	<g>
		<path fill="#00B181" d="M79.221,49.905l-2.114-3.814v-1.796c0-1.972-1.387-3.625-3.235-4.04l-3.845-6.934
			c-1.106-1.998-3.634-2.721-5.633-1.614l-6.581,3.647l-2.145,1.19l-2.958,1.639l-2.146,1.189l-1.406,0.779h-1.225h-2.452H42.1
			h-2.453h-4.608c-2.284,0-4.144,1.859-4.144,4.144v6.004c-1.744,1.192-2.329,3.543-1.284,5.426l1.284,2.318v5.213
			c0,2.285,1.859,4.143,4.144,4.143h1.043l2.722,4.911c1.107,1.996,3.635,2.72,5.633,1.614l2.755-1.528l2.145-1.188l6.872-3.809
			h6.125h6.487c0,0.03,0.002,0,0.002,0h2.45h1.69c2.285,0,4.145-1.858,4.145-4.143v-7.442l0.497-0.276
			C79.603,54.431,80.328,51.905,79.221,49.905z M65.583,33.852c0.816-0.452,2.425,0.887,3.591,2.991l1.835,3.309h-5.571h-2.453
			h-3.381H57.15h-2.933L65.583,33.852z M43.247,71.78c-0.816,0.452-1.777,0.282-2.145-0.379l-2.218-4h1.756h10.508L43.247,71.78z
			 M74.653,63.257c0,0.933-0.759,1.691-1.691,1.691h-1.69H60.255H35.038c-0.932,0-1.69-0.759-1.69-1.691V48.438h41.306V63.257z
			 M74.653,45.986H33.348v-1.691c0-0.932,0.759-1.691,1.69-1.691h37.924c0.933,0,1.691,0.759,1.691,1.691V45.986z M77.106,52.76
			v-1.608l0.124,0.225C77.465,51.798,77.396,52.319,77.106,52.76z"/>
		<path fill="#00B181" d="M40.873,63.025c0.711,0,1.418-0.144,2.1-0.424l0.089-0.037l0.089,0.037
			c0.681,0.281,1.387,0.424,2.099,0.424c3.089,0,5.602-2.514,5.602-5.603c0-3.089-2.513-5.602-5.602-5.602
			c-0.712,0-1.419,0.143-2.099,0.424l-0.089,0.036l-0.089-0.036c-0.681-0.281-1.387-0.424-2.1-0.424
			c-3.09,0-5.603,2.513-5.603,5.602C35.271,60.512,37.783,63.025,40.873,63.025z M40.873,54.273c0.542,0,1.07,0.148,1.57,0.44
			l0.618,0.359l0.618-0.36c0.498-0.291,1.027-0.439,1.569-0.439c1.736,0,3.149,1.413,3.149,3.149s-1.413,3.15-3.149,3.15
			c-0.542,0-1.07-0.148-1.57-0.44l-0.617-0.359l-0.62,0.359c-0.499,0.292-1.027,0.44-1.568,0.44c-1.736,0-3.149-1.413-3.149-3.15
			S39.137,54.273,40.873,54.273z"/>
	</g>
</g>
</svg>
