<?xml version="1.0" encoding="iso-8859-1"?>
<!-- Generator: Adobe Illustrator 18.1.1, SVG Export Plug-In . SVG Version: 6.00 Build 0)  -->
<svg version="1.1" id="Capa_1" xmlns="http://www.w3.org/2000/svg" xmlns:xlink="http://www.w3.org/1999/xlink" x="0px" y="0px"
	 viewBox="0 0 326.344 326.344" style="enable-background:new 0 0 326.344 326.344;" xml:space="preserve">
<g>
	<path style="fill:#010002;" d="M261.075,0H65.269C29.224,0,0,29.224,0,65.269v195.806c0,36.045,29.224,65.269,65.269,65.269
		h195.806c36.045,0,65.269-29.224,65.269-65.269V65.269C326.344,29.224,297.12,0,261.075,0z M163.172,293.606
		c-72.04,0-130.44-58.394-130.44-130.434S91.132,32.738,163.172,32.738c72.035,0,130.434,58.394,130.434,130.434
		S235.207,293.606,163.172,293.606z"/>
	<path style="fill:#010002;" d="M176.77,145.098V92.176c0-7.511-6.086-13.598-13.598-13.598s-13.598,6.086-13.598,13.598v52.922
		c-5.526,4.134-9.154,10.655-9.154,18.074c0,12.515,10.187,22.665,22.757,22.665c7.419,0,13.946-3.59,18.101-9.067h76.364
		c7.511,0,13.598-6.086,13.598-13.598s-6.086-13.598-13.598-13.598h-76.364C179.984,147.877,178.472,146.376,176.77,145.098z"/>
</g>
<g>
</g>
<g>
</g>
<g>
</g>
<g>
</g>
<g>
</g>
<g>
</g>
<g>
</g>
<g>
</g>
<g>
</g>
<g>
</g>
<g>
</g>
<g>
</g>
<g>
</g>
<g>
</g>
<g>
</g>
</svg>
