<?xml version="1.0" encoding="utf-8"?>
<!-- Generator: Adobe Illustrator 16.0.0, SVG Export Plug-In . SVG Version: 6.00 Build 0)  -->
<!DOCTYPE svg PUBLIC "-//W3C//DTD SVG 1.1//EN" "http://www.w3.org/Graphics/SVG/1.1/DTD/svg11.dtd">
<svg version="1.1" id="Шар_1" xmlns="http://www.w3.org/2000/svg" xmlns:xlink="http://www.w3.org/1999/xlink" x="0px" y="0px"
	 width="108px" height="108.024px" viewBox="0 0 108 108.024" enable-background="new 0 0 108 108.024" xml:space="preserve">
<g>
	<path fill="#00B181" d="M32.835,24.674v38.178h8.743v0.193c0.776,3.595,3.012,6.51,6.994,8.938
		c3.982-2.428,6.314-5.343,6.994-8.938v-0.193h8.743V24.674c-1.846,0.778-5.635,2.332-6.897,7.092l-2.525,16.417
		c1.943,0,2.914,1.457,2.914,2.914c0,0.777-0.292,1.555-0.874,2.137c-0.681,0.681-1.555,0.972-2.623,0.972h-0.097l-0.098-0.097
		c-2.138-3.206-3.595-8.84-3.691-10.492c-0.68-3.108-0.389-6.8-0.194-10.297c0.194-2.623,0.389-5.148,0.098-7.286
		c0-2.234-0.972-4.372-1.847-4.857c-0.874,0.486-1.846,2.526-1.846,4.857c-0.194,2.137-0.097,4.663,0.098,7.286
		c0.194,3.497,0.486,7.189-0.194,10.297c-0.098,1.555-1.555,7.189-3.691,10.492l-0.098,0.097h-0.097
		c-1.068,0-2.04-0.291-2.721-0.972c-0.582-0.583-0.874-1.36-0.874-2.137c0-1.457,0.972-2.914,2.915-2.914L39.44,31.766
		C38.469,26.909,34.681,25.354,32.835,24.674z M57.898,46.532l-0.194-0.098l1.942-13.308c0.194-1.652,0.777-2.332,1.457-3.109
		c0.194-0.194,0.292-0.389,0.485-0.583l0.39-0.583v20.789l-1.555,0.194l-0.098-0.194C60.035,48.281,59.258,47.212,57.898,46.532z
		 M55.47,56.636c2.429-0.292,4.371-1.943,4.954-4.275v-0.194h1.555v8.257h-6.218v-0.292c0.098-1.359-0.097-2.039-0.389-2.816
		l-0.194-0.68H55.47z M47.018,68.001c-1.457-1.457-2.04-2.428-3.012-4.857l-0.097-0.291h3.497v5.635L47.018,68.001z M53.332,63.144
		c-0.971,2.43-1.554,3.4-3.011,4.857l-0.389,0.389v-5.635h3.497L53.332,63.144z M52.75,56.829l0.097,0.194
		c0.389,0.972,0.776,1.749,0.776,3.304v0.193h-3.594v-0.193c-0.194-1.457,1.068-3.012,2.623-3.498H52.75z M45.755,54.207
		c0.777-1.36,1.651-3.011,2.72-7.091l0.195-0.972l0.193,0.972c1.069,4.08,1.943,5.731,2.721,7.091l0.097,0.194l-0.194,0.097
		c-0.583,0.292-0.972,0.486-1.263,0.68c-0.583,0.292-0.777,0.389-1.457,1.263l-0.194,0.195l-0.098-0.292
		c-0.68-0.874-0.874-0.972-1.457-1.263c-0.291-0.098-0.68-0.292-1.263-0.68h-0.097L45.755,54.207z M44.59,57.023l0.097-0.194
		l0.194,0.098c1.554,0.486,2.817,2.04,2.623,3.497v0.194h-3.595v-0.194C43.812,58.772,44.2,57.897,44.59,57.023z M41.869,56.636
		h0.292l-0.194,0.68c-0.292,0.777-0.486,1.555-0.389,2.816v0.292H35.36v-8.257h1.555v0.194
		C37.498,54.692,39.44,56.344,41.869,56.636z M39.44,46.532c-1.359,0.68-2.234,1.749-2.525,3.302l-0.098,0.195l-1.554-0.195V29.046
		l0.389,0.583c0.193,0.194,0.291,0.389,0.485,0.583c0.68,0.68,1.263,1.457,1.457,3.108l1.943,13.212H39.44z"/>
	<path fill="#0055B8" d="M68.584,83.933H30.795c-0.777,0-1.36,0.583-1.36,1.36c0,0.776,0.583,1.36,1.36,1.36h37.789
		c0.777,0,1.359-0.584,1.359-1.36C69.943,84.516,69.361,83.933,68.584,83.933z"/>
	<path fill="#0055B8" d="M85.293,84.127l22.052-53.235c0.874-2.041,0.874-4.275,0-6.315c-0.875-2.04-2.429-3.594-4.469-4.468
		l-17.681-7.286v-2.234C85.195,4.76,80.436,0,74.607,0H6.022C2.721,0,0,2.72,0,6.023v95.978c0,3.303,2.721,6.023,6.022,6.023h68.682
		c5.828,0,10.589-4.76,10.589-10.588V84.127z M85.195,35.555l3.206,1.36c0.68,0.292,1.554-0.098,1.846-0.777
		c0.098-0.389,0.098-0.777,0-1.068c-0.098-0.389-0.389-0.583-0.776-0.777l-4.275-1.749V15.834l16.612,6.897
		c1.359,0.583,2.429,1.652,2.914,2.915c0.583,1.36,0.583,2.817,0,4.177l-3.886,9.229l-3.206-1.36
		c-0.681-0.292-1.555,0.097-1.846,0.777c-0.292,0.68,0,1.554,0.777,1.846l3.205,1.36L85.195,76.938V35.555z M13.697,105.207H5.926
		c-1.748,0-3.205-1.457-3.205-3.206V6.023c0-1.749,1.457-3.206,3.205-3.206h7.771V105.207z M82.378,33.126c0,0.291,0,0.389,0,0.583
		v63.728c0,4.273-3.497,7.771-7.771,7.771H16.515V2.817h58.093c4.273,0,7.771,3.497,7.771,7.772V33.126z"/>
</g>
</svg>
