<?xml version="1.0" encoding="utf-8"?>
<!-- Generator: Adobe Illustrator 16.0.0, SVG Export Plug-In . SVG Version: 6.00 Build 0)  -->
<!DOCTYPE svg PUBLIC "-//W3C//DTD SVG 1.1//EN" "http://www.w3.org/Graphics/SVG/1.1/DTD/svg11.dtd">
<svg version="1.1" id="Шар_1" xmlns="http://www.w3.org/2000/svg" xmlns:xlink="http://www.w3.org/1999/xlink" x="0px" y="0px"
	 width="110px" height="109.903px" viewBox="0 0 110 109.903" enable-background="new 0 0 110 109.903" xml:space="preserve">
<g>
	<path fill="#00B181" d="M51.981,21.332c1.131-0.09,1.968-1.108,1.854-2.216c-0.113-1.13-1.107-1.967-2.216-1.854
		c-1.13,0.091-1.967,1.108-1.854,2.215c0.09,1.063,0.995,1.877,2.035,1.877C51.845,21.354,51.914,21.332,51.981,21.332z"/>
	<path fill="#00B181" d="M54.537,92.827c1.131,0,2.034-0.904,2.057-2.035c0.023-1.131-0.882-2.058-2.011-2.08
		c-1.132-0.023-2.06,0.881-2.082,2.012c-0.021,1.131,0.883,2.058,2.013,2.08l0,0C54.513,92.827,54.513,92.827,54.537,92.827z"/>
	<path fill="#00B181" d="M21.547,59.657c-0.158-1.131-1.198-1.899-2.329-1.742c-1.131,0.158-1.899,1.199-1.741,2.307
		c0.136,1.018,1.019,1.764,2.035,1.764c0.09,0,0.181,0,0.294-0.022C20.937,61.827,21.705,60.787,21.547,59.657z"/>
	<path fill="#00B181" d="M44.678,22.733c0.203,0,0.407-0.022,0.588-0.09c1.085-0.339,1.696-1.47,1.379-2.555
		c-0.339-1.085-1.47-1.696-2.555-1.379s-1.696,1.469-1.379,2.555C43.005,22.146,43.819,22.733,44.678,22.733z"/>
	<path fill="#00B181" d="M17.206,52.58c-0.067,1.13,0.791,2.103,1.922,2.171c0.046,0,0.091,0,0.136,0
		c1.086,0,1.968-0.837,2.035-1.922c0.068-1.13-0.792-2.103-1.922-2.171C18.246,50.59,17.274,51.449,17.206,52.58z"/>
	<path fill="#00B181" d="M59.058,21.444c1.018,0,1.922-0.769,2.035-1.809c0.136-1.13-0.678-2.147-1.809-2.261
		c-1.13-0.136-2.148,0.679-2.262,1.809c-0.135,1.13,0.679,2.148,1.81,2.261C58.878,21.444,58.968,21.444,59.058,21.444z"/>
	<path fill="#00B181" d="M66.114,22.982c0.859,0,1.673-0.543,1.944-1.402c0.361-1.085-0.227-2.238-1.312-2.577
		c-1.084-0.362-2.238,0.226-2.577,1.312c-0.361,1.085,0.226,2.238,1.312,2.578C65.684,22.959,65.91,22.982,66.114,22.982z"/>
	<path fill="#00B181" d="M27.335,77.812c-0.836,0.77-0.883,2.059-0.113,2.896c0.407,0.429,0.95,0.655,1.492,0.655
		c0.497,0,0.995-0.182,1.38-0.542c0.836-0.77,0.882-2.059,0.113-2.895C29.461,77.091,28.15,77.044,27.335,77.812z"/>
	<path fill="#00B181" d="M30.682,25.944c-0.858,0.724-0.995,2.012-0.249,2.894c0.407,0.476,0.995,0.724,1.561,0.724
		c0.475,0,0.927-0.158,1.311-0.475c0.859-0.723,0.995-2.012,0.25-2.894C32.853,25.333,31.542,25.221,30.682,25.944z"/>
	<path fill="#00B181" d="M71.72,25.65c0.317,0.181,0.678,0.271,1.018,0.271c0.701,0,1.402-0.384,1.786-1.04
		c0.565-0.995,0.227-2.239-0.769-2.804c-0.995-0.565-2.238-0.227-2.803,0.768C70.387,23.841,70.748,25.084,71.72,25.65L71.72,25.65z
		"/>
	<path fill="#00B181" d="M21.275,69.019c0.227,0,0.453-0.047,0.68-0.115c1.062-0.383,1.627-1.559,1.243-2.622
		c-0.384-1.062-1.56-1.628-2.622-1.243c-1.063,0.385-1.629,1.561-1.244,2.623C19.625,68.497,20.417,69.019,21.275,69.019z"/>
	<path fill="#00B181" d="M37.035,21.648c-0.994,0.542-1.377,1.786-0.835,2.781c0.384,0.678,1.085,1.085,1.808,1.085
		c0.316,0,0.656-0.068,0.974-0.249c0.993-0.542,1.378-1.786,0.836-2.781C39.274,21.49,38.03,21.105,37.035,21.648z"/>
	<path fill="#00B181" d="M38.573,86.857c-0.452,1.04,0,2.237,1.041,2.714c0.271,0.112,0.542,0.181,0.836,0.181
		c0.792,0,1.538-0.452,1.877-1.222c0.452-1.039,0-2.238-1.04-2.689C40.247,85.343,39.025,85.817,38.573,86.857z"/>
	<path fill="#00B181" d="M35.362,82.425c-0.927-0.654-2.193-0.451-2.849,0.476c-0.656,0.927-0.452,2.194,0.475,2.85
		c0.362,0.249,0.77,0.384,1.199,0.384c0.633,0,1.266-0.293,1.673-0.859C36.493,84.347,36.267,83.081,35.362,82.425z"/>
	<path fill="#00B181" d="M47.324,91.99c0.949,0,1.786-0.656,1.989-1.605c0.249-1.108-0.451-2.192-1.561-2.442l0,0
		c-1.107-0.248-2.192,0.453-2.44,1.561c-0.25,1.107,0.452,2.193,1.56,2.441l0,0C47.03,91.968,47.188,91.99,47.324,91.99z"/>
	<path fill="#00B181" d="M28.217,31.099c-0.882-0.701-2.171-0.565-2.871,0.339c-0.701,0.882-0.566,2.17,0.339,2.872
		c0.385,0.294,0.814,0.453,1.267,0.453c0.61,0,1.198-0.271,1.604-0.77C29.257,33.089,29.099,31.8,28.217,31.099z"/>
	<path fill="#00B181" d="M79.182,78.514c-0.791,0.814-0.769,2.103,0.045,2.896c0.407,0.383,0.904,0.586,1.425,0.586
		c0.542,0,1.062-0.203,1.47-0.609c0.791-0.814,0.769-2.103-0.045-2.895C81.262,77.677,79.973,77.7,79.182,78.514z"/>
	<path fill="#00B181" d="M82.325,31.755c-0.903,0.678-1.085,1.967-0.407,2.872c0.407,0.543,1.019,0.814,1.629,0.814
		c0.429,0,0.858-0.135,1.243-0.407c0.904-0.679,1.086-1.967,0.407-2.872C84.519,31.257,83.229,31.077,82.325,31.755z"/>
	<path fill="#00B181" d="M86.441,37.724c-1.018,0.475-1.448,1.719-0.973,2.736c0.361,0.746,1.086,1.176,1.854,1.176
		c0.294,0,0.588-0.067,0.883-0.203c1.018-0.498,1.447-1.719,0.972-2.736C88.679,37.679,87.458,37.25,86.441,37.724z"/>
	<path fill="#00B181" d="M23.966,36.978c-1.018-0.521-2.238-0.113-2.759,0.904c-0.52,1.018-0.112,2.239,0.905,2.758
		c0.293,0.158,0.609,0.227,0.927,0.227c0.747,0,1.47-0.407,1.832-1.131C25.391,38.719,24.984,37.475,23.966,36.978z"/>
	<path fill="#00B181" d="M77.103,26.735c-0.747,0.86-0.657,2.148,0.18,2.895c0.385,0.339,0.882,0.52,1.356,0.52
		c0.566,0,1.132-0.227,1.538-0.701c0.746-0.859,0.656-2.148-0.181-2.894C79.136,25.786,77.848,25.876,77.103,26.735z"/>
	<path fill="#00B181" d="M18.472,45.028c-0.294,1.084,0.34,2.215,1.447,2.509c0.181,0.045,0.361,0.068,0.542,0.068
		c0.905,0,1.719-0.61,1.968-1.515c0.293-1.085-0.339-2.216-1.447-2.509C19.897,43.286,18.766,43.919,18.472,45.028z"/>
	<path fill="#00B181" d="M73.958,82.9c-0.926,0.633-1.175,1.899-0.543,2.85c0.407,0.587,1.041,0.904,1.697,0.904
		c0.406,0,0.791-0.112,1.152-0.362c0.927-0.633,1.176-1.898,0.543-2.85C76.174,82.493,74.886,82.269,73.958,82.9z"/>
	<path fill="#00B181" d="M88.408,69.832c0.814,0,1.604-0.498,1.922-1.312c0.407-1.063-0.113-2.239-1.176-2.646
		c-1.062-0.406-2.239,0.113-2.646,1.177c-0.406,1.062,0.113,2.238,1.177,2.646C87.91,69.786,88.159,69.832,88.408,69.832z"/>
	<path fill="#00B181" d="M92.341,61.149c0.182-1.108-0.565-2.171-1.696-2.352c-1.107-0.182-2.17,0.564-2.351,1.695
		s0.565,2.171,1.695,2.352c0.114,0.023,0.227,0.023,0.34,0.023C91.302,62.845,92.161,62.144,92.341,61.149z"/>
	<path fill="#00B181" d="M24.374,75.575c0.362,0,0.724-0.091,1.063-0.294c0.972-0.589,1.288-1.854,0.699-2.804
		c-0.587-0.973-1.854-1.289-2.803-0.701c-0.973,0.588-1.289,1.854-0.701,2.804C22.995,75.213,23.673,75.575,24.374,75.575z"/>
	<path fill="#00B181" d="M86.259,72.522c-0.95-0.61-2.216-0.316-2.826,0.633s-0.339,2.217,0.633,2.826
		c0.339,0.227,0.724,0.316,1.108,0.316c0.678,0,1.333-0.339,1.719-0.949C87.48,74.399,87.209,73.133,86.259,72.522z"/>
	<path fill="#00B181" d="M61.365,88.124c-1.107,0.203-1.831,1.289-1.627,2.396c0.18,0.973,1.039,1.674,2.012,1.674
		c0.135,0,0.248-0.023,0.385-0.046c1.107-0.204,1.83-1.288,1.627-2.396C63.536,88.621,62.473,87.897,61.365,88.124z"/>
	<path fill="#00B181" d="M67.945,86.134c-0.022,0-0.022,0-0.045,0.022l0,0c-1.041,0.431-1.538,1.628-1.108,2.668
		c0.317,0.792,1.085,1.267,1.898,1.267c0.25,0,0.521-0.045,0.77-0.158c0.022,0,0.022-0.021,0.045-0.021l0,0
		c1.04-0.431,1.538-1.629,1.108-2.67C70.183,86.202,68.985,85.704,67.945,86.134z"/>
	<path fill="#00B181" d="M89.266,44.417c-1.107,0.271-1.764,1.379-1.491,2.487c0.225,0.928,1.062,1.56,1.989,1.56
		c0.158,0,0.34-0.022,0.497-0.067c1.107-0.271,1.764-1.379,1.493-2.488C91.483,44.801,90.352,44.146,89.266,44.417z"/>
	<path fill="#00B181" d="M90.691,51.517c-1.131,0.046-2.012,0.995-1.967,2.125c0.045,1.108,0.949,1.967,2.035,1.967
		c0.022,0,0.045,0,0.09,0c1.131-0.046,2.012-0.995,1.968-2.125C92.771,52.353,91.822,51.494,90.691,51.517z"/>
	<g>
		<path fill="#0055B8" d="M97.773,20.63L97.66,9.509c-0.019-0.976-0.792-1.729-1.797-1.75c-0.954,0.02-1.739,0.824-1.739,1.792
			l0.074,6.863l-0.81-0.751C83.086,5.561,69.473,0,55.053,0c-0.231,0-0.462,0.002-0.694,0.004
			c-14.7,0.18-28.439,6.059-38.688,16.555C8.321,24.067,3.304,33.455,1.164,43.708C-0.915,53.715-0.2,64.044,3.233,73.577
			c0.245,0.699,0.908,1.166,1.65,1.166c0.173,0,0.359-0.031,0.624-0.104c0.897-0.324,1.378-1.336,1.049-2.245
			C-0.153,53.679,4.299,33.22,18.175,19.003C27.774,9.178,40.63,3.679,54.375,3.519l0.528-0.002
			c13.546,0,26.345,5.202,36.035,14.646l0.843,0.782l-6.92,0.076c-0.964,0.019-1.749,0.822-1.749,1.792
			c0.02,0.976,0.797,1.746,1.769,1.746l11.144-0.135C96.988,22.402,97.773,21.599,97.773,20.63z"/>
		<path fill="#0055B8" d="M106.767,36.352c-0.254-0.702-0.923-1.173-1.665-1.173c-0.2,0-0.398,0.035-0.588,0.104
			c-0.443,0.161-0.799,0.484-1.002,0.91s-0.228,0.903-0.067,1.343c6.708,18.715,2.255,39.173-11.619,53.391
			c-9.773,9.973-22.859,15.465-36.849,15.465c-13.531,0-26.303-5.193-35.961-14.625l-0.84-0.781l6.917-0.075
			c0.964-0.021,1.75-0.823,1.75-1.792c0-0.942-0.807-1.726-1.798-1.746l-11.114,0.137c-0.965,0.019-1.75,0.822-1.75,1.791
			l0.136,11.121c0.02,0.98,0.796,1.749,1.769,1.749c0.982-0.019,1.77-0.823,1.77-1.791l-0.076-6.864l0.81,0.752
			c10.326,10.086,23.97,15.637,38.423,15.637c14.934,0,28.896-5.871,39.316-16.532c7.351-7.509,12.368-16.896,14.509-27.149
			C110.915,56.216,110.199,45.886,106.767,36.352z"/>
	</g>
	<g>
		<path fill="#00B181" d="M49.723,62.987c-0.729-1.023-1.132-2.357-1.197-4.009H45.21v0.513c0,1.294,0.204,2.457,0.606,3.491
			C47.061,62.856,48.374,62.854,49.723,62.987z"/>
		<path fill="#00B181" d="M50.618,44.155c0.948-1.066,2.264-1.599,3.948-1.599c1.474,0,2.651,0.421,3.532,1.263
			c0.883,0.843,1.323,1.948,1.323,3.316c0,1.421-0.507,2.546-1.52,3.375c-1.014,0.829-2.389,1.244-4.126,1.244
			c-0.395,0-0.776-0.013-1.145-0.04v2.842c0.736-0.105,1.343-0.158,1.816-0.158c1.895,0,3.401,0.487,4.52,1.461
			c1.118,0.973,1.678,2.275,1.678,3.907c0,1.606-0.56,2.915-1.678,3.929c-0.611,0.553-1.327,0.95-2.139,1.201
			c1.212,0.551,2.332,1.193,3.338,1.906c0.5-0.293,0.97-0.63,1.406-1.016c1.803-1.592,2.69-3.678,2.665-6.258
			c0-1.71-0.461-3.171-1.382-4.381c-0.922-1.21-2.171-2-3.75-2.369c1.21-0.5,2.151-1.27,2.822-2.31
			c0.672-1.039,1.007-2.217,1.007-3.533c0-2.184-0.75-3.948-2.25-5.29c-1.5-1.342-3.488-2.014-5.961-2.014
			c-2.764,0-4.915,0.79-6.455,2.369c-1.539,1.579-2.349,3.816-2.428,6.711h3.276C49.17,46.74,49.67,45.221,50.618,44.155z"/>
	</g>
	<g>
		<path fill="#00B181" d="M46.854,73.93h-1.621l0.18-0.792c-0.468,0.672-1.032,0.96-1.908,0.96c-1.524,0-2.341-0.972-2.341-2.521
			c0-1.957,1.141-4.01,3.289-4.01c0.9,0,1.512,0.336,1.836,1.009l0.685-3.192h1.681L46.854,73.93z M42.88,71.493
			c0,0.828,0.432,1.296,1.2,1.296c1.32,0,1.848-1.572,1.848-2.665c0-0.756-0.479-1.225-1.235-1.225
			C43.373,68.899,42.88,70.389,42.88,71.493z"/>
		<path fill="#00B181" d="M52.049,67.567c1.597,0,2.558,0.576,2.558,1.537c0,0.288-0.049,0.637-0.156,1.128l-0.492,2.233
			c-0.108,0.479-0.145,0.744-0.145,1.02c0,0.192,0,0.265,0.049,0.444h-1.682c-0.012-0.108-0.012-0.132-0.012-0.228
			c0-0.145,0-0.217,0.024-0.385c-0.48,0.528-1.152,0.805-1.956,0.805c-1.225,0-1.993-0.66-1.993-1.705
			c0-1.572,1.428-2.017,2.977-2.137c1.081-0.084,1.753-0.06,1.753-0.9c0-0.432-0.372-0.672-1.057-0.672
			c-0.696,0-1.068,0.264-1.26,0.9h-1.597C49.362,68,50.598,67.567,52.049,67.567z M51.534,71.241
			c-0.78,0.084-1.572,0.18-1.572,0.996c0,0.492,0.36,0.792,0.948,0.792c0.889,0,1.404-0.588,1.608-1.452l0.145-0.625
			C52.35,71.192,51.906,71.204,51.534,71.241z"/>
		<path fill="#00B181" d="M58.387,73.954c-0.721,1.32-1.153,2.232-2.87,2.232c-0.432,0-0.588-0.012-0.983-0.084l0.288-1.369
			c0.204,0.049,0.48,0.072,0.685,0.072c0.708,0,0.888-0.383,1.164-0.924l-1.128-6.146h1.74l0.588,4.322l2.101-4.322h1.801
			L58.387,73.954z"/>
		<path fill="#00B181" d="M65.708,69.548c0-0.672-0.396-0.888-1.02-0.888c-0.601,0-0.985,0.265-0.985,0.66
			c0,0.479,0.385,0.563,1.669,0.925c1.044,0.287,1.572,0.863,1.572,1.717c0,1.572-1.572,2.148-2.893,2.148
			c-1.681,0-2.689-0.758-2.689-2.006v-0.18h1.585v0.049c0,0.636,0.444,0.972,1.236,0.972c0.66,0,1.093-0.288,1.093-0.743
			c0-0.518-0.492-0.637-1.741-1.01c-1.032-0.312-1.5-0.815-1.5-1.632c0-1.225,1.057-1.993,2.749-1.993
			c1.572,0,2.509,0.673,2.509,1.801c0,0.061,0,0.12-0.013,0.18H65.708z"/>
	</g>
</g>
</svg>
