<?xml version="1.0" encoding="utf-8"?>
<!-- Generator: Adobe Illustrator 16.0.0, SVG Export Plug-In . SVG Version: 6.00 Build 0)  -->
<!DOCTYPE svg PUBLIC "-//W3C//DTD SVG 1.1//EN" "http://www.w3.org/Graphics/SVG/1.1/DTD/svg11.dtd">
<svg version="1.1" id="Шар_1" xmlns="http://www.w3.org/2000/svg" xmlns:xlink="http://www.w3.org/1999/xlink" x="0px" y="0px"
	 width="104px" height="108.83px" viewBox="0 0 104 108.83" enable-background="new 0 0 104 108.83" xml:space="preserve">
<g>
	<path fill="#0055B8" d="M66.662,97.208l13.417,2.146c2.896,0.445,5.483-1.503,5.907-4.297l2.123-13.437
		c0.079-0.522,0.411-0.985,0.888-1.238l12.12-6.15c1.231-0.636,2.143-1.703,2.562-3.006c0.425-1.32,0.312-2.719-0.318-3.938
		l-6.192-12.095c-0.244-0.489-0.244-1.047-0.001-1.534l6.261-12.119c0.631-1.219,0.743-2.618,0.318-3.938
		c-0.421-1.302-1.331-2.37-2.564-3.007l-12.114-6.147c-0.484-0.242-0.811-0.695-0.892-1.242l-2.146-13.432
		c-0.446-2.799-3.031-4.741-5.91-4.3l-13.41,2.146c-0.555,0.079-1.078-0.105-1.456-0.483l-9.613-9.613C54.659,0.542,53.365,0,52,0
		c-1.385,0-2.678,0.541-3.64,1.523l-9.614,9.615c-0.378,0.377-0.92,0.562-1.452,0.483L23.877,9.475
		c-2.883-0.444-5.484,1.502-5.906,4.297l-2.125,13.437c-0.077,0.521-0.41,0.985-0.887,1.237l-12.121,6.15
		c-1.231,0.637-2.142,1.704-2.561,3.006c-0.427,1.32-0.314,2.719,0.317,3.938l6.191,12.095c0.245,0.489,0.245,1.047,0.002,1.534
		L0.572,67.289c-0.632,1.219-0.744,2.617-0.318,3.938c0.421,1.303,1.331,2.37,2.564,3.008l12.113,6.146
		c0.485,0.242,0.811,0.695,0.893,1.242l2.101,13.434c0.446,2.796,3.011,4.742,5.91,4.298l13.411-2.146
		c0.085-0.013,0.168-0.019,0.249-0.019c0.447,0,0.888,0.184,1.207,0.502l9.611,9.613c0.984,0.983,2.278,1.525,3.643,1.525
		c1.386,0,2.678-0.541,3.639-1.523l9.615-9.615C65.587,97.314,66.13,97.126,66.662,97.208z M53.232,104.849
		c-0.31,0.309-0.745,0.486-1.195,0.486c-0.453,0-0.884-0.179-1.183-0.49l-9.609-9.609c-0.969-0.969-2.296-1.525-3.641-1.525
		c-0.273,0-0.551,0.021-0.803,0.063L23.387,95.92c-0.965,0.142-1.781-0.515-1.916-1.402l-2.103-13.435
		c-0.252-1.627-1.281-3.043-2.751-3.789L4.5,71.146c-0.419-0.225-0.707-0.561-0.836-0.975c-0.139-0.442-0.1-0.901,0.109-1.295
		l6.189-12.089c0.741-1.462,0.74-3.22-0.001-4.704L3.683,39.972c-0.207-0.389-0.246-0.849-0.108-1.292
		c0.138-0.441,0.438-0.789,0.845-0.979l12.109-6.144c1.47-0.746,2.498-2.162,2.751-3.789l2.102-13.435
		c0.132-0.873,1.009-1.543,1.914-1.402l13.416,2.146c1.712,0.271,3.303-0.294,4.443-1.459l9.614-9.615
		c0.621-0.62,1.783-0.619,2.378,0.004l9.608,9.608c1.134,1.155,2.863,1.716,4.465,1.44l13.416-2.146
		c0.085-0.013,0.166-0.018,0.246-0.018c0.83,0,1.549,0.611,1.67,1.422l2.125,13.433c0.254,1.628,1.282,3.044,2.751,3.789
		l12.117,6.148c0.42,0.225,0.707,0.561,0.837,0.975c0.139,0.444,0.099,0.904-0.11,1.295l-6.189,12.089
		c-0.712,1.53-0.688,3.255,0.066,4.723l6.192,12.095c0.207,0.388,0.246,0.848,0.108,1.289c-0.139,0.441-0.438,0.789-0.846,0.98
		l-12.108,6.165c-1.47,0.747-2.498,2.163-2.751,3.79l-2.125,13.436c-0.136,0.902-0.999,1.566-1.921,1.4L67.29,93.775
		c-0.272-0.043-0.552-0.064-0.805-0.064c-1.385,0-2.677,0.541-3.639,1.523L53.232,104.849z"/>
	<path fill="#00B181" d="M67.827,31.39c0.357,0.245,0.761,0.357,1.141,0.357c0.647,0,1.274-0.313,1.676-0.873
		c0.649-0.916,0.402-2.19-0.514-2.816c-0.917-0.626-2.19-0.403-2.816,0.514C66.688,29.489,66.911,30.763,67.827,31.39z"/>
	<path fill="#00B181" d="M74.377,36.531c0.469,0,0.962-0.157,1.342-0.515c0.826-0.737,0.916-2.012,0.18-2.861
		c-0.738-0.827-2.035-0.916-2.862-0.156c-0.827,0.737-0.917,2.012-0.156,2.861C73.26,36.307,73.818,36.531,74.377,36.531z"/>
	<path fill="#00B181" d="M61.948,80.458c-1.051,0.402-1.565,1.565-1.163,2.616c0.313,0.805,1.073,1.296,1.9,1.296
		c0.247,0,0.493-0.044,0.716-0.134c1.051-0.403,1.564-1.565,1.163-2.615C64.161,80.591,62.999,80.056,61.948,80.458z"/>
	<path fill="#00B181" d="M67.895,77.306c-0.916,0.648-1.141,1.9-0.514,2.816c0.401,0.559,1.028,0.872,1.676,0.872
		c0.402,0,0.806-0.112,1.163-0.358c0.916-0.648,1.14-1.899,0.514-2.816C70.085,76.904,68.812,76.68,67.895,77.306z"/>
	<path fill="#00B181" d="M42.164,80.501c-1.051-0.401-2.214,0.135-2.615,1.186c-0.403,1.051,0.135,2.213,1.185,2.616
		c0.224,0.089,0.47,0.134,0.715,0.134c0.828,0,1.588-0.492,1.9-1.318C43.729,82.068,43.215,80.882,42.164,80.501z"/>
	<path fill="#00B181" d="M55.421,82.068c-1.118,0.133-1.9,1.14-1.767,2.258c0.135,1.028,1.006,1.788,2.013,1.788
		c0.09,0,0.156,0,0.246-0.022c1.117-0.135,1.899-1.141,1.766-2.259C57.544,82.738,56.538,81.933,55.421,82.068z"/>
	<path fill="#00B181" d="M48.691,82.089L48.691,82.089c-1.117-0.134-2.123,0.671-2.258,1.789c-0.134,1.117,0.671,2.123,1.767,2.235
		c0.09,0,0.156,0.022,0.246,0.022c1.006,0,1.877-0.761,2.012-1.789C50.614,83.23,49.81,82.224,48.691,82.089z"/>
	<path fill="#00B181" d="M79.095,47.663L79.095,47.663c0.223,0.917,1.05,1.542,1.967,1.542c0.156,0,0.335-0.022,0.492-0.066
		c1.095-0.268,1.743-1.364,1.476-2.459c-0.269-1.096-1.364-1.744-2.459-1.476C79.496,45.473,78.826,46.568,79.095,47.663z"/>
	<path fill="#00B181" d="M81.934,52.313c-1.118,0-2.034,0.917-2.034,2.034c0,1.118,0.916,2.035,2.034,2.012
		c1.117,0,2.033-0.916,2.012-2.034C83.967,53.208,83.051,52.313,81.934,52.313z"/>
	<path fill="#00B181" d="M81.554,59.534c-1.096-0.269-2.191,0.402-2.459,1.476c-0.269,1.096,0.401,2.19,1.476,2.459
		c0.155,0.045,0.312,0.067,0.491,0.067c0.917,0,1.743-0.626,1.968-1.542C83.319,60.875,82.648,59.802,81.554,59.534z"/>
	<path fill="#00B181" d="M78.491,42.455c0.312,0,0.648-0.067,0.938-0.223c0.983-0.515,1.363-1.744,0.85-2.728
		c-0.537-0.983-1.744-1.363-2.728-0.849c-0.983,0.514-1.363,1.743-0.85,2.727C77.061,42.075,77.774,42.455,78.491,42.455z"/>
	<path fill="#00B181" d="M72.925,72.835c-0.738,0.827-0.672,2.123,0.179,2.861c0.379,0.334,0.871,0.514,1.341,0.514
		c0.559,0,1.118-0.224,1.521-0.693c0.737-0.85,0.67-2.123-0.179-2.861C74.936,71.918,73.662,72.007,72.925,72.835z"/>
	<path fill="#00B181" d="M79.474,66.442c-0.982-0.515-2.212-0.134-2.728,0.849c-0.513,0.984-0.134,2.213,0.851,2.728
		c0.29,0.157,0.626,0.224,0.938,0.224c0.737,0,1.431-0.402,1.789-1.096C80.837,68.185,80.458,66.978,79.474,66.442z"/>
	<path fill="#00B181" d="M29.602,36.553c0.558,0,1.117-0.223,1.52-0.67c0.737-0.827,0.671-2.124-0.179-2.861
		s-2.124-0.67-2.861,0.179c-0.737,0.827-0.671,2.124,0.178,2.861C28.64,36.396,29.109,36.553,29.602,36.553z"/>
	<path fill="#00B181" d="M24.571,66.553c-0.983,0.536-1.363,1.743-0.85,2.75c0.357,0.692,1.073,1.072,1.788,1.072
		c0.313,0,0.648-0.067,0.939-0.223c0.983-0.515,1.363-1.744,0.849-2.728C26.784,66.418,25.577,66.039,24.571,66.553z"/>
	<path fill="#00B181" d="M24.907,61.121c-0.27-1.096-1.364-1.744-2.46-1.475c-1.096,0.268-1.743,1.363-1.476,2.459
		c0.224,0.916,1.051,1.542,1.968,1.542c0.156,0,0.335-0.022,0.492-0.067C24.526,63.312,25.197,62.216,24.907,61.121z"/>
	<path fill="#00B181" d="M22.447,49.184c0.156,0.044,0.336,0.067,0.492,0.067c0.916,0,1.743-0.626,1.968-1.542
		c0.267-1.096-0.403-2.191-1.476-2.459c-1.097-0.269-2.191,0.402-2.46,1.475C20.704,47.82,21.352,48.916,22.447,49.184z"/>
	<path fill="#00B181" d="M22.067,56.494c1.118,0,2.012-0.917,2.012-2.035c0-0.022,0-0.022,0-0.044c0-0.022,0-0.022,0-0.044
		c0-1.118-0.917-2.035-2.033-2.035c-1.119,0-2.013,0.917-2.013,2.035c0,0.022,0,0.022,0,0.044c0,0.022,0,0.022,0,0.044
		C20.056,55.577,20.949,56.494,22.067,56.494L22.067,56.494z"/>
	<path fill="#00B181" d="M24.549,42.253c0.312,0.157,0.625,0.223,0.938,0.223c0.738,0,1.431-0.402,1.788-1.072
		c0.515-0.984,0.135-2.213-0.849-2.728c-0.983-0.514-2.214-0.133-2.728,0.85C23.186,40.51,23.565,41.739,24.549,42.253z"/>
	<path fill="#00B181" d="M28.306,72.767c-0.828,0.738-0.918,2.035-0.157,2.861c0.402,0.447,0.961,0.672,1.521,0.672
		c0.49,0,0.961-0.156,1.341-0.514c0.826-0.738,0.916-2.035,0.155-2.861C30.406,72.097,29.132,72.03,28.306,72.767z"/>
	<path fill="#00B181" d="M48.356,26.694c0.09,0,0.157,0,0.245-0.022c1.119-0.134,1.9-1.141,1.767-2.258
		c-0.135-1.117-1.14-1.9-2.258-1.765c-1.117,0.133-1.9,1.14-1.766,2.257C46.479,25.935,47.351,26.694,48.356,26.694z"/>
	<path fill="#00B181" d="M55.331,26.672c0.09,0,0.157,0.022,0.246,0.022c1.006,0,1.877-0.76,2.012-1.788
		c0.134-1.118-0.67-2.124-1.766-2.257c-1.118-0.135-2.124,0.67-2.259,1.765C53.431,25.532,54.236,26.538,55.331,26.672z"/>
	<path fill="#00B181" d="M61.881,28.26c0.224,0.089,0.47,0.134,0.716,0.134c0.826,0,1.587-0.492,1.9-1.319
		c0.401-1.05-0.135-2.213-1.186-2.615c-1.051-0.402-2.213,0.134-2.615,1.184C60.293,26.694,60.83,27.879,61.881,28.26z"/>
	<path fill="#00B181" d="M41.36,28.416c0.245,0,0.49-0.044,0.714-0.134c1.051-0.402,1.565-1.564,1.186-2.615
		c-0.403-1.05-1.565-1.565-2.616-1.185l0,0c-1.05,0.402-1.564,1.565-1.162,2.616C39.772,27.924,40.555,28.416,41.36,28.416z"/>
	<path fill="#00B181" d="M36.195,77.373c-0.916-0.626-2.19-0.402-2.816,0.515s-0.402,2.19,0.515,2.816
		c0.356,0.246,0.76,0.357,1.14,0.357c0.648,0,1.274-0.312,1.677-0.872C37.357,79.273,37.134,78.021,36.195,77.373z"/>
	<path fill="#00B181" d="M34.988,31.77c0.403,0,0.805-0.112,1.162-0.358c0.917-0.626,1.141-1.9,0.515-2.816
		c-0.648-0.916-1.899-1.14-2.816-0.514c-0.917,0.648-1.141,1.9-0.515,2.817C33.714,31.479,34.341,31.77,34.988,31.77z"/>
	<path fill="#00B181" d="M43.229,41.021v22.647h-2.975V47.258h-5.693v-2.047c1.834,0,3.289-0.298,4.366-0.896
		c1.076-0.597,1.796-1.695,2.158-3.295H43.229z"/>
	<path fill="#00B181" d="M48.731,60.117v3.551h-3.551v-3.551H48.731z"/>
	<g>
		<path fill="#00B181" d="M54.2,44.651c0.768-0.864,1.834-1.295,3.199-1.295c1.193,0,2.147,0.341,2.862,1.023
			c0.715,0.683,1.072,1.579,1.072,2.687c0,1.151-0.411,2.063-1.232,2.734c-0.82,0.672-1.935,1.008-3.342,1.008
			c-0.32,0-0.629-0.011-0.928-0.032v2.302c0.597-0.084,1.087-0.127,1.472-0.127c1.535,0,2.756,0.395,3.662,1.183
			c0.247,0.215,0.457,0.453,0.637,0.708c0.517-0.756,1.161-1.416,1.895-1.961c-0.658-0.604-1.464-1.018-2.419-1.241
			c0.98-0.405,1.742-1.029,2.287-1.872c0.543-0.841,0.815-1.796,0.815-2.862c0-1.77-0.608-3.199-1.824-4.286
			c-1.215-1.088-2.825-1.632-4.829-1.632c-2.239,0-3.982,0.64-5.229,1.919c-1.248,1.28-1.903,3.092-1.968,5.438h2.655
			C53.027,46.746,53.433,45.515,54.2,44.651z"/>
		<path fill="#00B181" d="M60.314,60.97c-0.798,0.495-1.757,0.746-2.883,0.746c-1.515,0-2.698-0.438-3.551-1.312
			c-0.854-0.874-1.312-2.122-1.375-3.743h-2.688v0.416c0,2.154,0.688,3.865,2.063,5.134c1.376,1.269,3.215,1.903,5.518,1.903
			c1.416,0,2.669-0.242,3.765-0.722C60.76,62.648,60.473,61.832,60.314,60.97z"/>
	</g>
	<g>
		<path fill="#00B181" d="M67.719,57.037c0,0.699-0.222,1.4-0.607,1.947c-0.408,0.572-0.968,0.841-1.738,0.841
			c-1.062,0-1.69-0.642-1.69-1.715c0-1.599,0.956-2.8,2.216-2.8C67.041,55.31,67.719,55.952,67.719,57.037z M65.898,63.826h-1.097
			l6.019-8.701h1.085L65.898,63.826z M65.921,56.15c-0.256,0-0.488,0.129-0.628,0.35c-0.234,0.351-0.457,1.236-0.457,1.797
			c0,0.432,0.246,0.699,0.632,0.699c0.278,0,0.535-0.174,0.688-0.467c0.21-0.396,0.396-1.189,0.396-1.655
			C66.552,56.417,66.317,56.15,65.921,56.15z M73.107,60.898c0,0.699-0.222,1.398-0.607,1.947c-0.408,0.572-0.967,0.84-1.737,0.84
			c-1.062,0-1.691-0.643-1.691-1.715c0-1.598,0.955-2.8,2.217-2.8C72.43,59.17,73.107,59.812,73.107,60.898z M71.31,60.011
			c-0.256,0-0.489,0.127-0.629,0.351c-0.233,0.349-0.455,1.235-0.455,1.795c0,0.433,0.245,0.7,0.63,0.7
			c0.281,0,0.536-0.174,0.688-0.467c0.21-0.396,0.396-1.189,0.396-1.655C71.94,60.279,71.706,60.011,71.31,60.011z"/>
	</g>
</g>
</svg>
