<?xml version="1.0" encoding="utf-8"?>
<!-- Generator: Adobe Illustrator 16.0.0, SVG Export Plug-In . SVG Version: 6.00 Build 0)  -->
<!DOCTYPE svg PUBLIC "-//W3C//DTD SVG 1.1//EN" "http://www.w3.org/Graphics/SVG/1.1/DTD/svg11.dtd">
<svg version="1.1" id="Шар_1" xmlns="http://www.w3.org/2000/svg" xmlns:xlink="http://www.w3.org/1999/xlink" x="0px" y="0px"
	 width="111px" height="128.485px" viewBox="0 0 111 128.485" enable-background="new 0 0 111 128.485" xml:space="preserve">
<g>
	<g>
		<path fill="#00B181" d="M90.701,0C82.45,0,75.737,6.713,75.737,14.964c0,8.251,6.713,14.964,14.964,14.964
			s14.963-6.712,14.963-14.964C105.664,6.713,98.952,0,90.701,0z M90.701,27.326c-6.816,0-12.362-5.546-12.362-12.362
			c0-6.816,5.546-12.362,12.362-12.362s12.361,5.546,12.361,12.362C103.062,21.78,97.517,27.326,90.701,27.326z"/>
		<g>
			<path fill="#00B181" d="M89.934,11.877c0,0.792-0.251,1.585-0.687,2.206c-0.463,0.646-1.097,0.951-1.97,0.951
				c-1.201,0-1.913-0.727-1.913-1.942c0-1.81,1.082-3.17,2.509-3.17C89.167,9.923,89.934,10.649,89.934,11.877z M87.874,19.565
				h-1.242l6.815-9.853h1.229L87.874,19.565z M87.899,10.874c-0.29,0-0.554,0.145-0.711,0.396c-0.266,0.397-0.517,1.4-0.517,2.035
				c0,0.488,0.278,0.792,0.714,0.792c0.316,0,0.606-0.198,0.779-0.528c0.237-0.449,0.448-1.347,0.448-1.875
				C88.613,11.177,88.348,10.874,87.899,10.874z M96.036,16.25c0,0.792-0.251,1.584-0.688,2.206c-0.462,0.646-1.095,0.95-1.967,0.95
				c-1.202,0-1.915-0.727-1.915-1.942c0-1.81,1.082-3.17,2.51-3.17C95.269,14.294,96.036,15.021,96.036,16.25z M94,15.246
				c-0.29,0-0.554,0.144-0.712,0.397c-0.265,0.395-0.516,1.398-0.516,2.033c0,0.489,0.277,0.792,0.714,0.792
				c0.317,0,0.606-0.198,0.779-0.529c0.237-0.45,0.448-1.347,0.448-1.875C94.714,15.549,94.45,15.246,94,15.246z"/>
		</g>
	</g>
	<g>
		<rect x="90.701" y="97.577" fill="#0055B8" width="3.252" height="3.253"/>
		
			<rect x="85.175" y="99.867" transform="matrix(0.707 0.7073 -0.7073 0.707 97.2191 -31.649)" fill="#0055B8" width="3.253" height="3.254"/>
		<rect x="82.893" y="105.385" fill="#0055B8" width="3.253" height="3.252"/>
		
			<rect x="85.177" y="110.901" transform="matrix(0.7073 0.707 -0.707 0.7073 104.963 -28.4245)" fill="#0055B8" width="3.253" height="3.253"/>
		<rect x="90.701" y="113.191" fill="#0055B8" width="3.252" height="3.254"/>
		
			<rect x="96.218" y="110.898" transform="matrix(0.7071 0.7071 -0.7071 0.7071 108.2239 -36.2286)" fill="#0055B8" width="3.251" height="3.252"/>
		<rect x="98.508" y="105.385" fill="#0055B8" width="3.252" height="3.252"/>
		
			<rect x="96.218" y="99.866" transform="matrix(0.707 0.7073 -0.7073 0.707 100.4538 -39.4597)" fill="#0055B8" width="3.253" height="3.252"/>
	</g>
	<g>
		<path fill="#0055B8" d="M104.283,73.74c-0.07-1.852-0.24-3.676-0.497-5.471c-0.979,0.79-2.083,1.428-3.274,1.893
			c0.14,1.225,0.249,2.457,0.297,3.709c0.26,6.861-0.929,13.445-3.278,19.469c1.1,0.419,2.136,0.966,3.091,1.625
			C103.235,88.412,104.566,81.23,104.283,73.74z"/>
		<path fill="#0055B8" d="M34.035,30.534c5.056-2.034,10.535-3.252,16.285-3.47c16.825-0.637,32.004,7.389,41.236,20.079
			c1.149-0.45,2.382-0.728,3.669-0.812c-9.791-14.3-26.476-23.443-45.037-22.74c-6.493,0.246-12.662,1.684-18.318,4.08
			C32.704,28.529,33.431,29.491,34.035,30.534z"/>
		<path fill="#0055B8" d="M3.513,77.552c-0.401-10.608,2.65-20.557,8.135-28.78c-0.899-0.8-1.699-1.708-2.379-2.705
			c-6.206,8.956-9.674,19.916-9.231,31.617c0.235,6.213,1.552,12.258,3.915,17.971c0.366,0.888,1.384,1.309,2.27,0.941
			c0.892-0.365,1.312-1.381,0.942-2.271C4.962,88.996,3.732,83.352,3.513,77.552z"/>
		<path fill="#0055B8" d="M80.333,115.381c-7.467,5.321-16.505,8.605-26.332,8.979c-5.803,0.219-11.521-0.58-17.001-2.375
			c-0.914-0.299-1.896,0.197-2.193,1.111c-0.304,0.912,0.196,1.893,1.11,2.193c5.871,1.924,11.998,2.779,18.215,2.545
			c10.67-0.404,20.475-4.008,28.536-9.843C81.79,117.219,81.006,116.342,80.333,115.381z"/>
	</g>
	<g>
		<rect x="19.742" y="28.412" fill="#0055B8" width="3.253" height="3.252"/>
		
			<rect x="14.217" y="30.701" transform="matrix(0.7071 0.7071 -0.7071 0.7071 27.4993 -1.734)" fill="#0055B8" width="3.252" height="3.253"/>
		<rect x="11.934" y="36.219" fill="#0055B8" width="3.253" height="3.253"/>
		
			<rect x="14.218" y="41.735" transform="matrix(0.7072 0.707 -0.707 0.7072 35.2978 1.4944)" fill="#0055B8" width="3.253" height="3.253"/>
		<rect x="19.742" y="44.026" fill="#0055B8" width="3.253" height="3.252"/>
		
			<rect x="25.259" y="41.732" transform="matrix(0.707 0.7072 -0.7072 0.707 38.5383 -6.3099)" fill="#0055B8" width="3.251" height="3.252"/>
		<rect x="27.549" y="36.219" fill="#0055B8" width="3.253" height="3.253"/>
		
			<rect x="25.26" y="30.7" transform="matrix(0.7072 0.707 -0.707 0.7072 30.7284 -9.5437)" fill="#0055B8" width="3.253" height="3.252"/>
	</g>
	<g>
		<path fill="#0055B8" d="M77.761,82.897l-2.299-2.3c1.16-1.158,1.16-3.045,0-4.205c-1.124-1.123-3.081-1.123-4.205,0l-2.299-2.299
			l1.625-1.627c1.16-1.159,1.16-3.046,0-4.205c-1.124-1.124-3.081-1.124-4.204,0l-1.627,1.627l-2.3-2.299l3.253-3.253
			c1.159-1.16,1.159-3.045,0-4.207c-1.16-1.158-3.046-1.158-4.205,0l-3.252,3.253l-2.3-2.299l1.626-1.626
			c0.562-0.562,0.87-1.309,0.87-2.102c0-0.794-0.308-1.541-0.87-2.103c-1.159-1.16-3.045-1.16-4.205,0l-1.626,1.626l-2.3-2.3
			l1.626-1.626c2.426-2.426,6.377-2.426,8.804,0c0.955,0.955,1.532,2.144,1.736,3.382c2.17-0.726,4.667-0.23,6.395,1.497
			c1.726,1.727,2.226,4.224,1.495,6.395c1.239,0.204,2.428,0.782,3.383,1.735c1.727,1.729,2.225,4.225,1.496,6.395
			c1.239,0.205,2.428,0.783,3.382,1.736C80.19,76.52,80.19,80.471,77.761,82.897z"/>
		<path fill="#00B181" d="M50.596,88.489c-2.669,0-5.18-1.04-7.066-2.929l0,0l0,0l0,0c-1.888-1.885-2.929-4.396-2.929-7.064
			c0-2.672,1.041-5.182,2.929-7.066c1.887-1.889,4.396-2.929,7.066-2.929c2.672,0,5.18,1.04,7.065,2.929
			c1.888,1.885,2.928,4.395,2.928,7.066c0,2.67-1.04,5.18-2.928,7.064C55.776,87.45,53.268,88.489,50.596,88.489z M50.596,71.754
			c-1.799,0-3.492,0.703-4.768,1.975c-1.274,1.275-1.976,2.967-1.976,4.77c0,1.798,0.703,3.49,1.976,4.766l0,0
			c1.274,1.273,2.966,1.976,4.768,1.976c1.798,0,3.491-0.702,4.767-1.976s1.976-2.967,1.976-4.766c0-1.8-0.702-3.493-1.976-4.77
			C54.088,72.455,52.394,71.754,50.596,71.754z"/>
		<path fill="#0055B8" d="M51.405,103.031l-3.364,3.362l-11.343,4.86l-16.461,14.815l2.177,2.416l5.528-4.976l2.602-2.342
			l7.929-7.137l11.424-4.895l3.807-3.809L51.405,103.031z"/>
		<g>
			<path fill="#00B181" d="M59.141,113.977L29.659,83.545l5.24-7.598c0.477-0.715,0.358-6.27-0.249-6.879
				c-0.684-0.682-6.452-0.682-7.136,0l-7.277,6.004l-5.122-5.121l26.935-26.937l44.027,44.026L59.141,113.977z M31.236,81.498
				l27.905,27.907l22.365-22.364L42.049,47.586L19.686,69.951l3.4,3.399l4.428-4.282c0.952-0.952,2.219-1.477,3.567-1.477
				c1.35,0,2.615,0.524,3.568,1.477c1.694,1.695,1.959,4.371,0.631,6.364L31.236,81.498z M50.596,88.479
				c-2.666,0-5.174-1.037-7.06-2.922c-3.893-3.893-3.893-10.227-0.001-14.119c1.886-1.886,4.394-2.924,7.06-2.924
				c2.667,0,5.175,1.038,7.061,2.924c3.891,3.892,3.891,10.225,0,14.118C55.77,87.441,53.263,88.479,50.596,88.479z M50.595,71.746
				c-1.803,0-3.499,0.701-4.773,1.977c-2.631,2.633-2.632,6.916,0.001,9.547c1.275,1.275,2.971,1.979,4.773,1.979
				c1.804,0,3.5-0.703,4.773-1.979c2.632-2.633,2.632-6.916,0-9.547C54.094,72.447,52.398,71.746,50.595,71.746z"/>
		</g>
		<path fill="#0055B8" d="M26.476,85.724l2.706,1.804l7.46-11.188c1.759-2.64,1.408-6.186-0.837-8.429
			c-2.604-2.605-6.845-2.605-9.448,0l-9.782,9.783l-3.253,16.26l-5.136,5.139l-2.419,2.42l-5.105,5.104l2.3,2.3l13.356-13.356
			l3.253-16.262l9.086-9.086c1.338-1.338,3.514-1.338,4.85,0c1.152,1.15,1.331,2.97,0.43,4.324L26.476,85.724z"/>
	</g>
	<path fill="#00B181" d="M96.038,43.688c-8.252,0-14.966,6.712-14.966,14.964c0,8.251,6.714,14.964,14.966,14.964
		c8.25,0,14.962-6.713,14.962-14.964C111,50.4,104.288,43.688,96.038,43.688z M96.038,71.014c-6.817,0-12.364-5.547-12.364-12.362
		c0-6.816,5.547-12.362,12.364-12.362c6.815,0,12.36,5.546,12.36,12.362C108.398,65.467,102.853,71.014,96.038,71.014z"/>
	<g>
		<path fill="#00B181" d="M95.271,55.564c0,0.793-0.252,1.586-0.688,2.206c-0.463,0.647-1.096,0.951-1.969,0.951
			c-1.201,0-1.913-0.727-1.913-1.941c0-1.81,1.082-3.17,2.509-3.17C94.502,53.61,95.271,54.337,95.271,55.564z M93.209,63.252
			h-1.242l6.815-9.853h1.229L93.209,63.252z M93.235,54.561c-0.29,0-0.554,0.145-0.711,0.396c-0.266,0.396-0.518,1.4-0.518,2.034
			c0,0.488,0.278,0.792,0.715,0.792c0.316,0,0.606-0.198,0.779-0.528c0.236-0.449,0.449-1.347,0.449-1.875
			C93.95,54.865,93.683,54.561,93.235,54.561z M101.372,59.937c0,0.792-0.251,1.584-0.688,2.206c-0.461,0.646-1.095,0.95-1.967,0.95
			c-1.201,0-1.915-0.727-1.915-1.941c0-1.81,1.082-3.17,2.511-3.17C100.605,57.981,101.372,58.708,101.372,59.937z M99.337,58.934
			c-0.29,0-0.555,0.144-0.713,0.396c-0.264,0.395-0.516,1.399-0.516,2.033c0,0.49,0.277,0.793,0.713,0.793
			c0.318,0,0.608-0.198,0.779-0.529c0.238-0.45,0.449-1.347,0.449-1.875C100.05,59.237,99.786,58.934,99.337,58.934z"/>
	</g>
</g>
</svg>
