<?xml version="1.0" encoding="utf-8"?>
<!-- Generator: Adobe Illustrator 16.0.0, SVG Export Plug-In . SVG Version: 6.00 Build 0)  -->
<!DOCTYPE svg PUBLIC "-//W3C//DTD SVG 1.1//EN" "http://www.w3.org/Graphics/SVG/1.1/DTD/svg11.dtd">
<svg version="1.1" id="Шар_1" xmlns="http://www.w3.org/2000/svg" xmlns:xlink="http://www.w3.org/1999/xlink" x="0px" y="0px"
	 width="109px" height="109px" viewBox="0 0 109 109" enable-background="new 0 0 109 109" xml:space="preserve">
<g>
	<path fill="#00B181" d="M100.043,91.952c-0.289-0.289-0.673-0.449-1.082-0.449H87.079l0.668-0.514
		c0.586-0.451,1.184-0.885,1.762-1.304c0.52-0.376,1.023-0.741,1.491-1.1c0.243-0.187,0.48-0.378,0.715-0.569l0.079-0.065h7.167
		c0.844,0,1.53-0.687,1.53-1.53c0-0.842-0.687-1.528-1.53-1.528h-4.236l0.289-0.444c0.534-0.818,0.935-1.622,1.224-2.457
		c0.77-2.226,0.415-4.868-0.926-6.896c-2.162-3.271-5.527-3.958-7.969-3.958c-2.357,0-4.884,0.646-7.112,1.815
		c-0.87,0.457-0.788,1.219-0.713,1.524c0.154,0.63,0.748,1.298,1.541,1.298c0.246,0,0.494-0.064,0.738-0.193
		c2.811-1.477,5.573-1.823,8.063-1.004c2.022,0.665,3.546,2.502,3.705,4.466c0.158,1.949-0.757,3.837-2.798,5.771l-0.083,0.079
		H76.646c-0.843,0-1.528,0.686-1.528,1.529s0.686,1.529,1.528,1.529h10.13l-0.702,0.519c-0.737,0.544-1.604,1.202-2.429,1.96
		c-0.319,0.295-0.635,0.621-0.937,0.973l-0.087,0.1h-5.976c-0.843,0-1.528,0.688-1.528,1.53c0,0.844,0.686,1.53,1.528,1.53h4.134
		l-0.139,0.385c-1.249,3.471-0.582,7,1.784,9.442c1.589,1.64,3.87,2.505,6.599,2.505c2.359,0,4.956-0.632,7.312-1.78
		c0.865-0.422,0.799-1.155,0.731-1.452c-0.15-0.65-0.763-1.342-1.601-1.342c-0.238,0-0.478,0.059-0.714,0.174
		c-1.714,0.835-3.821,1.334-5.638,1.334c-2.875,0-4.893-1.223-5.681-3.445c-0.714-2.015-0.504-3.875,0.645-5.688l0.085-0.133h14.797
		c0.843,0,1.529-0.687,1.529-1.529C100.49,92.625,100.331,92.241,100.043,91.952z"/>
	<path fill="#0055B8" d="M54.5,17.947c1.003,0,1.816-0.812,1.816-1.816v-1.816c0-1.005-0.813-1.817-1.816-1.817
		s-1.817,0.812-1.817,1.817v1.816C52.683,17.135,53.497,17.947,54.5,17.947z"/>
	<path fill="#0055B8" d="M52.683,92.431v1.816c0,1.004,0.814,1.816,1.817,1.816s1.816-0.812,1.816-1.816v-1.816
		c0-1.006-0.813-1.817-1.816-1.817S52.683,91.425,52.683,92.431z"/>
	<path fill="#0055B8" d="M94.466,56.097c1.003,0,1.817-0.812,1.817-1.816c0-1.005-0.814-1.817-1.817-1.817H92.65
		c-1.004,0-1.817,0.812-1.817,1.817c0,1.004,0.813,1.816,1.817,1.816H94.466z"/>
	<path fill="#0055B8" d="M14.533,52.463c-1.004,0-1.817,0.812-1.817,1.817c0,1.004,0.813,1.816,1.817,1.816h1.816
		c1.003,0,1.816-0.812,1.816-1.816c0-1.005-0.813-1.817-1.816-1.817H14.533z"/>
	<path fill="#0055B8" d="M81.475,29.119c0.466,0,0.932-0.178,1.285-0.532l1.284-1.284c0.711-0.71,0.711-1.858,0-2.568
		c-0.71-0.711-1.857-0.711-2.569,0l-1.284,1.284c-0.71,0.71-0.71,1.858,0,2.568C80.545,28.943,81.011,29.119,81.475,29.119z"/>
	<path fill="#0055B8" d="M26.239,79.972l-1.284,1.284c-0.711,0.71-0.711,1.858,0,2.569c0.354,0.354,0.819,0.531,1.284,0.531
		s0.93-0.178,1.285-0.531l1.284-1.285c0.709-0.71,0.709-1.858,0-2.568C28.098,79.261,26.948,79.261,26.239,79.972z"/>
	<path fill="#0055B8" d="M28.809,26.019l-1.284-1.284c-0.711-0.711-1.858-0.711-2.569,0c-0.711,0.71-0.711,1.858,0,2.568
		l1.284,1.284c0.354,0.354,0.819,0.532,1.285,0.532c0.465,0,0.931-0.178,1.284-0.532C29.518,27.878,29.518,26.729,28.809,26.019z"/>
	<path fill="#0055B8" d="M54.5,0C24.448,0,0,24.449,0,54.5C0,84.552,24.448,109,54.5,109c6.496,0,12.859-1.136,18.918-3.377
		c0.941-0.347,1.421-1.394,1.074-2.333c-0.35-0.945-1.392-1.424-2.335-1.073c-5.652,2.089-11.595,3.149-17.657,3.149
		c-28.048,0-50.867-22.818-50.867-50.866c0-28.047,22.819-50.867,50.867-50.867c28.047,0,50.866,22.819,50.866,50.867
		c0,6.067-1.062,12.007-3.152,17.656c-0.347,0.942,0.133,1.987,1.074,2.334c0.94,0.354,1.985-0.13,2.334-1.071
		C107.864,67.364,109,61,109,54.5C109,24.449,84.551,0,54.5,0z"/>
	<path fill="#00B181" d="M35.034,47.289c0-4.144,3.368-7.009,8.171-7.009c4.725,0,8.093,2.827,8.093,6.854
		c0,2.71-1.277,4.764-3.757,5.925c3.216,1.123,4.842,3.407,4.842,6.7c0,5.227-3.602,8.52-9.295,8.52c-5.46,0-9.1-3.293-9.1-8.287
		c0-3.332,1.742-5.81,4.841-6.933C36.428,52.052,35.034,49.96,35.034,47.289z M37.435,59.913c0,3.253,2.401,5.576,5.73,5.576
		c3.409,0,5.771-2.285,5.771-5.537c0-3.254-2.361-5.461-5.848-5.461C39.797,54.491,37.435,56.776,37.435,59.913z M38.402,47.521
		c0,2.594,1.937,4.298,4.803,4.298c2.865,0,4.725-1.704,4.725-4.298c0-2.634-1.859-4.299-4.725-4.299
		C40.339,43.222,38.402,44.926,38.402,47.521z"/>
	<path fill="#00B181" d="M70.336,52.539c-0.653,0-1.287-0.076-1.9-0.212c0.018,0.759,0.016,1.482,0.016,2.126
		c0,3.95,0.039,10.921-5.576,10.921s-5.732-6.699-5.732-10.766c0-3.81-0.095-10.122,4.248-11.219c0-0.016-0.003-0.033-0.003-0.05
		c0-1.062,0.185-2.077,0.506-3.025c-7.623,0.541-8.236,7.991-8.236,14.294c0,6.544,0.97,13.67,9.295,13.67
		c7.861,0,9.022-7.126,9.022-13.594c0-0.754-0.008-1.525-0.036-2.3C71.417,52.481,70.884,52.539,70.336,52.539z"/>
	<g>
		<path fill="#00B181" d="M69.237,40.881c0,0.9-0.284,1.798-0.779,2.503c-0.525,0.734-1.243,1.08-2.233,1.08
			c-1.363,0-2.172-0.825-2.172-2.204c0-2.053,1.229-3.596,2.847-3.596C68.367,38.664,69.237,39.488,69.237,40.881z M66.899,49.603
			h-1.408l7.732-11.178h1.393L66.899,49.603z M66.929,39.743c-0.329,0-0.628,0.165-0.808,0.449c-0.301,0.45-0.585,1.589-0.585,2.308
			c0,0.554,0.314,0.898,0.809,0.898c0.36,0,0.689-0.224,0.885-0.599c0.27-0.509,0.51-1.528,0.51-2.128
			C67.739,40.088,67.438,39.743,66.929,39.743z M76.16,45.842c0,0.898-0.285,1.798-0.779,2.502
			c-0.525,0.734-1.243,1.079-2.233,1.079c-1.363,0-2.172-0.824-2.172-2.203c0-2.053,1.228-3.596,2.848-3.596
			C75.29,43.624,76.16,44.448,76.16,45.842z M73.852,44.703c-0.329,0-0.628,0.164-0.808,0.45c-0.301,0.449-0.586,1.587-0.586,2.307
			c0,0.555,0.315,0.899,0.81,0.899c0.36,0,0.689-0.225,0.885-0.6c0.269-0.51,0.509-1.529,0.509-2.127
			C74.661,45.047,74.36,44.703,73.852,44.703z"/>
	</g>
</g>
</svg>
