<?xml version="1.0" encoding="utf-8"?>
<!-- Generator: Adobe Illustrator 16.0.0, SVG Export Plug-In . SVG Version: 6.00 Build 0)  -->
<!DOCTYPE svg PUBLIC "-//W3C//DTD SVG 1.1//EN" "http://www.w3.org/Graphics/SVG/1.1/DTD/svg11.dtd">
<svg version="1.1" id="Слой_1" xmlns="http://www.w3.org/2000/svg" xmlns:xlink="http://www.w3.org/1999/xlink" x="0px" y="0px"
	 width="122px" height="122.003px" viewBox="0 0 122 122.003" enable-background="new 0 0 122 122.003" xml:space="preserve">
<g>
	<path fill="#EDE8D6" d="M120.569,44.085L63.143,0.718c-1.27-0.957-3.015-0.957-4.286,0L1.431,44.085
		C0.531,44.759,0,45.819,0,46.943v71.485l3.574,3.574h114.852l3.574-3.574V46.943C122,45.82,121.469,44.759,120.569,44.085z"/>
	<path fill="#FFFFFF" d="M96.743,104.131H25.258c-1.976,0-3.575-1.598-3.575-3.574V18.351c0-1.977,1.599-3.575,3.575-3.575h71.484
		c1.976,0,3.574,1.599,3.574,3.575v82.206C100.317,102.533,98.718,104.131,96.743,104.131z"/>
	<path fill="#CECBC0" d="M121.133,120.691L76.37,83.544L61,96.983L45.631,83.544L0.853,120.67c0.655,0.796,1.609,1.333,2.721,1.333
		h114.852C119.53,122.003,120.477,121.476,121.133,120.691z"/>
	<path fill="#DDDAD4" d="M121.133,120.691c0.518-0.62,0.867-1.39,0.867-2.263V46.943c0-0.872-0.396-1.65-0.961-2.296L76.37,83.544
		L121.133,120.691z"/>
	<path fill="#DDDAD4" d="M0.943,44.67C0.39,45.312,0,46.08,0,46.943v71.485c0,0.863,0.344,1.623,0.853,2.24l44.778-37.125
		L0.943,44.67z"/>
	<path fill="#CECBC0" d="M118.426,122.003c1.104,0,2.051-0.527,2.707-1.313L76.37,83.544L61,96.983v25.02H118.426L118.426,122.003z"
		/>
	<path fill="#F05228" d="M78.469,38.637c-5.886-7.641-17.468-3.133-17.468,4.627c0-7.76-11.583-12.269-17.47-4.627
		c-6.083,7.899-0.087,21.738,17.47,29.688C78.557,60.375,84.553,46.536,78.469,38.637z"/>
</g>
</svg>
