<?xml version="1.0" encoding="utf-8"?>
<!-- Generator: Adobe Illustrator 19.2.1, SVG Export Plug-In . SVG Version: 6.00 Build 0)  -->
<svg version="1.1" id="Шар_1" xmlns="http://www.w3.org/2000/svg" xmlns:xlink="http://www.w3.org/1999/xlink" x="0px" y="0px"
	 viewBox="0 0 111.2 111.2" style="enable-background:new 0 0 111.2 111.2;" xml:space="preserve">
<style type="text/css">
	.st0{fill-rule:evenodd;clip-rule:evenodd;fill:#00B181;}
	.st1{fill:#0055B8;}
</style>
<path class="st0" d="M33.8,25.4v39.3l9,0l0,0.2c0.8,3.7,3.1,6.7,7.2,9.2c4.1-2.5,6.5-5.5,7.2-9.2l0-0.2l9,0V25.4
	c-1.9,0.8-5.8,2.4-7.1,7.3l-2.6,16.9c2,0,3,1.5,3,3c0,0.8-0.3,1.6-0.9,2.2c-0.7,0.7-1.6,1-2.7,1h-0.1l-0.1-0.1
	c-2.2-3.3-3.7-9.1-3.8-10.8c-0.7-3.2-0.4-7-0.2-10.6c0.2-2.7,0.4-5.3,0.1-7.5c0-2.3-1-4.5-1.9-5c-0.9,0.5-1.9,2.6-1.9,5
	c-0.2,2.2-0.1,4.8,0.1,7.5c0.2,3.6,0.5,7.4-0.2,10.6c-0.1,1.6-1.6,7.4-3.8,10.8l-0.1,0.1h-0.1c-1.1,0-2.1-0.3-2.8-1
	c-0.6-0.6-0.9-1.4-0.9-2.2c0-1.5,1-3,3-3l-2.6-16.9C39.6,27.7,35.7,26.1,33.8,25.4z M59.6,47.9l-0.2-0.1l2-13.7
	c0.2-1.7,0.8-2.4,1.5-3.2c0.2-0.2,0.3-0.4,0.5-0.6l0.4-0.6v21.4l-1.6,0.2l-0.1-0.2C61.8,49.7,61,48.6,59.6,47.9z M57.1,58.3
	c2.5-0.3,4.5-2,5.1-4.4l0-0.2l1.6,0v8.5l-6.4,0l0-0.3c0.1-1.4-0.1-2.1-0.4-2.9l-0.2-0.7L57.1,58.3z M48.4,70c-1.5-1.5-2.1-2.5-3.1-5
	l-0.1-0.3h3.6l0,5.8L48.4,70z M54.9,65c-1,2.5-1.6,3.5-3.1,5l-0.4,0.4l0-5.8h3.6L54.9,65z M54.3,58.5l0.1,0.2c0.4,1,0.8,1.8,0.8,3.4
	l0,0.2l-3.7,0l0-0.2c-0.2-1.5,1.1-3.1,2.7-3.6L54.3,58.5z M47.1,55.8c0.8-1.4,1.7-3.1,2.8-7.3l0.2-1l0.2,1c1.1,4.2,2,5.9,2.8,7.3
	l0.1,0.2l-0.2,0.1c-0.6,0.3-1,0.5-1.3,0.7c-0.6,0.3-0.8,0.4-1.5,1.3l-0.2,0.2L49.9,58c-0.7-0.9-0.9-1-1.5-1.3
	c-0.3-0.1-0.7-0.3-1.3-0.7L47,56L47.1,55.8z M45.9,58.7l0.1-0.2l0.2,0.1c1.6,0.5,2.9,2.1,2.7,3.6l0,0.2l-3.7,0l0-0.2
	C45.1,60.5,45.5,59.6,45.9,58.7z M43.1,58.3l0.3,0L43.2,59c-0.3,0.8-0.5,1.6-0.4,2.9l0,0.3l-6.4,0v-8.5l1.6,0l0,0.2
	C38.6,56.3,40.6,58,43.1,58.3z M40.6,47.9c-1.4,0.7-2.3,1.8-2.6,3.4l-0.1,0.2l-1.6-0.2V29.9l0.4,0.6c0.2,0.2,0.3,0.4,0.5,0.6
	c0.7,0.7,1.3,1.5,1.5,3.2l2,13.6L40.6,47.9z"/>
<path class="st1" d="M70.6,86.4H31.7c-0.8,0-1.4,0.6-1.4,1.4c0,0.8,0.6,1.4,1.4,1.4h38.9c0.8,0,1.4-0.6,1.4-1.4
	C72,87,71.4,86.4,70.6,86.4z"/>
<path class="st1" d="M87.8,86.6l22.7-54.8c0.9-2.1,0.9-4.4,0-6.5c-0.9-2.1-2.5-3.7-4.6-4.6l-18.2-7.5v-2.3c0-6-4.9-10.9-10.9-10.9
	H6.2C2.8,0,0,2.8,0,6.2V105c0,3.4,2.8,6.2,6.2,6.2h70.7c6,0,10.9-4.9,10.9-10.9L87.8,86.6z M87.7,36.6l3.3,1.4
	c0.7,0.3,1.6-0.1,1.9-0.8c0.1-0.4,0.1-0.8,0-1.1c-0.1-0.4-0.4-0.6-0.8-0.8l-4.4-1.8V16.3l17.1,7.1c1.4,0.6,2.5,1.7,3,3
	c0.6,1.4,0.6,2.9,0,4.3l-4,9.5l-3.3-1.4c-0.7-0.3-1.6,0.1-1.9,0.8c-0.3,0.7,0,1.6,0.8,1.9l3.3,1.4L87.7,79.2V36.6z M14.1,108.3h-8
	c-1.8,0-3.3-1.5-3.3-3.3V6.2c0-1.8,1.5-3.3,3.3-3.3h8V108.3z M84.8,34.1c0,0.3,0,0.4,0,0.6l0,65.6c0,4.4-3.6,8-8,8H17V2.9h59.8
	c4.4,0,8,3.6,8,8V34.1z"/>
</svg>
