<?xml version="1.0" encoding="utf-8"?>
<!-- Generator: Adobe Illustrator 16.0.0, SVG Export Plug-In . SVG Version: 6.00 Build 0)  -->
<!DOCTYPE svg PUBLIC "-//W3C//DTD SVG 1.1//EN" "http://www.w3.org/Graphics/SVG/1.1/DTD/svg11.dtd">
<svg version="1.1" id="Шар_1" xmlns="http://www.w3.org/2000/svg" xmlns:xlink="http://www.w3.org/1999/xlink" x="0px" y="0px"
	 width="83px" height="74.239px" viewBox="0 0 83 74.239" style="enable-background:new 0 0 83 74.239;" xml:space="preserve">
<g>
	<path style="fill:#E9580C;" d="M82.999,18.923c-0.012-0.532-0.305-1.026-0.768-1.288L51.55,0.194
		c-0.477-0.272-1.096-0.257-1.563,0.035L0.712,31.258c-0.45,0.282-0.723,0.789-0.711,1.321c0.012,0.531,0.307,1.024,0.77,1.287
		l30.683,17.439c0.478,0.273,1.093,0.261,1.562-0.034l14.025-8.832c0.344-0.217,0.582-0.554,0.672-0.95
		c0.092-0.396,0.021-0.804-0.195-1.146c-0.432-0.688-1.406-0.912-2.096-0.478l-13.257,8.347l-0.194-0.11L4.481,32.479l16.791-10.573
		l0.194,0.109l28.927,16.442v21.854c0,0.554,0.301,1.064,0.785,1.331c0.479,0.262,1.086,0.244,1.545-0.046l9.855-6.205
		c0.445-0.281,0.713-0.762,0.713-1.286V31.367c-0.004-0.077-0.008-0.127-0.014-0.177c-0.008-0.053-0.014-0.095-0.02-0.131
		l-0.035-0.034v-0.103c-0.014-0.041-0.027-0.082-0.045-0.123c-0.037-0.087-0.057-0.122-0.076-0.158
		c-0.066-0.116-0.092-0.149-0.117-0.184c-0.055-0.075-0.096-0.12-0.139-0.164c-0.063-0.058-0.102-0.091-0.141-0.122
		c-0.086-0.064-0.141-0.103-0.201-0.136L34.048,13.861L50.839,3.288l0.193,0.11l27.488,15.624l-11.877,7.479
		c-0.711,0.447-0.924,1.388-0.477,2.097c0.432,0.687,1.402,0.915,2.096,0.477l14.027-8.831
		C82.739,19.96,83.013,19.454,82.999,18.923z M58.81,31.434l-2.887,1.819c-0.711,0.445-0.926,1.388-0.479,2.097
		c0.432,0.687,1.41,0.91,2.096,0.478l2.709-1.706v19.144l-6.814,4.29V37.573c0-0.546-0.295-1.052-0.77-1.322L24.192,20.066
		l6.935-4.367l0.194,0.11L58.81,31.434z"/>
	<path style="fill:#009BDE;" d="M66.167,36.177c0.432,0.687,1.408,0.911,2.098,0.477l14.025-8.832
		c0.709-0.446,0.924-1.388,0.477-2.097c-0.279-0.445-0.762-0.711-1.287-0.711c-0.285,0-0.566,0.081-0.809,0.234l-14.027,8.831
		C65.933,34.526,65.72,35.467,66.167,36.177z"/>
	<path style="fill:#009BDE;" d="M47.712,49.068c0.092-0.396,0.021-0.803-0.195-1.146c-0.43-0.687-1.406-0.913-2.096-0.478
		l-13.258,8.347l-0.195-0.11L2.272,38.801c-0.229-0.13-0.487-0.198-0.748-0.198c-0.548,0-1.055,0.295-1.324,0.77
		c-0.201,0.354-0.253,0.764-0.145,1.155c0.107,0.392,0.361,0.718,0.715,0.918l30.682,17.44c0.48,0.273,1.097,0.26,1.561-0.035
		l14.027-8.832C47.384,49.802,47.622,49.465,47.712,49.068z"/>
	<path style="fill:#009BDE;" d="M65.97,42.608c-0.09,0.396-0.02,0.804,0.197,1.146c0.434,0.688,1.414,0.908,2.096,0.479
		l14.027-8.832c0.709-0.447,0.924-1.388,0.477-2.098c-0.279-0.445-0.762-0.712-1.289-0.712c-0.285,0-0.564,0.081-0.807,0.235
		l-14.027,8.832C66.3,41.875,66.062,42.212,65.97,42.608z"/>
	<path style="fill:#009BDE;" d="M47.712,56.647c0.092-0.396,0.021-0.804-0.195-1.146c-0.432-0.689-1.408-0.915-2.096-0.478
		L32.163,63.37l-0.195-0.109L2.272,46.38c-0.228-0.13-0.486-0.199-0.748-0.199c-0.548,0-1.055,0.296-1.324,0.77
		c-0.201,0.354-0.253,0.764-0.145,1.155c0.107,0.392,0.361,0.718,0.715,0.919l30.682,17.439c0.479,0.273,1.1,0.26,1.561-0.034
		l14.027-8.833C47.384,57.381,47.622,57.044,47.712,56.647z"/>
	<path style="fill:#0055B8;" d="M65.97,50.188c-0.09,0.396-0.02,0.804,0.197,1.146c0.432,0.687,1.408,0.911,2.098,0.478
		l14.025-8.832c0.709-0.447,0.924-1.388,0.477-2.097c-0.279-0.445-0.762-0.711-1.287-0.711c-0.285,0-0.566,0.08-0.809,0.234
		l-14.027,8.832C66.3,49.454,66.062,49.791,65.97,50.188z"/>
	<path style="fill:#0055B8;" d="M47.712,64.227c0.092-0.396,0.021-0.805-0.195-1.147c-0.43-0.687-1.406-0.912-2.096-0.478
		l-13.258,8.348l-0.195-0.11L2.272,53.959c-0.229-0.131-0.487-0.198-0.748-0.198c-0.548,0-1.055,0.295-1.324,0.769
		c-0.201,0.354-0.253,0.764-0.145,1.155c0.107,0.392,0.361,0.717,0.715,0.918l30.682,17.44c0.48,0.273,1.097,0.261,1.561-0.035
		l14.027-8.832C47.384,64.96,47.622,64.623,47.712,64.227z"/>
</g>
</svg>
