<?xml version="1.0" encoding="utf-8"?>
<!-- Generator: Adobe Illustrator 16.0.0, SVG Export Plug-In . SVG Version: 6.00 Build 0)  -->
<!DOCTYPE svg PUBLIC "-//W3C//DTD SVG 1.1//EN" "http://www.w3.org/Graphics/SVG/1.1/DTD/svg11.dtd">
<svg version="1.1" id="Шар_1" xmlns="http://www.w3.org/2000/svg" xmlns:xlink="http://www.w3.org/1999/xlink" x="0px" y="0px"
	 width="46px" height="46px" viewBox="0 0 46 46" style="enable-background:new 0 0 46 46;" xml:space="preserve">
<g>
	<polygon style="fill:#5DB2D8;" points="13.567,18.631 10.356,21.857 20.697,32.198 43.698,9.198 40.474,5.975 20.697,25.764 	"/>
	<path style="fill:#2058A4;" d="M41.395,23.001c0,10.121-8.277,18.394-18.396,18.394S4.606,33.122,4.606,23.001
		S12.879,4.606,22.999,4.606c1.845,0,3.448,0.225,5.065,0.684l3.673-3.683C28.974,0.684,25.987,0,22.999,0
		C10.356,0,0,10.356,0,23.001c0,12.644,10.356,23,22.999,23C35.645,46,46,35.645,46,23.001H41.395z"/>
</g>
</svg>
