<?xml version="1.0" encoding="utf-8"?>
<!-- Generator: Adobe Illustrator 16.0.0, SVG Export Plug-In . SVG Version: 6.00 Build 0)  -->
<!DOCTYPE svg PUBLIC "-//W3C//DTD SVG 1.1//EN" "http://www.w3.org/Graphics/SVG/1.1/DTD/svg11.dtd">
<svg version="1.1" id="Шар_1" xmlns="http://www.w3.org/2000/svg" xmlns:xlink="http://www.w3.org/1999/xlink" x="0px" y="0px"
	 width="64px" height="64.578px" viewBox="0 0 64 64.578" style="enable-background:new 0 0 64 64.578;" xml:space="preserve">
<g>
	<path style="fill:#2359A3;" d="M46.695,54.664c0.023-2.118-0.799-4.172-2.26-5.633l-2.814-2.813
		c-1.09-1.091-2.557-1.716-4.027-1.716c-0.262,0-0.526,0.022-0.782,0.059l-0.033,0.005c-1.671,0.128-3.224,1.135-4.257,2.763
		l-0.02,0.027c-0.514,0.686-1.196,1.176-1.87,1.345l-0.052,0.013h-0.054c-0.885,0-1.558-0.208-2.184-0.677l-0.048-0.041
		l-0.131-0.133c-5.162-4.193-8.738-7.771-12.338-12.343l-0.613-0.768c-0.37-0.554-0.37-0.958-0.37-1.426v-0.071l0.022-0.066
		c0.179-0.532,0.385-0.907,0.912-1.26c1.83-1.125,2.936-2.804,3.216-4.865c0.138-2.005-0.608-4.083-1.949-5.424l-2.073-2.073
		c-1.424-1.425-3.418-2.243-5.468-2.243c-2.243,0-4.13,0.77-5.454,2.229l-0.015,0.015L2.7,20.899
		c-2.146,2.147-3.098,5.157-2.547,8.052c1.717,9.583,7.716,16.64,13.355,22.281c5.145,5.145,12.274,11.294,21.841,13.206
		l0.021,0.005c0.54,0.135,0.952,0.135,1.523,0.135c2,0,3.934-0.865,5.306-2.375l0.014-0.015l2.223-2.221
		C45.871,58.595,46.672,56.716,46.695,54.664z M42.234,57.47l-2.223,2.221c-0.785,0.787-1.891,1.255-2.957,1.255
		c-0.289,0-0.573-0.034-0.848-0.101c-8.566-1.659-15.215-7.421-20.052-12.259c-4.511-4.373-10.709-11.245-12.41-20.363
		c-0.329-1.815,0.2-3.573,1.453-4.826l1.333-1.333c0.868-0.87,1.868-1.312,2.971-1.312c1.024,0,2.162,0.503,2.971,1.312l2.073,2.073
		c0.688,0.689,1.025,1.691,0.867,2.569c-0.018,0.885-0.548,1.745-1.394,2.255c-1.363,0.815-2.338,2.198-2.61,3.703
		c-0.275,1.513,0.135,3.154,1.101,4.395l0.588,0.735c3.968,4.997,7.964,8.995,12.96,12.961l0.037,0.034l0.132,0.132
		c1.449,1.177,3.255,1.662,5.122,1.373c1.773-0.272,3.295-1.355,4.283-3.047l0.014-0.021c0.472-0.709,1.058-1.081,1.692-1.081
		c0.743,0,1.274,0.211,1.774,0.708l3.123,2.677C43.871,53.166,43.871,55.833,42.234,57.47z"/>
	<path style="fill:#E9580C;" d="M27.713,17.473c-0.952,0-1.788,0.836-1.788,1.787c0,0.953,0.836,1.789,1.788,1.789
		c8.403,0,15.239,6.836,15.239,15.237c0,0.954,0.836,1.79,1.789,1.79c0.951,0,1.787-0.836,1.787-1.79
		C46.528,25.911,38.088,17.473,27.713,17.473z"/>
	<path style="fill:#E9580C;" d="M27.713,0c-0.952,0-1.788,0.836-1.788,1.789c0,0.951,0.836,1.787,1.788,1.787
		c18.037,0,32.71,14.674,32.71,32.71c0,0.954,0.836,1.79,1.788,1.79c1.161,0,1.788-0.922,1.788-1.79C64,16.277,47.722,0,27.713,0z"
		/>
	<path style="fill:#E9580C;" d="M27.713,8.588c-0.952,0-1.788,0.836-1.788,1.787c0,0.953,0.836,1.789,1.788,1.789
		c6.417,0,12.468,2.518,17.038,7.086s7.086,10.62,7.086,17.036c0,0.954,0.836,1.79,1.786,1.79c0.954,0,1.79-0.836,1.79-1.79
		C55.413,21.015,42.986,8.588,27.713,8.588z"/>
</g>
</svg>
