<?xml version="1.0" encoding="utf-8"?>
<!-- Generator: Adobe Illustrator 16.0.0, SVG Export Plug-In . SVG Version: 6.00 Build 0)  -->
<!DOCTYPE svg PUBLIC "-//W3C//DTD SVG 1.1//EN" "http://www.w3.org/Graphics/SVG/1.1/DTD/svg11.dtd">
<svg version="1.1" id="Шар_1" xmlns="http://www.w3.org/2000/svg" xmlns:xlink="http://www.w3.org/1999/xlink" x="0px" y="0px"
	 width="71px" height="68.007px" viewBox="0 0 71 68.007" style="enable-background:new 0 0 71 68.007;" xml:space="preserve">
<g>
	<g>
		<path style="fill:#009BDE;" d="M53.848,38.169c0,1.074-0.854,1.929-1.928,1.929H16.189c-1.073,0-1.927-0.854-1.927-1.929
			c0-1.071,0.854-1.926,1.927-1.926h35.723C52.995,36.233,53.848,37.098,53.848,38.169L53.848,38.169z"/>
		<path style="fill:#009BDE;" d="M16.189,24.431h35.723c1.072,0,1.927,0.854,1.927,1.928c0,1.072-0.854,1.927-1.927,1.927H16.189
			c-1.073,0-1.927-0.854-1.927-1.927C14.152,25.396,15.116,24.431,16.189,24.431L16.189,24.431z"/>
		<path style="fill:#009BDE;" d="M14.152,14.666c0-1.072,0.855-1.928,1.928-1.928h12.337c1.074,0,1.927,0.855,1.927,1.928
			c0,1.073-0.854,1.928-1.927,1.928H16.189C15.116,16.714,14.152,15.848,14.152,14.666L14.152,14.666z"/>
	</g>
	<path style="fill:#0055B8;" d="M0,50.906c0,1.086,0.883,1.969,1.969,1.969h34.38L55.051,67.59c0.561,0.457,1.396,0.551,2.057,0.22
		c0.688-0.326,1.114-1.004,1.114-1.771l0.048-13.163h10.762c1.085,0,1.969-0.883,1.969-1.969V1.969C71,0.883,70.117,0,69.032,0
		H1.969C0.883,0,0,0.883,0,1.969V50.906z M3.938,3.938h63.124v45H56.297c-1.085,0-1.969,0.883-1.969,1.973l-0.053,11.049l-16-12.576
		c-0.395-0.287-0.834-0.445-1.235-0.445H3.938V3.938z"/>
</g>
</svg>
