<?xml version="1.0" encoding="utf-8"?>
<!-- Generator: Adobe Illustrator 16.0.0, SVG Export Plug-In . SVG Version: 6.00 Build 0)  -->
<!DOCTYPE svg PUBLIC "-//W3C//DTD SVG 1.1//EN" "http://www.w3.org/Graphics/SVG/1.1/DTD/svg11.dtd">
<svg version="1.1" id="Шар_1" xmlns="http://www.w3.org/2000/svg" xmlns:xlink="http://www.w3.org/1999/xlink" x="0px" y="0px"
	 width="68px" height="92.303px" viewBox="0 0 68 92.303" style="enable-background:new 0 0 68 92.303;" xml:space="preserve">
<g>
	<path style="fill:#009BDE;stroke:#009BDE;stroke-miterlimit:10;" d="M67.489,26.719c0.011-0.241,0.011-0.348,0.011-0.445
		c-0.044-0.065-0.075-0.114-0.102-0.159l-0.043-0.043c-0.088-0.087-0.182-0.216-0.268-0.344c-0.03-0.046-0.059-0.092-0.087-0.124
		L42.264,0.981c-0.08-0.081-0.127-0.128-0.199-0.171c-0.165-0.047-0.305-0.146-0.404-0.279c-0.031-0.005-0.068-0.015-0.11-0.031
		H5.767C2.912,0.5,0.5,2.912,0.5,5.767v80.77c0,2.854,2.412,5.267,5.267,5.267h56.456c2.855,0,5.267-2.412,5.267-5.267V26.719z
		 M42.742,5.401l19.975,19.857H42.742V5.401z M62.223,88.995H5.767c-1.379,0-2.46-1.08-2.46-2.459V5.882
		c0-1.38,1.081-2.46,2.46-2.46h34.158v23.183c0,0.756,0.592,1.348,1.347,1.348h23.297V85.87l0.114,0.666
		C64.683,87.915,63.603,88.995,62.223,88.995z"/>
	<path style="fill:#0055B8;" d="M12.143,18.854h10.2c0.755,0,1.366-0.613,1.366-1.366c0-0.755-0.611-1.367-1.366-1.367h-10.2
		c-0.751,0-1.364,0.612-1.364,1.367C10.779,18.241,11.392,18.854,12.143,18.854L12.143,18.854z M12.143,18.854"/>
	<path style="fill:#0055B8;" d="M12.143,26.138h16.03c0.754,0,1.366-0.611,1.366-1.363c0-0.756-0.612-1.368-1.366-1.368h-16.03
		c-0.751,0-1.364,0.612-1.364,1.368C10.779,25.526,11.392,26.138,12.143,26.138L12.143,26.138z M12.143,26.138"/>
	<path style="fill:#0055B8;" d="M23.893,36.43c0,0.755,0.612,1.367,1.365,1.367h17.485c0.753,0,1.365-0.612,1.365-1.367
		c0-0.757-0.612-1.366-1.365-1.366H25.258C24.505,35.063,23.893,35.673,23.893,36.43L23.893,36.43z M23.893,36.43"/>
	<path style="fill:#0055B8;" d="M55.855,42.35H12.143c-0.751,0-1.364,0.609-1.364,1.366c0,0.752,0.612,1.364,1.364,1.364h43.712
		c0.757,0,1.367-0.612,1.367-1.364C57.223,42.959,56.612,42.35,55.855,42.35L55.855,42.35z M55.855,42.35"/>
	<path style="fill:#0055B8;" d="M38.372,68.576H28.173c-0.756,0-1.366,0.611-1.366,1.367c0,0.753,0.61,1.363,1.366,1.363h10.199
		c0.755,0,1.365-0.61,1.365-1.363C39.737,69.188,39.127,68.576,38.372,68.576L38.372,68.576z M38.372,68.576"/>
	<path style="fill:#0055B8;" d="M38.372,75.861H28.173c-0.756,0-1.366,0.612-1.366,1.366c0,0.753,0.61,1.365,1.366,1.365h10.199
		c0.755,0,1.365-0.612,1.365-1.365C39.737,76.474,39.127,75.861,38.372,75.861L38.372,75.861z M38.372,75.861"/>
	<path style="fill:#0055B8;" d="M55.855,49.635H12.143c-0.751,0-1.364,0.609-1.364,1.365c0,0.755,0.612,1.366,1.364,1.366h43.712
		c0.757,0,1.367-0.611,1.367-1.366C57.223,50.244,56.612,49.635,55.855,49.635L55.855,49.635z M55.855,49.635"/>
	<path style="fill:#0055B8;" d="M55.855,56.921H12.143c-0.751,0-1.364,0.609-1.364,1.363c0,0.757,0.612,1.367,1.364,1.367h43.712
		c0.757,0,1.367-0.61,1.367-1.367C57.223,57.53,56.612,56.921,55.855,56.921L55.855,56.921z M55.855,56.921"/>
	<path style="fill:#009BDE;" d="M50.028,65.786c-3.968,0-7.195,3.229-7.195,7.195s3.228,7.194,7.195,7.194
		c3.966,0,7.194-3.228,7.194-7.194S53.994,65.786,50.028,65.786L50.028,65.786z M50.028,77.443c-2.461,0-4.464-2.001-4.464-4.462
		c0-2.46,2.003-4.462,4.464-4.462c2.46,0,4.462,2.002,4.462,4.462C54.49,75.442,52.488,77.443,50.028,77.443L50.028,77.443z
		 M50.028,77.443"/>
	<path style="fill:#009BDE;" d="M50.028,70.522c-1.356,0-2.46,1.103-2.46,2.459s1.104,2.46,2.46,2.46
		c1.354,0,2.459-1.104,2.459-2.46S51.383,70.522,50.028,70.522L50.028,70.522z M50.028,70.522"/>
</g>
</svg>
