<?xml version="1.0" encoding="utf-8"?>
<!-- Generator: Adobe Illustrator 16.0.0, SVG Export Plug-In . SVG Version: 6.00 Build 0)  -->
<!DOCTYPE svg PUBLIC "-//W3C//DTD SVG 1.1//EN" "http://www.w3.org/Graphics/SVG/1.1/DTD/svg11.dtd">
<svg version="1.1" id="Шар_1" xmlns="http://www.w3.org/2000/svg" xmlns:xlink="http://www.w3.org/1999/xlink" x="0px" y="0px"
	 width="59px" height="59px" viewBox="0 0 59 59" style="enable-background:new 0 0 59 59;" xml:space="preserve">
<g>
	<polygon style="fill:#003764;" points="4.414,4.414 29.497,4.414 29.497,0 0,0 0,29.5 4.414,29.5 	"/>
	<polygon style="fill:#61B4E4;" points="4.414,54.586 4.414,29.5 0,29.5 0,59 29.504,59 29.504,54.586 	"/>
	<polygon style="fill:#0055B8;" points="54.586,29.5 54.586,54.586 29.504,54.586 29.504,59 59,59 59,29.5 	"/>
	<polygon style="fill:#009BDE;" points="29.504,0 29.504,4.414 54.586,4.414 54.586,29.5 59,29.5 59,0 	"/>
	<g>
		<path style="fill:#009BDE;" d="M29.452,18.246c4.248,0,7.146,2.502,7.146,6.19c0,2.239-1.251,4.05-3.227,4.709
			c2.602,0.658,4.182,2.667,4.182,5.433c0,4.413-3.358,7.442-8.166,7.442s-8.002-3.029-8.002-7.574v-0.493h3.622
			c0.1,3.227,1.581,4.84,4.479,4.84c2.536,0,4.149-1.58,4.149-4.115c0-2.832-2.141-3.854-4.61-3.854c-0.428,0-0.625,0-1.186,0.033
			v-2.832h0.329c2.306,0,4.742-0.362,4.742-3.325c0-2.009-1.383-3.359-3.523-3.359c-2.403,0-3.754,1.581-3.853,4.545h-3.589
			C22.077,21.144,24.908,18.246,29.452,18.246z"/>
	</g>
</g>
</svg>
