<?xml version="1.0" encoding="utf-8"?>
<!-- Generator: Adobe Illustrator 16.0.0, SVG Export Plug-In . SVG Version: 6.00 Build 0)  -->
<!DOCTYPE svg PUBLIC "-//W3C//DTD SVG 1.1//EN" "http://www.w3.org/Graphics/SVG/1.1/DTD/svg11.dtd">
<svg version="1.1" id="Шар_1" xmlns="http://www.w3.org/2000/svg" xmlns:xlink="http://www.w3.org/1999/xlink" x="0px" y="0px"
	 width="8px" height="11.206px" viewBox="0 0 8 11.206" style="enable-background:new 0 0 8 11.206;" xml:space="preserve">
<path style="fill:#1E201D;" d="M4.421,11.03l3.405-3.404c0.23-0.223,0.231-0.619,0.003-0.848c-0.232-0.232-0.609-0.232-0.841,0
	L4.6,9.167V0.595C4.6,0.267,4.333,0,4.004,0c-0.331,0-0.6,0.267-0.6,0.595v8.571L1.02,6.775C0.783,6.546,0.404,6.548,0.177,6.778
	C0.063,6.892,0,7.043,0,7.203c0,0.161,0.063,0.312,0.177,0.421l3.404,3.403c0.112,0.116,0.262,0.18,0.423,0.179
	C4.165,11.206,4.314,11.142,4.421,11.03z"/>
</svg>
