<?xml version="1.0" encoding="utf-8"?>
<!-- Generator: Adobe Illustrator 19.2.1, SVG Export Plug-In . SVG Version: 6.00 Build 0)  -->
<svg version="1.1" id="Шар_1" xmlns="http://www.w3.org/2000/svg" xmlns:xlink="http://www.w3.org/1999/xlink" x="0px" y="0px"
	 viewBox="0 0 85.3 79.3" style="enable-background:new 0 0 85.3 79.3;" xml:space="preserve">
<style type="text/css">
	.st0{fill:#00B181;stroke:#00B181;stroke-width:0.25;stroke-miterlimit:10;}
	.st1{fill:#0055B8;stroke:#0055B8;stroke-width:0.25;stroke-miterlimit:10;}
	.st2{fill:#0055B8;}
</style>
<path class="st0" d="M46.8,11.1H10.9c-0.6,0-0.9,0.3-0.9,0.9v33.1c0,0.6,0.3,0.9,0.9,0.9h35.9c0.6,0,0.9-0.3,0.9-0.9V12
	C47.6,11.5,47.3,11.1,46.8,11.1z M21,44.3h-9.3V22.6H21V44.3z M21,20.8h-9.3v-7.9H21V20.8z M45.9,44.3H22.8V22.6h23.1V44.3z
	 M45.9,20.8H22.8v-7.9h23.1V20.8z"/>
<rect x="15.5" y="26.3" class="st0" width="1.8" height="1.8"/>
<rect x="15.5" y="33.2" class="st0" width="1.8" height="1.8"/>
<rect x="15.5" y="38.8" class="st0" width="1.8" height="1.8"/>
<rect x="54.2" y="30.5" class="st0" width="21.1" height="1.8"/>
<rect x="54.2" y="37.4" class="st0" width="21.1" height="1.8"/>
<rect x="54.2" y="44.3" class="st0" width="21.1" height="1.8"/>
<path class="st0" d="M74.4,11.1H55c-0.6,0-0.9,0.3-0.9,0.9v12.4c0,0.6,0.3,0.9,0.9,0.9h19.3c0.6,0,0.9-0.3,0.9-0.9V12
	C75.3,11.5,74.9,11.1,74.4,11.1z M73.5,23.6H55.9V12.9h17.6V23.6z"/>
<g>
	<path class="st1" d="M85.1,2.9c0-1.5-1.2-2.8-2.8-2.8H2.9c-1.5,0-2.8,1.2-2.8,2.8v60.2c0,1.5,1.2,2.8,2.8,2.8h30.5v11.5H19.9
		c-0.5,0-0.9,0.4-0.9,0.9s0.4,0.9,0.9,0.9h45.4c0.5,0,0.9-0.4,0.9-0.9s-0.4-0.9-0.9-0.9H51.9V65.9h30.5c1.5,0,2.8-1.2,2.8-2.8V2.9z
		 M50.1,77.4h-15V65.9h15V77.4z M83.4,63.1c0,0.6-0.5,1-1,1H2.9c-0.6,0-1-0.5-1-1V2.9c0-0.6,0.5-1,1-1h79.5c0.6,0,1,0.5,1,1V63.1z"
		/>
</g>
<path class="st2" d="M78.6,53H6.7c-0.5,0-0.9,0.4-0.9,0.9c0,0.5,0.4,0.9,0.9,0.9h71.9c0.5,0,0.9-0.4,0.9-0.9
	C79.4,53.4,79.1,53,78.6,53z"/>
</svg>
