<?xml version="1.0" encoding="utf-8"?>
<!-- Generator: Adobe Illustrator 16.0.0, SVG Export Plug-In . SVG Version: 6.00 Build 0)  -->
<!DOCTYPE svg PUBLIC "-//W3C//DTD SVG 1.1//EN" "http://www.w3.org/Graphics/SVG/1.1/DTD/svg11.dtd">
<svg version="1.1" id="Шар_1" xmlns="http://www.w3.org/2000/svg" xmlns:xlink="http://www.w3.org/1999/xlink" x="0px" y="0px"
	 width="98px" height="98px" viewBox="0 0 98 98" enable-background="new 0 0 98 98" xml:space="preserve">
<g>
	<g>
		<path fill="#FFFFFF" d="M49,98C21.981,98,0,76.02,0,49C0,21.981,21.981,0,49,0c27.02,0,49,21.981,49,49C98,76.02,76.02,98,49,98z
			 M49,2C23.084,2,2,23.084,2,49s21.084,47,47,47s47-21.084,47-47S74.916,2,49,2z"/>
	</g>
	<path fill="#FFFFFF" d="M36.5,34.24c0-3.85,2.629-5.266,5.844-3.146l21.312,14.053c3.215,2.119,3.215,5.587,0,7.707L42.344,66.906
		c-3.215,2.119-5.844,0.703-5.844-3.146V34.24z"/>
</g>
</svg>
