<?xml version="1.0" encoding="utf-8"?>
<!-- Generated by IcoMoon.io -->
<!DOCTYPE svg PUBLIC "-//W3C//DTD SVG 1.1//EN" "http://www.w3.org/Graphics/SVG/1.1/DTD/svg11.dtd">
<svg version="1.1" xmlns="http://www.w3.org/2000/svg" xmlns:xlink="http://www.w3.org/1999/xlink" width="32" height="32" viewBox="0 0 32 32">
<path fill="#c0e4fa" d="M16.445 24.901l0.127-20.36 4.503 5.772 10.719 2.79-7.23 7.104 0.951 9.894-9.069-5.201z"></path>
<path fill="#c0e4fa" d="M16.762 24.837l0.063-20.677-4.313 5.772-10.972 2.855 7.357 7.231-0.951 10.147 8.816-5.328z"></path>
<path fill="#009bde" d="M12.159 11.493c-0.227 0-0.458-0.053-0.673-0.165-0.718-0.373-0.999-1.257-0.626-1.975l4.44-8.563c0.251-0.486 0.753-0.791 1.3-0.791 0.001 0 0.001 0 0.003 0 0.547 0.001 1.050 0.307 1.3 0.794l4.376 8.5c0.371 0.719 0.088 1.603-0.632 1.973s-1.603 0.087-1.973-0.632l-3.078-5.979-3.135 6.045c-0.261 0.502-0.772 0.791-1.302 0.791z"></path>
<path fill="#0055b8" d="M8.728 21.451c-0.384 0-0.767-0.149-1.054-0.447l-7.262-7.518c-0.368-0.382-0.502-0.933-0.349-1.441s0.569-0.893 1.087-1.008l10.329-2.28c0.79-0.172 1.572 0.325 1.747 1.115s-0.325 1.572-1.115 1.747l-7.772 1.715 5.442 5.634c0.562 0.582 0.546 1.51-0.036 2.072-0.284 0.275-0.651 0.411-1.017 0.411z"></path>
<path fill="#0055b8" d="M6.825 31.662c-0.312 0-0.623-0.099-0.881-0.294-0.444-0.335-0.661-0.893-0.559-1.439l1.903-10.212c0.148-0.795 0.913-1.317 1.709-1.172 0.795 0.148 1.32 0.913 1.171 1.709l-1.363 7.312 7.207-3.61c0.724-0.362 1.603-0.070 1.966 0.653s0.069 1.604-0.654 1.966l-9.842 4.931c-0.208 0.104-0.433 0.155-0.656 0.155z"></path>
<path fill="#003764" d="M26.089 32c-0.246 0-0.492-0.061-0.715-0.186l-9.422-5.268c-0.706-0.395-0.959-1.288-0.564-1.994s1.287-0.959 1.994-0.564l6.742 3.771-1.294-7.523c-0.082-0.479 0.078-0.966 0.426-1.303l2.924-2.822c0.584-0.562 1.511-0.545 2.072 0.037s0.546 1.51-0.037 2.072l-2.366 2.284 1.682 9.785c0.095 0.557-0.137 1.119-0.597 1.444-0.253 0.178-0.549 0.269-0.846 0.269z"></path>
<path fill="#102539" d="M29.145 4.743l0.945 0.846-8.988 10.039-0.945-0.846 8.988-10.039z"></path>
<path fill="#102539" d="M22.473 9.796c-1.35 0-2.438-1.058-2.476-2.408-0.019-0.662 0.221-1.291 0.677-1.772 0.454-0.481 1.069-0.756 1.73-0.774l0.069-0.001c1.351 0 2.439 1.058 2.477 2.409 0.019 0.661-0.221 1.29-0.677 1.772-0.454 0.481-1.069 0.755-1.731 0.774l-0.070 0.001z"></path>
<path fill="#c0e4fa" d="M22.474 6.11c-0.357 0.009-0.656 0.143-0.878 0.378-0.223 0.234-0.34 0.541-0.33 0.864 0.017 0.66 0.549 1.176 1.208 1.176l0.035-0.001c0.324-0.009 0.623-0.143 0.845-0.377s0.339-0.541 0.33-0.864c-0.018-0.66-0.55-1.176-1.209-1.176z"></path>
<path fill="#102539" d="M28.007 15.637c-1.35 0-2.438-1.058-2.476-2.408-0.018-0.661 0.221-1.29 0.677-1.772 0.454-0.481 1.069-0.756 1.73-0.774l0.069-0.001c1.352 0 2.439 1.058 2.477 2.409 0.019 0.661-0.222 1.29-0.677 1.772s-1.070 0.755-1.731 0.774l-0.070 0.001z"></path>
<path fill="#c0e4fa" d="M28.008 11.951c-0.357 0.009-0.656 0.143-0.878 0.378-0.223 0.234-0.34 0.541-0.33 0.864 0.017 0.66 0.549 1.176 1.207 1.176l0.036-0.001c0.323-0.009 0.623-0.143 0.844-0.377s0.339-0.541 0.33-0.864c-0.019-0.66-0.55-1.176-1.209-1.176z"></path>
</svg>
