<?xml version="1.0" encoding="utf-8"?>
<!-- Generator: Adobe Illustrator 16.0.0, SVG Export Plug-In . SVG Version: 6.00 Build 0)  -->
<!DOCTYPE svg PUBLIC "-//W3C//DTD SVG 1.1//EN" "http://www.w3.org/Graphics/SVG/1.1/DTD/svg11.dtd">
<svg version="1.1" id="Шар_1" xmlns="http://www.w3.org/2000/svg" xmlns:xlink="http://www.w3.org/1999/xlink" x="0px" y="0px"
	 width="42.362px" height="42.894px" viewBox="-89.956 1374.219 42.362 42.894"
	 enable-background="new -89.956 1374.219 42.362 42.894" xml:space="preserve">
<g>
	<path fill="#00B181" d="M-49.433,1388.285l-18.752-13.874c-0.344-0.255-0.838-0.255-1.181,0l-18.752,13.874
		c-0.657,0.486-0.927,1.334-0.671,2.111c0.256,0.776,0.978,1.298,1.795,1.298h1.219l-0.032,0.242
		c-0.005,0.042-0.009,0.084-0.009,0.128v19.195h-0.877c-0.548,0-0.994,0.445-0.994,0.993c0,0.549,0.446,0.994,0.994,0.994h35.835
		c0.548,0,0.994-0.445,0.994-0.994c0-0.548-0.446-0.993-0.994-0.993h-0.877v-19.195c0-0.044-0.003-0.086-0.009-0.128l-0.032-0.242
		h1.219c0.818,0,1.539-0.521,1.795-1.298C-48.506,1389.619-48.775,1388.771-49.433,1388.285z M-81.231,1411.259h-2.597v-18.202
		h2.597V1411.259z M-76.637,1391.934c-0.005,0.043-0.009,0.086-0.009,0.13v19.195h-2.598v-19.195c0-0.044-0.004-0.086-0.01-0.128
		l-0.032-0.242h2.678L-76.637,1391.934z M-72.062,1411.259h-2.597v-18.202h2.597V1411.259z M-67.467,1391.936
		c-0.005,0.042-0.009,0.084-0.009,0.128v19.195h-2.598v-19.195c0-0.044-0.004-0.086-0.009-0.128l-0.032-0.242h2.68L-67.467,1391.936
		z M-62.892,1411.259h-2.598v-18.202h2.598V1411.259z M-58.297,1391.936c-0.005,0.042-0.01,0.084-0.01,0.128v19.195h-2.598v-19.195
		c0-0.044-0.004-0.087-0.009-0.13l-0.03-0.24h2.678L-58.297,1391.936z M-53.722,1411.259h-2.597v-18.202h2.597V1411.259z
		 M-86.699,1389.706l17.924-13.26l0.127,0.094l17.797,13.166H-86.699z"/>
	<path fill="#00B181" d="M-48.588,1415.125h-40.375c-0.548,0-0.994,0.445-0.994,0.993c0,0.549,0.446,0.994,0.994,0.994h40.375
		c0.548,0,0.994-0.445,0.994-0.994C-47.594,1415.571-48.04,1415.125-48.588,1415.125z"/>
</g>
</svg>
