<?xml version="1.0" encoding="utf-8"?>
<!-- Generator: Adobe Illustrator 16.0.0, SVG Export Plug-In . SVG Version: 6.00 Build 0)  -->
<!DOCTYPE svg PUBLIC "-//W3C//DTD SVG 1.1//EN" "http://www.w3.org/Graphics/SVG/1.1/DTD/svg11.dtd">
<svg version="1.1" id="Capa_1" xmlns="http://www.w3.org/2000/svg" xmlns:xlink="http://www.w3.org/1999/xlink" x="0px" y="0px"
	 width="61.997px" height="55.101px" viewBox="-224.692 274.075 61.997 55.101"
	 enable-background="new -224.692 274.075 61.997 55.101" xml:space="preserve">
<g>
	<path fill="#19AC80" d="M-198.203,312.93c-0.04-0.39-0.303-0.712-0.671-0.82l-6.954-2.104c-0.676-0.203-1.413-0.307-2.191-0.307
		c-2.514,0-4.73,1.047-5.156,1.26l-0.05,0.021l-0.017,0.018l-6.736,4.065c-0.218,0.13-0.371,0.337-0.432,0.584
		c-0.061,0.246-0.022,0.502,0.109,0.723c0.177,0.286,0.481,0.456,0.813,0.456c0.161,0,0.325-0.045,0.486-0.133l0.003-0.001
		l6.707-4.036h0.001c0.021-0.011,2.038-1.054,4.255-1.054c0.596,0,1.156,0.077,1.663,0.23l6.21,1.883v0.001
		c-0.01,0.052-0.032,0.107-0.039,0.124l-0.001,0.004c-0.167,0.451-0.504,0.702-1.061,0.79c-0.766,0.121-1.802,0.184-3.081,0.184
		c-0.739,0-1.569-0.021-2.336-0.063l-0.045-0.002c-0.524-0.029-0.968,0.37-0.999,0.885c-0.015,0.254,0.068,0.496,0.236,0.687
		c0.167,0.19,0.398,0.303,0.649,0.318l0.026,0.002c0.354,0.02,1.302,0.066,2.437,0.066c1.396,0,2.545-0.07,3.414-0.211
		C-198.721,316.142-198.084,314.169-198.203,312.93z"/>
	<g>
		<path fill="#19AC80" d="M-183.515,289.899c-0.01-0.46-0.386-0.832-0.848-0.832c0,0,0,0-0.001,0l0,0h-26.962
			c-0.469,0-0.85,0.382-0.85,0.85v3.238h-1.196c-0.469,0-0.851,0.382-0.851,0.85v3.362h-2.545c-0.469,0-0.85,0.381-0.85,0.85v14.093
			c0,0.451,0.356,0.819,0.802,0.845l2.81-1.695h-1.912v-12.392h26.568v12.392h-11.677l2.154,0.652
			c0.368,0.109,0.631,0.432,0.671,0.82c0.007,0.072,0.011,0.148,0.012,0.228h9.69c0.469,0,0.85-0.381,0.85-0.85v-14.093
			c0-0.469-0.381-0.85-0.85-0.85h-24.022v-2.512h25.263v14.369c0,0.469,0.381,0.85,0.85,0.85c0.469,0,0.85-0.381,0.85-0.85v-2.279
			h1.195l0,0h0.001c0.462,0,0.838-0.371,0.848-0.832c0-0.006,0.002-0.011,0.002-0.019l0,0v-16.179l0,0
			C-183.513,289.91-183.515,289.905-183.515,289.899z M-186.41,293.155h-24.065v-2.388h25.262v14.479h-0.346v-11.241
			C-185.561,293.536-185.942,293.155-186.41,293.155z"/>
		<path fill="#19AC80" d="M-196.872,305.208c0-2.601-2.116-4.717-4.717-4.717s-4.718,2.116-4.718,4.717
			c0,2.602,2.117,4.717,4.718,4.717S-196.872,307.809-196.872,305.208z M-201.588,308.01c-1.545,0-2.802-1.258-2.802-2.803
			s1.257-2.803,2.802-2.803s2.802,1.258,2.802,2.803S-200.043,308.01-201.588,308.01z"/>
	</g>
	<path fill="#19AC80" d="M-172.361,296.505c-2.582,0-5.009-1.006-6.835-2.831c-1.826-1.824-2.831-4.253-2.831-6.835
		s1.005-5.01,2.831-6.835c1.826-1.824,4.253-2.831,6.835-2.831s5.009,1.007,6.835,2.831c1.826,1.825,2.831,4.253,2.831,6.835
		s-1.005,5.011-2.831,6.835C-167.352,295.499-169.779,296.505-172.361,296.505z M-172.361,279.082c-4.278,0-7.758,3.48-7.758,7.758
		c0,4.278,3.48,7.759,7.758,7.759c4.277,0,7.758-3.48,7.758-7.759C-164.603,282.562-168.084,279.082-172.361,279.082z"/>
	<g>
		<path fill="#19AC80" d="M-172.019,296.498c0.338,1.657,0.521,3.371,0.521,5.127c0,14.141-11.503,25.644-25.642,25.644
			c-14.14,0-25.643-11.503-25.643-25.644c0-14.139,11.503-25.642,25.643-25.642c6.248,0,11.98,2.247,16.434,5.976
			c0.322-0.549,0.7-1.067,1.131-1.551c-2.066-1.715-4.355-3.116-6.841-4.168c-3.397-1.438-7.005-2.165-10.724-2.165
			c-3.719,0-7.327,0.729-10.725,2.165c-3.281,1.388-6.227,3.374-8.757,5.904c-2.53,2.528-4.516,5.477-5.904,8.757
			c-1.437,3.396-2.166,7.005-2.166,10.724c0,3.72,0.729,7.327,2.166,10.726c1.388,3.28,3.374,6.227,5.904,8.757
			c2.53,2.529,5.476,4.517,8.757,5.903c3.397,1.438,7.005,2.165,10.725,2.165c3.719,0,7.327-0.729,10.724-2.165
			c3.281-1.388,6.228-3.374,8.757-5.903c2.529-2.53,4.516-5.477,5.904-8.757c1.437-3.397,2.166-7.006,2.166-10.726
			c0-1.824-0.178-3.622-0.527-5.382C-170.735,296.389-171.372,296.474-172.019,296.498z"/>
	</g>
	<path fill="#19AC80" d="M-167.553,283.818c-0.178-0.178-0.414-0.275-0.665-0.275s-0.487,0.099-0.665,0.275l-4.86,4.858
		l-2.098-2.098c-0.177-0.178-0.414-0.274-0.665-0.274s-0.487,0.098-0.665,0.274c-0.178,0.178-0.275,0.414-0.275,0.665
		c0,0.252,0.098,0.487,0.275,0.665l2.763,2.763c0.177,0.179,0.413,0.275,0.665,0.275c0.25,0,0.487-0.098,0.665-0.275l5.525-5.523
		c0.178-0.178,0.275-0.414,0.275-0.666C-167.277,284.232-167.375,283.995-167.553,283.818z"/>
	<g>
		<path fill="#19AC80" d="M-182.675,310.243c-0.465-0.851-1.553-1.842-3.089-1.842c-0.559,0-1.143,0.133-1.735,0.395
			c-0.049,0.022-0.1,0.045-0.151,0.067v2.077c0.346-0.158,0.653-0.297,0.918-0.414c0.347-0.155,0.659-0.231,0.953-0.231
			c0.288,0,0.56,0.077,0.807,0.229l0.01,0.006c0.005,0.003,0.01,0.006,0.013,0.008l0.01,0.008l0.013,0.006l-2.772,2.031
			c-0.113,0.329-0.419,0.568-0.785,0.575l-9.346,6.847c-0.727,0.533-1.628,0.826-2.539,0.826c-0.222,0-0.443-0.018-0.657-0.051
			l-11.511-1.835c-0.047-0.007-0.095-0.011-0.143-0.011c-0.225,0-0.443,0.075-0.614,0.217l-1.639,1.481
			c-0.193,0.16-0.313,0.388-0.335,0.638c-0.023,0.254,0.054,0.501,0.22,0.696c0.185,0.217,0.449,0.34,0.726,0.34
			c0.223,0,0.434-0.077,0.609-0.223l1.31-1.203l11.085,1.771c0.315,0.051,0.639,0.077,0.962,0.077c1.306,0,2.605-0.423,3.657-1.192
			l13.762-10.076l0.003-0.002C-182.558,311.168-182.449,310.657-182.675,310.243z"/>
	</g>
</g>
</svg>
