<?xml version="1.0" encoding="utf-8"?>
<!-- Generator: Adobe Illustrator 16.0.0, SVG Export Plug-In . SVG Version: 6.00 Build 0)  -->
<!DOCTYPE svg PUBLIC "-//W3C//DTD SVG 1.1//EN" "http://www.w3.org/Graphics/SVG/1.1/DTD/svg11.dtd">
<svg version="1.1" id="Layer_1" xmlns="http://www.w3.org/2000/svg" xmlns:xlink="http://www.w3.org/1999/xlink" x="0px" y="0px"
	 width="32.003px" height="26.657px" viewBox="-257.051 614.121 32.003 26.657"
	 enable-background="new -257.051 614.121 32.003 26.657" xml:space="preserve">
<g>
	<path fill="#FFFFFF" d="M-227.511,618.109h-5.64v-3.076c0-0.503-0.409-0.913-0.912-0.913h-13.972c-0.503,0-0.913,0.41-0.913,0.913
		v3.076h-5.639c0,0,0,0,0,0c-0.657,0-1.276,0.257-1.742,0.723s-0.722,1.084-0.722,1.742v10.639c0,1.358,1.105,2.464,2.464,2.464
		h5.639v6.189c0,0.503,0.41,0.912,0.913,0.912h13.972c0.503,0,0.912-0.409,0.912-0.912v-6.189h5.64c1.358,0,2.464-1.105,2.464-2.464
		v-10.639C-225.047,619.215-226.153,618.109-227.511,618.109z M-234.976,638.953h-12.146v-8.312h12.146V638.953z M-250.053,621.316
		v-1.382h1.105v1.382H-250.053z M-247.123,621.316v-5.371h12.146v5.371H-247.123z M-233.151,621.316v-1.381h1.105v1.381H-233.151z
		 M-233.151,630.641h0.975c0.504,0,0.913-0.409,0.913-0.913c0-0.503-0.409-0.912-0.913-0.912h-17.746
		c-0.503,0-0.912,0.409-0.912,0.912c0,0.504,0.409,0.913,0.912,0.913h0.975v1.21h-5.639c-0.353,0-0.64-0.286-0.64-0.639v-10.639
		c0-0.353,0.287-0.639,0.64-0.639h2.708v2.294c0,0.503,0.409,0.913,0.913,0.913h19.833c0.503,0,0.912-0.409,0.912-0.913v-2.294
		h2.709c0.353,0,0.639,0.287,0.639,0.639v10.639c0,0.353-0.286,0.639-0.639,0.639h-5.64V630.641z"/>
	<circle fill="#FFFFFF" cx="-252.572" cy="625.188" r="1.082"/>
	<path fill="#FFFFFF" d="M-244.363,637.06h3.12c0.503,0,0.913-0.409,0.913-0.912c0-0.504-0.409-0.913-0.913-0.913h-3.12
		c-0.503,0-0.912,0.409-0.912,0.913C-245.275,636.651-244.866,637.06-244.363,637.06z"/>
	<path fill="#FFFFFF" d="M-244.363,633.676h6.627c0.503,0,0.912-0.409,0.912-0.912c0-0.504-0.408-0.913-0.912-0.913h-6.627
		c-0.503,0-0.912,0.409-0.912,0.913C-245.275,633.267-244.866,633.676-244.363,633.676z"/>
</g>
</svg>
