<?xml version="1.0" encoding="utf-8"?>
<!-- Generator: Adobe Illustrator 16.0.0, SVG Export Plug-In . SVG Version: 6.00 Build 0)  -->
<!DOCTYPE svg PUBLIC "-//W3C//DTD SVG 1.1//EN" "http://www.w3.org/Graphics/SVG/1.1/DTD/svg11.dtd">
<svg version="1.1" id="Шар_1" xmlns="http://www.w3.org/2000/svg" xmlns:xlink="http://www.w3.org/1999/xlink" x="0px" y="0px"
	 width="66px" height="66px" viewBox="0 0 66 66" enable-background="new 0 0 66 66" xml:space="preserve">
<g>
	<g>
		<path fill="#1D1D1B" d="M33,3c16.542,0,30,13.458,30,30c0,16.542-13.458,30-30,30S3,49.542,3,33C3,16.458,16.458,3,33,3 M33,1
			C15.327,1,1,15.326,1,33c0,17.672,14.327,32,32,32c17.673,0,32-14.328,32-32C65,15.326,50.673,1,33,1L33,1z"/>
	</g>
	<g>
		<rect x="31.689" y="16.209" transform="matrix(0.707 0.7072 -0.7072 0.707 33.0059 -13.6689)" width="2.621" height="33.582"/>
		<rect x="31.69" y="16.208" transform="matrix(-0.7074 0.7068 -0.7068 -0.7074 79.6682 33.0164)" width="2.62" height="33.582"/>
		<rect x="31.69" y="31.688" transform="matrix(-0.7068 -0.7074 0.7074 -0.7068 32.9829 79.6657)" width="2.621" height="2.621"/>
	</g>
</g>
</svg>
