<?xml version="1.0" encoding="utf-8"?>
<!-- Generator: Adobe Illustrator 16.0.0, SVG Export Plug-In . SVG Version: 6.00 Build 0)  -->
<!DOCTYPE svg PUBLIC "-//W3C//DTD SVG 1.1//EN" "http://www.w3.org/Graphics/SVG/1.1/DTD/svg11.dtd">
<svg version="1.1" id="Шар_1" xmlns="http://www.w3.org/2000/svg" xmlns:xlink="http://www.w3.org/1999/xlink" x="0px" y="0px"
	 width="59.934px" height="60px" viewBox="0 0 59.934 60" enable-background="new 0 0 59.934 60" xml:space="preserve">
<polygon points="26.796,39.967 55.969,10.797 54.312,9.142 26.796,36.674 16.879,26.753 15.234,28.406 "/>
<path d="M57.521,32c-1.027,14.285-12.979,25.594-27.523,25.594c-15.213,0-27.59-12.379-27.59-27.593
	c0-15.215,12.377-27.593,27.59-27.593c2.289,0,4.365,0.232,6.442,0.727l1.94-1.945C35.354,0.391,32.59,0,29.999,0
	C13.458,0,0,13.458,0,30.001c0,16.542,13.458,30,29.999,30C45.869,60,58.9,47.614,59.934,32H57.521z"/>
</svg>
