<?xml version="1.0" encoding="utf-8"?>
<!-- Generator: Adobe Illustrator 16.0.0, SVG Export Plug-In . SVG Version: 6.00 Build 0)  -->
<!DOCTYPE svg PUBLIC "-//W3C//DTD SVG 1.1//EN" "http://www.w3.org/Graphics/SVG/1.1/DTD/svg11.dtd">
<svg version="1.1" id="Шар_1" xmlns="http://www.w3.org/2000/svg" xmlns:xlink="http://www.w3.org/1999/xlink" x="0px" y="0px"
	 width="23px" height="23.008px" viewBox="0 0 23 23.008" enable-background="new 0 0 23 23.008" xml:space="preserve">
<g>
	<path fill-rule="evenodd" clip-rule="evenodd" fill="none" d="M23,11.398c-0.019,1.771-0.013,3.478-0.083,5.191
		c-0.151,3.605-2.645,6.139-6.246,6.314c-2.978,0.146-5.956,0.104-8.932,0.076c-1.198-0.012-2.411-0.064-3.558-0.506
		c-2.336-0.9-3.602-2.629-3.976-5.072c-0.15-0.975-0.145-1.957-0.168-2.938c-0.047-1.995-0.051-3.992,0-5.987
		C0.07,7.167,0.034,5.84,0.434,4.567c0.812-2.585,2.62-3.983,5.264-4.373c0.943-0.139,1.897-0.146,2.844-0.16
		c2.644-0.041,5.29-0.073,7.934,0.077c2.191,0.123,4.088,0.851,5.361,2.761c0.703,1.057,0.975,2.251,1.07,3.505
		C23.038,8.069,22.976,9.764,23,11.398z M21.038,11.519c-0.055-1.727,0.043-3.453-0.102-5.179c-0.201-2.417-1.491-3.849-3.887-4.184
		C16.282,2.051,15.503,2.008,14.728,2c-2.169-0.021-4.341-0.039-6.511,0.007C7.145,2.029,6.06,2.017,5.015,2.352
		c-1.372,0.44-2.259,1.347-2.679,2.726c-0.304,1-0.31,2.037-0.328,3.061c-0.042,2.233-0.031,4.469-0.001,6.702
		c0.012,0.838,0.039,1.68,0.177,2.51c0.314,1.883,1.586,3.162,3.474,3.471c0.767,0.127,1.542,0.178,2.318,0.184
		c2.108,0.02,4.215,0.014,6.322,0.012c0.824,0,1.646-0.006,2.469-0.09c2.568-0.264,3.967-1.711,4.172-4.275
		C21.076,14.939,20.983,13.228,21.038,11.519z"/>
	<path fill-rule="evenodd" clip-rule="evenodd" d="M17.633,4.032c-0.716,0.007-1.292,0.624-1.278,1.365
		c0.016,0.729,0.627,1.325,1.344,1.311c0.688-0.013,1.299-0.639,1.295-1.322C18.985,4.642,18.366,4.023,17.633,4.032z"/>
	<path fill-rule="evenodd" clip-rule="evenodd" d="M22.907,6.377c-0.096-1.254-0.367-2.448-1.07-3.505
		c-1.273-1.91-3.17-2.638-5.361-2.761c-2.645-0.15-5.29-0.118-7.934-0.077c-0.947,0.015-1.901,0.021-2.844,0.16
		c-2.644,0.39-4.452,1.788-5.264,4.373c-0.4,1.272-0.363,2.6-0.397,3.91c-0.051,1.995-0.047,3.992,0,5.987
		c0.023,0.98,0.018,1.963,0.168,2.938c0.374,2.443,1.64,4.172,3.976,5.072c1.147,0.441,2.36,0.494,3.558,0.506
		c2.977,0.027,5.955,0.07,8.932-0.076c3.602-0.176,6.095-2.709,6.246-6.314c0.07-1.713,0.064-3.42,0.083-5.191
		C22.976,9.764,23.038,8.069,22.907,6.377z M20.938,16.65c-0.205,2.564-1.604,4.012-4.172,4.275c-0.822,0.084-1.645,0.09-2.469,0.09
		c-2.107,0.002-4.214,0.008-6.322-0.012C7.2,20.998,6.425,20.947,5.658,20.82c-1.887-0.309-3.159-1.588-3.474-3.471
		c-0.138-0.83-0.166-1.672-0.177-2.51c-0.03-2.233-0.041-4.468,0.001-6.702c0.019-1.023,0.024-2.061,0.328-3.061
		c0.42-1.379,1.307-2.285,2.679-2.726c1.045-0.335,2.13-0.322,3.202-0.345c2.17-0.046,4.342-0.027,6.511-0.007
		c0.775,0.008,1.555,0.051,2.322,0.156c2.396,0.335,3.686,1.767,3.887,4.184c0.145,1.726,0.047,3.452,0.102,5.179
		C20.983,13.228,21.076,14.939,20.938,16.65z"/>
	<path fill-rule="evenodd" clip-rule="evenodd" fill="none" d="M17.385,11.493c-0.005,3.282-2.644,5.897-5.945,5.887
		c-3.134-0.006-5.823-2.715-5.81-5.848c0.015-3.244,2.699-5.924,5.914-5.902C14.741,5.651,17.39,8.31,17.385,11.493z M15.416,11.508
		c-0.003-2.15-1.763-3.916-3.892-3.91c-2.138,0.01-3.937,1.798-3.923,3.9c0.014,2.212,1.747,3.914,3.985,3.912
		C13.706,15.408,15.419,13.66,15.416,11.508z"/>
	<path fill-rule="evenodd" clip-rule="evenodd" fill="none" d="M18.993,5.386c0.004,0.684-0.607,1.31-1.295,1.322
		c-0.717,0.015-1.328-0.582-1.344-1.311c-0.014-0.741,0.562-1.358,1.278-1.365C18.366,4.023,18.985,4.642,18.993,5.386z"/>
	<path fill-rule="evenodd" clip-rule="evenodd" d="M11.544,5.63C8.329,5.608,5.645,8.288,5.63,11.532
		c-0.014,3.133,2.676,5.842,5.81,5.848c3.302,0.01,5.94-2.605,5.945-5.887C17.39,8.31,14.741,5.651,11.544,5.63z M11.585,15.41
		c-2.238,0.002-3.971-1.699-3.985-3.912c-0.014-2.103,1.785-3.891,3.923-3.9c2.129-0.006,3.889,1.76,3.892,3.91
		C15.419,13.66,13.706,15.408,11.585,15.41z"/>
</g>
</svg>
