<?xml version="1.0" encoding="utf-8"?>
<!-- Generator: Adobe Illustrator 16.0.0, SVG Export Plug-In . SVG Version: 6.00 Build 0)  -->
<!DOCTYPE svg PUBLIC "-//W3C//DTD SVG 1.1//EN" "http://www.w3.org/Graphics/SVG/1.1/DTD/svg11.dtd">
<svg version="1.1" id="Шар_1" xmlns="http://www.w3.org/2000/svg" xmlns:xlink="http://www.w3.org/1999/xlink" x="0px" y="0px"
	 width="81px" height="97.052px" viewBox="0 0 81 97.052" style="enable-background:new 0 0 81 97.052;" xml:space="preserve">
<g>
	<path style="fill:#2999D5;" d="M1.996,97.052h56.515c1.1,0,1.995-0.896,1.995-1.996v-17.03c0-1.101-0.896-1.997-1.995-1.997
		c-1.101,0-1.997,0.896-1.997,1.997V93.06H3.992V3.992h52.521v15.035c0,1.1,0.896,1.995,1.997,1.995c1.1,0,1.995-0.896,1.995-1.995
		V1.996C60.506,0.896,59.61,0,58.511,0H1.996C0.896,0,0,0.896,0,1.996v93.06C0,96.156,0.896,97.052,1.996,97.052z"/>
	<path style="fill:#2999D5;" d="M65.032,65.32L80.42,49.936c0.36-0.364,0.58-0.893,0.58-1.409c0-0.518-0.22-1.047-0.586-1.415
		L65.029,31.729c-0.301-0.301-0.842-0.487-1.411-0.487c-0.566,0-1.104,0.185-1.404,0.481c-0.778,0.771-0.786,2.035-0.019,2.816
		l11.794,11.99H30.482c-1.1,0-1.995,0.896-1.995,1.997c0,1.1,0.896,1.995,1.995,1.995h43.704l-11.979,11.98
		c-0.777,0.777-0.777,2.043,0.002,2.821C62.969,66.083,64.261,66.089,65.032,65.32z"/>
</g>
</svg>
