<?xml version="1.0" encoding="utf-8"?>
<!-- Generator: Adobe Illustrator 16.0.0, SVG Export Plug-In . SVG Version: 6.00 Build 0)  -->
<!DOCTYPE svg PUBLIC "-//W3C//DTD SVG 1.1//EN" "http://www.w3.org/Graphics/SVG/1.1/DTD/svg11.dtd">
<svg version="1.1" id="Шар_1" xmlns="http://www.w3.org/2000/svg" xmlns:xlink="http://www.w3.org/1999/xlink" x="0px" y="0px"
	 width="14px" height="16.609px" viewBox="0 0 14 16.609" enable-background="new 0 0 14 16.609" xml:space="preserve">
<path fill="#FFFFFF" d="M9.928,4.25c0.408,0,0.74-0.333,0.74-0.741V0.741C10.668,0.332,10.336,0,9.928,0H0.741
	C0.332,0,0,0.332,0,0.741v15.128c0,0.408,0.332,0.74,0.741,0.74h9.187c0.408,0,0.74-0.332,0.74-0.74V13.1
	c0-0.408-0.332-0.74-0.74-0.74s-0.74,0.332-0.74,0.74v2.027H1.481V1.481h7.707v2.027C9.188,3.917,9.52,4.25,9.928,4.25z"/>
<path fill="#FFFFFF" d="M4.631,8.305c0,0.194,0.079,0.385,0.217,0.522l2.501,2.501c0.14,0.141,0.326,0.217,0.524,0.217
	c0.197,0,0.382-0.076,0.523-0.216c0.287-0.289,0.287-0.76,0-1.048L7.158,9.045h6.101C13.668,9.045,14,8.713,14,8.305
	c0-0.408-0.332-0.741-0.741-0.741H7.181L8.4,6.323c0.285-0.29,0.282-0.76-0.006-1.045C8.126,5.012,7.617,5.012,7.349,5.28
	L4.848,7.781C4.71,7.919,4.631,8.11,4.631,8.305z"/>
</svg>
