<?xml version="1.0" encoding="utf-8"?>
<!-- Generator: Adobe Illustrator 19.2.1, SVG Export Plug-In . SVG Version: 6.00 Build 0)  -->
<svg version="1.1" id="Шар_1" xmlns="http://www.w3.org/2000/svg" xmlns:xlink="http://www.w3.org/1999/xlink" x="0px" y="0px"
	 viewBox="0 0 79.5 85.4" style="enable-background:new 0 0 79.5 85.4;" xml:space="preserve">
<style type="text/css">
	.st0{fill:#0055B8;}
	.st1{fill:#00B181;}
</style>
<path class="st0" d="M57.8,43.8c-2.6,0-4.7,2.1-4.7,4.7c0,2.6,2.1,4.7,4.7,4.7c2.6,0,4.7-2.1,4.7-4.7C62.6,45.9,60.4,43.8,57.8,43.8
	z M57.8,50.9c-1.3,0-2.4-1.1-2.4-2.4c0-1.3,1.1-2.4,2.4-2.4s2.4,1.1,2.4,2.4C60.3,49.8,59.2,50.9,57.8,50.9z"/>
<g>
	<g>
		<path class="st0" d="M62.9,71.4L62.9,71.4c3.9-3.3,5.8-5.4,7.3-10.6l0-0.1l0.1,0l6.7-1c0.5-0.1,0.9-0.5,1-1l1.5-10.6
			c0-0.3-0.1-0.7-0.3-0.9c-0.2-0.2-0.5-0.4-0.8-0.4l-0.1,0l-6.7,0.2l0-0.2c-1.6-5.6-4.5-9.7-8.8-12.3l-0.1-0.1l0-0.1
			c-0.1-1,0-3.9,2.6-9.3c0.2-0.3,0.2-0.7,0-1c-0.1-0.3-0.4-0.5-0.7-0.6c-0.7-0.2-1.4-0.3-2.2-0.3c-5.2,0-9.9,4.4-11.6,6.3l-0.1,0.1
			l-0.1,0c-3.6-0.9-7.2-1.1-10.1-1.3c-0.6,0-1.2,0-1.8,0c-14.3,0-25.7,7.3-29.9,19.1l-0.1,0.2l-0.2,0c-2.6-0.6-5.5-3.1-6.6-4.3
			c-0.3-0.3-0.8-0.4-1.2-0.3c-0.4,0.2-0.7,0.5-0.8,1c-0.2,3.7,0.6,6.6,2.5,8.6c1.6,1.7,3.7,2.4,5.1,2.6l0.1,0l0,0.1
			c1.6,8.6,5.5,14.9,11.4,18.2l0.1,0.1l0,0.1c0.1,1.8,0.3,6.8,0.4,10.8c0,0.6,0.5,1.1,1.1,1.1h10.9c0.5,0,1-0.4,1.1-0.9l1.3-5.7
			l0.2,0c2.2,0.5,3.7,0.7,6.2,0.7c3.7,0,5.2-0.5,7.7-1.4l0.5-0.2l1.3,6.5c0.1,0.5,0.6,0.9,1.1,0.9h10.6c0.6,0,1.1-0.5,1.1-1.1V71.4z
			 M61,70c-0.3,0.2-0.4,0.5-0.4,0.9v12.3h-8.5l-1.3-6.8c-0.1-0.3-0.3-0.6-0.5-0.8c-0.3-0.2-0.6-0.2-0.9-0.1
			c-0.6,0.2-1.2,0.4-1.7,0.6c-2.4,0.8-3.6,1.3-7,1.3c-2.9,0-4.2-0.3-6.9-0.9l-0.2,0c-0.3-0.1-0.6,0-0.9,0.1
			c-0.3,0.2-0.4,0.4-0.5,0.7l-1.3,5.9h-8.8l0-0.2c-0.3-10.9-0.4-10.9-1.1-11.3c-5.9-3-9.6-9-11-17.9c-0.1-0.6-0.6-1-1.1-1
			c0,0-2.7,0-4.5-2c-0.9-1-1.5-2.2-1.8-3.8l-0.1-0.5l0.4,0.3c1.7,1.4,4.3,3,6.8,3c0.5,0,1-0.3,1.1-0.8c3.4-11.2,14.5-18.5,28.1-18.5
			c0.6,0,1.1,0,1.7,0c4.4,0.2,7.6,0.6,10.4,1.4c0.4,0.1,0.9,0,1.2-0.4c0.2-0.3,5.3-6.1,10.3-6.1l0.3,0l-0.1,0.3
			c-2.9,6.7-2,9.6-1.9,9.9c0.1,0.2,0.3,0.5,0.5,0.6c4.3,2.4,7.1,6.6,8.5,12.3c0.1,0.5,0.6,0.9,1.1,0.9l6.2-0.2l-1.2,8.4l-0.1,0
			l-6.6,1c-0.5,0.1-0.8,0.4-0.9,0.8C66.8,64.9,65,66.7,61,70z"/>
	</g>
	<path class="st1" d="M15.3,11.7c-0.2,0.2-0.2,0.5-0.1,0.8c0.1,0.3,0.2,0.5,0.5,0.7c0.5,0.3,1.2,0.1,1.5-0.4l1.6-2.5l2.8,8.2
		c0.2,0.6,0.8,0.9,1.4,0.7c0.3-0.1,0.5-0.3,0.6-0.6c0.1-0.3,0.1-0.6,0.1-0.8L20.1,7.4c-0.1-0.4-0.5-0.7-0.9-0.7c0,0-0.1,0-0.1,0
		c-0.4,0-0.7,0.2-0.9,0.5L15.3,11.7z"/>
	<path class="st1" d="M20.4,0C13.2,0,7.2,5.9,7.2,13.2s5.9,13.2,13.2,13.2c7.3,0,13.2-5.9,13.2-13.2S27.7,0,20.4,0z M20.4,24.2
		c-6.1,0-11-4.9-11-11s4.9-11,11-11c6.1,0,11,4.9,11,11S26.5,24.2,20.4,24.2z"/>
	<path class="st0" d="M38.2,36.9c-1.4-0.4-2.9-0.7-4.2-0.7c-6.9,0-10.4,5.7-10.5,6c-0.2,0.3-0.2,0.6-0.1,0.9
		c0.1,0.3,0.3,0.5,0.5,0.7c0.5,0.3,1.3,0.1,1.6-0.4c0.1-0.2,2.8-4.8,8.5-4.8c1.2,0,2.4,0.2,3.6,0.6c0.1,0,0.2,0,0.3,0
		c0.5,0,0.9-0.3,1.1-0.8c0.1-0.3,0.1-0.6-0.1-0.9C38.8,37.2,38.5,37,38.2,36.9z"/>
</g>
</svg>
