<?xml version="1.0" encoding="utf-8"?>
<!-- Generator: Adobe Illustrator 16.0.0, SVG Export Plug-In . SVG Version: 6.00 Build 0)  -->
<!DOCTYPE svg PUBLIC "-//W3C//DTD SVG 1.1//EN" "http://www.w3.org/Graphics/SVG/1.1/DTD/svg11.dtd">
<svg version="1.1" id="Шар_1" xmlns="http://www.w3.org/2000/svg" xmlns:xlink="http://www.w3.org/1999/xlink" x="0px" y="0px"
	 width="30px" height="41.488px" viewBox="0 0 30 41.488" enable-background="new 0 0 30 41.488" xml:space="preserve">
<g>
	<path fill="#D8EEFC" d="M28.637,37.068h-0.142V3.715c0-1.219-0.99-2.21-2.211-2.21h-0.799V1.457C25.485,0.654,24.833,0,24.028,0
		H5.971C5.168,0,4.514,0.654,4.514,1.457v0.048h-0.8c-1.219,0-2.21,0.991-2.21,2.21v33.354H1.363C0.611,37.068,0,37.68,0,38.432
		v2.352c0,0.39,0.315,0.705,0.705,0.705h28.589c0.391,0,0.706-0.315,0.706-0.705v-2.352C30,37.68,29.388,37.068,28.637,37.068z"/>
	<g>
		<path fill="#003764" d="M28.637,37.068h-0.142V3.715c0-1.219-0.99-2.21-2.211-2.21h-0.799V1.457C25.485,0.654,24.833,0,24.028,0
			H5.971C5.168,0,4.514,0.654,4.514,1.457v0.048h-0.8c-1.219,0-2.21,0.991-2.21,2.21v33.354H1.363C0.611,37.068,0,37.68,0,38.432
			v2.352c0,0.39,0.315,0.705,0.705,0.705h28.589c0.391,0,0.706-0.315,0.706-0.705v-2.352C30,37.68,29.388,37.068,28.637,37.068z
			 M26.284,2.916c0.441,0,0.8,0.357,0.8,0.799v33.354h-1.599V2.916H26.284z M5.924,37.068v-9.324h18.151v9.324H5.924z M5.924,21.725
			h18.151v4.608H5.924V21.725z M24.075,20.313H5.924V5.173h18.151V20.313z M5.971,1.41h18.057c0.025,0,0.047,0.022,0.047,0.047
			v2.305H5.924V1.457C5.924,1.433,5.945,1.41,5.971,1.41z M2.916,3.715c0-0.441,0.358-0.799,0.799-0.799h0.8v34.152H2.916V3.715z
			 M28.589,40.078H1.41v-1.6h27.179V40.078z"/>
		<path fill="#003764" d="M15.752,17.304H9.733c-0.389,0-0.705,0.316-0.705,0.706s0.316,0.705,0.705,0.705h6.019
			c0.39,0,0.706-0.315,0.706-0.705S16.142,17.304,15.752,17.304z"/>
		<path fill="#003764" d="M17.257,23.323H8.229c-0.39,0-0.706,0.315-0.706,0.705s0.316,0.705,0.706,0.705h9.028
			c0.39,0,0.705-0.315,0.705-0.705S17.646,23.323,17.257,23.323z"/>
		<path fill="#003764" d="M8.727,34.265c-0.131-0.131-0.313-0.206-0.499-0.206c-0.185,0-0.368,0.075-0.498,0.206
			c-0.132,0.132-0.208,0.313-0.208,0.499c0,0.187,0.076,0.368,0.208,0.499c0.13,0.131,0.312,0.207,0.498,0.207
			c0.185,0,0.368-0.076,0.499-0.207c0.132-0.131,0.207-0.312,0.207-0.499C8.934,34.578,8.859,34.396,8.727,34.265z"/>
		<path fill="#003764" d="M8.981,15.705h12.037c0.804,0,1.458-0.653,1.458-1.457v-6.02c0-0.803-0.654-1.457-1.458-1.457H8.981
			c-0.805,0-1.458,0.654-1.458,1.457v6.02C7.523,15.052,8.177,15.705,8.981,15.705z M21.019,14.295h-1.552v-3.104h1.599v3.057
			C21.065,14.274,21.045,14.295,21.019,14.295z M21.065,8.229V9.78h-1.599V8.182h1.552C21.045,8.182,21.065,8.203,21.065,8.229z
			 M8.934,8.229c0-0.025,0.021-0.047,0.047-0.047h9.074v6.113H8.981c-0.026,0-0.047-0.021-0.047-0.047V8.229z"/>
	</g>
</g>
</svg>
