<?xml version="1.0" encoding="utf-8"?>
<!-- Generator: Adobe Illustrator 16.0.0, SVG Export Plug-In . SVG Version: 6.00 Build 0)  -->
<!DOCTYPE svg PUBLIC "-//W3C//DTD SVG 1.1//EN" "http://www.w3.org/Graphics/SVG/1.1/DTD/svg11.dtd">
<svg version="1.1" id="Шар_1" xmlns="http://www.w3.org/2000/svg" xmlns:xlink="http://www.w3.org/1999/xlink" x="0px" y="0px"
	 width="14px" height="8.998px" viewBox="0 0 14 8.998" style="enable-background:new 0 0 14 8.998;" xml:space="preserve">
<g>
	<path d="M7.39,0.165l6.445,6.444C13.945,6.72,14,6.851,14,7c0,0.151-0.055,0.281-0.164,0.391l-1.441,1.442
		c-0.111,0.11-0.24,0.165-0.391,0.165s-0.281-0.055-0.393-0.165L7,4.221L2.388,8.833c-0.109,0.11-0.24,0.165-0.391,0.165
		S1.718,8.943,1.607,8.833L0.166,7.391C0.056,7.281,0,7.151,0,7c0-0.149,0.057-0.28,0.166-0.391l6.443-6.444C6.72,0.056,6.851,0,7,0
		C7.152,0,7.281,0.056,7.39,0.165z"/>
</g>
</svg>
