<?xml version="1.0" encoding="utf-8"?>
<!-- Generator: Adobe Illustrator 16.0.0, SVG Export Plug-In . SVG Version: 6.00 Build 0)  -->
<!DOCTYPE svg PUBLIC "-//W3C//DTD SVG 1.1//EN" "http://www.w3.org/Graphics/SVG/1.1/DTD/svg11.dtd">
<svg version="1.1" id="Шар_1" xmlns="http://www.w3.org/2000/svg" xmlns:xlink="http://www.w3.org/1999/xlink" x="0px" y="0px"
	 width="14px" height="16.61px" viewBox="0 0 14 16.61" style="enable-background:new 0 0 14 16.61;" xml:space="preserve">
<g>
	<path style="fill:#2058A4;" d="M9.928,4.25c0.408,0,0.741-0.333,0.741-0.741V0.741C10.669,0.332,10.336,0,9.928,0H0.741
		C0.332,0,0,0.332,0,0.741v15.128c0,0.409,0.332,0.741,0.741,0.741h9.187c0.408,0,0.741-0.332,0.741-0.741V13.1
		c0-0.408-0.333-0.74-0.741-0.74s-0.741,0.332-0.741,0.74v2.027H1.481V1.481h7.705v2.028C9.187,3.917,9.52,4.25,9.928,4.25z"/>
	<g>
		<path style="fill:#2999D5;" d="M13.688,7.875l-2.502-2.501c-0.229-0.229-0.627-0.229-0.855-0.002
			c-0.236,0.235-0.239,0.619-0.006,0.856l1.445,1.469H5.372c-0.335,0-0.607,0.272-0.607,0.606s0.272,0.606,0.607,0.606h6.422
			l-1.465,1.465c-0.236,0.237-0.236,0.622,0,0.858c0.115,0.114,0.268,0.178,0.43,0.178c0.161,0,0.313-0.063,0.428-0.178l2.502-2.501
			c0.113-0.113,0.178-0.269,0.178-0.429S13.802,7.989,13.688,7.875z"/>
		<path style="fill:#2999D5;" d="M10.759,11.546c-0.198,0-0.385-0.077-0.524-0.217c-0.288-0.289-0.288-0.759,0-1.048l1.237-1.236
			h-6.1c-0.409,0-0.741-0.333-0.741-0.741s0.332-0.741,0.741-0.741h6.079l-1.221-1.241c-0.285-0.29-0.281-0.759,0.008-1.045
			c0.268-0.266,0.777-0.265,1.045,0.002l2.501,2.501C13.921,7.919,14,8.11,14,8.305s-0.079,0.385-0.216,0.523l-2.502,2.501
			C11.142,11.469,10.956,11.546,10.759,11.546z M5.372,7.832c-0.261,0-0.473,0.212-0.473,0.473s0.212,0.473,0.473,0.473h6.747
			l-1.694,1.694c-0.185,0.185-0.185,0.484,0,0.669c0.179,0.179,0.489,0.179,0.669,0l2.501-2.501c0.088-0.088,0.138-0.21,0.138-0.334
			s-0.05-0.246-0.138-0.334l-2.501-2.501c-0.169-0.168-0.499-0.168-0.667-0.001c-0.185,0.183-0.187,0.482-0.005,0.667l1.669,1.697
			H5.372z"/>
	</g>
</g>
</svg>
