<?xml version="1.0" encoding="utf-8"?>
<!-- Generator: Adobe Illustrator 16.0.0, SVG Export Plug-In . SVG Version: 6.00 Build 0)  -->
<!DOCTYPE svg PUBLIC "-//W3C//DTD SVG 1.1//EN" "http://www.w3.org/Graphics/SVG/1.1/DTD/svg11.dtd">
<svg version="1.1" id="Шар_1" xmlns="http://www.w3.org/2000/svg" xmlns:xlink="http://www.w3.org/1999/xlink" x="0px" y="0px"
	 width="73px" height="73px" viewBox="0 0 73 73" style="enable-background:new 0 0 73 73;" xml:space="preserve">
<g>
	<g>
		<g>
			<path style="fill:#E9580C;" d="M31.43,28.19c2.379,0,4.348,1.918,4.348,4.321c0,2.404-1.943,4.373-4.348,4.373
				c-2.403,0-4.372-1.918-4.372-4.373C27.058,30.083,29.027,28.19,31.43,28.19z M31.405,35.095c1.483,0,2.583-1.176,2.583-2.583
				c0-1.432-1.15-2.531-2.558-2.531c-1.457,0-2.582,1.15-2.582,2.531C28.848,34.098,30.049,35.095,31.405,35.095z M33.042,46.448
				h-1.381l10.101-18.463h1.406L33.042,46.448z M43.45,37.447c2.378,0,4.347,1.918,4.347,4.322s-1.943,4.373-4.347,4.373
				c-2.404,0-4.373-1.919-4.373-4.373C39.077,39.34,41.045,37.447,43.45,37.447z M43.423,44.352c1.483,0,2.583-1.176,2.583-2.582
				c0-1.433-1.15-2.532-2.557-2.532c-1.458,0-2.583,1.15-2.583,2.532C40.867,43.355,42.068,44.352,43.423,44.352z"/>
			<path style="fill:#E9580C;" d="M33.241,46.784h-2.146l10.468-19.135h2.173L33.241,46.784z M32.227,46.113h0.616L42.6,28.321
				h-0.64L32.227,46.113z M43.45,46.479c-2.597,0-4.709-2.113-4.709-4.709c0-2.568,2.112-4.658,4.709-4.658
				c2.582,0,4.683,2.09,4.683,4.658C48.132,44.365,46.032,46.479,43.45,46.479z M43.45,37.783c-2.264,0-4.037,1.751-4.037,3.986
				c0,2.226,1.811,4.037,4.037,4.037c2.211,0,4.011-1.812,4.011-4.037C47.46,39.571,45.661,37.783,43.45,37.783z M43.423,44.688
				c-1.649,0-2.893-1.255-2.893-2.918c0-1.582,1.309-2.868,2.919-2.868c1.621,0,2.893,1.26,2.893,2.868
				C46.342,43.405,45.06,44.688,43.423,44.688z M43.45,39.573c-1.239,0-2.247,0.985-2.247,2.196c0,1.475,1.117,2.246,2.221,2.246
				c1.261,0,2.247-0.986,2.247-2.246C45.67,40.538,44.695,39.573,43.45,39.573z M31.43,37.221c-2.597,0-4.708-2.112-4.708-4.709
				c0-2.568,2.111-4.657,4.708-4.657c2.582,0,4.684,2.089,4.684,4.657C36.114,35.108,34.012,37.221,31.43,37.221z M31.43,28.526
				c-2.263,0-4.037,1.751-4.037,3.985c0,2.227,1.812,4.037,4.037,4.037c2.212,0,4.012-1.811,4.012-4.037
				C35.442,30.314,33.642,28.526,31.43,28.526z M31.405,35.431c-1.649,0-2.893-1.255-2.893-2.919c0-1.581,1.309-2.867,2.918-2.867
				c1.622,0,2.894,1.26,2.894,2.867C34.324,34.148,33.042,35.431,31.405,35.431z M31.43,30.316c-1.238,0-2.247,0.985-2.247,2.195
				c0,1.476,1.118,2.247,2.222,2.247c1.26,0,2.247-0.986,2.247-2.247C33.652,31.281,32.676,30.316,31.43,30.316z"/>
		</g>
	</g>
	<g>
		<path style="fill:#009BDE;" d="M71.818,35.316h-3.887C67.321,18.911,54.088,5.679,37.682,5.069V1.182
			C37.682,0.529,37.153,0,36.5,0c-0.653,0-1.184,0.529-1.184,1.182v3.888C18.911,5.679,5.679,18.911,5.07,35.316H1.182
			C0.53,35.316,0,35.847,0,36.499c0,0.653,0.529,1.183,1.182,1.183H5.07C5.679,54.088,18.911,67.32,35.317,67.931v3.887
			c0,0.653,0.53,1.183,1.184,1.183c0.652,0,1.182-0.529,1.182-1.183v-3.887c16.406-0.61,29.639-13.843,30.249-30.249h3.887
			c0.653,0,1.183-0.529,1.183-1.183C73,35.847,72.471,35.316,71.818,35.316z M35.317,7.436v5.206
			c-12.231,0.601-22.075,10.443-22.674,22.675H7.436C8.043,20.215,20.215,8.043,35.317,7.436z M35.317,65.564
			C20.215,64.957,8.043,52.783,7.436,37.682h5.207c0.599,12.232,10.442,22.076,22.674,22.676V65.564z M36.5,60.285
			c-13.136,0-23.786-10.648-23.786-23.785S23.364,12.713,36.5,12.713c13.137,0,23.787,10.65,23.787,23.787
			S49.636,60.285,36.5,60.285z M37.682,65.564v-5.207c12.232-0.6,22.076-10.443,22.676-22.676h5.206
			C64.958,52.783,52.784,64.957,37.682,65.564z M60.358,35.316c-0.6-12.231-10.443-22.074-22.676-22.675V7.436
			c15.102,0.607,27.275,12.779,27.882,27.881H60.358z"/>
	</g>
	<g>
		<g>
			<path style="fill:#0055B8;" d="M36.5,15.063c11.82,0,21.437,9.616,21.437,21.437c0,11.819-9.616,21.435-21.437,21.435
				c-11.819,0-21.435-9.615-21.435-21.435C15.065,24.68,24.68,15.063,36.5,15.063 M36.5,12.713
				c-13.137,0-23.786,10.65-23.786,23.787S23.363,60.285,36.5,60.285c13.136,0,23.787-10.648,23.787-23.785
				S49.635,12.713,36.5,12.713L36.5,12.713z"/>
		</g>
	</g>
</g>
</svg>
