<?xml version="1.0" encoding="utf-8"?>
<!-- Generator: Adobe Illustrator 16.0.0, SVG Export Plug-In . SVG Version: 6.00 Build 0)  -->
<!DOCTYPE svg PUBLIC "-//W3C//DTD SVG 1.1//EN" "http://www.w3.org/Graphics/SVG/1.1/DTD/svg11.dtd">
<svg version="1.1" id="Шар_1" xmlns="http://www.w3.org/2000/svg" xmlns:xlink="http://www.w3.org/1999/xlink" x="0px" y="0px"
	 width="77px" height="73.605px" viewBox="0 0 77 73.605" style="enable-background:new 0 0 77 73.605;" xml:space="preserve">
<g>
	<g>
		<path style="fill:#E9580C;" d="M74.5,32.839V57.3h-72V32.839H74.5 M75.996,30.339H1.004C0.451,30.339,0,30.788,0,31.344v27.452
			C0,59.35,0.451,59.8,1.004,59.8h74.991C76.55,59.8,77,59.35,77,58.796V31.344C77,30.788,76.55,30.339,75.996,30.339L75.996,30.339
			z"/>
	</g>
	<g>
		<path style="fill:#2359A3;" d="M13.953,30.339V3.192H47.06v14.422c0,0.884,0.725,1.603,1.615,1.603h14.41v11.122h3.193V17.614
			c0-0.454-0.172-0.85-0.482-1.112L49.833,0.506C49.511,0.184,49.091,0,48.675,0h-36.34c-0.89,0-1.613,0.725-1.613,1.616v28.723
			H13.953z M50.281,5.459l10.535,10.566H50.281V5.459z"/>
		<path style="fill:#2359A3;" d="M63.085,59.8v10.616H13.953V59.8h-3.231v12.228c0,0.855,0.739,1.578,1.613,1.578h52.329
			c0.875,0,1.615-0.723,1.615-1.578V59.8H63.085z"/>
	</g>
	<g>
		<path style="fill:#E9580C;" d="M26.483,37.632h-6.74v14.876h2.833v-5.875h3.907c3.182,0,4.607-2.314,4.607-4.607
			C31.09,39.398,29.239,37.632,26.483,37.632z M22.576,40.194h3.345c2.017,0,2.275,0.989,2.275,1.851
			c0,1.42-0.704,2.024-2.354,2.024h-3.267V40.194z"/>
		<path style="fill:#E9580C;" d="M38.693,37.632h-6.121v14.876h6.043c4.73,0,6.411-4.111,6.411-7.632
			C45.027,40.543,42.481,37.632,38.693,37.632z M35.407,40.194h3.033c2.382,0,3.692,1.704,3.692,4.797
			c0,3.147-1.296,4.953-3.556,4.953h-3.169V40.194z"/>
		<polygon style="fill:#E9580C;" points="57.257,40.253 57.257,37.632 46.666,37.632 46.666,52.508 49.5,52.508 49.5,46.187 
			56.326,46.187 56.326,43.565 49.5,43.565 49.5,40.253 		"/>
	</g>
</g>
</svg>
