<?xml version="1.0" encoding="utf-8"?>
<!-- Generator: Adobe Illustrator 16.0.0, SVG Export Plug-In . SVG Version: 6.00 Build 0)  -->
<!DOCTYPE svg PUBLIC "-//W3C//DTD SVG 1.1//EN" "http://www.w3.org/Graphics/SVG/1.1/DTD/svg11.dtd">
<svg version="1.1" id="Шар_1" xmlns="http://www.w3.org/2000/svg" xmlns:xlink="http://www.w3.org/1999/xlink" x="0px" y="0px"
	 width="59px" height="59px" viewBox="0 0 59 59" style="enable-background:new 0 0 59 59;" xml:space="preserve">
<g>
	<polygon style="fill:#003764;" points="4.414,4.414 29.497,4.414 29.497,0 0,0 0,29.5 4.414,29.5 	"/>
	<polygon style="fill:#61B4E4;" points="4.414,54.586 4.414,29.5 0,29.5 0,59 29.504,59 29.504,54.586 	"/>
	<polygon style="fill:#0055B8;" points="54.586,29.5 54.586,54.586 29.504,54.586 29.504,59 59,59 59,29.5 	"/>
	<polygon style="fill:#009BDE;" points="29.504,0 29.504,4.414 54.586,4.414 54.586,29.5 59,29.5 59,0 	"/>
	<g>
		<path style="fill:#009BDE;" d="M33.568,24.338c-0.395-2.107-1.547-3.161-3.49-3.161c-4.05,0-4.479,5.269-4.741,7.969
			c1.218-1.812,2.931-2.832,5.269-2.832c4.247,0,7.112,3.063,7.112,7.606c0,4.709-3.228,8.067-7.771,8.067
			c-5.301,0-8.265-4.116-8.265-11.558c0-7.673,3.194-12.217,8.562-12.217c3.918,0,6.52,2.272,6.947,6.125H33.568z M25.83,33.953
			c0,2.963,1.646,4.906,4.116,4.906c2.404,0,4.018-1.91,4.018-4.808c0-2.865-1.613-4.742-4.116-4.742
			C27.411,29.31,25.83,31.121,25.83,33.953z"/>
	</g>
</g>
</svg>
