<?xml version="1.0" encoding="utf-8"?>
<!-- Generator: Adobe Illustrator 16.0.0, SVG Export Plug-In . SVG Version: 6.00 Build 0)  -->
<!DOCTYPE svg PUBLIC "-//W3C//DTD SVG 1.1//EN" "http://www.w3.org/Graphics/SVG/1.1/DTD/svg11.dtd">
<svg version="1.1" id="Шар_1" xmlns="http://www.w3.org/2000/svg" xmlns:xlink="http://www.w3.org/1999/xlink" x="0px" y="0px"
	 width="72px" height="64.578px" viewBox="0 0 72 64.578" style="enable-background:new 0 0 72 64.578;" xml:space="preserve">
<g>
	<path style="fill:#0055B8;" d="M72,26.209c0-0.854-0.694-1.547-1.548-1.547H54.071L40.032,2.645
		c-0.848-1.328-2.221-2.258-3.767-2.549c-1.529-0.288-3.182,0.083-4.437,0.997c-3.323,2.422-4.644,6.804-3.211,10.658l5.162,13.877
		H6.029C2.705,25.628,0,28.333,0,31.657c0,1.607,0.627,3.12,1.766,4.259l0.223,0.223l-0.223,0.224C0.627,37.502,0,39.015,0,40.622
		c0,1.907,0.927,3.725,2.481,4.862l0.26,0.19l-0.196,0.256c-0.815,1.063-1.246,2.328-1.246,3.654c0,2.177,1.185,4.192,3.093,5.261
		l0.293,0.165l-0.182,0.281c-0.63,0.977-0.963,2.103-0.963,3.258c0,3.323,2.705,6.028,6.03,6.028h60.882
		c0.854,0,1.548-0.693,1.548-1.547V26.209z M6.029,28.722h10.04c1.617,0,2.934,1.317,2.934,2.936s-1.316,2.935-2.934,2.935H6.029
		c-1.618,0-2.934-1.316-2.934-2.935S4.412,28.722,6.029,28.722z M3.095,40.622c0-1.619,1.316-2.936,2.934-2.936h11.377
		c1.619,0,2.936,1.316,2.936,2.936c0,1.618-1.317,2.935-2.936,2.935H6.029C4.412,43.557,3.095,42.24,3.095,40.622z M4.394,49.587
		c0-1.619,1.316-2.936,2.934-2.936h10.55c1.619,0,2.936,1.316,2.936,2.936c0,1.618-1.317,2.935-2.936,2.935H7.328
		C5.71,52.521,4.394,51.205,4.394,49.587z M21.418,61.485H9.57c-1.618,0-2.935-1.317-2.935-2.936s1.316-2.935,2.935-2.935h11.849
		c1.619,0,2.936,1.316,2.936,2.935S23.037,61.485,21.418,61.485z M26.699,61.483l0.203-0.446c0.361-0.79,0.544-1.627,0.544-2.487
		c0-2.566-1.635-4.855-4.069-5.695l-0.348-0.12l0.173-0.325c0.467-0.88,0.704-1.83,0.704-2.822c0-1.703-0.732-3.336-2.011-4.483
		l-0.235-0.211l0.212-0.234c1.009-1.116,1.564-2.549,1.564-4.036c0-1.921-0.937-3.745-2.505-4.881l-0.261-0.189l0.195-0.257
		c0.807-1.06,1.233-2.317,1.233-3.638c0-0.86-0.184-1.697-0.545-2.489l-0.204-0.446h10.076l-0.446,0.521
		c-0.967,1.127-1.725,2.406-2.253,3.803c-1.208,3.192-1.102,6.663,0.301,9.775c1.401,3.112,3.932,5.491,7.124,6.7
		c3.185,1.205,6.676,1.098,9.777-0.3c0.377-0.169,0.664-0.475,0.811-0.86c0.146-0.387,0.134-0.808-0.037-1.187
		c-0.338-0.753-1.283-1.116-2.045-0.772c-2.348,1.056-5.002,1.138-7.408,0.227c-2.421-0.917-4.339-2.721-5.4-5.079
		c-1.063-2.355-1.146-4.986-0.23-7.408c0.917-2.42,2.72-4.338,5.08-5.399c0.739-0.334,1.097-1.191,0.815-1.951l-5.995-16.12
		c-0.953-2.557-0.077-5.467,2.131-7.075c0.588-0.43,1.323-0.596,2.041-0.459c0.72,0.136,1.335,0.552,1.732,1.171l14.881,23.338
		l-0.01,25.487c-0.002,2.916,1.096,5.693,3.09,7.821l0.498,0.53H26.699z M68.907,61.485h-5.172c-2.23,0-4.327-0.869-5.902-2.446
		c-1.578-1.577-2.446-3.674-2.445-5.904l0.011-25.379h13.509V61.485z"/>
	<circle style="fill:#009BDE;" cx="63.184" cy="55.497" r="2.059"/>
</g>
</svg>
