<?xml version="1.0" encoding="utf-8"?>
<!-- Generator: Adobe Illustrator 19.2.1, SVG Export Plug-In . SVG Version: 6.00 Build 0)  -->
<svg version="1.1" id="Шар_1" xmlns="http://www.w3.org/2000/svg" xmlns:xlink="http://www.w3.org/1999/xlink" x="0px" y="0px"
	 viewBox="0 0 84.5 84.5" style="enable-background:new 0 0 84.5 84.5;" xml:space="preserve">
<style type="text/css">
	.st0{fill:#0055B8;}
	.st1{fill:#00B181;}
</style>
<path class="st0" d="M72.1,12.4C64.1,4.4,53.5,0,42.3,0C31,0,20.4,4.4,12.4,12.4C4.4,20.4,0,31,0,42.3c0,11.3,4.4,21.9,12.4,29.9
	c8,8,18.6,12.4,29.9,12.4c11.3,0,21.9-4.4,29.9-12.4c8-8,12.4-18.6,12.4-29.9C84.5,31,80.1,20.4,72.1,12.4z M42.3,81.9
	c-3.8,0-7.5-0.5-11.1-1.6L30,80l7.4-7.4c0.2-0.2,0.4-0.6,0.4-0.9c0-0.3-0.1-0.7-0.4-0.9c-0.5-0.5-1.4-0.5-1.8,0l-8.1,8.2l-0.5-0.1
	c-4.1-1.7-7.8-4.1-11.1-7l-0.6-0.5l8.1-8.1c0.5-0.5,0.5-1.3,0-1.8c-0.5-0.5-1.4-0.5-1.8,0l-8.1,8.1l-0.5-0.6c-3-3.3-5.3-6.9-7.1-11
	l-0.2-0.5L6,57c0,0,0.1-0.1,0.1-0.1l8.6-8.6c0.5-0.5,0.5-1.3,0-1.8c-0.5-0.5-1.4-0.5-1.8,0l-8.3,8.3l-0.4-1.2
	c-1.1-3.7-1.6-7.5-1.6-11.3c0-21.9,17.8-39.7,39.7-39.7c21.9,0,39.7,17.8,39.7,39.7S64.1,81.9,42.3,81.9z"/>
<g>
	<path class="st1" d="M29.1,43.7c0.9,0.7,1.9,1,3.1,1c1.8,0,3.2-0.8,4.1-2.4c0.9-1.6,1.4-4,1.5-7.2L37.7,35
		c-0.6,1.1-1.4,1.9-2.4,2.5c-1,0.6-2.1,0.9-3.4,0.9c-1.3,0-2.4-0.2-3.4-0.6c-1-0.4-1.8-1-2.5-1.7c-0.7-0.7-1.2-1.6-1.5-2.6
		c-0.3-1-0.5-2.1-0.5-3.4c0-1.2,0.2-2.3,0.6-3.3c0.4-1,1-1.8,1.7-2.6c0.7-0.7,1.6-1.3,2.6-1.7c1-0.4,2.1-0.6,3.3-0.6
		c1.2,0,2.3,0.2,3.3,0.5c1,0.4,1.9,1,2.7,1.9c0.8,0.9,1.4,2.1,1.8,3.6c0.5,1.5,0.7,3.5,0.7,5.8c0,4.3-0.7,7.6-2,9.9
		c-1.4,2.3-3.6,3.5-6.6,3.5c-2.1,0-3.8-0.5-5.2-1.6c-1.4-1.1-2.2-2.7-2.3-4.8h3C27.7,42.1,28.2,43,29.1,43.7z M36.9,28.1
		c-0.2-0.7-0.5-1.3-1-1.8c-0.4-0.5-1-0.9-1.6-1.2c-0.6-0.3-1.4-0.5-2.2-0.5c-0.9,0-1.6,0.2-2.3,0.5c-0.6,0.3-1.1,0.8-1.5,1.3
		c-0.4,0.5-0.7,1.2-0.8,1.9c-0.2,0.7-0.3,1.4-0.3,2.2c0,0.7,0.1,1.3,0.4,2c0.2,0.6,0.6,1.2,1,1.7c0.4,0.5,0.9,0.9,1.5,1.2
		c0.6,0.3,1.3,0.4,2,0.4c0.8,0,1.5-0.1,2.1-0.4c0.6-0.3,1.2-0.7,1.6-1.2c0.4-0.5,0.8-1.1,1-1.8c0.2-0.7,0.4-1.4,0.4-2.1
		C37.2,29.5,37.1,28.8,36.9,28.1z"/>
	<path class="st1" d="M43.9,31.8c0-1,0.2-1.9,0.4-2.9c0.2-0.9,0.5-1.8,0.8-2.7c0.4-0.8,0.8-1.6,1.4-2.2c0.6-0.6,1.4-1.1,2.3-1.5
		c0.9-0.4,2-0.6,3.3-0.6c1.3,0,2.4,0.2,3.3,0.6c0.9,0.4,1.7,0.9,2.3,1.5c0.6,0.6,1.1,1.4,1.4,2.2c0.4,0.8,0.6,1.7,0.8,2.7
		c0.2,0.9,0.3,1.9,0.4,2.9c0,1,0.1,1.9,0.1,2.8c0,0.9,0,1.9-0.1,2.8c0,1-0.2,1.9-0.4,2.9c-0.2,0.9-0.5,1.8-0.8,2.6
		c-0.4,0.8-0.8,1.6-1.4,2.2c-0.6,0.6-1.4,1.1-2.3,1.5c-0.9,0.4-2,0.5-3.3,0.5c-1.3,0-2.4-0.2-3.3-0.5c-0.9-0.4-1.7-0.9-2.3-1.5
		c-0.6-0.6-1.1-1.4-1.4-2.2c-0.4-0.8-0.6-1.7-0.8-2.6c-0.2-0.9-0.3-1.9-0.4-2.9c0-1-0.1-1.9-0.1-2.8C43.9,33.7,43.9,32.8,43.9,31.8z
		 M47.1,37.8c0.1,1.2,0.2,2.2,0.6,3.3c0.3,1,0.8,1.9,1.5,2.6c0.7,0.7,1.7,1.1,2.9,1.1c1.3,0,2.2-0.4,2.9-1.1
		c0.7-0.7,1.2-1.6,1.5-2.6c0.3-1,0.5-2.1,0.6-3.3c0.1-1.2,0.1-2.2,0.1-3.1c0-0.6,0-1.3,0-2c0-0.7-0.1-1.5-0.2-2.2
		c-0.1-0.7-0.3-1.5-0.5-2.2c-0.2-0.7-0.5-1.3-0.9-1.8c-0.4-0.5-0.9-1-1.5-1.3c-0.6-0.3-1.3-0.5-2.1-0.5c-0.8,0-1.6,0.2-2.1,0.5
		c-0.6,0.3-1.1,0.8-1.5,1.3c-0.4,0.5-0.7,1.1-0.9,1.8c-0.2,0.7-0.4,1.4-0.5,2.2c-0.1,0.7-0.2,1.5-0.2,2.2c0,0.7,0,1.4,0,2
		C47,35.6,47,36.6,47.1,37.8z"/>
	<path class="st1" d="M35.8,59.7v-0.9h0c-0.2,0.4-0.5,0.7-0.9,0.8c-0.4,0.2-0.8,0.3-1.3,0.3c-0.5,0-1-0.1-1.4-0.3
		c-0.4-0.2-0.7-0.5-1-0.8c-0.3-0.3-0.5-0.7-0.6-1.1c-0.1-0.4-0.2-0.9-0.2-1.4c0-0.5,0.1-0.9,0.2-1.4c0.1-0.4,0.3-0.8,0.6-1.1
		c0.3-0.3,0.6-0.6,1-0.8c0.4-0.2,0.9-0.3,1.4-0.3c0.2,0,0.4,0,0.6,0.1c0.2,0,0.4,0.1,0.6,0.2c0.2,0.1,0.4,0.2,0.6,0.3
		c0.2,0.1,0.3,0.3,0.5,0.5h0v-3.5h1.1v9.5H35.8z M31.8,57.3c0.1,0.3,0.2,0.6,0.4,0.8c0.2,0.2,0.4,0.4,0.7,0.6c0.3,0.1,0.6,0.2,1,0.2
		c0.4,0,0.7-0.1,1-0.2c0.3-0.2,0.5-0.3,0.7-0.6c0.2-0.2,0.3-0.5,0.4-0.8c0.1-0.3,0.1-0.6,0.1-0.9c0-0.3,0-0.7-0.1-1
		c-0.1-0.3-0.2-0.6-0.4-0.8c-0.2-0.2-0.4-0.4-0.7-0.6c-0.3-0.1-0.6-0.2-1-0.2c-0.4,0-0.7,0.1-1,0.2c-0.3,0.2-0.5,0.4-0.6,0.6
		c-0.2,0.2-0.3,0.5-0.3,0.8c-0.1,0.3-0.1,0.6-0.1,1C31.6,56.7,31.7,57,31.8,57.3z"/>
	<path class="st1" d="M44.8,59.7c-0.2,0.1-0.5,0.2-0.8,0.2c-0.3,0-0.5-0.1-0.7-0.2c-0.2-0.2-0.3-0.4-0.3-0.8
		c-0.3,0.4-0.7,0.6-1.1,0.8c-0.4,0.2-0.9,0.2-1.3,0.2c-0.3,0-0.6,0-0.9-0.1c-0.3-0.1-0.5-0.2-0.7-0.3c-0.2-0.2-0.4-0.3-0.5-0.6
		c-0.1-0.2-0.2-0.5-0.2-0.9c0-0.4,0.1-0.7,0.2-1c0.1-0.3,0.3-0.5,0.5-0.6c0.2-0.2,0.5-0.3,0.7-0.4c0.3-0.1,0.6-0.1,0.9-0.2
		c0.3-0.1,0.6-0.1,0.9-0.1c0.3,0,0.5-0.1,0.7-0.1c0.2-0.1,0.4-0.1,0.5-0.3c0.1-0.1,0.2-0.3,0.2-0.5c0-0.2,0-0.4-0.1-0.6
		c-0.1-0.2-0.2-0.3-0.4-0.3c-0.1-0.1-0.3-0.1-0.5-0.2c-0.2,0-0.4,0-0.5,0c-0.5,0-0.9,0.1-1.2,0.3c-0.3,0.2-0.5,0.5-0.5,1h-1.1
		c0-0.4,0.1-0.8,0.3-1.1c0.2-0.3,0.4-0.5,0.6-0.7c0.3-0.2,0.6-0.3,0.9-0.4c0.3-0.1,0.7-0.1,1.1-0.1c0.3,0,0.6,0,0.9,0.1
		c0.3,0,0.6,0.1,0.8,0.3c0.2,0.1,0.4,0.3,0.6,0.6c0.2,0.2,0.2,0.6,0.2,1v3.5c0,0.3,0,0.5,0,0.6c0,0.1,0.1,0.2,0.3,0.2
		c0.1,0,0.2,0,0.3-0.1V59.7z M42.9,56.2c-0.1,0.1-0.3,0.2-0.6,0.2c-0.2,0-0.5,0.1-0.7,0.1c-0.3,0-0.5,0.1-0.8,0.1
		c-0.3,0-0.5,0.1-0.7,0.2c-0.2,0.1-0.4,0.2-0.5,0.4c-0.1,0.2-0.2,0.4-0.2,0.7c0,0.2,0,0.3,0.1,0.5c0.1,0.1,0.2,0.2,0.3,0.3
		c0.1,0.1,0.3,0.1,0.4,0.2c0.2,0,0.3,0.1,0.5,0.1c0.4,0,0.7-0.1,1-0.2c0.3-0.1,0.5-0.2,0.7-0.4c0.2-0.2,0.3-0.3,0.4-0.5
		c0.1-0.2,0.1-0.3,0.1-0.5V56.2z"/>
	<path class="st1" d="M48.5,60.7c-0.1,0.3-0.3,0.6-0.4,0.9c-0.1,0.2-0.3,0.4-0.4,0.6c-0.2,0.1-0.3,0.3-0.5,0.3
		c-0.2,0.1-0.4,0.1-0.7,0.1c-0.1,0-0.3,0-0.4,0c-0.1,0-0.3,0-0.4-0.1v-1c0.1,0,0.2,0.1,0.3,0.1c0.1,0,0.2,0,0.3,0
		c0.2,0,0.4-0.1,0.6-0.2c0.2-0.1,0.3-0.3,0.4-0.5l0.5-1.2l-2.7-6.8h1.3l2,5.6h0l1.9-5.6h1.2L48.5,60.7z"/>
	<path class="st1" d="M53.3,58.2c0.1,0.2,0.2,0.3,0.4,0.4c0.2,0.1,0.4,0.2,0.6,0.2c0.2,0,0.4,0.1,0.7,0.1c0.2,0,0.4,0,0.6,0
		c0.2,0,0.4-0.1,0.5-0.1c0.2-0.1,0.3-0.2,0.4-0.3c0.1-0.1,0.2-0.3,0.2-0.5c0-0.3-0.1-0.5-0.3-0.7c-0.2-0.2-0.5-0.3-0.8-0.4
		c-0.3-0.1-0.7-0.2-1.1-0.3c-0.4-0.1-0.8-0.2-1.1-0.3c-0.3-0.1-0.6-0.3-0.8-0.6c-0.2-0.2-0.3-0.6-0.3-1c0-0.3,0.1-0.6,0.2-0.9
		c0.2-0.2,0.4-0.4,0.6-0.6c0.2-0.2,0.5-0.3,0.8-0.3c0.3-0.1,0.6-0.1,0.9-0.1c0.4,0,0.7,0,1.1,0.1c0.3,0.1,0.6,0.2,0.9,0.3
		c0.3,0.2,0.5,0.4,0.6,0.7c0.2,0.3,0.2,0.6,0.3,1h-1.1c0-0.2-0.1-0.4-0.2-0.6C56.2,54.2,56,54,55.9,54c-0.2-0.1-0.3-0.2-0.5-0.2
		c-0.2,0-0.4-0.1-0.6-0.1c-0.2,0-0.3,0-0.5,0c-0.2,0-0.3,0.1-0.5,0.1c-0.1,0.1-0.3,0.2-0.3,0.3c-0.1,0.1-0.1,0.3-0.1,0.4
		c0,0.2,0.1,0.4,0.2,0.5c0.1,0.1,0.3,0.2,0.5,0.3c0.2,0.1,0.5,0.2,0.7,0.2c0.3,0.1,0.5,0.1,0.8,0.2c0.3,0.1,0.6,0.1,0.8,0.2
		c0.3,0.1,0.5,0.2,0.7,0.4c0.2,0.1,0.4,0.3,0.5,0.6c0.1,0.2,0.2,0.5,0.2,0.8c0,0.4-0.1,0.8-0.3,1c-0.2,0.3-0.4,0.5-0.7,0.7
		c-0.3,0.2-0.6,0.3-0.9,0.4c-0.4,0.1-0.7,0.1-1,0.1c-0.4,0-0.7,0-1.1-0.1c-0.3-0.1-0.7-0.2-0.9-0.4c-0.3-0.2-0.5-0.4-0.6-0.7
		C52.1,58.4,52,58,52,57.6h1.1C53.2,57.8,53.2,58,53.3,58.2z"/>
</g>
</svg>
