<?xml version="1.0" encoding="utf-8"?>
<!-- Generator: Adobe Illustrator 16.0.0, SVG Export Plug-In . SVG Version: 6.00 Build 0)  -->
<!DOCTYPE svg PUBLIC "-//W3C//DTD SVG 1.1//EN" "http://www.w3.org/Graphics/SVG/1.1/DTD/svg11.dtd">
<svg version="1.1" id="Шар_1" xmlns="http://www.w3.org/2000/svg" xmlns:xlink="http://www.w3.org/1999/xlink" x="0px" y="0px"
	 width="59px" height="59px" viewBox="0 0 59 59" style="enable-background:new 0 0 59 59;" xml:space="preserve">
<g>
	<polygon style="fill:#003764;" points="4.414,4.414 29.497,4.414 29.497,0 0,0 0,29.5 4.414,29.5 	"/>
	<polygon style="fill:#61B4E4;" points="4.414,54.586 4.414,29.5 0,29.5 0,59 29.504,59 29.504,54.586 	"/>
	<polygon style="fill:#0055B8;" points="54.586,29.5 54.586,54.586 29.504,54.586 29.504,59 59,59 59,29.5 	"/>
	<polygon style="fill:#009BDE;" points="29.504,0 29.504,4.414 54.586,4.414 54.586,29.5 59,29.5 59,0 	"/>
	<g>
		<path style="fill:#009BDE;" d="M36.993,41.526H21.254c0.164-5.269,2.963-7.343,6.882-9.978c2.305-1.548,5.07-2.996,5.07-6.19
			c0-2.403-1.415-3.886-3.721-3.886c-3.392,0-3.918,2.767-3.984,5.467h-3.655v-0.593c0-4.939,2.997-8.101,7.738-8.101
			c4.479,0,7.442,2.732,7.442,6.915c0,4.347-3.096,6.256-6.322,8.396c-1.68,1.087-4.149,2.733-4.939,4.643h11.229V41.526z"/>
	</g>
</g>
</svg>
