<?xml version="1.0" encoding="utf-8"?>
<!-- Generator: Adobe Illustrator 19.2.1, SVG Export Plug-In . SVG Version: 6.00 Build 0)  -->
<svg version="1.1" id="Слой_1" xmlns="http://www.w3.org/2000/svg" xmlns:xlink="http://www.w3.org/1999/xlink" x="0px" y="0px"
	 viewBox="0 0 1058 200" style="enable-background:new 0 0 1058 200;" xml:space="preserve">
<style type="text/css">
	.st0{fill:#ffffff;}
	.st1{fill:#ffffff;}
</style>
<g>
	<rect x="4.5" y="94.5" class="st0" width="58.8" height="30.5"/>
	<rect x="133.7" y="94.5" class="st0" width="57.1" height="30.5"/>
	<rect x="133.7" y="56" class="st0" width="57.1" height="31.1"/>
	<rect x="4.5" y="56" class="st0" width="58.8" height="31.1"/>
	<path class="st0" d="M133.7,132.4v42.7h31.8c14,0,25.4-11.4,25.4-25.4v-17.3H133.7z"/>
	<path class="st0" d="M63.3,48.5V7H29.9C15.9,7,4.5,18.4,4.5,32.3v16.2H63.3z"/>
	<path class="st0" d="M63.3,132.4H4.5v17.3c0,14,11.4,25.4,25.4,25.4h33.4V132.4z"/>
	<g>
		<polygon class="st0" points="103.4,88.9 93.7,88.9 93.5,88.9 71.7,62.7 71.7,175.2 125.4,175.2 125.4,62.7 103.6,88.9 		"/>
		<path class="st0" d="M165.4,7H70.7v41.4h0.2l27.7,34.3l27.7-34.3v-0.1h7.4h57.1v-16C190.8,18.4,179.4,7,165.4,7z"/>
	</g>
</g>
<g>
	<path class="st1" d="M274.1,166.5c0,4.5-1.1,8.1-3.3,10.6c-2.2,2.5-5.2,3.8-9.1,3.8c-2.4,0-4.6-0.6-6.4-1.8
		c-1.9-1.2-3.3-2.9-4.3-5.1c-1-2.2-1.5-4.7-1.5-7.6c0-4.5,1.1-8.1,3.3-10.6c2.2-2.5,5.2-3.8,9.1-3.8c3.8,0,6.8,1.3,9,3.8
		C273,158.5,274.1,162,274.1,166.5z M252.1,166.5c0,3.8,0.8,6.8,2.5,8.9c1.7,2.1,4.1,3.2,7.1,3.2c3.1,0,5.4-1.1,7.1-3.2
		c1.7-2.1,2.5-5.1,2.5-8.9c0-3.8-0.8-6.8-2.5-8.9c-1.7-2.1-4.1-3.2-7.1-3.2c-3.1,0-5.4,1.1-7.1,3.2
		C253,159.6,252.1,162.6,252.1,166.5z"/>
	<path class="st1" d="M292.2,152.6v12.2h17.6v-12.2h2.5v27.8h-2.5V167h-17.6v13.4h-2.5v-27.8H292.2z"/>
	<path class="st1" d="M348.7,180.4h-2.5V155h-9.8c-0.5,6.7-1.1,11.9-1.9,15.4c-0.7,3.5-1.7,6.1-2.9,7.8c-1.2,1.7-2.7,2.5-4.5,2.5
		c-0.7,0-1.2-0.1-1.7-0.2v-2.3c0.3,0.1,0.8,0.2,1.4,0.2c1.9,0,3.5-2,4.7-6.1c1.2-4.1,2.1-10.6,2.7-19.6h14.6V180.4z"/>
	<path class="st1" d="M382.7,180.4l-0.6-4.4h-0.2c-1.4,1.8-2.8,3.1-4.3,3.8c-1.5,0.7-3.2,1.1-5.2,1.1c-2.7,0-4.8-0.7-6.4-2.1
		c-1.5-1.4-2.3-3.3-2.3-5.8c0-2.7,1.1-4.8,3.4-6.3c2.3-1.5,5.5-2.3,9.8-2.4l5.3-0.2v-1.8c0-2.6-0.5-4.6-1.6-6c-1.1-1.3-2.8-2-5.2-2
		c-2.6,0-5.2,0.7-8,2.1l-0.9-2.2c3.1-1.4,6.1-2.1,9.1-2.1c3.1,0,5.3,0.8,6.8,2.4c1.5,1.6,2.3,4.1,2.3,7.4v18.5H382.7z M372.5,178.6
		c3,0,5.3-0.8,7-2.5c1.7-1.7,2.6-4.1,2.6-7.1v-2.7l-4.9,0.2c-3.9,0.2-6.7,0.8-8.3,1.8c-1.7,1-2.5,2.6-2.5,4.8c0,1.7,0.5,3.1,1.6,4.1
		C369.1,178.1,370.6,178.6,372.5,178.6z"/>
	<path class="st1" d="M403.9,152.6v20.1l-0.2,5.2l16.5-25.3h3.4v27.8h-2.4v-20l0.1-5.4l-16.5,25.3h-3.3v-27.8H403.9z M412.5,148.7
		c-2.5,0-4.5-0.6-5.8-1.7c-1.3-1.1-2.1-3-2.3-5.5h2.2c0.3,1.9,0.8,3.2,1.7,4c0.9,0.8,2.3,1.2,4.2,1.2c1.9,0,3.3-0.4,4.2-1.2
		c0.9-0.8,1.5-2.1,1.7-3.9h2.3C420.3,146.3,417.6,148.7,412.5,148.7z"/>
	<path class="st1" d="M443.3,152.6v12.2h17.6v-12.2h2.5v27.8h-2.5V167h-17.6v13.4h-2.5v-27.8H443.3z"/>
	<path class="st1" d="M517.1,152.6h3.1l-12.5,13.5l13.3,14.3h-3.4l-13.1-14.1v14.1H502v-27.8h2.6v13.5L517.1,152.6z"/>
	<path class="st1" d="M545.8,180.9c-4.3,0-7.4-1.6-9.4-4.8h-0.2l0.1,2.1c0.1,1.3,0.1,2.6,0.1,4.1V193h-2.5v-40.4h2.1l0.5,4h0.2
		c1.9-3,5-4.5,9.2-4.5c3.7,0,6.6,1.2,8.6,3.7c2,2.5,3,6,3,10.8c0,4.6-1,8.1-3.1,10.6C552.2,179.7,549.4,180.9,545.8,180.9z
		 M545.8,178.7c2.8,0,5-1.1,6.6-3.2c1.6-2.1,2.3-5.1,2.3-8.9c0-8.2-2.9-12.2-8.8-12.2c-3.2,0-5.6,0.9-7.1,2.7
		c-1.5,1.8-2.3,4.7-2.3,8.7v0.8c0,4.3,0.7,7.4,2.2,9.3C540.1,177.7,542.5,178.7,545.8,178.7z"/>
	<path class="st1" d="M584.2,180.9c-4,0-7.2-1.2-9.4-3.7c-2.3-2.5-3.4-6-3.4-10.5c0-4.4,1.1-8,3.3-10.7c2.2-2.7,5.1-4,8.8-4
		c3.3,0,5.9,1.1,7.7,3.4c1.9,2.3,2.8,5.4,2.8,9.3v2h-20c0,3.8,0.9,6.7,2.7,8.7s4.2,3,7.5,3c1.6,0,3-0.1,4.2-0.3
		c1.2-0.2,2.7-0.7,4.6-1.4v2.3c-1.6,0.7-3,1.1-4.3,1.4C587.3,180.8,585.8,180.9,584.2,180.9z M583.4,154.3c-2.7,0-4.8,0.9-6.4,2.6
		c-1.6,1.8-2.6,4.3-2.8,7.6h17.2c0-3.2-0.7-5.7-2.1-7.6C587.9,155.2,585.9,154.3,583.4,154.3z"/>
	<path class="st1" d="M632.2,189.8h-2.5v-9.4h-21.3v9.4H606V178h1.8c2.3-3.3,4.1-7,5.4-11.3c1.3-4.3,1.9-9,2-14.1h13.4V178h3.7
		V189.8z M626,178v-23h-8.6c-0.4,9.2-2.6,16.9-6.7,23H626z"/>
	<path class="st1" d="M648.4,152.6v20.1l-0.2,5.2l16.5-25.3h3.4v27.8h-2.4v-20l0.1-5.4l-16.5,25.3H646v-27.8H648.4z"/>
	<path class="st1" d="M702.9,154.8h-9.3v25.6h-2.5v-25.6h-9.5v-2.2h21.2V154.8z"/>
	<path class="st1" d="M719,164.3h8.8c6.5,0,9.8,2.6,9.8,7.7c0,2.6-0.9,4.7-2.7,6.2c-1.8,1.5-4.4,2.2-7.9,2.2h-10.6v-27.8h2.5V164.3z
		 M719,166.7V178h8.5c2.4,0,4.3-0.5,5.5-1.5s1.9-2.5,1.9-4.5c0-1.8-0.6-3.2-1.7-4c-1.1-0.8-3.1-1.2-5.9-1.2H719z M745,180.4h-2.5
		v-27.8h2.5V180.4z"/>
	<path class="st1" d="M786.2,152.6v12.2h17.6v-12.2h2.5v27.8h-2.5V167h-17.6v13.4h-2.5v-27.8H786.2z"/>
	<path class="st1" d="M840.4,180.4l-0.6-4.4h-0.2c-1.4,1.8-2.8,3.1-4.3,3.8c-1.5,0.7-3.2,1.1-5.2,1.1c-2.7,0-4.8-0.7-6.4-2.1
		c-1.5-1.4-2.3-3.3-2.3-5.8c0-2.7,1.1-4.8,3.4-6.3c2.3-1.5,5.5-2.3,9.8-2.4l5.3-0.2v-1.8c0-2.6-0.5-4.6-1.6-6c-1.1-1.3-2.8-2-5.2-2
		c-2.6,0-5.2,0.7-8,2.1l-0.9-2.2c3.1-1.4,6.1-2.1,9.1-2.1c3.1,0,5.3,0.8,6.8,2.4c1.5,1.6,2.3,4.1,2.3,7.4v18.5H840.4z M830.2,178.6
		c3,0,5.3-0.8,7-2.5c1.7-1.7,2.6-4.1,2.6-7.1v-2.7l-4.9,0.2c-3.9,0.2-6.7,0.8-8.3,1.8c-1.7,1-2.5,2.6-2.5,4.8c0,1.7,0.5,3.1,1.6,4.1
		C826.7,178.1,828.2,178.6,830.2,178.6z"/>
	<path class="st1" d="M895.7,152.6h3.1l-12.5,13.5l13.3,14.3h-3.4l-13.1-14.1v14.1h-2.6v-27.8h2.6v13.5L895.7,152.6z"/>
	<path class="st1" d="M929.3,180.4l-0.6-4.4h-0.2c-1.4,1.8-2.8,3.1-4.3,3.8c-1.5,0.7-3.2,1.1-5.2,1.1c-2.7,0-4.8-0.7-6.4-2.1
		c-1.5-1.4-2.3-3.3-2.3-5.8c0-2.7,1.1-4.8,3.4-6.3c2.3-1.5,5.5-2.3,9.8-2.4l5.3-0.2v-1.8c0-2.6-0.5-4.6-1.6-6c-1.1-1.3-2.8-2-5.2-2
		c-2.6,0-5.2,0.7-8,2.1l-0.9-2.2c3.1-1.4,6.1-2.1,9.1-2.1c3.1,0,5.3,0.8,6.8,2.4c1.5,1.6,2.3,4.1,2.3,7.4v18.5H929.3z M919.1,178.6
		c3,0,5.3-0.8,7-2.5c1.7-1.7,2.6-4.1,2.6-7.1v-2.7l-4.9,0.2c-3.9,0.2-6.7,0.8-8.3,1.8c-1.7,1-2.5,2.6-2.5,4.8c0,1.7,0.5,3.1,1.6,4.1
		C915.7,178.1,917.2,178.6,919.1,178.6z"/>
	<path class="st1" d="M960,180.9c-4.3,0-7.4-1.6-9.4-4.8h-0.2l0.1,2.1c0.1,1.3,0.1,2.6,0.1,4.1V193h-2.5v-40.4h2.1l0.5,4h0.2
		c1.9-3,5-4.5,9.2-4.5c3.7,0,6.6,1.2,8.6,3.7s3,6,3,10.8c0,4.6-1,8.1-3.1,10.6C966.4,179.7,963.5,180.9,960,180.9z M959.9,178.7
		c2.8,0,5-1.1,6.6-3.2c1.6-2.1,2.3-5.1,2.3-8.9c0-8.2-2.9-12.2-8.8-12.2c-3.2,0-5.6,0.9-7.1,2.7c-1.5,1.8-2.3,4.7-2.3,8.7v0.8
		c0,4.3,0.7,7.4,2.2,9.3C954.2,177.7,956.6,178.7,959.9,178.7z"/>
	<path class="st1" d="M1004.7,154.8h-9.3v25.6H993v-25.6h-9.5v-2.2h21.2V154.8z"/>
	<path class="st1" d="M1013.6,152.6h2.6l5.9,15.6c1.8,4.8,2.9,8,3.4,9.7h0.2c0.7-2.2,1.9-5.5,3.5-9.8l5.9-15.4h2.6l-12.5,32.3
		c-1,2.6-1.8,4.4-2.5,5.3c-0.7,0.9-1.5,1.6-2.4,2.1c-0.9,0.5-2,0.7-3.3,0.7c-1,0-2.1-0.2-3.2-0.5v-2.2c1,0.3,2.1,0.4,3.2,0.4
		c0.9,0,1.6-0.2,2.3-0.6c0.7-0.4,1.3-1,1.8-1.9c0.5-0.9,1.2-2.2,1.9-4.1c0.7-1.9,1.2-3.1,1.4-3.6L1013.6,152.6z"/>
</g>
<path class="st1" d="M250.4,123.6V13.3h22l31.9,46.1l31.9-46.1h22v110.3h-19.9V42.1l-34.1,48.8l-34.1-48.8v81.6H250.4z"/>
<path class="st1" d="M374.9,13.3h24l29.2,44.8l29.1-44.8h24l-43.1,63v47.3h-19.9V76.3L374.9,13.3z"/>
<path class="st0" d="M496.6,92.2c-2.1-6.8-3.1-14.8-3.1-23.8c0-9,1-17,3.1-23.8c2.1-6.8,4.8-12.3,8.1-16.4c3.3-4.1,7.3-7.4,12-9.9
	c4.7-2.6,9.3-4.3,13.7-5.1c4.5-0.9,9.3-1.3,14.5-1.3c11.3,0,22.4,2.2,33.4,6.5V37c-10.5-4.8-21-7.3-31.7-7.3c-5,0-9.2,0.4-12.7,1.3
	c-3.5,0.9-7,2.6-10.3,5.1c-3.4,2.5-5.9,6.5-7.7,11.9c-1.8,5.4-2.6,12.2-2.6,20.3c0,8.2,0.9,15,2.6,20.3c1.7,5.4,4.3,9.3,7.7,11.9
	c3.4,2.5,6.8,4.2,10.3,5.1c3.5,0.9,7.8,1.3,12.7,1.3c10.6,0,21.2-2.4,31.7-7.3v18.5c-11,4.4-22.2,6.6-33.4,6.6
	c-5.2,0-10-0.4-14.5-1.3c-4.5-0.9-9-2.6-13.7-5.1c-4.7-2.6-8.7-5.9-12-9.9C501.4,104.5,498.7,99,496.6,92.2z"/>
<path class="st0" d="M601.6,123.6V13.3H644c12.9,0,23,3.1,30.1,9.2c7.2,6.1,10.8,14.9,10.8,26.3c0,16.8-8.1,27.7-24.2,32.6l29,42.2
	h-24l-26.3-38.9h-17.8v38.9H601.6z M621.5,66.5h22c6.7,0,12-1.2,15.8-3.6c3.8-2.4,5.7-6.9,5.7-13.6c0-6.8-1.9-11.4-5.7-13.7
	c-3.8-2.4-9.1-3.5-15.8-3.5h-22V66.5z"/>
<path class="st0" d="M709.6,123.6V13.3H783v17.8h-53.5v27.9h46.4v18.7h-46.4v27.9H783v17.8H709.6z"/>
<path class="st0" d="M806.8,123.6V13.3h38.1c17.1,0,30,4.7,38.9,14.1c8.8,9.4,13.3,23.1,13.3,41.2c0,18-4.4,31.7-13.2,41
	c-8.8,9.4-21.8,14.1-38.9,14.1H806.8z M826.6,105.8h18.2c11.5,0,19.7-2.9,24.7-8.7c5-5.8,7.6-15.3,7.6-28.5
	c0-13.3-2.5-22.9-7.6-28.7c-5-5.8-13.3-8.7-24.7-8.7h-18.2V105.8z"/>
<path class="st0" d="M921.4,123.6V13.3h19.9v110.3H921.4z"/>
<path class="st0" d="M957.5,33.2V13.3h90.4v19.9h-35.4v90.4h-19.9V33.2H957.5z"/>
</svg>
